<svg xmlns="http://www.w3.org/2000/svg" xmlns:xlink="http://www.w3.org/1999/xlink" contentStyleType="text/css" data-diagram-type="SEQUENCE" height="637px" preserveAspectRatio="none" style="width:1314px;height:637px;background:#FFFFFF;" version="1.1" viewBox="0 0 1314 637" width="1314px" zoomAndPan="magnify"><?plantuml 1.2026.4?><defs/><g><g class="participant-lifeline" data-entity-uid="part1" data-qualified-name="redm" data-source-line="1" id="part1-lifeline"><g><title>loyalty-redemption</title><rect fill="#000000" fill-opacity="0.00000" height="501.6582" width="8" x="73.4917" y="67.4883"/><line style="stroke:#181818;stroke-width:0.5;stroke-dasharray:5,5;" x1="77" x2="77" y1="67.4883" y2="569.1465"/></g></g><g class="participant-lifeline" data-entity-uid="part2" data-qualified-name="rm" data-source-line="2" id="part2-lifeline"><g><title>ReservationManager</title><rect fill="#000000" fill-opacity="0.00000" height="501.6582" width="8" x="397.7612" y="67.4883"/><line style="stroke:#181818;stroke-width:0.5;stroke-dasharray:5,5;" x1="401.0942" x2="401.0942" y1="67.4883" y2="569.1465"/></g></g><g class="participant-lifeline" data-entity-uid="part3" data-qualified-name="svc" data-source-line="3" id="part3-lifeline"><g><title>LedgerService</title><rect fill="#000000" fill-opacity="0.00000" height="501.6582" width="8" x="769.6064" y="67.4883"/><line style="stroke:#181818;stroke-width:0.5;stroke-dasharray:5,5;" x1="772.7734" x2="772.7734" y1="67.4883" y2="569.1465"/></g></g><g class="participant-lifeline" data-entity-uid="part4" data-qualified-name="db" data-source-line="4" id="part4-lifeline"><g><title>core RDS</title><rect fill="#000000" fill-opacity="0.00000" height="501.6582" width="8" x="1266.0562" y="67.4883"/><line style="stroke:#181818;stroke-width:0.5;stroke-dasharray:5,5;" x1="1269.7524" x2="1269.7524" y1="67.4883" y2="569.1465"/></g></g><g class="participant participant-head" data-entity-uid="part1" data-qualified-name="redm" data-source-line="1" id="part1-head"><rect fill="#E2E2F0" height="30.4883" rx="2.5" ry="2.5" style="stroke:#181818;stroke-width:0.5;" width="144.9834" x="5" y="36"/><text fill="#000000" font-family="sans-serif" font-size="14" lengthAdjust="spacing" textLength="130.9834" x="12" y="56.5352">loyalty-redemption</text></g><g class="participant participant-tail" data-entity-uid="part1" data-qualified-name="redm" data-source-line="1" id="part1-tail"><rect fill="#E2E2F0" height="30.4883" rx="2.5" ry="2.5" style="stroke:#181818;stroke-width:0.5;" width="144.9834" x="5" y="568.1465"/><text fill="#000000" font-family="sans-serif" font-size="14" lengthAdjust="spacing" textLength="130.9834" x="12" y="588.6816">loyalty-redemption</text></g><g class="participant participant-head" data-entity-uid="part2" data-qualified-name="rm" data-source-line="2" id="part2-head"><rect fill="#E2E2F0" height="30.4883" rx="2.5" ry="2.5" style="stroke:#181818;stroke-width:0.5;" width="151.334" x="326.0942" y="36"/><text fill="#000000" font-family="sans-serif" font-size="14" lengthAdjust="spacing" textLength="137.334" x="333.0942" y="56.5352">ReservationManager</text></g><g class="participant participant-tail" data-entity-uid="part2" data-qualified-name="rm" data-source-line="2" id="part2-tail"><rect fill="#E2E2F0" height="30.4883" rx="2.5" ry="2.5" style="stroke:#181818;stroke-width:0.5;" width="151.334" x="326.0942" y="568.1465"/><text fill="#000000" font-family="sans-serif" font-size="14" lengthAdjust="spacing" textLength="137.334" x="333.0942" y="588.6816">ReservationManager</text></g><g class="participant participant-head" data-entity-uid="part3" data-qualified-name="svc" data-source-line="3" id="part3-head"><rect fill="#E2E2F0" height="30.4883" rx="2.5" ry="2.5" style="stroke:#181818;stroke-width:0.5;" width="107.666" x="719.7734" y="36"/><text fill="#000000" font-family="sans-serif" font-size="14" lengthAdjust="spacing" textLength="93.666" x="726.7734" y="56.5352">LedgerService</text></g><g class="participant participant-tail" data-entity-uid="part3" data-qualified-name="svc" data-source-line="3" id="part3-tail"><rect fill="#E2E2F0" height="30.4883" rx="2.5" ry="2.5" style="stroke:#181818;stroke-width:0.5;" width="107.666" x="719.7734" y="568.1465"/><text fill="#000000" font-family="sans-serif" font-size="14" lengthAdjust="spacing" textLength="93.666" x="726.7734" y="588.6816">LedgerService</text></g><g class="participant participant-head" data-entity-uid="part4" data-qualified-name="db" data-source-line="4" id="part4-head"><text fill="#000000" font-family="sans-serif" font-size="14" lengthAdjust="spacing" textLength="60.6074" x="1236.7524" y="64.5352">core RDS</text><path d="M1252.0562,15 C1252.0562,5 1270.0562,5 1270.0562,5 C1270.0562,5 1288.0562,5 1288.0562,15 L1288.0562,41 C1288.0562,51 1270.0562,51 1270.0562,51 C1270.0562,51 1252.0562,51 1252.0562,41 L1252.0562,15" fill="#E2E2F0" style="stroke:#181818;stroke-width:0.5;"/><path d="M1252.0562,15 C1252.0562,25 1270.0562,25 1270.0562,25 C1270.0562,25 1288.0562,25 1288.0562,15" fill="none" style="stroke:#181818;stroke-width:0.5;"/></g><g class="participant participant-tail" data-entity-uid="part4" data-qualified-name="db" data-source-line="4" id="part4-tail"><text fill="#000000" font-family="sans-serif" font-size="14" lengthAdjust="spacing" textLength="60.6074" x="1236.7524" y="581.6816">core RDS</text><path d="M1252.0562,594.6348 C1252.0562,584.6348 1270.0562,584.6348 1270.0562,584.6348 C1270.0562,584.6348 1288.0562,584.6348 1288.0562,594.6348 L1288.0562,620.6348 C1288.0562,630.6348 1270.0562,630.6348 1270.0562,630.6348 C1270.0562,630.6348 1252.0562,630.6348 1252.0562,620.6348 L1252.0562,594.6348" fill="#E2E2F0" style="stroke:#181818;stroke-width:0.5;"/><path d="M1252.0562,594.6348 C1252.0562,604.6348 1270.0562,604.6348 1270.0562,604.6348 C1270.0562,604.6348 1288.0562,604.6348 1288.0562,594.6348" fill="none" style="stroke:#181818;stroke-width:0.5;"/></g><rect fill="#EEEEEE" height="3" style="stroke:#EEEEEE;stroke-width:1;" width="1308.3599" x="0" y="98.1436"/><line style="stroke:#000000;stroke-width:1;" x1="0" x2="1308.3599" y1="98.1436" y2="98.1436"/><line style="stroke:#000000;stroke-width:1;" x1="0" x2="1308.3599" y1="101.1436" y2="101.1436"/><rect fill="#EEEEEE" height="23.3105" style="stroke:#000000;stroke-width:2;" width="68.0186" x="620.1707" y="87.4883"/><text fill="#000000" font-family="sans-serif" font-size="13" font-weight="700" lengthAdjust="spacing" textLength="49.7339" x="626.1707" y="104.0566">reserve</text><g class="message" data-entity-1="part1" data-entity-2="part2" data-source-line="7" id="msg1"><polygon fill="#181818" points="389.7612,138.1094,399.7612,142.1094,389.7612,146.1094,393.7612,142.1094" style="stroke:#181818;stroke-width:1;stroke-linejoin:miter;stroke-miterlimit:10;"/><line style="stroke:#181818;stroke-width:1;" x1="77.4917" x2="395.7612" y1="142.1094" y2="142.1094"/><text fill="#000000" font-family="sans-serif" font-size="13" lengthAdjust="spacing" textLength="300.2695" x="84.4917" y="137.3672">POST /reservations {points}  (Idempotency-Key)</text></g><g class="message" data-entity-1="part2" data-entity-2="part4" data-source-line="8" id="msg2"><polygon fill="#181818" points="1258.0562,167.4199,1268.0562,171.4199,1258.0562,175.4199,1262.0562,171.4199" style="stroke:#181818;stroke-width:1;stroke-linejoin:miter;stroke-miterlimit:10;"/><line style="stroke:#181818;stroke-width:1;" x1="401.7612" x2="1264.0562" y1="171.4199" y2="171.4199"/><text fill="#000000" font-family="sans-serif" font-size="13" lengthAdjust="spacing" textLength="328.3896" x="408.7612" y="166.6777">effective = redeemable_balance &#8722; SUM(active HELD)</text></g><g class="message" data-entity-1="part2" data-entity-2="part4" data-source-line="9" id="msg3"><polygon fill="#181818" points="1258.0562,196.7305,1268.0562,200.7305,1258.0562,204.7305,1262.0562,200.7305" style="stroke:#181818;stroke-width:1;stroke-linejoin:miter;stroke-miterlimit:10;"/><line style="stroke:#181818;stroke-width:1;" x1="401.7612" x2="1264.0562" y1="200.7305" y2="200.7305"/><text fill="#000000" font-family="sans-serif" font-size="13" lengthAdjust="spacing" textLength="327.9897" x="408.7612" y="195.9883">if effective &lt; points -&gt; 409 BALANCE_INSUFFICIENT</text></g><g class="message" data-entity-1="part2" data-entity-2="part4" data-source-line="10" id="msg4"><polygon fill="#181818" points="1258.0562,226.041,1268.0562,230.041,1258.0562,234.041,1262.0562,230.041" style="stroke:#181818;stroke-width:1;stroke-linejoin:miter;stroke-miterlimit:10;"/><line style="stroke:#181818;stroke-width:1;" x1="401.7612" x2="1264.0562" y1="230.041" y2="230.041"/><text fill="#000000" font-family="sans-serif" font-size="13" lengthAdjust="spacing" textLength="350.6382" x="408.7612" y="225.2988">INSERT point_reservation (HELD, held_until = now + ttl)</text></g><rect fill="#EEEEEE" height="3" style="stroke:#EEEEEE;stroke-width:1;" width="1308.3599" x="0" y="258.6963"/><line style="stroke:#000000;stroke-width:1;" x1="0" x2="1308.3599" y1="258.6963" y2="258.6963"/><line style="stroke:#000000;stroke-width:1;" x1="0" x2="1308.3599" y1="261.6963" y2="261.6963"/><rect fill="#EEEEEE" height="23.3105" style="stroke:#000000;stroke-width:2;" width="68.2153" x="620.0723" y="248.041"/><text fill="#000000" font-family="sans-serif" font-size="13" font-weight="700" lengthAdjust="spacing" textLength="49.9307" x="626.0723" y="264.6094">commit</text><g class="message" data-entity-1="part1" data-entity-2="part2" data-source-line="13" id="msg5"><polygon fill="#181818" points="389.7612,298.6621,399.7612,302.6621,389.7612,306.6621,393.7612,302.6621" style="stroke:#181818;stroke-width:1;stroke-linejoin:miter;stroke-miterlimit:10;"/><line style="stroke:#181818;stroke-width:1;" x1="77.4917" x2="395.7612" y1="302.6621" y2="302.6621"/><text fill="#000000" font-family="sans-serif" font-size="13" lengthAdjust="spacing" textLength="286.4189" x="84.4917" y="297.9199">POST /reservations/{id}/commit {externalRef}</text></g><g class="message" data-entity-1="part2" data-entity-2="part4" data-source-line="14" id="msg6"><polygon fill="#181818" points="1258.0562,327.9727,1268.0562,331.9727,1258.0562,335.9727,1262.0562,331.9727" style="stroke:#181818;stroke-width:1;stroke-linejoin:miter;stroke-miterlimit:10;"/><line style="stroke:#181818;stroke-width:1;" x1="401.7612" x2="1264.0562" y1="331.9727" y2="331.9727"/><text fill="#000000" font-family="sans-serif" font-size="13" lengthAdjust="spacing" textLength="433.6147" x="408.7612" y="327.2305">reservation FOR UPDATE; HELD? (COMMITTED -&gt; idempotent return)</text></g><g class="message" data-entity-1="part2" data-entity-2="part3" data-source-line="15" id="msg7"><polygon fill="#181818" points="761.6064,357.2832,771.6064,361.2832,761.6064,365.2832,765.6064,361.2832" style="stroke:#181818;stroke-width:1;stroke-linejoin:miter;stroke-miterlimit:10;"/><line style="stroke:#181818;stroke-width:1;" x1="401.7612" x2="767.6064" y1="361.2832" y2="361.2832"/><text fill="#000000" font-family="sans-serif" font-size="13" lengthAdjust="spacing" textLength="347.8452" x="408.7612" y="356.541">appendRedeemed(points, sourceRef = reservation-{id})</text></g><g class="message" data-entity-1="part3" data-entity-2="part4" data-source-line="16" id="msg8"><polygon fill="#181818" points="1258.0562,386.5938,1268.0562,390.5938,1258.0562,394.5938,1262.0562,390.5938" style="stroke:#181818;stroke-width:1;stroke-linejoin:miter;stroke-miterlimit:10;"/><line style="stroke:#181818;stroke-width:1;" x1="773.6064" x2="1264.0562" y1="390.5938" y2="390.5938"/><text fill="#000000" font-family="sans-serif" font-size="13" lengthAdjust="spacing" textLength="472.4497" x="780.6064" y="385.8516">INSERT Redeemed (0, &#8722;points) + UPDATE balance + consume cohorts FIFO</text></g><g class="message" data-entity-1="part2" data-entity-2="part4" data-source-line="17" id="msg9"><polygon fill="#181818" points="1258.0562,415.9043,1268.0562,419.9043,1258.0562,423.9043,1262.0562,419.9043" style="stroke:#181818;stroke-width:1;stroke-linejoin:miter;stroke-miterlimit:10;"/><line style="stroke:#181818;stroke-width:1;" x1="401.7612" x2="1264.0562" y1="419.9043" y2="419.9043"/><text fill="#000000" font-family="sans-serif" font-size="13" lengthAdjust="spacing" textLength="305.3413" x="408.7612" y="415.1621">UPDATE reservation = COMMITTED, external_ref</text></g><g class="message" data-entity-1="part2" data-entity-2="part4" data-source-line="18" id="msg10"><polygon fill="#181818" points="1258.0562,445.2148,1268.0562,449.2148,1258.0562,453.2148,1262.0562,449.2148" style="stroke:#181818;stroke-width:1;stroke-linejoin:miter;stroke-miterlimit:10;"/><line style="stroke:#181818;stroke-width:1;" x1="401.7612" x2="1264.0562" y1="449.2148" y2="449.2148"/><text fill="#000000" font-family="sans-serif" font-size="13" lengthAdjust="spacing" textLength="293.4712" x="408.7612" y="444.4727">enqueue loyalty.ledger.RedemptionCommitted</text></g><rect fill="#EEEEEE" height="3" style="stroke:#EEEEEE;stroke-width:1;" width="1308.3599" x="0" y="477.8701"/><line style="stroke:#000000;stroke-width:1;" x1="0" x2="1308.3599" y1="477.8701" y2="477.8701"/><line style="stroke:#000000;stroke-width:1;" x1="0" x2="1308.3599" y1="480.8701" y2="480.8701"/><rect fill="#EEEEEE" height="23.3105" style="stroke:#000000;stroke-width:2;" width="165.1567" x="571.6016" y="467.2148"/><text fill="#000000" font-family="sans-serif" font-size="13" font-weight="700" lengthAdjust="spacing" textLength="146.8721" x="577.6016" y="483.7832">release (failure / TTL)</text><g class="message" data-entity-1="part1" data-entity-2="part2" data-source-line="21" id="msg11"><polygon fill="#181818" points="389.7612,517.8359,399.7612,521.8359,389.7612,525.8359,393.7612,521.8359" style="stroke:#181818;stroke-width:1;stroke-linejoin:miter;stroke-miterlimit:10;"/><line style="stroke:#181818;stroke-width:1;" x1="77.4917" x2="395.7612" y1="521.8359" y2="521.8359"/><text fill="#000000" font-family="sans-serif" font-size="13" lengthAdjust="spacing" textLength="199.0371" x="84.4917" y="517.0938">POST /reservations/{id}/release</text></g><g class="message" data-entity-1="part2" data-entity-2="part4" data-source-line="22" id="msg12"><polygon fill="#181818" points="1258.0562,547.1465,1268.0562,551.1465,1258.0562,555.1465,1262.0562,551.1465" style="stroke:#181818;stroke-width:1;stroke-linejoin:miter;stroke-miterlimit:10;"/><line style="stroke:#181818;stroke-width:1;" x1="401.7612" x2="1264.0562" y1="551.1465" y2="551.1465"/><text fill="#000000" font-family="sans-serif" font-size="13" lengthAdjust="spacing" textLength="463.0361" x="408.7612" y="546.4043">UPDATE reservation = RELEASED  (no Ledger entry; balance never moved)</text></g><?plantuml-src ZLDDZvim4BtpAqOvWJRPxA6NPijMQG8gAabMGCwH0qFNah6fCMbHbFkU-nFxIshpaIMzT4z8dddpthnvb4GgcjAIS0KIim981HCc6i9KCzCFM9IA2Zwnod5ZrnPXXV94J7r3EFcEyhQjEgLjNuYPhiMwbwOuiJAYo95K2DcnBQT28aJhU69Phgj5cA48hckrUcPFXcu1pxiuWRbyewpWN0hALNK1i0CZL2ZaQJFxXerZoHQf6HQ0UOwfecQcMH6n84U6XoDXXAS8Vrv_GxpVsAJh-Ug5wniupKSJFa77QQeV7Zx2bsMutAwyGx2DzxuVh09lcup1-jsBaWvq68a7s_1CuGLPTgYveaoBu-8dt85Ip6cTI4LHKFKE8-PdcbtcVViPVocKdB08yyjOofZTtqMmVrul4--nNVWpsAlTPXCaYRSs03hOQKAXQia7Hyn95q3A4daMjLvYPdUMJA4IjKnHyu8xPfiPUOvbeF_OCam0-s5gxj0DShG9dJWORdIdpU1LNQ3-lWYf_VS3VpVUhWUCbtJXkjCK1bVq4VARSF0VDTO8VUJlMPlL--YQ_5LhgyAiJoT34rqx9vJLEhTpI9BGUVUHUln_bKTUw2rZVGomkO3k1z9QbMmUhwPmFEd7GfmmS_u2?></g></svg>