<svg xmlns="http://www.w3.org/2000/svg" xmlns:xlink="http://www.w3.org/1999/xlink" contentStyleType="text/css" data-diagram-type="SEQUENCE" height="475px" preserveAspectRatio="none" style="width:1067px;height:475px;background:#FFFFFF;" version="1.1" viewBox="0 0 1067 475" width="1067px" zoomAndPan="magnify"><?plantuml 1.2026.4?><defs/><g><g><title>ReservationTtlSweeper</title><rect fill="#FFFFFF" height="298.0605" style="stroke:#181818;stroke-width:1;" width="10" x="452.2866" y="98.7988"/></g><rect fill="none" height="196.1289" style="stroke:#000000;stroke-width:1.5;" width="697.9458" x="353.6523" y="143.1094"/><rect fill="none" height="106.1973" style="stroke:#000000;stroke-width:1.5;" width="677.9458" x="363.6523" y="226.041"/><g class="participant-lifeline" data-entity-uid="part1" data-qualified-name="sched" data-source-line="1" id="part1-lifeline"><g><title>Scheduler</title><rect fill="#000000" fill-opacity="0.00000" height="339.3711" width="8" x="45.1328" y="67.4883"/><line style="stroke:#181818;stroke-width:0.5;stroke-dasharray:5,5;" x1="49" x2="49" y1="67.4883" y2="406.8594"/></g></g><g class="participant-lifeline" data-entity-uid="part2" data-qualified-name="sweep" data-source-line="2" id="part2-lifeline"><g><title>ReservationTtlSweeper</title><rect fill="#000000" fill-opacity="0.00000" height="339.3711" width="8" x="453.2866" y="67.4883"/><line style="stroke:#181818;stroke-width:0.5;stroke-dasharray:5,5;" x1="456.6523" x2="456.6523" y1="67.4883" y2="406.8594"/></g></g><g class="participant-lifeline" data-entity-uid="part3" data-qualified-name="rm" data-source-line="3" id="part3-lifeline"><g><title>ReservationManager</title><rect fill="#000000" fill-opacity="0.00000" height="339.3711" width="8" x="716.5405" y="67.4883"/><line style="stroke:#181818;stroke-width:0.5;stroke-dasharray:5,5;" x1="719.8735" x2="719.8735" y1="67.4883" y2="406.8594"/></g></g><g class="participant-lifeline" data-entity-uid="part4" data-qualified-name="db" data-source-line="4" id="part4-lifeline"><g><title>core RDS</title><rect fill="#000000" fill-opacity="0.00000" height="339.3711" width="8" x="994.2944" y="67.4883"/><line style="stroke:#181818;stroke-width:0.5;stroke-dasharray:5,5;" x1="997.9907" x2="997.9907" y1="67.4883" y2="406.8594"/></g></g><g class="participant participant-head" data-entity-uid="part1" data-qualified-name="sched" data-source-line="1" id="part1-head"><rect fill="#E2E2F0" height="46.9766" rx="2.5" ry="2.5" style="stroke:#181818;stroke-width:0.5;" width="88.2656" x="5" y="19.5117"/><text fill="#000000" font-family="sans-serif" font-size="14" lengthAdjust="spacing" textLength="66.2744" x="15.9956" y="40.0469">Scheduler</text><text fill="#000000" font-family="sans-serif" font-size="14" lengthAdjust="spacing" textLength="74.2656" x="12" y="56.5352">(every 60s)</text></g><g class="participant participant-tail" data-entity-uid="part1" data-qualified-name="sched" data-source-line="1" id="part1-tail"><rect fill="#E2E2F0" height="46.9766" rx="2.5" ry="2.5" style="stroke:#181818;stroke-width:0.5;" width="88.2656" x="5" y="405.8594"/><text fill="#000000" font-family="sans-serif" font-size="14" lengthAdjust="spacing" textLength="66.2744" x="15.9956" y="426.3945">Scheduler</text><text fill="#000000" font-family="sans-serif" font-size="14" lengthAdjust="spacing" textLength="74.2656" x="12" y="442.8828">(every 60s)</text></g><g class="participant participant-head" data-entity-uid="part2" data-qualified-name="sweep" data-source-line="2" id="part2-head"><rect fill="#E2E2F0" height="30.4883" rx="2.5" ry="2.5" style="stroke:#181818;stroke-width:0.5;" width="167.2686" x="373.6523" y="36"/><text fill="#000000" font-family="sans-serif" font-size="14" lengthAdjust="spacing" textLength="153.2686" x="380.6523" y="56.5352">ReservationTtlSweeper</text></g><g class="participant participant-tail" data-entity-uid="part2" data-qualified-name="sweep" data-source-line="2" id="part2-tail"><rect fill="#E2E2F0" height="30.4883" rx="2.5" ry="2.5" style="stroke:#181818;stroke-width:0.5;" width="167.2686" x="373.6523" y="405.8594"/><text fill="#000000" font-family="sans-serif" font-size="14" lengthAdjust="spacing" textLength="153.2686" x="380.6523" y="426.3945">ReservationTtlSweeper</text></g><g class="participant participant-head" data-entity-uid="part3" data-qualified-name="rm" data-source-line="3" id="part3-head"><rect fill="#E2E2F0" height="30.4883" rx="2.5" ry="2.5" style="stroke:#181818;stroke-width:0.5;" width="151.334" x="644.8735" y="36"/><text fill="#000000" font-family="sans-serif" font-size="14" lengthAdjust="spacing" textLength="137.334" x="651.8735" y="56.5352">ReservationManager</text></g><g class="participant participant-tail" data-entity-uid="part3" data-qualified-name="rm" data-source-line="3" id="part3-tail"><rect fill="#E2E2F0" height="30.4883" rx="2.5" ry="2.5" style="stroke:#181818;stroke-width:0.5;" width="151.334" x="644.8735" y="405.8594"/><text fill="#000000" font-family="sans-serif" font-size="14" lengthAdjust="spacing" textLength="137.334" x="651.8735" y="426.3945">ReservationManager</text></g><g class="participant participant-head" data-entity-uid="part4" data-qualified-name="db" data-source-line="4" id="part4-head"><text fill="#000000" font-family="sans-serif" font-size="14" lengthAdjust="spacing" textLength="60.6074" x="964.9907" y="64.5352">core RDS</text><path d="M980.2944,15 C980.2944,5 998.2944,5 998.2944,5 C998.2944,5 1016.2944,5 1016.2944,15 L1016.2944,41 C1016.2944,51 998.2944,51 998.2944,51 C998.2944,51 980.2944,51 980.2944,41 L980.2944,15" fill="#E2E2F0" style="stroke:#181818;stroke-width:0.5;"/><path d="M980.2944,15 C980.2944,25 998.2944,25 998.2944,25 C998.2944,25 1016.2944,25 1016.2944,15" fill="none" style="stroke:#181818;stroke-width:0.5;"/></g><g class="participant participant-tail" data-entity-uid="part4" data-qualified-name="db" data-source-line="4" id="part4-tail"><text fill="#000000" font-family="sans-serif" font-size="14" lengthAdjust="spacing" textLength="60.6074" x="964.9907" y="419.3945">core RDS</text><path d="M980.2944,432.3477 C980.2944,422.3477 998.2944,422.3477 998.2944,422.3477 C998.2944,422.3477 1016.2944,422.3477 1016.2944,432.3477 L1016.2944,458.3477 C1016.2944,468.3477 998.2944,468.3477 998.2944,468.3477 C998.2944,468.3477 980.2944,468.3477 980.2944,458.3477 L980.2944,432.3477" fill="#E2E2F0" style="stroke:#181818;stroke-width:0.5;"/><path d="M980.2944,432.3477 C980.2944,442.3477 998.2944,442.3477 998.2944,442.3477 C998.2944,442.3477 1016.2944,442.3477 1016.2944,432.3477" fill="none" style="stroke:#181818;stroke-width:0.5;"/></g><g><title>ReservationTtlSweeper</title><rect fill="#FFFFFF" height="298.0605" style="stroke:#181818;stroke-width:1;" width="10" x="452.2866" y="98.7988"/></g><g class="message" data-entity-1="part1" data-entity-2="part2" data-source-line="6" id="msg1"><polygon fill="#181818" points="440.2866,94.7988,450.2866,98.7988,440.2866,102.7988,444.2866,98.7988" style="stroke:#181818;stroke-width:1;stroke-linejoin:miter;stroke-miterlimit:10;"/><line style="stroke:#181818;stroke-width:1;" x1="49.1328" x2="446.2866" y1="98.7988" y2="98.7988"/><text fill="#000000" font-family="sans-serif" font-size="13" lengthAdjust="spacing" textLength="384.1538" x="56.1328" y="94.0566">sweep()   [ShedLock "reservationTtlSweeper" &#8212; one pod/tick]</text></g><g class="message" data-entity-1="part2" data-entity-2="part4" data-source-line="8" id="msg2"><polygon fill="#181818" points="986.2944,124.1094,996.2944,128.1094,986.2944,132.1094,990.2944,128.1094" style="stroke:#181818;stroke-width:1;stroke-linejoin:miter;stroke-miterlimit:10;"/><line style="stroke:#181818;stroke-width:1;" x1="462.2866" x2="992.2944" y1="128.1094" y2="128.1094"/><text fill="#000000" font-family="sans-serif" font-size="13" lengthAdjust="spacing" textLength="206.5908" x="469.2866" y="123.3672">findExpiredHeld(now, LIMIT 500)</text></g><path d="M353.6523,143.1094 L428.0991,143.1094 L428.0991,150.4199 L418.0991,160.4199 L353.6523,160.4199 L353.6523,143.1094" fill="#EEEEEE" style="stroke:#000000;stroke-width:1.5;"/><rect fill="none" height="196.1289" style="stroke:#000000;stroke-width:1.5;" width="697.9458" x="353.6523" y="143.1094"/><text fill="#000000" font-family="sans-serif" font-size="13" font-weight="700" lengthAdjust="spacing" textLength="29.4468" x="368.6523" y="156.6777">loop</text><text fill="#000000" font-family="sans-serif" font-size="11" font-weight="700" lengthAdjust="spacing" textLength="166.8853" x="443.0991" y="155.7441">[each stale HELD reservation]</text><g class="message" data-entity-1="part2" data-entity-2="part3" data-source-line="10" id="msg3"><polygon fill="#181818" points="708.5405,177.7305,718.5405,181.7305,708.5405,185.7305,712.5405,181.7305" style="stroke:#181818;stroke-width:1;stroke-linejoin:miter;stroke-miterlimit:10;"/><line style="stroke:#181818;stroke-width:1;" x1="462.2866" x2="714.5405" y1="181.7305" y2="181.7305"/><text fill="#000000" font-family="sans-serif" font-size="13" lengthAdjust="spacing" textLength="234.2539" x="469.2866" y="176.9883">release(reservationId, "TTL_EXPIRED")</text></g><g class="message" data-entity-1="part3" data-entity-2="part4" data-source-line="11" id="msg4"><polygon fill="#181818" points="986.2944,207.041,996.2944,211.041,986.2944,215.041,990.2944,211.041" style="stroke:#181818;stroke-width:1;stroke-linejoin:miter;stroke-miterlimit:10;"/><line style="stroke:#181818;stroke-width:1;" x1="720.5405" x2="992.2944" y1="211.041" y2="211.041"/><text fill="#000000" font-family="sans-serif" font-size="13" lengthAdjust="spacing" textLength="154.0132" x="727.5405" y="206.2988">reservation FOR UPDATE</text></g><path d="M363.6523,226.041 L425.791,226.041 L425.791,233.3516 L415.791,243.3516 L363.6523,243.3516 L363.6523,226.041" fill="#EEEEEE" style="stroke:#000000;stroke-width:1.5;"/><rect fill="none" height="106.1973" style="stroke:#000000;stroke-width:1.5;" width="677.9458" x="363.6523" y="226.041"/><text fill="#000000" font-family="sans-serif" font-size="13" font-weight="700" lengthAdjust="spacing" textLength="17.1387" x="378.6523" y="239.6094">alt</text><text fill="#000000" font-family="sans-serif" font-size="11" font-weight="700" lengthAdjust="spacing" textLength="63.4971" x="440.791" y="238.6758">[still HELD]</text><g class="message" data-entity-1="part3" data-entity-2="part4" data-source-line="13" id="msg5"><polygon fill="#181818" points="986.2944,275.9727,996.2944,279.9727,986.2944,283.9727,990.2944,279.9727" style="stroke:#181818;stroke-width:1;stroke-linejoin:miter;stroke-miterlimit:10;"/><line style="stroke:#181818;stroke-width:1;" x1="720.5405" x2="992.2944" y1="279.9727" y2="279.9727"/><text fill="#000000" font-family="sans-serif" font-size="13" lengthAdjust="spacing" textLength="205.1689" x="727.5405" y="259.9199">UPDATE reservation = RELEASED</text><text fill="#000000" font-family="sans-serif" font-size="13" lengthAdjust="spacing" textLength="249.6406" x="731.6538" y="275.2305">(no Ledger entry; balance never moved)</text></g><line style="stroke:#000000;stroke-width:1;stroke-dasharray:2,2;" x1="363.6523" x2="1041.5981" y1="288.9727" y2="288.9727"/><text fill="#000000" font-family="sans-serif" font-size="11" font-weight="700" lengthAdjust="spacing" textLength="193.5259" x="368.6523" y="299.6074">[committed / released in the race]</text><g class="message" data-entity-1="part3" data-entity-2="part2" data-source-line="15" id="msg6"><polygon fill="#181818" points="473.2866,320.2383,463.2866,324.2383,473.2866,328.2383,469.2866,324.2383" style="stroke:#181818;stroke-width:1;stroke-linejoin:miter;stroke-miterlimit:10;"/><line style="stroke:#181818;stroke-width:1;stroke-dasharray:2,2;" x1="467.2866" x2="719.5405" y1="324.2383" y2="324.2383"/><text fill="#000000" font-family="sans-serif" font-size="13" lengthAdjust="spacing" textLength="143.5649" x="479.2866" y="319.4961">CoreException -&gt; skip</text></g><path d="M467,351.2383 L467,391.2383 L803,391.2383 L803,361.2383 L793,351.2383 L467,351.2383" fill="#FEFFDD" style="stroke:#181818;stroke-width:0.5;"/><path d="M793,351.2383 L793,361.2383 L803,361.2383 L793,351.2383" fill="#FEFFDD" style="stroke:#181818;stroke-width:0.5;"/><text fill="#000000" font-family="sans-serif" font-size="13" lengthAdjust="spacing" textLength="259.3779" x="473" y="368.8066">Batched at 500 to keep the txn bounded;</text><text fill="#000000" font-family="sans-serif" font-size="13" lengthAdjust="spacing" textLength="315.6182" x="473" y="384.1172">any remaining stale holds are picked up next tick.</text><?plantuml-src RLBHQjim57ttLnpyb43NvcLxIDcWcpqQS5cnCnYiPIZIRImYIq9MqkHj7x4lt9VqAawBC_PWP7JFFUUUU-H5Y5fgBsn4BrjI43to9lrj3OK7Ew4TXGC-pFffdlan-fd87z4rzHHs8cfdbz4qwPx2EJXq_oBlX1Nh15CYYfNe2Mfrn4WN27NHv5as3FJkqqbhFfoJAO2V3PSg9pV8mt_byVVt7pXBy4vTyHoRnqp8g1b70qqsa38x2y_nfAqgzru7KhTarCIwvmjKYxl54kzdisbcdFCW8LlqKHZ2RLaL64bdm1iXkvrppH3Rcemm2tM1VBciVfK_xXTrMUHJxcBmwmmZABv-g_7zlhXPbemHXlSTjJ57MRuuQnjWPzqVKPTLUTEKnOC5Uq55YhSDiZ4Shh4IHbX9i2bST6v7Aer2XcEGhkjqZBpugrSF2jeYjeGW9BsfZtBvmfcLUqd-A9uA6-qJeLLP-gpZhGUzRYFSqsdzm6SHXnSNqueH7JQ9BWd5lSNARQqYTPtysmFFqWbjjLsV0cYTKJq4FnRFwJBDrhEVVKGA-pB98ibcYivpVm40?></g></svg>