<svg xmlns="http://www.w3.org/2000/svg" xmlns:xlink="http://www.w3.org/1999/xlink" contentStyleType="text/css" data-diagram-type="SEQUENCE" height="654px" preserveAspectRatio="none" style="width:1458px;height:654px;background:#FFFFFF;" version="1.1" viewBox="0 0 1458 654" width="1458px" zoomAndPan="magnify"><?plantuml 1.2026.4?><defs/><g><g><title>ExpiryJob</title><rect fill="#FFFFFF" height="426.9688" style="stroke:#181818;stroke-width:1;" width="10" x="417.4775" y="98.7988"/></g><g><title>ProgramExpiryProcessor</title><rect fill="#FFFFFF" height="337.0371" style="stroke:#181818;stroke-width:1;" width="10" x="720.2139" y="181.7305"/></g><rect fill="none" height="375.6582" style="stroke:#000000;stroke-width:1.5;" width="1071.2861" x="363.5571" y="143.1094"/><rect fill="none" height="46.6211" style="stroke:#000000;stroke-width:1.5;" width="451.1768" x="373.5571" y="226.041"/><rect fill="none" height="180.4844" style="stroke:#000000;stroke-width:1.5;" width="799.1494" x="625.6938" y="331.2832"/><g class="participant-lifeline" data-entity-uid="part1" data-qualified-name="sched" data-source-line="1" id="part1-lifeline"><g><title>Scheduler</title><rect fill="#000000" fill-opacity="0.00000" height="518.9004" width="8" x="95.6743" y="67.4883"/><line style="stroke:#181818;stroke-width:0.5;stroke-dasharray:5,5;" x1="99" x2="99" y1="67.4883" y2="586.3887"/></g></g><g class="participant-lifeline" data-entity-uid="part2" data-qualified-name="job" data-source-line="2" id="part2-lifeline"><g><title>ExpiryJob</title><rect fill="#000000" fill-opacity="0.00000" height="518.9004" width="8" x="418.4775" y="67.4883"/><line style="stroke:#181818;stroke-width:0.5;stroke-dasharray:5,5;" x1="421.5571" x2="421.5571" y1="67.4883" y2="586.3887"/></g></g><g class="participant-lifeline" data-entity-uid="part3" data-qualified-name="proc" data-source-line="3" id="part3-lifeline"><g><title>ProgramExpiryProcessor</title><rect fill="#000000" fill-opacity="0.00000" height="518.9004" width="8" x="721.2139" y="67.4883"/><line style="stroke:#181818;stroke-width:0.5;stroke-dasharray:5,5;" x1="724.6938" x2="724.6938" y1="67.4883" y2="586.3887"/></g></g><g class="participant-lifeline" data-entity-uid="part4" data-qualified-name="svc" data-source-line="4" id="part4-lifeline"><g><title>LedgerService</title><rect fill="#000000" fill-opacity="0.00000" height="518.9004" width="8" x="1063.7246" y="67.4883"/><line style="stroke:#181818;stroke-width:0.5;stroke-dasharray:5,5;" x1="1066.8916" x2="1066.8916" y1="67.4883" y2="586.3887"/></g></g><g class="participant-lifeline" data-entity-uid="part5" data-qualified-name="db" data-source-line="5" id="part5-lifeline"><g><title>core RDS</title><rect fill="#000000" fill-opacity="0.00000" height="518.9004" width="8" x="1377.5396" y="67.4883"/><line style="stroke:#181818;stroke-width:0.5;stroke-dasharray:5,5;" x1="1381.2358" x2="1381.2358" y1="67.4883" y2="586.3887"/></g></g><g class="participant participant-head" data-entity-uid="part1" data-qualified-name="sched" data-source-line="1" id="part1-head"><rect fill="#E2E2F0" height="46.9766" rx="2.5" ry="2.5" style="stroke:#181818;stroke-width:0.5;" width="189.3486" x="5" y="19.5117"/><text fill="#000000" font-family="sans-serif" font-size="14" lengthAdjust="spacing" textLength="66.2744" x="66.5371" y="40.0469">Scheduler</text><text fill="#000000" font-family="sans-serif" font-size="14" lengthAdjust="spacing" textLength="175.3486" x="12" y="56.5352">(core.expiry.cron, nightly)</text></g><g class="participant participant-tail" data-entity-uid="part1" data-qualified-name="sched" data-source-line="1" id="part1-tail"><rect fill="#E2E2F0" height="46.9766" rx="2.5" ry="2.5" style="stroke:#181818;stroke-width:0.5;" width="189.3486" x="5" y="585.3887"/><text fill="#000000" font-family="sans-serif" font-size="14" lengthAdjust="spacing" textLength="66.2744" x="66.5371" y="605.9238">Scheduler</text><text fill="#000000" font-family="sans-serif" font-size="14" lengthAdjust="spacing" textLength="175.3486" x="12" y="622.4121">(core.expiry.cron, nightly)</text></g><g class="participant participant-head" data-entity-uid="part2" data-qualified-name="job" data-source-line="2" id="part2-head"><rect fill="#E2E2F0" height="30.4883" rx="2.5" ry="2.5" style="stroke:#181818;stroke-width:0.5;" width="77.8408" x="383.5571" y="36"/><text fill="#000000" font-family="sans-serif" font-size="14" lengthAdjust="spacing" textLength="63.8408" x="390.5571" y="56.5352">ExpiryJob</text></g><g class="participant participant-tail" data-entity-uid="part2" data-qualified-name="job" data-source-line="2" id="part2-tail"><rect fill="#E2E2F0" height="30.4883" rx="2.5" ry="2.5" style="stroke:#181818;stroke-width:0.5;" width="77.8408" x="383.5571" y="585.3887"/><text fill="#000000" font-family="sans-serif" font-size="14" lengthAdjust="spacing" textLength="63.8408" x="390.5571" y="605.9238">ExpiryJob</text></g><g class="participant participant-head" data-entity-uid="part3" data-qualified-name="proc" data-source-line="3" id="part3-head"><rect fill="#E2E2F0" height="30.4883" rx="2.5" ry="2.5" style="stroke:#181818;stroke-width:0.5;" width="179.04" x="635.6938" y="36"/><text fill="#000000" font-family="sans-serif" font-size="14" lengthAdjust="spacing" textLength="165.04" x="642.6938" y="56.5352">ProgramExpiryProcessor</text></g><g class="participant participant-tail" data-entity-uid="part3" data-qualified-name="proc" data-source-line="3" id="part3-tail"><rect fill="#E2E2F0" height="30.4883" rx="2.5" ry="2.5" style="stroke:#181818;stroke-width:0.5;" width="179.04" x="635.6938" y="585.3887"/><text fill="#000000" font-family="sans-serif" font-size="14" lengthAdjust="spacing" textLength="165.04" x="642.6938" y="605.9238">ProgramExpiryProcessor</text></g><g class="participant participant-head" data-entity-uid="part4" data-qualified-name="svc" data-source-line="4" id="part4-head"><rect fill="#E2E2F0" height="30.4883" rx="2.5" ry="2.5" style="stroke:#181818;stroke-width:0.5;" width="107.666" x="1013.8916" y="36"/><text fill="#000000" font-family="sans-serif" font-size="14" lengthAdjust="spacing" textLength="93.666" x="1020.8916" y="56.5352">LedgerService</text></g><g class="participant participant-tail" data-entity-uid="part4" data-qualified-name="svc" data-source-line="4" id="part4-tail"><rect fill="#E2E2F0" height="30.4883" rx="2.5" ry="2.5" style="stroke:#181818;stroke-width:0.5;" width="107.666" x="1013.8916" y="585.3887"/><text fill="#000000" font-family="sans-serif" font-size="14" lengthAdjust="spacing" textLength="93.666" x="1020.8916" y="605.9238">LedgerService</text></g><g class="participant participant-head" data-entity-uid="part5" data-qualified-name="db" data-source-line="5" id="part5-head"><text fill="#000000" font-family="sans-serif" font-size="14" lengthAdjust="spacing" textLength="60.6074" x="1348.2358" y="64.5352">core RDS</text><path d="M1363.5396,15 C1363.5396,5 1381.5396,5 1381.5396,5 C1381.5396,5 1399.5396,5 1399.5396,15 L1399.5396,41 C1399.5396,51 1381.5396,51 1381.5396,51 C1381.5396,51 1363.5396,51 1363.5396,41 L1363.5396,15" fill="#E2E2F0" style="stroke:#181818;stroke-width:0.5;"/><path d="M1363.5396,15 C1363.5396,25 1381.5396,25 1381.5396,25 C1381.5396,25 1399.5396,25 1399.5396,15" fill="none" style="stroke:#181818;stroke-width:0.5;"/></g><g class="participant participant-tail" data-entity-uid="part5" data-qualified-name="db" data-source-line="5" id="part5-tail"><text fill="#000000" font-family="sans-serif" font-size="14" lengthAdjust="spacing" textLength="60.6074" x="1348.2358" y="598.9238">core RDS</text><path d="M1363.5396,611.877 C1363.5396,601.877 1381.5396,601.877 1381.5396,601.877 C1381.5396,601.877 1399.5396,601.877 1399.5396,611.877 L1399.5396,637.877 C1399.5396,647.877 1381.5396,647.877 1381.5396,647.877 C1381.5396,647.877 1363.5396,647.877 1363.5396,637.877 L1363.5396,611.877" fill="#E2E2F0" style="stroke:#181818;stroke-width:0.5;"/><path d="M1363.5396,611.877 C1363.5396,621.877 1381.5396,621.877 1381.5396,621.877 C1381.5396,621.877 1399.5396,621.877 1399.5396,611.877" fill="none" style="stroke:#181818;stroke-width:0.5;"/></g><g><title>ExpiryJob</title><rect fill="#FFFFFF" height="426.9688" style="stroke:#181818;stroke-width:1;" width="10" x="417.4775" y="98.7988"/></g><g><title>ProgramExpiryProcessor</title><rect fill="#FFFFFF" height="337.0371" style="stroke:#181818;stroke-width:1;" width="10" x="720.2139" y="181.7305"/></g><g class="message" data-entity-1="part1" data-entity-2="part2" data-source-line="7" id="msg1"><polygon fill="#181818" points="405.4775,94.7988,415.4775,98.7988,405.4775,102.7988,409.4775,98.7988" style="stroke:#181818;stroke-width:1;stroke-linejoin:miter;stroke-miterlimit:10;"/><line style="stroke:#181818;stroke-width:1;" x1="99.6743" x2="411.4775" y1="98.7988" y2="98.7988"/><text fill="#000000" font-family="sans-serif" font-size="13" lengthAdjust="spacing" textLength="298.8032" x="106.6743" y="94.0566">run()   [ShedLock "pointExpiry" &#8212; one pod/tick]</text></g><g class="message" data-entity-1="part2" data-entity-2="part5" data-source-line="9" id="msg2"><polygon fill="#181818" points="1369.5396,124.1094,1379.5396,128.1094,1369.5396,132.1094,1373.5396,128.1094" style="stroke:#181818;stroke-width:1;stroke-linejoin:miter;stroke-miterlimit:10;"/><line style="stroke:#181818;stroke-width:1;" x1="427.4775" x2="1375.5396" y1="128.1094" y2="128.1094"/><text fill="#000000" font-family="sans-serif" font-size="13" lengthAdjust="spacing" textLength="130.8442" x="434.4775" y="123.3672">SELECT program (all)</text></g><path d="M363.5571,143.1094 L438.0039,143.1094 L438.0039,150.4199 L428.0039,160.4199 L363.5571,160.4199 L363.5571,143.1094" fill="#EEEEEE" style="stroke:#000000;stroke-width:1.5;"/><rect fill="none" height="375.6582" style="stroke:#000000;stroke-width:1.5;" width="1071.2861" x="363.5571" y="143.1094"/><text fill="#000000" font-family="sans-serif" font-size="13" font-weight="700" lengthAdjust="spacing" textLength="29.4468" x="378.5571" y="156.6777">loop</text><text fill="#000000" font-family="sans-serif" font-size="11" font-weight="700" lengthAdjust="spacing" textLength="85.9321" x="453.0039" y="155.7441">[each Program]</text><g class="message" data-entity-1="part2" data-entity-2="part3" data-source-line="11" id="msg3"><polygon fill="#181818" points="708.2139,177.7305,718.2139,181.7305,708.2139,185.7305,712.2139,181.7305" style="stroke:#181818;stroke-width:1;stroke-linejoin:miter;stroke-miterlimit:10;"/><line style="stroke:#181818;stroke-width:1;" x1="427.4775" x2="714.2139" y1="181.7305" y2="181.7305"/><text fill="#000000" font-family="sans-serif" font-size="13" lengthAdjust="spacing" textLength="273.7363" x="434.4775" y="176.9883">expireProgram(programId, now)   [own txn]</text></g><g class="message" data-entity-1="part3" data-entity-2="part5" data-source-line="13" id="msg4"><polygon fill="#181818" points="1369.5396,207.041,1379.5396,211.041,1369.5396,215.041,1373.5396,211.041" style="stroke:#181818;stroke-width:1;stroke-linejoin:miter;stroke-miterlimit:10;"/><line style="stroke:#181818;stroke-width:1;" x1="730.2139" x2="1375.5396" y1="211.041" y2="211.041"/><text fill="#000000" font-family="sans-serif" font-size="13" lengthAdjust="spacing" textLength="239.1162" x="737.2139" y="206.2988">pg_try_advisory_xact_lock(programId)</text></g><path d="M373.5571,226.041 L435.6958,226.041 L435.6958,233.3516 L425.6958,243.3516 L373.5571,243.3516 L373.5571,226.041" fill="#EEEEEE" style="stroke:#000000;stroke-width:1.5;"/><rect fill="none" height="46.6211" style="stroke:#000000;stroke-width:1.5;" width="451.1768" x="373.5571" y="226.041"/><text fill="#000000" font-family="sans-serif" font-size="13" font-weight="700" lengthAdjust="spacing" textLength="17.1387" x="388.5571" y="239.6094">alt</text><text fill="#000000" font-family="sans-serif" font-size="11" font-weight="700" lengthAdjust="spacing" textLength="120.6509" x="450.6958" y="238.6758">[lock held elsewhere]</text><g class="message" data-entity-1="part3" data-entity-2="part2" data-source-line="15" id="msg5"><polygon fill="#181818" points="438.4775,260.6621,428.4775,264.6621,438.4775,268.6621,434.4775,264.6621" style="stroke:#181818;stroke-width:1;stroke-linejoin:miter;stroke-miterlimit:10;"/><line style="stroke:#181818;stroke-width:1;stroke-dasharray:2,2;" x1="432.4775" x2="719.2139" y1="264.6621" y2="264.6621"/><text fill="#000000" font-family="sans-serif" font-size="13" lengthAdjust="spacing" textLength="131.7266" x="444.4775" y="259.9199">0 (skip this Program)</text></g><g class="message" data-entity-1="part3" data-entity-2="part5" data-source-line="17" id="msg6"><polygon fill="#181818" points="1369.5396,312.2832,1379.5396,316.2832,1369.5396,320.2832,1373.5396,316.2832" style="stroke:#181818;stroke-width:1;stroke-linejoin:miter;stroke-miterlimit:10;"/><line style="stroke:#181818;stroke-width:1;" x1="730.2139" x2="1375.5396" y1="316.2832" y2="316.2832"/><text fill="#000000" font-family="sans-serif" font-size="13" lengthAdjust="spacing" textLength="250.9609" x="737.2139" y="296.2305">SELECT cohort WHERE expires_at &lt; now</text><text fill="#000000" font-family="sans-serif" font-size="13" lengthAdjust="spacing" textLength="157.9805" x="741.3271" y="311.541">ORDER BY earned_at ASC</text></g><path d="M625.6938,331.2832 L700.1406,331.2832 L700.1406,338.5938 L690.1406,348.5938 L625.6938,348.5938 L625.6938,331.2832" fill="#EEEEEE" style="stroke:#000000;stroke-width:1.5;"/><rect fill="none" height="180.4844" style="stroke:#000000;stroke-width:1.5;" width="799.1494" x="625.6938" y="331.2832"/><text fill="#000000" font-family="sans-serif" font-size="13" font-weight="700" lengthAdjust="spacing" textLength="29.4468" x="640.6938" y="344.8516">loop</text><text fill="#000000" font-family="sans-serif" font-size="11" font-weight="700" lengthAdjust="spacing" textLength="196.5498" x="715.1406" y="343.918">[each unconsumed expired cohort]</text><g class="message" data-entity-1="part3" data-entity-2="part5" data-source-line="19" id="msg7"><polygon fill="#181818" points="1369.5396,365.9043,1379.5396,369.9043,1369.5396,373.9043,1373.5396,369.9043" style="stroke:#181818;stroke-width:1;stroke-linejoin:miter;stroke-miterlimit:10;"/><line style="stroke:#181818;stroke-width:1;" x1="730.2139" x2="1375.5396" y1="369.9043" y2="369.9043"/><text fill="#000000" font-family="sans-serif" font-size="13" lengthAdjust="spacing" textLength="156.7998" x="737.2139" y="365.1621">cohort.expire(remaining)</text></g><g class="message" data-entity-1="part3" data-entity-2="part4" data-source-line="20" id="msg8"><polygon fill="#181818" points="1055.7246,410.5254,1065.7246,414.5254,1055.7246,418.5254,1059.7246,414.5254" style="stroke:#181818;stroke-width:1;stroke-linejoin:miter;stroke-miterlimit:10;"/><line style="stroke:#181818;stroke-width:1;" x1="730.2139" x2="1061.7246" y1="414.5254" y2="414.5254"/><text fill="#000000" font-family="sans-serif" font-size="13" lengthAdjust="spacing" textLength="313.5107" x="737.2139" y="394.4727">appendExpired(memberId, programId, remaining,</text><text fill="#000000" font-family="sans-serif" font-size="13" lengthAdjust="spacing" textLength="210.228" x="741.3271" y="409.7832">sourceRef = "expiry-cohort-{id}")</text></g><g class="message" data-entity-1="part4" data-entity-2="part5" data-source-line="21" id="msg9"><polygon fill="#181818" points="1369.5396,439.8359,1379.5396,443.8359,1369.5396,447.8359,1373.5396,443.8359" style="stroke:#181818;stroke-width:1;stroke-linejoin:miter;stroke-miterlimit:10;"/><line style="stroke:#181818;stroke-width:1;" x1="1067.7246" x2="1375.5396" y1="443.8359" y2="443.8359"/><text fill="#000000" font-family="sans-serif" font-size="13" lengthAdjust="spacing" textLength="250.8911" x="1074.7246" y="439.0938">find (sourceRef, Expired) &#8212; replay? skip</text></g><g class="message" data-entity-1="part4" data-entity-2="part5" data-source-line="22" id="msg10"><polygon fill="#181818" points="1369.5396,499.7676,1379.5396,503.7676,1369.5396,507.7676,1373.5396,503.7676" style="stroke:#181818;stroke-width:1;stroke-linejoin:miter;stroke-miterlimit:10;"/><line style="stroke:#181818;stroke-width:1;" x1="1067.7246" x2="1375.5396" y1="503.7676" y2="503.7676"/><text fill="#000000" font-family="sans-serif" font-size="13" lengthAdjust="spacing" textLength="289.8149" x="1074.7246" y="468.4043">Member FOR UPDATE; INSERT Expired(-N,-N);</text><text fill="#000000" font-family="sans-serif" font-size="13" lengthAdjust="spacing" textLength="207.8794" x="1078.8379" y="483.7148">UPDATE balance; recompute tier;</text><text fill="#000000" font-family="sans-serif" font-size="13" lengthAdjust="spacing" textLength="233.6191" x="1078.8379" y="499.0254">enqueue loyalty.ledger.PointsExpired</text></g><path d="M1072,530.7676 L1072,570.7676 L1447,570.7676 L1447,540.7676 L1437,530.7676 L1072,530.7676" fill="#FEFFDD" style="stroke:#181818;stroke-width:0.5;"/><path d="M1437,530.7676 L1437,540.7676 L1447,540.7676 L1437,530.7676" fill="#FEFFDD" style="stroke:#181818;stroke-width:0.5;"/><text fill="#000000" font-family="sans-serif" font-size="13" lengthAdjust="spacing" textLength="336.4766" x="1078" y="548.3359">One Expired entry per cohort, idempotency-keyed by</text><text fill="#000000" font-family="sans-serif" font-size="13" lengthAdjust="spacing" textLength="354.9927" x="1078" y="563.6465">cohort id. Same single-transaction shape as Earn (&#167;5.1).</text><?plantuml-src PLDTRjGm47xFAKPvIgHDW0TUMWegRH15fQsI8eHejVBQqutPn3Qsiss4a3W4T-0U78MJC4wosrruIppp_SpdiM7MIouDKnuShr40Sn1NuQjhqDweX6kBEJuOQVkSMwrceEIozasVnf7PGN_HYm5R3Atlz6A_RApcG_tAwgLbxTX6FnoTqtQ_sQt7tdCKIxGLshNa64U2URPW3a6CKi4QbATL74MZz-pbOEC0RAUI500-LtHyhlaAOgEbygDg37z-_0Ij48mMJqXrTHinxkMQUGm4KI0XBX6egkAyEBaE_eDjI5ZJf56ZjG5al8Pfd0XW0Ws37i2G64xLP4AV2KfFtm_EzBq2_w1k2RdL3bZw7oWs-cOvzxQVCx6Mb5C_Vw3kUKCZFPAcWQFn44wXnaO0DWxlQxH8bGtVDfodaBYLDE1hwJR-0mKgyQ_uD3pNjROUFhujocAQpCsPXnTXcXi5b-LfKSBhJnI9LIX2wRWw8RB7d3h5jN9TIxSq4eY9TSVX93gUZpk7YSMMIINLCjth32jo0CmOSbsCX4cBxG9j27adxor-HaQTxYp74k_W2E9ngRDHBlicnVTur0ZS6pDtKWdAQuERmIIM3ZjaqJIiVmKXp_-WxmSxyEQoX0zNfyVNnI6SNLH5URtXIBABMNQH7fAniG4Mh66Auo4HSzsQZdR2IxIX0zNN3ZkaI7kwwpvlXhUHNuMrTXFXzX85xkzKEDqv2pkkD7tOy9H1tmNV1Bka9p5H4H6j7HWQO0ne1b9WQmYbU9-jiAUUHK-WQJcaoA5YBOAZh1lCl6NA1KLDiTVCO7Yo1Uq79Bz_FS-VfNbm1S76Nm00?></g></svg>