<svg xmlns="http://www.w3.org/2000/svg" xmlns:xlink="http://www.w3.org/1999/xlink" contentStyleType="text/css" data-diagram-type="SEQUENCE" height="243px" preserveAspectRatio="none" style="width:1288px;height:243px;background:#FFFFFF;" version="1.1" viewBox="0 0 1288 243" width="1288px" zoomAndPan="magnify"><?plantuml 1.2026.4?><defs/><g><g class="participant-lifeline" data-entity-uid="part1" data-qualified-name="msk" data-source-line="1" id="part1-lifeline"><g><title>loyalty.member.lifecycle.v1</title><rect fill="#000000" fill-opacity="0.00000" height="107.9316" width="8" x="103.251" y="67.4883"/><line style="stroke:#181818;stroke-width:0.5;stroke-dasharray:5,5;" x1="107" x2="107" y1="67.4883" y2="175.4199"/></g></g><g class="participant-lifeline" data-entity-uid="part2" data-qualified-name="c" data-source-line="2" id="part2-lifeline"><g><title>MemberLifecycleConsumer</title><rect fill="#000000" fill-opacity="0.00000" height="107.9316" width="8" x="432.2749" y="67.4883"/><line style="stroke:#181818;stroke-width:0.5;stroke-dasharray:5,5;" x1="435.9604" x2="435.9604" y1="67.4883" y2="175.4199"/></g></g><g class="participant-lifeline" data-entity-uid="part3" data-qualified-name="ma" data-source-line="3" id="part3-lifeline"><g><title>MembershipAggregate</title><rect fill="#000000" fill-opacity="0.00000" height="107.9316" width="8" x="649.3389" y="67.4883"/><line style="stroke:#181818;stroke-width:0.5;stroke-dasharray:5,5;" x1="653.291" x2="653.291" y1="67.4883" y2="175.4199"/></g></g><g class="participant-lifeline" data-entity-uid="part4" data-qualified-name="db" data-source-line="4" id="part4-lifeline"><g><title>core RDS</title><rect fill="#000000" fill-opacity="0.00000" height="107.9316" width="8" x="1240.5273" y="67.4883"/><line style="stroke:#181818;stroke-width:0.5;stroke-dasharray:5,5;" x1="1244.2236" x2="1244.2236" y1="67.4883" y2="175.4199"/></g></g><g class="participant participant-head" data-entity-uid="part1" data-qualified-name="msk" data-source-line="1" id="part1-head"><path d="M10,41 L204.502,41 C209.502,41 209.502,54.2441 209.502,54.2441 C209.502,54.2441 209.502,67.4883 204.502,67.4883 L10,67.4883 C5,67.4883 5,54.2441 5,54.2441 C5,54.2441 5,41 10,41" fill="#E2E2F0" style="stroke:#181818;stroke-width:0.5;"/><path d="M204.502,41 C199.502,41 199.502,54.2441 199.502,54.2441 C199.502,67.4883 204.502,67.4883 204.502,67.4883" fill="none" style="stroke:#181818;stroke-width:0.5;"/><text fill="#000000" font-family="sans-serif" font-size="14" lengthAdjust="spacing" textLength="184.502" x="10" y="59.5352">loyalty.member.lifecycle.v1</text></g><g class="participant participant-tail" data-entity-uid="part1" data-qualified-name="msk" data-source-line="1" id="part1-tail"><path d="M10,174.4199 L204.502,174.4199 C209.502,174.4199 209.502,187.6641 209.502,187.6641 C209.502,187.6641 209.502,200.9082 204.502,200.9082 L10,200.9082 C5,200.9082 5,187.6641 5,187.6641 C5,187.6641 5,174.4199 10,174.4199" fill="#E2E2F0" style="stroke:#181818;stroke-width:0.5;"/><path d="M204.502,174.4199 C199.502,174.4199 199.502,187.6641 199.502,187.6641 C199.502,200.9082 204.502,200.9082 204.502,200.9082" fill="none" style="stroke:#181818;stroke-width:0.5;"/><text fill="#000000" font-family="sans-serif" font-size="14" lengthAdjust="spacing" textLength="184.502" x="10" y="192.9551">loyalty.member.lifecycle.v1</text></g><g class="participant participant-head" data-entity-uid="part2" data-qualified-name="c" data-source-line="2" id="part2-head"><rect fill="#E2E2F0" height="30.4883" rx="2.5" ry="2.5" style="stroke:#181818;stroke-width:0.5;" width="196.6289" x="337.9604" y="36"/><text fill="#000000" font-family="sans-serif" font-size="14" lengthAdjust="spacing" textLength="182.6289" x="344.9604" y="56.5352">MemberLifecycleConsumer</text></g><g class="participant participant-tail" data-entity-uid="part2" data-qualified-name="c" data-source-line="2" id="part2-tail"><rect fill="#E2E2F0" height="30.4883" rx="2.5" ry="2.5" style="stroke:#181818;stroke-width:0.5;" width="196.6289" x="337.9604" y="174.4199"/><text fill="#000000" font-family="sans-serif" font-size="14" lengthAdjust="spacing" textLength="182.6289" x="344.9604" y="194.9551">MemberLifecycleConsumer</text></g><g class="participant participant-head" data-entity-uid="part3" data-qualified-name="ma" data-source-line="3" id="part3-head"><rect fill="#E2E2F0" height="30.4883" rx="2.5" ry="2.5" style="stroke:#181818;stroke-width:0.5;" width="168.0957" x="569.291" y="36"/><text fill="#000000" font-family="sans-serif" font-size="14" lengthAdjust="spacing" textLength="154.0957" x="576.291" y="56.5352">MembershipAggregate</text></g><g class="participant participant-tail" data-entity-uid="part3" data-qualified-name="ma" data-source-line="3" id="part3-tail"><rect fill="#E2E2F0" height="30.4883" rx="2.5" ry="2.5" style="stroke:#181818;stroke-width:0.5;" width="168.0957" x="569.291" y="174.4199"/><text fill="#000000" font-family="sans-serif" font-size="14" lengthAdjust="spacing" textLength="154.0957" x="576.291" y="194.9551">MembershipAggregate</text></g><g class="participant participant-head" data-entity-uid="part4" data-qualified-name="db" data-source-line="4" id="part4-head"><text fill="#000000" font-family="sans-serif" font-size="14" lengthAdjust="spacing" textLength="60.6074" x="1211.2236" y="64.5352">core RDS</text><path d="M1226.5273,15 C1226.5273,5 1244.5273,5 1244.5273,5 C1244.5273,5 1262.5273,5 1262.5273,15 L1262.5273,41 C1262.5273,51 1244.5273,51 1244.5273,51 C1244.5273,51 1226.5273,51 1226.5273,41 L1226.5273,15" fill="#E2E2F0" style="stroke:#181818;stroke-width:0.5;"/><path d="M1226.5273,15 C1226.5273,25 1244.5273,25 1244.5273,25 C1244.5273,25 1262.5273,25 1262.5273,15" fill="none" style="stroke:#181818;stroke-width:0.5;"/></g><g class="participant participant-tail" data-entity-uid="part4" data-qualified-name="db" data-source-line="4" id="part4-tail"><text fill="#000000" font-family="sans-serif" font-size="14" lengthAdjust="spacing" textLength="60.6074" x="1211.2236" y="187.9551">core RDS</text><path d="M1226.5273,200.9082 C1226.5273,190.9082 1244.5273,190.9082 1244.5273,190.9082 C1244.5273,190.9082 1262.5273,190.9082 1262.5273,200.9082 L1262.5273,226.9082 C1262.5273,236.9082 1244.5273,236.9082 1244.5273,236.9082 C1244.5273,236.9082 1226.5273,236.9082 1226.5273,226.9082 L1226.5273,200.9082" fill="#E2E2F0" style="stroke:#181818;stroke-width:0.5;"/><path d="M1226.5273,200.9082 C1226.5273,210.9082 1244.5273,210.9082 1244.5273,210.9082 C1244.5273,210.9082 1262.5273,210.9082 1262.5273,200.9082" fill="none" style="stroke:#181818;stroke-width:0.5;"/></g><g class="message" data-entity-1="part1" data-entity-2="part2" data-source-line="5" id="msg1"><polygon fill="#181818" points="424.2749,94.7988,434.2749,98.7988,424.2749,102.7988,428.2749,98.7988" style="stroke:#181818;stroke-width:1;stroke-linejoin:miter;stroke-miterlimit:10;"/><line style="stroke:#181818;stroke-width:1;" x1="107.251" x2="430.2749" y1="98.7988" y2="98.7988"/><text fill="#000000" font-family="sans-serif" font-size="13" lengthAdjust="spacing" textLength="305.0239" x="114.251" y="94.0566">{customerId, lifecycleType=CUSTOMER_CLOSED}</text></g><g class="message" data-entity-1="part2" data-entity-2="part3" data-source-line="6" id="msg2"><polygon fill="#181818" points="641.3389,124.1094,651.3389,128.1094,641.3389,132.1094,645.3389,128.1094" style="stroke:#181818;stroke-width:1;stroke-linejoin:miter;stroke-miterlimit:10;"/><line style="stroke:#181818;stroke-width:1;" x1="436.2749" x2="647.3389" y1="128.1094" y2="128.1094"/><text fill="#000000" font-family="sans-serif" font-size="13" lengthAdjust="spacing" textLength="193.064" x="443.2749" y="123.3672">closeForCustomer(customerId)</text></g><g class="message" data-entity-1="part3" data-entity-2="part4" data-source-line="7" id="msg3"><polygon fill="#181818" points="1232.5273,153.4199,1242.5273,157.4199,1232.5273,161.4199,1236.5273,157.4199" style="stroke:#181818;stroke-width:1;stroke-linejoin:miter;stroke-miterlimit:10;"/><line style="stroke:#181818;stroke-width:1;" x1="653.3389" x2="1238.5273" y1="157.4199" y2="157.4199"/><text fill="#000000" font-family="sans-serif" font-size="13" lengthAdjust="spacing" textLength="567.1885" x="660.3389" y="152.6777">for each member -&gt; UPDATE status = CLOSED + enqueue loyalty.member.MemberClosed</text></g><?plantuml-src NP1BQuD04CVl-oa6JorjXLw55C9geP2G4isvZEF4I7TTiu-2b7xthjfdhiDl_gzpuC2WtIkWWqIP4PKVKyswPfkgxiWqakBqxJuH0rhVKJTWxu5cV3jZcszAcju5pVO_gl4FwqxTi6vRoorwJaI37cjq34qzGsGimpul4p4bkdk8FXcyKt3UHDsdvXP-8bNZm2jvAAlTjjY_oCskBF8FGTDJTCo0b77yQApyUhxwLRaMaOXSDCtWQ2mmqWcMpjFzy9olgmASHnySh60HXnlW_ZpFTJ7JKarEXiqd?></g></svg>