<svg xmlns="http://www.w3.org/2000/svg" xmlns:xlink="http://www.w3.org/1999/xlink" contentStyleType="text/css" data-diagram-type="DESCRIPTION" height="572px" preserveAspectRatio="none" style="width:1361px;height:572px;background:#FFFFFF;" version="1.1" viewBox="0 0 1361 572" width="1361px" zoomAndPan="magnify"><?plantuml 1.2026.4?><defs/><g><g class="title" data-source-line="1"><text fill="#000000" font-family="sans-serif" font-size="14" font-weight="700" lengthAdjust="spacing" textLength="363.9863" x="495.1226" y="23.5352">loyalty-integration-bridge &#8212; Context</text></g><!--entity adapter--><g class="entity" data-qualified-name="adapter" data-source-line="20" id="ent0001"><rect fill="#B0BEC5" height="69.4648" rx="2.5" ry="2.5" style="stroke:#78909C;stroke-width:0.5;" width="313.542" x="300.86" y="44.4883"/><text fill="#000000" font-family="sans-serif" font-size="14" font-style="italic" lengthAdjust="spacing" textLength="36.292" x="439.485" y="68.0234">&#171;ext&#187;</text><text fill="#000000" font-family="sans-serif" font-size="14" lengthAdjust="spacing" textLength="218.7227" x="348.2697" y="84.5117">Host Bank &#8212; bank-side Adapter</text><text fill="#000000" font-family="sans-serif" font-size="14" lengthAdjust="spacing" textLength="293.542" x="310.86" y="101">(outside this repo; maps native &#8594; contract)</text></g><!--entity voucher--><g class="entity" data-qualified-name="voucher" data-source-line="21" id="ent0002"><rect fill="#B0BEC5" height="52.9766" rx="2.5" ry="2.5" style="stroke:#78909C;stroke-width:0.5;" width="198.582" x="591.34" y="176.1983"/><text fill="#000000" font-family="sans-serif" font-size="14" font-style="italic" lengthAdjust="spacing" textLength="36.292" x="672.485" y="199.7334">&#171;ext&#187;</text><text fill="#000000" font-family="sans-serif" font-size="14" lengthAdjust="spacing" textLength="178.582" x="601.34" y="216.2217">3rd-Party Voucher Partner</text></g><!--entity ingress--><g class="entity" data-qualified-name="ingress" data-source-line="23" id="ent0003"><path d="M354.67,172.9583 L560.6016,172.9583 C565.6016,172.9583 565.6016,202.6907 565.6016,202.6907 C565.6016,202.6907 565.6016,232.4231 560.6016,232.4231 L354.67,232.4231 C349.67,232.4231 349.67,202.6907 349.67,202.6907 C349.67,202.6907 349.67,172.9583 354.67,172.9583" fill="#FFF3E0" style="stroke:#E65100;stroke-width:0.5;"/><path d="M560.6016,172.9583 C555.6016,172.9583 555.6016,202.6907 555.6016,202.6907 C555.6016,232.4231 560.6016,232.4231 560.6016,232.4231" fill="none" style="stroke:#E65100;stroke-width:0.5;"/><text fill="#000000" font-family="sans-serif" font-size="14" lengthAdjust="spacing" textLength="195.9316" x="354.67" y="191.4934">loyalty.ingress.* (4 channels)</text><text fill="#000000" font-family="sans-serif" font-size="14" lengthAdjust="spacing" textLength="164.3154" x="370.4781" y="207.9817">card_spend / payment /</text><text fill="#000000" font-family="sans-serif" font-size="14" lengthAdjust="spacing" textLength="194.3936" x="355.439" y="224.47">reversal / customer_lifecycle</text></g><!--entity bridge--><g class="entity" data-qualified-name="bridge" data-source-line="24" id="ent0004"><rect fill="#0B4884" height="69.4648" rx="2.5" ry="2.5" style="stroke:#073661;stroke-width:0.5;" width="277.708" x="434.78" y="291.4183"/><text fill="#FFFFFF" font-family="sans-serif" font-size="14" font-style="italic" lengthAdjust="spacing" textLength="36.2236" x="555.5222" y="314.9534">&#171;svc&#187;</text><text fill="#FFFFFF" font-family="sans-serif" font-size="14" font-weight="700" lengthAdjust="spacing" textLength="192.8828" x="477.1926" y="331.4417">loyalty-integration-bridge</text><text fill="#FFFFFF" font-family="sans-serif" font-size="14" lengthAdjust="spacing" textLength="257.708" x="444.78" y="347.93">(ingress gateway &#8212; stateless, no RDS)</text></g><!--entity dlq--><g class="entity" data-qualified-name="dlq" data-source-line="25" id="ent0005"><path d="M11,419.8883 L156.2627,419.8883 C161.2627,419.8883 161.2627,433.1324 161.2627,433.1324 C161.2627,433.1324 161.2627,446.3766 156.2627,446.3766 L11,446.3766 C6,446.3766 6,433.1324 6,433.1324 C6,433.1324 6,419.8883 11,419.8883" fill="#FFF3E0" style="stroke:#E65100;stroke-width:0.5;"/><path d="M156.2627,419.8883 C151.2627,419.8883 151.2627,433.1324 151.2627,433.1324 C151.2627,446.3766 156.2627,446.3766 156.2627,446.3766" fill="none" style="stroke:#E65100;stroke-width:0.5;"/><text fill="#000000" font-family="sans-serif" font-size="14" lengthAdjust="spacing" textLength="135.2627" x="11" y="438.4234">loyalty.ingress.*.dlq</text></g><!--entity earn--><g class="entity" data-qualified-name="earn" data-source-line="27" id="ent0006"><path d="M196.74,419.8883 L378.5134,419.8883 C383.5134,419.8883 383.5134,433.1324 383.5134,433.1324 C383.5134,433.1324 383.5134,446.3766 378.5134,446.3766 L196.74,446.3766 C191.74,446.3766 191.74,433.1324 191.74,433.1324 C191.74,433.1324 191.74,419.8883 196.74,419.8883" fill="#FFF3E0" style="stroke:#E65100;stroke-width:0.5;"/><path d="M378.5134,419.8883 C373.5134,419.8883 373.5134,433.1324 373.5134,433.1324 C373.5134,446.3766 378.5134,446.3766 378.5134,446.3766" fill="none" style="stroke:#E65100;stroke-width:0.5;"/><text fill="#000000" font-family="sans-serif" font-size="14" lengthAdjust="spacing" textLength="171.7734" x="196.74" y="438.4234">loyalty.earn.translated.v1</text></g><!--entity rev--><g class="entity" data-qualified-name="rev" data-source-line="28" id="ent0007"><path d="M414.44,419.8883 L614.8209,419.8883 C619.8209,419.8883 619.8209,433.1324 619.8209,433.1324 C619.8209,433.1324 619.8209,446.3766 614.8209,446.3766 L414.44,446.3766 C409.44,446.3766 409.44,433.1324 409.44,433.1324 C409.44,433.1324 409.44,419.8883 414.44,419.8883" fill="#FFF3E0" style="stroke:#E65100;stroke-width:0.5;"/><path d="M614.8209,419.8883 C609.8209,419.8883 609.8209,433.1324 609.8209,433.1324 C609.8209,446.3766 614.8209,446.3766 614.8209,446.3766" fill="none" style="stroke:#E65100;stroke-width:0.5;"/><text fill="#000000" font-family="sans-serif" font-size="14" lengthAdjust="spacing" textLength="190.3809" x="414.44" y="438.4234">loyalty.payment.reversed.v1</text></g><!--entity life--><g class="entity" data-qualified-name="life" data-source-line="29" id="ent0008"><path d="M650.38,419.8883 L844.882,419.8883 C849.882,419.8883 849.882,433.1324 849.882,433.1324 C849.882,433.1324 849.882,446.3766 844.882,446.3766 L650.38,446.3766 C645.38,446.3766 645.38,433.1324 645.38,433.1324 C645.38,433.1324 645.38,419.8883 650.38,419.8883" fill="#FFF3E0" style="stroke:#E65100;stroke-width:0.5;"/><path d="M844.882,419.8883 C839.882,419.8883 839.882,433.1324 839.882,433.1324 C839.882,446.3766 844.882,446.3766 844.882,446.3766" fill="none" style="stroke:#E65100;stroke-width:0.5;"/><text fill="#000000" font-family="sans-serif" font-size="14" lengthAdjust="spacing" textLength="184.502" x="650.38" y="438.4234">loyalty.member.lifecycle.v1</text></g><!--entity fraud--><g class="entity" data-qualified-name="fraud" data-source-line="30" id="ent0009"><path d="M880.47,419.8883 L1030.7981,419.8883 C1035.7981,419.8883 1035.7981,433.1324 1035.7981,433.1324 C1035.7981,433.1324 1035.7981,446.3766 1030.7981,446.3766 L880.47,446.3766 C875.47,446.3766 875.47,433.1324 875.47,433.1324 C875.47,433.1324 875.47,419.8883 880.47,419.8883" fill="#FFF3E0" style="stroke:#E65100;stroke-width:0.5;"/><path d="M1030.7981,419.8883 C1025.7981,419.8883 1025.7981,433.1324 1025.7981,433.1324 C1025.7981,446.3766 1030.7981,446.3766 1030.7981,446.3766" fill="none" style="stroke:#E65100;stroke-width:0.5;"/><text fill="#000000" font-family="sans-serif" font-size="14" lengthAdjust="spacing" textLength="140.3281" x="880.47" y="438.4234">loyalty.fraud.alert.v1</text></g><!--entity ful--><g class="entity" data-qualified-name="ful" data-source-line="31" id="ent0010"><path d="M1066.7,419.8883 L1270.5672,419.8883 C1275.5672,419.8883 1275.5672,433.1324 1275.5672,433.1324 C1275.5672,433.1324 1275.5672,446.3766 1270.5672,446.3766 L1066.7,446.3766 C1061.7,446.3766 1061.7,433.1324 1061.7,433.1324 C1061.7,433.1324 1061.7,419.8883 1066.7,419.8883" fill="#FFF3E0" style="stroke:#E65100;stroke-width:0.5;"/><path d="M1270.5672,419.8883 C1265.5672,419.8883 1265.5672,433.1324 1265.5672,433.1324 C1265.5672,446.3766 1270.5672,446.3766 1270.5672,446.3766" fill="none" style="stroke:#E65100;stroke-width:0.5;"/><text fill="#000000" font-family="sans-serif" font-size="14" lengthAdjust="spacing" textLength="193.8672" x="1066.7" y="438.4234">loyalty.fulfillment.resume.v1</text></g><!--entity earning--><g class="entity" data-qualified-name="earning" data-source-line="33" id="ent0011"><rect fill="#F0F7FF" height="52.9766" rx="2.5" ry="2.5" style="stroke:#0B4884;stroke-width:0.5;" width="123.8037" x="150.73" y="505.3683"/><text fill="#000000" font-family="sans-serif" font-size="14" font-style="italic" lengthAdjust="spacing" textLength="51.5566" x="186.8535" y="528.9034">&#171;down&#187;</text><text fill="#000000" font-family="sans-serif" font-size="14" lengthAdjust="spacing" textLength="103.8037" x="160.73" y="545.3917">loyalty-earning</text></g><!--entity core--><g class="entity" data-qualified-name="core" data-source-line="34" id="ent0012"><rect fill="#F0F7FF" height="52.9766" rx="2.5" ry="2.5" style="stroke:#0B4884;stroke-width:0.5;" width="101.6895" x="596.79" y="505.3683"/><text fill="#000000" font-family="sans-serif" font-size="14" font-style="italic" lengthAdjust="spacing" textLength="51.5566" x="621.8564" y="528.9034">&#171;down&#187;</text><text fill="#000000" font-family="sans-serif" font-size="14" lengthAdjust="spacing" textLength="81.6895" x="606.79" y="545.3917">loyalty-core</text></g><!--entity redemption--><g class="entity" data-qualified-name="redemption" data-source-line="35" id="ent0013"><rect fill="#F0F7FF" height="52.9766" rx="2.5" ry="2.5" style="stroke:#0B4884;stroke-width:0.5;" width="150.9834" x="1093.14" y="505.3683"/><text fill="#000000" font-family="sans-serif" font-size="14" font-style="italic" lengthAdjust="spacing" textLength="51.5566" x="1142.8534" y="528.9034">&#171;down&#187;</text><text fill="#000000" font-family="sans-serif" font-size="14" lengthAdjust="spacing" textLength="130.9834" x="1103.14" y="545.3917">loyalty-redemption</text></g><!--entity bff--><g class="entity" data-qualified-name="bff" data-source-line="36" id="ent0014"><rect fill="#F0F7FF" height="52.9766" rx="2.5" ry="2.5" style="stroke:#0B4884;stroke-width:0.5;" width="141.9463" x="884.66" y="505.3683"/><text fill="#000000" font-family="sans-serif" font-size="14" font-style="italic" lengthAdjust="spacing" textLength="51.5566" x="929.8548" y="528.9034">&#171;down&#187;</text><text fill="#000000" font-family="sans-serif" font-size="14" lengthAdjust="spacing" textLength="121.9463" x="894.66" y="545.3917">loyalty-admin-bff</text></g><!--link adapter to ingress--><g class="link" data-entity-1="ent0001" data-entity-2="ent0003" data-link-type="dependency" data-source-line="38" id="lnk15"><path d="M457.63,114.3783 C457.63,132.7683 457.63,150.1983 457.63,167.7183" fill="none" id="adapter-to-ingress" style="stroke:#0277BD;stroke-width:1;"/><polygon fill="#0277BD" points="457.63,172.7183,461.63,163.7183,457.63,167.7183,453.63,163.7183,457.63,172.7183" style="stroke:#0277BD;stroke-width:1;stroke-linejoin:miter;stroke-miterlimit:10;"/><text fill="#000000" font-family="sans-serif" font-size="13" lengthAdjust="spacing" textLength="196.4346" x="458.63" y="148.5266">produce (conforms to contract)</text></g><!--link ingress to bridge--><g class="link" data-entity-1="ent0003" data-entity-2="ent0004" data-link-type="dependency" data-source-line="39" id="lnk16"><path d="M485.42,232.7783 C502.17,250.3283 520.1471,269.142 537.6871,287.512" fill="none" id="ingress-to-bridge" style="stroke:#0277BD;stroke-width:1;"/><polygon fill="#0277BD" points="541.14,291.1283,537.8178,281.8567,537.6871,287.512,532.0318,287.3813,541.14,291.1283" style="stroke:#0277BD;stroke-width:1;stroke-linejoin:miter;stroke-miterlimit:10;"/><text fill="#000000" font-family="sans-serif" font-size="13" lengthAdjust="spacing" textLength="124.2363" x="520.11" y="266.9866">consume + validate</text></g><!--link voucher to bridge--><g class="link" data-entity-1="ent0002" data-entity-2="ent0004" data-link-type="dependency" data-source-line="40" id="lnk17"><path d="M678.42,229.4483 C671.43,242.5983 661.82,258.3183 650.63,270.4183 C643.84,277.7583 639.857,281.6489 631.717,287.9789" fill="none" id="voucher-to-bridge" style="stroke:#0277BD;stroke-width:1;"/><polygon fill="#0277BD" points="627.77,291.0483,637.3301,288.681,631.717,287.9789,632.4191,282.3658,627.77,291.0483" style="stroke:#0277BD;stroke-width:1;stroke-linejoin:miter;stroke-miterlimit:10;"/><text fill="#000000" font-family="sans-serif" font-size="13" lengthAdjust="spacing" textLength="177.5884" x="664.81" y="266.9866">HTTPS POST (HMAC-signed)</text></g><!--link bridge to dlq--><g class="link" data-entity-1="ent0004" data-entity-2="ent0005" data-link-type="dependency" data-source-line="41" id="lnk18"><path d="M434.28,327.4283 C313.91,330.4683 151.66,342.1583 101.63,381.8883 C90.17,390.9883 86.6447,403.03 85.1247,414.72" fill="none" id="bridge-to-dlq" style="stroke:#C62828;stroke-width:1;"/><polygon fill="#C62828" points="84.48,419.6783,89.6071,411.2692,85.1247,414.72,81.6739,410.2376,84.48,419.6783" style="stroke:#C62828;stroke-width:1;stroke-linejoin:miter;stroke-miterlimit:10;"/><text fill="#000000" font-family="sans-serif" font-size="13" lengthAdjust="spacing" textLength="188.957" x="102.63" y="395.4566">schema-invalid / unparseable</text></g><!--link bridge to earn--><g class="link" data-entity-1="ent0004" data-entity-2="ent0006" data-link-type="dependency" data-source-line="43" id="lnk19"><path d="M434.5,344.5783 C382.3,353.4783 330.73,365.8483 310.63,381.8883 C298.93,391.2183 294.1627,402.9776 291.2727,414.5376" fill="none" id="bridge-to-earn" style="stroke:#2E7D32;stroke-width:1;"/><polygon fill="#2E7D32" points="290.06,419.3883,296.1234,411.6271,291.2727,414.5376,288.3623,409.6869,290.06,419.3883" style="stroke:#2E7D32;stroke-width:1;stroke-linejoin:miter;stroke-miterlimit:10;"/></g><!--link earn to bridge--><g class="link" data-entity-1="ent0006" data-entity-2="ent0004" data-link-type="dependency" data-source-line="50" id="lnk25"><path d="M295.36,419.7983 C303.28,408.2083 316.69,391.2683 332.63,381.8883 C363.42,363.7683 394.7998,352.78 429.6998,344.67" fill="none" id="earn-to-bridge" style="stroke:#7B1FA2;stroke-width:1;"/><polygon fill="#7B1FA2" points="434.57,343.5383,424.8982,341.6792,429.6998,344.67,426.709,349.4716,434.57,343.5383" style="stroke:#7B1FA2;stroke-width:1;stroke-linejoin:miter;stroke-miterlimit:10;"/><text fill="#000000" font-family="sans-serif" font-size="13" lengthAdjust="spacing" textLength="215.1792" x="333.63" y="395.4566">Velocity Anomaly tails own output</text></g><!--link bridge to rev--><g class="link" data-entity-1="ent0004" data-entity-2="ent0007" data-link-type="dependency" data-source-line="44" id="lnk20"><path d="M569.72,361.0783 C567.13,373.6783 562.81,387.6283 555.63,398.8883 C550.51,406.9183 546.7924,410.9249 539.4224,416.4049" fill="none" id="bridge-to-rev" style="stroke:#2E7D32;stroke-width:1;"/><polygon fill="#2E7D32" points="535.41,419.3883,545.019,417.228,539.4224,416.4049,540.2455,410.8082,535.41,419.3883" style="stroke:#2E7D32;stroke-width:1;stroke-linejoin:miter;stroke-miterlimit:10;"/></g><!--link bridge to life--><g class="link" data-entity-1="ent0004" data-entity-2="ent0008" data-link-type="dependency" data-source-line="45" id="lnk21"><path d="M630.12,361.2383 C663.27,381.2283 698.8881,402.7265 722.6381,417.0465" fill="none" id="bridge-to-life" style="stroke:#2E7D32;stroke-width:1;"/><polygon fill="#2E7D32" points="726.92,419.6283,721.278,411.5556,722.6381,417.0465,717.1472,418.4066,726.92,419.6283" style="stroke:#2E7D32;stroke-width:1;stroke-linejoin:miter;stroke-miterlimit:10;"/></g><!--link bridge to fraud--><g class="link" data-entity-1="ent0004" data-entity-2="ent0009" data-link-type="dependency" data-source-line="46" id="lnk22"><path d="M698.18,361.3783 C770.47,381.2483 852.4386,403.7738 904.5286,418.0838" fill="none" id="bridge-to-fraud" style="stroke:#2E7D32;stroke-width:1;"/><polygon fill="#2E7D32" points="909.35,419.4083,901.7311,413.1671,904.5286,418.0838,899.6119,420.8813,909.35,419.4083" style="stroke:#2E7D32;stroke-width:1;stroke-linejoin:miter;stroke-miterlimit:10;"/></g><!--link bridge to ful--><g class="link" data-entity-1="ent0004" data-entity-2="ent0010" data-link-type="dependency" data-source-line="47" id="lnk23"><path d="M712.76,351.6983 C832.96,372.9083 996.9261,401.8293 1091.7761,418.5693" fill="none" id="bridge-to-ful" style="stroke:#2E7D32;stroke-width:1;"/><polygon fill="#2E7D32" points="1096.7,419.4383,1088.5322,413.9349,1091.7761,418.5693,1087.1418,421.8132,1096.7,419.4383" style="stroke:#2E7D32;stroke-width:1;stroke-linejoin:miter;stroke-miterlimit:10;"/></g><!--link earn to earning--><g class="link" data-entity-1="ent0006" data-entity-2="ent0011" data-link-type="dependency" data-source-line="49" id="lnk24"><path d="M236.63,446.7383 C226.75,451.5583 217.62,458.2083 211.63,467.3683 C204.51,478.2583 203.4855,487.6454 205.1855,499.9454" fill="none" id="earn-to-earning" style="stroke:#0277BD;stroke-width:1;"/><polygon fill="#0277BD" points="205.87,504.8983,208.6001,495.4354,205.1855,499.9454,200.6755,496.5307,205.87,504.8983" style="stroke:#0277BD;stroke-width:1;stroke-linejoin:miter;stroke-miterlimit:10;"/><text fill="#000000" font-family="sans-serif" font-size="13" lengthAdjust="spacing" textLength="303.0879" x="212.63" y="480.9366">resolve customerId &#8594; Member(s), evaluate rules</text></g><!--link rev to core--><g class="link" data-entity-1="ent0007" data-entity-2="ent0012" data-link-type="dependency" data-source-line="51" id="lnk26"><path d="M519.29,446.7583 C523.96,457.9083 532.11,473.9883 543.63,484.3683 C558.69,497.9483 573.7204,506.2443 591.8904,513.5443" fill="none" id="rev-to-core" style="stroke:#0277BD;stroke-width:1;"/><polygon fill="#0277BD" points="596.53,515.4083,589.67,508.3414,591.8904,513.5443,586.6876,515.7647,596.53,515.4083" style="stroke:#0277BD;stroke-width:1;stroke-linejoin:miter;stroke-miterlimit:10;"/><text fill="#000000" font-family="sans-serif" font-size="13" lengthAdjust="spacing" textLength="178.6294" x="544.63" y="480.9366">reverse ledger by source_ref</text></g><!--link life to core--><g class="link" data-entity-1="ent0008" data-entity-2="ent0012" data-link-type="dependency" data-source-line="52" id="lnk27"><path d="M745.71,446.4983 C743.47,457.4883 738.82,473.4583 729.63,484.3683 C721.2,494.3883 714.3427,500.1583 702.9727,506.8283" fill="none" id="life-to-core" style="stroke:#0277BD;stroke-width:1;"/><polygon fill="#0277BD" points="698.66,509.3583,708.4468,508.2545,702.9727,506.8283,704.3989,501.3542,698.66,509.3583" style="stroke:#0277BD;stroke-width:1;stroke-linejoin:miter;stroke-miterlimit:10;"/></g><!--link fraud to bff--><g class="link" data-entity-1="ent0009" data-entity-2="ent0014" data-link-type="dependency" data-source-line="53" id="lnk28"><path d="M955.63,446.7783 C955.63,461.5183 955.63,481.2883 955.63,500.1283" fill="none" id="fraud-to-bff" style="stroke:#0277BD;stroke-width:1;"/><polygon fill="#0277BD" points="955.63,505.1283,959.63,496.1283,955.63,500.1283,951.63,496.1283,955.63,505.1283" style="stroke:#0277BD;stroke-width:1;stroke-linejoin:miter;stroke-miterlimit:10;"/><text fill="#000000" font-family="sans-serif" font-size="13" lengthAdjust="spacing" textLength="89.4067" x="956.63" y="480.9366">Fraud-Ops UX</text></g><!--link ful to redemption--><g class="link" data-entity-1="ent0010" data-entity-2="ent0013" data-link-type="dependency" data-source-line="54" id="lnk29"><path d="M1168.63,446.7783 C1168.63,461.5183 1168.63,481.2883 1168.63,500.1283" fill="none" id="ful-to-redemption" style="stroke:#0277BD;stroke-width:1;"/><polygon fill="#0277BD" points="1168.63,505.1283,1172.63,496.1283,1168.63,500.1283,1164.63,496.1283,1168.63,505.1283" style="stroke:#0277BD;stroke-width:1;stroke-linejoin:miter;stroke-miterlimit:10;"/><text fill="#000000" font-family="sans-serif" font-size="13" lengthAdjust="spacing" textLength="175.6016" x="1169.63" y="480.9366">resume saga (by jobHandle)</text></g><?plantuml-src TLJTRjis5BxNKnp4DxPRkugIs6vN1F1I5Db5qQ19Ym7B453aaQA58bMIScSK0tQr1nZsX7kI7b9oB3cABcpfdE_yVVmENU4aWjHR9jrsLYY7kM6kq6gMcaBa2F___HzSQBB_wM2yVlTf5iV9sIIo3uMgc64bs7iczBT2vP0nQR7Z4PYnMheR2btB8bSbAWUSVj1qK4eBj5X1ikWO3LCFtdYQT8t87LCvzViz0lYPyOVSw5g92osrUVkMofoV0y0eZLFaPnwYZK1puFRFQBbw7R_cGrdiXZTPulHqjJebo7kQ_i3PPid2SrYe2nh5ovF5udYe496cF6wKnTdoQPQT6pgz_DKXuskDzI0HeQqJZFi9cpouE3kEOyeJxRaykjJMKHBr4CuwfPUPBGJ2Mh2AZkfMZNNjWiNT5vPEeT8_GSag2ugKiY69_FClS2B9CEucHx2ZcbbWJOfkjHCZPbVCk2ryqJM_HmF-Iw7f1MuQNnGrOnwr0fsJp0nQEv_2-1JuFLCAfPtSAiwCkBCLAW6le6BR8BLNjyhW1erbagoyjawNQEvaaI7VSeb7lbARiTlYTFhyFaodn4SR0pbp-8rj0s_MqOSawqjID7nwTnsOQBH0PPhePyUP2_arj4F_JuP6PjISs5LMKWqntnm7g3SVGjlHvytSUonz7q9BB5CqyqSsTb1lECHcXjLYpYGQjuC5qnDSBRD2ohO5MvUFMSdJ4zsEOJy4iU2vQXNVJaR68JpN1ljWRnb26XHOLlxe-lYzVIYAYRAWiywoVX0PegXLCyn-6yN9SfcAtsVdE_t06wYC5ZL76DCkPDgK5fpUxqMq0_QYsqlsZSTvkk05R9Wi19rprEx0Cm6NDpTNrt3ryVe6nfSVrXUqixb2CObQ14NnHR9ALZwAL4KXbjALZ4GTIj1ArFukiSXIYL4dBi6bE4byN93OaCFhQSWUn3FaQEGowF7Ay8NwWxOQeBQ9DItfcjajy2yYt3WVWdx7Tl8Ia0QgYJ8mDMtWOx9bUfonfCVQ5vIQ5tJvh9KkcTo2OuMqGESCTCbLjIDDRA3VYHTOQ2Ei54YaL0RIBLXT6uvt1hF8p_qqAWfJ7nnWbb6ozzun-qXtwETV8sBWeEHUeytyNXcMvGp6LFOFdLuo9IHEVW00?></g></svg>