<svg xmlns="http://www.w3.org/2000/svg" xmlns:xlink="http://www.w3.org/1999/xlink" contentStyleType="text/css" data-diagram-type="SEQUENCE" height="870px" preserveAspectRatio="none" style="width:1554px;height:870px;background:#FFFFFF;" version="1.1" viewBox="0 0 1554 870" width="1554px" zoomAndPan="magnify"><?plantuml 1.2026.4?><defs/><g><g class="title" data-source-line="95"><text fill="#000000" font-family="sans-serif" font-size="14" font-weight="700" lengthAdjust="spacing" textLength="510.1455" x="518.5408" y="28.5352">Payment ingress &#8594; canonical EarnEvent (paymentType &#8594; earn_source)</text></g><g><title>PaymentConsumer</title><rect fill="#FFFFFF" height="677.0527" style="stroke:#181818;stroke-width:1;" width="10" x="282.0854" y="121.7754"/></g><rect fill="none" height="604.4316" style="stroke:#000000;stroke-width:1.5;" width="1341.6304" x="196.5967" y="166.0859"/><rect fill="none" height="141.5078" style="stroke:#000000;stroke-width:1.5;" width="571.3369" x="206.5967" y="364.9043"/><g class="participant-lifeline" data-entity-uid="part1" data-qualified-name="in" data-source-line="97" id="part1-lifeline"><g><title>loyalty.ingress.payment.v1</title><rect fill="#000000" fill-opacity="0.00000" height="726.3633" width="8" x="101.7983" y="90.4648"/><line style="stroke:#181818;stroke-width:0.5;stroke-dasharray:5,5;" x1="105" x2="105" y1="90.4648" y2="816.8281"/></g></g><g class="participant-lifeline" data-entity-uid="part2" data-qualified-name="c" data-source-line="98" id="part2-lifeline"><g><title>PaymentConsumer</title><rect fill="#000000" fill-opacity="0.00000" height="726.3633" width="8" x="283.0854" y="90.4648"/><line style="stroke:#181818;stroke-width:0.5;stroke-dasharray:5,5;" x1="286.5967" x2="286.5967" y1="90.4648" y2="816.8281"/></g></g><g class="participant-lifeline" data-entity-uid="part3" data-qualified-name="v" data-source-line="99" id="part3-lifeline"><g><title>IngressSchemaValidator</title><rect fill="#000000" fill-opacity="0.00000" height="726.3633" width="8" x="500.3613" y="90.4648"/><line style="stroke:#181818;stroke-width:0.5;stroke-dasharray:5,5;" x1="504.1914" x2="504.1914" y1="90.4648" y2="816.8281"/></g></g><g class="participant-lifeline" data-entity-uid="part4" data-qualified-name="m" data-source-line="100" id="part4-lifeline"><g><title>PaymentMapping</title><rect fill="#000000" fill-opacity="0.00000" height="726.3633" width="8" x="681.2324" y="90.4648"/><line style="stroke:#181818;stroke-width:0.5;stroke-dasharray:5,5;" x1="684.5313" x2="684.5313" y1="90.4648" y2="816.8281"/></g></g><g class="participant-lifeline" data-entity-uid="part5" data-qualified-name="t" data-source-line="101" id="part5-lifeline"><g><title>PaymentTranslator</title><rect fill="#000000" fill-opacity="0.00000" height="726.3633" width="8" x="888.9463" y="90.4648"/><line style="stroke:#181818;stroke-width:0.5;stroke-dasharray:5,5;" x1="892.4165" x2="892.4165" y1="90.4648" y2="816.8281"/></g></g><g class="participant-lifeline" data-entity-uid="part6" data-qualified-name="k" data-source-line="102" id="part6-lifeline"><g><title>KafkaTemplate</title><rect fill="#000000" fill-opacity="0.00000" height="726.3633" width="8" x="1027.1167" y="90.4648"/><line style="stroke:#181818;stroke-width:0.5;stroke-dasharray:5,5;" x1="1030.4761" x2="1030.4761" y1="90.4648" y2="816.8281"/></g></g><g class="participant-lifeline" data-entity-uid="part7" data-qualified-name="out" data-source-line="103" id="part7-lifeline"><g><title>loyalty.earn.translated.v1</title><rect fill="#000000" fill-opacity="0.00000" height="726.3633" width="8" x="1190.644" y="90.4648"/><line style="stroke:#181818;stroke-width:0.5;stroke-dasharray:5,5;" x1="1193.7573" x2="1193.7573" y1="90.4648" y2="816.8281"/></g></g><g class="participant-lifeline" data-entity-uid="part8" data-qualified-name="dlq" data-source-line="104" id="part8-lifeline"><g><title>loyalty.ingress.payment.v1.dlq</title><rect fill="#000000" fill-opacity="0.00000" height="726.3633" width="8" x="1410.3789" y="90.4648"/><line style="stroke:#181818;stroke-width:0.5;stroke-dasharray:5,5;" x1="1413.5308" x2="1413.5308" y1="90.4648" y2="816.8281"/></g></g><g class="participant participant-head" data-entity-uid="part1" data-qualified-name="in" data-source-line="97" id="part1-head"><path d="M10,63.9766 L201.5967,63.9766 C206.5967,63.9766 206.5967,77.2207 206.5967,77.2207 C206.5967,77.2207 206.5967,90.4648 201.5967,90.4648 L10,90.4648 C5,90.4648 5,77.2207 5,77.2207 C5,77.2207 5,63.9766 10,63.9766" fill="#E2E2F0" style="stroke:#181818;stroke-width:0.5;"/><path d="M201.5967,63.9766 C196.5967,63.9766 196.5967,77.2207 196.5967,77.2207 C196.5967,90.4648 201.5967,90.4648 201.5967,90.4648" fill="none" style="stroke:#181818;stroke-width:0.5;"/><text fill="#000000" font-family="sans-serif" font-size="14" lengthAdjust="spacing" textLength="181.5967" x="10" y="82.5117">loyalty.ingress.payment.v1</text></g><g class="participant participant-tail" data-entity-uid="part1" data-qualified-name="in" data-source-line="97" id="part1-tail"><path d="M10,815.8281 L201.5967,815.8281 C206.5967,815.8281 206.5967,829.0723 206.5967,829.0723 C206.5967,829.0723 206.5967,842.3164 201.5967,842.3164 L10,842.3164 C5,842.3164 5,829.0723 5,829.0723 C5,829.0723 5,815.8281 10,815.8281" fill="#E2E2F0" style="stroke:#181818;stroke-width:0.5;"/><path d="M201.5967,815.8281 C196.5967,815.8281 196.5967,829.0723 196.5967,829.0723 C196.5967,842.3164 201.5967,842.3164 201.5967,842.3164" fill="none" style="stroke:#181818;stroke-width:0.5;"/><text fill="#000000" font-family="sans-serif" font-size="14" lengthAdjust="spacing" textLength="181.5967" x="10" y="834.3633">loyalty.ingress.payment.v1</text></g><g class="participant participant-head" data-entity-uid="part2" data-qualified-name="c" data-source-line="98" id="part2-head"><rect fill="#E2E2F0" height="30.4883" rx="2.5" ry="2.5" style="stroke:#181818;stroke-width:0.5;" width="140.9775" x="216.5967" y="58.9766"/><text fill="#000000" font-family="sans-serif" font-size="14" lengthAdjust="spacing" textLength="126.9775" x="223.5967" y="79.5117">PaymentConsumer</text></g><g class="participant participant-tail" data-entity-uid="part2" data-qualified-name="c" data-source-line="98" id="part2-tail"><rect fill="#E2E2F0" height="30.4883" rx="2.5" ry="2.5" style="stroke:#181818;stroke-width:0.5;" width="140.9775" x="216.5967" y="815.8281"/><text fill="#000000" font-family="sans-serif" font-size="14" lengthAdjust="spacing" textLength="126.9775" x="223.5967" y="836.3633">PaymentConsumer</text></g><g class="participant participant-head" data-entity-uid="part3" data-qualified-name="v" data-source-line="99" id="part3-head"><rect fill="#E2E2F0" height="30.4883" rx="2.5" ry="2.5" style="stroke:#181818;stroke-width:0.5;" width="176.3398" x="416.1914" y="58.9766"/><text fill="#000000" font-family="sans-serif" font-size="14" lengthAdjust="spacing" textLength="162.3398" x="423.1914" y="79.5117">IngressSchemaValidator</text></g><g class="participant participant-tail" data-entity-uid="part3" data-qualified-name="v" data-source-line="99" id="part3-tail"><rect fill="#E2E2F0" height="30.4883" rx="2.5" ry="2.5" style="stroke:#181818;stroke-width:0.5;" width="176.3398" x="416.1914" y="815.8281"/><text fill="#000000" font-family="sans-serif" font-size="14" lengthAdjust="spacing" textLength="162.3398" x="423.1914" y="836.3633">IngressSchemaValidator</text></g><g class="participant participant-head" data-entity-uid="part4" data-qualified-name="m" data-source-line="100" id="part4-head"><rect fill="#E2E2F0" height="46.9766" rx="2.5" ry="2.5" style="stroke:#181818;stroke-width:0.5;" width="165.4023" x="602.5313" y="42.4883"/><text fill="#000000" font-family="sans-serif" font-size="14" lengthAdjust="spacing" textLength="116.457" x="627.0039" y="63.0234">PaymentMapping</text><text fill="#000000" font-family="sans-serif" font-size="14" lengthAdjust="spacing" textLength="151.4023" x="609.5313" y="79.5117">(bank-uniform config)</text></g><g class="participant participant-tail" data-entity-uid="part4" data-qualified-name="m" data-source-line="100" id="part4-tail"><rect fill="#E2E2F0" height="46.9766" rx="2.5" ry="2.5" style="stroke:#181818;stroke-width:0.5;" width="165.4023" x="602.5313" y="815.8281"/><text fill="#000000" font-family="sans-serif" font-size="14" lengthAdjust="spacing" textLength="116.457" x="627.0039" y="836.3633">PaymentMapping</text><text fill="#000000" font-family="sans-serif" font-size="14" lengthAdjust="spacing" textLength="151.4023" x="609.5313" y="852.8516">(bank-uniform config)</text></g><g class="participant participant-head" data-entity-uid="part5" data-qualified-name="t" data-source-line="101" id="part5-head"><rect fill="#E2E2F0" height="46.9766" rx="2.5" ry="2.5" style="stroke:#181818;stroke-width:0.5;" width="141.0596" x="822.4165" y="42.4883"/><text fill="#000000" font-family="sans-serif" font-size="14" lengthAdjust="spacing" textLength="127.0596" x="829.4165" y="63.0234">PaymentTranslator</text><text fill="#000000" font-family="sans-serif" font-size="14" lengthAdjust="spacing" textLength="40.1338" x="872.8794" y="79.5117">(pure)</text></g><g class="participant participant-tail" data-entity-uid="part5" data-qualified-name="t" data-source-line="101" id="part5-tail"><rect fill="#E2E2F0" height="46.9766" rx="2.5" ry="2.5" style="stroke:#181818;stroke-width:0.5;" width="141.0596" x="822.4165" y="815.8281"/><text fill="#000000" font-family="sans-serif" font-size="14" lengthAdjust="spacing" textLength="127.0596" x="829.4165" y="836.3633">PaymentTranslator</text><text fill="#000000" font-family="sans-serif" font-size="14" lengthAdjust="spacing" textLength="40.1338" x="872.8794" y="852.8516">(pure)</text></g><g class="participant participant-head" data-entity-uid="part6" data-qualified-name="k" data-source-line="102" id="part6-head"><rect fill="#E2E2F0" height="30.4883" rx="2.5" ry="2.5" style="stroke:#181818;stroke-width:0.5;" width="115.2813" x="973.4761" y="58.9766"/><text fill="#000000" font-family="sans-serif" font-size="14" lengthAdjust="spacing" textLength="101.2813" x="980.4761" y="79.5117">KafkaTemplate</text></g><g class="participant participant-tail" data-entity-uid="part6" data-qualified-name="k" data-source-line="102" id="part6-tail"><rect fill="#E2E2F0" height="30.4883" rx="2.5" ry="2.5" style="stroke:#181818;stroke-width:0.5;" width="115.2813" x="973.4761" y="815.8281"/><text fill="#000000" font-family="sans-serif" font-size="14" lengthAdjust="spacing" textLength="101.2813" x="980.4761" y="836.3633">KafkaTemplate</text></g><g class="participant participant-head" data-entity-uid="part7" data-qualified-name="out" data-source-line="103" id="part7-head"><path d="M1103.7573,63.9766 L1285.5308,63.9766 C1290.5308,63.9766 1290.5308,77.2207 1290.5308,77.2207 C1290.5308,77.2207 1290.5308,90.4648 1285.5308,90.4648 L1103.7573,90.4648 C1098.7573,90.4648 1098.7573,77.2207 1098.7573,77.2207 C1098.7573,77.2207 1098.7573,63.9766 1103.7573,63.9766" fill="#E2E2F0" style="stroke:#181818;stroke-width:0.5;"/><path d="M1285.5308,63.9766 C1280.5308,63.9766 1280.5308,77.2207 1280.5308,77.2207 C1280.5308,90.4648 1285.5308,90.4648 1285.5308,90.4648" fill="none" style="stroke:#181818;stroke-width:0.5;"/><text fill="#000000" font-family="sans-serif" font-size="14" lengthAdjust="spacing" textLength="171.7734" x="1103.7573" y="82.5117">loyalty.earn.translated.v1</text></g><g class="participant participant-tail" data-entity-uid="part7" data-qualified-name="out" data-source-line="103" id="part7-tail"><path d="M1103.7573,815.8281 L1285.5308,815.8281 C1290.5308,815.8281 1290.5308,829.0723 1290.5308,829.0723 C1290.5308,829.0723 1290.5308,842.3164 1285.5308,842.3164 L1103.7573,842.3164 C1098.7573,842.3164 1098.7573,829.0723 1098.7573,829.0723 C1098.7573,829.0723 1098.7573,815.8281 1103.7573,815.8281" fill="#E2E2F0" style="stroke:#181818;stroke-width:0.5;"/><path d="M1285.5308,815.8281 C1280.5308,815.8281 1280.5308,829.0723 1280.5308,829.0723 C1280.5308,842.3164 1285.5308,842.3164 1285.5308,842.3164" fill="none" style="stroke:#181818;stroke-width:0.5;"/><text fill="#000000" font-family="sans-serif" font-size="14" lengthAdjust="spacing" textLength="171.7734" x="1103.7573" y="834.3633">loyalty.earn.translated.v1</text></g><g class="participant participant-head" data-entity-uid="part8" data-qualified-name="dlq" data-source-line="104" id="part8-head"><path d="M1305.5308,63.9766 L1523.2271,63.9766 C1528.2271,63.9766 1528.2271,77.2207 1528.2271,77.2207 C1528.2271,77.2207 1528.2271,90.4648 1523.2271,90.4648 L1305.5308,90.4648 C1300.5308,90.4648 1300.5308,77.2207 1300.5308,77.2207 C1300.5308,77.2207 1300.5308,63.9766 1305.5308,63.9766" fill="#E2E2F0" style="stroke:#181818;stroke-width:0.5;"/><path d="M1523.2271,63.9766 C1518.2271,63.9766 1518.2271,77.2207 1518.2271,77.2207 C1518.2271,90.4648 1523.2271,90.4648 1523.2271,90.4648" fill="none" style="stroke:#181818;stroke-width:0.5;"/><text fill="#000000" font-family="sans-serif" font-size="14" lengthAdjust="spacing" textLength="207.6963" x="1305.5308" y="82.5117">loyalty.ingress.payment.v1.dlq</text></g><g class="participant participant-tail" data-entity-uid="part8" data-qualified-name="dlq" data-source-line="104" id="part8-tail"><path d="M1305.5308,815.8281 L1523.2271,815.8281 C1528.2271,815.8281 1528.2271,829.0723 1528.2271,829.0723 C1528.2271,829.0723 1528.2271,842.3164 1523.2271,842.3164 L1305.5308,842.3164 C1300.5308,842.3164 1300.5308,829.0723 1300.5308,829.0723 C1300.5308,829.0723 1300.5308,815.8281 1305.5308,815.8281" fill="#E2E2F0" style="stroke:#181818;stroke-width:0.5;"/><path d="M1523.2271,815.8281 C1518.2271,815.8281 1518.2271,829.0723 1518.2271,829.0723 C1518.2271,842.3164 1523.2271,842.3164 1523.2271,842.3164" fill="none" style="stroke:#181818;stroke-width:0.5;"/><text fill="#000000" font-family="sans-serif" font-size="14" lengthAdjust="spacing" textLength="207.6963" x="1305.5308" y="834.3633">loyalty.ingress.payment.v1.dlq</text></g><g><title>PaymentConsumer</title><rect fill="#FFFFFF" height="677.0527" style="stroke:#181818;stroke-width:1;" width="10" x="282.0854" y="121.7754"/></g><g class="message" data-entity-1="part1" data-entity-2="part2" data-source-line="106" id="msg1"><polygon fill="#181818" points="270.0854,117.7754,280.0854,121.7754,270.0854,125.7754,274.0854,121.7754" style="stroke:#181818;stroke-width:1;stroke-linejoin:miter;stroke-miterlimit:10;"/><line style="stroke:#181818;stroke-width:1;" x1="105.7983" x2="276.0854" y1="121.7754" y2="121.7754"/><text fill="#000000" font-family="sans-serif" font-size="13" lengthAdjust="spacing" textLength="147.2529" x="112.7983" y="117.0332">ConsumerRecord(JSON)</text></g><g class="message" data-entity-1="part2" data-entity-2="part3" data-source-line="108" id="msg2"><polygon fill="#181818" points="492.3613,147.0859,502.3613,151.0859,492.3613,155.0859,496.3613,151.0859" style="stroke:#181818;stroke-width:1;stroke-linejoin:miter;stroke-miterlimit:10;"/><line style="stroke:#181818;stroke-width:1;" x1="292.0854" x2="498.3613" y1="151.0859" y2="151.0859"/><text fill="#000000" font-family="sans-serif" font-size="13" lengthAdjust="spacing" textLength="142.2891" x="299.0854" y="146.3438">validatePayment(node)</text></g><path d="M196.5967,166.0859 L258.7354,166.0859 L258.7354,173.3965 L248.7354,183.3965 L196.5967,183.3965 L196.5967,166.0859" fill="#EEEEEE" style="stroke:#000000;stroke-width:1.5;"/><rect fill="none" height="604.4316" style="stroke:#000000;stroke-width:1.5;" width="1341.6304" x="196.5967" y="166.0859"/><text fill="#000000" font-family="sans-serif" font-size="13" font-weight="700" lengthAdjust="spacing" textLength="17.1387" x="211.5967" y="179.6543">alt</text><text fill="#000000" font-family="sans-serif" font-size="11" font-weight="700" lengthAdjust="spacing" textLength="302.0703" x="273.7354" y="178.7207">[schema-invalid (paymentType outside the enum, ...)]</text><g class="message" data-entity-1="part3" data-entity-2="part2" data-source-line="110" id="msg3"><polygon fill="#181818" points="303.0854,200.707,293.0854,204.707,303.0854,208.707,299.0854,204.707" style="stroke:#181818;stroke-width:1;stroke-linejoin:miter;stroke-miterlimit:10;"/><line style="stroke:#181818;stroke-width:1;stroke-dasharray:2,2;" x1="297.0854" x2="503.3613" y1="204.707" y2="204.707"/><text fill="#000000" font-family="sans-serif" font-size="13" lengthAdjust="spacing" textLength="37.813" x="309.0854" y="199.9648">errors</text></g><g class="message" data-entity-1="part2" data-entity-2="part8" data-source-line="111" id="msg4"><polygon fill="#181818" points="1402.3789,230.0176,1412.3789,234.0176,1402.3789,238.0176,1406.3789,234.0176" style="stroke:#181818;stroke-width:1;stroke-linejoin:miter;stroke-miterlimit:10;"/><line style="stroke:#181818;stroke-width:1;" x1="292.0854" x2="1408.3789" y1="234.0176" y2="234.0176"/><text fill="#000000" font-family="sans-serif" font-size="13" lengthAdjust="spacing" textLength="108.6401" x="299.0854" y="229.2754">send(dlq-reason)</text></g><line style="stroke:#000000;stroke-width:1;stroke-dasharray:2,2;" x1="196.5967" x2="1538.2271" y1="243.0176" y2="243.0176"/><text fill="#000000" font-family="sans-serif" font-size="11" font-weight="700" lengthAdjust="spacing" textLength="35.5889" x="201.5967" y="253.6523">[valid]</text><g class="message" data-entity-1="part3" data-entity-2="part2" data-source-line="113" id="msg5"><polygon fill="#181818" points="303.0854,274.2832,293.0854,278.2832,303.0854,282.2832,299.0854,278.2832" style="stroke:#181818;stroke-width:1;stroke-linejoin:miter;stroke-miterlimit:10;"/><line style="stroke:#181818;stroke-width:1;stroke-dasharray:2,2;" x1="297.0854" x2="503.3613" y1="278.2832" y2="278.2832"/><text fill="#000000" font-family="sans-serif" font-size="13" lengthAdjust="spacing" textLength="8.4551" x="309.0854" y="273.541">{}</text></g><g class="message" data-entity-1="part2" data-entity-2="part2" data-source-line="114" id="msg6"><line style="stroke:#181818;stroke-width:1;" x1="292.0854" x2="334.0854" y1="307.5938" y2="307.5938"/><line style="stroke:#181818;stroke-width:1;" x1="334.0854" x2="334.0854" y1="307.5938" y2="320.5938"/><line style="stroke:#181818;stroke-width:1;" x1="293.0854" x2="334.0854" y1="320.5938" y2="320.5938"/><polygon fill="#181818" points="303.0854,316.5938,293.0854,320.5938,303.0854,324.5938,299.0854,320.5938" style="stroke:#181818;stroke-width:1;stroke-linejoin:miter;stroke-miterlimit:10;"/><text fill="#000000" font-family="sans-serif" font-size="13" lengthAdjust="spacing" textLength="183.2759" x="299.0854" y="302.8516">treeToValue(PaymentIngress)</text></g><g class="message" data-entity-1="part2" data-entity-2="part4" data-source-line="115" id="msg7"><polygon fill="#181818" points="673.2324,345.9043,683.2324,349.9043,673.2324,353.9043,677.2324,349.9043" style="stroke:#181818;stroke-width:1;stroke-linejoin:miter;stroke-miterlimit:10;"/><line style="stroke:#181818;stroke-width:1;" x1="292.0854" x2="679.2324" y1="349.9043" y2="349.9043"/><text fill="#000000" font-family="sans-serif" font-size="13" lengthAdjust="spacing" textLength="159.3896" x="299.0854" y="345.1621">isMapped(paymentType)?</text></g><path d="M206.5967,364.9043 L268.7354,364.9043 L268.7354,372.2148 L258.7354,382.2148 L206.5967,382.2148 L206.5967,364.9043" fill="#EEEEEE" style="stroke:#000000;stroke-width:1.5;"/><rect fill="none" height="141.5078" style="stroke:#000000;stroke-width:1.5;" width="571.3369" x="206.5967" y="364.9043"/><text fill="#000000" font-family="sans-serif" font-size="13" font-weight="700" lengthAdjust="spacing" textLength="17.1387" x="221.5967" y="378.4727">alt</text><text fill="#000000" font-family="sans-serif" font-size="11" font-weight="700" lengthAdjust="spacing" textLength="249.0361" x="283.7354" y="377.5391">[unmapped but contract-valid (e.g. OTHER)]</text><g class="message" data-entity-1="part4" data-entity-2="part2" data-source-line="117" id="msg8"><polygon fill="#181818" points="303.0854,399.5254,293.0854,403.5254,303.0854,407.5254,299.0854,403.5254" style="stroke:#181818;stroke-width:1;stroke-linejoin:miter;stroke-miterlimit:10;"/><line style="stroke:#181818;stroke-width:1;stroke-dasharray:2,2;" x1="297.0854" x2="684.2324" y1="403.5254" y2="403.5254"/><text fill="#000000" font-family="sans-serif" font-size="13" lengthAdjust="spacing" textLength="29.5864" x="309.0854" y="398.7832">false</text></g><path d="M297,416.5254 L297,456.5254 L633,456.5254 L633,426.5254 L623,416.5254 L297,416.5254" fill="#FEFFDD" style="stroke:#181818;stroke-width:0.5;"/><path d="M623,416.5254 L623,426.5254 L633,426.5254 L623,416.5254" fill="#FEFFDD" style="stroke:#181818;stroke-width:0.5;"/><text fill="#000000" font-family="sans-serif" font-size="13" lengthAdjust="spacing" textLength="237.6118" x="303" y="434.0938">WARN + EMIT_FALLBACK_AND_ALERT</text><text fill="#000000" font-family="sans-serif" font-size="13" lengthAdjust="spacing" textLength="315.9863" x="303" y="449.4043">&#8594; earn_source = PAYMENT_COMPLETED (inactive)</text><line style="stroke:#000000;stroke-width:1;stroke-dasharray:2,2;" x1="206.5967" x2="777.9336" y1="463.1465" y2="463.1465"/><text fill="#000000" font-family="sans-serif" font-size="11" font-weight="700" lengthAdjust="spacing" textLength="53.5981" x="211.5967" y="473.7813">[mapped]</text><g class="message" data-entity-1="part4" data-entity-2="part2" data-source-line="120" id="msg9"><polygon fill="#181818" points="303.0854,494.4121,293.0854,498.4121,303.0854,502.4121,299.0854,498.4121" style="stroke:#181818;stroke-width:1;stroke-linejoin:miter;stroke-miterlimit:10;"/><line style="stroke:#181818;stroke-width:1;stroke-dasharray:2,2;" x1="297.0854" x2="684.2324" y1="498.4121" y2="498.4121"/><text fill="#000000" font-family="sans-serif" font-size="13" lengthAdjust="spacing" textLength="25.4922" x="309.0854" y="493.6699">true</text></g><g class="message" data-entity-1="part2" data-entity-2="part5" data-source-line="122" id="msg10"><polygon fill="#181818" points="880.9463,530.7227,890.9463,534.7227,880.9463,538.7227,884.9463,534.7227" style="stroke:#181818;stroke-width:1;stroke-linejoin:miter;stroke-miterlimit:10;"/><line style="stroke:#181818;stroke-width:1;" x1="292.0854" x2="886.9463" y1="534.7227" y2="534.7227"/><text fill="#000000" font-family="sans-serif" font-size="13" lengthAdjust="spacing" textLength="173.1387" x="299.0854" y="529.9805">translate(ingress, mapping)</text></g><g class="message" data-entity-1="part5" data-entity-2="part4" data-source-line="123" id="msg11"><polygon fill="#181818" points="696.2324,560.0332,686.2324,564.0332,696.2324,568.0332,692.2324,564.0332" style="stroke:#181818;stroke-width:1;stroke-linejoin:miter;stroke-miterlimit:10;"/><line style="stroke:#181818;stroke-width:1;" x1="690.2324" x2="891.9463" y1="564.0332" y2="564.0332"/><text fill="#000000" font-family="sans-serif" font-size="13" lengthAdjust="spacing" textLength="183.7139" x="702.2324" y="559.291">earnSourceFor(paymentType)</text></g><g class="message" data-entity-1="part4" data-entity-2="part5" data-source-line="124" id="msg12"><polygon fill="#181818" points="880.9463,589.3438,890.9463,593.3438,880.9463,597.3438,884.9463,593.3438" style="stroke:#181818;stroke-width:1;stroke-linejoin:miter;stroke-miterlimit:10;"/><line style="stroke:#181818;stroke-width:1;stroke-dasharray:2,2;" x1="685.2324" x2="886.9463" y1="593.3438" y2="593.3438"/><text fill="#000000" font-family="sans-serif" font-size="13" lengthAdjust="spacing" textLength="76.21" x="692.2324" y="588.6016">earn_source</text></g><g class="message" data-entity-1="part5" data-entity-2="part2" data-source-line="125" id="msg13"><polygon fill="#181818" points="303.0854,633.9648,293.0854,637.9648,303.0854,641.9648,299.0854,637.9648" style="stroke:#181818;stroke-width:1;stroke-linejoin:miter;stroke-miterlimit:10;"/><line style="stroke:#181818;stroke-width:1;stroke-dasharray:2,2;" x1="297.0854" x2="891.9463" y1="637.9648" y2="637.9648"/><text fill="#000000" font-family="sans-serif" font-size="13" lengthAdjust="spacing" textLength="206.5718" x="309.0854" y="617.9121">EarnEvent(source = earn_source,</text><text fill="#000000" font-family="sans-serif" font-size="13" lengthAdjust="spacing" textLength="273.9458" x="313.1987" y="633.2227">payload{amount,currency,paymentType,...})</text></g><path d="M603,650.9648 L603,705.9648 L887,705.9648 L887,660.9648 L877,650.9648 L603,650.9648" fill="#FEFFDD" style="stroke:#181818;stroke-width:0.5;"/><path d="M877,650.9648 L877,660.9648 L887,660.9648 L877,650.9648" fill="#FEFFDD" style="stroke:#181818;stroke-width:0.5;"/><text fill="#000000" font-family="sans-serif" font-size="13" lengthAdjust="spacing" textLength="232.5527" x="609" y="668.5332">paymentType PRESERVED on payload</text><text fill="#000000" font-family="sans-serif" font-size="13" lengthAdjust="spacing" textLength="185.2056" x="609" y="683.8438">so DSL rules can discriminate</text><text fill="#000000" font-family="sans-serif" font-size="13" lengthAdjust="spacing" textLength="263.1484" x="609" y="699.1543">(e.g. exclude P2P under FUND_TRANSFER)</text><g class="message" data-entity-1="part2" data-entity-2="part6" data-source-line="127" id="msg14"><polygon fill="#181818" points="1019.1167,729.207,1029.1167,733.207,1019.1167,737.207,1023.1167,733.207" style="stroke:#181818;stroke-width:1;stroke-linejoin:miter;stroke-miterlimit:10;"/><line style="stroke:#181818;stroke-width:1;" x1="292.0854" x2="1025.1167" y1="733.207" y2="733.207"/><text fill="#000000" font-family="sans-serif" font-size="13" lengthAdjust="spacing" textLength="207.6826" x="299.0854" y="728.4648">send(key = customerId, headers)</text></g><g class="message" data-entity-1="part6" data-entity-2="part7" data-source-line="128" id="msg15"><polygon fill="#181818" points="1182.644,758.5176,1192.644,762.5176,1182.644,766.5176,1186.644,762.5176" style="stroke:#181818;stroke-width:1;stroke-linejoin:miter;stroke-miterlimit:10;"/><line style="stroke:#181818;stroke-width:1;" x1="1031.1167" x2="1188.644" y1="762.5176" y2="762.5176"/><text fill="#000000" font-family="sans-serif" font-size="13" lengthAdjust="spacing" textLength="51.6382" x="1038.1167" y="757.7754">produce</text></g><g class="message" data-entity-1="part2" data-entity-2="part1" data-source-line="130" id="msg16"><polygon fill="#181818" points="116.7983,794.8281,106.7983,798.8281,116.7983,802.8281,112.7983,798.8281" style="stroke:#181818;stroke-width:1;stroke-linejoin:miter;stroke-miterlimit:10;"/><line style="stroke:#181818;stroke-width:1;" x1="110.7983" x2="286.0854" y1="798.8281" y2="798.8281"/><text fill="#000000" font-family="sans-serif" font-size="13" lengthAdjust="spacing" textLength="87.9277" x="122.7983" y="794.0859">commit offset</text></g><?plantuml-src ZLHDZzem4BtdLumu9If4QeyhjHNT3UfsWKMGRbK92NcT0ImIE-iFMhJQQtz0Vs9_ISTEGc75eJabzhnvps-UOuKj4MRiKA6q8EH6ep7mvzTlu4mgAJWh8MDQPdk_7zTDONweCHGXRQsCSffZ4fcTa3NJh0ApPONwGTrWpKg3qPD3Xz0ylL8TM6aFQKkMjZtJ_TjUMmBCa9I8Ubd1HSs8kTTAl5RIk0hriVJq8HW_Hzqs70k-nOezi58KpAfNO4BjBt9DM5sJoAMC7vdS3PmKQwKhu4gknIRfUM1r4PXh9atfcGXREur9xupEdgFks7h7SgngWk35WmNKxhADVWIfRHcnEBNHevIp_sj_MfHFlGv7xr4a90m-08Shw7oV8rUwYByixgT9nBWLUo8brxalt5FXlZ4PMojYgGgA1Z622KCO21bAphD4Aeqe4EmM0QMh-f2cQH81jHoq2b1hfGqj1IgIHsi6PH7Jwq0ZCqec4LBQ6WbdsEUN3kU_h4RC5QN1OTpAR7EIT6KLbGdZ0u35gT3a8rNumpXPXKruTDOdWWR0xQ0z6QQR5ExppzdSDmJgrWbfheDVaufyqsApjQ3MOU_RS3w5Dv1DRlFLQ3WUVnfUtws6qvlLS9pDywLyTT_WFSo6toVPD5zTtqzcuopFRY0MCWm5FN4mev7vIeRLpgiWzxe3sx3QXYXkiz4FQFhmtMpdYzUm2196If-P4tKSjYrhfJReblluDucFvpWfxIybKCjIiUAPLSf9s-TEQvJyq3-XwbCyNZnViB74TN3HqvwcQZRF5jdyWNnHnwvBQHJSBCQWNOd6_-MW48PhKP5r5kd2XkdXJruw2kJitOncNQ26qLSQHJuVJXUZPgx1jrsNmXqUw2JS6QlecjmMVTWY8rp8rCwNKiQzFgqAHvPuxqC7kcDNbA2g4luCQuCsAl3VpVeB?></g></svg>