<svg xmlns="http://www.w3.org/2000/svg" xmlns:xlink="http://www.w3.org/1999/xlink" contentStyleType="text/css" data-diagram-type="SEQUENCE" height="858px" preserveAspectRatio="none" style="width:1521px;height:858px;background:#FFFFFF;" version="1.1" viewBox="0 0 1521 858" width="1521px" zoomAndPan="magnify"><?plantuml 1.2026.4?><defs/><g><g class="title" data-source-line="212"><text fill="#000000" font-family="sans-serif" font-size="14" font-weight="700" lengthAdjust="spacing" textLength="483.875" x="515.3174" y="28.5352">Voucher webhook (HTTPS + HMAC) &#8594; loyalty.fulfillment.resume.v1</text></g><g><title>VoucherWebhookController</title><rect fill="#FFFFFF" height="517.1895" style="stroke:#181818;stroke-width:1;" width="10" x="438.4746" y="182.0859"/></g><rect fill="none" height="399.9473" style="stroke:#000000;stroke-width:1.5;" width="1271.2036" x="10" y="292.3281"/><rect fill="none" height="223.4395" style="stroke:#000000;stroke-width:1.5;" width="1251.2036" x="20" y="461.8359"/><g class="participant-lifeline" data-entity-uid="part1" data-qualified-name="p" data-source-line="214" id="part1-lifeline"><g><title>3rd-Party Voucher</title><rect fill="#000000" fill-opacity="0.00000" height="624.4316" width="8" x="91.7505" y="135.4648"/><line style="stroke:#181818;stroke-width:0.5;stroke-dasharray:5,5;" x1="95" x2="95" y1="135.4648" y2="759.8965"/></g></g><g class="participant-lifeline" data-entity-uid="part2" data-qualified-name="ctl" data-source-line="215" id="part2-lifeline"><g><title>VoucherWebhookController</title><rect fill="#000000" fill-opacity="0.00000" height="624.4316" width="8" x="439.4746" y="135.4648"/><line style="stroke:#181818;stroke-width:0.5;stroke-dasharray:5,5;" x1="443.1504" x2="443.1504" y1="135.4648" y2="759.8965"/></g></g><g class="participant-lifeline" data-entity-uid="part3" data-qualified-name="h" data-source-line="216" id="part3-lifeline"><g><title>HmacVerifier</title><rect fill="#000000" fill-opacity="0.00000" height="624.4316" width="8" x="645.2314" y="135.4648"/><line style="stroke:#181818;stroke-width:0.5;stroke-dasharray:5,5;" x1="648.3755" x2="648.3755" y1="135.4648" y2="759.8965"/></g></g><g class="participant-lifeline" data-entity-uid="part4" data-qualified-name="t" data-source-line="217" id="part4-lifeline"><g><title>VoucherWebhookTranslator</title><rect fill="#000000" fill-opacity="0.00000" height="624.4316" width="8" x="807.0713" y="135.4648"/><line style="stroke:#181818;stroke-width:0.5;stroke-dasharray:5,5;" x1="810.0874" x2="810.0874" y1="135.4648" y2="759.8965"/></g></g><g class="participant-lifeline" data-entity-uid="part5" data-qualified-name="k" data-source-line="218" id="part5-lifeline"><g><title>KafkaTemplate</title><rect fill="#000000" fill-opacity="0.00000" height="624.4316" width="8" x="975.6958" y="135.4648"/><line style="stroke:#181818;stroke-width:0.5;stroke-dasharray:5,5;" x1="979.0552" x2="979.0552" y1="135.4648" y2="759.8965"/></g></g><g class="participant-lifeline" data-entity-uid="part6" data-qualified-name="out" data-source-line="219" id="part6-lifeline"><g><title>loyalty.fulfillment.resume.v1</title><rect fill="#000000" fill-opacity="0.00000" height="624.4316" width="8" x="1150.27" y="135.4648"/><line style="stroke:#181818;stroke-width:0.5;stroke-dasharray:5,5;" x1="1153.3364" x2="1153.3364" y1="135.4648" y2="759.8965"/></g></g><g class="participant participant-head" data-entity-uid="part1" data-qualified-name="p" data-source-line="214" id="part1-head"><text fill="#000000" font-family="sans-serif" font-size="14" lengthAdjust="spacing" textLength="125.501" x="30" y="116.0234">3rd-Party Voucher</text><text fill="#000000" font-family="sans-serif" font-size="14" lengthAdjust="spacing" textLength="48.6514" x="68.4248" y="132.5117">Partner</text><ellipse cx="95.7505" cy="50.9883" fill="#E2E2F0" rx="8" ry="8" style="stroke:#181818;stroke-width:0.5;"/><path d="M95.7505,58.9883 L95.7505,85.9883 M82.7505,66.9883 L108.7505,66.9883 M95.7505,85.9883 L82.7505,100.9883 M95.7505,85.9883 L108.7505,100.9883" fill="none" style="stroke:#181818;stroke-width:0.5;"/></g><g class="participant participant-tail" data-entity-uid="part1" data-qualified-name="p" data-source-line="214" id="part1-tail"><text fill="#000000" font-family="sans-serif" font-size="14" lengthAdjust="spacing" textLength="125.501" x="30" y="772.4316">3rd-Party Voucher</text><text fill="#000000" font-family="sans-serif" font-size="14" lengthAdjust="spacing" textLength="48.6514" x="68.4248" y="788.9199">Partner</text><ellipse cx="95.7505" cy="800.373" fill="#E2E2F0" rx="8" ry="8" style="stroke:#181818;stroke-width:0.5;"/><path d="M95.7505,808.373 L95.7505,835.373 M82.7505,816.373 L108.7505,816.373 M95.7505,835.373 L82.7505,850.373 M95.7505,835.373 L108.7505,850.373" fill="none" style="stroke:#181818;stroke-width:0.5;"/></g><g class="participant participant-head" data-entity-uid="part2" data-qualified-name="ctl" data-source-line="215" id="part2-head"><rect fill="#E2E2F0" height="46.9766" rx="2.5" ry="2.5" style="stroke:#181818;stroke-width:0.5;" width="200.6484" x="343.1504" y="87.4883"/><text fill="#000000" font-family="sans-serif" font-size="14" lengthAdjust="spacing" textLength="186.6484" x="350.1504" y="108.0234">VoucherWebhookController</text><text fill="#000000" font-family="sans-serif" font-size="14" lengthAdjust="spacing" textLength="176.6475" x="355.1509" y="124.5117">POST /webhooks/voucher</text></g><g class="participant participant-tail" data-entity-uid="part2" data-qualified-name="ctl" data-source-line="215" id="part2-tail"><rect fill="#E2E2F0" height="46.9766" rx="2.5" ry="2.5" style="stroke:#181818;stroke-width:0.5;" width="200.6484" x="343.1504" y="758.8965"/><text fill="#000000" font-family="sans-serif" font-size="14" lengthAdjust="spacing" textLength="186.6484" x="350.1504" y="779.4316">VoucherWebhookController</text><text fill="#000000" font-family="sans-serif" font-size="14" lengthAdjust="spacing" textLength="176.6475" x="355.1509" y="795.9199">POST /webhooks/voucher</text></g><g class="participant participant-head" data-entity-uid="part3" data-qualified-name="h" data-source-line="216" id="part3-head"><rect fill="#E2E2F0" height="30.4883" rx="2.5" ry="2.5" style="stroke:#181818;stroke-width:0.5;" width="101.7119" x="598.3755" y="103.9766"/><text fill="#000000" font-family="sans-serif" font-size="14" lengthAdjust="spacing" textLength="87.7119" x="605.3755" y="124.5117">HmacVerifier</text></g><g class="participant participant-tail" data-entity-uid="part3" data-qualified-name="h" data-source-line="216" id="part3-tail"><rect fill="#E2E2F0" height="30.4883" rx="2.5" ry="2.5" style="stroke:#181818;stroke-width:0.5;" width="101.7119" x="598.3755" y="758.8965"/><text fill="#000000" font-family="sans-serif" font-size="14" lengthAdjust="spacing" textLength="87.7119" x="605.3755" y="779.4316">HmacVerifier</text></g><g class="participant participant-head" data-entity-uid="part4" data-qualified-name="t" data-source-line="217" id="part4-head"><rect fill="#E2E2F0" height="46.9766" rx="2.5" ry="2.5" style="stroke:#181818;stroke-width:0.5;" width="201.9678" x="710.0874" y="87.4883"/><text fill="#000000" font-family="sans-serif" font-size="14" lengthAdjust="spacing" textLength="187.9678" x="717.0874" y="108.0234">VoucherWebhookTranslator</text><text fill="#000000" font-family="sans-serif" font-size="14" lengthAdjust="spacing" textLength="40.1338" x="791.0044" y="124.5117">(pure)</text></g><g class="participant participant-tail" data-entity-uid="part4" data-qualified-name="t" data-source-line="217" id="part4-tail"><rect fill="#E2E2F0" height="46.9766" rx="2.5" ry="2.5" style="stroke:#181818;stroke-width:0.5;" width="201.9678" x="710.0874" y="758.8965"/><text fill="#000000" font-family="sans-serif" font-size="14" lengthAdjust="spacing" textLength="187.9678" x="717.0874" y="779.4316">VoucherWebhookTranslator</text><text fill="#000000" font-family="sans-serif" font-size="14" lengthAdjust="spacing" textLength="40.1338" x="791.0044" y="795.9199">(pure)</text></g><g class="participant participant-head" data-entity-uid="part5" data-qualified-name="k" data-source-line="218" id="part5-head"><rect fill="#E2E2F0" height="30.4883" rx="2.5" ry="2.5" style="stroke:#181818;stroke-width:0.5;" width="115.2813" x="922.0552" y="103.9766"/><text fill="#000000" font-family="sans-serif" font-size="14" lengthAdjust="spacing" textLength="101.2813" x="929.0552" y="124.5117">KafkaTemplate</text></g><g class="participant participant-tail" data-entity-uid="part5" data-qualified-name="k" data-source-line="218" id="part5-tail"><rect fill="#E2E2F0" height="30.4883" rx="2.5" ry="2.5" style="stroke:#181818;stroke-width:0.5;" width="115.2813" x="922.0552" y="758.8965"/><text fill="#000000" font-family="sans-serif" font-size="14" lengthAdjust="spacing" textLength="101.2813" x="929.0552" y="779.4316">KafkaTemplate</text></g><g class="participant participant-head" data-entity-uid="part6" data-qualified-name="out" data-source-line="219" id="part6-head"><path d="M1052.3364,108.9766 L1256.2036,108.9766 C1261.2036,108.9766 1261.2036,122.2207 1261.2036,122.2207 C1261.2036,122.2207 1261.2036,135.4648 1256.2036,135.4648 L1052.3364,135.4648 C1047.3364,135.4648 1047.3364,122.2207 1047.3364,122.2207 C1047.3364,122.2207 1047.3364,108.9766 1052.3364,108.9766" fill="#E2E2F0" style="stroke:#181818;stroke-width:0.5;"/><path d="M1256.2036,108.9766 C1251.2036,108.9766 1251.2036,122.2207 1251.2036,122.2207 C1251.2036,135.4648 1256.2036,135.4648 1256.2036,135.4648" fill="none" style="stroke:#181818;stroke-width:0.5;"/><text fill="#000000" font-family="sans-serif" font-size="14" lengthAdjust="spacing" textLength="193.8672" x="1052.3364" y="127.5117">loyalty.fulfillment.resume.v1</text></g><g class="participant participant-tail" data-entity-uid="part6" data-qualified-name="out" data-source-line="219" id="part6-tail"><path d="M1052.3364,758.8965 L1256.2036,758.8965 C1261.2036,758.8965 1261.2036,772.1406 1261.2036,772.1406 C1261.2036,772.1406 1261.2036,785.3848 1256.2036,785.3848 L1052.3364,785.3848 C1047.3364,785.3848 1047.3364,772.1406 1047.3364,772.1406 C1047.3364,772.1406 1047.3364,758.8965 1052.3364,758.8965" fill="#E2E2F0" style="stroke:#181818;stroke-width:0.5;"/><path d="M1256.2036,758.8965 C1251.2036,758.8965 1251.2036,772.1406 1251.2036,772.1406 C1251.2036,785.3848 1256.2036,785.3848 1256.2036,785.3848" fill="none" style="stroke:#181818;stroke-width:0.5;"/><text fill="#000000" font-family="sans-serif" font-size="14" lengthAdjust="spacing" textLength="193.8672" x="1052.3364" y="777.4316">loyalty.fulfillment.resume.v1</text></g><g><title>VoucherWebhookController</title><rect fill="#FFFFFF" height="517.1895" style="stroke:#181818;stroke-width:1;" width="10" x="438.4746" y="182.0859"/></g><g class="message" data-entity-1="part1" data-entity-2="part2" data-source-line="221" id="msg1"><polygon fill="#181818" points="426.4746,178.0859,436.4746,182.0859,426.4746,186.0859,430.4746,182.0859" style="stroke:#181818;stroke-width:1;stroke-linejoin:miter;stroke-miterlimit:10;"/><line style="stroke:#181818;stroke-width:1;" x1="95.7505" x2="432.4746" y1="182.0859" y2="182.0859"/><text fill="#000000" font-family="sans-serif" font-size="13" lengthAdjust="spacing" textLength="268.3154" x="102.7505" y="162.0332">POST  headers: X-Signature, X-Timestamp</text><text fill="#000000" font-family="sans-serif" font-size="13" lengthAdjust="spacing" textLength="319.6108" x="106.8638" y="177.3438">body {jobHandle, status, voucherCode, partnerRef}</text></g><g class="message" data-entity-1="part2" data-entity-2="part3" data-source-line="223" id="msg2"><polygon fill="#181818" points="637.2314,207.3965,647.2314,211.3965,637.2314,215.3965,641.2314,211.3965" style="stroke:#181818;stroke-width:1;stroke-linejoin:miter;stroke-miterlimit:10;"/><line style="stroke:#181818;stroke-width:1;" x1="448.4746" x2="643.2314" y1="211.3965" y2="211.3965"/><text fill="#000000" font-family="sans-serif" font-size="13" lengthAdjust="spacing" textLength="176.7568" x="455.4746" y="206.6543">verify(sig, ts, rawBody, now)</text></g><path d="M654,224.3965 L654,279.3965 L945,279.3965 L945,234.3965 L935,224.3965 L654,224.3965" fill="#FEFFDD" style="stroke:#181818;stroke-width:0.5;"/><path d="M935,224.3965 L935,234.3965 L945,234.3965 L935,224.3965" fill="#FEFFDD" style="stroke:#181818;stroke-width:0.5;"/><text fill="#000000" font-family="sans-serif" font-size="13" lengthAdjust="spacing" textLength="270.6577" x="660" y="241.9648">HMAC-SHA256(secret, "&lt;ts&gt;.&lt;rawBody&gt;")</text><text fill="#000000" font-family="sans-serif" font-size="13" lengthAdjust="spacing" textLength="191.9404" x="660" y="257.2754">reject if |now - ts| &gt; tolerance</text><text fill="#000000" font-family="sans-serif" font-size="13" lengthAdjust="spacing" textLength="148.6494" x="660" y="272.5859">constant-time compare</text><path d="M10,292.3281 L72.1387,292.3281 L72.1387,299.6387 L62.1387,309.6387 L10,309.6387 L10,292.3281" fill="#EEEEEE" style="stroke:#000000;stroke-width:1.5;"/><rect fill="none" height="399.9473" style="stroke:#000000;stroke-width:1.5;" width="1271.2036" x="10" y="292.3281"/><text fill="#000000" font-family="sans-serif" font-size="13" font-weight="700" lengthAdjust="spacing" textLength="17.1387" x="25" y="305.8965">alt</text><text fill="#000000" font-family="sans-serif" font-size="11" font-weight="700" lengthAdjust="spacing" textLength="208.3984" x="87.1387" y="304.9629">[invalid signature / stale timestamp]</text><g class="message" data-entity-1="part3" data-entity-2="part2" data-source-line="226" id="msg3"><polygon fill="#181818" points="459.4746,326.9492,449.4746,330.9492,459.4746,334.9492,455.4746,330.9492" style="stroke:#181818;stroke-width:1;stroke-linejoin:miter;stroke-miterlimit:10;"/><line style="stroke:#181818;stroke-width:1;stroke-dasharray:2,2;" x1="453.4746" x2="648.2314" y1="330.9492" y2="330.9492"/><text fill="#000000" font-family="sans-serif" font-size="13" lengthAdjust="spacing" textLength="29.5864" x="465.4746" y="326.207">false</text></g><g class="message" data-entity-1="part2" data-entity-2="part1" data-source-line="227" id="msg4"><polygon fill="#181818" points="106.7505,356.2598,96.7505,360.2598,106.7505,364.2598,102.7505,360.2598" style="stroke:#181818;stroke-width:1;stroke-linejoin:miter;stroke-miterlimit:10;"/><line style="stroke:#181818;stroke-width:1;stroke-dasharray:2,2;" x1="100.7505" x2="437.4746" y1="360.2598" y2="360.2598"/><text fill="#000000" font-family="sans-serif" font-size="13" lengthAdjust="spacing" textLength="113.9658" x="112.7505" y="355.5176">401 Unauthorized</text></g><line style="stroke:#000000;stroke-width:1;stroke-dasharray:2,2;" x1="10" x2="1281.2036" y1="369.2598" y2="369.2598"/><text fill="#000000" font-family="sans-serif" font-size="11" font-weight="700" lengthAdjust="spacing" textLength="35.5889" x="15" y="379.8945">[valid]</text><g class="message" data-entity-1="part3" data-entity-2="part2" data-source-line="229" id="msg5"><polygon fill="#181818" points="459.4746,400.5254,449.4746,404.5254,459.4746,408.5254,455.4746,404.5254" style="stroke:#181818;stroke-width:1;stroke-linejoin:miter;stroke-miterlimit:10;"/><line style="stroke:#181818;stroke-width:1;stroke-dasharray:2,2;" x1="453.4746" x2="648.2314" y1="404.5254" y2="404.5254"/><text fill="#000000" font-family="sans-serif" font-size="13" lengthAdjust="spacing" textLength="25.4922" x="465.4746" y="399.7832">true</text></g><g class="message" data-entity-1="part2" data-entity-2="part2" data-source-line="230" id="msg6"><line style="stroke:#181818;stroke-width:1;" x1="448.4746" x2="490.4746" y1="433.8359" y2="433.8359"/><line style="stroke:#181818;stroke-width:1;" x1="490.4746" x2="490.4746" y1="433.8359" y2="446.8359"/><line style="stroke:#181818;stroke-width:1;" x1="449.4746" x2="490.4746" y1="446.8359" y2="446.8359"/><polygon fill="#181818" points="459.4746,442.8359,449.4746,446.8359,459.4746,450.8359,455.4746,446.8359" style="stroke:#181818;stroke-width:1;stroke-linejoin:miter;stroke-miterlimit:10;"/><text fill="#000000" font-family="sans-serif" font-size="13" lengthAdjust="spacing" textLength="69.8052" x="455.4746" y="429.0938">parse body</text></g><path d="M20,461.8359 L82.1387,461.8359 L82.1387,469.1465 L72.1387,479.1465 L20,479.1465 L20,461.8359" fill="#EEEEEE" style="stroke:#000000;stroke-width:1.5;"/><rect fill="none" height="223.4395" style="stroke:#000000;stroke-width:1.5;" width="1251.2036" x="20" y="461.8359"/><text fill="#000000" font-family="sans-serif" font-size="13" font-weight="700" lengthAdjust="spacing" textLength="17.1387" x="35" y="475.4043">alt</text><text fill="#000000" font-family="sans-serif" font-size="11" font-weight="700" lengthAdjust="spacing" textLength="293.0415" x="97.1387" y="474.4707">[jobHandle blank OR status not in {READY, FAILED}]</text><g class="message" data-entity-1="part2" data-entity-2="part1" data-source-line="232" id="msg7"><polygon fill="#181818" points="106.7505,496.457,96.7505,500.457,106.7505,504.457,102.7505,500.457" style="stroke:#181818;stroke-width:1;stroke-linejoin:miter;stroke-miterlimit:10;"/><line style="stroke:#181818;stroke-width:1;stroke-dasharray:2,2;" x1="100.7505" x2="437.4746" y1="500.457" y2="500.457"/><text fill="#000000" font-family="sans-serif" font-size="13" lengthAdjust="spacing" textLength="106.1709" x="112.7505" y="495.7148">400 Bad Request</text></g><line style="stroke:#000000;stroke-width:1;stroke-dasharray:2,2;" x1="20" x2="1271.2036" y1="509.457" y2="509.457"/><text fill="#000000" font-family="sans-serif" font-size="11" font-weight="700" lengthAdjust="spacing" textLength="58.2549" x="25" y="520.0918">[accepted]</text><g class="message" data-entity-1="part2" data-entity-2="part4" data-source-line="234" id="msg8"><polygon fill="#181818" points="799.0713,540.7227,809.0713,544.7227,799.0713,548.7227,803.0713,544.7227" style="stroke:#181818;stroke-width:1;stroke-linejoin:miter;stroke-miterlimit:10;"/><line style="stroke:#181818;stroke-width:1;" x1="448.4746" x2="805.0713" y1="544.7227" y2="544.7227"/><text fill="#000000" font-family="sans-serif" font-size="13" lengthAdjust="spacing" textLength="118.5933" x="455.4746" y="539.9805">translate(req, now)</text></g><g class="message" data-entity-1="part4" data-entity-2="part2" data-source-line="235" id="msg9"><polygon fill="#181818" points="459.4746,585.3438,449.4746,589.3438,459.4746,593.3438,455.4746,589.3438" style="stroke:#181818;stroke-width:1;stroke-linejoin:miter;stroke-miterlimit:10;"/><line style="stroke:#181818;stroke-width:1;stroke-dasharray:2,2;" x1="453.4746" x2="810.0713" y1="589.3438" y2="589.3438"/><text fill="#000000" font-family="sans-serif" font-size="13" lengthAdjust="spacing" textLength="116.6953" x="465.4746" y="569.291">FulfillmentResume</text><text fill="#000000" font-family="sans-serif" font-size="13" lengthAdjust="spacing" textLength="329.2085" x="465.4746" y="584.6016">(eventId = voucher-resume:&lt;jobHandle&gt;:&lt;status&gt;)</text></g><g class="message" data-entity-1="part2" data-entity-2="part5" data-source-line="236" id="msg10"><polygon fill="#181818" points="967.6958,614.6543,977.6958,618.6543,967.6958,622.6543,971.6958,618.6543" style="stroke:#181818;stroke-width:1;stroke-linejoin:miter;stroke-miterlimit:10;"/><line style="stroke:#181818;stroke-width:1;" x1="448.4746" x2="973.6958" y1="618.6543" y2="618.6543"/><text fill="#000000" font-family="sans-serif" font-size="13" lengthAdjust="spacing" textLength="142.873" x="455.4746" y="613.9121">send(key = jobHandle)</text></g><g class="message" data-entity-1="part5" data-entity-2="part6" data-source-line="237" id="msg11"><polygon fill="#181818" points="1142.27,643.9648,1152.27,647.9648,1142.27,651.9648,1146.27,647.9648" style="stroke:#181818;stroke-width:1;stroke-linejoin:miter;stroke-miterlimit:10;"/><line style="stroke:#181818;stroke-width:1;" x1="979.6958" x2="1148.27" y1="647.9648" y2="647.9648"/><text fill="#000000" font-family="sans-serif" font-size="13" lengthAdjust="spacing" textLength="51.6382" x="986.6958" y="643.2227">produce</text></g><g class="message" data-entity-1="part2" data-entity-2="part1" data-source-line="238" id="msg12"><polygon fill="#181818" points="106.7505,673.2754,96.7505,677.2754,106.7505,681.2754,102.7505,677.2754" style="stroke:#181818;stroke-width:1;stroke-linejoin:miter;stroke-miterlimit:10;"/><line style="stroke:#181818;stroke-width:1;stroke-dasharray:2,2;" x1="100.7505" x2="437.4746" y1="677.2754" y2="677.2754"/><text fill="#000000" font-family="sans-serif" font-size="13" lengthAdjust="spacing" textLength="86.7725" x="112.7505" y="672.5332">202 Accepted</text></g><path d="M1159,704.2754 L1159,744.2754 L1510,744.2754 L1510,714.2754 L1500,704.2754 L1159,704.2754" fill="#FEFFDD" style="stroke:#181818;stroke-width:0.5;"/><path d="M1500,704.2754 L1500,714.2754 L1510,714.2754 L1500,704.2754" fill="#FEFFDD" style="stroke:#181818;stroke-width:0.5;"/><text fill="#000000" font-family="sans-serif" font-size="13" lengthAdjust="spacing" textLength="193.502" x="1165" y="721.8438">job-scoped (key = jobHandle).</text><text fill="#000000" font-family="sans-serif" font-size="13" lengthAdjust="spacing" textLength="330.5098" x="1165" y="737.1543">Deterministic eventId &#8594; partner retry is idempotent.</text><?plantuml-src VLJBRjim4BphAnOwsQZbFFeu6Au1vmK7RP70TjCMy8KMLn4ZYLJ8bGqtoRKVq4_ibtGf-H4dG0ZuG79tPdOuCYdA4MvC5QTeOOdpr9WCMgFfz7e2xs3qRNZQXdz__a9kLYAdLJUfyaJbUO6QkXPTLM1tSHIuJEbIM560IuKqIwLl8H6vmq34P2mqAtnlPNGjBAqsZ3Fjjnfj2Bib79G1ev6ALIaqGRYk_j78EpMQhCdpklrgCeM3jMvti6WAGuyHKxwFCYf4V8DM9MgVxyNYrlGj-gaLskM2nvhfLbbPR8VRHjfl_2AIJ4onABaSmxSOi-2-mWetHhtfTlYyqLGK12L40pylzA0s158K4gthmSzeecwr89RPuSrK5UX85ELCmzp85JpScVb8Q9dpDLzGvJgmDl7KI3uic_SPO_Batr8jU9BQMa_7h2bpBhofgvPJjnqW1h1YUSBW7T1csGwquGwhRbC2azJrFbNHP3Gy_lYfvJ2sI1q8--G6tVwwTH2sPzhY7SO4Ae571eA8iHzX06JuvOMESQPZercqfeXuBeXDmMevSZatwON8bGItcHuE_7oSTTfO4B1D46sDQ-8AzSwVbdpsuV08lcjHKMgi-eqoGAw16lb5DzbgsxmvOp5SxMtc6ozgwpNCSw4pk1glFMUZl6Hu69yFptvru69u-VNyx2dmRxolvn1EX8GnSbeSyNqjICGnbeHoLyykrQAQf6BBultwDNm9FHD-iKlOk0uOXneNlBkKy7aJXQZ9Ng-_dM3GwpVI1-tdh1aZEjIobU6AsxVbJL7cIpYmtXjhP1NZgmcF3uzXk1k7eGB_axYNlVr8DOZC5RdOb2ZX5Njtfi-Gq1PAAyUV9smczFziwuG3nz2kG3bGahzOPk1lxZy0?></g></svg>