<svg xmlns="http://www.w3.org/2000/svg" xmlns:xlink="http://www.w3.org/1999/xlink" contentStyleType="text/css" data-diagram-type="SEQUENCE" height="435px" preserveAspectRatio="none" style="width:1333px;height:435px;background:#FFFFFF;" version="1.1" viewBox="0 0 1333 435" width="1333px" zoomAndPan="magnify"><?plantuml 1.2026.4?><defs/><g><g class="title" data-source-line="159"><text fill="#000000" font-family="sans-serif" font-size="14" font-weight="700" lengthAdjust="spacing" textLength="413.2666" x="456.5884" y="28.5352">Customer-lifecycle ingress &#8594; loyalty.member.lifecycle.v1</text></g><g><title>LifecycleConsumer</title><rect fill="#FFFFFF" height="191.1738" style="stroke:#181818;stroke-width:1;" width="10" x="348.5991" y="121.7754"/></g><g class="participant-lifeline" data-entity-uid="part1" data-qualified-name="in" data-source-line="161" id="part1-lifeline"><g><title>loyalty.ingress.customer_lifecycle.v1</title><rect fill="#000000" fill-opacity="0.00000" height="291.1055" width="8" x="134.9595" y="90.4648"/><line style="stroke:#181818;stroke-width:0.5;stroke-dasharray:5,5;" x1="138" x2="138" y1="90.4648" y2="381.5703"/></g></g><g class="participant-lifeline" data-entity-uid="part2" data-qualified-name="c" data-source-line="162" id="part2-lifeline"><g><title>LifecycleConsumer</title><rect fill="#000000" fill-opacity="0.00000" height="291.1055" width="8" x="349.5991" y="90.4648"/><line style="stroke:#181818;stroke-width:0.5;stroke-dasharray:5,5;" x1="352.9189" x2="352.9189" y1="90.4648" y2="381.5703"/></g></g><g class="participant-lifeline" data-entity-uid="part3" data-qualified-name="v" data-source-line="163" id="part3-lifeline"><g><title>IngressSchemaValidator</title><rect fill="#000000" fill-opacity="0.00000" height="291.1055" width="8" x="551.4331" y="90.4648"/><line style="stroke:#181818;stroke-width:0.5;stroke-dasharray:5,5;" x1="555.2632" x2="555.2632" y1="90.4648" y2="381.5703"/></g></g><g class="participant-lifeline" data-entity-uid="part4" data-qualified-name="t" data-source-line="164" id="part4-lifeline"><g><title>LifecycleTranslator</title><rect fill="#000000" fill-opacity="0.00000" height="291.1055" width="8" x="720.3242" y="90.4648"/><line style="stroke:#181818;stroke-width:0.5;stroke-dasharray:5,5;" x1="723.603" x2="723.603" y1="90.4648" y2="381.5703"/></g></g><g class="participant-lifeline" data-entity-uid="part5" data-qualified-name="k" data-source-line="165" id="part5-lifeline"><g><title>KafkaTemplate</title><rect fill="#000000" fill-opacity="0.00000" height="291.1055" width="8" x="858.686" y="90.4648"/><line style="stroke:#181818;stroke-width:0.5;stroke-dasharray:5,5;" x1="862.0454" x2="862.0454" y1="90.4648" y2="381.5703"/></g></g><g class="participant-lifeline" data-entity-uid="part6" data-qualified-name="out" data-source-line="166" id="part6-lifeline"><g><title>loyalty.member.lifecycle.v1</title><rect fill="#000000" fill-opacity="0.00000" height="291.1055" width="8" x="1028.5776" y="90.4648"/><line style="stroke:#181818;stroke-width:0.5;stroke-dasharray:5,5;" x1="1032.3267" x2="1032.3267" y1="90.4648" y2="381.5703"/></g></g><g class="participant participant-head" data-entity-uid="part1" data-qualified-name="in" data-source-line="161" id="part1-head"><path d="M10,63.9766 L267.9189,63.9766 C272.9189,63.9766 272.9189,77.2207 272.9189,77.2207 C272.9189,77.2207 272.9189,90.4648 267.9189,90.4648 L10,90.4648 C5,90.4648 5,77.2207 5,77.2207 C5,77.2207 5,63.9766 10,63.9766" fill="#E2E2F0" style="stroke:#181818;stroke-width:0.5;"/><path d="M267.9189,63.9766 C262.9189,63.9766 262.9189,77.2207 262.9189,77.2207 C262.9189,90.4648 267.9189,90.4648 267.9189,90.4648" fill="none" style="stroke:#181818;stroke-width:0.5;"/><text fill="#000000" font-family="sans-serif" font-size="14" lengthAdjust="spacing" textLength="247.9189" x="10" y="82.5117">loyalty.ingress.customer_lifecycle.v1</text></g><g class="participant participant-tail" data-entity-uid="part1" data-qualified-name="in" data-source-line="161" id="part1-tail"><path d="M10,380.5703 L267.9189,380.5703 C272.9189,380.5703 272.9189,393.8145 272.9189,393.8145 C272.9189,393.8145 272.9189,407.0586 267.9189,407.0586 L10,407.0586 C5,407.0586 5,393.8145 5,393.8145 C5,393.8145 5,380.5703 10,380.5703" fill="#E2E2F0" style="stroke:#181818;stroke-width:0.5;"/><path d="M267.9189,380.5703 C262.9189,380.5703 262.9189,393.8145 262.9189,393.8145 C262.9189,407.0586 267.9189,407.0586 267.9189,407.0586" fill="none" style="stroke:#181818;stroke-width:0.5;"/><text fill="#000000" font-family="sans-serif" font-size="14" lengthAdjust="spacing" textLength="247.9189" x="10" y="399.1055">loyalty.ingress.customer_lifecycle.v1</text></g><g class="participant participant-head" data-entity-uid="part2" data-qualified-name="c" data-source-line="162" id="part2-head"><rect fill="#E2E2F0" height="30.4883" rx="2.5" ry="2.5" style="stroke:#181818;stroke-width:0.5;" width="141.3604" x="282.9189" y="58.9766"/><text fill="#000000" font-family="sans-serif" font-size="14" lengthAdjust="spacing" textLength="127.3604" x="289.9189" y="79.5117">LifecycleConsumer</text></g><g class="participant participant-tail" data-entity-uid="part2" data-qualified-name="c" data-source-line="162" id="part2-tail"><rect fill="#E2E2F0" height="30.4883" rx="2.5" ry="2.5" style="stroke:#181818;stroke-width:0.5;" width="141.3604" x="282.9189" y="380.5703"/><text fill="#000000" font-family="sans-serif" font-size="14" lengthAdjust="spacing" textLength="127.3604" x="289.9189" y="401.1055">LifecycleConsumer</text></g><g class="participant participant-head" data-entity-uid="part3" data-qualified-name="v" data-source-line="163" id="part3-head"><rect fill="#E2E2F0" height="30.4883" rx="2.5" ry="2.5" style="stroke:#181818;stroke-width:0.5;" width="176.3398" x="467.2632" y="58.9766"/><text fill="#000000" font-family="sans-serif" font-size="14" lengthAdjust="spacing" textLength="162.3398" x="474.2632" y="79.5117">IngressSchemaValidator</text></g><g class="participant participant-tail" data-entity-uid="part3" data-qualified-name="v" data-source-line="163" id="part3-tail"><rect fill="#E2E2F0" height="30.4883" rx="2.5" ry="2.5" style="stroke:#181818;stroke-width:0.5;" width="176.3398" x="467.2632" y="380.5703"/><text fill="#000000" font-family="sans-serif" font-size="14" lengthAdjust="spacing" textLength="162.3398" x="474.2632" y="401.1055">IngressSchemaValidator</text></g><g class="participant participant-head" data-entity-uid="part4" data-qualified-name="t" data-source-line="164" id="part4-head"><rect fill="#E2E2F0" height="46.9766" rx="2.5" ry="2.5" style="stroke:#181818;stroke-width:0.5;" width="141.4424" x="653.603" y="42.4883"/><text fill="#000000" font-family="sans-serif" font-size="14" lengthAdjust="spacing" textLength="127.4424" x="660.603" y="63.0234">LifecycleTranslator</text><text fill="#000000" font-family="sans-serif" font-size="14" lengthAdjust="spacing" textLength="40.1338" x="704.2573" y="79.5117">(pure)</text></g><g class="participant participant-tail" data-entity-uid="part4" data-qualified-name="t" data-source-line="164" id="part4-tail"><rect fill="#E2E2F0" height="46.9766" rx="2.5" ry="2.5" style="stroke:#181818;stroke-width:0.5;" width="141.4424" x="653.603" y="380.5703"/><text fill="#000000" font-family="sans-serif" font-size="14" lengthAdjust="spacing" textLength="127.4424" x="660.603" y="401.1055">LifecycleTranslator</text><text fill="#000000" font-family="sans-serif" font-size="14" lengthAdjust="spacing" textLength="40.1338" x="704.2573" y="417.5938">(pure)</text></g><g class="participant participant-head" data-entity-uid="part5" data-qualified-name="k" data-source-line="165" id="part5-head"><rect fill="#E2E2F0" height="30.4883" rx="2.5" ry="2.5" style="stroke:#181818;stroke-width:0.5;" width="115.2813" x="805.0454" y="58.9766"/><text fill="#000000" font-family="sans-serif" font-size="14" lengthAdjust="spacing" textLength="101.2813" x="812.0454" y="79.5117">KafkaTemplate</text></g><g class="participant participant-tail" data-entity-uid="part5" data-qualified-name="k" data-source-line="165" id="part5-tail"><rect fill="#E2E2F0" height="30.4883" rx="2.5" ry="2.5" style="stroke:#181818;stroke-width:0.5;" width="115.2813" x="805.0454" y="380.5703"/><text fill="#000000" font-family="sans-serif" font-size="14" lengthAdjust="spacing" textLength="101.2813" x="812.0454" y="401.1055">KafkaTemplate</text></g><g class="participant participant-head" data-entity-uid="part6" data-qualified-name="out" data-source-line="166" id="part6-head"><path d="M935.3267,63.9766 L1129.8286,63.9766 C1134.8286,63.9766 1134.8286,77.2207 1134.8286,77.2207 C1134.8286,77.2207 1134.8286,90.4648 1129.8286,90.4648 L935.3267,90.4648 C930.3267,90.4648 930.3267,77.2207 930.3267,77.2207 C930.3267,77.2207 930.3267,63.9766 935.3267,63.9766" fill="#E2E2F0" style="stroke:#181818;stroke-width:0.5;"/><path d="M1129.8286,63.9766 C1124.8286,63.9766 1124.8286,77.2207 1124.8286,77.2207 C1124.8286,90.4648 1129.8286,90.4648 1129.8286,90.4648" fill="none" style="stroke:#181818;stroke-width:0.5;"/><text fill="#000000" font-family="sans-serif" font-size="14" lengthAdjust="spacing" textLength="184.502" x="935.3267" y="82.5117">loyalty.member.lifecycle.v1</text></g><g class="participant participant-tail" data-entity-uid="part6" data-qualified-name="out" data-source-line="166" id="part6-tail"><path d="M935.3267,380.5703 L1129.8286,380.5703 C1134.8286,380.5703 1134.8286,393.8145 1134.8286,393.8145 C1134.8286,393.8145 1134.8286,407.0586 1129.8286,407.0586 L935.3267,407.0586 C930.3267,407.0586 930.3267,393.8145 930.3267,393.8145 C930.3267,393.8145 930.3267,380.5703 935.3267,380.5703" fill="#E2E2F0" style="stroke:#181818;stroke-width:0.5;"/><path d="M1129.8286,380.5703 C1124.8286,380.5703 1124.8286,393.8145 1124.8286,393.8145 C1124.8286,407.0586 1129.8286,407.0586 1129.8286,407.0586" fill="none" style="stroke:#181818;stroke-width:0.5;"/><text fill="#000000" font-family="sans-serif" font-size="14" lengthAdjust="spacing" textLength="184.502" x="935.3267" y="399.1055">loyalty.member.lifecycle.v1</text></g><g><title>LifecycleConsumer</title><rect fill="#FFFFFF" height="191.1738" style="stroke:#181818;stroke-width:1;" width="10" x="348.5991" y="121.7754"/></g><g class="message" data-entity-1="part1" data-entity-2="part2" data-source-line="168" id="msg1"><polygon fill="#181818" points="336.5991,117.7754,346.5991,121.7754,336.5991,125.7754,340.5991,121.7754" style="stroke:#181818;stroke-width:1;stroke-linejoin:miter;stroke-miterlimit:10;"/><line style="stroke:#181818;stroke-width:1;" x1="138.9595" x2="342.5991" y1="121.7754" y2="121.7754"/><text fill="#000000" font-family="sans-serif" font-size="13" lengthAdjust="spacing" textLength="147.2529" x="145.9595" y="117.0332">ConsumerRecord(JSON)</text></g><g class="message" data-entity-1="part2" data-entity-2="part3" data-source-line="170" id="msg2"><polygon fill="#181818" points="543.4331,147.0859,553.4331,151.0859,543.4331,155.0859,547.4331,151.0859" style="stroke:#181818;stroke-width:1;stroke-linejoin:miter;stroke-miterlimit:10;"/><line style="stroke:#181818;stroke-width:1;" x1="358.5991" x2="549.4331" y1="151.0859" y2="151.0859"/><text fill="#000000" font-family="sans-serif" font-size="13" lengthAdjust="spacing" textLength="142.6445" x="365.5991" y="146.3438">validateLifecycle(node)</text></g><g class="message" data-entity-1="part3" data-entity-2="part2" data-source-line="171" id="msg3"><polygon fill="#181818" points="369.5991,176.3965,359.5991,180.3965,369.5991,184.3965,365.5991,180.3965" style="stroke:#181818;stroke-width:1;stroke-linejoin:miter;stroke-miterlimit:10;"/><line style="stroke:#181818;stroke-width:1;stroke-dasharray:2,2;" x1="363.5991" x2="554.4331" y1="180.3965" y2="180.3965"/><text fill="#000000" font-family="sans-serif" font-size="13" lengthAdjust="spacing" textLength="172.834" x="375.5991" y="175.6543">ok  (errors &#8594; lifecycle DLQ)</text></g><g class="message" data-entity-1="part2" data-entity-2="part4" data-source-line="172" id="msg4"><polygon fill="#181818" points="712.3242,205.707,722.3242,209.707,712.3242,213.707,716.3242,209.707" style="stroke:#181818;stroke-width:1;stroke-linejoin:miter;stroke-miterlimit:10;"/><line style="stroke:#181818;stroke-width:1;" x1="358.5991" x2="718.3242" y1="209.707" y2="209.707"/><text fill="#000000" font-family="sans-serif" font-size="13" lengthAdjust="spacing" textLength="109.3003" x="365.5991" y="204.9648">translate(ingress)</text></g><g class="message" data-entity-1="part4" data-entity-2="part2" data-source-line="173" id="msg5"><polygon fill="#181818" points="369.5991,250.3281,359.5991,254.3281,369.5991,258.3281,365.5991,254.3281" style="stroke:#181818;stroke-width:1;stroke-linejoin:miter;stroke-miterlimit:10;"/><line style="stroke:#181818;stroke-width:1;stroke-dasharray:2,2;" x1="363.5991" x2="723.3242" y1="254.3281" y2="254.3281"/><text fill="#000000" font-family="sans-serif" font-size="13" lengthAdjust="spacing" textLength="184.3105" x="375.5991" y="234.2754">MemberLifecycle(customerId,</text><text fill="#000000" font-family="sans-serif" font-size="13" lengthAdjust="spacing" textLength="168.5176" x="379.7124" y="249.5859">lifecycleType passthrough)</text></g><g class="message" data-entity-1="part2" data-entity-2="part5" data-source-line="174" id="msg6"><polygon fill="#181818" points="850.686,279.6387,860.686,283.6387,850.686,287.6387,854.686,283.6387" style="stroke:#181818;stroke-width:1;stroke-linejoin:miter;stroke-miterlimit:10;"/><line style="stroke:#181818;stroke-width:1;" x1="358.5991" x2="856.686" y1="283.6387" y2="283.6387"/><text fill="#000000" font-family="sans-serif" font-size="13" lengthAdjust="spacing" textLength="149.5952" x="365.5991" y="278.8965">send(key = customerId)</text></g><g class="message" data-entity-1="part5" data-entity-2="part6" data-source-line="175" id="msg7"><polygon fill="#181818" points="1020.5776,308.9492,1030.5776,312.9492,1020.5776,316.9492,1024.5776,312.9492" style="stroke:#181818;stroke-width:1;stroke-linejoin:miter;stroke-miterlimit:10;"/><line style="stroke:#181818;stroke-width:1;" x1="862.686" x2="1026.5776" y1="312.9492" y2="312.9492"/><text fill="#000000" font-family="sans-serif" font-size="13" lengthAdjust="spacing" textLength="51.6382" x="869.686" y="308.207">produce</text></g><path d="M1037,325.9492 L1037,365.9492 L1322,365.9492 L1322,335.9492 L1312,325.9492 L1037,325.9492" fill="#FEFFDD" style="stroke:#181818;stroke-width:0.5;"/><path d="M1312,325.9492 L1312,335.9492 L1322,335.9492 L1312,325.9492" fill="#FEFFDD" style="stroke:#181818;stroke-width:0.5;"/><text fill="#000000" font-family="sans-serif" font-size="13" lengthAdjust="spacing" textLength="195.1396" x="1043" y="343.5176">customer-scoped &#8212; a Member</text><text fill="#000000" font-family="sans-serif" font-size="13" lengthAdjust="spacing" textLength="264.4434" x="1043" y="358.8281">may not yet exist. loyalty-core consumes.</text><?plantuml-src TP9DRjmm38NtEWNXbGt41h8Da6pIJVxHPD3L00KhSSQ2RScLQBVUPTK313rXJb9EBSyamKGR0zRx7ib7iUMMu7A8x3iAPMitf2SjlwpR1eeHNl-yGEidR7cgEkf-KAZseceyLR6nhiU07SGQZVyb76omZQH-3ZGGp2TRB99jfLF5xs_DCi0eXPNuiTMsHyUGtIw2I-_Y84W6Hu-W-ZrvDTTwqZLr-0rRQv3z4Lp8yPEQgu0kjZjixV9-25Ha7qX-JzxWfi4LTRr0z4cdYMoE9tGav8yr_S1AMGVb1MWuWoMOHz8-cFpwwU6-KAZPZjA3XA9tmb64uvm1xSVBdJTKg17APEKRW9n2y25jVlyUljn-BMOd5XsdN2XF2oqKxqtk_azmABBi-igShDt1SZNr13t6o7NmmxPEzequH78cRsY2SpZ0XMfszpAyAFhWpQ196NepgFFo2NPRC_XD4Yvy6RNloS3hyr_0rEBQTJY1K30H0_ssaQlbiPUIfNZEqSRg7m00?></g></svg>