<svg xmlns="http://www.w3.org/2000/svg" xmlns:xlink="http://www.w3.org/1999/xlink" contentStyleType="text/css" data-diagram-type="SEQUENCE" height="480px" preserveAspectRatio="none" style="width:1439px;height:480px;background:#FFFFFF;" version="1.1" viewBox="0 0 1439 480" width="1439px" zoomAndPan="magnify"><?plantuml 1.2026.4?><defs/><g><g class="title" data-source-line="135"><text fill="#000000" font-family="sans-serif" font-size="14" font-weight="700" lengthAdjust="spacing" textLength="532.6221" x="449.9189" y="28.5352">Reversal ingress &#8594; loyalty.payment.reversed.v1 (clawback is core-driven)</text></g><g><title>ReversalConsumer</title><rect fill="#FFFFFF" height="191.1738" style="stroke:#181818;stroke-width:1;" width="10" x="276.0322" y="121.7754"/></g><g class="participant-lifeline" data-entity-uid="part1" data-qualified-name="in" data-source-line="137" id="part1-lifeline"><g><title>loyalty.ingress.reversal.v1</title><rect fill="#000000" fill-opacity="0.00000" height="335.7266" width="8" x="99.0811" y="90.4648"/><line style="stroke:#181818;stroke-width:0.5;stroke-dasharray:5,5;" x1="103" x2="103" y1="90.4648" y2="426.1914"/></g></g><g class="participant-lifeline" data-entity-uid="part2" data-qualified-name="c" data-source-line="138" id="part2-lifeline"><g><title>ReversalConsumer</title><rect fill="#000000" fill-opacity="0.00000" height="335.7266" width="8" x="277.0322" y="90.4648"/><line style="stroke:#181818;stroke-width:0.5;stroke-dasharray:5,5;" x1="280.1621" x2="280.1621" y1="90.4648" y2="426.1914"/></g></g><g class="participant-lifeline" data-entity-uid="part3" data-qualified-name="v" data-source-line="139" id="part3-lifeline"><g><title>IngressSchemaValidator</title><rect fill="#000000" fill-opacity="0.00000" height="335.7266" width="8" x="477.6348" y="90.4648"/><line style="stroke:#181818;stroke-width:0.5;stroke-dasharray:5,5;" x1="481.4648" x2="481.4648" y1="90.4648" y2="426.1914"/></g></g><g class="participant-lifeline" data-entity-uid="part4" data-qualified-name="t" data-source-line="140" id="part4-lifeline"><g><title>ReversalTranslator</title><rect fill="#000000" fill-opacity="0.00000" height="335.7266" width="8" x="645.7158" y="90.4648"/><line style="stroke:#181818;stroke-width:0.5;stroke-dasharray:5,5;" x1="648.8047" x2="648.8047" y1="90.4648" y2="426.1914"/></g></g><g class="participant-lifeline" data-entity-uid="part5" data-qualified-name="k" data-source-line="141" id="part5-lifeline"><g><title>KafkaTemplate</title><rect fill="#000000" fill-opacity="0.00000" height="335.7266" width="8" x="783.2676" y="90.4648"/><line style="stroke:#181818;stroke-width:0.5;stroke-dasharray:5,5;" x1="786.627" x2="786.627" y1="90.4648" y2="426.1914"/></g></g><g class="participant-lifeline" data-entity-uid="part6" data-qualified-name="out" data-source-line="142" id="part6-lifeline"><g><title>loyalty.payment.reversed.v1</title><rect fill="#000000" fill-opacity="0.00000" height="335.7266" width="8" x="956.0986" y="90.4648"/><line style="stroke:#181818;stroke-width:0.5;stroke-dasharray:5,5;" x1="959.9082" x2="959.9082" y1="90.4648" y2="426.1914"/></g></g><g class="participant-lifeline" data-entity-uid="part7" data-qualified-name="core" data-source-line="143" id="part7-lifeline"><g><title>loyalty-core</title><rect fill="#000000" fill-opacity="0.00000" height="335.7266" width="8" x="1137.5088" y="90.4648"/><line style="stroke:#181818;stroke-width:0.5;stroke-dasharray:5,5;" x1="1141.2891" x2="1141.2891" y1="90.4648" y2="426.1914"/></g></g><g class="participant participant-head" data-entity-uid="part1" data-qualified-name="in" data-source-line="137" id="part1-head"><path d="M10,63.9766 L196.1621,63.9766 C201.1621,63.9766 201.1621,77.2207 201.1621,77.2207 C201.1621,77.2207 201.1621,90.4648 196.1621,90.4648 L10,90.4648 C5,90.4648 5,77.2207 5,77.2207 C5,77.2207 5,63.9766 10,63.9766" fill="#E2E2F0" style="stroke:#181818;stroke-width:0.5;"/><path d="M196.1621,63.9766 C191.1621,63.9766 191.1621,77.2207 191.1621,77.2207 C191.1621,90.4648 196.1621,90.4648 196.1621,90.4648" fill="none" style="stroke:#181818;stroke-width:0.5;"/><text fill="#000000" font-family="sans-serif" font-size="14" lengthAdjust="spacing" textLength="176.1621" x="10" y="82.5117">loyalty.ingress.reversal.v1</text></g><g class="participant participant-tail" data-entity-uid="part1" data-qualified-name="in" data-source-line="137" id="part1-tail"><path d="M10,425.1914 L196.1621,425.1914 C201.1621,425.1914 201.1621,438.4355 201.1621,438.4355 C201.1621,438.4355 201.1621,451.6797 196.1621,451.6797 L10,451.6797 C5,451.6797 5,438.4355 5,438.4355 C5,438.4355 5,425.1914 10,425.1914" fill="#E2E2F0" style="stroke:#181818;stroke-width:0.5;"/><path d="M196.1621,425.1914 C191.1621,425.1914 191.1621,438.4355 191.1621,438.4355 C191.1621,451.6797 196.1621,451.6797 196.1621,451.6797" fill="none" style="stroke:#181818;stroke-width:0.5;"/><text fill="#000000" font-family="sans-serif" font-size="14" lengthAdjust="spacing" textLength="176.1621" x="10" y="443.7266">loyalty.ingress.reversal.v1</text></g><g class="participant participant-head" data-entity-uid="part2" data-qualified-name="c" data-source-line="138" id="part2-head"><rect fill="#E2E2F0" height="30.4883" rx="2.5" ry="2.5" style="stroke:#181818;stroke-width:0.5;" width="139.7402" x="211.1621" y="58.9766"/><text fill="#000000" font-family="sans-serif" font-size="14" lengthAdjust="spacing" textLength="125.7402" x="218.1621" y="79.5117">ReversalConsumer</text></g><g class="participant participant-tail" data-entity-uid="part2" data-qualified-name="c" data-source-line="138" id="part2-tail"><rect fill="#E2E2F0" height="30.4883" rx="2.5" ry="2.5" style="stroke:#181818;stroke-width:0.5;" width="139.7402" x="211.1621" y="425.1914"/><text fill="#000000" font-family="sans-serif" font-size="14" lengthAdjust="spacing" textLength="125.7402" x="218.1621" y="445.7266">ReversalConsumer</text></g><g class="participant participant-head" data-entity-uid="part3" data-qualified-name="v" data-source-line="139" id="part3-head"><rect fill="#E2E2F0" height="30.4883" rx="2.5" ry="2.5" style="stroke:#181818;stroke-width:0.5;" width="176.3398" x="393.4648" y="58.9766"/><text fill="#000000" font-family="sans-serif" font-size="14" lengthAdjust="spacing" textLength="162.3398" x="400.4648" y="79.5117">IngressSchemaValidator</text></g><g class="participant participant-tail" data-entity-uid="part3" data-qualified-name="v" data-source-line="139" id="part3-tail"><rect fill="#E2E2F0" height="30.4883" rx="2.5" ry="2.5" style="stroke:#181818;stroke-width:0.5;" width="176.3398" x="393.4648" y="425.1914"/><text fill="#000000" font-family="sans-serif" font-size="14" lengthAdjust="spacing" textLength="162.3398" x="400.4648" y="445.7266">IngressSchemaValidator</text></g><g class="participant participant-head" data-entity-uid="part4" data-qualified-name="t" data-source-line="140" id="part4-head"><rect fill="#E2E2F0" height="46.9766" rx="2.5" ry="2.5" style="stroke:#181818;stroke-width:0.5;" width="139.8223" x="579.8047" y="42.4883"/><text fill="#000000" font-family="sans-serif" font-size="14" lengthAdjust="spacing" textLength="125.8223" x="586.8047" y="63.0234">ReversalTranslator</text><text fill="#000000" font-family="sans-serif" font-size="14" lengthAdjust="spacing" textLength="40.1338" x="629.6489" y="79.5117">(pure)</text></g><g class="participant participant-tail" data-entity-uid="part4" data-qualified-name="t" data-source-line="140" id="part4-tail"><rect fill="#E2E2F0" height="46.9766" rx="2.5" ry="2.5" style="stroke:#181818;stroke-width:0.5;" width="139.8223" x="579.8047" y="425.1914"/><text fill="#000000" font-family="sans-serif" font-size="14" lengthAdjust="spacing" textLength="125.8223" x="586.8047" y="445.7266">ReversalTranslator</text><text fill="#000000" font-family="sans-serif" font-size="14" lengthAdjust="spacing" textLength="40.1338" x="629.6489" y="462.2148">(pure)</text></g><g class="participant participant-head" data-entity-uid="part5" data-qualified-name="k" data-source-line="141" id="part5-head"><rect fill="#E2E2F0" height="30.4883" rx="2.5" ry="2.5" style="stroke:#181818;stroke-width:0.5;" width="115.2813" x="729.627" y="58.9766"/><text fill="#000000" font-family="sans-serif" font-size="14" lengthAdjust="spacing" textLength="101.2813" x="736.627" y="79.5117">KafkaTemplate</text></g><g class="participant participant-tail" data-entity-uid="part5" data-qualified-name="k" data-source-line="141" id="part5-tail"><rect fill="#E2E2F0" height="30.4883" rx="2.5" ry="2.5" style="stroke:#181818;stroke-width:0.5;" width="115.2813" x="729.627" y="425.1914"/><text fill="#000000" font-family="sans-serif" font-size="14" lengthAdjust="spacing" textLength="101.2813" x="736.627" y="445.7266">KafkaTemplate</text></g><g class="participant participant-head" data-entity-uid="part6" data-qualified-name="out" data-source-line="142" id="part6-head"><path d="M859.9082,63.9766 L1060.2891,63.9766 C1065.2891,63.9766 1065.2891,77.2207 1065.2891,77.2207 C1065.2891,77.2207 1065.2891,90.4648 1060.2891,90.4648 L859.9082,90.4648 C854.9082,90.4648 854.9082,77.2207 854.9082,77.2207 C854.9082,77.2207 854.9082,63.9766 859.9082,63.9766" fill="#E2E2F0" style="stroke:#181818;stroke-width:0.5;"/><path d="M1060.2891,63.9766 C1055.2891,63.9766 1055.2891,77.2207 1055.2891,77.2207 C1055.2891,90.4648 1060.2891,90.4648 1060.2891,90.4648" fill="none" style="stroke:#181818;stroke-width:0.5;"/><text fill="#000000" font-family="sans-serif" font-size="14" lengthAdjust="spacing" textLength="190.3809" x="859.9082" y="82.5117">loyalty.payment.reversed.v1</text></g><g class="participant participant-tail" data-entity-uid="part6" data-qualified-name="out" data-source-line="142" id="part6-tail"><path d="M859.9082,425.1914 L1060.2891,425.1914 C1065.2891,425.1914 1065.2891,438.4355 1065.2891,438.4355 C1065.2891,438.4355 1065.2891,451.6797 1060.2891,451.6797 L859.9082,451.6797 C854.9082,451.6797 854.9082,438.4355 854.9082,438.4355 C854.9082,438.4355 854.9082,425.1914 859.9082,425.1914" fill="#E2E2F0" style="stroke:#181818;stroke-width:0.5;"/><path d="M1060.2891,425.1914 C1055.2891,425.1914 1055.2891,438.4355 1055.2891,438.4355 C1055.2891,451.6797 1060.2891,451.6797 1060.2891,451.6797" fill="none" style="stroke:#181818;stroke-width:0.5;"/><text fill="#000000" font-family="sans-serif" font-size="14" lengthAdjust="spacing" textLength="190.3809" x="859.9082" y="443.7266">loyalty.payment.reversed.v1</text></g><g class="participant participant-head" data-entity-uid="part7" data-qualified-name="core" data-source-line="143" id="part7-head"><rect fill="#E2E2F0" height="46.9766" rx="2.5" ry="2.5" style="stroke:#181818;stroke-width:0.5;" width="132.4395" x="1075.2891" y="42.4883"/><text fill="#000000" font-family="sans-serif" font-size="14" lengthAdjust="spacing" textLength="81.6895" x="1100.6641" y="63.0234">loyalty-core</text><text fill="#000000" font-family="sans-serif" font-size="14" lengthAdjust="spacing" textLength="118.4395" x="1082.2891" y="79.5117">(separate service)</text></g><g class="participant participant-tail" data-entity-uid="part7" data-qualified-name="core" data-source-line="143" id="part7-tail"><rect fill="#E2E2F0" height="46.9766" rx="2.5" ry="2.5" style="stroke:#181818;stroke-width:0.5;" width="132.4395" x="1075.2891" y="425.1914"/><text fill="#000000" font-family="sans-serif" font-size="14" lengthAdjust="spacing" textLength="81.6895" x="1100.6641" y="445.7266">loyalty-core</text><text fill="#000000" font-family="sans-serif" font-size="14" lengthAdjust="spacing" textLength="118.4395" x="1082.2891" y="462.2148">(separate service)</text></g><g><title>ReversalConsumer</title><rect fill="#FFFFFF" height="191.1738" style="stroke:#181818;stroke-width:1;" width="10" x="276.0322" y="121.7754"/></g><g class="message" data-entity-1="part1" data-entity-2="part2" data-source-line="145" id="msg1"><polygon fill="#181818" points="264.0322,117.7754,274.0322,121.7754,264.0322,125.7754,268.0322,121.7754" style="stroke:#181818;stroke-width:1;stroke-linejoin:miter;stroke-miterlimit:10;"/><line style="stroke:#181818;stroke-width:1;" x1="103.0811" x2="270.0322" y1="121.7754" y2="121.7754"/><text fill="#000000" font-family="sans-serif" font-size="13" lengthAdjust="spacing" textLength="147.2529" x="110.0811" y="117.0332">ConsumerRecord(JSON)</text></g><g class="message" data-entity-1="part2" data-entity-2="part3" data-source-line="147" id="msg2"><polygon fill="#181818" points="469.6348,147.0859,479.6348,151.0859,469.6348,155.0859,473.6348,151.0859" style="stroke:#181818;stroke-width:1;stroke-linejoin:miter;stroke-miterlimit:10;"/><line style="stroke:#181818;stroke-width:1;" x1="286.0322" x2="475.6348" y1="151.0859" y2="151.0859"/><text fill="#000000" font-family="sans-serif" font-size="13" lengthAdjust="spacing" textLength="141.1401" x="293.0322" y="146.3438">validateReversal(node)</text></g><g class="message" data-entity-1="part3" data-entity-2="part2" data-source-line="148" id="msg3"><polygon fill="#181818" points="297.0322,176.3965,287.0322,180.3965,297.0322,184.3965,293.0322,180.3965" style="stroke:#181818;stroke-width:1;stroke-linejoin:miter;stroke-miterlimit:10;"/><line style="stroke:#181818;stroke-width:1;stroke-dasharray:2,2;" x1="291.0322" x2="480.6348" y1="180.3965" y2="180.3965"/><text fill="#000000" font-family="sans-serif" font-size="13" lengthAdjust="spacing" textLength="171.6025" x="303.0322" y="175.6543">ok  (errors &#8594; reversal DLQ)</text></g><g class="message" data-entity-1="part2" data-entity-2="part4" data-source-line="149" id="msg4"><polygon fill="#181818" points="637.7158,205.707,647.7158,209.707,637.7158,213.707,641.7158,209.707" style="stroke:#181818;stroke-width:1;stroke-linejoin:miter;stroke-miterlimit:10;"/><line style="stroke:#181818;stroke-width:1;" x1="286.0322" x2="643.7158" y1="209.707" y2="209.707"/><text fill="#000000" font-family="sans-serif" font-size="13" lengthAdjust="spacing" textLength="109.3003" x="293.0322" y="204.9648">translate(ingress)</text></g><g class="message" data-entity-1="part4" data-entity-2="part2" data-source-line="150" id="msg5"><polygon fill="#181818" points="297.0322,250.3281,287.0322,254.3281,297.0322,258.3281,293.0322,254.3281" style="stroke:#181818;stroke-width:1;stroke-linejoin:miter;stroke-miterlimit:10;"/><line style="stroke:#181818;stroke-width:1;stroke-dasharray:2,2;" x1="291.0322" x2="648.7158" y1="254.3281" y2="254.3281"/><text fill="#000000" font-family="sans-serif" font-size="13" lengthAdjust="spacing" textLength="188.4111" x="303.0322" y="234.2754">ReversalEvent(originalEventId,</text><text fill="#000000" font-family="sans-serif" font-size="13" lengthAdjust="spacing" textLength="218.3975" x="307.1455" y="249.5859">reversalEventId, amount, currency)</text></g><g class="message" data-entity-1="part2" data-entity-2="part5" data-source-line="151" id="msg6"><polygon fill="#181818" points="775.2676,279.6387,785.2676,283.6387,775.2676,287.6387,779.2676,283.6387" style="stroke:#181818;stroke-width:1;stroke-linejoin:miter;stroke-miterlimit:10;"/><line style="stroke:#181818;stroke-width:1;" x1="286.0322" x2="781.2676" y1="283.6387" y2="283.6387"/><text fill="#000000" font-family="sans-serif" font-size="13" lengthAdjust="spacing" textLength="149.5952" x="293.0322" y="278.8965">send(key = customerId)</text></g><g class="message" data-entity-1="part5" data-entity-2="part6" data-source-line="152" id="msg7"><polygon fill="#181818" points="948.0986,308.9492,958.0986,312.9492,948.0986,316.9492,952.0986,312.9492" style="stroke:#181818;stroke-width:1;stroke-linejoin:miter;stroke-miterlimit:10;"/><line style="stroke:#181818;stroke-width:1;" x1="787.2676" x2="954.0986" y1="312.9492" y2="312.9492"/><text fill="#000000" font-family="sans-serif" font-size="13" lengthAdjust="spacing" textLength="51.6382" x="794.2676" y="308.207">produce</text></g><g class="message" data-entity-1="part6" data-entity-2="part7" data-source-line="154" id="msg8"><polygon fill="#181818" points="1129.5088,338.2598,1139.5088,342.2598,1129.5088,346.2598,1133.5088,342.2598" style="stroke:#181818;stroke-width:1;stroke-linejoin:miter;stroke-miterlimit:10;"/><line style="stroke:#181818;stroke-width:1;" x1="960.0986" x2="1135.5088" y1="342.2598" y2="342.2598"/><text fill="#000000" font-family="sans-serif" font-size="13" lengthAdjust="spacing" textLength="56.7861" x="967.0986" y="337.5176">consume</text></g><path d="M1146,355.2598 L1146,410.2598 L1428,410.2598 L1428,365.2598 L1418,355.2598 L1146,355.2598" fill="#FEFFDD" style="stroke:#181818;stroke-width:0.5;"/><path d="M1418,355.2598 L1418,365.2598 L1428,365.2598 L1418,355.2598" fill="#FEFFDD" style="stroke:#181818;stroke-width:0.5;"/><text fill="#000000" font-family="sans-serif" font-size="13" lengthAdjust="spacing" textLength="209.5044" x="1152" y="372.8281">reverses every point_ledger entry</text><text fill="#000000" font-family="sans-serif" font-size="13" lengthAdjust="spacing" textLength="234.5586" x="1152" y="388.1387">where source_ref == originalEventId.</text><text fill="#000000" font-family="sans-serif" font-size="13" lengthAdjust="spacing" textLength="261.46" x="1152" y="403.4492">The Bridge writes NO ledger (ADR-0015).</text><?plantuml-src RL91Rjim4Bpp5GkT920MaaCl1LoWQNfmMoIeO_Ha8DYIQukGHAfBIeO-q0VqYNr9LnKLn8Pv4SITcPsTPRIn8TZIG1om0UkEJ270tzz_eF4ZDd4iEnnRSh7a_o0ovN07kMxmz1Dr3JQ0zamhmtOWLwXGMzSXOmkXGkDFeWW7R0AfNptr1FF95l7KC8bZ8-APr3685IKwqMhReOkGBHu_UHVwbZY3yoCKVSxOpDhFkg8MVs1Z3KR_XYUCuNgF7QCBpOJUkxphcOfiOSHpnbSyrBYZjXCqNLgQ6VNroQ_4cYM6xo-w9CvgIbeS1PeIZWI1UB1wSeVp6fIo3bOVGCDxM8BQabHC_kNvwR5GgACT9gfMUW8E0XpcQ6YPFdVUKA46M2KbNmFanEnvVXdBik3Xs_TYrea2YoarojDM2nLVDHRnp_9AOkxP7grBVnjpitUleiiLOEjx5sz0zypaz9WwrI8Mo9cyfX7MKWtHovGRKwXwgajuWkZOcrwJClHcugaqsP6W1ABdV9JpKXG_LGH_M8ffAm6cxmYTjow-D6IEn23-UDoxKqK23RvdJIzC1rYluMAkSkzs5S4zMo72YMqKnSSdI4BvnuVjwlRsxbrH_WC0?></g></svg>