<svg xmlns="http://www.w3.org/2000/svg" xmlns:xlink="http://www.w3.org/1999/xlink" contentStyleType="text/css" data-diagram-type="SEQUENCE" height="660px" preserveAspectRatio="none" style="width:1129px;height:660px;background:#FFFFFF;" version="1.1" viewBox="0 0 1129 660" width="1129px" zoomAndPan="magnify"><?plantuml 1.2026.4?><defs/><g><g class="title" data-source-line="181"><text fill="#000000" font-family="sans-serif" font-size="14" font-weight="700" lengthAdjust="spacing" textLength="526.5381" x="297.8228" y="28.5352">Velocity Anomaly &#8212; tails own earn stream, raises fraud alert (hysteresis)</text></g><g><title>VelocityAnomalyConsumer</title><rect fill="#FFFFFF" height="408.6367" style="stroke:#181818;stroke-width:1;" width="10" x="299.7119" y="121.7754"/></g><rect fill="none" height="386.6367" style="stroke:#000000;stroke-width:1.5;" width="936.4102" x="176.7734" y="136.7754"/><rect fill="none" height="237.084" style="stroke:#000000;stroke-width:1.5;" width="916.4102" x="186.7734" y="279.3281"/><rect fill="none" height="148.5078" style="stroke:#000000;stroke-width:1.5;" width="896.4102" x="196.7734" y="303.6387"/><g class="participant-lifeline" data-entity-uid="part1" data-qualified-name="in" data-source-line="183" id="part1-lifeline"><g><title>loyalty.earn.translated.v1</title><rect fill="#000000" fill-opacity="0.00000" height="515.8789" width="8" x="96.8867" y="90.4648"/><line style="stroke:#181818;stroke-width:0.5;stroke-dasharray:5,5;" x1="100" x2="100" y1="90.4648" y2="606.3438"/></g></g><g class="participant-lifeline" data-entity-uid="part2" data-qualified-name="c" data-source-line="184" id="part2-lifeline"><g><title>VelocityAnomalyConsumer</title><rect fill="#000000" fill-opacity="0.00000" height="515.8789" width="8" x="300.7119" y="90.4648"/><line style="stroke:#181818;stroke-width:0.5;stroke-dasharray:5,5;" x1="303.7734" x2="303.7734" y1="90.4648" y2="606.3438"/></g></g><g class="participant-lifeline" data-entity-uid="part3" data-qualified-name="s" data-source-line="185" id="part3-lifeline"><g><title>SlidingWindowCounterStore</title><rect fill="#000000" fill-opacity="0.00000" height="515.8789" width="8" x="626.4375" y="90.4648"/><line style="stroke:#181818;stroke-width:0.5;stroke-dasharray:5,5;" x1="629.7231" x2="629.7231" y1="90.4648" y2="606.3438"/></g></g><g class="participant-lifeline" data-entity-uid="part4" data-qualified-name="k" data-source-line="186" id="part4-lifeline"><g><title>KafkaTemplate</title><rect fill="#000000" fill-opacity="0.00000" height="515.8789" width="8" x="799.7925" y="90.4648"/><line style="stroke:#181818;stroke-width:0.5;stroke-dasharray:5,5;" x1="803.1519" x2="803.1519" y1="90.4648" y2="606.3438"/></g></g><g class="participant-lifeline" data-entity-uid="part5" data-qualified-name="out" data-source-line="187" id="part5-lifeline"><g><title>loyalty.fraud.alert.v1</title><rect fill="#000000" fill-opacity="0.00000" height="515.8789" width="8" x="999.0195" y="90.4648"/><line style="stroke:#181818;stroke-width:0.5;stroke-dasharray:5,5;" x1="1002.8555" x2="1002.8555" y1="90.4648" y2="606.3438"/></g></g><g class="participant participant-head" data-entity-uid="part1" data-qualified-name="in" data-source-line="183" id="part1-head"><path d="M10,63.9766 L191.7734,63.9766 C196.7734,63.9766 196.7734,77.2207 196.7734,77.2207 C196.7734,77.2207 196.7734,90.4648 191.7734,90.4648 L10,90.4648 C5,90.4648 5,77.2207 5,77.2207 C5,77.2207 5,63.9766 10,63.9766" fill="#E2E2F0" style="stroke:#181818;stroke-width:0.5;"/><path d="M191.7734,63.9766 C186.7734,63.9766 186.7734,77.2207 186.7734,77.2207 C186.7734,90.4648 191.7734,90.4648 191.7734,90.4648" fill="none" style="stroke:#181818;stroke-width:0.5;"/><text fill="#000000" font-family="sans-serif" font-size="14" lengthAdjust="spacing" textLength="171.7734" x="10" y="82.5117">loyalty.earn.translated.v1</text></g><g class="participant participant-tail" data-entity-uid="part1" data-qualified-name="in" data-source-line="183" id="part1-tail"><path d="M10,605.3438 L191.7734,605.3438 C196.7734,605.3438 196.7734,618.5879 196.7734,618.5879 C196.7734,618.5879 196.7734,631.832 191.7734,631.832 L10,631.832 C5,631.832 5,618.5879 5,618.5879 C5,618.5879 5,605.3438 10,605.3438" fill="#E2E2F0" style="stroke:#181818;stroke-width:0.5;"/><path d="M191.7734,605.3438 C186.7734,605.3438 186.7734,618.5879 186.7734,618.5879 C186.7734,631.832 191.7734,631.832 191.7734,631.832" fill="none" style="stroke:#181818;stroke-width:0.5;"/><text fill="#000000" font-family="sans-serif" font-size="14" lengthAdjust="spacing" textLength="171.7734" x="10" y="623.8789">loyalty.earn.translated.v1</text></g><g class="participant participant-head" data-entity-uid="part2" data-qualified-name="c" data-source-line="184" id="part2-head"><rect fill="#E2E2F0" height="46.9766" rx="2.5" ry="2.5" style="stroke:#181818;stroke-width:0.5;" width="195.877" x="206.7734" y="42.4883"/><text fill="#000000" font-family="sans-serif" font-size="14" lengthAdjust="spacing" textLength="181.877" x="213.7734" y="63.0234">VelocityAnomalyConsumer</text><text fill="#000000" font-family="sans-serif" font-size="14" lengthAdjust="spacing" textLength="165.6963" x="221.8638" y="79.5117">(group: &lt;app&gt;-velocity)</text></g><g class="participant participant-tail" data-entity-uid="part2" data-qualified-name="c" data-source-line="184" id="part2-tail"><rect fill="#E2E2F0" height="46.9766" rx="2.5" ry="2.5" style="stroke:#181818;stroke-width:0.5;" width="195.877" x="206.7734" y="605.3438"/><text fill="#000000" font-family="sans-serif" font-size="14" lengthAdjust="spacing" textLength="181.877" x="213.7734" y="625.8789">VelocityAnomalyConsumer</text><text fill="#000000" font-family="sans-serif" font-size="14" lengthAdjust="spacing" textLength="165.6963" x="221.8638" y="642.3672">(group: &lt;app&gt;-velocity)</text></g><g class="participant participant-head" data-entity-uid="part3" data-qualified-name="s" data-source-line="185" id="part3-head"><rect fill="#E2E2F0" height="46.9766" rx="2.5" ry="2.5" style="stroke:#181818;stroke-width:0.5;" width="211.4287" x="524.7231" y="42.4883"/><text fill="#000000" font-family="sans-serif" font-size="14" lengthAdjust="spacing" textLength="188.1523" x="536.3613" y="63.0234">SlidingWindowCounterStore</text><text fill="#000000" font-family="sans-serif" font-size="14" lengthAdjust="spacing" textLength="197.4287" x="531.7231" y="79.5117">(in-memory, per customerId)</text></g><g class="participant participant-tail" data-entity-uid="part3" data-qualified-name="s" data-source-line="185" id="part3-tail"><rect fill="#E2E2F0" height="46.9766" rx="2.5" ry="2.5" style="stroke:#181818;stroke-width:0.5;" width="211.4287" x="524.7231" y="605.3438"/><text fill="#000000" font-family="sans-serif" font-size="14" lengthAdjust="spacing" textLength="188.1523" x="536.3613" y="625.8789">SlidingWindowCounterStore</text><text fill="#000000" font-family="sans-serif" font-size="14" lengthAdjust="spacing" textLength="197.4287" x="531.7231" y="642.3672">(in-memory, per customerId)</text></g><g class="participant participant-head" data-entity-uid="part4" data-qualified-name="k" data-source-line="186" id="part4-head"><rect fill="#E2E2F0" height="30.4883" rx="2.5" ry="2.5" style="stroke:#181818;stroke-width:0.5;" width="115.2813" x="746.1519" y="58.9766"/><text fill="#000000" font-family="sans-serif" font-size="14" lengthAdjust="spacing" textLength="101.2813" x="753.1519" y="79.5117">KafkaTemplate</text></g><g class="participant participant-tail" data-entity-uid="part4" data-qualified-name="k" data-source-line="186" id="part4-tail"><rect fill="#E2E2F0" height="30.4883" rx="2.5" ry="2.5" style="stroke:#181818;stroke-width:0.5;" width="115.2813" x="746.1519" y="605.3438"/><text fill="#000000" font-family="sans-serif" font-size="14" lengthAdjust="spacing" textLength="101.2813" x="753.1519" y="625.8789">KafkaTemplate</text></g><g class="participant participant-head" data-entity-uid="part5" data-qualified-name="out" data-source-line="187" id="part5-head"><path d="M927.8555,63.9766 L1078.1836,63.9766 C1083.1836,63.9766 1083.1836,77.2207 1083.1836,77.2207 C1083.1836,77.2207 1083.1836,90.4648 1078.1836,90.4648 L927.8555,90.4648 C922.8555,90.4648 922.8555,77.2207 922.8555,77.2207 C922.8555,77.2207 922.8555,63.9766 927.8555,63.9766" fill="#E2E2F0" style="stroke:#181818;stroke-width:0.5;"/><path d="M1078.1836,63.9766 C1073.1836,63.9766 1073.1836,77.2207 1073.1836,77.2207 C1073.1836,90.4648 1078.1836,90.4648 1078.1836,90.4648" fill="none" style="stroke:#181818;stroke-width:0.5;"/><text fill="#000000" font-family="sans-serif" font-size="14" lengthAdjust="spacing" textLength="140.3281" x="927.8555" y="82.5117">loyalty.fraud.alert.v1</text></g><g class="participant participant-tail" data-entity-uid="part5" data-qualified-name="out" data-source-line="187" id="part5-tail"><path d="M927.8555,605.3438 L1078.1836,605.3438 C1083.1836,605.3438 1083.1836,618.5879 1083.1836,618.5879 C1083.1836,618.5879 1083.1836,631.832 1078.1836,631.832 L927.8555,631.832 C922.8555,631.832 922.8555,618.5879 922.8555,618.5879 C922.8555,618.5879 922.8555,605.3438 927.8555,605.3438" fill="#E2E2F0" style="stroke:#181818;stroke-width:0.5;"/><path d="M1078.1836,605.3438 C1073.1836,605.3438 1073.1836,618.5879 1073.1836,618.5879 C1073.1836,631.832 1078.1836,631.832 1078.1836,631.832" fill="none" style="stroke:#181818;stroke-width:0.5;"/><text fill="#000000" font-family="sans-serif" font-size="14" lengthAdjust="spacing" textLength="140.3281" x="927.8555" y="623.8789">loyalty.fraud.alert.v1</text></g><g><title>VelocityAnomalyConsumer</title><rect fill="#FFFFFF" height="408.6367" style="stroke:#181818;stroke-width:1;" width="10" x="299.7119" y="121.7754"/></g><g class="message" data-entity-1="part1" data-entity-2="part2" data-source-line="189" id="msg1"><polygon fill="#181818" points="287.7119,117.7754,297.7119,121.7754,287.7119,125.7754,291.7119,121.7754" style="stroke:#181818;stroke-width:1;stroke-linejoin:miter;stroke-miterlimit:10;"/><line style="stroke:#181818;stroke-width:1;" x1="100.8867" x2="293.7119" y1="121.7754" y2="121.7754"/><text fill="#000000" font-family="sans-serif" font-size="13" lengthAdjust="spacing" textLength="61.5596" x="107.8867" y="117.0332">EarnEvent</text></g><path d="M176.7734,136.7754 L238.9121,136.7754 L238.9121,144.0859 L228.9121,154.0859 L176.7734,154.0859 L176.7734,136.7754" fill="#EEEEEE" style="stroke:#000000;stroke-width:1.5;"/><rect fill="none" height="386.6367" style="stroke:#000000;stroke-width:1.5;" width="936.4102" x="176.7734" y="136.7754"/><text fill="#000000" font-family="sans-serif" font-size="13" font-weight="700" lengthAdjust="spacing" textLength="17.1387" x="191.7734" y="150.3438">alt</text><text fill="#000000" font-family="sans-serif" font-size="11" font-weight="700" lengthAdjust="spacing" textLength="237.8857" x="253.9121" y="149.4102">[velocity disabled OR customerId == null]</text><g class="message" data-entity-1="part2" data-entity-2="part2" data-source-line="192" id="msg2"><line style="stroke:#181818;stroke-width:1;" x1="309.7119" x2="351.7119" y1="175.3965" y2="175.3965"/><line style="stroke:#181818;stroke-width:1;" x1="351.7119" x2="351.7119" y1="175.3965" y2="188.3965"/><line style="stroke:#181818;stroke-width:1;" x1="310.7119" x2="351.7119" y1="188.3965" y2="188.3965"/><polygon fill="#181818" points="320.7119,184.3965,310.7119,188.3965,320.7119,192.3965,316.7119,188.3965" style="stroke:#181818;stroke-width:1;stroke-linejoin:miter;stroke-miterlimit:10;"/><text fill="#000000" font-family="sans-serif" font-size="13" lengthAdjust="spacing" textLength="77.6128" x="316.7119" y="170.6543">return (skip)</text></g><line style="stroke:#000000;stroke-width:1;stroke-dasharray:2,2;" x1="176.7734" x2="1113.1836" y1="197.3965" y2="197.3965"/><g class="message" data-entity-1="part2" data-entity-2="part3" data-source-line="194" id="msg3"><polygon fill="#181818" points="618.4375,231.0176,628.4375,235.0176,618.4375,239.0176,622.4375,235.0176" style="stroke:#181818;stroke-width:1;stroke-linejoin:miter;stroke-miterlimit:10;"/><line style="stroke:#181818;stroke-width:1;" x1="309.7119" x2="624.4375" y1="235.0176" y2="235.0176"/><text fill="#000000" font-family="sans-serif" font-size="13" lengthAdjust="spacing" textLength="239.2749" x="316.7119" y="214.9648">recordAndCount(customerId, eventAt,</text><text fill="#000000" font-family="sans-serif" font-size="13" lengthAdjust="spacing" textLength="183.4727" x="320.8252" y="230.2754">window = windowDays, now)</text></g><g class="message" data-entity-1="part3" data-entity-2="part2" data-source-line="195" id="msg4"><polygon fill="#181818" points="320.7119,260.3281,310.7119,264.3281,320.7119,268.3281,316.7119,264.3281" style="stroke:#181818;stroke-width:1;stroke-linejoin:miter;stroke-miterlimit:10;"/><line style="stroke:#181818;stroke-width:1;stroke-dasharray:2,2;" x1="314.7119" x2="629.4375" y1="264.3281" y2="264.3281"/><text fill="#000000" font-family="sans-serif" font-size="13" lengthAdjust="spacing" textLength="130.4253" x="326.7119" y="259.5859">count within window</text></g><path d="M186.7734,279.3281 L248.9121,279.3281 L248.9121,286.6387 L238.9121,296.6387 L186.7734,296.6387 L186.7734,279.3281" fill="#EEEEEE" style="stroke:#000000;stroke-width:1.5;"/><rect fill="none" height="237.084" style="stroke:#000000;stroke-width:1.5;" width="916.4102" x="186.7734" y="279.3281"/><text fill="#000000" font-family="sans-serif" font-size="13" font-weight="700" lengthAdjust="spacing" textLength="17.1387" x="201.7734" y="292.8965">alt</text><text fill="#000000" font-family="sans-serif" font-size="11" font-weight="700" lengthAdjust="spacing" textLength="173.8301" x="263.9121" y="291.9629">[count &gt; maxEarnsPerWindow]</text><path d="M196.7734,303.6387 L258.9121,303.6387 L258.9121,310.9492 L248.9121,320.9492 L196.7734,320.9492 L196.7734,303.6387" fill="#EEEEEE" style="stroke:#000000;stroke-width:1.5;"/><rect fill="none" height="148.5078" style="stroke:#000000;stroke-width:1.5;" width="896.4102" x="196.7734" y="303.6387"/><text fill="#000000" font-family="sans-serif" font-size="13" font-weight="700" lengthAdjust="spacing" textLength="17.1387" x="211.7734" y="317.207">alt</text><text fill="#000000" font-family="sans-serif" font-size="11" font-weight="700" lengthAdjust="spacing" textLength="207.0718" x="273.9121" y="316.2734">[first crossing (alerted.add == true)]</text><g class="message" data-entity-1="part2" data-entity-2="part4" data-source-line="198" id="msg5"><polygon fill="#181818" points="791.7925,353.5703,801.7925,357.5703,791.7925,361.5703,795.7925,357.5703" style="stroke:#181818;stroke-width:1;stroke-linejoin:miter;stroke-miterlimit:10;"/><line style="stroke:#181818;stroke-width:1;" x1="309.7119" x2="797.7925" y1="357.5703" y2="357.5703"/><text fill="#000000" font-family="sans-serif" font-size="13" lengthAdjust="spacing" textLength="250.3833" x="316.7119" y="337.5176">send FraudAlert(EARN_VELOCITY_SPIKE,</text><text fill="#000000" font-family="sans-serif" font-size="13" lengthAdjust="spacing" textLength="211.7832" x="320.8252" y="352.8281">observedRate = count, threshold)</text></g><g class="message" data-entity-1="part4" data-entity-2="part5" data-source-line="199" id="msg6"><polygon fill="#181818" points="991.0195,382.8809,1001.0195,386.8809,991.0195,390.8809,995.0195,386.8809" style="stroke:#181818;stroke-width:1;stroke-linejoin:miter;stroke-miterlimit:10;"/><line style="stroke:#181818;stroke-width:1;" x1="803.7925" x2="997.0195" y1="386.8809" y2="386.8809"/><text fill="#000000" font-family="sans-serif" font-size="13" lengthAdjust="spacing" textLength="175.2271" x="810.7925" y="382.1387">produce (key = customerId)</text></g><line style="stroke:#000000;stroke-width:1;stroke-dasharray:2,2;" x1="196.7734" x2="1093.1836" y1="395.8809" y2="395.8809"/><text fill="#000000" font-family="sans-serif" font-size="11" font-weight="700" lengthAdjust="spacing" textLength="93.1187" x="201.7734" y="406.5156">[already alerted]</text><g class="message" data-entity-1="part2" data-entity-2="part2" data-source-line="201" id="msg7"><line style="stroke:#181818;stroke-width:1;" x1="309.7119" x2="351.7119" y1="431.1465" y2="431.1465"/><line style="stroke:#181818;stroke-width:1;" x1="351.7119" x2="351.7119" y1="431.1465" y2="444.1465"/><line style="stroke:#181818;stroke-width:1;" x1="310.7119" x2="351.7119" y1="444.1465" y2="444.1465"/><polygon fill="#181818" points="320.7119,440.1465,310.7119,444.1465,320.7119,448.1465,316.7119,444.1465" style="stroke:#181818;stroke-width:1;stroke-linejoin:miter;stroke-miterlimit:10;"/><text fill="#000000" font-family="sans-serif" font-size="13" lengthAdjust="spacing" textLength="291.7256" x="316.7119" y="426.4043">suppress (hysteresis &#8212; one alert per crossing)</text></g><line style="stroke:#000000;stroke-width:1;stroke-dasharray:2,2;" x1="186.7734" x2="1103.1836" y1="460.1465" y2="460.1465"/><text fill="#000000" font-family="sans-serif" font-size="11" font-weight="700" lengthAdjust="spacing" textLength="119.1523" x="191.7734" y="470.7813">[count &lt;= threshold]</text><g class="message" data-entity-1="part2" data-entity-2="part2" data-source-line="204" id="msg8"><line style="stroke:#181818;stroke-width:1;" x1="309.7119" x2="351.7119" y1="495.4121" y2="495.4121"/><line style="stroke:#181818;stroke-width:1;" x1="351.7119" x2="351.7119" y1="495.4121" y2="508.4121"/><line style="stroke:#181818;stroke-width:1;" x1="310.7119" x2="351.7119" y1="508.4121" y2="508.4121"/><polygon fill="#181818" points="320.7119,504.4121,310.7119,508.4121,320.7119,512.4121,316.7119,508.4121" style="stroke:#181818;stroke-width:1;stroke-linejoin:miter;stroke-miterlimit:10;"/><text fill="#000000" font-family="sans-serif" font-size="13" lengthAdjust="spacing" textLength="235.2378" x="316.7119" y="490.6699">alerted.remove(customerId)  (re-arm)</text></g><path d="M635,535.4121 L635,590.4121 L986,590.4121 L986,545.4121 L976,535.4121 L635,535.4121" fill="#FEFFDD" style="stroke:#181818;stroke-width:0.5;"/><path d="M976,535.4121 L976,545.4121 L986,545.4121 L976,535.4121" fill="#FEFFDD" style="stroke:#181818;stroke-width:0.5;"/><text fill="#000000" font-family="sans-serif" font-size="13" lengthAdjust="spacing" textLength="208.9458" x="641" y="552.9805">ephemeral; rebuilt on Pod restart</text><text fill="#000000" font-family="sans-serif" font-size="13" lengthAdjust="spacing" textLength="242.9883" x="641" y="568.291">by replaying the earn stream (no RDS).</text><text fill="#000000" font-family="sans-serif" font-size="13" lengthAdjust="spacing" textLength="330.5479" x="641" y="583.6016">Degraded-availability: alerts may lag during rebuild.</text><?plantuml-src RPJTQXin48Nlzoa6N-s2RUXj6WTCua98QO8T4Wg6C5wDlS9QQQkHxEvT7w9Fs2VfQ7-8KsemNZFIfpDdZZReO0XUoBXIXnQMrjLeMlZpwpS4r8R1dIqGUWiSF64z1O-QYM7lCIf0Gpv0NhKSo1DhBZ8-QjkWnnguGkNEsXvWZuOf-n4f4lIVYN4jcj3E4tiUF5es64ZDJvycKaO6RJF115tg1cs0oQXna7ZhBCUQ_DRc1-zYSmNNs3GtizEmh9WaIFcHiJ5QYPvNRKNOhOjML6-2yoGKRMSrrSwtKsZ8GnavEE7Vgvx47qaFk3_YCzLDKZs1Vp-ouVZ_VZlVvfrlGw_Z1XT3bcaBinieuGfMOipgH3PaM0PzacEa6q70s24epRWpfE1nVI4N5WkmqPWC13EmF8Ke8ynbDasHKHh6KEMkMZglbbPrZkJlg2bG4h0Cqws5SsSQB8Q7Esnv2jQT2q4np8QJoeIG9Q7IunQf9zbzvGPg_9bQuoVohsEzNx7NdcMTTymfD7bdaaG2LTTKy96AhBUhqtwKyvYiWY_9qsLQdQ-MwszlBwklZxVtpz_VDa_t3wiatksO_8dKEjcuwBLC8LIIsSePDMAF2Ijp473ZdOebGNwaDkruZqEtDdaeekLAg1O6ePVQaXSScqOEuClxqTqiPscuELtIXeO7i4sS3jyxThrurvbzu8_-U8djYIxcLW3adcRewyHCnFHLT14aw-J7wqCLmEsx551JaUn6yra2iOjQ1k8iF3abVpb8zhTsrygp9BvDumaLNRuO8BSErdUROhwrTtJmg4ZDy2Jl4Dnf8t4TzB84e0M31r3H9qv_c9h_1G00?></g></svg>