<svg xmlns="http://www.w3.org/2000/svg" xmlns:xlink="http://www.w3.org/1999/xlink" contentStyleType="text/css" data-diagram-type="SEQUENCE" height="763px" preserveAspectRatio="none" style="width:1655px;height:763px;background:#FFFFFF;" version="1.1" viewBox="0 0 1655 763" width="1655px" zoomAndPan="magnify"><?plantuml 1.2026.4?><defs/><g><g class="title" data-source-line="58"><text fill="#000000" font-family="sans-serif" font-size="14" font-weight="700" lengthAdjust="spacing" textLength="459.6143" x="594.491" y="28.5352">Card-Spend ingress &#8594; canonical EarnEvent (happy path + DLQ)</text></g><g><title>CardSpendConsumer</title><rect fill="#FFFFFF" height="570.1211" style="stroke:#181818;stroke-width:1;" width="10" x="360.749" y="121.7754"/></g><rect fill="none" height="497.5" style="stroke:#000000;stroke-width:1.5;" width="1372.3511" x="267.2451" y="166.0859"/><rect fill="none" height="363.3027" style="stroke:#000000;stroke-width:1.5;" width="1352.3511" x="277.2451" y="293.2832"/><g class="participant-lifeline" data-entity-uid="part1" data-qualified-name="in" data-source-line="60" id="part1-lifeline"><g><title>loyalty.ingress.card_spend.v1</title><rect fill="#000000" fill-opacity="0.00000" height="619.4316" width="8" x="111.3174" y="90.4648"/><line style="stroke:#181818;stroke-width:0.5;stroke-dasharray:5,5;" x1="115" x2="115" y1="90.4648" y2="709.8965"/></g></g><g class="participant-lifeline" data-entity-uid="part2" data-qualified-name="c" data-source-line="61" id="part2-lifeline"><g><title>CardSpendConsumer</title><rect fill="#000000" fill-opacity="0.00000" height="619.4316" width="8" x="361.749" y="90.4648"/><line style="stroke:#181818;stroke-width:0.5;stroke-dasharray:5,5;" x1="365.2451" x2="365.2451" y1="90.4648" y2="709.8965"/></g></g><g class="participant-lifeline" data-entity-uid="part3" data-qualified-name="om" data-source-line="62" id="part3-lifeline"><g><title>ObjectMapper</title><rect fill="#000000" fill-opacity="0.00000" height="619.4316" width="8" x="588.9102" y="90.4648"/><line style="stroke:#181818;stroke-width:0.5;stroke-dasharray:5,5;" x1="592.3628" x2="592.3628" y1="90.4648" y2="709.8965"/></g></g><g class="participant-lifeline" data-entity-uid="part4" data-qualified-name="v" data-source-line="63" id="part4-lifeline"><g><title>IngressSchemaValidator</title><rect fill="#000000" fill-opacity="0.00000" height="619.4316" width="8" x="741.6274" y="90.4648"/><line style="stroke:#181818;stroke-width:0.5;stroke-dasharray:5,5;" x1="745.4575" x2="745.4575" y1="90.4648" y2="709.8965"/></g></g><g class="participant-lifeline" data-entity-uid="part5" data-qualified-name="t" data-source-line="64" id="part5-lifeline"><g><title>CardSpendTranslator</title><rect fill="#000000" fill-opacity="0.00000" height="619.4316" width="8" x="918.3423" y="90.4648"/><line style="stroke:#181818;stroke-width:0.5;stroke-dasharray:5,5;" x1="921.7974" x2="921.7974" y1="90.4648" y2="709.8965"/></g></g><g class="participant-lifeline" data-entity-uid="part6" data-qualified-name="k" data-source-line="65" id="part6-lifeline"><g><title>KafkaTemplate</title><rect fill="#000000" fill-opacity="0.00000" height="619.4316" width="8" x="1064.5278" y="90.4648"/><line style="stroke:#181818;stroke-width:0.5;stroke-dasharray:5,5;" x1="1067.8872" x2="1067.8872" y1="90.4648" y2="709.8965"/></g></g><g class="participant-lifeline" data-entity-uid="part7" data-qualified-name="out" data-source-line="66" id="part7-lifeline"><g><title>loyalty.earn.translated.v1</title><rect fill="#000000" fill-opacity="0.00000" height="619.4316" width="8" x="1228.0552" y="90.4648"/><line style="stroke:#181818;stroke-width:0.5;stroke-dasharray:5,5;" x1="1231.1685" x2="1231.1685" y1="90.4648" y2="709.8965"/></g></g><g class="participant-lifeline" data-entity-uid="part8" data-qualified-name="dlq" data-source-line="67" id="part8-lifeline"><g><title>loyalty.ingress.card_spend.v1.dlq</title><rect fill="#000000" fill-opacity="0.00000" height="619.4316" width="8" x="1457.3091" y="90.4648"/><line style="stroke:#181818;stroke-width:0.5;stroke-dasharray:5,5;" x1="1460.9419" x2="1460.9419" y1="90.4648" y2="709.8965"/></g></g><g class="participant participant-head" data-entity-uid="part1" data-qualified-name="in" data-source-line="60" id="part1-head"><path d="M10,63.9766 L220.6348,63.9766 C225.6348,63.9766 225.6348,77.2207 225.6348,77.2207 C225.6348,77.2207 225.6348,90.4648 220.6348,90.4648 L10,90.4648 C5,90.4648 5,77.2207 5,77.2207 C5,77.2207 5,63.9766 10,63.9766" fill="#E2E2F0" style="stroke:#181818;stroke-width:0.5;"/><path d="M220.6348,63.9766 C215.6348,63.9766 215.6348,77.2207 215.6348,77.2207 C215.6348,90.4648 220.6348,90.4648 220.6348,90.4648" fill="none" style="stroke:#181818;stroke-width:0.5;"/><text fill="#000000" font-family="sans-serif" font-size="14" lengthAdjust="spacing" textLength="200.6348" x="10" y="82.5117">loyalty.ingress.card_spend.v1</text></g><g class="participant participant-tail" data-entity-uid="part1" data-qualified-name="in" data-source-line="60" id="part1-tail"><path d="M10,708.8965 L220.6348,708.8965 C225.6348,708.8965 225.6348,722.1406 225.6348,722.1406 C225.6348,722.1406 225.6348,735.3848 220.6348,735.3848 L10,735.3848 C5,735.3848 5,722.1406 5,722.1406 C5,722.1406 5,708.8965 10,708.8965" fill="#E2E2F0" style="stroke:#181818;stroke-width:0.5;"/><path d="M220.6348,708.8965 C215.6348,708.8965 215.6348,722.1406 215.6348,722.1406 C215.6348,735.3848 220.6348,735.3848 220.6348,735.3848" fill="none" style="stroke:#181818;stroke-width:0.5;"/><text fill="#000000" font-family="sans-serif" font-size="14" lengthAdjust="spacing" textLength="200.6348" x="10" y="727.4316">loyalty.ingress.card_spend.v1</text></g><g class="participant participant-head" data-entity-uid="part2" data-qualified-name="c" data-source-line="61" id="part2-head"><rect fill="#E2E2F0" height="30.4883" rx="2.5" ry="2.5" style="stroke:#181818;stroke-width:0.5;" width="157.0078" x="287.2451" y="58.9766"/><text fill="#000000" font-family="sans-serif" font-size="14" lengthAdjust="spacing" textLength="143.0078" x="294.2451" y="79.5117">CardSpendConsumer</text></g><g class="participant participant-tail" data-entity-uid="part2" data-qualified-name="c" data-source-line="61" id="part2-tail"><rect fill="#E2E2F0" height="30.4883" rx="2.5" ry="2.5" style="stroke:#181818;stroke-width:0.5;" width="157.0078" x="287.2451" y="708.8965"/><text fill="#000000" font-family="sans-serif" font-size="14" lengthAdjust="spacing" textLength="143.0078" x="294.2451" y="729.4316">CardSpendConsumer</text></g><g class="participant participant-head" data-entity-uid="part3" data-qualified-name="om" data-source-line="62" id="part3-head"><rect fill="#E2E2F0" height="46.9766" rx="2.5" ry="2.5" style="stroke:#181818;stroke-width:0.5;" width="109.0947" x="538.3628" y="42.4883"/><text fill="#000000" font-family="sans-serif" font-size="14" lengthAdjust="spacing" textLength="95.0947" x="545.3628" y="63.0234">ObjectMapper</text><text fill="#000000" font-family="sans-serif" font-size="14" lengthAdjust="spacing" textLength="74.252" x="555.7842" y="79.5117">(Jackson 2)</text></g><g class="participant participant-tail" data-entity-uid="part3" data-qualified-name="om" data-source-line="62" id="part3-tail"><rect fill="#E2E2F0" height="46.9766" rx="2.5" ry="2.5" style="stroke:#181818;stroke-width:0.5;" width="109.0947" x="538.3628" y="708.8965"/><text fill="#000000" font-family="sans-serif" font-size="14" lengthAdjust="spacing" textLength="95.0947" x="545.3628" y="729.4316">ObjectMapper</text><text fill="#000000" font-family="sans-serif" font-size="14" lengthAdjust="spacing" textLength="74.252" x="555.7842" y="745.9199">(Jackson 2)</text></g><g class="participant participant-head" data-entity-uid="part4" data-qualified-name="v" data-source-line="63" id="part4-head"><rect fill="#E2E2F0" height="30.4883" rx="2.5" ry="2.5" style="stroke:#181818;stroke-width:0.5;" width="176.3398" x="657.4575" y="58.9766"/><text fill="#000000" font-family="sans-serif" font-size="14" lengthAdjust="spacing" textLength="162.3398" x="664.4575" y="79.5117">IngressSchemaValidator</text></g><g class="participant participant-tail" data-entity-uid="part4" data-qualified-name="v" data-source-line="63" id="part4-tail"><rect fill="#E2E2F0" height="30.4883" rx="2.5" ry="2.5" style="stroke:#181818;stroke-width:0.5;" width="176.3398" x="657.4575" y="708.8965"/><text fill="#000000" font-family="sans-serif" font-size="14" lengthAdjust="spacing" textLength="162.3398" x="664.4575" y="729.4316">IngressSchemaValidator</text></g><g class="participant participant-head" data-entity-uid="part5" data-qualified-name="t" data-source-line="64" id="part5-head"><rect fill="#E2E2F0" height="46.9766" rx="2.5" ry="2.5" style="stroke:#181818;stroke-width:0.5;" width="157.0898" x="843.7974" y="42.4883"/><text fill="#000000" font-family="sans-serif" font-size="14" lengthAdjust="spacing" textLength="143.0898" x="850.7974" y="63.0234">CardSpendTranslator</text><text fill="#000000" font-family="sans-serif" font-size="14" lengthAdjust="spacing" textLength="40.1338" x="902.2754" y="79.5117">(pure)</text></g><g class="participant participant-tail" data-entity-uid="part5" data-qualified-name="t" data-source-line="64" id="part5-tail"><rect fill="#E2E2F0" height="46.9766" rx="2.5" ry="2.5" style="stroke:#181818;stroke-width:0.5;" width="157.0898" x="843.7974" y="708.8965"/><text fill="#000000" font-family="sans-serif" font-size="14" lengthAdjust="spacing" textLength="143.0898" x="850.7974" y="729.4316">CardSpendTranslator</text><text fill="#000000" font-family="sans-serif" font-size="14" lengthAdjust="spacing" textLength="40.1338" x="902.2754" y="745.9199">(pure)</text></g><g class="participant participant-head" data-entity-uid="part6" data-qualified-name="k" data-source-line="65" id="part6-head"><rect fill="#E2E2F0" height="30.4883" rx="2.5" ry="2.5" style="stroke:#181818;stroke-width:0.5;" width="115.2813" x="1010.8872" y="58.9766"/><text fill="#000000" font-family="sans-serif" font-size="14" lengthAdjust="spacing" textLength="101.2813" x="1017.8872" y="79.5117">KafkaTemplate</text></g><g class="participant participant-tail" data-entity-uid="part6" data-qualified-name="k" data-source-line="65" id="part6-tail"><rect fill="#E2E2F0" height="30.4883" rx="2.5" ry="2.5" style="stroke:#181818;stroke-width:0.5;" width="115.2813" x="1010.8872" y="708.8965"/><text fill="#000000" font-family="sans-serif" font-size="14" lengthAdjust="spacing" textLength="101.2813" x="1017.8872" y="729.4316">KafkaTemplate</text></g><g class="participant participant-head" data-entity-uid="part7" data-qualified-name="out" data-source-line="66" id="part7-head"><path d="M1141.1685,63.9766 L1322.9419,63.9766 C1327.9419,63.9766 1327.9419,77.2207 1327.9419,77.2207 C1327.9419,77.2207 1327.9419,90.4648 1322.9419,90.4648 L1141.1685,90.4648 C1136.1685,90.4648 1136.1685,77.2207 1136.1685,77.2207 C1136.1685,77.2207 1136.1685,63.9766 1141.1685,63.9766" fill="#E2E2F0" style="stroke:#181818;stroke-width:0.5;"/><path d="M1322.9419,63.9766 C1317.9419,63.9766 1317.9419,77.2207 1317.9419,77.2207 C1317.9419,90.4648 1322.9419,90.4648 1322.9419,90.4648" fill="none" style="stroke:#181818;stroke-width:0.5;"/><text fill="#000000" font-family="sans-serif" font-size="14" lengthAdjust="spacing" textLength="171.7734" x="1141.1685" y="82.5117">loyalty.earn.translated.v1</text></g><g class="participant participant-tail" data-entity-uid="part7" data-qualified-name="out" data-source-line="66" id="part7-tail"><path d="M1141.1685,708.8965 L1322.9419,708.8965 C1327.9419,708.8965 1327.9419,722.1406 1327.9419,722.1406 C1327.9419,722.1406 1327.9419,735.3848 1322.9419,735.3848 L1141.1685,735.3848 C1136.1685,735.3848 1136.1685,722.1406 1136.1685,722.1406 C1136.1685,722.1406 1136.1685,708.8965 1141.1685,708.8965" fill="#E2E2F0" style="stroke:#181818;stroke-width:0.5;"/><path d="M1322.9419,708.8965 C1317.9419,708.8965 1317.9419,722.1406 1317.9419,722.1406 C1317.9419,735.3848 1322.9419,735.3848 1322.9419,735.3848" fill="none" style="stroke:#181818;stroke-width:0.5;"/><text fill="#000000" font-family="sans-serif" font-size="14" lengthAdjust="spacing" textLength="171.7734" x="1141.1685" y="727.4316">loyalty.earn.translated.v1</text></g><g class="participant participant-head" data-entity-uid="part8" data-qualified-name="dlq" data-source-line="67" id="part8-head"><path d="M1342.9419,63.9766 L1579.6763,63.9766 C1584.6763,63.9766 1584.6763,77.2207 1584.6763,77.2207 C1584.6763,77.2207 1584.6763,90.4648 1579.6763,90.4648 L1342.9419,90.4648 C1337.9419,90.4648 1337.9419,77.2207 1337.9419,77.2207 C1337.9419,77.2207 1337.9419,63.9766 1342.9419,63.9766" fill="#E2E2F0" style="stroke:#181818;stroke-width:0.5;"/><path d="M1579.6763,63.9766 C1574.6763,63.9766 1574.6763,77.2207 1574.6763,77.2207 C1574.6763,90.4648 1579.6763,90.4648 1579.6763,90.4648" fill="none" style="stroke:#181818;stroke-width:0.5;"/><text fill="#000000" font-family="sans-serif" font-size="14" lengthAdjust="spacing" textLength="226.7344" x="1342.9419" y="82.5117">loyalty.ingress.card_spend.v1.dlq</text></g><g class="participant participant-tail" data-entity-uid="part8" data-qualified-name="dlq" data-source-line="67" id="part8-tail"><path d="M1342.9419,708.8965 L1579.6763,708.8965 C1584.6763,708.8965 1584.6763,722.1406 1584.6763,722.1406 C1584.6763,722.1406 1584.6763,735.3848 1579.6763,735.3848 L1342.9419,735.3848 C1337.9419,735.3848 1337.9419,722.1406 1337.9419,722.1406 C1337.9419,722.1406 1337.9419,708.8965 1342.9419,708.8965" fill="#E2E2F0" style="stroke:#181818;stroke-width:0.5;"/><path d="M1579.6763,708.8965 C1574.6763,708.8965 1574.6763,722.1406 1574.6763,722.1406 C1574.6763,735.3848 1579.6763,735.3848 1579.6763,735.3848" fill="none" style="stroke:#181818;stroke-width:0.5;"/><text fill="#000000" font-family="sans-serif" font-size="14" lengthAdjust="spacing" textLength="226.7344" x="1342.9419" y="727.4316">loyalty.ingress.card_spend.v1.dlq</text></g><g><title>CardSpendConsumer</title><rect fill="#FFFFFF" height="570.1211" style="stroke:#181818;stroke-width:1;" width="10" x="360.749" y="121.7754"/></g><g class="message" data-entity-1="part1" data-entity-2="part2" data-source-line="69" id="msg1"><polygon fill="#181818" points="348.749,117.7754,358.749,121.7754,348.749,125.7754,352.749,121.7754" style="stroke:#181818;stroke-width:1;stroke-linejoin:miter;stroke-miterlimit:10;"/><line style="stroke:#181818;stroke-width:1;" x1="115.3174" x2="354.749" y1="121.7754" y2="121.7754"/><text fill="#000000" font-family="sans-serif" font-size="13" lengthAdjust="spacing" textLength="198.7896" x="122.3174" y="117.0332">ConsumerRecord(value = JSON)</text></g><g class="message" data-entity-1="part2" data-entity-2="part3" data-source-line="71" id="msg2"><polygon fill="#181818" points="580.9102,147.0859,590.9102,151.0859,580.9102,155.0859,584.9102,151.0859" style="stroke:#181818;stroke-width:1;stroke-linejoin:miter;stroke-miterlimit:10;"/><line style="stroke:#181818;stroke-width:1;" x1="370.749" x2="586.9102" y1="151.0859" y2="151.0859"/><text fill="#000000" font-family="sans-serif" font-size="13" lengthAdjust="spacing" textLength="97.3794" x="377.749" y="146.3438">readTree(value)</text></g><path d="M267.2451,166.0859 L329.3838,166.0859 L329.3838,173.3965 L319.3838,183.3965 L267.2451,183.3965 L267.2451,166.0859" fill="#EEEEEE" style="stroke:#000000;stroke-width:1.5;"/><rect fill="none" height="497.5" style="stroke:#000000;stroke-width:1.5;" width="1372.3511" x="267.2451" y="166.0859"/><text fill="#000000" font-family="sans-serif" font-size="13" font-weight="700" lengthAdjust="spacing" textLength="17.1387" x="282.2451" y="179.6543">alt</text><text fill="#000000" font-family="sans-serif" font-size="11" font-weight="700" lengthAdjust="spacing" textLength="109.8228" x="344.3838" y="178.7207">[unparseable JSON]</text><g class="message" data-entity-1="part3" data-entity-2="part2" data-source-line="73" id="msg3"><polygon fill="#181818" points="381.749,200.707,371.749,204.707,381.749,208.707,377.749,204.707" style="stroke:#181818;stroke-width:1;stroke-linejoin:miter;stroke-miterlimit:10;"/><line style="stroke:#181818;stroke-width:1;stroke-dasharray:2,2;" x1="375.749" x2="591.9102" y1="204.707" y2="204.707"/><text fill="#000000" font-family="sans-serif" font-size="13" lengthAdjust="spacing" textLength="61.9722" x="387.749" y="199.9648">exception</text></g><g class="message" data-entity-1="part2" data-entity-2="part8" data-source-line="74" id="msg4"><polygon fill="#181818" points="1449.3091,230.0176,1459.3091,234.0176,1449.3091,238.0176,1453.3091,234.0176" style="stroke:#181818;stroke-width:1;stroke-linejoin:miter;stroke-miterlimit:10;"/><line style="stroke:#181818;stroke-width:1;" x1="370.749" x2="1455.3091" y1="234.0176" y2="234.0176"/><text fill="#000000" font-family="sans-serif" font-size="13" lengthAdjust="spacing" textLength="197.1899" x="377.749" y="229.2754">send(value, header dlq-reason)</text></g><line style="stroke:#000000;stroke-width:1;stroke-dasharray:2,2;" x1="267.2451" x2="1639.5962" y1="243.0176" y2="243.0176"/><text fill="#000000" font-family="sans-serif" font-size="11" font-weight="700" lengthAdjust="spacing" textLength="119.8828" x="272.2451" y="253.6523">[parsed to JsonNode]</text><g class="message" data-entity-1="part2" data-entity-2="part4" data-source-line="76" id="msg5"><polygon fill="#181818" points="733.6274,274.2832,743.6274,278.2832,733.6274,282.2832,737.6274,278.2832" style="stroke:#181818;stroke-width:1;stroke-linejoin:miter;stroke-miterlimit:10;"/><line style="stroke:#181818;stroke-width:1;" x1="370.749" x2="739.6274" y1="278.2832" y2="278.2832"/><text fill="#000000" font-family="sans-serif" font-size="13" lengthAdjust="spacing" textLength="157.1743" x="377.749" y="273.541">validateCardSpend(node)</text></g><path d="M277.2451,293.2832 L339.3838,293.2832 L339.3838,300.5938 L329.3838,310.5938 L277.2451,310.5938 L277.2451,293.2832" fill="#EEEEEE" style="stroke:#000000;stroke-width:1.5;"/><rect fill="none" height="363.3027" style="stroke:#000000;stroke-width:1.5;" width="1352.3511" x="277.2451" y="293.2832"/><text fill="#000000" font-family="sans-serif" font-size="13" font-weight="700" lengthAdjust="spacing" textLength="17.1387" x="292.2451" y="306.8516">alt</text><text fill="#000000" font-family="sans-serif" font-size="11" font-weight="700" lengthAdjust="spacing" textLength="342.3213" x="354.3838" y="305.918">[schema errors (missing amount/currency, bad currency, ...)]</text><g class="message" data-entity-1="part4" data-entity-2="part2" data-source-line="78" id="msg6"><polygon fill="#181818" points="381.749,327.9043,371.749,331.9043,381.749,335.9043,377.749,331.9043" style="stroke:#181818;stroke-width:1;stroke-linejoin:miter;stroke-miterlimit:10;"/><line style="stroke:#181818;stroke-width:1;stroke-dasharray:2,2;" x1="375.749" x2="744.6274" y1="331.9043" y2="331.9043"/><text fill="#000000" font-family="sans-serif" font-size="13" lengthAdjust="spacing" textLength="157.2251" x="387.749" y="327.1621">Set&lt;ValidationMessage&gt;</text></g><g class="message" data-entity-1="part2" data-entity-2="part8" data-source-line="79" id="msg7"><polygon fill="#181818" points="1449.3091,357.2148,1459.3091,361.2148,1449.3091,365.2148,1453.3091,361.2148" style="stroke:#181818;stroke-width:1;stroke-linejoin:miter;stroke-miterlimit:10;"/><line style="stroke:#181818;stroke-width:1;" x1="370.749" x2="1455.3091" y1="361.2148" y2="361.2148"/><text fill="#000000" font-family="sans-serif" font-size="13" lengthAdjust="spacing" textLength="197.1899" x="377.749" y="356.4727">send(value, header dlq-reason)</text></g><path d="M1466,374.2148 L1466,414.2148 L1619,414.2148 L1619,384.2148 L1609,374.2148 L1466,374.2148" fill="#FEFFDD" style="stroke:#181818;stroke-width:0.5;"/><path d="M1609,374.2148 L1609,384.2148 L1619,384.2148 L1609,374.2148" fill="#FEFFDD" style="stroke:#181818;stroke-width:0.5;"/><text fill="#000000" font-family="sans-serif" font-size="13" lengthAdjust="spacing" textLength="132.5962" x="1472" y="391.7832">invalid never reaches</text><text fill="#000000" font-family="sans-serif" font-size="13" lengthAdjust="spacing" textLength="131.0791" x="1472" y="407.0938">the canonical stream</text><line style="stroke:#000000;stroke-width:1;stroke-dasharray:2,2;" x1="277.2451" x2="1629.5962" y1="420.8359" y2="420.8359"/><text fill="#000000" font-family="sans-serif" font-size="11" font-weight="700" lengthAdjust="spacing" textLength="103.3882" x="282.2451" y="431.4707">[valid (empty set)]</text><g class="message" data-entity-1="part4" data-entity-2="part2" data-source-line="82" id="msg8"><polygon fill="#181818" points="381.749,452.1016,371.749,456.1016,381.749,460.1016,377.749,456.1016" style="stroke:#181818;stroke-width:1;stroke-linejoin:miter;stroke-miterlimit:10;"/><line style="stroke:#181818;stroke-width:1;stroke-dasharray:2,2;" x1="375.749" x2="744.6274" y1="456.1016" y2="456.1016"/><text fill="#000000" font-family="sans-serif" font-size="13" lengthAdjust="spacing" textLength="8.4551" x="387.749" y="451.3594">{}</text></g><g class="message" data-entity-1="part2" data-entity-2="part3" data-source-line="83" id="msg9"><polygon fill="#181818" points="580.9102,481.4121,590.9102,485.4121,580.9102,489.4121,584.9102,485.4121" style="stroke:#181818;stroke-width:1;stroke-linejoin:miter;stroke-miterlimit:10;"/><line style="stroke:#181818;stroke-width:1;" x1="370.749" x2="586.9102" y1="485.4121" y2="485.4121"/><text fill="#000000" font-family="sans-serif" font-size="13" lengthAdjust="spacing" textLength="198.1611" x="377.749" y="480.6699">treeToValue(CardSpendIngress)</text></g><g class="message" data-entity-1="part2" data-entity-2="part5" data-source-line="84" id="msg10"><polygon fill="#181818" points="910.3423,510.7227,920.3423,514.7227,910.3423,518.7227,914.3423,514.7227" style="stroke:#181818;stroke-width:1;stroke-linejoin:miter;stroke-miterlimit:10;"/><line style="stroke:#181818;stroke-width:1;" x1="370.749" x2="916.3423" y1="514.7227" y2="514.7227"/><text fill="#000000" font-family="sans-serif" font-size="13" lengthAdjust="spacing" textLength="109.3003" x="377.749" y="509.9805">translate(ingress)</text></g><g class="message" data-entity-1="part5" data-entity-2="part2" data-source-line="85" id="msg11"><polygon fill="#181818" points="381.749,555.3438,371.749,559.3438,381.749,563.3438,377.749,559.3438" style="stroke:#181818;stroke-width:1;stroke-linejoin:miter;stroke-miterlimit:10;"/><line style="stroke:#181818;stroke-width:1;stroke-dasharray:2,2;" x1="375.749" x2="921.3423" y1="559.3438" y2="559.3438"/><text fill="#000000" font-family="sans-serif" font-size="13" lengthAdjust="spacing" textLength="213.3574" x="387.749" y="539.291">EarnEvent(source = CARD_SPEND,</text><text fill="#000000" font-family="sans-serif" font-size="13" lengthAdjust="spacing" textLength="352.6758" x="391.8623" y="554.6016">customerId, payload{amount,currency,mcc,merchantId})</text></g><g class="message" data-entity-1="part2" data-entity-2="part6" data-source-line="86" id="msg12"><polygon fill="#181818" points="1056.5278,615.2754,1066.5278,619.2754,1056.5278,623.2754,1060.5278,619.2754" style="stroke:#181818;stroke-width:1;stroke-linejoin:miter;stroke-miterlimit:10;"/><line style="stroke:#181818;stroke-width:1;" x1="370.749" x2="1062.5278" y1="619.2754" y2="619.2754"/><text fill="#000000" font-family="sans-serif" font-size="13" lengthAdjust="spacing" textLength="183.6694" x="377.749" y="583.9121">send(topic = earn.translated,</text><text fill="#000000" font-family="sans-serif" font-size="13" lengthAdjust="spacing" textLength="115.1338" x="381.8623" y="599.2227">key = customerId,</text><text fill="#000000" font-family="sans-serif" font-size="13" lengthAdjust="spacing" textLength="184.5581" x="381.8623" y="614.5332">headers: traceparent, source)</text></g><g class="message" data-entity-1="part6" data-entity-2="part7" data-source-line="87" id="msg13"><polygon fill="#181818" points="1220.0552,644.5859,1230.0552,648.5859,1220.0552,652.5859,1224.0552,648.5859" style="stroke:#181818;stroke-width:1;stroke-linejoin:miter;stroke-miterlimit:10;"/><line style="stroke:#181818;stroke-width:1;" x1="1068.5278" x2="1226.0552" y1="648.5859" y2="648.5859"/><text fill="#000000" font-family="sans-serif" font-size="13" lengthAdjust="spacing" textLength="136.7285" x="1075.5278" y="643.8438">produce (idempotent)</text></g><g class="message" data-entity-1="part2" data-entity-2="part1" data-source-line="90" id="msg14"><polygon fill="#181818" points="126.3174,687.8965,116.3174,691.8965,126.3174,695.8965,122.3174,691.8965" style="stroke:#181818;stroke-width:1;stroke-linejoin:miter;stroke-miterlimit:10;"/><line style="stroke:#181818;stroke-width:1;" x1="120.3174" x2="364.749" y1="691.8965" y2="691.8965"/><text fill="#000000" font-family="sans-serif" font-size="13" lengthAdjust="spacing" textLength="221.4316" x="132.3174" y="687.1543">commit offset (ack-mode RECORD)</text></g><?plantuml-src bLJTRjCm5BxFKnprAXLj45nEC0crlTXW6xJLhYPDddEwc2PsPZk1Qjej3y0ZyYHyTjA_CII8LAcnp_VZxnp7AryoJOJDnukQTKvAtrjsZdxz-4bIQAEL52NDXDMpbhMdj11rlQ5Q-89UqVJJbs7YrahNmegAN25oymqKj1Abu-IXuOQfUmQbsOZIRx9U8PCGlNL1D6lV36ADSD1FmEMLLBM0t21OYyucHhkcOZkWFnx0v37gwkuhIty1gsnlT7ekvDePJM-7WoEKgOvXPvsrXIou4jUYLBdmvfaYOErVB2wjqAuC46ZMZUMz753-6FLHhDPYoLKD0Bzmg1wrVZb4HaCot-lnFi7jmHh_7-5dUVamY3ZyIHAbQNnAaavec_cSfR5vseeIZE_fV75rEKo4zAg5EBAN0M0g82mBnC3SrQAezDI4wN0ixZ1f0PfGg1tt6lnTSksLqLYEFF20PGTh7Sc82f2o3HjZyAEHmuGnNXHfS_A6ph5uQNBUShHWQBl-yQuzgKR542N1b8iz9hRMM4TffPmBSoigqsZ_MZRMifQR4Ts9dFPlMPO50eB0rl-2_Rj-L7282uGhxlaq5ltxSKArDiZIgll2ardrCANZAKXp2mIguThTQ5_mmULq7XiLE68e7I35OFaDPFrpluzFUs-nPK3pqbm7R-akg_uc3FUrFfRs0vUgmts_8zzz9r9d6Yl3i4m-pAUtYy-po-deHYDAvmqcwYmVeNsRqeZyiSjyj4kvadA44bdWdfpbJmSUrjialQcL1FcpQn0Krhp1ne4Erhh4NJm0far0nu-eizZHhsCSJJXaRKtUm7ggSeI8fkYO8MIJy8j6S4LEI9ggKg5PAyHCARunumeJHlFPv6e-7IOvxw_8Rm00?></g></svg>