<svg xmlns="http://www.w3.org/2000/svg" xmlns:xlink="http://www.w3.org/1999/xlink" contentStyleType="text/css" data-diagram-type="SALT" height="273px" preserveAspectRatio="none" style="width:702px;height:273px;background:#FFFFFF;" version="1.1" viewBox="0 0 702 273" width="702px" zoomAndPan="magnify"><?plantuml 1.2026.4?><defs/><g><rect fill="#DDDDDD" height="15.1328" style="stroke:#000000;stroke-width:1;" width="511" x="6" y="6"/><text fill="#000000" font-family="sans-serif" font-size="12" lengthAdjust="spacing" textLength="157.0605" x="6" y="17.6016">Program: ^RDB_REWARDS^</text><text fill="#000000" font-family="sans-serif" font-size="12" lengthAdjust="spacing" textLength="277.2539" x="173.0605" y="17.6016">Campaigns &gt; Ramadan Dining Boost &gt; Winners</text><text fill="#000000" font-family="sans-serif" font-size="12" lengthAdjust="spacing" textLength="48.1699" x="7" y="50.8672">Drawing</text><text fill="#000000" font-family="sans-serif" font-size="12" lengthAdjust="spacing" textLength="11.3848" x="64.1309" y="50.8672">1.</text><text fill="#000000" font-family="sans-serif" font-size="12" lengthAdjust="spacing" textLength="30.3516" x="79.3125" y="50.8672">4471</text><line style="stroke:#000000;stroke-width:1;" x1="62.1309" x2="441.1309" y1="53.3984" y2="53.3984"/><line style="stroke:#000000;stroke-width:1;" x1="62.1309" x2="62.1309" y1="50.3984" y2="52.3984"/><line style="stroke:#000000;stroke-width:1;" x1="441.1309" x2="441.1309" y1="50.3984" y2="52.3984"/><text fill="#000000" font-family="sans-serif" font-size="12" lengthAdjust="spacing" textLength="35.6309" x="7" y="69">Status</text><text fill="#000000" font-family="sans-serif" font-size="12" lengthAdjust="spacing" textLength="70.5762" x="64.1309" y="69">COMPLETED</text><line style="stroke:#000000;stroke-width:1;" x1="62.1309" x2="441.1309" y1="71.5313" y2="71.5313"/><line style="stroke:#000000;stroke-width:1;" x1="62.1309" x2="62.1309" y1="68.5313" y2="70.5313"/><line style="stroke:#000000;stroke-width:1;" x1="441.1309" x2="441.1309" y1="68.5313" y2="70.5313"/><text fill="#000000" font-family="sans-serif" font-size="12" lengthAdjust="spacing" textLength="52.1309" x="7" y="87.1328">Drawn at</text><text fill="#000000" font-family="sans-serif" font-size="12" lengthAdjust="spacing" textLength="112.5352" x="64.1309" y="87.1328">2026-07-01 12:00</text><line style="stroke:#000000;stroke-width:1;" x1="62.1309" x2="441.1309" y1="89.6641" y2="89.6641"/><line style="stroke:#000000;stroke-width:1;" x1="62.1309" x2="62.1309" y1="86.6641" y2="88.6641"/><line style="stroke:#000000;stroke-width:1;" x1="441.1309" x2="441.1309" y1="86.6641" y2="88.6641"/><line style="stroke:#AAAAAA;stroke-width:1;" x1="6" x2="517" y1="97.1641" y2="97.1641"/><line style="stroke:#AAAAAA;stroke-width:1;" x1="6" x2="517" y1="99.1641" y2="99.1641"/><text fill="#000000" font-family="sans-serif" font-size="12" lengthAdjust="spacing" textLength="7.5879" x="7" y="131.3984">#</text><text fill="#000000" font-family="sans-serif" font-size="12" lengthAdjust="spacing" textLength="47.373" x="16.5879" y="131.3984">Member</text><text fill="#000000" font-family="sans-serif" font-size="12" lengthAdjust="spacing" textLength="76.5352" x="65.9609" y="131.3984">Winner index</text><text fill="#000000" font-family="sans-serif" font-size="12" lengthAdjust="spacing" textLength="60.4805" x="144.4961" y="131.3984">Seed (hex)</text><text fill="#000000" font-family="sans-serif" font-size="12" lengthAdjust="spacing" textLength="28.5762" x="206.9766" y="131.3984">Prize</text><text fill="#000000" font-family="sans-serif" font-size="12" lengthAdjust="spacing" textLength="46.4063" x="291.3711" y="131.3984">Fulfilled</text><text fill="#000000" font-family="sans-serif" font-size="12" lengthAdjust="spacing" textLength="7.5879" x="7" y="147.5313">1</text><text fill="#000000" font-family="sans-serif" font-size="12" lengthAdjust="spacing" textLength="45.5273" x="16.5879" y="147.5313">100482</text><text fill="#000000" font-family="sans-serif" font-size="12" lengthAdjust="spacing" textLength="37.9395" x="65.9609" y="147.5313">38211</text><text fill="#000000" font-family="sans-serif" font-size="12" lengthAdjust="spacing" textLength="51.9492" x="144.4961" y="147.5313">a3f1&#8230;9c</text><text fill="#000000" font-family="sans-serif" font-size="12" lengthAdjust="spacing" textLength="82.3945" x="206.9766" y="147.5313">$50 Cashback</text><text fill="#000000" font-family="sans-serif" font-size="12" lengthAdjust="spacing" textLength="19.0723" x="291.3711" y="147.5313">yes</text><text fill="#000000" font-family="sans-serif" font-size="12" lengthAdjust="spacing" textLength="7.5879" x="7" y="163.6641">2</text><text fill="#000000" font-family="sans-serif" font-size="12" lengthAdjust="spacing" textLength="45.5273" x="16.5879" y="163.6641">100777</text><text fill="#000000" font-family="sans-serif" font-size="12" lengthAdjust="spacing" textLength="37.9395" x="65.9609" y="163.6641">11904</text><text fill="#000000" font-family="sans-serif" font-size="12" lengthAdjust="spacing" textLength="51.9492" x="144.4961" y="163.6641">a3f1&#8230;9c</text><text fill="#000000" font-family="sans-serif" font-size="12" lengthAdjust="spacing" textLength="82.3945" x="206.9766" y="163.6641">$50 Cashback</text><text fill="#000000" font-family="sans-serif" font-size="12" lengthAdjust="spacing" textLength="19.0723" x="291.3711" y="163.6641">yes</text><text fill="#000000" font-family="sans-serif" font-size="12" lengthAdjust="spacing" textLength="7.5879" x="7" y="179.7969">3</text><text fill="#000000" font-family="sans-serif" font-size="12" lengthAdjust="spacing" textLength="45.5273" x="16.5879" y="179.7969">101559</text><text fill="#000000" font-family="sans-serif" font-size="12" lengthAdjust="spacing" textLength="37.9395" x="65.9609" y="179.7969">70233</text><text fill="#000000" font-family="sans-serif" font-size="12" lengthAdjust="spacing" textLength="51.9492" x="144.4961" y="179.7969">a3f1&#8230;9c</text><text fill="#000000" font-family="sans-serif" font-size="12" lengthAdjust="spacing" textLength="82.3945" x="206.9766" y="179.7969">$50 Cashback</text><text fill="#000000" font-family="sans-serif" font-size="12" lengthAdjust="spacing" textLength="47.6367" x="291.3711" y="179.7969">pending</text><line style="stroke:#000000;stroke-width:1;" x1="6" x2="15.5879" y1="118.7969" y2="118.7969"/><line style="stroke:#000000;stroke-width:1;" x1="205.9766" x2="290.3711" y1="183.3281" y2="183.3281"/><line style="stroke:#000000;stroke-width:1;" x1="15.5879" x2="64.9609" y1="118.7969" y2="118.7969"/><line style="stroke:#000000;stroke-width:1;" x1="290.3711" x2="340.0078" y1="183.3281" y2="183.3281"/><line style="stroke:#000000;stroke-width:1;" x1="64.9609" x2="143.4961" y1="118.7969" y2="118.7969"/><line style="stroke:#000000;stroke-width:1;" x1="143.4961" x2="205.9766" y1="118.7969" y2="118.7969"/><line style="stroke:#000000;stroke-width:1;" x1="205.9766" x2="290.3711" y1="118.7969" y2="118.7969"/><line style="stroke:#000000;stroke-width:1;" x1="290.3711" x2="340.0078" y1="118.7969" y2="118.7969"/><line style="stroke:#000000;stroke-width:1;" x1="6" x2="15.5879" y1="167.1953" y2="167.1953"/><line style="stroke:#000000;stroke-width:1;" x1="15.5879" x2="64.9609" y1="167.1953" y2="167.1953"/><line style="stroke:#000000;stroke-width:1;" x1="64.9609" x2="143.4961" y1="167.1953" y2="167.1953"/><line style="stroke:#000000;stroke-width:1;" x1="143.4961" x2="205.9766" y1="167.1953" y2="167.1953"/><line style="stroke:#000000;stroke-width:1;" x1="205.9766" x2="290.3711" y1="167.1953" y2="167.1953"/><line style="stroke:#000000;stroke-width:1;" x1="290.3711" x2="340.0078" y1="167.1953" y2="167.1953"/><line style="stroke:#000000;stroke-width:1;" x1="6" x2="15.5879" y1="151.0625" y2="151.0625"/><line style="stroke:#000000;stroke-width:1;" x1="15.5879" x2="64.9609" y1="151.0625" y2="151.0625"/><line style="stroke:#000000;stroke-width:1;" x1="64.9609" x2="143.4961" y1="151.0625" y2="151.0625"/><line style="stroke:#000000;stroke-width:1;" x1="143.4961" x2="205.9766" y1="151.0625" y2="151.0625"/><line style="stroke:#000000;stroke-width:1;" x1="205.9766" x2="290.3711" y1="151.0625" y2="151.0625"/><line style="stroke:#000000;stroke-width:1;" x1="290.3711" x2="340.0078" y1="151.0625" y2="151.0625"/><line style="stroke:#000000;stroke-width:1;" x1="6" x2="15.5879" y1="134.9297" y2="134.9297"/><line style="stroke:#000000;stroke-width:1;" x1="15.5879" x2="64.9609" y1="134.9297" y2="134.9297"/><line style="stroke:#000000;stroke-width:1;" x1="64.9609" x2="143.4961" y1="134.9297" y2="134.9297"/><line style="stroke:#000000;stroke-width:1;" x1="143.4961" x2="205.9766" y1="134.9297" y2="134.9297"/><line style="stroke:#000000;stroke-width:1;" x1="205.9766" x2="290.3711" y1="134.9297" y2="134.9297"/><line style="stroke:#000000;stroke-width:1;" x1="290.3711" x2="340.0078" y1="134.9297" y2="134.9297"/><line style="stroke:#000000;stroke-width:1;" x1="6" x2="15.5879" y1="183.3281" y2="183.3281"/><line style="stroke:#000000;stroke-width:1;" x1="15.5879" x2="64.9609" y1="183.3281" y2="183.3281"/><line style="stroke:#000000;stroke-width:1;" x1="64.9609" x2="143.4961" y1="183.3281" y2="183.3281"/><line style="stroke:#000000;stroke-width:1;" x1="143.4961" x2="205.9766" y1="183.3281" y2="183.3281"/><line style="stroke:#000000;stroke-width:1;" x1="6" x2="6" y1="118.7969" y2="134.9297"/><line style="stroke:#000000;stroke-width:1;" x1="15.5879" x2="15.5879" y1="118.7969" y2="134.9297"/><line style="stroke:#000000;stroke-width:1;" x1="64.9609" x2="64.9609" y1="118.7969" y2="134.9297"/><line style="stroke:#000000;stroke-width:1;" x1="143.4961" x2="143.4961" y1="118.7969" y2="134.9297"/><line style="stroke:#000000;stroke-width:1;" x1="205.9766" x2="205.9766" y1="118.7969" y2="134.9297"/><line style="stroke:#000000;stroke-width:1;" x1="290.3711" x2="290.3711" y1="118.7969" y2="134.9297"/><line style="stroke:#000000;stroke-width:1;" x1="340.0078" x2="340.0078" y1="118.7969" y2="134.9297"/><line style="stroke:#000000;stroke-width:1;" x1="6" x2="6" y1="167.1953" y2="183.3281"/><line style="stroke:#000000;stroke-width:1;" x1="15.5879" x2="15.5879" y1="167.1953" y2="183.3281"/><line style="stroke:#000000;stroke-width:1;" x1="64.9609" x2="64.9609" y1="167.1953" y2="183.3281"/><line style="stroke:#000000;stroke-width:1;" x1="143.4961" x2="143.4961" y1="167.1953" y2="183.3281"/><line style="stroke:#000000;stroke-width:1;" x1="205.9766" x2="205.9766" y1="167.1953" y2="183.3281"/><line style="stroke:#000000;stroke-width:1;" x1="290.3711" x2="290.3711" y1="167.1953" y2="183.3281"/><line style="stroke:#000000;stroke-width:1;" x1="340.0078" x2="340.0078" y1="167.1953" y2="183.3281"/><line style="stroke:#000000;stroke-width:1;" x1="6" x2="6" y1="151.0625" y2="167.1953"/><line style="stroke:#000000;stroke-width:1;" x1="15.5879" x2="15.5879" y1="151.0625" y2="167.1953"/><line style="stroke:#000000;stroke-width:1;" x1="64.9609" x2="64.9609" y1="151.0625" y2="167.1953"/><line style="stroke:#000000;stroke-width:1;" x1="143.4961" x2="143.4961" y1="151.0625" y2="167.1953"/><line style="stroke:#000000;stroke-width:1;" x1="205.9766" x2="205.9766" y1="151.0625" y2="167.1953"/><line style="stroke:#000000;stroke-width:1;" x1="290.3711" x2="290.3711" y1="151.0625" y2="167.1953"/><line style="stroke:#000000;stroke-width:1;" x1="340.0078" x2="340.0078" y1="151.0625" y2="167.1953"/><line style="stroke:#000000;stroke-width:1;" x1="6" x2="6" y1="134.9297" y2="151.0625"/><line style="stroke:#000000;stroke-width:1;" x1="15.5879" x2="15.5879" y1="134.9297" y2="151.0625"/><line style="stroke:#000000;stroke-width:1;" x1="64.9609" x2="64.9609" y1="134.9297" y2="151.0625"/><line style="stroke:#000000;stroke-width:1;" x1="143.4961" x2="143.4961" y1="134.9297" y2="151.0625"/><line style="stroke:#000000;stroke-width:1;" x1="205.9766" x2="205.9766" y1="134.9297" y2="151.0625"/><line style="stroke:#000000;stroke-width:1;" x1="290.3711" x2="290.3711" y1="134.9297" y2="151.0625"/><line style="stroke:#000000;stroke-width:1;" x1="340.0078" x2="340.0078" y1="134.9297" y2="151.0625"/><text fill="#000000" font-family="sans-serif" font-size="12" lengthAdjust="spacing" textLength="388.1309" x="9" y="213.0625">Re-verify: seed a3f1&#8230;9c + HMAC secret reproduces these indices.</text><line style="stroke:#000000;stroke-width:1;" x1="7" x2="514" y1="215.5938" y2="215.5938"/><line style="stroke:#000000;stroke-width:1;" x1="7" x2="7" y1="212.5938" y2="214.5938"/><line style="stroke:#000000;stroke-width:1;" x1="514" x2="514" y1="212.5938" y2="214.5938"/><line style="stroke:#AAAAAA;stroke-width:1;" x1="6" x2="517" y1="222.0938" y2="222.0938"/><line style="stroke:#AAAAAA;stroke-width:1;" x1="6" x2="517" y1="224.0938" y2="224.0938"/><rect fill="#EEEEEE" height="18.1328" rx="5" ry="5" style="stroke:#000000;stroke-width:2.5;" width="116" x="8.5" y="246.2266"/><text fill="#000000" font-family="sans-serif" font-size="12" lengthAdjust="spacing" textLength="71.5664" x="30.7168" y="259.8281">Export audit</text><rect fill="#EEEEEE" height="18.1328" rx="5" ry="5" style="stroke:#000000;stroke-width:2.5;" width="172" x="520.5" y="246.2266"/><text fill="#000000" font-family="sans-serif" font-size="12" lengthAdjust="spacing" textLength="108.8496" x="552.0752" y="259.8281">Re-verify selection</text><?plantuml-src fTFTJi8m50Vm-pt52NZXHo3jDXoGQ5I6yKAY6IPS431rEq3Zw4XR50GIdyO7yqbi6IhUeJRPnVvhVZqzxSwKPb8hbcfduG0i3k5MPaF9ndNeH-75VTJid4TXkmzBQB3nXF6XK70A4HkpX0a8kU1Y21TPfhI9Erm8b0fMXYfRpZm0eMJFTfOPIoWKVJ-WiFCeh8csPdggO4CqRbgtrysxPlWRmbOXWEcSS8bxN291YL2WRfsG7GYxgPEJpvqLBLgqLWl73oZpql8601S9pjP16p61_H7E3hwifManVy4jVGcNqtJ0qnGJgrARK4Bygfj_zQekfTlJcJUWxwzljHX-A7iLOav9ZHvO_9WdSrHMT3TY40HvJccD-FyHlLoabKejpmFYUjwVn0cAn5oFJOTjSmiHbfvGyi6y3iesyDiwWglMUSEaiKGD4YSoIwOnAj0ZL6WRpyrRkR1zLbrepYQPrC2c2TVGCsjsuMi9OwKOQvu9w3ahvynKi_uT75gsbwJiVm00?></g></svg>