<svg xmlns="http://www.w3.org/2000/svg" xmlns:xlink="http://www.w3.org/1999/xlink" contentStyleType="text/css" data-diagram-type="SALT" height="593px" preserveAspectRatio="none" style="width:1070px;height:593px;background:#FFFFFF;" version="1.1" viewBox="0 0 1070 593" width="1070px" zoomAndPan="magnify"><?plantuml 1.2026.4?><defs/><g><rect fill="#DDDDDD" height="15.1328" style="stroke:#000000;stroke-width:1;" width="1058.373" x="6" y="6"/><text fill="#000000" font-family="sans-serif" font-size="12" lengthAdjust="spacing" textLength="157.0605" x="6" y="17.6016">Program: ^RDB_REWARDS^</text><text fill="#000000" font-family="sans-serif" font-size="12" lengthAdjust="spacing" textLength="148.5" x="173.0605" y="17.6016">Loyalty Admin &gt; Rewards</text><text fill="#000000" font-family="sans-serif" font-size="12" lengthAdjust="spacing" textLength="48.7266" x="17" y="50.8672">Rewards</text><text fill="#000000" font-family="sans-serif" font-size="12" lengthAdjust="spacing" textLength="158.7598" x="27" y="65">$5 Cashback         (ACTIVE)</text><text fill="#000000" font-family="sans-serif" font-size="12" lengthAdjust="spacing" textLength="170.3965" x="27" y="79.1328">10,000pt Voucher    (ACTIVE)</text><text fill="#000000" font-family="sans-serif" font-size="12" lengthAdjust="spacing" textLength="168.2695" x="27" y="93.2656">Sweepstakes Entry   (ACTIVE)</text><text fill="#000000" font-family="sans-serif" font-size="12" lengthAdjust="spacing" textLength="159.4512" x="27" y="107.3984">$10 Cashback        (DRAFT)</text><rect fill="none" height="2" style="stroke:#888888;stroke-width:1;" width="2" x="10" y="45.332"/><line style="stroke:#888888;stroke-width:1;" x1="11" x2="11" y1="48.332" y2="60.4648"/><line style="stroke:#888888;stroke-width:1;" x1="11" x2="19" y1="60.4648" y2="60.4648"/><line style="stroke:#888888;stroke-width:1;" x1="11" x2="11" y1="48.332" y2="74.5977"/><line style="stroke:#888888;stroke-width:1;" x1="11" x2="19" y1="74.5977" y2="74.5977"/><line style="stroke:#888888;stroke-width:1;" x1="11" x2="11" y1="48.332" y2="88.7305"/><line style="stroke:#888888;stroke-width:1;" x1="11" x2="19" y1="88.7305" y2="88.7305"/><line style="stroke:#888888;stroke-width:1;" x1="11" x2="11" y1="48.332" y2="102.8633"/><line style="stroke:#888888;stroke-width:1;" x1="11" x2="19" y1="102.8633" y2="102.8633"/><text fill="#000000" font-family="sans-serif" font-size="12" lengthAdjust="spacing" textLength="78.3691" x="202.3965" y="51.8672">Reward name</text><text fill="#000000" font-family="sans-serif" font-size="12" lengthAdjust="spacing" textLength="74.8066" x="631.373" y="51.8672">$5 Cashback</text><line style="stroke:#000000;stroke-width:1;" x1="629.373" x2="976.373" y1="54.3984" y2="54.3984"/><line style="stroke:#000000;stroke-width:1;" x1="629.373" x2="629.373" y1="51.3984" y2="53.3984"/><line style="stroke:#000000;stroke-width:1;" x1="976.373" x2="976.373" y1="51.3984" y2="53.3984"/><text fill="#000000" font-family="sans-serif" font-size="12" lengthAdjust="spacing" textLength="71.4023" x="202.3965" y="86.1328">Reward type</text><rect fill="#EEEEEE" height="17.1328" style="stroke:#000000;stroke-width:1;" width="79" x="628.373" y="74.5313"/><text fill="#000000" font-family="sans-serif" font-size="12" lengthAdjust="spacing" textLength="63.1816" x="630.373" y="88.1328">CASHBACK</text><line style="stroke:#000000;stroke-width:1;" x1="696.373" x2="696.373" y1="74.5313" y2="91.6641"/><polygon fill="#000000" points="699.373,80.5313,705.373,80.5313,702.373,86.6641" style="stroke:#000000;stroke-width:1;stroke-linejoin:miter;stroke-miterlimit:10;"/><text fill="#000000" font-family="sans-serif" font-size="12" lengthAdjust="spacing" textLength="35.6309" x="202.3965" y="106.2656">Status</text><text fill="#000000" font-family="sans-serif" font-size="12" lengthAdjust="spacing" textLength="79.459" x="631.373" y="106.2656">DRAFT &#183; rev 1</text><line style="stroke:#000000;stroke-width:1;" x1="629.373" x2="976.373" y1="108.7969" y2="108.7969"/><line style="stroke:#000000;stroke-width:1;" x1="629.373" x2="629.373" y1="105.7969" y2="107.7969"/><line style="stroke:#000000;stroke-width:1;" x1="976.373" x2="976.373" y1="105.7969" y2="107.7969"/><text fill="#000000" font-family="sans-serif" font-size="12" lengthAdjust="spacing" textLength="57.3281" x="202.3965" y="140.5313">Point cost</text><text fill="#000000" font-family="sans-serif" font-size="12" lengthAdjust="spacing" textLength="30.3516" x="631.373" y="140.5313">5000</text><line style="stroke:#000000;stroke-width:1;" x1="629.373" x2="976.373" y1="143.0625" y2="143.0625"/><line style="stroke:#000000;stroke-width:1;" x1="629.373" x2="629.373" y1="140.0625" y2="142.0625"/><line style="stroke:#000000;stroke-width:1;" x1="976.373" x2="976.373" y1="140.0625" y2="142.0625"/><line style="stroke:#AAAAAA;stroke-width:1;" x1="202.3965" x2="627.373" y1="149.5625" y2="149.5625"/><line style="stroke:#AAAAAA;stroke-width:1;" x1="202.3965" x2="627.373" y1="151.5625" y2="151.5625"/><text fill="#000000" font-family="sans-serif" font-size="12" lengthAdjust="spacing" textLength="183.6094" x="205.3965" y="182.7969">Fulfillment params (CASHBACK)</text><line style="stroke:#000000;stroke-width:1;" x1="203.3965" x2="438.3965" y1="185.3281" y2="185.3281"/><line style="stroke:#000000;stroke-width:1;" x1="203.3965" x2="203.3965" y1="182.3281" y2="184.3281"/><line style="stroke:#000000;stroke-width:1;" x1="438.3965" x2="438.3965" y1="182.3281" y2="184.3281"/><text fill="#000000" font-family="sans-serif" font-size="12" lengthAdjust="spacing" textLength="44.584" x="203.3965" y="201.9297">amount</text><text fill="#000000" font-family="sans-serif" font-size="12" lengthAdjust="spacing" textLength="26.5605" x="258.3594" y="201.9297">5.00</text><line style="stroke:#000000;stroke-width:1;" x1="256.3594" x2="603.3594" y1="204.4609" y2="204.4609"/><line style="stroke:#000000;stroke-width:1;" x1="256.3594" x2="256.3594" y1="201.4609" y2="203.4609"/><line style="stroke:#000000;stroke-width:1;" x1="603.3594" x2="603.3594" y1="201.4609" y2="203.4609"/><text fill="#000000" font-family="sans-serif" font-size="12" lengthAdjust="spacing" textLength="49.9629" x="203.3965" y="220.0625">currency</text><rect fill="#EEEEEE" height="17.1328" style="stroke:#000000;stroke-width:1;" width="39" x="255.3594" y="208.4609"/><text fill="#000000" font-family="sans-serif" font-size="12" lengthAdjust="spacing" textLength="23.7656" x="257.3594" y="222.0625">USD</text><line style="stroke:#000000;stroke-width:1;" x1="283.3594" x2="283.3594" y1="208.4609" y2="225.5938"/><polygon fill="#000000" points="286.3594,214.4609,292.3594,214.4609,289.3594,220.5938" style="stroke:#000000;stroke-width:1;stroke-linejoin:miter;stroke-miterlimit:10;"/><text fill="#000000" font-family="sans-serif" font-size="12" lengthAdjust="spacing" textLength="34.6816" x="203.3965" y="240.1953">target</text><rect fill="#EEEEEE" height="17.1328" style="stroke:#000000;stroke-width:1;" width="111" x="255.3594" y="228.5938"/><text fill="#000000" font-family="sans-serif" font-size="12" lengthAdjust="spacing" textLength="79.1426" x="257.3594" y="242.1953">Primary CASA</text><line style="stroke:#000000;stroke-width:1;" x1="355.3594" x2="355.3594" y1="228.5938" y2="245.7266"/><polygon fill="#000000" points="358.3594,234.5938,364.3594,234.5938,361.3594,240.7266" style="stroke:#000000;stroke-width:1;stroke-linejoin:miter;stroke-miterlimit:10;"/><line style="stroke:#AAAAAA;stroke-width:1;" x1="202.3965" x2="627.373" y1="253.2266" y2="253.2266"/><text fill="#000000" font-family="sans-serif" font-size="12" lengthAdjust="spacing" textLength="88.3066" x="205.3965" y="285.4609">Eligibility gates</text><line style="stroke:#000000;stroke-width:1;" x1="203.3965" x2="342.3965" y1="287.9922" y2="287.9922"/><line style="stroke:#000000;stroke-width:1;" x1="203.3965" x2="203.3965" y1="284.9922" y2="286.9922"/><line style="stroke:#000000;stroke-width:1;" x1="342.3965" x2="342.3965" y1="284.9922" y2="286.9922"/><text fill="#000000" font-family="sans-serif" font-size="12" lengthAdjust="spacing" textLength="44.6016" x="203.3965" y="304.5938">Min tier</text><rect fill="#EEEEEE" height="17.1328" style="stroke:#000000;stroke-width:1;" width="63" x="307.373" y="292.9922"/><text fill="#000000" font-family="sans-serif" font-size="12" lengthAdjust="spacing" textLength="31.207" x="309.373" y="306.5938">Silver</text><line style="stroke:#000000;stroke-width:1;" x1="359.373" x2="359.373" y1="292.9922" y2="310.125"/><polygon fill="#000000" points="362.373,298.9922,368.373,298.9922,365.373,305.125" style="stroke:#000000;stroke-width:1;stroke-linejoin:miter;stroke-miterlimit:10;"/><text fill="#000000" font-family="sans-serif" font-size="12" lengthAdjust="spacing" textLength="50.4551" x="203.3965" y="324.7266">Segment</text><rect fill="#EEEEEE" height="17.1328" style="stroke:#000000;stroke-width:1;" width="39" x="307.373" y="313.125"/><text fill="#000000" font-family="sans-serif" font-size="12" lengthAdjust="spacing" textLength="15.2168" x="309.373" y="326.7266">All</text><line style="stroke:#000000;stroke-width:1;" x1="335.373" x2="335.373" y1="313.125" y2="330.2578"/><polygon fill="#000000" points="338.373,319.125,344.373,319.125,341.373,325.2578" style="stroke:#000000;stroke-width:1;stroke-linejoin:miter;stroke-miterlimit:10;"/><text fill="#000000" font-family="sans-serif" font-size="12" lengthAdjust="spacing" textLength="101.9766" x="203.3965" y="360.9922">Tenure &#8805; months</text><text fill="#000000" font-family="sans-serif" font-size="12" lengthAdjust="spacing" textLength="7.5879" x="310.373" y="360.9922">0</text><line style="stroke:#000000;stroke-width:1;" x1="308.373" x2="623.373" y1="363.5234" y2="363.5234"/><line style="stroke:#000000;stroke-width:1;" x1="308.373" x2="308.373" y1="360.5234" y2="362.5234"/><line style="stroke:#000000;stroke-width:1;" x1="623.373" x2="623.373" y1="360.5234" y2="362.5234"/><text fill="#000000" font-family="sans-serif" font-size="12" lengthAdjust="spacing" textLength="52.1191" x="203.3965" y="379.125">Currency</text><rect fill="#EEEEEE" height="17.1328" style="stroke:#000000;stroke-width:1;" width="39" x="307.373" y="367.5234"/><text fill="#000000" font-family="sans-serif" font-size="12" lengthAdjust="spacing" textLength="23.7656" x="309.373" y="381.125">USD</text><line style="stroke:#000000;stroke-width:1;" x1="335.373" x2="335.373" y1="367.5234" y2="384.6563"/><polygon fill="#000000" points="338.373,373.5234,344.373,373.5234,341.373,379.6563" style="stroke:#000000;stroke-width:1;stroke-linejoin:miter;stroke-miterlimit:10;"/><text fill="#000000" font-family="sans-serif" font-size="12" lengthAdjust="spacing" textLength="97.5352" x="203.3965" y="415.3906">Per-member cap</text><text fill="#000000" font-family="sans-serif" font-size="12" lengthAdjust="spacing" textLength="59.4316" x="310.373" y="415.3906">2 / month</text><line style="stroke:#000000;stroke-width:1;" x1="308.373" x2="623.373" y1="417.9219" y2="417.9219"/><line style="stroke:#000000;stroke-width:1;" x1="308.373" x2="308.373" y1="414.9219" y2="416.9219"/><line style="stroke:#000000;stroke-width:1;" x1="623.373" x2="623.373" y1="414.9219" y2="416.9219"/><text fill="#000000" font-family="sans-serif" font-size="12" lengthAdjust="spacing" textLength="43.1895" x="203.3965" y="433.5234">Validity</text><text fill="#000000" font-family="sans-serif" font-size="12" lengthAdjust="spacing" textLength="164.3672" x="310.373" y="433.5234">2026-06-01 .. 2026-12-31</text><line style="stroke:#000000;stroke-width:1;" x1="308.373" x2="623.373" y1="436.0547" y2="436.0547"/><line style="stroke:#000000;stroke-width:1;" x1="308.373" x2="308.373" y1="433.0547" y2="435.0547"/><line style="stroke:#000000;stroke-width:1;" x1="623.373" x2="623.373" y1="433.0547" y2="435.0547"/><line style="stroke:#AAAAAA;stroke-width:1;" x1="202.3965" x2="627.373" y1="444.5547" y2="444.5547"/><text fill="#000000" font-family="sans-serif" font-size="12" lengthAdjust="spacing" textLength="54.2871" x="205.3965" y="476.7891">Inventory</text><line style="stroke:#000000;stroke-width:1;" x1="203.3965" x2="278.3965" y1="479.3203" y2="479.3203"/><line style="stroke:#000000;stroke-width:1;" x1="203.3965" x2="203.3965" y1="476.3203" y2="478.3203"/><line style="stroke:#000000;stroke-width:1;" x1="278.3965" x2="278.3965" y1="476.3203" y2="478.3203"/><text fill="#000000" font-family="sans-serif" font-size="12" lengthAdjust="spacing" textLength="78.1992" x="223.3965" y="495.9219">Limited stock</text><rect fill="none" height="10" style="stroke:#000000;stroke-width:1.5;" width="10" x="205.3965" y="486.3867"/><polygon fill="#000000" points="206.3965,490.3203,209.3965,493.3203,216.3965,484.3203,209.3965,491.3203" style="stroke:#000000;stroke-width:1.5;stroke-linejoin:miter;stroke-miterlimit:10;"/><text fill="#000000" font-family="sans-serif" font-size="12" lengthAdjust="spacing" textLength="29.543" x="203.3965" y="512.0547">Total</text><text fill="#000000" font-family="sans-serif" font-size="12" lengthAdjust="spacing" textLength="30.3516" x="306.5957" y="512.0547">1000</text><line style="stroke:#000000;stroke-width:1;" x1="304.5957" x2="619.5957" y1="514.5859" y2="514.5859"/><line style="stroke:#000000;stroke-width:1;" x1="304.5957" x2="304.5957" y1="511.5859" y2="513.5859"/><line style="stroke:#000000;stroke-width:1;" x1="619.5957" x2="619.5957" y1="511.5859" y2="513.5859"/><text fill="#000000" font-family="sans-serif" font-size="12" lengthAdjust="spacing" textLength="61.418" x="203.3965" y="530.1875">Remaining</text><text fill="#000000" font-family="sans-serif" font-size="12" lengthAdjust="spacing" textLength="30.3516" x="306.5957" y="530.1875">1000</text><line style="stroke:#000000;stroke-width:1;" x1="304.5957" x2="619.5957" y1="532.7188" y2="532.7188"/><line style="stroke:#000000;stroke-width:1;" x1="304.5957" x2="304.5957" y1="529.7188" y2="531.7188"/><line style="stroke:#000000;stroke-width:1;" x1="619.5957" x2="619.5957" y1="529.7188" y2="531.7188"/><line style="stroke:#AAAAAA;stroke-width:1;" x1="202.3965" x2="627.373" y1="540.2188" y2="540.2188"/><line style="stroke:#AAAAAA;stroke-width:1;" x1="202.3965" x2="627.373" y1="542.2188" y2="542.2188"/><rect fill="#EEEEEE" height="18.1328" rx="5" ry="5" style="stroke:#000000;stroke-width:2.5;" width="100" x="204.8965" y="564.3516"/><text fill="#000000" font-family="sans-serif" font-size="12" lengthAdjust="spacing" textLength="57.7734" x="226.0098" y="577.9531">Save draft</text><rect fill="#EEEEEE" height="18.1328" rx="5" ry="5" style="stroke:#000000;stroke-width:2.5;" width="84" x="630.873" y="564.3516"/><text fill="#000000" font-family="sans-serif" font-size="12" lengthAdjust="spacing" textLength="46.3945" x="649.6758" y="577.9531">Activate</text><rect fill="#EEEEEE" height="18.1328" rx="5" ry="5" style="stroke:#000000;stroke-width:2.5;" width="76" x="982.873" y="564.3516"/><text fill="#000000" font-family="sans-serif" font-size="12" lengthAdjust="spacing" textLength="43.1484" x="999.2988" y="577.9531">Archive</text><?plantuml-src dLJTRjem6BtFKtn2lQ3ho18sTZ6fKrEWMjLEGWbZan2PJE862zj1ZaCLbJp07gJFqFizofva9ea9Ao31hFnPEJxdVCTVSfL896I2g3IU382dDp0GSIGG-mI-sxl-wVQ_EsxFys45zt6cO1au8ICSFeEB7v484yZLEdEzLftgEYnkSA7VLzCBEEj05oMpAGhce4VJwGvlH_tp3SYstbgMjP0mYjDWXiLUaFU8yK8Pd-C4-boAR1_epBPsz9ezrxaPbfWSLgNXSaLb5pXYU3rTGMEVuGEZKP6O_vB9R56H-Lt7-tBjTE_y2k599DDaGw3a2c_m-mK4Ne9zcjuW9bn242TIitLKZ73Sq6INbwzO6pSfVI2KCgp85qXrHG9DNSYvNgO3140iJhciA-gO9ti0258XC0-oYiJ_vlNypKlLh16k5Vo180of_LUc78tAgtkhzRgSFYKHcH9AL1T7IE9ajuIlghKbAVjEYtY4Bh6eJNWuAXBPnZYKrW1pypJ4F1KO_lnw1XPpEKkANAnJC-bkPx8lbrfnW4MBOJPL9GHeKUv36zwLyiVgZH0buJgbhVPiM-sFBKiTDfWc53ExtNfl7o0vl0ktVAdIYqMsc_xunmJk2ICIXv38E9ZNGSOIqMqTvSW-hiNhibpC4E64H_zFaX_wLiRWeIM6KA072HF5F0Oda6IfsanFHJ0Z2Z8nD55kvCOLvc7n-pLiSnsg-U4l?></g></svg>