<svg xmlns="http://www.w3.org/2000/svg" xmlns:xlink="http://www.w3.org/1999/xlink" contentStyleType="text/css" data-diagram-type="DESCRIPTION" height="946px" preserveAspectRatio="none" style="width:2200px;height:946px;background:#FFFFFF;" version="1.1" viewBox="0 0 2200 946" width="2200px" zoomAndPan="magnify"><?plantuml 1.2026.4?><defs/><g><g class="title" data-source-line="66"><text fill="#000000" font-family="sans-serif" font-size="14" font-weight="700" lengthAdjust="spacing" textLength="373.9189" x="909.9919" y="23.5352">C4 Level 3 &#8212; loyalty-redemption &#8212; Static Topology</text></g><!--cluster **loyalty-redemption**--><g class="cluster" data-qualified-name="..loyalty-redemption.." data-source-line="113" id="ent0010"><rect fill="#F0F7FF" height="653.4" rx="10" ry="10" style="stroke:#0B4884;stroke-width:1;stroke-dasharray:7,7;" width="1778" x="7" y="153.4683"/><text fill="#000000" font-family="sans-serif" font-size="14" font-style="italic" lengthAdjust="spacing" textLength="36.2236" x="877.8882" y="169.0034">&#171;svc&#187;</text><text fill="#000000" font-family="sans-serif" font-size="14" font-weight="700" lengthAdjust="spacing" textLength="140.4785" x="825.7607" y="185.4917">loyalty-redemption</text></g><!--cluster Inbound--><g class="cluster" data-qualified-name="..loyalty-redemption...Inbound" data-source-line="115" id="ent0011"><path d="M861.5,212.4683 L918.8213,212.4683 A3.75,3.75 0 0 1 921.3213,214.9683 L928.3213,234.9566 L1183.5,234.9566 A2.5,2.5 0 0 1 1186,237.4566 L1186,313.9483 A2.5,2.5 0 0 1 1183.5,316.4483 L861.5,316.4483 A2.5,2.5 0 0 1 859,313.9483 L859,214.9683 A2.5,2.5 0 0 1 861.5,212.4683" fill="#FAFAFA" style="stroke:#9E9E9E;stroke-width:1.5;"/><line style="stroke:#9E9E9E;stroke-width:1.5;" x1="859" x2="928.3213" y1="234.9566" y2="234.9566"/><text fill="#000000" font-family="sans-serif" font-size="14" font-style="italic" lengthAdjust="spacing" textLength="56.3213" x="863" y="228.0034">Inbound</text></g><!--cluster Reward Context--><g class="cluster" data-qualified-name="..loyalty-redemption...Reward Context" data-source-line="120" id="ent0014"><path d="M951.5,525.9083 L1060.4736,525.9083 A3.75,3.75 0 0 1 1062.9736,528.4083 L1069.9736,548.3966 L1280.5,548.3966 A2.5,2.5 0 0 1 1283,550.8966 L1283,627.3883 A2.5,2.5 0 0 1 1280.5,629.8883 L951.5,629.8883 A2.5,2.5 0 0 1 949,627.3883 L949,528.4083 A2.5,2.5 0 0 1 951.5,525.9083" fill="#FAFAFA" style="stroke:#9E9E9E;stroke-width:1.5;"/><line style="stroke:#9E9E9E;stroke-width:1.5;" x1="949" x2="1069.9736" y1="548.3966" y2="548.3966"/><text fill="#000000" font-family="sans-serif" font-size="14" font-style="italic" lengthAdjust="spacing" textLength="107.9736" x="953" y="541.4434">Reward Context</text></g><!--cluster Fulfillment Context--><g class="cluster" data-qualified-name="..loyalty-redemption...Fulfillment Context" data-source-line="125" id="ent0017"><path d="M33.5,365.4483 L165.0869,365.4483 A3.75,3.75 0 0 1 167.5869,367.9483 L174.5869,387.9366 L849.5,387.9366 A2.5,2.5 0 0 1 852,390.4366 L852,780.3683 A2.5,2.5 0 0 1 849.5,782.8683 L33.5,782.8683 A2.5,2.5 0 0 1 31,780.3683 L31,367.9483 A2.5,2.5 0 0 1 33.5,365.4483" fill="#FAFAFA" style="stroke:#9E9E9E;stroke-width:1.5;"/><line style="stroke:#9E9E9E;stroke-width:1.5;" x1="31" x2="174.5869" y1="387.9366" y2="387.9366"/><text fill="#000000" font-family="sans-serif" font-size="14" font-style="italic" lengthAdjust="spacing" textLength="130.5869" x="35" y="380.9834">Fulfillment Context</text></g><!--cluster Cross-cutting--><g class="cluster" data-qualified-name="..loyalty-redemption...Cross-cutting" data-source-line="135" id="ent0024"><path d="M1309.5,525.9083 L1404.6855,525.9083 A3.75,3.75 0 0 1 1407.1855,528.4083 L1414.1855,548.3966 L1749.5,548.3966 A2.5,2.5 0 0 1 1752,550.8966 L1752,627.3883 A2.5,2.5 0 0 1 1749.5,629.8883 L1309.5,629.8883 A2.5,2.5 0 0 1 1307,627.3883 L1307,528.4083 A2.5,2.5 0 0 1 1309.5,525.9083" fill="#FAFAFA" style="stroke:#9E9E9E;stroke-width:1.5;"/><line style="stroke:#9E9E9E;stroke-width:1.5;" x1="1307" x2="1414.1855" y1="548.3966" y2="548.3966"/><text fill="#000000" font-family="sans-serif" font-size="14" font-style="italic" lengthAdjust="spacing" textLength="94.1855" x="1311" y="541.4434">Cross-cutting</text></g><!--cluster Data Tier (loyalty-redemption RDS)--><g class="cluster" data-qualified-name="..loyalty-redemption...Data Tier .loyalty-redemption RDS." data-source-line="141" id="ent0028"><path d="M878.5,678.8883 L1117.3701,678.8883 A3.75,3.75 0 0 1 1119.8701,681.3883 L1126.8701,701.3766 L1758.5,701.3766 A2.5,2.5 0 0 1 1761,703.8766 L1761,780.3683 A2.5,2.5 0 0 1 1758.5,782.8683 L878.5,782.8683 A2.5,2.5 0 0 1 876,780.3683 L876,681.3883 A2.5,2.5 0 0 1 878.5,678.8883" fill="#FAFAFA" style="stroke:#9E9E9E;stroke-width:1.5;"/><line style="stroke:#9E9E9E;stroke-width:1.5;" x1="876" x2="1126.8701" y1="701.3766" y2="701.3766"/><text fill="#000000" font-family="sans-serif" font-size="14" font-style="italic" lengthAdjust="spacing" textLength="237.8701" x="880" y="694.4234">Data Tier (loyalty-redemption RDS)</text></g><!--entity api--><g class="entity" data-qualified-name="..loyalty-redemption...Inbound.api" data-source-line="116" id="ent0012"><rect fill="#0B4884" height="52.9766" rx="2.5" ry="2.5" style="stroke:#073661;stroke-width:0.5;" width="119.1621" x="1050.42" y="247.4683"/><text fill="#FFFFFF" font-family="sans-serif" font-size="14" font-style="italic" lengthAdjust="spacing" textLength="91.335" x="1064.3336" y="271.0034">&#171;component&#187;</text><text fill="#FFFFFF" font-family="sans-serif" font-size="14" lengthAdjust="spacing" textLength="99.1621" x="1060.42" y="287.4917">REST API Layer</text></g><!--entity resume_c--><g class="entity" data-qualified-name="..loyalty-redemption...Inbound.resume_c" data-source-line="117" id="ent0013"><rect fill="#0B4884" height="52.9766" rx="2.5" ry="2.5" style="stroke:#073661;stroke-width:0.5;" width="147.1758" x="875.41" y="247.4683"/><text fill="#FFFFFF" font-family="sans-serif" font-size="14" font-style="italic" lengthAdjust="spacing" textLength="91.335" x="903.3304" y="271.0034">&#171;component&#187;</text><text fill="#FFFFFF" font-family="sans-serif" font-size="14" lengthAdjust="spacing" textLength="127.1758" x="885.41" y="287.4917">Resume Consumer</text></g><!--entity catalog--><g class="entity" data-qualified-name="..loyalty-redemption...Reward Context.catalog" data-source-line="121" id="ent0015"><rect fill="#0B4884" height="52.9766" rx="2.5" ry="2.5" style="stroke:#073661;stroke-width:0.5;" width="142.3906" x="1124.8" y="560.9083"/><text fill="#FFFFFF" font-family="sans-serif" font-size="14" font-style="italic" lengthAdjust="spacing" textLength="91.335" x="1150.3278" y="584.4434">&#171;component&#187;</text><text fill="#FFFFFF" font-family="sans-serif" font-size="14" lengthAdjust="spacing" textLength="122.3906" x="1134.8" y="600.9317">Reward Catalogue</text></g><!--entity elig--><g class="entity" data-qualified-name="..loyalty-redemption...Reward Context.elig" data-source-line="122" id="ent0016"><rect fill="#0B4884" height="52.9766" rx="2.5" ry="2.5" style="stroke:#073661;stroke-width:0.5;" width="131.9316" x="965.03" y="560.9083"/><text fill="#FFFFFF" font-family="sans-serif" font-size="14" font-style="italic" lengthAdjust="spacing" textLength="91.335" x="985.3283" y="584.4434">&#171;component&#187;</text><text fill="#FFFFFF" font-family="sans-serif" font-size="14" lengthAdjust="spacing" textLength="111.9316" x="975.03" y="600.9317">Eligibility Engine</text></g><!--entity saga--><g class="entity" data-qualified-name="..loyalty-redemption...Fulfillment Context.saga" data-source-line="126" id="ent0018"><rect fill="#0B4884" height="69.4648" rx="2.5" ry="2.5" style="stroke:#073661;stroke-width:0.5;" width="191.8076" x="644.1" y="400.4483"/><text fill="#FFFFFF" font-family="sans-serif" font-size="14" font-style="italic" lengthAdjust="spacing" textLength="91.335" x="694.3363" y="423.9834">&#171;component&#187;</text><text fill="#FFFFFF" font-family="sans-serif" font-size="14" lengthAdjust="spacing" textLength="171.8076" x="654.1" y="440.4717">Redemption Orchestrator</text><text fill="#FFFFFF" font-family="sans-serif" font-size="14" lengthAdjust="spacing" textLength="40.8379" x="719.5849" y="456.96">(Saga)</text></g><!--entity spi--><g class="entity" data-qualified-name="..loyalty-redemption...Fulfillment Context.spi" data-source-line="127" id="ent0019"><rect fill="#0B4884" height="52.9766" rx="2.5" ry="2.5" style="stroke:#073661;stroke-width:0.5;" width="188.8545" x="453.57" y="560.9083"/><text fill="#FFFFFF" font-family="sans-serif" font-size="14" font-style="italic" lengthAdjust="spacing" textLength="91.335" x="502.3298" y="584.4434">&#171;component&#187;</text><text fill="#FFFFFF" font-family="sans-serif" font-size="14" lengthAdjust="spacing" textLength="168.8545" x="463.57" y="600.9317">Adapter Framework / SPI</text></g><!--entity a_cash--><g class="entity" data-qualified-name="..loyalty-redemption...Fulfillment Context.a_cash" data-source-line="129" id="ent0020"><rect fill="#00897B" height="52.9766" rx="2.5" ry="2.5" style="stroke:#00695C;stroke-width:0.5;" width="138.918" x="46.54" y="713.8883"/><text fill="#FFFFFF" font-family="sans-serif" font-size="14" font-style="italic" lengthAdjust="spacing" textLength="66.5205" x="82.7387" y="737.4234">&#171;adapter&#187;</text><text fill="#FFFFFF" font-family="sans-serif" font-size="14" lengthAdjust="spacing" textLength="118.918" x="56.54" y="753.9117">CashbackAdapter</text></g><!--entity a_bill--><g class="entity" data-qualified-name="..loyalty-redemption...Fulfillment Context.a_bill" data-source-line="130" id="ent0021"><rect fill="#00897B" height="52.9766" rx="2.5" ry="2.5" style="stroke:#00695C;stroke-width:0.5;" width="207.3799" x="213.31" y="713.8883"/><text fill="#FFFFFF" font-family="sans-serif" font-size="14" font-style="italic" lengthAdjust="spacing" textLength="66.5205" x="283.7397" y="737.4234">&#171;adapter&#187;</text><text fill="#FFFFFF" font-family="sans-serif" font-size="14" lengthAdjust="spacing" textLength="187.3799" x="223.31" y="753.9117">BillPaymentVoucherAdapter</text></g><!--entity a_3p--><g class="entity" data-qualified-name="..loyalty-redemption...Fulfillment Context.a_3p" data-source-line="131" id="ent0022"><rect fill="#00897B" height="52.9766" rx="2.5" ry="2.5" style="stroke:#00695C;stroke-width:0.5;" width="199.4844" x="448.26" y="713.8883"/><text fill="#FFFFFF" font-family="sans-serif" font-size="14" font-style="italic" lengthAdjust="spacing" textLength="66.5205" x="514.7419" y="737.4234">&#171;adapter&#187;</text><text fill="#FFFFFF" font-family="sans-serif" font-size="14" lengthAdjust="spacing" textLength="179.4844" x="458.26" y="753.9117">ThirdPartyVoucherAdapter</text></g><!--entity a_swp--><g class="entity" data-qualified-name="..loyalty-redemption...Fulfillment Context.a_swp" data-source-line="132" id="ent0023"><rect fill="#00897B" height="52.9766" rx="2.5" ry="2.5" style="stroke:#00695C;stroke-width:0.5;" width="159.7402" x="676.13" y="713.8883"/><text fill="#FFFFFF" font-family="sans-serif" font-size="14" font-style="italic" lengthAdjust="spacing" textLength="66.5205" x="722.7399" y="737.4234">&#171;adapter&#187;</text><text fill="#FFFFFF" font-family="sans-serif" font-size="14" lengthAdjust="spacing" textLength="139.7402" x="686.13" y="753.9117">SweepstakesAdapter</text></g><!--entity ledger--><g class="entity" data-qualified-name="..loyalty-redemption...Cross-cutting.ledger" data-source-line="136" id="ent0025"><rect fill="#0B4884" height="52.9766" rx="2.5" ry="2.5" style="stroke:#073661;stroke-width:0.5;" width="113.335" x="1464.33" y="560.9083"/><text fill="#FFFFFF" font-family="sans-serif" font-size="14" font-style="italic" lengthAdjust="spacing" textLength="91.335" x="1475.33" y="584.4434">&#171;component&#187;</text><text fill="#FFFFFF" font-family="sans-serif" font-size="14" lengthAdjust="spacing" textLength="90.2686" x="1475.8632" y="600.9317">Ledger Client</text></g><!--entity audit--><g class="entity" data-qualified-name="..loyalty-redemption...Cross-cutting.audit" data-source-line="137" id="ent0026"><rect fill="#0B4884" height="52.9766" rx="2.5" ry="2.5" style="stroke:#073661;stroke-width:0.5;" width="130.6123" x="1605.69" y="560.9083"/><text fill="#FFFFFF" font-family="sans-serif" font-size="14" font-style="italic" lengthAdjust="spacing" textLength="91.335" x="1625.3287" y="584.4434">&#171;component&#187;</text><text fill="#FFFFFF" font-family="sans-serif" font-size="14" lengthAdjust="spacing" textLength="110.6123" x="1615.69" y="600.9317">Audit Log Writer</text></g><!--entity relay--><g class="entity" data-qualified-name="..loyalty-redemption...Cross-cutting.relay" data-source-line="138" id="ent0027"><rect fill="#0B4884" height="52.9766" rx="2.5" ry="2.5" style="stroke:#073661;stroke-width:0.5;" width="113.335" x="1323.33" y="560.9083"/><text fill="#FFFFFF" font-family="sans-serif" font-size="14" font-style="italic" lengthAdjust="spacing" textLength="91.335" x="1334.33" y="584.4434">&#171;component&#187;</text><text fill="#FFFFFF" font-family="sans-serif" font-size="14" lengthAdjust="spacing" textLength="90.9727" x="1334.5112" y="600.9317">Outbox Relay</text></g><!--entity t_reward--><g class="entity" data-qualified-name="..loyalty-redemption...Data Tier .loyalty-redemption RDS..t_reward" data-source-line="142" id="ent0029"><rect fill="#5D7A99" height="52.9766" rx="2.5" ry="2.5" style="stroke:#3D5470;stroke-width:0.5;" width="66.5869" x="1219.71" y="713.8883"/><text fill="#FFFFFF" font-family="sans-serif" font-size="14" font-style="italic" lengthAdjust="spacing" textLength="44.1807" x="1230.9131" y="737.4234">&#171;data&#187;</text><text fill="#FFFFFF" font-family="sans-serif" font-size="14" lengthAdjust="spacing" textLength="46.5869" x="1229.71" y="753.9117">reward</text></g><!--entity t_inv--><g class="entity" data-qualified-name="..loyalty-redemption...Data Tier .loyalty-redemption RDS..t_inv" data-source-line="143" id="ent0030"><rect fill="#5D7A99" height="52.9766" rx="2.5" ry="2.5" style="stroke:#3D5470;stroke-width:0.5;" width="136.9355" x="1314.53" y="713.8883"/><text fill="#FFFFFF" font-family="sans-serif" font-size="14" font-style="italic" lengthAdjust="spacing" textLength="44.1807" x="1360.9074" y="737.4234">&#171;data&#187;</text><text fill="#FFFFFF" font-family="sans-serif" font-size="14" lengthAdjust="spacing" textLength="116.9355" x="1324.53" y="753.9117">reward_inventory</text></g><!--entity t_elig--><g class="entity" data-qualified-name="..loyalty-redemption...Data Tier .loyalty-redemption RDS..t_elig" data-source-line="144" id="ent0031"><rect fill="#5D7A99" height="52.9766" rx="2.5" ry="2.5" style="stroke:#3D5470;stroke-width:0.5;" width="135.7598" x="1056.12" y="713.8883"/><text fill="#FFFFFF" font-family="sans-serif" font-size="14" font-style="italic" lengthAdjust="spacing" textLength="44.1807" x="1101.9096" y="737.4234">&#171;data&#187;</text><text fill="#FFFFFF" font-family="sans-serif" font-size="14" lengthAdjust="spacing" textLength="115.7598" x="1066.12" y="753.9117">reward_eligibility</text></g><!--entity t_saga--><g class="entity" data-qualified-name="..loyalty-redemption...Data Tier .loyalty-redemption RDS..t_saga" data-source-line="145" id="ent0032"><rect fill="#5D7A99" height="52.9766" rx="2.5" ry="2.5" style="stroke:#3D5470;stroke-width:0.5;" width="136.9219" x="891.54" y="713.8883"/><text fill="#FFFFFF" font-family="sans-serif" font-size="14" font-style="italic" lengthAdjust="spacing" textLength="44.1807" x="937.9106" y="737.4234">&#171;data&#187;</text><text fill="#FFFFFF" font-family="sans-serif" font-size="14" lengthAdjust="spacing" textLength="116.9219" x="901.54" y="753.9117">redemption_saga</text></g><!--entity t_audit--><g class="entity" data-qualified-name="..loyalty-redemption...Data Tier .loyalty-redemption RDS..t_audit" data-source-line="146" id="ent0033"><rect fill="#5D7A99" height="52.9766" rx="2.5" ry="2.5" style="stroke:#3D5470;stroke-width:0.5;" width="168.4834" x="1576.76" y="713.8883"/><text fill="#FFFFFF" font-family="sans-serif" font-size="14" font-style="italic" lengthAdjust="spacing" textLength="44.1807" x="1638.9114" y="737.4234">&#171;data&#187;</text><text fill="#FFFFFF" font-family="sans-serif" font-size="14" lengthAdjust="spacing" textLength="148.4834" x="1586.76" y="753.9117">redemption_audit_log</text></g><!--entity t_outbox--><g class="entity" data-qualified-name="..loyalty-redemption...Data Tier .loyalty-redemption RDS..t_outbox" data-source-line="147" id="ent0034"><rect fill="#5D7A99" height="52.9766" rx="2.5" ry="2.5" style="stroke:#3D5470;stroke-width:0.5;" width="68.5215" x="1479.74" y="713.8883"/><text fill="#FFFFFF" font-family="sans-serif" font-size="14" font-style="italic" lengthAdjust="spacing" textLength="44.1807" x="1491.9104" y="737.4234">&#171;data&#187;</text><text fill="#FFFFFF" font-family="sans-serif" font-size="14" lengthAdjust="spacing" textLength="48.5215" x="1489.74" y="753.9117">outbox</text></g><!--entity mbff--><g class="entity" data-qualified-name="mbff" data-source-line="103" id="ent0001"><rect fill="#B0BEC5" height="52.9766" rx="2.5" ry="2.5" style="stroke:#78909C;stroke-width:0.5;" width="145.9727" x="1037.01" y="44.4883"/><text fill="#000000" font-family="sans-serif" font-size="14" font-style="italic" lengthAdjust="spacing" textLength="36.292" x="1091.8503" y="68.0234">&#171;ext&#187;</text><text fill="#000000" font-family="sans-serif" font-size="14" lengthAdjust="spacing" textLength="125.9727" x="1047.01" y="84.5117">loyalty-mobile-bff</text></g><!--entity abff--><g class="entity" data-qualified-name="abff" data-source-line="104" id="ent0002"><rect fill="#B0BEC5" height="52.9766" rx="2.5" ry="2.5" style="stroke:#78909C;stroke-width:0.5;" width="141.9463" x="1211.03" y="44.4883"/><text fill="#000000" font-family="sans-serif" font-size="14" font-style="italic" lengthAdjust="spacing" textLength="36.292" x="1263.8571" y="68.0234">&#171;ext&#187;</text><text fill="#000000" font-family="sans-serif" font-size="14" lengthAdjust="spacing" textLength="121.9463" x="1221.03" y="84.5117">loyalty-admin-bff</text></g><!--entity core--><g class="entity" data-qualified-name="core" data-source-line="105" id="ent0003"><rect fill="#B0BEC5" height="52.9766" rx="2.5" ry="2.5" style="stroke:#78909C;stroke-width:0.5;" width="101.6895" x="1977.16" y="713.8883"/><text fill="#000000" font-family="sans-serif" font-size="14" font-style="italic" lengthAdjust="spacing" textLength="36.292" x="2009.8587" y="737.4234">&#171;ext&#187;</text><text fill="#000000" font-family="sans-serif" font-size="14" lengthAdjust="spacing" textLength="81.6895" x="1987.16" y="753.9117">loyalty-core</text></g><!--entity camp--><g class="entity" data-qualified-name="camp" data-source-line="106" id="ent0004"><rect fill="#B0BEC5" height="52.9766" rx="2.5" ry="2.5" style="stroke:#78909C;stroke-width:0.5;" width="138.3711" x="686.81" y="871.1083"/><text fill="#000000" font-family="sans-serif" font-size="14" font-style="italic" lengthAdjust="spacing" textLength="36.292" x="737.8496" y="894.6434">&#171;ext&#187;</text><text fill="#000000" font-family="sans-serif" font-size="14" lengthAdjust="spacing" textLength="118.3711" x="696.81" y="911.1317">loyalty-campaign</text></g><!--entity bridge--><g class="entity" data-qualified-name="bridge" data-source-line="107" id="ent0005"><rect fill="#B0BEC5" height="52.9766" rx="2.5" ry="2.5" style="stroke:#78909C;stroke-width:0.5;" width="198.9512" x="795.52" y="44.4883"/><text fill="#000000" font-family="sans-serif" font-size="14" font-style="italic" lengthAdjust="spacing" textLength="36.292" x="876.8496" y="68.0234">&#171;ext&#187;</text><text fill="#000000" font-family="sans-serif" font-size="14" lengthAdjust="spacing" textLength="178.9512" x="805.52" y="84.5117">loyalty-integration-bridge</text></g><!--entity payhub--><g class="entity" data-qualified-name="payhub" data-source-line="108" id="ent0006"><rect fill="#B0BEC5" height="52.9766" rx="2.5" ry="2.5" style="stroke:#78909C;stroke-width:0.5;" width="109.7969" x="61.1" y="871.1083"/><text fill="#000000" font-family="sans-serif" font-size="14" font-style="italic" lengthAdjust="spacing" textLength="36.292" x="97.8524" y="894.6434">&#171;ext&#187;</text><text fill="#000000" font-family="sans-serif" font-size="14" lengthAdjust="spacing" textLength="89.7969" x="71.1" y="911.1317">Payment Hub</text></g><!--entity voucher--><g class="entity" data-qualified-name="voucher" data-source-line="109" id="ent0007"><rect fill="#B0BEC5" height="69.4648" rx="2.5" ry="2.5" style="stroke:#78909C;stroke-width:0.5;" width="145.501" x="475.25" y="862.8683"/><text fill="#000000" font-family="sans-serif" font-size="14" font-style="italic" lengthAdjust="spacing" textLength="36.292" x="529.8545" y="886.4034">&#171;ext&#187;</text><text fill="#000000" font-family="sans-serif" font-size="14" lengthAdjust="spacing" textLength="125.501" x="485.25" y="902.8917">3rd-Party Voucher</text><text fill="#000000" font-family="sans-serif" font-size="14" lengthAdjust="spacing" textLength="55.6992" x="520.1509" y="919.38">Provider</text></g><!--entity s3--><g class="entity" data-qualified-name="s3" data-source-line="110" id="ent0008"><rect fill="#B0BEC5" height="52.9766" rx="2.5" ry="2.5" style="stroke:#78909C;stroke-width:0.5;" width="141.1465" x="246.43" y="871.1083"/><text fill="#000000" font-family="sans-serif" font-size="14" font-style="italic" lengthAdjust="spacing" textLength="36.292" x="298.8572" y="894.6434">&#171;ext&#187;</text><text fill="#000000" font-family="sans-serif" font-size="14" lengthAdjust="spacing" textLength="121.1465" x="256.43" y="911.1317">S3 (voucher PDFs)</text></g><!--entity msk--><g class="entity" data-qualified-name="msk" data-source-line="111" id="ent0009"><rect fill="#B0BEC5" height="52.9766" rx="2.5" ry="2.5" style="stroke:#78909C;stroke-width:0.5;" width="141.8301" x="1801.08" y="713.8883"/><text fill="#000000" font-family="sans-serif" font-size="14" font-style="italic" lengthAdjust="spacing" textLength="36.292" x="1853.849" y="737.4234">&#171;ext&#187;</text><text fill="#000000" font-family="sans-serif" font-size="14" lengthAdjust="spacing" textLength="121.8301" x="1811.08" y="753.9117">Shared MSK Kafka</text></g><!--link mbff to api--><g class="link" data-entity-1="ent0001" data-entity-2="ent0012" data-link-type="dependency" data-source-line="152" id="lnk35"><path d="M1110,97.8483 C1110,136.4383 1110,203.6583 1110,242.1983" fill="none" id="mbff-to-api" style="stroke:#181818;stroke-width:1;"/><polygon fill="#181818" points="1110,247.1983,1114,238.1983,1110,242.1983,1106,238.1983,1110,247.1983" style="stroke:#181818;stroke-width:1;stroke-linejoin:miter;stroke-miterlimit:10;"/><text fill="#000000" font-family="sans-serif" font-size="13" lengthAdjust="spacing" textLength="104.0508" x="1111" y="134.0366">browse / submit</text></g><!--link abff to api--><g class="link" data-entity-1="ent0002" data-entity-2="ent0012" data-link-type="dependency" data-source-line="153" id="lnk36"><path d="M1259.87,97.8483 C1226.84,136.4383 1168.2809,204.8594 1135.3009,243.3994" fill="none" id="abff-to-api" style="stroke:#181818;stroke-width:1;"/><polygon fill="#181818" points="1132.05,247.1983,1140.9407,242.9609,1135.3009,243.3994,1134.8624,237.7595,1132.05,247.1983" style="stroke:#181818;stroke-width:1;stroke-linejoin:miter;stroke-miterlimit:10;"/><text fill="#000000" font-family="sans-serif" font-size="13" lengthAdjust="spacing" textLength="86.2329" x="1241.43" y="134.0366">Reward CRUD</text></g><!--link bridge to resume_c--><g class="link" data-entity-1="ent0005" data-entity-2="ent0013" data-link-type="dependency" data-source-line="154" id="lnk37"><path d="M901.95,97.8483 C912.32,136.4383 930.422,203.8297 940.782,242.3697" fill="none" id="bridge-to-resume_c" style="stroke:#181818;stroke-width:1;"/><polygon fill="#181818" points="942.08,247.1983,943.6065,237.4684,940.782,242.3697,935.8808,239.5452,942.08,247.1983" style="stroke:#181818;stroke-width:1;stroke-linejoin:miter;stroke-miterlimit:10;"/><text fill="#000000" font-family="sans-serif" font-size="13" lengthAdjust="spacing" textLength="180.0195" x="913.47" y="134.0366">loyalty.fulfillment.resume.v1</text></g><!--link api to catalog--><g class="link" data-entity-1="ent0012" data-entity-2="ent0015" data-link-type="dependency" data-source-line="157" id="lnk38"><path d="M1145.15,300.8283 C1154.79,309.7383 1164.17,320.5183 1170,332.4483 C1207.25,408.7083 1203.7741,507.9989 1199.4241,555.6989" fill="none" id="api-to-catalog" style="stroke:#181818;stroke-width:1;"/><polygon fill="#181818" points="1198.97,560.6783,1203.7708,552.0787,1199.4241,555.6989,1195.8039,551.3522,1198.97,560.6783" style="stroke:#181818;stroke-width:1;stroke-linejoin:miter;stroke-miterlimit:10;"/></g><!--link api to saga--><g class="link" data-entity-1="ent0012" data-entity-2="ent0018" data-link-type="dependency" data-source-line="158" id="lnk39"><path d="M1079.67,300.8783 C1059.99,316.6483 1033.21,336.2383 1007,349.4483 C952.93,376.6883 893.1252,396.1676 840.9952,410.3276" fill="none" id="api-to-saga" style="stroke:#181818;stroke-width:1;"/><polygon fill="#181818" points="836.17,411.6383,845.9038,413.1392,840.9952,410.3276,843.8068,405.419,836.17,411.6383" style="stroke:#181818;stroke-width:1;stroke-linejoin:miter;stroke-miterlimit:10;"/><text fill="#000000" font-family="sans-serif" font-size="13" lengthAdjust="spacing" textLength="127.9688" x="1035.13" y="346.0166">submitRedemption()</text></g><!--link api to audit--><g class="link" data-entity-1="ent0012" data-entity-2="ent0026" data-link-type="dependency" data-source-line="159" id="lnk40"><path d="M1169.94,293.0683 C1265.13,323.7383 1453.87,392.5283 1589,492.9083 C1614.65,511.9683 1635.0717,536.2121 1650.2517,556.6821" fill="none" id="api-to-audit" style="stroke:#181818;stroke-width:1;"/><polygon fill="#181818" points="1653.23,560.6983,1651.082,551.0865,1650.2517,556.6821,1644.6561,555.8518,1653.23,560.6983" style="stroke:#181818;stroke-width:1;stroke-linejoin:miter;stroke-miterlimit:10;"/></g><!--link resume_c to saga--><g class="link" data-entity-1="ent0013" data-entity-2="ent0018" data-link-type="dependency" data-source-line="161" id="lnk41"><path d="M875.03,286.6883 C843.46,294.9383 808.17,308.8983 783,332.4483 C763.82,350.3883 754.1741,373.4468 748.1241,395.4768" fill="none" id="resume_c-to-saga" style="stroke:#181818;stroke-width:1;"/><polygon fill="#181818" points="746.8,400.2983,753.0406,392.6789,748.1241,395.4768,745.3262,390.5603,746.8,400.2983" style="stroke:#181818;stroke-width:1;stroke-linejoin:miter;stroke-miterlimit:10;"/><text fill="#000000" font-family="sans-serif" font-size="13" lengthAdjust="spacing" textLength="219.6099" x="784" y="346.0166">resumeSaga(externalRef, outcome)</text></g><!--link saga to elig--><g class="link" data-entity-1="ent0018" data-entity-2="ent0016" data-link-type="dependency" data-source-line="164" id="lnk42"><path d="M806.03,470.2683 C859.19,497.7083 928.3171,533.3947 976.6471,558.3447" fill="none" id="saga-to-elig" style="stroke:#181818;stroke-width:1;"/><polygon fill="#181818" points="981.09,560.6383,974.9277,552.9555,976.6471,558.3447,971.2579,560.0641,981.09,560.6383" style="stroke:#181818;stroke-width:1;stroke-linejoin:miter;stroke-miterlimit:10;"/><text fill="#000000" font-family="sans-serif" font-size="13" lengthAdjust="spacing" textLength="148.4272" x="877.77" y="506.4766">check(member, reward)</text></g><!--link saga to ledger--><g class="link" data-entity-1="ent0018" data-entity-2="ent0025" data-link-type="dependency" data-source-line="165" id="lnk43"><path d="M836.13,445.5583 C1023.92,464.0983 1423.63,504.8083 1451,517.9083 C1471.24,527.5983 1486.0024,541.6812 1498.6724,556.7512" fill="none" id="saga-to-ledger" style="stroke:#181818;stroke-width:1;"/><polygon fill="#181818" points="1501.89,560.5783,1499.16,551.1154,1498.6724,556.7512,1493.0366,556.2636,1501.89,560.5783" style="stroke:#181818;stroke-width:1;stroke-linejoin:miter;stroke-miterlimit:10;"/><text fill="#000000" font-family="sans-serif" font-size="13" lengthAdjust="spacing" textLength="167.959" x="1413.74" y="506.4766">reserve / commit / release</text></g><!--link saga to spi--><g class="link" data-entity-1="ent0018" data-entity-2="ent0019" data-link-type="dependency" data-source-line="166" id="lnk44"><path d="M643.84,468.2183 C630.32,475.1183 617.23,483.2983 606,492.9083 C584.38,511.4183 570.3972,535.5187 560.7172,556.2287" fill="none" id="saga-to-spi" style="stroke:#181818;stroke-width:1;"/><polygon fill="#181818" points="558.6,560.7583,566.0346,554.2987,560.7172,556.2287,558.7872,550.9112,558.6,560.7583" style="stroke:#181818;stroke-width:1;stroke-linejoin:miter;stroke-miterlimit:10;"/><text fill="#000000" font-family="sans-serif" font-size="13" lengthAdjust="spacing" textLength="135.6685" x="607" y="506.4766">dispatch(rewardType)</text></g><!--link spi to a_cash--><g class="link" data-entity-1="ent0019" data-entity-2="ent0020" data-link-type="dependency" data-source-line="167" id="lnk45"><path d="M453.29,598.8783 C380.73,609.6683 279.71,630.7983 199,670.8883 C177.42,681.6083 160.1501,695.4905 144.7201,710.0205" fill="none" id="spi-to-a_cash" style="stroke:#181818;stroke-width:1;"/><polygon fill="#181818" points="141.08,713.4483,150.3744,710.1904,144.7201,710.0205,144.89,704.3662,141.08,713.4483" style="stroke:#181818;stroke-width:1;stroke-linejoin:miter;stroke-miterlimit:10;"/></g><!--link spi to a_bill--><g class="link" data-entity-1="ent0019" data-entity-2="ent0021" data-link-type="dependency" data-source-line="168" id="lnk46"><path d="M508.29,614.3483 C465.85,642.0883 403.1556,683.0732 360.7656,710.7732" fill="none" id="spi-to-a_bill" style="stroke:#181818;stroke-width:1;"/><polygon fill="#181818" points="356.58,713.5083,366.3022,711.9336,360.7656,710.7732,361.926,705.2366,356.58,713.5083" style="stroke:#181818;stroke-width:1;stroke-linejoin:miter;stroke-miterlimit:10;"/></g><!--link spi to a_3p--><g class="link" data-entity-1="ent0019" data-entity-2="ent0022" data-link-type="dependency" data-source-line="169" id="lnk47"><path d="M548,614.3483 C548,642.0883 548,680.8083 548,708.5083" fill="none" id="spi-to-a_3p" style="stroke:#181818;stroke-width:1;"/><polygon fill="#181818" points="548,713.5083,552,704.5083,548,708.5083,544,704.5083,548,713.5083" style="stroke:#181818;stroke-width:1;stroke-linejoin:miter;stroke-miterlimit:10;"/></g><!--link spi to a_swp--><g class="link" data-entity-1="ent0019" data-entity-2="ent0023" data-link-type="dependency" data-source-line="170" id="lnk48"><path d="M583.96,614.3783 C606.41,630.5983 635.91,651.9383 662,670.8883 C681.44,685.0083 699.0797,697.8528 716.7197,710.7128" fill="none" id="spi-to-a_swp" style="stroke:#181818;stroke-width:1;"/><polygon fill="#181818" points="720.76,713.6583,715.8438,705.1242,716.7197,710.7128,711.1311,711.5887,720.76,713.6583" style="stroke:#181818;stroke-width:1;stroke-linejoin:miter;stroke-miterlimit:10;"/></g><!--link saga to relay--><g class="link" data-entity-1="ent0018" data-entity-2="ent0027" data-link-type="dependency" data-source-line="171" id="lnk49"><path d="M835.97,437.5183 C947.06,442.0083 1133.74,458.7283 1282,517.9083 C1307.25,527.9883 1328.4264,542.5515 1346.8964,557.4315" fill="none" id="saga-to-relay" style="stroke:#181818;stroke-width:1;"/><polygon fill="#181818" points="1350.79,560.5683,1346.2909,551.8071,1346.8964,557.4315,1341.272,558.0369,1350.79,560.5683" style="stroke:#181818;stroke-width:1;stroke-linejoin:miter;stroke-miterlimit:10;"/></g><!--link a_cash to payhub--><g class="link" data-entity-1="ent0020" data-entity-2="ent0006" data-link-type="dependency" data-source-line="174" id="lnk50"><path d="M116,767.3583 C116,796.0983 116,837.1183 116,865.7883" fill="none" id="a_cash-to-payhub" style="stroke:#181818;stroke-width:1;"/><polygon fill="#181818" points="116,870.7883,120,861.7883,116,865.7883,112,861.7883,116,870.7883" style="stroke:#181818;stroke-width:1;stroke-linejoin:miter;stroke-miterlimit:10;"/><text fill="#000000" font-family="sans-serif" font-size="13" lengthAdjust="spacing" textLength="152.9214" x="117" y="836.4366">disburse(amount, CASA)</text></g><!--link a_bill to s3--><g class="link" data-entity-1="ent0021" data-entity-2="ent0008" data-link-type="dependency" data-source-line="175" id="lnk51"><path d="M317,767.3583 C317,796.0983 317,837.1183 317,865.7883" fill="none" id="a_bill-to-s3" style="stroke:#181818;stroke-width:1;"/><polygon fill="#181818" points="317,870.7883,321,861.7883,317,865.7883,313,861.7883,317,870.7883" style="stroke:#181818;stroke-width:1;stroke-linejoin:miter;stroke-miterlimit:10;"/><text fill="#000000" font-family="sans-serif" font-size="13" lengthAdjust="spacing" textLength="109.0527" x="318" y="836.4366">PDF render + put</text></g><!--link a_3p to voucher--><g class="link" data-entity-1="ent0022" data-entity-2="ent0007" data-link-type="dependency" data-source-line="176" id="lnk52"><path d="M548,767.3583 C548,793.5083 548,828.9683 548,857.6483" fill="none" id="a_3p-to-voucher" style="stroke:#181818;stroke-width:1;"/><polygon fill="#181818" points="548,862.6483,552,853.6483,548,857.6483,544,853.6483,548,862.6483" style="stroke:#181818;stroke-width:1;stroke-linejoin:miter;stroke-miterlimit:10;"/><text fill="#000000" font-family="sans-serif" font-size="13" lengthAdjust="spacing" textLength="91.3618" x="549" y="836.4366">provision(SKU)</text></g><!--link a_swp to camp--><g class="link" data-entity-1="ent0023" data-entity-2="ent0004" data-link-type="dependency" data-source-line="177" id="lnk53"><path d="M756,767.3583 C756,796.0983 756,837.1183 756,865.7883" fill="none" id="a_swp-to-camp" style="stroke:#181818;stroke-width:1;"/><polygon fill="#181818" points="756,870.7883,760,861.7883,756,865.7883,752,861.7883,756,870.7883" style="stroke:#181818;stroke-width:1;stroke-linejoin:miter;stroke-miterlimit:10;"/><text fill="#000000" font-family="sans-serif" font-size="13" lengthAdjust="spacing" textLength="129.0923" x="757" y="836.4366">Drawing.recordEntry</text></g><!--link catalog to t_reward--><g class="link" data-entity-1="ent0015" data-entity-2="ent0029" data-link-type="dependency" data-source-line="180" id="lnk54"><path d="M1205.8,614.3483 C1216.27,642.0883 1231.0037,681.1307 1241.4637,708.8307" fill="none" id="catalog-to-t_reward" style="stroke:#181818;stroke-width:1;"/><polygon fill="#181818" points="1243.23,713.5083,1243.7927,703.6755,1241.4637,708.8307,1236.3085,706.5017,1243.23,713.5083" style="stroke:#181818;stroke-width:1;stroke-linejoin:miter;stroke-miterlimit:10;"/></g><!--link catalog to t_inv--><g class="link" data-entity-1="ent0015" data-entity-2="ent0030" data-link-type="dependency" data-source-line="181" id="lnk55"><path d="M1228.92,614.2383 C1249.44,630.4183 1276.35,651.7583 1300,670.8883 C1317.28,684.8683 1332.5806,697.4574 1348.1306,710.3474" fill="none" id="catalog-to-t_inv" style="stroke:#181818;stroke-width:1;"/><polygon fill="#181818" points="1351.98,713.5383,1347.6038,704.7151,1348.1306,710.3474,1342.4983,710.8741,1351.98,713.5383" style="stroke:#181818;stroke-width:1;stroke-linejoin:miter;stroke-miterlimit:10;"/></g><!--link elig to t_elig--><g class="link" data-entity-1="ent0016" data-entity-2="ent0031" data-link-type="dependency" data-source-line="182" id="lnk56"><path d="M1046.99,614.3483 C1064.07,642.0883 1088.3769,681.5516 1105.4469,709.2516" fill="none" id="elig-to-t_elig" style="stroke:#181818;stroke-width:1;"/><polygon fill="#181818" points="1108.07,713.5083,1106.7537,703.7478,1105.4469,709.2516,1099.943,707.9448,1108.07,713.5083" style="stroke:#181818;stroke-width:1;stroke-linejoin:miter;stroke-miterlimit:10;"/></g><!--link saga to t_saga--><g class="link" data-entity-1="ent0018" data-entity-2="ent0032" data-link-type="dependency" data-source-line="183" id="lnk57"><path d="M764.81,470.3683 C809.31,531.6983 898.8039,655.0312 938.3939,709.6012" fill="none" id="saga-to-t_saga" style="stroke:#181818;stroke-width:1;"/><polygon fill="#181818" points="941.33,713.6483,939.2826,704.0146,938.3939,709.6012,932.8073,708.7124,941.33,713.6483" style="stroke:#181818;stroke-width:1;stroke-linejoin:miter;stroke-miterlimit:10;"/></g><!--link audit to t_audit--><g class="link" data-entity-1="ent0026" data-entity-2="ent0033" data-link-type="dependency" data-source-line="184" id="lnk58"><path d="M1669.28,614.3483 C1667.44,642.0883 1664.8814,680.8193 1663.0414,708.5193" fill="none" id="audit-to-t_audit" style="stroke:#181818;stroke-width:1;"/><polygon fill="#181818" points="1662.71,713.5083,1667.2977,704.7932,1663.0414,708.5193,1659.3153,704.263,1662.71,713.5083" style="stroke:#181818;stroke-width:1;stroke-linejoin:miter;stroke-miterlimit:10;"/></g><!--link relay to t_outbox--><g class="link" data-entity-1="ent0027" data-entity-2="ent0034" data-link-type="dependency" data-source-line="185" id="lnk59"><path d="M1409.22,614.3183 C1426.25,629.9983 1447.69,650.7783 1465,670.8883 C1476.54,684.2983 1485.3004,696.1991 1494.3004,709.3791" fill="none" id="relay-to-t_outbox" style="stroke:#181818;stroke-width:1;"/><polygon fill="#181818" points="1497.12,713.5083,1495.348,703.8201,1494.3004,709.3791,1488.7414,708.3315,1497.12,713.5083" style="stroke:#181818;stroke-width:1;stroke-linejoin:miter;stroke-miterlimit:10;"/></g><!--link ledger to core--><g class="link" data-entity-1="ent0025" data-entity-2="ent0003" data-link-type="dependency" data-source-line="188" id="lnk60"><path d="M1549.99,614.3183 C1562.1,623.5483 1576.88,632.8983 1592,637.8883 C1621.03,647.4683 1836.77,641.3183 1867,645.8883 C1908.05,652.0883 1920.96,650.2883 1957,670.8883 C1976.18,681.8483 1990.7156,695.4414 2003.7356,709.9114" fill="none" id="ledger-to-core" style="stroke:#181818;stroke-width:1;"/><polygon fill="#181818" points="2007.08,713.6283,2004.0336,704.2624,2003.7356,709.9114,1998.0866,709.6135,2007.08,713.6283" style="stroke:#181818;stroke-width:1;stroke-linejoin:miter;stroke-miterlimit:10;"/><text fill="#000000" font-family="sans-serif" font-size="13" lengthAdjust="spacing" textLength="242.6328" x="1942.27" y="659.4566">POST /reservations, /commit, /release</text></g><!--link relay to msk--><g class="link" data-entity-1="ent0027" data-entity-2="ent0009" data-link-type="dependency" data-source-line="189" id="lnk61"><path d="M1409.41,614.2383 C1421.25,623.2283 1435.52,632.4283 1450,637.8883 C1579.64,686.7883 1628.81,626.3283 1760,670.8883 C1788.49,680.5583 1813.2892,695.5792 1834.5892,710.6592" fill="none" id="relay-to-msk" style="stroke:#181818;stroke-width:1;"/><polygon fill="#181818" points="1838.67,713.5483,1833.6359,705.0832,1834.5892,710.6592,1829.0133,711.6125,1838.67,713.5483" style="stroke:#181818;stroke-width:1;stroke-linejoin:miter;stroke-miterlimit:10;"/><text fill="#000000" font-family="sans-serif" font-size="13" lengthAdjust="spacing" textLength="128.5972" x="1731.01" y="659.4566">loyalty.redemption.*</text></g><?plantuml-src XLVTRk8u5BxFKrZXOg5REipGbbADAdLegwtQLH4mkpSh8ITnWaKIHxO3ZKOZxTK-m6gVS9vaZ-qa12Vj1AaqzdVE-SwlZQGo9cXsZfx9ZiHeZ7xy_H-AMO5ZMGmv2KYIISfIlRoKM58VhLZ6OXOLZYEsDCqmnmaI6nomFKqZ5E9OaCPEG4ASnt95NkLjJACq8Qb4FlmXl85AMK04oT2dgyOYn-bMBPvVD4rnuakSHi3wcuFWuInFWndZAU6VFukTVtE33i-daSPyOJmWV2cBcBGn0HOR4XWSzhTHgJ1cbhvUE0edOTXGs07Im95tVdLrxdIhz5cIiHG2038LKW4VM2ex89Lj_RHjsz3UQ3A-lFpuXcqSu0m2hx6zqUXgEl5isqt8JspRKD1uERtmtx0TO8ahQEyYcE3frBRTXFp4jWtjZOEByyde3TjGV0UMtiWZ_eLjkmcftL5FsxODxKskfgEfxtnlbca6771K5Qd52Fp2wcFhDkgcH7rgWhfiIrDKufXgIx-W-rS8VefZb18QRJoMS-4SciEjcZXX7et9q0j35w6AF1OeWPKkF0uIcfRm9Xw_WVSP9suLYWPUhNVYSP9X60IkZOVrBZo5KH5nhARGqECqYC1QGymiDGNdkD13vhVSgtar9J9SR7AlAJ7cmN2EkIpG7optDuJ_bSuvsr58ov6jdTbjYYx7g5yke_dTWnXOKHFZ8_G6mqn5lo-Vq1CEjzYEGIAsJXD_Sj8UnISdYfEPETzKlLULvZwcdgemjngC1psB--KAtSuVqJCkb4-DvtY4g3ndj2LEH9x0AS5IzNqatnBd6hlsGSVt8tOBiiSyK4ea-Dj5iWH0PyFnaXFt7Ik-0Tagxk64eL3k559vdqOqRLQcfO80jaNo8Oz36iUwVjvZMf-BBnnIBoJK9uEgwIznX0Tkjq41UxQcMpD2qGEC3B9dV8i-eENyqUsKXyJOyZCukpmWN-evpanZFgkyhdq0smg-WBTbmvIrNwjgAu38nhQ2rORoG3UFBT-XO9pPuiiz8PcGU4k4xKDRNEopLiPcd0anz7CfuVRHaQjd0kE1erbCmSMZocz7EDROLexoW4hqp2Bq9wV7GMutZyBQ2bvowR5Nj20nBeuPTBKFW5fEta6venK5F_eTTxF5tNBGuJdN_MGPHFNH2SRasc2w9TSqtG4lnWktGn8stn0ZXoPqMs9brrbobIjhrIDk5z6kvcd8wRYlOIAubbndGfXEoFkHCHYT2NtQbiFLKSSc6Wvlr9mqSjTm1h6z8D2w8lSIC8SxCDLqMtozSyoPfH7Lk0H4cTcpy323pipssUwZeg06-8z__aLroGX76L1ggdbOlQjmLPODgSFCwWzgc8cEKvEeHQzBOcgUzKbvqLYGy1H1NC0-6IX2QXUfyrdj2aTBAXKgoSOs30H_sqz8uX5-Yao130v0qt38c2Dyfs88se4k_0EjGB3wBL6XHHdDQnHGaM7fR_f6uwh8W93UrbwPITTuruEhyGvpgF6cnafjn3IWYdOvcdKXGEOXnZ4uQPHhgBb8b7myk7wHFau0Aa_Hx7Pv2s7MXWttSPKEk2M0aHJk5kXNbELGBK076IxLJU8QPUh-8LIsbazVbIOWYSfK9vdHTCUn-ia5HG9thU0-bLmJNs4FYfpjuGUHsD3CAMj32zSTVxoechbAcbdHVLfLaLdIBQWhfbuozQD3Lg-LZGD4Ngh8OL6albCcM_i0TqCJZ1Uuc7mmoTTNF76AFfWAE5NhfW9A0qeIRaZ6-QfR3aFWxCJv7m00?></g></svg>