<svg xmlns="http://www.w3.org/2000/svg" xmlns:xlink="http://www.w3.org/1999/xlink" contentStyleType="text/css" data-diagram-type="DESCRIPTION" height="788px" preserveAspectRatio="none" style="width:1360px;height:788px;background:#FFFFFF;" version="1.1" viewBox="0 0 1360 788" width="1360px" zoomAndPan="magnify"><?plantuml 1.2026.4?><defs/><g><g class="title" data-source-line="65"><text fill="#000000" font-family="sans-serif" font-size="14" font-weight="700" lengthAdjust="spacing" textLength="345.6318" x="504.1088" y="23.5352">C4 Level 3 &#8212; loyalty-earning &#8212; Static Topology</text></g><!--cluster **loyalty-earning**--><g class="cluster" data-qualified-name="..loyalty-earning.." data-source-line="102" id="ent0004"><rect fill="#F0F7FF" height="636.91" rx="10" ry="10" style="stroke:#0B4884;stroke-width:1;stroke-dasharray:7,7;" width="1052" x="7" y="137.4583"/><text fill="#000000" font-family="sans-serif" font-size="14" font-style="italic" lengthAdjust="spacing" textLength="36.2236" x="514.8882" y="152.9934">&#171;svc&#187;</text><text fill="#000000" font-family="sans-serif" font-size="14" font-weight="700" lengthAdjust="spacing" textLength="112.1914" x="476.9043" y="169.4817">loyalty-earning</text></g><!--cluster Inbound--><g class="cluster" data-qualified-name="..loyalty-earning...Inbound" data-source-line="104" id="ent0005"><path d="M218.5,196.4583 L275.8213,196.4583 A3.75,3.75 0 0 1 278.3213,198.9583 L285.3213,218.9466 L557.5,218.9466 A2.5,2.5 0 0 1 560,221.4466 L560,297.9383 A2.5,2.5 0 0 1 557.5,300.4383 L218.5,300.4383 A2.5,2.5 0 0 1 216,297.9383 L216,198.9583 A2.5,2.5 0 0 1 218.5,196.4583" fill="#FAFAFA" style="stroke:#9E9E9E;stroke-width:1.5;"/><line style="stroke:#9E9E9E;stroke-width:1.5;" x1="216" x2="285.3213" y1="218.9466" y2="218.9466"/><text fill="#000000" font-family="sans-serif" font-size="14" font-style="italic" lengthAdjust="spacing" textLength="56.3213" x="220" y="211.9934">Inbound</text></g><!--cluster Application Components--><g class="cluster" data-qualified-name="..loyalty-earning...Application Components" data-source-line="109" id="ent0008"><path d="M33.5,349.4383 L202.0967,349.4383 A3.75,3.75 0 0 1 204.5967,351.9383 L211.5967,371.9266 L512.5,371.9266 A2.5,2.5 0 0 1 515,374.4266 L515,594.8883 A2.5,2.5 0 0 1 512.5,597.3883 L33.5,597.3883 A2.5,2.5 0 0 1 31,594.8883 L31,351.9383 A2.5,2.5 0 0 1 33.5,349.4383" fill="#FAFAFA" style="stroke:#9E9E9E;stroke-width:1.5;"/><line style="stroke:#9E9E9E;stroke-width:1.5;" x1="31" x2="211.5967" y1="371.9266" y2="371.9266"/><text fill="#000000" font-family="sans-serif" font-size="14" font-style="italic" lengthAdjust="spacing" textLength="167.5967" x="35" y="364.9734">Application Components</text></g><!--cluster Outbound--><g class="cluster" data-qualified-name="..loyalty-earning...Outbound" data-source-line="117" id="ent0014"><path d="M750.5,493.4183 L819.9004,493.4183 A3.75,3.75 0 0 1 822.4004,495.9183 L829.4004,515.9066 L1032.5,515.9066 A2.5,2.5 0 0 1 1035,518.4066 L1035,594.8883 A2.5,2.5 0 0 1 1032.5,597.3883 L750.5,597.3883 A2.5,2.5 0 0 1 748,594.8883 L748,495.9183 A2.5,2.5 0 0 1 750.5,493.4183" fill="#FAFAFA" style="stroke:#9E9E9E;stroke-width:1.5;"/><line style="stroke:#9E9E9E;stroke-width:1.5;" x1="748" x2="829.4004" y1="515.9066" y2="515.9066"/><text fill="#000000" font-family="sans-serif" font-size="14" font-style="italic" lengthAdjust="spacing" textLength="68.4004" x="752" y="508.9534">Outbound</text></g><!--cluster Data Tier (loyalty-earning RDS)--><g class="cluster" data-qualified-name="..loyalty-earning...Data Tier .loyalty-earning RDS." data-source-line="122" id="ent0017"><path d="M39.5,646.3883 L251.1904,646.3883 A3.75,3.75 0 0 1 253.6904,648.8883 L260.6904,668.8766 L862.5,668.8766 A2.5,2.5 0 0 1 865,671.3766 L865,747.8683 A2.5,2.5 0 0 1 862.5,750.3683 L39.5,750.3683 A2.5,2.5 0 0 1 37,747.8683 L37,648.8883 A2.5,2.5 0 0 1 39.5,646.3883" fill="#FAFAFA" style="stroke:#9E9E9E;stroke-width:1.5;"/><line style="stroke:#9E9E9E;stroke-width:1.5;" x1="37" x2="260.6904" y1="668.8766" y2="668.8766"/><text fill="#000000" font-family="sans-serif" font-size="14" font-style="italic" lengthAdjust="spacing" textLength="210.6904" x="41" y="661.9234">Data Tier (loyalty-earning RDS)</text></g><!--entity api--><g class="entity" data-qualified-name="..loyalty-earning...Inbound.api" data-source-line="105" id="ent0006"><rect fill="#0B4884" height="52.9766" rx="2.5" ry="2.5" style="stroke:#073661;stroke-width:0.5;" width="119.1621" x="232.42" y="231.4583"/><text fill="#FFFFFF" font-family="sans-serif" font-size="14" font-style="italic" lengthAdjust="spacing" textLength="91.335" x="246.3336" y="254.9934">&#171;component&#187;</text><text fill="#FFFFFF" font-family="sans-serif" font-size="14" lengthAdjust="spacing" textLength="99.1621" x="242.42" y="271.4817">REST API Layer</text></g><!--entity consumer--><g class="entity" data-qualified-name="..loyalty-earning...Inbound.consumer" data-source-line="106" id="ent0007"><rect fill="#0B4884" height="52.9766" rx="2.5" ry="2.5" style="stroke:#073661;stroke-width:0.5;" width="164.5527" x="379.72" y="231.4583"/><text fill="#FFFFFF" font-family="sans-serif" font-size="14" font-style="italic" lengthAdjust="spacing" textLength="91.335" x="416.3289" y="254.9934">&#171;component&#187;</text><text fill="#FFFFFF" font-family="sans-serif" font-size="14" lengthAdjust="spacing" textLength="144.5527" x="389.72" y="271.4817">Earn Event Consumer</text></g><!--entity registry--><g class="entity" data-qualified-name="..loyalty-earning...Application Components.registry" data-source-line="110" id="ent0009"><rect fill="#0B4884" height="52.9766" rx="2.5" ry="2.5" style="stroke:#073661;stroke-width:0.5;" width="158.9678" x="188.52" y="528.4183"/><text fill="#FFFFFF" font-family="sans-serif" font-size="14" font-style="italic" lengthAdjust="spacing" textLength="91.335" x="222.3364" y="551.9534">&#171;component&#187;</text><text fill="#FFFFFF" font-family="sans-serif" font-size="14" lengthAdjust="spacing" textLength="138.9678" x="198.52" y="568.4417">Earn Source Registry</text></g><!--entity engine--><g class="entity" data-qualified-name="..loyalty-earning...Application Components.engine" data-source-line="111" id="ent0010"><rect fill="#0B4884" height="52.9766" rx="2.5" ry="2.5" style="stroke:#073661;stroke-width:0.5;" width="113.335" x="385.33" y="384.4383"/><text fill="#FFFFFF" font-family="sans-serif" font-size="14" font-style="italic" lengthAdjust="spacing" textLength="91.335" x="396.33" y="407.9734">&#171;component&#187;</text><text fill="#FFFFFF" font-family="sans-serif" font-size="14" lengthAdjust="spacing" textLength="79.3584" x="402.3183" y="424.4617">Rule Engine</text></g><!--entity dsl--><g class="entity" data-qualified-name="..loyalty-earning...Application Components.dsl" data-source-line="112" id="ent0011"><rect fill="#0B4884" height="52.9766" rx="2.5" ry="2.5" style="stroke:#073661;stroke-width:0.5;" width="122.5117" x="375.74" y="528.4183"/><text fill="#FFFFFF" font-family="sans-serif" font-size="14" font-style="italic" lengthAdjust="spacing" textLength="91.335" x="391.3284" y="551.9534">&#171;component&#187;</text><text fill="#FFFFFF" font-family="sans-serif" font-size="14" lengthAdjust="spacing" textLength="102.5117" x="385.74" y="568.4417">DSL Interpreter</text></g><!--entity caps--><g class="entity" data-qualified-name="..loyalty-earning...Application Components.caps" data-source-line="113" id="ent0012"><rect fill="#0B4884" height="52.9766" rx="2.5" ry="2.5" style="stroke:#073661;stroke-width:0.5;" width="113.335" x="47.33" y="528.4183"/><text fill="#FFFFFF" font-family="sans-serif" font-size="14" font-style="italic" lengthAdjust="spacing" textLength="91.335" x="58.33" y="551.9534">&#171;component&#187;</text><text fill="#FFFFFF" font-family="sans-serif" font-size="14" lengthAdjust="spacing" textLength="85.0869" x="61.454" y="568.4417">Cap Counter</text></g><!--entity audit--><g class="entity" data-qualified-name="..loyalty-earning...Application Components.audit" data-source-line="114" id="ent0013"><rect fill="#0B4884" height="52.9766" rx="2.5" ry="2.5" style="stroke:#073661;stroke-width:0.5;" width="130.6123" x="226.69" y="384.4383"/><text fill="#FFFFFF" font-family="sans-serif" font-size="14" font-style="italic" lengthAdjust="spacing" textLength="91.335" x="246.3287" y="407.9734">&#171;component&#187;</text><text fill="#FFFFFF" font-family="sans-serif" font-size="14" lengthAdjust="spacing" textLength="110.6123" x="236.69" y="424.4617">Audit Log Writer</text></g><!--entity ledger--><g class="entity" data-qualified-name="..loyalty-earning...Outbound.ledger" data-source-line="118" id="ent0015"><rect fill="#0B4884" height="52.9766" rx="2.5" ry="2.5" style="stroke:#073661;stroke-width:0.5;" width="113.335" x="905.33" y="528.4183"/><text fill="#FFFFFF" font-family="sans-serif" font-size="14" font-style="italic" lengthAdjust="spacing" textLength="91.335" x="916.33" y="551.9534">&#171;component&#187;</text><text fill="#FFFFFF" font-family="sans-serif" font-size="14" lengthAdjust="spacing" textLength="90.2686" x="916.8632" y="568.4417">Ledger Client</text></g><!--entity relay--><g class="entity" data-qualified-name="..loyalty-earning...Outbound.relay" data-source-line="119" id="ent0016"><rect fill="#0B4884" height="52.9766" rx="2.5" ry="2.5" style="stroke:#073661;stroke-width:0.5;" width="113.335" x="764.33" y="528.4183"/><text fill="#FFFFFF" font-family="sans-serif" font-size="14" font-style="italic" lengthAdjust="spacing" textLength="91.335" x="775.33" y="551.9534">&#171;component&#187;</text><text fill="#FFFFFF" font-family="sans-serif" font-size="14" lengthAdjust="spacing" textLength="90.9727" x="775.5112" y="568.4417">Outbox Relay</text></g><!--entity t_src--><g class="entity" data-qualified-name="..loyalty-earning...Data Tier .loyalty-earning RDS..t_src" data-source-line="123" id="ent0018"><rect fill="#5D7A99" height="52.9766" rx="2.5" ry="2.5" style="stroke:#3D5470;stroke-width:0.5;" width="102.0723" x="315.96" y="681.3883"/><text fill="#FFFFFF" font-family="sans-serif" font-size="14" font-style="italic" lengthAdjust="spacing" textLength="44.1807" x="344.9058" y="704.9234">&#171;data&#187;</text><text fill="#FFFFFF" font-family="sans-serif" font-size="14" lengthAdjust="spacing" textLength="82.0723" x="325.96" y="721.4117">earn_source</text></g><!--entity t_rule--><g class="entity" data-qualified-name="..loyalty-earning...Data Tier .loyalty-earning RDS..t_rule" data-source-line="124" id="ent0019"><rect fill="#5D7A99" height="52.9766" rx="2.5" ry="2.5" style="stroke:#3D5470;stroke-width:0.5;" width="104.6768" x="183.66" y="681.3883"/><text fill="#FFFFFF" font-family="sans-serif" font-size="14" font-style="italic" lengthAdjust="spacing" textLength="44.1807" x="213.908" y="704.9234">&#171;data&#187;</text><text fill="#FFFFFF" font-family="sans-serif" font-size="14" lengthAdjust="spacing" textLength="84.6768" x="193.66" y="721.4117">earning_rule</text></g><!--entity t_cap--><g class="entity" data-qualified-name="..loyalty-earning...Data Tier .loyalty-earning RDS..t_cap" data-source-line="125" id="ent0020"><rect fill="#5D7A99" height="52.9766" rx="2.5" ry="2.5" style="stroke:#3D5470;stroke-width:0.5;" width="102.626" x="52.69" y="681.3883"/><text fill="#FFFFFF" font-family="sans-serif" font-size="14" font-style="italic" lengthAdjust="spacing" textLength="44.1807" x="81.9127" y="704.9234">&#171;data&#187;</text><text fill="#FFFFFF" font-family="sans-serif" font-size="14" lengthAdjust="spacing" textLength="82.626" x="62.69" y="721.4117">cap_counter</text></g><!--entity t_idem--><g class="entity" data-qualified-name="..loyalty-earning...Data Tier .loyalty-earning RDS..t_idem" data-source-line="126" id="ent0021"><rect fill="#5D7A99" height="52.9766" rx="2.5" ry="2.5" style="stroke:#3D5470;stroke-width:0.5;" width="137.6465" x="615.18" y="681.3883"/><text fill="#FFFFFF" font-family="sans-serif" font-size="14" font-style="italic" lengthAdjust="spacing" textLength="44.1807" x="661.9129" y="704.9234">&#171;data&#187;</text><text fill="#FFFFFF" font-family="sans-serif" font-size="14" lengthAdjust="spacing" textLength="117.6465" x="625.18" y="721.4117">idempotency_key</text></g><!--entity t_audit--><g class="entity" data-qualified-name="..loyalty-earning...Data Tier .loyalty-earning RDS..t_audit" data-source-line="127" id="ent0022"><rect fill="#5D7A99" height="52.9766" rx="2.5" ry="2.5" style="stroke:#3D5470;stroke-width:0.5;" width="141.3037" x="446.35" y="681.3883"/><text fill="#FFFFFF" font-family="sans-serif" font-size="14" font-style="italic" lengthAdjust="spacing" textLength="44.1807" x="494.9115" y="704.9234">&#171;data&#187;</text><text fill="#FFFFFF" font-family="sans-serif" font-size="14" lengthAdjust="spacing" textLength="121.3037" x="456.35" y="721.4117">earning_audit_log</text></g><!--entity t_outbox--><g class="entity" data-qualified-name="..loyalty-earning...Data Tier .loyalty-earning RDS..t_outbox" data-source-line="128" id="ent0023"><rect fill="#5D7A99" height="52.9766" rx="2.5" ry="2.5" style="stroke:#3D5470;stroke-width:0.5;" width="68.5215" x="780.74" y="681.3883"/><text fill="#FFFFFF" font-family="sans-serif" font-size="14" font-style="italic" lengthAdjust="spacing" textLength="44.1807" x="792.9104" y="704.9234">&#171;data&#187;</text><text fill="#FFFFFF" font-family="sans-serif" font-size="14" lengthAdjust="spacing" textLength="48.5215" x="790.74" y="721.4117">outbox</text></g><!--entity abff--><g class="entity" data-qualified-name="abff" data-source-line="98" id="ent0001"><rect fill="#B0BEC5" height="52.9766" rx="2.5" ry="2.5" style="stroke:#78909C;stroke-width:0.5;" width="141.9463" x="221.03" y="44.4883"/><text fill="#000000" font-family="sans-serif" font-size="14" font-style="italic" lengthAdjust="spacing" textLength="36.292" x="273.8571" y="68.0234">&#171;ext&#187;</text><text fill="#000000" font-family="sans-serif" font-size="14" lengthAdjust="spacing" textLength="121.9463" x="231.03" y="84.5117">loyalty-admin-bff</text></g><!--entity core--><g class="entity" data-qualified-name="core" data-source-line="99" id="ent0002"><rect fill="#B0BEC5" height="52.9766" rx="2.5" ry="2.5" style="stroke:#78909C;stroke-width:0.5;" width="101.6895" x="1245.16" y="681.3883"/><text fill="#000000" font-family="sans-serif" font-size="14" font-style="italic" lengthAdjust="spacing" textLength="36.292" x="1277.8587" y="704.9234">&#171;ext&#187;</text><text fill="#000000" font-family="sans-serif" font-size="14" lengthAdjust="spacing" textLength="81.6895" x="1255.16" y="721.4117">loyalty-core</text></g><!--entity msk--><g class="entity" data-qualified-name="msk" data-source-line="100" id="ent0003"><rect fill="#B0BEC5" height="52.9766" rx="2.5" ry="2.5" style="stroke:#78909C;stroke-width:0.5;" width="141.8301" x="1075.08" y="681.3883"/><text fill="#000000" font-family="sans-serif" font-size="14" font-style="italic" lengthAdjust="spacing" textLength="36.292" x="1127.849" y="704.9234">&#171;ext&#187;</text><text fill="#000000" font-family="sans-serif" font-size="14" lengthAdjust="spacing" textLength="121.8301" x="1085.08" y="721.4117">Shared MSK Kafka</text></g><!--link abff to api--><g class="link" data-entity-1="ent0001" data-entity-2="ent0006" data-link-type="dependency" data-source-line="133" id="lnk24"><path d="M292,97.6983 C292,132.9383 292,190.8683 292,226.1483" fill="none" id="abff-to-api" style="stroke:#181818;stroke-width:1;"/><polygon fill="#181818" points="292,231.1483,296,222.1483,292,226.1483,288,222.1483,292,231.1483" style="stroke:#181818;stroke-width:1;stroke-linejoin:miter;stroke-miterlimit:10;"/></g><!--link msk to consumer--><g class="link" data-entity-1="ent0003" data-entity-2="ent0007" data-link-type="dependency" data-source-line="134" id="lnk25"><path d="M1167.17,681.1383 C1180.07,662.1583 1192.27,635.8483 1182,613.3883 C1160.51,566.3883 1065.13,495.6783 1000,460.4183 C846.95,377.5583 657.3644,315.4775 549.1244,283.4375" fill="none" id="msk-to-consumer" style="stroke:#181818;stroke-width:1;"/><polygon fill="#181818" points="544.33,282.0183,551.8245,288.4083,549.1244,283.4375,554.0952,280.7373,544.33,282.0183" style="stroke:#181818;stroke-width:1;stroke-linejoin:miter;stroke-miterlimit:10;"/><text fill="#000000" font-family="sans-serif" font-size="13" lengthAdjust="spacing" textLength="150.8203" x="1029.52" y="473.9866">loyalty.earn.translated.*</text></g><!--link api to registry--><g class="link" data-entity-1="ent0006" data-entity-2="ent0009" data-link-type="dependency" data-source-line="137" id="lnk26"><path d="M263.44,284.6183 C247.33,300.0383 227.58,320.6683 213,341.4383 C179.09,389.7483 167.47,402.9483 154,460.4183 C152.28,467.7683 149.71,471.1983 154,477.4183 C159.67,485.6383 166.23,480.6283 175,485.4183 C197.18,497.5183 216.1461,511.1868 233.6561,525.1068" fill="none" id="api-to-registry" style="stroke:#181818;stroke-width:1;"/><polygon fill="#181818" points="237.57,528.2183,233.0141,519.4865,233.6561,525.1068,228.0358,525.7488,237.57,528.2183" style="stroke:#181818;stroke-width:1;stroke-linejoin:miter;stroke-miterlimit:10;"/></g><!--link api to engine--><g class="link" data-entity-1="ent0006" data-entity-2="ent0010" data-link-type="dependency" data-source-line="138" id="lnk27"><path d="M299.57,284.8483 C305.7,301.2383 315.99,321.5183 332,333.4383 C346.19,344.0083 355.35,333.1883 371,341.4383 C390.7,351.8183 405.3961,365.5654 418.3461,380.2754" fill="none" id="api-to-engine" style="stroke:#181818;stroke-width:1;"/><polygon fill="#181818" points="421.65,384.0283,418.7053,374.6299,418.3461,380.2754,412.7007,379.9162,421.65,384.0283" style="stroke:#181818;stroke-width:1;stroke-linejoin:miter;stroke-miterlimit:10;"/><text fill="#000000" font-family="sans-serif" font-size="13" lengthAdjust="spacing" textLength="112.2456" x="333" y="330.0066">(CRUD + dry-run)</text></g><!--link api to audit--><g class="link" data-entity-1="ent0006" data-entity-2="ent0013" data-link-type="dependency" data-source-line="139" id="lnk28"><path d="M292,284.9083 C292,312.6383 292,351.3583 292,379.0583" fill="none" id="api-to-audit" style="stroke:#181818;stroke-width:1;"/><polygon fill="#181818" points="292,384.0583,296,375.0583,292,379.0583,288,375.0583,292,384.0583" style="stroke:#181818;stroke-width:1;stroke-linejoin:miter;stroke-miterlimit:10;"/></g><!--link consumer to engine--><g class="link" data-entity-1="ent0007" data-entity-2="ent0010" data-link-type="dependency" data-source-line="142" id="lnk29"><path d="M458.56,284.9083 C454.89,312.6383 449.7567,351.4016 446.0867,379.1016" fill="none" id="consumer-to-engine" style="stroke:#181818;stroke-width:1;"/><polygon fill="#181818" points="445.43,384.0583,450.5774,375.6616,446.0867,379.1016,442.6467,374.6109,445.43,384.0583" style="stroke:#181818;stroke-width:1;stroke-linejoin:miter;stroke-miterlimit:10;"/></g><!--link engine to registry--><g class="link" data-entity-1="ent0010" data-entity-2="ent0009" data-link-type="dependency" data-source-line="143" id="lnk30"><path d="M385.14,431.9683 C360.78,441.2983 335.72,452.1383 326,460.4183 C304.34,478.8783 290.3545,502.9874 280.6845,523.7074" fill="none" id="engine-to-registry" style="stroke:#181818;stroke-width:1;"/><polygon fill="#181818" points="278.57,528.2383,286.0009,521.7744,280.6845,523.7074,278.7515,518.3911,278.57,528.2383" style="stroke:#181818;stroke-width:1;stroke-linejoin:miter;stroke-miterlimit:10;"/><text fill="#000000" font-family="sans-serif" font-size="13" lengthAdjust="spacing" textLength="105.6758" x="327" y="473.9866">load active Rules</text></g><!--link engine to dsl--><g class="link" data-entity-1="ent0010" data-entity-2="ent0011" data-link-type="dependency" data-source-line="144" id="lnk31"><path d="M441.09,437.6383 C440.19,463.3683 438.9752,497.7214 438.0752,523.3914" fill="none" id="engine-to-dsl" style="stroke:#181818;stroke-width:1;"/><polygon fill="#181818" points="437.9,528.3883,442.2129,519.534,438.0752,523.3914,434.2178,519.2537,437.9,528.3883" style="stroke:#181818;stroke-width:1;stroke-linejoin:miter;stroke-miterlimit:10;"/><text fill="#000000" font-family="sans-serif" font-size="13" lengthAdjust="spacing" textLength="127.4736" x="441.24" y="473.9866">evaluate(rule, event)</text></g><!--link engine to caps--><g class="link" data-entity-1="ent0010" data-entity-2="ent0012" data-link-type="dependency" data-source-line="145" id="lnk32"><path d="M384.98,433.6383 C380.29,435.0383 375.59,436.3283 371,437.4183 C288.66,456.9483 256.33,419.9783 182,460.4183 C153.59,475.8683 133.8805,501.9777 120.5205,523.9177" fill="none" id="engine-to-caps" style="stroke:#181818;stroke-width:1;"/><polygon fill="#181818" points="117.92,528.1883,126.0173,522.5817,120.5205,523.9177,119.1844,518.4209,117.92,528.1883" style="stroke:#181818;stroke-width:1;stroke-linejoin:miter;stroke-miterlimit:10;"/><text fill="#000000" font-family="sans-serif" font-size="13" lengthAdjust="spacing" textLength="120.4722" x="183" y="473.9866">check &amp; decrement</text></g><!--link engine to ledger--><g class="link" data-entity-1="ent0010" data-entity-2="ent0015" data-link-type="dependency" data-source-line="146" id="lnk33"><path d="M498.87,411.5083 C579.03,412.4983 728.87,420.2583 849,460.4183 C886.67,473.0083 917.0582,501.2402 937.6582,524.2902" fill="none" id="engine-to-ledger" style="stroke:#181818;stroke-width:1;"/><polygon fill="#181818" points="940.99,528.0183,937.9752,518.6422,937.6582,524.2902,932.0102,523.9732,940.99,528.0183" style="stroke:#181818;stroke-width:1;stroke-linejoin:miter;stroke-miterlimit:10;"/><text fill="#000000" font-family="sans-serif" font-size="13" lengthAdjust="spacing" textLength="110.8682" x="882.11" y="473.9866">appendEarned(...)</text></g><!--link engine to relay--><g class="link" data-entity-1="ent0010" data-entity-2="ent0016" data-link-type="dependency" data-source-line="147" id="lnk34"><path d="M498.86,431.5583 C543.73,446.3083 608.19,465.8883 666,477.4183 C698.01,483.7983 708.97,472.6283 739,485.4183 C761.53,495.0083 779.0775,509.3898 794.2375,524.4898" fill="none" id="engine-to-relay" style="stroke:#181818;stroke-width:1;"/><polygon fill="#181818" points="797.78,528.0183,794.2262,518.8329,794.2375,524.4898,788.5806,524.501,797.78,528.0183" style="stroke:#181818;stroke-width:1;stroke-linejoin:miter;stroke-miterlimit:10;"/><text fill="#000000" font-family="sans-serif" font-size="13" lengthAdjust="spacing" textLength="178.0391" x="667" y="473.9866">enqueueEvent(PointsEarned)</text></g><!--link registry to t_src--><g class="link" data-entity-1="ent0009" data-entity-2="ent0018" data-link-type="dependency" data-source-line="150" id="lnk35"><path d="M285.02,581.8583 C303.21,609.5983 329.1276,649.1275 347.2976,676.8275" fill="none" id="registry-to-t_src" style="stroke:#181818;stroke-width:1;"/><polygon fill="#181818" points="350.04,681.0083,348.4483,671.2889,347.2976,676.8275,341.759,675.6768,350.04,681.0083" style="stroke:#181818;stroke-width:1;stroke-linejoin:miter;stroke-miterlimit:10;"/></g><!--link registry to t_rule--><g class="link" data-entity-1="ent0009" data-entity-2="ent0019" data-link-type="dependency" data-source-line="151" id="lnk36"><path d="M262.5,581.8583 C256.62,609.5983 248.3865,648.4169 242.5165,676.1169" fill="none" id="registry-to-t_rule" style="stroke:#181818;stroke-width:1;"/><polygon fill="#181818" points="241.48,681.0083,247.2589,673.033,242.5165,676.1169,239.4327,671.3746,241.48,681.0083" style="stroke:#181818;stroke-width:1;stroke-linejoin:miter;stroke-miterlimit:10;"/></g><!--link caps to t_cap--><g class="link" data-entity-1="ent0012" data-entity-2="ent0020" data-link-type="dependency" data-source-line="152" id="lnk37"><path d="M104,581.8583 C104,609.5983 104,648.3083 104,676.0083" fill="none" id="caps-to-t_cap" style="stroke:#181818;stroke-width:1;"/><polygon fill="#181818" points="104,681.0083,108,672.0083,104,676.0083,100,672.0083,104,681.0083" style="stroke:#181818;stroke-width:1;stroke-linejoin:miter;stroke-miterlimit:10;"/></g><!--link engine to t_idem--><g class="link" data-entity-1="ent0010" data-entity-2="ent0021" data-link-type="dependency" data-source-line="153" id="lnk38"><path d="M499.04,434.5783 C511.66,441.4883 524.18,450.0683 534,460.4183 C582.87,511.8983 563.34,545.2183 601,605.3883 C618.27,632.9783 638.7991,657.6982 656.5091,677.4182" fill="none" id="engine-to-t_idem" style="stroke:#181818;stroke-width:1;"/><polygon fill="#181818" points="659.85,681.1383,656.8125,671.7695,656.5091,677.4182,650.8604,677.1149,659.85,681.1383" style="stroke:#181818;stroke-width:1;stroke-linejoin:miter;stroke-miterlimit:10;"/><text fill="#000000" font-family="sans-serif" font-size="13" lengthAdjust="spacing" textLength="146.6626" x="602" y="559.9766">(sourceRef uniqueness)</text></g><!--link audit to t_audit--><g class="link" data-entity-1="ent0013" data-entity-2="ent0022" data-link-type="dependency" data-source-line="154" id="lnk39"><path d="M357.73,434.0083 C362.2,435.2383 366.65,436.3883 371,437.4183 C404.04,445.2083 499.88,434.6683 522,460.4183 C549.82,492.7983 532.0732,619.4582 522.5232,675.9682" fill="none" id="audit-to-t_audit" style="stroke:#181818;stroke-width:1;"/><polygon fill="#181818" points="521.69,680.8983,527.1338,672.6906,522.5232,675.9682,519.2456,671.3576,521.69,680.8983" style="stroke:#181818;stroke-width:1;stroke-linejoin:miter;stroke-miterlimit:10;"/></g><!--link relay to t_outbox--><g class="link" data-entity-1="ent0016" data-entity-2="ent0023" data-link-type="dependency" data-source-line="155" id="lnk40"><path d="M819.97,581.8583 C818.87,609.5983 817.3284,648.3122 816.2284,676.0122" fill="none" id="relay-to-t_outbox" style="stroke:#181818;stroke-width:1;"/><polygon fill="#181818" points="816.03,681.0083,820.384,672.1741,816.2284,676.0122,812.3903,671.8566,816.03,681.0083" style="stroke:#181818;stroke-width:1;stroke-linejoin:miter;stroke-miterlimit:10;"/></g><!--link ledger to core--><g class="link" data-entity-1="ent0015" data-entity-2="ent0002" data-link-type="dependency" data-source-line="158" id="lnk41"><path d="M1019.08,564.6383 C1076.09,575.3083 1164.56,597.2383 1231,638.3883 C1248.84,649.4383 1261.9172,662.6939 1273.7072,677.0539" fill="none" id="ledger-to-core" style="stroke:#181818;stroke-width:1;"/><polygon fill="#181818" points="1276.88,680.9183,1274.2605,671.4242,1273.7072,677.0539,1268.0775,676.5006,1276.88,680.9183" style="stroke:#181818;stroke-width:1;stroke-linejoin:miter;stroke-miterlimit:10;"/><text fill="#000000" font-family="sans-serif" font-size="13" lengthAdjust="spacing" textLength="117.9141" x="1212.3" y="626.9566">POST /ledger/earn</text></g><!--link relay to msk--><g class="link" data-entity-1="ent0016" data-entity-2="ent0003" data-link-type="dependency" data-source-line="159" id="lnk42"><path d="M823.81,581.7183 C826.89,597.8583 833.38,617.8883 847,630.3883 C855.54,638.2283 984.2113,669.2698 1069.9113,689.3098" fill="none" id="relay-to-msk" style="stroke:#181818;stroke-width:1;"/><polygon fill="#181818" points="1074.78,690.4483,1066.9272,684.5041,1069.9113,689.3098,1065.1056,692.2939,1074.78,690.4483" style="stroke:#181818;stroke-width:1;stroke-linejoin:miter;stroke-miterlimit:10;"/><text fill="#000000" font-family="sans-serif" font-size="13" lengthAdjust="spacing" textLength="178.6167" x="848" y="626.9566">loyalty.earning.PointsEarned</text></g><?plantuml-src XLRRRkCs47tNLmnae7NInkjkdCq5Ym2fawB1fjWWJj57WnR7Cc6PL4ag6sEnG9_w0KM_SB-aG-fYYRAxCc10r9apjpCZMM4pXEa47l05CpY5ht_z2vdQiinkJv1fAMJgpsQMMP70iyfLfj9j59cra3dJR0DcnRZwv81BbXbiFU6uP4Lcd_7LtcGYbHkK5XBwGzr2ISNHO0vlBrg7cicrEvoSjLrfJ2oJAONyEGAwj2eadoejKRz_RrwIwslONM_77lEpqXprp6upx6CuCola9OubwxGYp5J0DrYEb-VBPOjm3yW3nul9nSKasa-Pg4sk91M0R6ga0_wYfDq3gNtxg-yxX0x6vwVltlrqm3TdbjMSWpD-pYulGzzjo3TyXz31AJ-Rd8yF-2O1xD9PZ1UOd8M-sv2wbFxg-mwXW_EBo_5b4drfIoMd65XQ2oM8YF9YxXTobtINw7vDW5uwbIjXMIQyf-_XxfLqB5a64aMwMgX2csWdqBYU8iOtGfuibiiOe8wT6M1qiW-UA8rnvQq5TyTj-6p5D7BuRVO1Fh3bciLT-CQiepRy-3WOwkFZ66hrVdPTg-iLtyk5grDSZzYEvEbkzWmtZ_VmmBQeutQlkc9qwUKYDByZpt3tudR0L4bJR7OSFVEa0X37bqvqDtbE3Q1Tf2InL3PcJx3UsuoQaY0yOIgCrTluW3TTFUybND3_dKo5n4ws-pZGmqA6sza3tBjzbskqtPhr6BZ9GlCfoodBGWQc-ql6SXFQtnHSM7XGAVoXHPUatp67xTNxOs4FoU41UOeQffaWZlZ_WyiyDcJmvA_Kdenjus-afnse5zujhI5u5XJ6C7nhFTtEZlP4xHxFZTT5fnhLGYDFTcvqii-CMEUQ914VC7FFGZlgoZpfTR1hHvZGJ72ax2tAP3jVuqwuRJE7EHIcR-QStjHntwvkTCTG-LRqHTOsB36-1tu1Lfi2N6zDv1OQd9nS-z6d_GF-fXvaWAlwksBaWXnPUiERZ5daesD7vlRArx__0RykeMa-yUR2CpL3MX-K4-V2l8BXzEdtM_W1kDwUw48UDQ0oMUB_LLcIZLtvhvacAgx52r9kAwm7k7cqSn4rdjfnb1an3YonH09kMPWkb2QwAkGLu0lB2aftw5Jo8zrISaTTk9lW6fwiC5d3T_G9bMXqtqrTQ3bF9PJbEKhkzXtouMWqEWhZfS6fWv1_5bYWNyB3HoMelgNTaIlHCrkG5DGd-feoAv57JQQEffoAuCWhlWcxF7DgxWHGAhMAO5YEtXCkeP22ef5e3BNBBwh6eEnQ4tbvMCcF0gsNKbILeHIQhhJm-95UKs_AHs-SrceY1_F2X52DD3AZTZcY_m00?></g></svg>