<svg xmlns="http://www.w3.org/2000/svg" xmlns:xlink="http://www.w3.org/1999/xlink" contentStyleType="text/css" data-diagram-type="DESCRIPTION" height="710px" preserveAspectRatio="none" style="width:1648px;height:710px;background:#FFFFFF;" version="1.1" viewBox="0 0 1648 710" width="1648px" zoomAndPan="magnify"><?plantuml 1.2026.4?><defs/><g><g class="title" data-source-line="1"><text fill="#000000" font-family="sans-serif" font-size="14" font-weight="700" lengthAdjust="spacing" textLength="451.3223" x="595.3079" y="23.5352">Rochallor Loyalty Platform &#8212; C4 Level 2 &#8212; Asynchronous Path</text></g><!--entity payhub--><g class="entity" data-qualified-name="payhub" data-source-line="19" id="ent0001"><rect fill="#B0BEC5" height="52.9766" rx="2.5" ry="2.5" style="stroke:#181818;stroke-width:0.5;" width="109.7969" x="1179.19" y="189.4683"/><text fill="#000000" font-family="sans-serif" font-size="14" font-style="italic" lengthAdjust="spacing" textLength="36.292" x="1215.9424" y="213.0034">&#171;ext&#187;</text><text fill="#000000" font-family="sans-serif" font-size="14" lengthAdjust="spacing" textLength="89.7969" x="1189.19" y="229.4917">Payment Hub</text></g><!--entity t24--><g class="entity" data-qualified-name="t24" data-source-line="20" id="ent0002"><rect fill="#B0BEC5" height="52.9766" rx="2.5" ry="2.5" style="stroke:#181818;stroke-width:0.5;" width="168.5723" x="1308.8" y="189.4683"/><text fill="#000000" font-family="sans-serif" font-size="14" font-style="italic" lengthAdjust="spacing" textLength="36.292" x="1374.9401" y="213.0034">&#171;ext&#187;</text><text fill="#000000" font-family="sans-serif" font-size="14" lengthAdjust="spacing" textLength="148.5723" x="1318.8" y="229.4917">Core Banking Adapter</text></g><!--entity custsvc--><g class="entity" data-qualified-name="custsvc" data-source-line="21" id="ent0003"><rect fill="#B0BEC5" height="52.9766" rx="2.5" ry="2.5" style="stroke:#181818;stroke-width:0.5;" width="137.708" x="1497.23" y="189.4683"/><text fill="#000000" font-family="sans-serif" font-size="14" font-style="italic" lengthAdjust="spacing" textLength="36.292" x="1547.938" y="213.0034">&#171;ext&#187;</text><text fill="#000000" font-family="sans-serif" font-size="14" lengthAdjust="spacing" textLength="117.708" x="1507.23" y="229.4917">Customer Service</text></g><!--entity earn--><g class="entity" data-qualified-name="earn" data-source-line="26" id="ent0004"><rect fill="#0B4884" height="52.9766" rx="2.5" ry="2.5" style="stroke:#073661;stroke-width:0.5;" width="123.8037" x="240.18" y="189.4683"/><text fill="#FFFFFF" font-family="sans-serif" font-size="14" font-style="italic" lengthAdjust="spacing" textLength="36.2236" x="283.97" y="213.0034">&#171;svc&#187;</text><text fill="#FFFFFF" font-family="sans-serif" font-size="14" lengthAdjust="spacing" textLength="103.8037" x="250.18" y="229.4917">loyalty-earning</text></g><!--entity core--><g class="entity" data-qualified-name="core" data-source-line="27" id="ent0005"><rect fill="#0B4884" height="52.9766" rx="2.5" ry="2.5" style="stroke:#073661;stroke-width:0.5;" width="101.6895" x="384.24" y="189.4683"/><text fill="#FFFFFF" font-family="sans-serif" font-size="14" font-style="italic" lengthAdjust="spacing" textLength="36.2236" x="416.9729" y="213.0034">&#171;svc&#187;</text><text fill="#FFFFFF" font-family="sans-serif" font-size="14" lengthAdjust="spacing" textLength="81.6895" x="394.24" y="229.4917">loyalty-core</text></g><!--entity redm--><g class="entity" data-qualified-name="redm" data-source-line="28" id="ent0006"><rect fill="#0B4884" height="52.9766" rx="2.5" ry="2.5" style="stroke:#073661;stroke-width:0.5;" width="150.9834" x="505.59" y="189.4683"/><text fill="#FFFFFF" font-family="sans-serif" font-size="14" font-style="italic" lengthAdjust="spacing" textLength="36.2236" x="562.9699" y="213.0034">&#171;svc&#187;</text><text fill="#FFFFFF" font-family="sans-serif" font-size="14" lengthAdjust="spacing" textLength="130.9834" x="515.59" y="229.4917">loyalty-redemption</text></g><!--entity camp--><g class="entity" data-qualified-name="camp" data-source-line="29" id="ent0007"><rect fill="#0B4884" height="52.9766" rx="2.5" ry="2.5" style="stroke:#073661;stroke-width:0.5;" width="138.3711" x="676.9" y="189.4683"/><text fill="#FFFFFF" font-family="sans-serif" font-size="14" font-style="italic" lengthAdjust="spacing" textLength="36.2236" x="727.9737" y="213.0034">&#171;svc&#187;</text><text fill="#FFFFFF" font-family="sans-serif" font-size="14" lengthAdjust="spacing" textLength="118.3711" x="686.9" y="229.4917">loyalty-campaign</text></g><!--entity msk--><g class="entity" data-qualified-name="msk" data-source-line="33" id="ent0008"><rect fill="#CFD8DC" height="52.9766" rx="2.5" ry="2.5" style="stroke:#181818;stroke-width:0.5;" width="141.8301" x="736.17" y="365.4383"/><text fill="#000000" font-family="sans-serif" font-size="14" font-style="italic" lengthAdjust="spacing" textLength="46.0127" x="784.0787" y="388.9734">&#171;infra&#187;</text><text fill="#000000" font-family="sans-serif" font-size="14" lengthAdjust="spacing" textLength="121.8301" x="746.17" y="405.4617">Shared MSK Kafka</text></g><!--entity voucher--><g class="entity" data-qualified-name="voucher" data-source-line="37" id="ent0009"><rect fill="#B0BEC5" height="52.9766" rx="2.5" ry="2.5" style="stroke:#181818;stroke-width:0.5;" width="205.6299" x="880.27" y="44.4883"/><text fill="#000000" font-family="sans-serif" font-size="14" font-style="italic" lengthAdjust="spacing" textLength="36.292" x="964.9389" y="68.0234">&#171;ext&#187;</text><text fill="#000000" font-family="sans-serif" font-size="14" lengthAdjust="spacing" textLength="185.6299" x="890.27" y="84.5117">3rd-Party Voucher Provider</text></g><!--entity bridge--><g class="entity" data-qualified-name="bridge" data-source-line="38" id="ent0010"><rect fill="#0B4884" height="52.9766" rx="2.5" ry="2.5" style="stroke:#073661;stroke-width:0.5;" width="198.9512" x="879.61" y="189.4683"/><text fill="#FFFFFF" font-family="sans-serif" font-size="14" font-style="italic" lengthAdjust="spacing" textLength="36.2236" x="960.9738" y="213.0034">&#171;svc&#187;</text><text fill="#FFFFFF" font-family="sans-serif" font-size="14" lengthAdjust="spacing" textLength="178.9512" x="889.61" y="229.4917">loyalty-integration-bridge</text></g><!--entity abff--><g class="entity" data-qualified-name="abff" data-source-line="43" id="ent0011"><rect fill="#0B4884" height="52.9766" rx="2.5" ry="2.5" style="stroke:#073661;stroke-width:0.5;" width="141.9463" x="653.11" y="495.4183"/><text fill="#FFFFFF" font-family="sans-serif" font-size="14" font-style="italic" lengthAdjust="spacing" textLength="36.2236" x="705.9713" y="518.9534">&#171;svc&#187;</text><text fill="#FFFFFF" font-family="sans-serif" font-size="14" lengthAdjust="spacing" textLength="121.9463" x="663.11" y="535.4417">loyalty-admin-bff</text></g><!--entity notif--><g class="entity" data-qualified-name="notif" data-source-line="44" id="ent0012"><rect fill="#B0BEC5" height="52.9766" rx="2.5" ry="2.5" style="stroke:#181818;stroke-width:0.5;" width="152.2686" x="814.95" y="495.4183"/><text fill="#000000" font-family="sans-serif" font-size="14" font-style="italic" lengthAdjust="spacing" textLength="36.292" x="872.9383" y="518.9534">&#171;ext&#187;</text><text fill="#000000" font-family="sans-serif" font-size="14" lengthAdjust="spacing" textLength="132.2686" x="824.95" y="535.4417">notification-service</text></g><g class="entity" data-qualified-name="GMN27" data-source-line="74" id="ent0028"><path d="M745.29,609.3983 L745.29,695.951 A0,0 0 0 0 745.29,695.951 L1036.8779,695.951 A0,0 0 0 0 1036.8779,695.951 L1036.8779,619.3983 L1026.8779,609.3983 L895.09,609.3983 L891.09,548.6583 L887.09,609.3983 L745.29,609.3983 A0,0 0 0 0 745.29,609.3983" fill="#FEFFDD" style="stroke:#181818;stroke-width:0.5;"/><path d="M1026.8779,609.3983 L1026.8779,619.3983 L1036.8779,619.3983 L1026.8779,609.3983" fill="#FEFFDD" style="stroke:#181818;stroke-width:0.5;"/><text fill="#000000" font-family="sans-serif" font-size="13" lengthAdjust="spacing" textLength="270.5879" x="751.29" y="626.9666">Topic naming: &lt;producer&gt;.&lt;event&gt;.v&lt;n&gt;</text><text fill="#000000" font-family="sans-serif" font-size="13" lengthAdjust="spacing" textLength="205.8989" x="783.6345" y="642.2772">e.g. paymenthub.card_spend.v1,</text><text fill="#000000" font-family="sans-serif" font-size="13" lengthAdjust="spacing" textLength="197.6787" x="798.0278" y="657.5877">loyalty.earning.PointsEarned.v1</text><text fill="#000000" font-family="sans-serif" font-size="13" lengthAdjust="spacing" textLength="259.6064" x="756.7807" y="672.8983">Serialized as JSON Schema; no registry &#8212;</text><text fill="#000000" font-family="sans-serif" font-size="13" lengthAdjust="spacing" textLength="211.3389" x="780.9145" y="688.2088">backward-compat enforced in CI.</text></g><!--link payhub to msk--><g class="link" data-entity-1="ent0001" data-entity-2="ent0008" data-link-type="dependency" data-source-line="48" id="lnk13"><path d="M1246.51,242.4983 C1257.41,269.0383 1268.37,310.1583 1246.09,335.4383 C1222.21,362.5283 1001.6406,379.4525 883.4906,386.6925" fill="none" id="payhub-to-msk" style="stroke:#181818;stroke-width:1;"/><polygon fill="#181818" points="878.5,386.9983,887.7278,390.4403,883.4906,386.6925,887.2385,382.4553,878.5,386.9983" style="stroke:#181818;stroke-width:1;stroke-linejoin:miter;stroke-miterlimit:10;"/><text fill="#000000" font-family="sans-serif" font-size="13" lengthAdjust="spacing" textLength="89.1592" x="1260.03" y="309.0066">paymenthub.*</text></g><!--link t24 to msk--><g class="link" data-entity-1="ent0002" data-entity-2="ent0008" data-link-type="dependency" data-source-line="49" id="lnk14"><path d="M1392.6,242.7183 C1390.57,270.2683 1382.79,313.0083 1355.09,335.4383 C1318.76,364.8583 1023.3249,381.4828 883.3449,387.8028" fill="none" id="t24-to-msk" style="stroke:#181818;stroke-width:1;"/><polygon fill="#181818" points="878.35,388.0283,887.5213,391.6183,883.3449,387.8028,887.1604,383.6264,878.35,388.0283" style="stroke:#181818;stroke-width:1;stroke-linejoin:miter;stroke-miterlimit:10;"/><text fill="#000000" font-family="sans-serif" font-size="13" lengthAdjust="spacing" textLength="68.6118" x="1388.78" y="309.0066">corebank.*</text></g><!--link custsvc to msk--><g class="link" data-entity-1="ent0003" data-entity-2="ent0008" data-link-type="dependency" data-source-line="50" id="lnk15"><path d="M1551.96,242.7383 C1534.95,270.9583 1503.55,314.8983 1463.09,335.4383 C1362.45,386.5383 1031.65,391.8267 883.43,391.5767" fill="none" id="custsvc-to-msk" style="stroke:#181818;stroke-width:1;"/><polygon fill="#181818" points="878.43,391.5683,887.4232,395.5835,883.43,391.5767,887.4367,387.5835,878.43,391.5683" style="stroke:#181818;stroke-width:1;stroke-linejoin:miter;stroke-miterlimit:10;"/><text fill="#000000" font-family="sans-serif" font-size="13" lengthAdjust="spacing" textLength="69.2783" x="1532.12" y="309.0066">customer.*</text></g><!--link earn to msk--><g class="link" data-entity-1="ent0004" data-entity-2="ent0008" data-link-type="dependency" data-source-line="53" id="lnk16"><path d="M239.77,235.4383 C222.26,243.8183 205.25,255.7283 195.09,272.4383 C180.54,296.3683 176.2,314.7683 195.09,335.4383 C230.95,374.7083 577.1611,386.3615 730.7711,389.6415" fill="none" id="earn-to-msk" style="stroke:#181818;stroke-width:1;"/><polygon fill="#181818" points="735.77,389.7483,726.8574,385.5571,730.7711,389.6415,726.6867,393.5552,735.77,389.7483" style="stroke:#181818;stroke-width:1;stroke-linejoin:miter;stroke-miterlimit:10;"/><text fill="#000000" font-family="sans-serif" font-size="13" lengthAdjust="spacing" textLength="103.3589" x="196.09" y="309.0066">loyalty.earning.*</text></g><!--link msk to earn--><g class="link" data-entity-1="ent0008" data-entity-2="ent0004" data-link-type="dependency" data-source-line="59" id="lnk20"><path d="M735.72,391.2783 C551.85,391.4283 72.95,386.8283 25.09,335.4383 C6,314.9583 7.34,294.0983 25.09,272.4383 C51.71,239.9583 161.6847,226.4911 234.8747,220.8711" fill="none" id="msk-to-earn" style="stroke:#181818;stroke-width:1;"/><polygon fill="#181818" points="239.86,220.4883,230.5802,217.1891,234.8747,220.8711,231.1927,225.1656,239.86,220.4883" style="stroke:#181818;stroke-width:1;stroke-linejoin:miter;stroke-miterlimit:10;"/><text fill="#000000" font-family="sans-serif" font-size="13" lengthAdjust="spacing" textLength="150.8203" x="26.09" y="309.0066">loyalty.earn.translated.*</text></g><!--link core to msk--><g class="link" data-entity-1="ent0005" data-entity-2="ent0008" data-link-type="dependency" data-source-line="54" id="lnk17"><path d="M389.45,242.8283 C384.31,245.4883 379.12,248.0883 374.09,250.4383 C349.87,261.7883 333.15,250.3483 318.09,272.4383 C302.32,295.5783 299.44,314.5583 318.09,335.4383 C345.4,366.0283 601.8155,381.714 730.8055,387.764" fill="none" id="core-to-msk" style="stroke:#181818;stroke-width:1;"/><polygon fill="#181818" points="735.8,387.9983,726.9973,383.581,730.8055,387.764,726.6225,391.5722,735.8,387.9983" style="stroke:#181818;stroke-width:1;stroke-linejoin:miter;stroke-miterlimit:10;"/><text fill="#000000" font-family="sans-serif" font-size="13" lengthAdjust="spacing" textLength="118.8091" x="319.09" y="301.5066">loyalty.member.* /</text><text fill="#000000" font-family="sans-serif" font-size="13" lengthAdjust="spacing" textLength="95.4688" x="330.7602" y="316.8172">loyalty.ledger.*</text></g><!--link msk to core--><g class="link" data-entity-1="ent0008" data-entity-2="ent0005" data-link-type="dependency" data-source-line="60" id="lnk21"><path d="M735.83,388.8883 C645.73,384.7883 497.67,372.4483 459.09,335.4383 C446.06,322.9483 440.1459,278.7384 437.3759,247.7984" fill="none" id="msk-to-core" style="stroke:#181818;stroke-width:1;"/><polygon fill="#181818" points="436.93,242.8183,433.7485,252.1391,437.3759,247.7984,441.7166,251.4257,436.93,242.8183" style="stroke:#181818;stroke-width:1;stroke-linejoin:miter;stroke-miterlimit:10;"/><text fill="#000000" font-family="sans-serif" font-size="13" lengthAdjust="spacing" textLength="162.6396" x="460.09" y="309.0066">loyalty.member.lifecycle.*</text></g><!--link redm to msk--><g class="link" data-entity-1="ent0006" data-entity-2="ent0008" data-link-type="dependency" data-source-line="55" id="lnk18"><path d="M606.59,242.7383 C614.31,251.5983 622.28,261.9483 628.09,272.4383 C642.3,298.1483 627.61,314.3783 648.09,335.4383 C671.32,359.3383 700.5426,371.7326 731.1926,379.4826" fill="none" id="redm-to-msk" style="stroke:#181818;stroke-width:1;"/><polygon fill="#181818" points="736.04,380.7083,728.2952,374.6241,731.1926,379.4826,726.3341,382.38,736.04,380.7083" style="stroke:#181818;stroke-width:1;stroke-linejoin:miter;stroke-miterlimit:10;"/><text fill="#000000" font-family="sans-serif" font-size="13" lengthAdjust="spacing" textLength="128.5972" x="649.09" y="309.0066">loyalty.redemption.*</text></g><!--link camp to msk--><g class="link" data-entity-1="ent0007" data-entity-2="ent0008" data-link-type="dependency" data-source-line="56" id="lnk19"><path d="M766.38,242.8583 C772.55,251.8083 778.82,262.1783 783.09,272.4383 C795.74,302.8683 801.3204,335.572 804.1904,360.162" fill="none" id="camp-to-msk" style="stroke:#181818;stroke-width:1;"/><polygon fill="#181818" points="804.77,365.1283,807.6997,355.7253,804.1904,360.162,799.7536,356.6527,804.77,365.1283" style="stroke:#181818;stroke-width:1;stroke-linejoin:miter;stroke-miterlimit:10;"/><text fill="#000000" font-family="sans-serif" font-size="13" lengthAdjust="spacing" textLength="116.8857" x="800.89" y="309.0066">loyalty.campaign.*</text></g><!--link msk to bridge--><g class="link" data-entity-1="ent0008" data-entity-2="ent0010" data-link-type="dependency" data-source-line="63" id="lnk22"><path d="M878.27,388.8383 C962.44,384.6983 1095.06,372.3283 1126.09,335.4383 C1144.11,314.0183 1142.01,295.4783 1126.09,272.4383 C1114.61,255.8383 1102.0568,246.2116 1083.5068,238.0516" fill="none" id="msk-to-bridge" style="stroke:#181818;stroke-width:1;"/><polygon fill="#181818" points="1078.93,236.0383,1085.5575,243.3236,1083.5068,238.0516,1088.7788,236.0008,1078.93,236.0383" style="stroke:#181818;stroke-width:1;stroke-linejoin:miter;stroke-miterlimit:10;"/><text fill="#000000" font-family="sans-serif" font-size="13" lengthAdjust="spacing" textLength="100.0898" x="1139.83" y="286.0066">paymenthub.* /</text><text fill="#000000" font-family="sans-serif" font-size="13" lengthAdjust="spacing" textLength="79.5425" x="1150.1037" y="301.3172">corebank.* /</text><text fill="#000000" font-family="sans-serif" font-size="13" lengthAdjust="spacing" textLength="80.209" x="1149.7704" y="316.6277">customer.* /</text><text fill="#000000" font-family="sans-serif" font-size="13" lengthAdjust="spacing" textLength="95.4688" x="1142.1405" y="331.9383">loyalty.ledger.*</text></g><!--link bridge to msk--><g class="link" data-entity-1="ent0010" data-entity-2="ent0008" data-link-type="dependency" data-source-line="64" id="lnk23"><path d="M962.28,242.9383 C956.74,252.0583 950.8,262.5183 946.09,272.4383 C933.3,299.3683 943.13,313.3783 923.09,335.4383 C910.85,348.9083 899.1352,357.2185 882.7352,365.2985" fill="none" id="bridge-to-msk" style="stroke:#181818;stroke-width:1;"/><polygon fill="#181818" points="878.25,367.5083,888.0912,367.1188,882.7352,365.2985,884.5555,359.9425,878.25,367.5083" style="stroke:#181818;stroke-width:1;stroke-linejoin:miter;stroke-miterlimit:10;"/><text fill="#000000" font-family="sans-serif" font-size="13" lengthAdjust="spacing" textLength="161.751" x="952.9997" y="294.0066">loyalty.earn.translated.* /</text><text fill="#000000" font-family="sans-serif" font-size="13" lengthAdjust="spacing" textLength="173.5703" x="947.09" y="309.3172">loyalty.member.lifecycle.* /</text><text fill="#000000" font-family="sans-serif" font-size="13" lengthAdjust="spacing" textLength="121.6211" x="973.0646" y="324.6277">loyalty.fraud.alert.*</text></g><!--link msk to abff--><g class="link" data-entity-1="ent0008" data-entity-2="ent0011" data-link-type="dependency" data-source-line="67" id="lnk24"><path d="M765.24,418.8583 C754.93,427.1183 744.91,437.0983 738.09,448.4183 C729.62,462.4683 726.5902,475.6204 725.2102,490.2304" fill="none" id="msk-to-abff" style="stroke:#181818;stroke-width:1;"/><polygon fill="#181818" points="724.74,495.2083,729.5686,486.6243,725.2102,490.2304,721.6041,485.872,724.74,495.2083" style="stroke:#181818;stroke-width:1;stroke-linejoin:miter;stroke-miterlimit:10;"/><text fill="#000000" font-family="sans-serif" font-size="13" lengthAdjust="spacing" textLength="121.6211" x="739.09" y="461.9866">loyalty.fraud.alert.*</text></g><!--link msk to notif--><g class="link" data-entity-1="ent0008" data-entity-2="ent0012" data-link-type="dependency" data-source-line="68" id="lnk25"><path d="M836.88,418.6583 C845.82,427.4483 855.09,437.7583 862.09,448.4183 C871.53,462.8083 877.1421,476.0205 882.0121,490.4605" fill="none" id="msk-to-notif" style="stroke:#181818;stroke-width:1;"/><polygon fill="#181818" points="883.61,495.1983,884.5241,485.3919,882.0121,490.4605,876.9436,487.9485,883.61,495.1983" style="stroke:#181818;stroke-width:1;stroke-linejoin:miter;stroke-miterlimit:10;"/><text fill="#000000" font-family="sans-serif" font-size="13" lengthAdjust="spacing" textLength="51.5049" x="872.48" y="461.9866">loyalty.*</text></g><!--link voucher to bridge--><g class="link" data-entity-1="ent0009" data-entity-2="ent0010" data-link-type="dependency" data-source-line="71" id="lnk26"><path d="M982.36,97.8683 C981.64,123.7783 980.6692,158.4102 979.9492,184.2602" fill="none" id="voucher-to-bridge" style="stroke:#181818;stroke-width:1;"/><polygon fill="#181818" points="979.81,189.2583,984.059,180.3731,979.9492,184.2602,976.0621,180.1504,979.81,189.2583" style="stroke:#181818;stroke-width:1;stroke-linejoin:miter;stroke-miterlimit:10;"/><text fill="#000000" font-family="sans-serif" font-size="13" lengthAdjust="spacing" textLength="65.3047" x="1017.7679" y="141.0366">webhook &#183;</text><text fill="#000000" font-family="sans-serif" font-size="13" lengthAdjust="spacing" textLength="135.9604" x="982.44" y="156.3472">fulfilment completion</text></g><?plantuml-src XLRDRkCs4BxhAGREeMcpTlFZfi7MC90DMknsjwrH1pqjK53KI29CaG99sUiM1NhQ1oZsNNhle-H9EYGbMxQLLeS48kVdcs_c6za99n5-rhnaKce3x_IMIRU5XMGkrwQ2fpy_mSCKtk4Q9Lo7rtkxLRmqMkd6meAvCadiIgYQ6LQ1GUwOAYZexmdGyuhnLM5qex87JGbcCxlcypbTd5scqxkxQJ3wJYjtT1sVipmyCP8s6Pe1ixFBhszkRw-IuNpumSLywMMA_Ajdh8JA3IExCvvdTnbF_kYLP4kMwOrG1UHCMkpTP9YpHhf7od4lHQ4gL0uu_K7Jir8wGuirN5_sUM9gvGzlBvFaCsh01gu2kKAb7XRKHcSDHsFX_BMsZX2hrQuhdoTE5-XAD87bFUUZ1Ti64A-RTBHZ4JeMc8MQRSicFNHwq0P30b_ZVSPgmZ_ixQwdHwwDTReY74iqQy5nrBVcT4cD8ZAFIgJuYacecrGAMuOYfy0z2Xl3sEShb752nyYC8hoZY33E0-NqnyCEFlveLzBEmHyFEnZCiAgTq6hKTw3ZwfaChAePZS7eA0CTxpc86l8zw4LObep2mW_Bj_2MvIlc4tOZIH4gk-hSRu9xQaHM85p0MZVSaqH3vHJzFq-rAoF3Z3lO27gBniypUcEoyOByj_1B6srXz5faVWXwtMnJ3PVkCnQ6URB6CTy1P_5eJy8qL46gKjOP93bmhMn3SsJ_j-yigmJboFE32TrbOcbO5pr7fPt81O_OR3Uc1sCTJ2AwDoVwU_hubszC4fK3C1xFVKFWfTUI5nkTJhv8I1e1o_xQJrPAggBBLWdzorOuT1codagYo-idkkVOyZ1fvzy7zy8vDQYmIdry-FAzwiuaKXjyJZ_40pxxaVTnQMu7RBefZyZzo7gaZXQQfVM4sPW-5NuDTXs5yrTnMWrsrT4YqK1DjZILFhXF4ieyB6-o3qh9EiDGxacPKkJ8jrnYXDMcVFhuAI0yRz40jJmIVR67irz8f2UKcWkImWMG-feiuclRsghkiF6UtdsdmzkkjOFKjr4wOkdvZwhx4KuhxTy6k1CcqRZ3pWogh2FJowKFu31APnNqqRCAyHVjojbWMcgzek1LBT7vRmZpln30ieBHr-lnSV42qiOHuOfs2gqv6czgVBUw3fZjWltpztkLDp8NCdvJszXQ9Gc1GQ0rHno3pblj0ZpgMd1GZBP3yH9cdNxdarcOn_baFLDpiiD9CUata3EJ_MfhmZPPNxr8serohBA5fY6ntz8RUZioem-UO5ByHlNG1lb--TEFiAHwAlODGQ9Q2q6aR_sU8-EKVcziAD7O5y8SeABFE2TNeU3XpIIXxBuGJFu5?></g></svg>