<svg xmlns="http://www.w3.org/2000/svg" xmlns:xlink="http://www.w3.org/1999/xlink" contentStyleType="text/css" data-diagram-type="DESCRIPTION" height="660px" preserveAspectRatio="none" style="width:1663px;height:660px;background:#FFFFFF;" version="1.1" viewBox="0 0 1663 660" width="1663px" zoomAndPan="magnify"><?plantuml 1.2026.4?><defs/><g><g class="title" data-source-line="62"><text fill="#000000" font-family="sans-serif" font-size="14" font-weight="700" lengthAdjust="spacing" textLength="404.332" x="626.2879" y="23.5352">Digital Loyalty Platform &#8212; C4 Level 1 &#8212; System Context</text></g><!--cluster BEP Operators--><g class="cluster" data-qualified-name="BEP Operators" data-source-line="80" id="ent0002"><rect fill="none" height="143.49" rx="10" ry="10" style="stroke:#181818;stroke-width:1;stroke-dasharray:7,7;" width="633" x="452.63" y="44.4883"/><text fill="#000000" font-family="sans-serif" font-size="14" font-style="italic" lengthAdjust="spacing" textLength="79.0439" x="729.608" y="60.0234">&#171;boundary&#187;</text><text fill="#000000" font-family="sans-serif" font-size="14" font-weight="700" lengthAdjust="spacing" textLength="102.9219" x="717.6691" y="76.5117">BEP Operators</text></g><!--cluster Host Bank--><g class="cluster" data-qualified-name="Host Bank" data-source-line="89" id="ent0008"><rect fill="none" height="409.93" rx="10" ry="10" style="stroke:#181818;stroke-width:1;stroke-dasharray:7,7;" width="889" x="380.63" y="236.9783"/><text fill="#000000" font-family="sans-serif" font-size="14" font-style="italic" lengthAdjust="spacing" textLength="79.0439" x="785.608" y="252.5134">&#171;boundary&#187;</text><text fill="#000000" font-family="sans-serif" font-size="14" font-weight="700" lengthAdjust="spacing" textLength="73.1719" x="788.5441" y="269.0017">Host Bank</text></g><!--entity progMgr--><g class="entity" data-qualified-name="BEP Operators.progMgr" data-source-line="81" id="ent0003"><ellipse cx="528.6318" cy="103.9883" fill="#F1F1F1" rx="8" ry="8" style="stroke:#181818;stroke-width:0.5;"/><path d="M528.6318,111.9883 L528.6318,138.9883 M515.6318,119.9883 L541.6318,119.9883 M528.6318,138.9883 L515.6318,153.9883 M528.6318,138.9883 L541.6318,153.9883" fill="none" style="stroke:#181818;stroke-width:0.5;"/><text fill="#000000" font-family="sans-serif" font-size="14" lengthAdjust="spacing" textLength="120.2236" x="468.52" y="169.0234">Program Manager</text></g><!--entity campMgr--><g class="entity" data-qualified-name="BEP Operators.campMgr" data-source-line="82" id="ent0004"><ellipse cx="689.6368" cy="103.9883" fill="#F1F1F1" rx="8" ry="8" style="stroke:#181818;stroke-width:0.5;"/><path d="M689.6368,111.9883 L689.6368,138.9883 M676.6368,119.9883 L702.6368,119.9883 M689.6368,138.9883 L676.6368,153.9883 M689.6368,138.9883 L702.6368,153.9883" fill="none" style="stroke:#181818;stroke-width:0.5;"/><text fill="#000000" font-family="sans-serif" font-size="14" lengthAdjust="spacing" textLength="131.3936" x="623.94" y="169.0234">Campaign Manager</text></g><!--entity csMaker--><g class="entity" data-qualified-name="BEP Operators.csMaker" data-source-line="83" id="ent0005"><ellipse cx="821.6386" cy="103.9883" fill="#F1F1F1" rx="8" ry="8" style="stroke:#181818;stroke-width:0.5;"/><path d="M821.6386,111.9883 L821.6386,138.9883 M808.6386,119.9883 L834.6386,119.9883 M821.6386,138.9883 L808.6386,153.9883 M821.6386,138.9883 L834.6386,153.9883" fill="none" style="stroke:#181818;stroke-width:0.5;"/><text fill="#000000" font-family="sans-serif" font-size="14" lengthAdjust="spacing" textLength="63.1572" x="790.06" y="169.0234">CS Maker</text></g><!--entity csChecker--><g class="entity" data-qualified-name="BEP Operators.csChecker" data-source-line="84" id="ent0006"><ellipse cx="926.6364" cy="103.9883" fill="#F1F1F1" rx="8" ry="8" style="stroke:#181818;stroke-width:0.5;"/><path d="M926.6364,111.9883 L926.6364,138.9883 M913.6364,119.9883 L939.6364,119.9883 M926.6364,138.9883 L913.6364,153.9883 M926.6364,138.9883 L939.6364,153.9883" fill="none" style="stroke:#181818;stroke-width:0.5;"/><text fill="#000000" font-family="sans-serif" font-size="14" lengthAdjust="spacing" textLength="76.7129" x="888.28" y="169.0234">CS Checker</text></g><!--entity fraudOps--><g class="entity" data-qualified-name="BEP Operators.fraudOps" data-source-line="85" id="ent0007"><ellipse cx="1034.6299" cy="103.9883" fill="#F1F1F1" rx="8" ry="8" style="stroke:#181818;stroke-width:0.5;"/><path d="M1034.6299,111.9883 L1034.6299,138.9883 M1021.6299,119.9883 L1047.6299,119.9883 M1034.6299,138.9883 L1021.6299,153.9883 M1034.6299,138.9883 L1047.6299,153.9883" fill="none" style="stroke:#181818;stroke-width:0.5;"/><text fill="#000000" font-family="sans-serif" font-size="14" lengthAdjust="spacing" textLength="69.7197" x="999.77" y="169.0234">Fraud Ops</text></g><!--entity loyalty--><g class="entity" data-qualified-name="Host Bank.loyalty" data-source-line="91" id="ent0009"><rect fill="#0B4884" height="69.4648" rx="2.5" ry="2.5" style="stroke:#073661;stroke-width:0.5;" width="227.1768" x="778.05" y="432.9583"/><text fill="#FFFFFF" font-family="sans-serif" font-size="14" font-style="italic" lengthAdjust="spacing" textLength="51.4131" x="865.9318" y="456.4934">&#171;focus&#187;</text><text fill="#FFFFFF" font-family="sans-serif" font-size="14" font-weight="700" lengthAdjust="spacing" textLength="170.7207" x="806.278" y="472.9817">Digital Loyalty Platform</text><text fill="#FFFFFF" font-family="sans-serif" font-size="14" lengthAdjust="spacing" textLength="207.1768" x="788.05" y="489.47">[Software System &#8212; IN FOCUS]</text></g><!--entity mobile--><g class="entity" data-qualified-name="Host Bank.mobile" data-source-line="93" id="ent0010"><rect fill="#F1F1F1" height="36.4883" rx="2.5" ry="2.5" style="stroke:#181818;stroke-width:0.5;" width="155.625" x="402.82" y="296.2183"/><text fill="#000000" font-family="sans-serif" font-size="14" lengthAdjust="spacing" textLength="135.625" x="412.82" y="319.7534">Mobile Banking App</text></g><!--entity bep--><g class="entity" data-qualified-name="Host Bank.bep" data-source-line="94" id="ent0011"><rect fill="#F1F1F1" height="52.9766" rx="2.5" ry="2.5" style="stroke:#181818;stroke-width:0.5;" width="174.7314" x="596.27" y="287.9783"/><text fill="#000000" font-family="sans-serif" font-size="14" lengthAdjust="spacing" textLength="23.3789" x="671.9463" y="311.5134">BEP</text><text fill="#000000" font-family="sans-serif" font-size="14" lengthAdjust="spacing" textLength="154.7314" x="606.27" y="328.0017">(Bank Employee Portal)</text></g><!--entity payhub--><g class="entity" data-qualified-name="Host Bank.payhub" data-source-line="95" id="ent0012"><rect fill="#F1F1F1" height="36.4883" rx="2.5" ry="2.5" style="stroke:#181818;stroke-width:0.5;" width="109.7969" x="780.74" y="594.4183"/><text fill="#000000" font-family="sans-serif" font-size="14" lengthAdjust="spacing" textLength="89.7969" x="790.74" y="617.9534">Payment Hub</text></g><!--entity t24--><g class="entity" data-qualified-name="Host Bank.t24" data-source-line="96" id="ent0013"><rect fill="#F1F1F1" height="36.4883" rx="2.5" ry="2.5" style="stroke:#181818;stroke-width:0.5;" width="168.5723" x="806.35" y="296.2183"/><text fill="#000000" font-family="sans-serif" font-size="14" lengthAdjust="spacing" textLength="148.5723" x="816.35" y="319.7534">Core Banking Adapter</text></g><!--entity custsvc--><g class="entity" data-qualified-name="Host Bank.custsvc" data-source-line="97" id="ent0014"><rect fill="#F1F1F1" height="36.4883" rx="2.5" ry="2.5" style="stroke:#181818;stroke-width:0.5;" width="137.708" x="1009.78" y="296.2183"/><text fill="#000000" font-family="sans-serif" font-size="14" lengthAdjust="spacing" textLength="117.708" x="1019.78" y="319.7534">Customer Service</text></g><!--entity keycloak--><g class="entity" data-qualified-name="Host Bank.keycloak" data-source-line="98" id="ent0015"><rect fill="#F1F1F1" height="36.4883" rx="2.5" ry="2.5" style="stroke:#181818;stroke-width:0.5;" width="171.2793" x="396.99" y="594.4183"/><text fill="#000000" font-family="sans-serif" font-size="14" lengthAdjust="spacing" textLength="151.2793" x="406.99" y="617.9534">Authentication Service</text></g><!--entity notif--><g class="entity" data-qualified-name="Host Bank.notif" data-source-line="99" id="ent0016"><rect fill="#F1F1F1" height="36.4883" rx="2.5" ry="2.5" style="stroke:#181818;stroke-width:0.5;" width="152.2686" x="1019.5" y="594.4183"/><text fill="#000000" font-family="sans-serif" font-size="14" lengthAdjust="spacing" textLength="132.2686" x="1029.5" y="617.9534">notification-service</text></g><!--entity member--><g class="entity" data-qualified-name="member" data-source-line="78" id="ent0001"><ellipse cx="33.6343" cy="103.9883" fill="#F1F1F1" rx="8" ry="8" style="stroke:#181818;stroke-width:0.5;"/><path d="M33.6343,111.9883 L33.6343,138.9883 M20.6343,119.9883 L46.6343,119.9883 M33.6343,138.9883 L20.6343,153.9883 M33.6343,138.9883 L46.6343,153.9883" fill="none" style="stroke:#181818;stroke-width:0.5;"/><text fill="#000000" font-family="sans-serif" font-size="14" lengthAdjust="spacing" textLength="55.2686" x="6" y="169.0234">Member</text></g><!--entity voucher--><g class="entity" data-qualified-name="voucher" data-source-line="103" id="ent0017"><rect fill="#F1F1F1" height="36.4883" rx="2.5" ry="2.5" style="stroke:#181818;stroke-width:0.5;" width="205.6299" x="1351.82" y="296.2183"/><text fill="#000000" font-family="sans-serif" font-size="14" lengthAdjust="spacing" textLength="185.6299" x="1361.82" y="319.7534">3rd-Party Voucher Provider</text></g><!--link member to mobile--><g class="link" data-entity-1="ent0001" data-entity-2="ent0010" data-link-type="dependency" data-source-line="108" id="lnk18"><path d="M46.36,172.2983 C54.02,189.5383 65.48,208.8183 81.63,220.9783 C175.93,291.9783 310.7147,309.572 397.3347,313.322" fill="none" id="member-to-mobile" style="stroke:#181818;stroke-width:1;"/><polygon fill="#181818" points="402.33,313.5383,393.5114,309.1528,397.3347,313.322,393.1654,317.1453,402.33,313.5383" style="stroke:#181818;stroke-width:1;stroke-linejoin:miter;stroke-miterlimit:10;"/><text fill="#000000" font-family="sans-serif" font-size="13" lengthAdjust="spacing" textLength="194.3398" x="82.63" y="217.5466">Views balance; redeems points</text></g><!--link progMgr to bep--><g class="link" data-entity-1="ent0003" data-entity-2="ent0011" data-link-type="dependency" data-source-line="109" id="lnk19"><path d="M468.12,138.0483 C382.16,144.7883 240.85,164.6083 295.63,220.9783 C306.48,232.1383 561,223.6983 575.63,228.9783 C609,241.0183 636.5745,264.1227 656.7545,284.3027" fill="none" id="progMgr-to-bep" style="stroke:#181818;stroke-width:1;"/><polygon fill="#181818" points="660.29,287.8383,656.7545,278.6459,656.7545,284.3027,651.0976,284.3027,660.29,287.8383" style="stroke:#181818;stroke-width:1;stroke-linejoin:miter;stroke-miterlimit:10;"/><text fill="#000000" font-family="sans-serif" font-size="13" lengthAdjust="spacing" textLength="262.1201" x="296.63" y="217.5466">Manages Programs, Rules, Rewards, Tiers</text></g><!--link campMgr to bep--><g class="link" data-entity-1="ent0004" data-entity-2="ent0011" data-link-type="dependency" data-source-line="110" id="lnk20"><path d="M645.68,172.3983 C633.64,181.2183 620.16,189.8183 606.63,195.9783 C591.72,202.7683 580.89,191.1983 570.63,203.9783 C565.91,209.8683 567.4,214.1483 570.63,220.9783 C578.75,238.1083 611.8381,263.8807 641.3681,284.7707" fill="none" id="campMgr-to-bep" style="stroke:#181818;stroke-width:1;"/><polygon fill="#181818" points="645.45,287.6583,640.4127,279.1951,641.3681,284.7707,635.7925,285.7261,645.45,287.6583" style="stroke:#181818;stroke-width:1;stroke-linejoin:miter;stroke-miterlimit:10;"/><text fill="#000000" font-family="sans-serif" font-size="13" lengthAdjust="spacing" textLength="206.0449" x="571.63" y="217.5466">Manages Campaigns &amp; Drawings</text></g><!--link csMaker to bep--><g class="link" data-entity-1="ent0005" data-entity-2="ent0011" data-link-type="dependency" data-source-line="111" id="lnk21"><path d="M808.5,172.1283 C802.01,187.9683 793.26,206.1583 782.63,220.9783 C764.41,246.3983 742.2552,267.1844 721.4652,284.3544" fill="none" id="csMaker-to-bep" style="stroke:#181818;stroke-width:1;"/><polygon fill="#181818" points="717.61,287.5383,727.0965,284.8914,721.4652,284.3544,722.0022,278.723,717.61,287.5383" style="stroke:#181818;stroke-width:1;stroke-linejoin:miter;stroke-miterlimit:10;"/><text fill="#000000" font-family="sans-serif" font-size="13" lengthAdjust="spacing" textLength="183.0601" x="793.33" y="217.5466">Submits manual adjustments</text></g><!--link csChecker to bep--><g class="link" data-entity-1="ent0006" data-entity-2="ent0011" data-link-type="dependency" data-source-line="112" id="lnk22"><path d="M965.45,170.7383 C973.68,180.6383 981.21,191.9783 985.63,203.9783 C988.25,211.0683 990.87,215.5283 985.63,220.9783 C970.46,236.7783 809.14,221.2783 788.63,228.9783 C756.21,241.1483 729.6824,263.9102 710.1124,283.9602" fill="none" id="csChecker-to-bep" style="stroke:#181818;stroke-width:1;"/><polygon fill="#181818" points="706.62,287.5383,715.7689,283.8916,710.1124,283.9602,710.0439,278.3037,706.62,287.5383" style="stroke:#181818;stroke-width:1;stroke-linejoin:miter;stroke-miterlimit:10;"/><text fill="#000000" font-family="sans-serif" font-size="13" lengthAdjust="spacing" textLength="191.6611" x="989.65" y="217.5466">Approves manual adjustments</text></g><!--link fraudOps to bep--><g class="link" data-entity-1="ent0007" data-entity-2="ent0011" data-link-type="dependency" data-source-line="113" id="lnk23"><path d="M1069.75,140.9183 C1127.03,152.3583 1230.27,179.5283 1189.63,220.9783 C1174.04,236.8883 809.58,221.3683 788.63,228.9783 C755.87,240.8883 729.1536,263.9619 709.6336,284.1719" fill="none" id="fraudOps-to-bep" style="stroke:#181818;stroke-width:1;"/><polygon fill="#181818" points="706.16,287.7683,715.2896,284.0737,709.6336,284.1719,709.5354,278.5159,706.16,287.7683" style="stroke:#181818;stroke-width:1;stroke-linejoin:miter;stroke-miterlimit:10;"/><text fill="#000000" font-family="sans-serif" font-size="13" lengthAdjust="spacing" textLength="218.8481" x="1199.7" y="217.5466">Reviews alerts; suspends Members</text></g><!--link mobile to loyalty--><g class="link" data-entity-1="ent0010" data-entity-2="ent0009" data-link-type="dependency" data-source-line="116" id="lnk24"><path d="M489.82,333.0483 C501.39,353.3283 523.23,386.0383 551.63,402.9583 C589.24,425.3483 689.2726,442.2573 772.7326,453.2173" fill="none" id="mobile-to-loyalty" style="stroke:#181818;stroke-width:1;"/><polygon fill="#181818" points="777.69,453.8683,769.2874,448.7305,772.7326,453.2173,768.2458,456.6624,777.69,453.8683" style="stroke:#181818;stroke-width:1;stroke-linejoin:miter;stroke-miterlimit:10;"/><text fill="#000000" font-family="sans-serif" font-size="13" lengthAdjust="spacing" textLength="132.8247" x="553.2076" y="384.5266">Reads member state;</text><text fill="#000000" font-family="sans-serif" font-size="13" lengthAdjust="spacing" textLength="133.98" x="552.63" y="399.8372">submits redemptions</text></g><!--link bep to loyalty--><g class="link" data-entity-1="ent0011" data-entity-2="ent0009" data-link-type="dependency" data-source-line="117" id="lnk25"><path d="M686.44,341.1983 C689.83,360.5183 697.28,386.3783 713.63,402.9583 C731.27,420.8283 749.6076,431.8765 773.1776,441.1565" fill="none" id="bep-to-loyalty" style="stroke:#181818;stroke-width:1;"/><polygon fill="#181818" points="777.83,442.9883,770.9211,435.9692,773.1776,441.1565,767.9903,443.4131,777.83,442.9883" style="stroke:#181818;stroke-width:1;stroke-linejoin:miter;stroke-miterlimit:10;"/><text fill="#000000" font-family="sans-serif" font-size="13" lengthAdjust="spacing" textLength="139.5215" x="714.63" y="384.5266">Administers Programs</text><text fill="#000000" font-family="sans-serif" font-size="13" lengthAdjust="spacing" textLength="80.3867" x="744.1974" y="399.8372">&amp; operations</text></g><!--link payhub to loyalty--><g class="link" data-entity-1="ent0012" data-entity-2="ent0009" data-link-type="dependency" data-source-line="120" id="lnk26"><path d="M854.56,593.9983 C862.28,585.7483 870.57,575.3383 875.63,564.4183 C884.56,545.1583 888.1135,526.6465 889.8835,507.7565" fill="none" id="payhub-to-loyalty" style="stroke:#181818;stroke-width:1;"/><polygon fill="#181818" points="890.35,502.7783,885.5278,511.3659,889.8835,507.7565,893.4929,512.1122,890.35,502.7783" style="stroke:#181818;stroke-width:1;stroke-linejoin:miter;stroke-miterlimit:10;"/><text fill="#000000" font-family="sans-serif" font-size="13" lengthAdjust="spacing" textLength="139.3628" x="886.5" y="545.9866">Notifies of card spend</text><text fill="#000000" font-family="sans-serif" font-size="13" lengthAdjust="spacing" textLength="69.2212" x="921.5708" y="561.2972">&amp; reversals</text></g><!--link loyalty to payhub--><g class="link" data-entity-1="ent0009" data-entity-2="ent0012" data-link-type="dependency" data-source-line="125" id="lnk29"><path d="M779.71,502.8983 C767.86,510.8083 757.34,520.5083 749.63,532.4183 C741.91,544.3583 742.39,552.1783 749.63,564.4183 C757.27,577.3183 765.4018,584.5788 778.5918,591.6388" fill="none" id="loyalty-to-payhub" style="stroke:#181818;stroke-width:1;"/><polygon fill="#181818" points="783,593.9983,776.9528,586.2245,778.5918,591.6388,773.1775,593.2777,783,593.9983" style="stroke:#181818;stroke-width:1;stroke-linejoin:miter;stroke-miterlimit:10;"/><text fill="#000000" font-family="sans-serif" font-size="13" lengthAdjust="spacing" textLength="99.9819" x="758.7613" y="545.9866">Fulfils cashback</text><text fill="#000000" font-family="sans-serif" font-size="13" lengthAdjust="spacing" textLength="116.2446" x="750.63" y="561.2972">to Customer CASA</text></g><!--link t24 to loyalty--><g class="link" data-entity-1="ent0013" data-entity-2="ent0009" data-link-type="dependency" data-source-line="121" id="lnk27"><path d="M880.12,332.7483 C874.3,343.3583 867.64,357.4583 864.63,370.9583 C860.02,391.6883 864.1572,409.9786 871.6972,428.1886" fill="none" id="t24-to-loyalty" style="stroke:#181818;stroke-width:1;"/><polygon fill="#181818" points="873.61,432.8083,873.8627,422.9627,871.6972,428.1886,866.4712,426.0232,873.61,432.8083" style="stroke:#181818;stroke-width:1;stroke-linejoin:miter;stroke-miterlimit:10;"/><text fill="#000000" font-family="sans-serif" font-size="13" lengthAdjust="spacing" textLength="157.3838" x="865.63" y="384.5266">Notifies of account-state</text><text fill="#000000" font-family="sans-serif" font-size="13" lengthAdjust="spacing" textLength="91.5522" x="898.5458" y="399.8372">changes (v1.x)</text></g><!--link custsvc to loyalty--><g class="link" data-entity-1="ent0014" data-entity-2="ent0009" data-link-type="dependency" data-source-line="122" id="lnk28"><path d="M1072.14,332.9983 C1064.22,352.3183 1049.17,383.2583 1027.63,402.9583 C1015.03,414.4783 1004.3852,421.9319 988.9552,430.1319" fill="none" id="custsvc-to-loyalty" style="stroke:#181818;stroke-width:1;"/><polygon fill="#181818" points="984.54,432.4783,994.3646,431.787,988.9552,430.1319,990.6103,424.7226,984.54,432.4783" style="stroke:#181818;stroke-width:1;stroke-linejoin:miter;stroke-miterlimit:10;"/><text fill="#000000" font-family="sans-serif" font-size="13" lengthAdjust="spacing" textLength="182.3936" x="1054.0851" y="384.5266">Notifies of customer closure;</text><text fill="#000000" font-family="sans-serif" font-size="13" lengthAdjust="spacing" textLength="184.8438" x="1052.86" y="399.8372">serves display-name lookups</text></g><!--link loyalty to notif--><g class="link" data-entity-1="ent0009" data-entity-2="ent0016" data-link-type="dependency" data-source-line="126" id="lnk30"><path d="M986.23,502.8183 C1003.22,511.1283 1020.11,520.9883 1034.63,532.4183 C1056.6,549.7083 1072.4629,572.3257 1083.1429,589.8957" fill="none" id="loyalty-to-notif" style="stroke:#181818;stroke-width:1;"/><polygon fill="#181818" points="1085.74,594.1683,1084.4833,584.3999,1083.1429,589.8957,1077.6471,588.5553,1085.74,594.1683" style="stroke:#181818;stroke-width:1;stroke-linejoin:miter;stroke-miterlimit:10;"/><text fill="#000000" font-family="sans-serif" font-size="13" lengthAdjust="spacing" textLength="149.6396" x="1069.5204" y="545.9866">Publishes loyalty events</text><text fill="#000000" font-family="sans-serif" font-size="13" lengthAdjust="spacing" textLength="156.9204" x="1065.88" y="561.2972">for member notifications</text></g><!--link loyalty to keycloak--><g class="link" data-entity-1="ent0009" data-entity-2="ent0015" data-link-type="dependency" data-source-line="127" id="lnk31"><path d="M777.79,468.8883 C661.47,471.7983 492.16,484.4683 450.63,532.4183 C435.09,550.3683 448.2743,573.0012 462.7443,590.3212" fill="none" id="loyalty-to-keycloak" style="stroke:#181818;stroke-width:1;"/><polygon fill="#181818" points="465.95,594.1583,463.2494,584.6869,462.7443,590.3212,457.11,589.8161,465.95,594.1583" style="stroke:#181818;stroke-width:1;stroke-linejoin:miter;stroke-miterlimit:10;"/><text fill="#000000" font-family="sans-serif" font-size="13" lengthAdjust="spacing" textLength="283.2388" x="451.63" y="545.9866">Validates member &amp; employee identity (JWT);</text><text fill="#000000" font-family="sans-serif" font-size="13" lengthAdjust="spacing" textLength="274.9614" x="455.7687" y="561.2972">step-up re-auth for high-value redemption</text></g><!--link loyalty to voucher--><g class="link" data-entity-1="ent0009" data-entity-2="ent0017" data-link-type="dependency" data-source-line="130" id="lnk32"><path d="M1005.57,462.4683 C1168.6,455.2583 1452.34,437.8083 1483.63,402.9583 C1501.38,383.1883 1486.9193,356.2788 1472.4493,336.9788" fill="none" id="loyalty-to-voucher" style="stroke:#181818;stroke-width:1;"/><polygon fill="#181818" points="1469.45,332.9783,1471.6484,342.5786,1472.4493,336.9788,1478.0492,337.7797,1469.45,332.9783" style="stroke:#181818;stroke-width:1;stroke-linejoin:miter;stroke-miterlimit:10;"/><text fill="#000000" font-family="sans-serif" font-size="13" lengthAdjust="spacing" textLength="147.0498" x="1496.494" y="384.5266">Provisions vouchers for</text><text fill="#000000" font-family="sans-serif" font-size="13" lengthAdjust="spacing" textLength="155.7778" x="1492.13" y="399.8372">partner-fulfilled rewards</text></g><!--link voucher to loyalty--><g class="link" data-entity-1="ent0017" data-entity-2="ent0009" data-link-type="dependency" data-source-line="131" id="lnk33"><path d="M1382,333.1283 C1351.24,342.1583 1315.65,354.7183 1285.63,370.9583 C1265.61,381.7883 1266.36,393.5383 1245.63,402.9583 C1169.88,437.3683 1082.0443,452.7216 1010.4743,460.0116" fill="none" id="voucher-to-loyalty" style="stroke:#181818;stroke-width:1;"/><polygon fill="#181818" points="1005.5,460.5183,1014.859,463.5857,1010.4743,460.0116,1014.0483,455.6269,1005.5,460.5183" style="stroke:#181818;stroke-width:1;stroke-linejoin:miter;stroke-miterlimit:10;"/><text fill="#000000" font-family="sans-serif" font-size="13" lengthAdjust="spacing" textLength="188.5127" x="1286.63" y="392.0266">Reports fulfilment completion</text></g><?plantuml-src pLPTRzis57tNho0y84k2QMZQe2kI8e3h9aYxfZ7Yh7kOzq1BLnPdYXH8ogan3EZJVi3GNzXViaDAiYMvxSDULiFm1tdFlPVdtdie9vmazb8iXUEIlT4RBjs6JILtcJO5-_JX8vkSiZUq9ibEmj_PnZegs4GhH-zT5DcLK2Ktl6264iVL4lx-Z1XUHbSgdMYZo3n_ll1_kDbSNB37ZyBs2srICZEtaTJRJhdDAQrDUB9QDcwaxdjnXYkBmAHSzDTNijZpaUcaid3mtQF5wRDdfy7e2gSPRcVXrKbr3__JawTFJth1RSvJ_I3KacLSMkhif9JnIhfxS3QMOgaAvCqIV929ek_PfuyVwZURah5QSRjR-lRV4K-SDcnqGyM2p8WX-oByZA9TEKOlBgVijYJ3OMj7h5VDkbQDcwdHIy_P3LTywVrvXoKMRvQcQpVXHSd1vSuGTWaMXtOpMAo2e-RbxMnO6zXDSaewbi6kMUjQNXbUfJYC7NKyPduHQ-Y8NaKlVP5B8ooTiMjj7LfIhTZX-WIzcX4QEC6628i_Nn_zzxftkTx6sUEv7isTvV7nbwR_-7YkVflfp3rWojgvznBmwYsxkftyCllTEs_70GJ8si5UY1kz4FZswVZH69VbhXAXLyB-48LscQl3GCjbKS8t4PjgWqoFGg4NL0uXKxu9StLTBJeHTe5AlichnH05YUeab_BITLe5AFVuT0zIMQSBCcn6PYqI6Wq2WH9dryaGDgvSZln4mftGQW06R4MRH6g-6kAKTY9hKB4TX0Gkx0_RxhPoLgJ449BHjWN_VrdfjkaJayPJRj1qxtILv20Kixz6rlKih-l5_hdkI0OYR2xARribVTuxEV_x7oW4xfcOLCfic2ORrJBfonZ75yqWi3FsJj03EfnB3d4uHoka16jMQg6SZHefR42O0uy_QrJGiaO-xG_ihfBalmWJdEB7lK0sKQEGNuAtgchP0NjfkB_DWAdLSeYPLOj2E4mmLnKKXAT_eF7z27f4evjz18OV5QRFGbe17GIvetMWWqiopfupMzaI75fMNpVMqtpLCbiJtKXPr13gtJNY5FpnjBsWc7NSqVbSsUOadkgY3FqLDHdqqUEq44gWUcR7z5mTC1rkje13FgzK4DqWbwsk9jYh2aBzWWmD7RyDGmvcT8PBpA17_2czQuF7BsFnG151YjX-IbqaJn84Td4urrmbEIODExXjVdn_53MwzBN8hR91Y6nb0ZKG76ocmfQIRsB52m9Ohweo71KwyvcpSebqsn0-N7jenBkgP2Qalwfjli3ZsLmvpRQIEXdFnZraKBUw5QRLGWey7cxl6WPgq3fpXGkhBMbNBVivjFhg9unBaOAYRICSC6fl6UWFH1gOmzU_tXzv1XoLSLMY4367X3CVB1VBF5vpML6dPpmV4wEjZRkA2rxm4EZm7CmmlxIi-wINMQDq_eXU0ArFlLsqFjvSDIxYBB0dAKNSCDTH2nwsUOdR4k1WNpzlQXoHGl1_0G00?></g></svg>