<svg xmlns="http://www.w3.org/2000/svg" xmlns:xlink="http://www.w3.org/1999/xlink" contentStyleType="text/css" data-diagram-type="SEQUENCE" height="939px" preserveAspectRatio="none" style="width:1871px;height:939px;background:#FFFFFF;" version="1.1" viewBox="0 0 1871 939" width="1871px" zoomAndPan="magnify"><?plantuml 1.2026.4?><defs/><g><g class="title" data-source-line="1"><text fill="#000000" font-family="sans-serif" font-size="14" font-weight="700" lengthAdjust="spacing" textLength="617.7295" x="623.2576" y="28.5352">C4 Level 3 &#8212; Bridge &#8212; consume &#8594; validate &#8594; stamp &#8594; produce (card_spend ingress)</text></g><g><title>Card-Spend Ingress Consumer</title><rect fill="#FFFFFF" height="700.0293" style="stroke:#181818;stroke-width:1;" width="10" x="342.2451" y="167.707"/></g><g><title>Ingress Schema Validator</title><rect fill="#FFFFFF" height="163.8184" style="stroke:#181818;stroke-width:1;" width="10" x="556.4551" y="240.3281"/></g><g><title>Canonical Source Stamper</title><rect fill="#FFFFFF" height="132.8633" style="stroke:#181818;stroke-width:1;" width="10" x="754.4023" y="476.7676"/></g><g><title>Kafka Producer</title><rect fill="#FFFFFF" height="59.9316" style="stroke:#181818;stroke-width:1;" width="10" x="1141.605" y="728.1836"/></g><rect fill="none" height="540.7871" style="stroke:#000000;stroke-width:1.5;" width="1629.6099" x="225.6348" y="255.3281"/><g class="participant-lifeline" data-entity-uid="part1" data-qualified-name="msk_in" data-source-line="3" id="part1-lifeline"><g><title>loyalty.ingress.card_spend.v1</title><rect fill="#000000" fill-opacity="0.00000" height="795.2715" width="8" x="111.3174" y="90.4648"/><line style="stroke:#181818;stroke-width:0.5;stroke-dasharray:5,5;" x1="115" x2="115" y1="90.4648" y2="885.7363"/></g></g><g class="participant-lifeline" data-entity-uid="part2" data-qualified-name="consumer" data-source-line="4" id="part2-lifeline"><g><title>Card-Spend Ingress Consumer</title><rect fill="#000000" fill-opacity="0.00000" height="795.2715" width="8" x="343.2451" y="90.4648"/><line style="stroke:#181818;stroke-width:0.5;stroke-dasharray:5,5;" x1="346.6348" x2="346.6348" y1="90.4648" y2="885.7363"/></g></g><g class="participant-lifeline" data-entity-uid="part3" data-qualified-name="val" data-source-line="5" id="part3-lifeline"><g><title>Ingress Schema Validator</title><rect fill="#000000" fill-opacity="0.00000" height="795.2715" width="8" x="557.4551" y="90.4648"/><line style="stroke:#181818;stroke-width:0.5;stroke-dasharray:5,5;" x1="560.8555" x2="560.8555" y1="90.4648" y2="885.7363"/></g></g><g class="participant-lifeline" data-entity-uid="part4" data-qualified-name="stamp" data-source-line="6" id="part4-lifeline"><g><title>Canonical Source Stamper</title><rect fill="#000000" fill-opacity="0.00000" height="795.2715" width="8" x="755.4023" y="90.4648"/><line style="stroke:#181818;stroke-width:0.5;stroke-dasharray:5,5;" x1="759.0547" x2="759.0547" y1="90.4648" y2="885.7363"/></g></g><g class="participant-lifeline" data-entity-uid="part5" data-qualified-name="prod" data-source-line="7" id="part5-lifeline"><g><title>Kafka Producer</title><rect fill="#000000" fill-opacity="0.00000" height="795.2715" width="8" x="1142.605" y="90.4648"/><line style="stroke:#181818;stroke-width:0.5;stroke-dasharray:5,5;" x1="1146.291" x2="1146.291" y1="90.4648" y2="885.7363"/></g></g><g class="participant-lifeline" data-entity-uid="part6" data-qualified-name="msk_out" data-source-line="8" id="part6-lifeline"><g><title>loyalty.earn.translated.v1</title><rect fill="#000000" fill-opacity="0.00000" height="795.2715" width="8" x="1370.8071" y="90.4648"/><line style="stroke:#181818;stroke-width:0.5;stroke-dasharray:5,5;" x1="1373.9204" x2="1373.9204" y1="90.4648" y2="885.7363"/></g></g><g class="participant-lifeline" data-entity-uid="part7" data-qualified-name="dlq" data-source-line="9" id="part7-lifeline"><g><title>loyalty.ingress.card_spend.v1.dlq</title><rect fill="#000000" fill-opacity="0.00000" height="795.2715" width="8" x="1600.061" y="90.4648"/><line style="stroke:#181818;stroke-width:0.5;stroke-dasharray:5,5;" x1="1603.6938" x2="1603.6938" y1="90.4648" y2="885.7363"/></g></g><g class="participant participant-head" data-entity-uid="part1" data-qualified-name="msk_in" data-source-line="3" id="part1-head"><path d="M10,63.9766 L220.6348,63.9766 C225.6348,63.9766 225.6348,77.2207 225.6348,77.2207 C225.6348,77.2207 225.6348,90.4648 220.6348,90.4648 L10,90.4648 C5,90.4648 5,77.2207 5,77.2207 C5,77.2207 5,63.9766 10,63.9766" fill="#E2E2F0" style="stroke:#181818;stroke-width:0.5;"/><path d="M220.6348,63.9766 C215.6348,63.9766 215.6348,77.2207 215.6348,77.2207 C215.6348,90.4648 220.6348,90.4648 220.6348,90.4648" fill="none" style="stroke:#181818;stroke-width:0.5;"/><text fill="#000000" font-family="sans-serif" font-size="14" lengthAdjust="spacing" textLength="200.6348" x="10" y="82.5117">loyalty.ingress.card_spend.v1</text></g><g class="participant participant-tail" data-entity-uid="part1" data-qualified-name="msk_in" data-source-line="3" id="part1-tail"><path d="M10,884.7363 L220.6348,884.7363 C225.6348,884.7363 225.6348,897.9805 225.6348,897.9805 C225.6348,897.9805 225.6348,911.2246 220.6348,911.2246 L10,911.2246 C5,911.2246 5,897.9805 5,897.9805 C5,897.9805 5,884.7363 10,884.7363" fill="#E2E2F0" style="stroke:#181818;stroke-width:0.5;"/><path d="M220.6348,884.7363 C215.6348,884.7363 215.6348,897.9805 215.6348,897.9805 C215.6348,911.2246 220.6348,911.2246 220.6348,911.2246" fill="none" style="stroke:#181818;stroke-width:0.5;"/><text fill="#000000" font-family="sans-serif" font-size="14" lengthAdjust="spacing" textLength="200.6348" x="10" y="903.2715">loyalty.ingress.card_spend.v1</text></g><g class="participant participant-head" data-entity-uid="part2" data-qualified-name="consumer" data-source-line="4" id="part2-head"><rect fill="#E2E2F0" height="30.4883" rx="2.5" ry="2.5" style="stroke:#181818;stroke-width:0.5;" width="223.2207" x="235.6348" y="58.9766"/><text fill="#000000" font-family="sans-serif" font-size="14" lengthAdjust="spacing" textLength="209.2207" x="242.6348" y="79.5117">Card-Spend Ingress Consumer</text></g><g class="participant participant-tail" data-entity-uid="part2" data-qualified-name="consumer" data-source-line="4" id="part2-tail"><rect fill="#E2E2F0" height="30.4883" rx="2.5" ry="2.5" style="stroke:#181818;stroke-width:0.5;" width="223.2207" x="235.6348" y="884.7363"/><text fill="#000000" font-family="sans-serif" font-size="14" lengthAdjust="spacing" textLength="209.2207" x="242.6348" y="905.2715">Card-Spend Ingress Consumer</text></g><g class="participant participant-head" data-entity-uid="part3" data-qualified-name="val" data-source-line="5" id="part3-head"><rect fill="#E2E2F0" height="30.4883" rx="2.5" ry="2.5" style="stroke:#181818;stroke-width:0.5;" width="185.1992" x="468.8555" y="58.9766"/><text fill="#000000" font-family="sans-serif" font-size="14" lengthAdjust="spacing" textLength="171.1992" x="475.8555" y="79.5117">Ingress Schema Validator</text></g><g class="participant participant-tail" data-entity-uid="part3" data-qualified-name="val" data-source-line="5" id="part3-tail"><rect fill="#E2E2F0" height="30.4883" rx="2.5" ry="2.5" style="stroke:#181818;stroke-width:0.5;" width="185.1992" x="468.8555" y="884.7363"/><text fill="#000000" font-family="sans-serif" font-size="14" lengthAdjust="spacing" textLength="171.1992" x="475.8555" y="905.2715">Ingress Schema Validator</text></g><g class="participant participant-head" data-entity-uid="part4" data-qualified-name="stamp" data-source-line="6" id="part4-head"><rect fill="#E2E2F0" height="30.4883" rx="2.5" ry="2.5" style="stroke:#181818;stroke-width:0.5;" width="190.6953" x="664.0547" y="58.9766"/><text fill="#000000" font-family="sans-serif" font-size="14" lengthAdjust="spacing" textLength="176.6953" x="671.0547" y="79.5117">Canonical Source Stamper</text></g><g class="participant participant-tail" data-entity-uid="part4" data-qualified-name="stamp" data-source-line="6" id="part4-tail"><rect fill="#E2E2F0" height="30.4883" rx="2.5" ry="2.5" style="stroke:#181818;stroke-width:0.5;" width="190.6953" x="664.0547" y="884.7363"/><text fill="#000000" font-family="sans-serif" font-size="14" lengthAdjust="spacing" textLength="176.6953" x="671.0547" y="905.2715">Canonical Source Stamper</text></g><g class="participant participant-head" data-entity-uid="part5" data-qualified-name="prod" data-source-line="7" id="part5-head"><rect fill="#E2E2F0" height="46.9766" rx="2.5" ry="2.5" style="stroke:#181818;stroke-width:0.5;" width="116.6279" x="1088.291" y="42.4883"/><text fill="#000000" font-family="sans-serif" font-size="14" lengthAdjust="spacing" textLength="102.6279" x="1095.291" y="63.0234">Kafka Producer</text><text fill="#000000" font-family="sans-serif" font-size="14" lengthAdjust="spacing" textLength="87.2061" x="1103.002" y="79.5117">(idempotent)</text></g><g class="participant participant-tail" data-entity-uid="part5" data-qualified-name="prod" data-source-line="7" id="part5-tail"><rect fill="#E2E2F0" height="46.9766" rx="2.5" ry="2.5" style="stroke:#181818;stroke-width:0.5;" width="116.6279" x="1088.291" y="884.7363"/><text fill="#000000" font-family="sans-serif" font-size="14" lengthAdjust="spacing" textLength="102.6279" x="1095.291" y="905.2715">Kafka Producer</text><text fill="#000000" font-family="sans-serif" font-size="14" lengthAdjust="spacing" textLength="87.2061" x="1103.002" y="921.7598">(idempotent)</text></g><g class="participant participant-head" data-entity-uid="part6" data-qualified-name="msk_out" data-source-line="8" id="part6-head"><path d="M1283.9204,63.9766 L1465.6938,63.9766 C1470.6938,63.9766 1470.6938,77.2207 1470.6938,77.2207 C1470.6938,77.2207 1470.6938,90.4648 1465.6938,90.4648 L1283.9204,90.4648 C1278.9204,90.4648 1278.9204,77.2207 1278.9204,77.2207 C1278.9204,77.2207 1278.9204,63.9766 1283.9204,63.9766" fill="#E2E2F0" style="stroke:#181818;stroke-width:0.5;"/><path d="M1465.6938,63.9766 C1460.6938,63.9766 1460.6938,77.2207 1460.6938,77.2207 C1460.6938,90.4648 1465.6938,90.4648 1465.6938,90.4648" fill="none" style="stroke:#181818;stroke-width:0.5;"/><text fill="#000000" font-family="sans-serif" font-size="14" lengthAdjust="spacing" textLength="171.7734" x="1283.9204" y="82.5117">loyalty.earn.translated.v1</text></g><g class="participant participant-tail" data-entity-uid="part6" data-qualified-name="msk_out" data-source-line="8" id="part6-tail"><path d="M1283.9204,884.7363 L1465.6938,884.7363 C1470.6938,884.7363 1470.6938,897.9805 1470.6938,897.9805 C1470.6938,897.9805 1470.6938,911.2246 1465.6938,911.2246 L1283.9204,911.2246 C1278.9204,911.2246 1278.9204,897.9805 1278.9204,897.9805 C1278.9204,897.9805 1278.9204,884.7363 1283.9204,884.7363" fill="#E2E2F0" style="stroke:#181818;stroke-width:0.5;"/><path d="M1465.6938,884.7363 C1460.6938,884.7363 1460.6938,897.9805 1460.6938,897.9805 C1460.6938,911.2246 1465.6938,911.2246 1465.6938,911.2246" fill="none" style="stroke:#181818;stroke-width:0.5;"/><text fill="#000000" font-family="sans-serif" font-size="14" lengthAdjust="spacing" textLength="171.7734" x="1283.9204" y="903.2715">loyalty.earn.translated.v1</text></g><g class="participant participant-head" data-entity-uid="part7" data-qualified-name="dlq" data-source-line="9" id="part7-head"><path d="M1485.6938,63.9766 L1722.4282,63.9766 C1727.4282,63.9766 1727.4282,77.2207 1727.4282,77.2207 C1727.4282,77.2207 1727.4282,90.4648 1722.4282,90.4648 L1485.6938,90.4648 C1480.6938,90.4648 1480.6938,77.2207 1480.6938,77.2207 C1480.6938,77.2207 1480.6938,63.9766 1485.6938,63.9766" fill="#E2E2F0" style="stroke:#181818;stroke-width:0.5;"/><path d="M1722.4282,63.9766 C1717.4282,63.9766 1717.4282,77.2207 1717.4282,77.2207 C1717.4282,90.4648 1722.4282,90.4648 1722.4282,90.4648" fill="none" style="stroke:#181818;stroke-width:0.5;"/><text fill="#000000" font-family="sans-serif" font-size="14" lengthAdjust="spacing" textLength="226.7344" x="1485.6938" y="82.5117">loyalty.ingress.card_spend.v1.dlq</text></g><g class="participant participant-tail" data-entity-uid="part7" data-qualified-name="dlq" data-source-line="9" id="part7-tail"><path d="M1485.6938,884.7363 L1722.4282,884.7363 C1727.4282,884.7363 1727.4282,897.9805 1727.4282,897.9805 C1727.4282,897.9805 1727.4282,911.2246 1722.4282,911.2246 L1485.6938,911.2246 C1480.6938,911.2246 1480.6938,897.9805 1480.6938,897.9805 C1480.6938,897.9805 1480.6938,884.7363 1485.6938,884.7363" fill="#E2E2F0" style="stroke:#181818;stroke-width:0.5;"/><path d="M1722.4282,884.7363 C1717.4282,884.7363 1717.4282,897.9805 1717.4282,897.9805 C1717.4282,911.2246 1722.4282,911.2246 1722.4282,911.2246" fill="none" style="stroke:#181818;stroke-width:0.5;"/><text fill="#000000" font-family="sans-serif" font-size="14" lengthAdjust="spacing" textLength="226.7344" x="1485.6938" y="903.2715">loyalty.ingress.card_spend.v1.dlq</text></g><g><title>Card-Spend Ingress Consumer</title><rect fill="#FFFFFF" height="700.0293" style="stroke:#181818;stroke-width:1;" width="10" x="342.2451" y="167.707"/></g><g><title>Ingress Schema Validator</title><rect fill="#FFFFFF" height="163.8184" style="stroke:#181818;stroke-width:1;" width="10" x="556.4551" y="240.3281"/></g><g><title>Canonical Source Stamper</title><rect fill="#FFFFFF" height="132.8633" style="stroke:#181818;stroke-width:1;" width="10" x="754.4023" y="476.7676"/></g><g><title>Kafka Producer</title><rect fill="#FFFFFF" height="59.9316" style="stroke:#181818;stroke-width:1;" width="10" x="1141.605" y="728.1836"/></g><g class="message" data-entity-1="part1" data-entity-2="part2" data-source-line="11" id="msg1"><polygon fill="#181818" points="330.2451,163.707,340.2451,167.707,330.2451,171.707,334.2451,167.707" style="stroke:#181818;stroke-width:1;stroke-linejoin:miter;stroke-miterlimit:10;"/><line style="stroke:#181818;stroke-width:1;" x1="115.3174" x2="336.2451" y1="167.707" y2="167.707"/><text fill="#000000" font-family="sans-serif" font-size="13" lengthAdjust="spacing" textLength="126.6675" x="122.3174" y="117.0332">CardSpend (ingress)</text><text fill="#000000" font-family="sans-serif" font-size="13" lengthAdjust="spacing" textLength="133.4658" x="122.3174" y="132.3438">{eventId, customerId,</text><text fill="#000000" font-family="sans-serif" font-size="13" lengthAdjust="spacing" textLength="148.4463" x="126.4307" y="147.6543">amount, currency, mcc,</text><text fill="#000000" font-family="sans-serif" font-size="13" lengthAdjust="spacing" textLength="73.4932" x="126.4307" y="162.9648">occurredAt}</text></g><rect fill="#EEEEEE" height="3" style="stroke:#EEEEEE;stroke-width:1;" width="1865.2446" x="0" y="196.3623"/><line style="stroke:#000000;stroke-width:1;" x1="0" x2="1865.2446" y1="196.3623" y2="196.3623"/><line style="stroke:#000000;stroke-width:1;" x1="0" x2="1865.2446" y1="199.3623" y2="199.3623"/><rect fill="#EEEEEE" height="23.3105" style="stroke:#000000;stroke-width:2;" width="188.5732" x="838.3357" y="185.707"/><text fill="#000000" font-family="sans-serif" font-size="13" font-weight="700" lengthAdjust="spacing" textLength="170.2886" x="844.3357" y="202.2754">Validation (JSON Schema)</text><g class="message" data-entity-1="part2" data-entity-2="part3" data-source-line="15" id="msg2"><polygon fill="#181818" points="544.4551,236.3281,554.4551,240.3281,544.4551,244.3281,548.4551,240.3281" style="stroke:#181818;stroke-width:1;stroke-linejoin:miter;stroke-miterlimit:10;"/><line style="stroke:#181818;stroke-width:1;" x1="352.2451" x2="550.4551" y1="240.3281" y2="240.3281"/><text fill="#000000" font-family="sans-serif" font-size="13" lengthAdjust="spacing" textLength="83.9795" x="359.2451" y="235.5859">validate(json)</text></g><path d="M225.6348,255.3281 L287.7734,255.3281 L287.7734,262.6387 L277.7734,272.6387 L225.6348,272.6387 L225.6348,255.3281" fill="#EEEEEE" style="stroke:#000000;stroke-width:1.5;"/><rect fill="none" height="540.7871" style="stroke:#000000;stroke-width:1.5;" width="1629.6099" x="225.6348" y="255.3281"/><text fill="#000000" font-family="sans-serif" font-size="13" font-weight="700" lengthAdjust="spacing" textLength="17.1387" x="240.6348" y="268.8965">alt</text><text fill="#000000" font-family="sans-serif" font-size="11" font-weight="700" lengthAdjust="spacing" textLength="96.293" x="302.7734" y="267.9629">[schema-invalid]</text><g class="message" data-entity-1="part3" data-entity-2="part2" data-source-line="18" id="msg3"><polygon fill="#181818" points="363.2451,289.9492,353.2451,293.9492,363.2451,297.9492,359.2451,293.9492" style="stroke:#181818;stroke-width:1;stroke-linejoin:miter;stroke-miterlimit:10;"/><line style="stroke:#181818;stroke-width:1;stroke-dasharray:2,2;" x1="357.2451" x2="555.4551" y1="293.9492" y2="293.9492"/><text fill="#000000" font-family="sans-serif" font-size="13" lengthAdjust="spacing" textLength="37.813" x="369.2451" y="289.207">errors</text></g><g class="message" data-entity-1="part2" data-entity-2="part7" data-source-line="19" id="msg4"><polygon fill="#181818" points="1592.061,337.5703,1602.061,341.5703,1592.061,345.5703,1596.061,341.5703" style="stroke:#181818;stroke-width:1;stroke-linejoin:miter;stroke-miterlimit:10;"/><line style="stroke:#181818;stroke-width:1;" x1="352.2451" x2="1598.061" y1="341.5703" y2="341.5703"/><text fill="#000000" font-family="sans-serif" font-size="13" lengthAdjust="spacing" textLength="160.0942" x="359.2451" y="336.8281">publish (with dlq-reason)</text></g><path d="M1609,306.9492 L1609,361.9492 L1840,361.9492 L1840,316.9492 L1830,306.9492 L1609,306.9492" fill="#FEFFDD" style="stroke:#181818;stroke-width:0.5;"/><path d="M1830,306.9492 L1830,316.9492 L1840,316.9492 L1830,306.9492" fill="#FEFFDD" style="stroke:#181818;stroke-width:0.5;"/><text fill="#000000" font-family="sans-serif" font-size="13" lengthAdjust="spacing" textLength="209.7202" x="1615" y="324.5176">Schema breakage surfaces loudly</text><text fill="#000000" font-family="sans-serif" font-size="13" lengthAdjust="spacing" textLength="210.1836" x="1615" y="339.8281">and locally &#8212; it does NOT poison</text><text fill="#000000" font-family="sans-serif" font-size="13" lengthAdjust="spacing" textLength="135.1924" x="1615" y="355.1387">the canonical stream.</text><line style="stroke:#000000;stroke-width:1;stroke-dasharray:2,2;" x1="225.6348" x2="1855.2446" y1="368.8809" y2="368.8809"/><text fill="#000000" font-family="sans-serif" font-size="11" font-weight="700" lengthAdjust="spacing" textLength="35.5889" x="230.6348" y="379.5156">[valid]</text><g class="message" data-entity-1="part3" data-entity-2="part2" data-source-line="26" id="msg6"><polygon fill="#181818" points="363.2451,400.1465,353.2451,404.1465,363.2451,408.1465,359.2451,404.1465" style="stroke:#181818;stroke-width:1;stroke-linejoin:miter;stroke-miterlimit:10;"/><line style="stroke:#181818;stroke-width:1;stroke-dasharray:2,2;" x1="357.2451" x2="560.4551" y1="404.1465" y2="404.1465"/><text fill="#000000" font-family="sans-serif" font-size="13" lengthAdjust="spacing" textLength="15.5835" x="369.2451" y="399.4043">ok</text></g><rect fill="#EEEEEE" height="3" style="stroke:#EEEEEE;stroke-width:1;" width="1865.2446" x="0" y="432.8018"/><line style="stroke:#000000;stroke-width:1;" x1="0" x2="1865.2446" y1="432.8018" y2="432.8018"/><line style="stroke:#000000;stroke-width:1;" x1="0" x2="1865.2446" y1="435.8018" y2="435.8018"/><rect fill="#EEEEEE" height="23.3105" style="stroke:#000000;stroke-width:2;" width="220.6035" x="822.3206" y="422.1465"/><text fill="#000000" font-family="sans-serif" font-size="13" font-weight="700" lengthAdjust="spacing" textLength="202.3188" x="828.3206" y="438.7148">Stamp canonical source (pure)</text><g class="message" data-entity-1="part2" data-entity-2="part4" data-source-line="30" id="msg7"><polygon fill="#181818" points="742.4023,472.7676,752.4023,476.7676,742.4023,480.7676,746.4023,476.7676" style="stroke:#181818;stroke-width:1;stroke-linejoin:miter;stroke-miterlimit:10;"/><line style="stroke:#181818;stroke-width:1;" x1="352.2451" x2="748.4023" y1="476.7676" y2="476.7676"/><text fill="#000000" font-family="sans-serif" font-size="13" lengthAdjust="spacing" textLength="115.7939" x="359.2451" y="472.0254">stamp(CardSpend)</text></g><g class="message" data-entity-1="part4" data-entity-2="part4" data-source-line="32" id="msg8"><line style="stroke:#181818;stroke-width:1;" x1="764.4023" x2="806.4023" y1="567.3203" y2="567.3203"/><line style="stroke:#181818;stroke-width:1;" x1="806.4023" x2="806.4023" y1="567.3203" y2="580.3203"/><line style="stroke:#181818;stroke-width:1;" x1="765.4023" x2="806.4023" y1="580.3203" y2="580.3203"/><polygon fill="#181818" points="775.4023,576.3203,765.4023,580.3203,775.4023,584.3203,771.4023,580.3203" style="stroke:#181818;stroke-width:1;stroke-linejoin:miter;stroke-miterlimit:10;"/><text fill="#000000" font-family="sans-serif" font-size="13" lengthAdjust="spacing" textLength="143.457" x="771.4023" y="501.3359">source = CARD_SPEND</text><text fill="#000000" font-family="sans-serif" font-size="13" lengthAdjust="spacing" textLength="289.8975" x="779.6289" y="516.6465">(constant &#8212; card_spend has no discriminator;</text><text fill="#000000" font-family="sans-serif" font-size="13" lengthAdjust="spacing" textLength="336.5337" x="783.7422" y="531.957">payment channel maps paymentType &#8594; earn_source)</text><text fill="#000000" font-family="sans-serif" font-size="13" lengthAdjust="spacing" textLength="349.0894" x="775.5156" y="547.2676">customerId passthrough (no member/program resolve)</text><text fill="#000000" font-family="sans-serif" font-size="13" lengthAdjust="spacing" textLength="300.2949" x="775.5156" y="562.5781">payload = {amount, currency, mcc, merchantId}</text></g><g class="message" data-entity-1="part4" data-entity-2="part2" data-source-line="33" id="msg9"><polygon fill="#181818" points="363.2451,605.6309,353.2451,609.6309,363.2451,613.6309,359.2451,609.6309" style="stroke:#181818;stroke-width:1;stroke-linejoin:miter;stroke-miterlimit:10;"/><line style="stroke:#181818;stroke-width:1;stroke-dasharray:2,2;" x1="357.2451" x2="758.4023" y1="609.6309" y2="609.6309"/><text fill="#000000" font-family="sans-serif" font-size="13" lengthAdjust="spacing" textLength="185.4277" x="369.2451" y="604.8887">EarnEvent (customer-scoped)</text></g><rect fill="#EEEEEE" height="3" style="stroke:#EEEEEE;stroke-width:1;" width="1865.2446" x="0" y="638.2861"/><line style="stroke:#000000;stroke-width:1;" x1="0" x2="1865.2446" y1="638.2861" y2="638.2861"/><line style="stroke:#000000;stroke-width:1;" x1="0" x2="1865.2446" y1="641.2861" y2="641.2861"/><rect fill="#EEEEEE" height="23.3105" style="stroke:#000000;stroke-width:2;" width="162.751" x="851.2468" y="627.6309"/><text fill="#000000" font-family="sans-serif" font-size="13" font-weight="700" lengthAdjust="spacing" textLength="144.4663" x="857.2468" y="644.1992">Produce (idempotent)</text><g class="message" data-entity-1="part2" data-entity-2="part5" data-source-line="37" id="msg10"><polygon fill="#181818" points="1129.605,724.1836,1139.605,728.1836,1129.605,732.1836,1133.605,728.1836" style="stroke:#181818;stroke-width:1;stroke-linejoin:miter;stroke-miterlimit:10;"/><line style="stroke:#181818;stroke-width:1;" x1="352.2451" x2="1135.605" y1="728.1836" y2="728.1836"/><text fill="#000000" font-family="sans-serif" font-size="13" lengthAdjust="spacing" textLength="34.3472" x="359.2451" y="677.5098">send(</text><text fill="#000000" font-family="sans-serif" font-size="13" lengthAdjust="spacing" textLength="106.9072" x="363.3584" y="692.8203">key=customerId,</text><text fill="#000000" font-family="sans-serif" font-size="13" lengthAdjust="spacing" textLength="108.9829" x="363.3584" y="708.1309">value=EarnEvent,</text><text fill="#000000" font-family="sans-serif" font-size="13" lengthAdjust="spacing" textLength="195.1206" x="363.3584" y="723.4414">headers={traceparent, source})</text></g><g class="message" data-entity-1="part5" data-entity-2="part6" data-source-line="39" id="msg11"><polygon fill="#181818" points="1362.8071,784.1152,1372.8071,788.1152,1362.8071,792.1152,1366.8071,788.1152" style="stroke:#181818;stroke-width:1;stroke-linejoin:miter;stroke-miterlimit:10;"/><line style="stroke:#181818;stroke-width:1;" x1="1146.605" x2="1368.8071" y1="788.1152" y2="788.1152"/><text fill="#000000" font-family="sans-serif" font-size="13" lengthAdjust="spacing" textLength="51.6382" x="1153.605" y="752.752">produce</text><text fill="#000000" font-family="sans-serif" font-size="13" lengthAdjust="spacing" textLength="141.9336" x="1153.605" y="768.0625">(idempotent producer;</text><text fill="#000000" font-family="sans-serif" font-size="13" lengthAdjust="spacing" textLength="195.0889" x="1157.7183" y="783.373">dedup downstream by eventId)</text></g><rect fill="#EEEEEE" height="3" style="stroke:#EEEEEE;stroke-width:1;" width="1865.2446" x="0" y="823.7705"/><line style="stroke:#000000;stroke-width:1;" x1="0" x2="1865.2446" y1="823.7705" y2="823.7705"/><line style="stroke:#000000;stroke-width:1;" x1="0" x2="1865.2446" y1="826.7705" y2="826.7705"/><rect fill="#EEEEEE" height="23.3105" style="stroke:#000000;stroke-width:2;" width="114.1597" x="875.5425" y="813.1152"/><text fill="#000000" font-family="sans-serif" font-size="13" font-weight="700" lengthAdjust="spacing" textLength="95.875" x="881.5425" y="829.6836">Commit offset</text><g class="message" data-entity-1="part2" data-entity-2="part1" data-source-line="44" id="msg12"><polygon fill="#181818" points="126.3174,863.7363,116.3174,867.7363,126.3174,871.7363,122.3174,867.7363" style="stroke:#181818;stroke-width:1;stroke-linejoin:miter;stroke-miterlimit:10;"/><line style="stroke:#181818;stroke-width:1;" x1="120.3174" x2="346.2451" y1="867.7363" y2="867.7363"/><text fill="#000000" font-family="sans-serif" font-size="13" lengthAdjust="spacing" textLength="87.9277" x="132.3174" y="862.9941">commit offset</text></g><?plantuml-src ZLJDRjim3BxxAOYS7A39C6od3XxGfJrq6zfYANOg42WI4skn95UIKnX5WPts0CEUS4yoIh8Jkok6zHANuiUVZn_ffQyG5c_XC-wnWZVm-_il-62bs6Byv4QxHj7tZv-mPvKKpAT_d6UgZb-rDQBX23bdLgnSZLg0r5kBpaspxBx11Y7yJIhJiigty-vnVlIVxrzFo8CvK6wtaZghcVMIovff3vC5-SsMCUvbWi8YbMK3Ai2wCkqOs7ilUOcAmTTKlqce1AIUdYVJHalEAbYQnb9Roz0e3Z6nzJ7g4zli6Dma9koTpgL0LHkFsa-xpW9DBx61pEgvjqoxYhZjgO0Z7QRn_ytYN5Jtam2atonBPCBi_O4VE8N0PY8pxwTqfnzf-jfVYXFWZVE6FEdxJWDJfj4-MAr5pTiJK9o71yEZIPpvfunnB_T15uSfP4NHiosDXlpZylggcy8KYY8xb4EbqGIegbvR-JTdzFGOCio7sWKNmJEfesC64JORTuRM6kleRHYUYA2dkbbNqfMGFqXV1jlC8ekP03ID2QpSbZuB17TYMPF3Zj4MkCPk64S7bMb4rKOVHknLXaHIjN5Bf0TXoENg-XPg8obmTFCbSNBGa_CKKitf9P0VicPOEOH_T6HsP1SuOeCin6vKvJ1u4cjUDnOZnMCMqhQUfj_y887G_Y5uaZLqlaDGYbt0ukpB-MfvSt5rJWgWVQS4FiW_7ehZyfUaFsr0ICUjL5A7bNiN452pLf7EW9TCQpetYjMkDzwsTReiOI5MAISfSo18ydJEbzOqMveaPL2ercXVqMPjBLD0MZRLFe8ePcMOe9eVNvOmOMseWZJ_TEnvpFu55N8Hze9QxOgOEMvgZBmDnfAOIuEvwQ_Xu0ByFOzm30ApH5TEvUwmBSQBHvDki3XK44mbCe7M5OzqB3ZI-GdsRZXFeqd6KmCf2INhZaXOWrJSw3xrnZWYWQAfISiFEgaLrYrqf-5Ppp47bHztVM6KeXqmcur3_tp1kojqIWGClB91hCFT-0C0?></g></svg>