<svg xmlns="http://www.w3.org/2000/svg" xmlns:xlink="http://www.w3.org/1999/xlink" contentStyleType="text/css" data-diagram-type="DESCRIPTION" height="881px" preserveAspectRatio="none" style="width:2392px;height:881px;background:#FFFFFF;" version="1.1" viewBox="0 0 2392 881" width="2392px" zoomAndPan="magnify"><?plantuml 1.2026.4?><defs/><g><g class="title" data-source-line="1"><text fill="#000000" font-family="sans-serif" font-size="14" font-weight="700" lengthAdjust="spacing" textLength="365.3125" x="1010.1326" y="23.5352">C4 Level 3 &#8212; loyalty-admin-bff &#8212; Static Topology</text></g><!--cluster **loyalty-admin-bff**--><g class="cluster" data-qualified-name="..loyalty-admin-bff.." data-source-line="43" id="ent0009"><rect fill="#F0F7FF" height="741.86" rx="10" ry="10" style="stroke:#0B4884;stroke-width:1;stroke-dasharray:7,7;" width="1302" x="7" y="44.4883"/><text fill="#000000" font-family="sans-serif" font-size="14" font-style="italic" lengthAdjust="spacing" textLength="36.2236" x="639.8882" y="60.0234">&#171;svc&#187;</text><text fill="#000000" font-family="sans-serif" font-size="14" font-weight="700" lengthAdjust="spacing" textLength="131.8721" x="592.064" y="76.5117">loyalty-admin-bff</text></g><!--cluster Edge / Identity--><g class="cluster" data-qualified-name="..loyalty-admin-bff...Edge . Identity" data-source-line="45" id="ent0010"><path d="M697.5,103.4883 L798.7969,103.4883 A3.75,3.75 0 0 1 801.2969,105.9883 L808.2969,125.9766 L1093.5,125.9766 A2.5,2.5 0 0 1 1096,128.4766 L1096,353.9183 A2.5,2.5 0 0 1 1093.5,356.4183 L697.5,356.4183 A2.5,2.5 0 0 1 695,353.9183 L695,105.9883 A2.5,2.5 0 0 1 697.5,103.4883" fill="#FAFAFA" style="stroke:#9E9E9E;stroke-width:1.5;"/><line style="stroke:#9E9E9E;stroke-width:1.5;" x1="695" x2="808.2969" y1="125.9766" y2="125.9766"/><text fill="#000000" font-family="sans-serif" font-size="14" font-style="italic" lengthAdjust="spacing" textLength="100.2969" x="699" y="119.0234">Edge / Identity</text></g><!--cluster API Layer--><g class="cluster" data-qualified-name="..loyalty-admin-bff...API Layer" data-source-line="51" id="ent0014"><path d="M221.5,405.4183 L284.3994,405.4183 A3.75,3.75 0 0 1 286.8994,407.9183 L293.8994,427.9066 L1282.5,427.9066 A2.5,2.5 0 0 1 1285,430.4066 L1285,506.8983 A2.5,2.5 0 0 1 1282.5,509.3983 L221.5,509.3983 A2.5,2.5 0 0 1 219,506.8983 L219,407.9183 A2.5,2.5 0 0 1 221.5,405.4183" fill="#FAFAFA" style="stroke:#9E9E9E;stroke-width:1.5;"/><line style="stroke:#9E9E9E;stroke-width:1.5;" x1="219" x2="293.8994" y1="427.9066" y2="427.9066"/><text fill="#000000" font-family="sans-serif" font-size="14" font-style="italic" lengthAdjust="spacing" textLength="61.8994" x="223" y="420.9534">API Layer</text></g><!--cluster Anti-Corruption Clients--><g class="cluster" data-qualified-name="..loyalty-admin-bff...Anti-Corruption Clients" data-source-line="60" id="ent0021"><path d="M413.5,542.3983 L575.1172,542.3983 A3.75,3.75 0 0 1 577.6172,544.8983 L584.6172,564.8866 L1267.5,564.8866 A2.5,2.5 0 0 1 1270,567.3866 L1270,759.8483 A2.5,2.5 0 0 1 1267.5,762.3483 L413.5,762.3483 A2.5,2.5 0 0 1 411,759.8483 L411,544.8983 A2.5,2.5 0 0 1 413.5,542.3983" fill="#FAFAFA" style="stroke:#9E9E9E;stroke-width:1.5;"/><line style="stroke:#9E9E9E;stroke-width:1.5;" x1="411" x2="584.6172" y1="564.8866" y2="564.8866"/><text fill="#000000" font-family="sans-serif" font-size="14" font-style="italic" lengthAdjust="spacing" textLength="160.6172" x="415" y="557.9334">Anti-Corruption Clients</text></g><!--entity res--><g class="entity" data-qualified-name="..loyalty-admin-bff...Edge . Identity.res" data-source-line="46" id="ent0011"><rect fill="#0B4884" height="69.4648" rx="2.5" ry="2.5" style="stroke:#073661;stroke-width:0.5;" width="220.8809" x="859.56" y="138.4883"/><text fill="#FFFFFF" font-family="sans-serif" font-size="14" font-style="italic" lengthAdjust="spacing" textLength="91.335" x="924.3329" y="162.0234">&#171;component&#187;</text><text fill="#FFFFFF" font-family="sans-serif" font-size="14" lengthAdjust="spacing" textLength="182.2666" x="878.8671" y="178.5117">Employee Identity Resolver</text><text fill="#FFFFFF" font-family="sans-serif" font-size="14" lengthAdjust="spacing" textLength="200.8809" x="869.56" y="195">(reads userId + roles params)</text></g><!--entity gate--><g class="entity" data-qualified-name="..loyalty-admin-bff...Edge . Identity.gate" data-source-line="47" id="ent0012"><rect fill="#0B4884" height="69.4648" rx="2.5" ry="2.5" style="stroke:#073661;stroke-width:0.5;" width="132.6699" x="763.67" y="270.9483"/><text fill="#FFFFFF" font-family="sans-serif" font-size="14" font-style="italic" lengthAdjust="spacing" textLength="91.335" x="784.3375" y="294.4834">&#171;component&#187;</text><text fill="#FFFFFF" font-family="sans-serif" font-size="14" lengthAdjust="spacing" textLength="64.6133" x="797.6983" y="310.9717">Role Gate</text><text fill="#FFFFFF" font-family="sans-serif" font-size="14" lengthAdjust="spacing" textLength="112.6699" x="773.67" y="327.46">(requireAnyRole)</text></g><!--entity prob--><g class="entity" data-qualified-name="..loyalty-admin-bff...Edge . Identity.prob" data-source-line="48" id="ent0013"><rect fill="#0B4884" height="69.4648" rx="2.5" ry="2.5" style="stroke:#073661;stroke-width:0.5;" width="124.959" x="710.52" y="138.4883"/><text fill="#FFFFFF" font-family="sans-serif" font-size="14" font-style="italic" lengthAdjust="spacing" textLength="91.335" x="727.332" y="162.0234">&#171;component&#187;</text><text fill="#FFFFFF" font-family="sans-serif" font-size="14" lengthAdjust="spacing" textLength="104.959" x="720.52" y="178.5117">Problem Advice</text><text fill="#FFFFFF" font-family="sans-serif" font-size="14" lengthAdjust="spacing" textLength="78.6611" x="733.6689" y="195">(RFC-7807)</text></g><!--entity mctl--><g class="entity" data-qualified-name="..loyalty-admin-bff...API Layer.mctl" data-source-line="52" id="ent0015"><rect fill="#0B4884" height="52.9766" rx="2.5" ry="2.5" style="stroke:#073661;stroke-width:0.5;" width="147.8594" x="943.07" y="440.4183"/><text fill="#FFFFFF" font-family="sans-serif" font-size="14" font-style="italic" lengthAdjust="spacing" textLength="91.335" x="971.3322" y="463.9534">&#171;component&#187;</text><text fill="#FFFFFF" font-family="sans-serif" font-size="14" lengthAdjust="spacing" textLength="127.8594" x="953.07" y="480.4417">Member Controller</text></g><!--entity actl--><g class="entity" data-qualified-name="..loyalty-admin-bff...API Layer.actl" data-source-line="53" id="ent0016"><rect fill="#0B4884" height="52.9766" rx="2.5" ry="2.5" style="stroke:#073661;stroke-width:0.5;" width="153.2256" x="1115.39" y="440.4183"/><text fill="#FFFFFF" font-family="sans-serif" font-size="14" font-style="italic" lengthAdjust="spacing" textLength="91.335" x="1146.3353" y="463.9534">&#171;component&#187;</text><text fill="#FFFFFF" font-family="sans-serif" font-size="14" lengthAdjust="spacing" textLength="133.2256" x="1125.39" y="480.4417">Approval Controller</text></g><!--entity ectl--><g class="entity" data-qualified-name="..loyalty-admin-bff...API Layer.ectl" data-source-line="54" id="ent0017"><rect fill="#0B4884" height="52.9766" rx="2.5" ry="2.5" style="stroke:#073661;stroke-width:0.5;" width="177.6094" x="741.2" y="440.4183"/><text fill="#FFFFFF" font-family="sans-serif" font-size="14" font-style="italic" lengthAdjust="spacing" textLength="91.335" x="784.3372" y="463.9534">&#171;component&#187;</text><text fill="#FFFFFF" font-family="sans-serif" font-size="14" lengthAdjust="spacing" textLength="157.6094" x="751.2" y="480.4417">Earning Rule Controller</text></g><!--entity wctl--><g class="entity" data-qualified-name="..loyalty-admin-bff...API Layer.wctl" data-source-line="55" id="ent0018"><rect fill="#0B4884" height="52.9766" rx="2.5" ry="2.5" style="stroke:#073661;stroke-width:0.5;" width="142.3018" x="234.85" y="440.4183"/><text fill="#FFFFFF" font-family="sans-serif" font-size="14" font-style="italic" lengthAdjust="spacing" textLength="91.335" x="260.3334" y="463.9534">&#171;component&#187;</text><text fill="#FFFFFF" font-family="sans-serif" font-size="14" lengthAdjust="spacing" textLength="122.3018" x="244.85" y="480.4417">Reward Controller</text></g><!--entity cctl--><g class="entity" data-qualified-name="..loyalty-admin-bff...API Layer.cctl" data-source-line="56" id="ent0019"><rect fill="#0B4884" height="52.9766" rx="2.5" ry="2.5" style="stroke:#073661;stroke-width:0.5;" width="161.0869" x="401.46" y="440.4183"/><text fill="#FFFFFF" font-family="sans-serif" font-size="14" font-style="italic" lengthAdjust="spacing" textLength="91.335" x="436.336" y="463.9534">&#171;component&#187;</text><text fill="#FFFFFF" font-family="sans-serif" font-size="14" lengthAdjust="spacing" textLength="141.0869" x="411.46" y="480.4417">Campaign Controller</text></g><!--entity fctl--><g class="entity" data-qualified-name="..loyalty-admin-bff...API Layer.fctl" data-source-line="57" id="ent0020"><rect fill="#0B4884" height="52.9766" rx="2.5" ry="2.5" style="stroke:#073661;stroke-width:0.5;" width="131.0566" x="586.47" y="440.4183"/><text fill="#FFFFFF" font-family="sans-serif" font-size="14" font-style="italic" lengthAdjust="spacing" textLength="91.335" x="606.3308" y="463.9534">&#171;component&#187;</text><text fill="#FFFFFF" font-family="sans-serif" font-size="14" lengthAdjust="spacing" textLength="111.0566" x="596.47" y="480.4417">Fraud Controller</text></g><!--entity mcl--><g class="entity" data-qualified-name="..loyalty-admin-bff...Anti-Corruption Clients.mcl" data-source-line="61" id="ent0022"><rect fill="#00897B" height="52.9766" rx="2.5" ry="2.5" style="stroke:#00695C;stroke-width:0.5;" width="119.2031" x="986.4" y="577.3983"/><text fill="#FFFFFF" font-family="sans-serif" font-size="14" font-style="italic" lengthAdjust="spacing" textLength="33.6191" x="1029.192" y="600.9334">&#171;acl&#187;</text><text fill="#FFFFFF" font-family="sans-serif" font-size="14" lengthAdjust="spacing" textLength="99.2031" x="996.4" y="617.4217">Member Client</text></g><!--entity acl--><g class="entity" data-qualified-name="..loyalty-admin-bff...Anti-Corruption Clients.acl" data-source-line="62" id="ent0023"><rect fill="#00897B" height="52.9766" rx="2.5" ry="2.5" style="stroke:#00695C;stroke-width:0.5;" width="124.5693" x="1129.72" y="577.3983"/><text fill="#FFFFFF" font-family="sans-serif" font-size="14" font-style="italic" lengthAdjust="spacing" textLength="33.6191" x="1175.1951" y="600.9334">&#171;acl&#187;</text><text fill="#FFFFFF" font-family="sans-serif" font-size="14" lengthAdjust="spacing" textLength="104.5693" x="1139.72" y="617.4217">Approval Client</text></g><!--entity ecl--><g class="entity" data-qualified-name="..loyalty-admin-bff...Anti-Corruption Clients.ecl" data-source-line="63" id="ent0024"><rect fill="#00897B" height="52.9766" rx="2.5" ry="2.5" style="stroke:#00695C;stroke-width:0.5;" width="115.1357" x="847.43" y="577.3983"/><text fill="#FFFFFF" font-family="sans-serif" font-size="14" font-style="italic" lengthAdjust="spacing" textLength="33.6191" x="888.1883" y="600.9334">&#171;acl&#187;</text><text fill="#FFFFFF" font-family="sans-serif" font-size="14" lengthAdjust="spacing" textLength="95.1357" x="857.43" y="617.4217">Earning Client</text></g><!--entity wcl--><g class="entity" data-qualified-name="..loyalty-admin-bff...Anti-Corruption Clients.wcl" data-source-line="64" id="ent0025"><rect fill="#00897B" height="52.9766" rx="2.5" ry="2.5" style="stroke:#00695C;stroke-width:0.5;" width="113.6455" x="427.18" y="577.3983"/><text fill="#FFFFFF" font-family="sans-serif" font-size="14" font-style="italic" lengthAdjust="spacing" textLength="33.6191" x="467.1932" y="600.9334">&#171;acl&#187;</text><text fill="#FFFFFF" font-family="sans-serif" font-size="14" lengthAdjust="spacing" textLength="93.6455" x="437.18" y="617.4217">Reward Client</text></g><!--entity ccl--><g class="entity" data-qualified-name="..loyalty-admin-bff...Anti-Corruption Clients.ccl" data-source-line="65" id="ent0026"><rect fill="#00897B" height="52.9766" rx="2.5" ry="2.5" style="stroke:#00695C;stroke-width:0.5;" width="132.4307" x="564.78" y="577.3983"/><text fill="#FFFFFF" font-family="sans-serif" font-size="14" font-style="italic" lengthAdjust="spacing" textLength="33.6191" x="614.1858" y="600.9334">&#171;acl&#187;</text><text fill="#FFFFFF" font-family="sans-serif" font-size="14" lengthAdjust="spacing" textLength="112.4307" x="574.78" y="617.4217">Campaign Client</text></g><!--entity fcl--><g class="entity" data-qualified-name="..loyalty-admin-bff...Anti-Corruption Clients.fcl" data-source-line="66" id="ent0027"><rect fill="#00897B" height="52.9766" rx="2.5" ry="2.5" style="stroke:#00695C;stroke-width:0.5;" width="102.4004" x="720.8" y="577.3983"/><text fill="#FFFFFF" font-family="sans-serif" font-size="14" font-style="italic" lengthAdjust="spacing" textLength="33.6191" x="755.1906" y="600.9334">&#171;acl&#187;</text><text fill="#FFFFFF" font-family="sans-serif" font-size="14" lengthAdjust="spacing" textLength="82.4004" x="730.8" y="617.4217">Fraud Client</text></g><!--entity err--><g class="entity" data-qualified-name="..loyalty-admin-bff...Anti-Corruption Clients.err" data-source-line="67" id="ent0028"><rect fill="#0B4884" height="52.9766" rx="2.5" ry="2.5" style="stroke:#073661;stroke-width:0.5;" width="180.542" x="681.73" y="693.3683"/><text fill="#FFFFFF" font-family="sans-serif" font-size="14" font-style="italic" lengthAdjust="spacing" textLength="91.335" x="726.3335" y="716.9034">&#171;component&#187;</text><text fill="#FFFFFF" font-family="sans-serif" font-size="14" lengthAdjust="spacing" textLength="160.542" x="691.73" y="733.3917">Upstream Error Handler</text></g><!--entity bep--><g class="entity" data-qualified-name="bep" data-source-line="34" id="ent0001"><rect fill="#B0BEC5" height="52.9766" rx="2.5" ry="2.5" style="stroke:#78909C;stroke-width:0.5;" width="165.626" x="1525.19" y="279.1983"/><text fill="#000000" font-family="sans-serif" font-size="14" font-style="italic" lengthAdjust="spacing" textLength="36.292" x="1589.857" y="302.7334">&#171;ext&#187;</text><text fill="#000000" font-family="sans-serif" font-size="14" lengthAdjust="spacing" textLength="145.626" x="1535.19" y="319.2217">Bank Employee Portal</text></g><!--entity gw--><g class="entity" data-qualified-name="gw" data-source-line="35" id="ent0002"><rect fill="#B0BEC5" height="69.4648" rx="2.5" ry="2.5" style="stroke:#78909C;stroke-width:0.5;" width="253.9941" x="1570" y="432.1783"/><text fill="#000000" font-family="sans-serif" font-size="14" font-style="italic" lengthAdjust="spacing" textLength="36.292" x="1678.8511" y="455.7134">&#171;ext&#187;</text><text fill="#000000" font-family="sans-serif" font-size="14" lengthAdjust="spacing" textLength="116.1836" x="1638.9053" y="472.2017">AWS API Gateway</text><text fill="#000000" font-family="sans-serif" font-size="14" lengthAdjust="spacing" textLength="233.9941" x="1580" y="488.69">+ Authentication Service (Lambda)</text></g><!--entity wf--><g class="entity" data-qualified-name="wf" data-source-line="36" id="ent0003"><rect fill="#B0BEC5" height="52.9766" rx="2.5" ry="2.5" style="stroke:#78909C;stroke-width:0.5;" width="175.9414" x="1325.03" y="279.1983"/><text fill="#000000" font-family="sans-serif" font-size="14" font-style="italic" lengthAdjust="spacing" textLength="36.292" x="1394.8547" y="302.7334">&#171;ext&#187;</text><text fill="#000000" font-family="sans-serif" font-size="14" lengthAdjust="spacing" textLength="155.9414" x="1335.03" y="319.2217">BEP Approval Workflow</text></g><!--entity core--><g class="entity" data-qualified-name="core" data-source-line="37" id="ent0004"><rect fill="#B0BEC5" height="52.9766" rx="2.5" ry="2.5" style="stroke:#78909C;stroke-width:0.5;" width="101.6895" x="2076.16" y="693.3683"/><text fill="#000000" font-family="sans-serif" font-size="14" font-style="italic" lengthAdjust="spacing" textLength="36.292" x="2108.8587" y="716.9034">&#171;ext&#187;</text><text fill="#000000" font-family="sans-serif" font-size="14" lengthAdjust="spacing" textLength="81.6895" x="2086.16" y="733.3917">loyalty-core</text></g><!--entity earn--><g class="entity" data-qualified-name="earn" data-source-line="38" id="ent0005"><rect fill="#B0BEC5" height="52.9766" rx="2.5" ry="2.5" style="stroke:#78909C;stroke-width:0.5;" width="123.8037" x="1885.1" y="693.3683"/><text fill="#000000" font-family="sans-serif" font-size="14" font-style="italic" lengthAdjust="spacing" textLength="36.292" x="1928.8559" y="716.9034">&#171;ext&#187;</text><text fill="#000000" font-family="sans-serif" font-size="14" lengthAdjust="spacing" textLength="103.8037" x="1895.1" y="733.3917">loyalty-earning</text></g><!--entity redm--><g class="entity" data-qualified-name="redm" data-source-line="39" id="ent0006"><rect fill="#B0BEC5" height="52.9766" rx="2.5" ry="2.5" style="stroke:#78909C;stroke-width:0.5;" width="150.9834" x="1324.51" y="693.3683"/><text fill="#000000" font-family="sans-serif" font-size="14" font-style="italic" lengthAdjust="spacing" textLength="36.292" x="1381.8557" y="716.9034">&#171;ext&#187;</text><text fill="#000000" font-family="sans-serif" font-size="14" lengthAdjust="spacing" textLength="130.9834" x="1334.51" y="733.3917">loyalty-redemption</text></g><!--entity camp--><g class="entity" data-qualified-name="camp" data-source-line="40" id="ent0007"><rect fill="#B0BEC5" height="52.9766" rx="2.5" ry="2.5" style="stroke:#78909C;stroke-width:0.5;" width="138.3711" x="1499.81" y="693.3683"/><text fill="#000000" font-family="sans-serif" font-size="14" font-style="italic" lengthAdjust="spacing" textLength="36.292" x="1550.8496" y="716.9034">&#171;ext&#187;</text><text fill="#000000" font-family="sans-serif" font-size="14" lengthAdjust="spacing" textLength="118.3711" x="1509.81" y="733.3917">loyalty-campaign</text></g><!--entity bridge--><g class="entity" data-qualified-name="bridge" data-source-line="41" id="ent0008"><rect fill="#B0BEC5" height="52.9766" rx="2.5" ry="2.5" style="stroke:#78909C;stroke-width:0.5;" width="198.9512" x="1662.52" y="693.3683"/><text fill="#000000" font-family="sans-serif" font-size="14" font-style="italic" lengthAdjust="spacing" textLength="36.292" x="1743.8496" y="716.9034">&#171;ext&#187;</text><text fill="#000000" font-family="sans-serif" font-size="14" lengthAdjust="spacing" textLength="178.9512" x="1672.52" y="733.3917">loyalty-integration-bridge</text></g><g class="entity" data-qualified-name="GMN59" data-source-line="114" id="ent0060"><path d="M649.15,826.3483 L649.15,866.9694 A0,0 0 0 0 649.15,866.9694 L894.8507,866.9694 A0,0 0 0 0 894.8507,866.9694 L894.8507,836.3483 L884.8507,826.3483 L776,826.3483 L772,746.7183 L768,826.3483 L649.15,826.3483 A0,0 0 0 0 649.15,826.3483" fill="#FEFFDD" style="stroke:#181818;stroke-width:0.5;"/><path d="M884.8507,826.3483 L884.8507,836.3483 L894.8507,836.3483 L884.8507,826.3483" fill="#FEFFDD" style="stroke:#181818;stroke-width:0.5;"/><text fill="#000000" font-family="sans-serif" font-size="13" lengthAdjust="spacing" textLength="142.1304" x="696.4352" y="843.9166">No data tier, no Kafka.</text><text fill="#000000" font-family="sans-serif" font-size="13" lengthAdjust="spacing" textLength="224.7007" x="655.15" y="859.2272">Approval store lives in loyalty-core.</text></g><!--link bep to gw--><g class="link" data-entity-1="ent0001" data-entity-2="ent0002" data-link-type="dependency" data-source-line="72" id="lnk29"><path d="M1602.14,332.4883 C1599.59,349.4483 1598.8,371.6883 1607,389.4183 C1614.66,405.9783 1624.0208,417.0871 1638.0008,428.6771" fill="none" id="bep-to-gw" style="stroke:#181818;stroke-width:1;"/><polygon fill="#181818" points="1641.85,431.8683,1637.4743,423.0448,1638.0008,428.6771,1632.3685,429.2036,1641.85,431.8683" style="stroke:#181818;stroke-width:1;stroke-linejoin:miter;stroke-miterlimit:10;"/><text fill="#000000" font-family="sans-serif" font-size="13" lengthAdjust="spacing" textLength="159.1929" x="1608" y="385.9866">HTTPS + employee token</text></g><!--link gw to res--><g class="link" data-entity-1="ent0002" data-entity-2="ent0011" data-link-type="dependency" data-source-line="73" id="lnk30"><path d="M1739.99,432.0283 C1752.04,419.9983 1763.58,405.4383 1770,389.4183 C1792.49,333.2683 1753.18,304.7183 1703,270.9483 C1603.69,204.1283 1265.0468,183.5058 1085.7768,177.1358" fill="none" id="gw-to-res" style="stroke:#181818;stroke-width:1;"/><polygon fill="#181818" points="1080.78,176.9583,1089.6323,181.2754,1085.7768,177.1358,1089.9164,173.2804,1080.78,176.9583" style="stroke:#181818;stroke-width:1;stroke-linejoin:miter;stroke-miterlimit:10;"/><text fill="#000000" font-family="sans-serif" font-size="13" lengthAdjust="spacing" textLength="217.769" x="1876.3516" y="303.2566">/api/loyalty/admin/*?userId&amp;roles</text><text fill="#000000" font-family="sans-serif" font-size="13" lengthAdjust="spacing" textLength="415.4922" x="1777.49" y="318.5672">(token verified, identity injected as query params, prefix stripped)</text></g><!--link res to gate--><g class="link" data-entity-1="ent0011" data-entity-2="ent0012" data-link-type="dependency" data-source-line="74" id="lnk31"><path d="M933.58,208.1583 C913,227.3383 891.0075,247.829 870.3775,267.059" fill="none" id="res-to-gate" style="stroke:#181818;stroke-width:1;"/><polygon fill="#181818" points="866.72,270.4683,876.0308,267.2576,870.3775,267.059,870.576,261.4057,866.72,270.4683" style="stroke:#181818;stroke-width:1;stroke-linejoin:miter;stroke-miterlimit:10;"/><text fill="#000000" font-family="sans-serif" font-size="13" lengthAdjust="spacing" textLength="194.6953" x="909.38" y="244.5166">EmployeeIdentity(userId, roles)</text></g><!--link gate to mctl--><g class="link" data-entity-1="ent0012" data-entity-2="ent0015" data-link-type="dependency" data-source-line="77" id="lnk32"><path d="M870.12,340.8383 C904.99,370.5383 950.9731,409.6868 982.6831,436.6868" fill="none" id="gate-to-mctl" style="stroke:#181818;stroke-width:1;"/><polygon fill="#181818" points="986.49,439.9283,982.2307,431.0481,982.6831,436.6868,977.0443,437.1392,986.49,439.9283" style="stroke:#181818;stroke-width:1;stroke-linejoin:miter;stroke-miterlimit:10;"/></g><!--link gate to actl--><g class="link" data-entity-1="ent0012" data-entity-2="ent0016" data-link-type="dependency" data-source-line="78" id="lnk33"><path d="M896.78,322.1683 C953.66,336.9083 1036.51,362.0883 1103,397.4183 C1124.87,409.0383 1143.123,422.7487 1159.823,436.8787" fill="none" id="gate-to-actl" style="stroke:#181818;stroke-width:1;"/><polygon fill="#181818" points="1163.64,440.1083,1159.3531,431.2414,1159.823,436.8787,1154.1857,437.3486,1163.64,440.1083" style="stroke:#181818;stroke-width:1;stroke-linejoin:miter;stroke-miterlimit:10;"/></g><!--link gate to ectl--><g class="link" data-entity-1="ent0012" data-entity-2="ent0017" data-link-type="dependency" data-source-line="79" id="lnk34"><path d="M830,340.8383 C830,370.6283 830,408.1883 830,435.1783" fill="none" id="gate-to-ectl" style="stroke:#181818;stroke-width:1;"/><polygon fill="#181818" points="830,440.1783,834,431.1783,830,435.1783,826,431.1783,830,440.1783" style="stroke:#181818;stroke-width:1;stroke-linejoin:miter;stroke-miterlimit:10;"/></g><!--link gate to wctl--><g class="link" data-entity-1="ent0012" data-entity-2="ent0018" data-link-type="dependency" data-source-line="80" id="lnk35"><path d="M763.31,310.3883 C674.08,317.5283 512.74,338.1883 389,397.4183 C367.09,407.8983 349.6502,421.9495 334.2302,436.6395" fill="none" id="gate-to-wctl" style="stroke:#181818;stroke-width:1;"/><polygon fill="#181818" points="330.61,440.0883,339.8854,436.7766,334.2302,436.6395,334.3673,430.9843,330.61,440.0883" style="stroke:#181818;stroke-width:1;stroke-linejoin:miter;stroke-miterlimit:10;"/></g><!--link gate to cctl--><g class="link" data-entity-1="ent0012" data-entity-2="ent0019" data-link-type="dependency" data-source-line="81" id="lnk36"><path d="M763.28,324.3483 C710.23,339.7883 635.05,364.8383 574,397.4183 C551.87,409.2283 533.1161,422.8621 515.8361,436.8521" fill="none" id="gate-to-cctl" style="stroke:#181818;stroke-width:1;"/><polygon fill="#181818" points="511.95,439.9983,521.4619,437.444,515.8361,436.8521,516.428,431.2263,511.95,439.9983" style="stroke:#181818;stroke-width:1;stroke-linejoin:miter;stroke-miterlimit:10;"/></g><!--link gate to fctl--><g class="link" data-entity-1="ent0012" data-entity-2="ent0020" data-link-type="dependency" data-source-line="82" id="lnk37"><path d="M791.81,340.8383 C758.61,370.5383 714.9569,409.5951 684.7669,436.5951" fill="none" id="gate-to-fctl" style="stroke:#181818;stroke-width:1;"/><polygon fill="#181818" points="681.04,439.9283,690.415,436.9102,684.7669,436.5951,685.082,430.9471,681.04,439.9283" style="stroke:#181818;stroke-width:1;stroke-linejoin:miter;stroke-miterlimit:10;"/></g><!--link mctl to mcl--><g class="link" data-entity-1="ent0015" data-entity-2="ent0022" data-link-type="dependency" data-source-line="85" id="lnk38"><path d="M1022.52,493.6083 C1027.68,517.6283 1034.2882,548.4002 1039.4482,572.3802" fill="none" id="mctl-to-mcl" style="stroke:#181818;stroke-width:1;"/><polygon fill="#181818" points="1040.5,577.2683,1042.5172,567.6282,1039.4482,572.3802,1034.6962,569.3111,1040.5,577.2683" style="stroke:#181818;stroke-width:1;stroke-linejoin:miter;stroke-miterlimit:10;"/></g><!--link actl to acl--><g class="link" data-entity-1="ent0016" data-entity-2="ent0023" data-link-type="dependency" data-source-line="86" id="lnk39"><path d="M1192,493.6083 C1192,517.6283 1192,548.2883 1192,572.2683" fill="none" id="actl-to-acl" style="stroke:#181818;stroke-width:1;"/><polygon fill="#181818" points="1192,577.2683,1196,568.2683,1192,572.2683,1188,568.2683,1192,577.2683" style="stroke:#181818;stroke-width:1;stroke-linejoin:miter;stroke-miterlimit:10;"/></g><!--link ectl to ecl--><g class="link" data-entity-1="ent0017" data-entity-2="ent0024" data-link-type="dependency" data-source-line="87" id="lnk40"><path d="M844.28,493.6083 C857.63,517.6283 875.0107,548.9181 888.3407,572.8981" fill="none" id="ectl-to-ecl" style="stroke:#181818;stroke-width:1;"/><polygon fill="#181818" points="890.77,577.2683,889.8934,567.4585,888.3407,572.8981,882.9011,571.3454,890.77,577.2683" style="stroke:#181818;stroke-width:1;stroke-linejoin:miter;stroke-miterlimit:10;"/></g><!--link wctl to wcl--><g class="link" data-entity-1="ent0018" data-entity-2="ent0025" data-link-type="dependency" data-source-line="88" id="lnk41"><path d="M339.9,493.6083 C371.47,517.5483 414.3161,550.037 445.9361,574.017" fill="none" id="wctl-to-wcl" style="stroke:#181818;stroke-width:1;"/><polygon fill="#181818" points="449.92,577.0383,445.166,568.4128,445.9361,574.017,440.3319,574.787,449.92,577.0383" style="stroke:#181818;stroke-width:1;stroke-linejoin:miter;stroke-miterlimit:10;"/></g><!--link cctl to ccl--><g class="link" data-entity-1="ent0019" data-entity-2="ent0026" data-link-type="dependency" data-source-line="89" id="lnk42"><path d="M510.38,493.6083 C536.8,517.5483 572.2938,549.702 598.7738,573.682" fill="none" id="cctl-to-ccl" style="stroke:#181818;stroke-width:1;"/><polygon fill="#181818" points="602.48,577.0383,598.4939,568.0321,598.7738,573.682,593.1239,573.962,602.48,577.0383" style="stroke:#181818;stroke-width:1;stroke-linejoin:miter;stroke-miterlimit:10;"/></g><!--link fctl to fcl--><g class="link" data-entity-1="ent0020" data-entity-2="ent0027" data-link-type="dependency" data-source-line="90" id="lnk43"><path d="M674.85,493.6083 C696.21,517.6283 724.5878,549.5516 745.9078,573.5316" fill="none" id="fctl-to-fcl" style="stroke:#181818;stroke-width:1;"/><polygon fill="#181818" points="749.23,577.2683,746.2394,567.8845,745.9078,573.5316,740.2607,573.2,749.23,577.2683" style="stroke:#181818;stroke-width:1;stroke-linejoin:miter;stroke-miterlimit:10;"/></g><!--link mcl to core--><g class="link" data-entity-1="ent0022" data-entity-2="ent0004" data-link-type="dependency" data-source-line="93" id="lnk44"><path d="M1105.72,627.5983 C1109.84,628.6683 1113.96,629.6183 1118,630.3683 C1470.73,696.1483 1571.42,592.3083 1925,653.3683 C1977.68,662.4683 2030.8229,680.4743 2071.0429,695.9343" fill="none" id="mcl-to-core" style="stroke:#181818;stroke-width:1;"/><polygon fill="#181818" points="2075.71,697.7283,2068.7444,690.7655,2071.0429,695.9343,2065.8741,698.2328,2075.71,697.7283" style="stroke:#181818;stroke-width:1;stroke-linejoin:miter;stroke-miterlimit:10;"/><text fill="#000000" font-family="sans-serif" font-size="13" lengthAdjust="spacing" textLength="113.7817" x="1994" y="666.9366">members / ledger</text></g><!--link acl to core--><g class="link" data-entity-1="ent0023" data-entity-2="ent0004" data-link-type="dependency" data-source-line="94" id="lnk45"><path d="M1254.52,605.7383 C1461.1,608.8583 2110.44,621.2083 2141,653.3683 C2150.93,663.8183 2149.9188,674.908 2144.2088,688.318" fill="none" id="acl-to-core" style="stroke:#181818;stroke-width:1;"/><polygon fill="#181818" points="2142.25,692.9183,2149.4561,686.2048,2144.2088,688.318,2142.0956,683.0706,2142.25,692.9183" style="stroke:#181818;stroke-width:1;stroke-linejoin:miter;stroke-miterlimit:10;"/><text fill="#000000" font-family="sans-serif" font-size="13" lengthAdjust="spacing" textLength="228.0776" x="2148.5" y="666.9366">approval-requests (store + confirm)</text></g><!--link ecl to earn--><g class="link" data-entity-1="ent0024" data-entity-2="ent0005" data-link-type="dependency" data-source-line="95" id="lnk46"><path d="M962.97,627.7883 C966.67,628.7883 970.37,629.6583 974,630.3683 C1131.55,661.1383 1536.77,633.0283 1696,653.3683 C1776,663.5883 1795.42,671.3183 1873,693.3683 C1876.92,694.4883 1876.1668,694.1996 1880.2068,695.4596" fill="none" id="ecl-to-earn" style="stroke:#181818;stroke-width:1;"/><polygon fill="#181818" points="1884.98,696.9483,1877.5791,690.4501,1880.2068,695.4596,1875.1972,698.0872,1884.98,696.9483" style="stroke:#181818;stroke-width:1;stroke-linejoin:miter;stroke-miterlimit:10;"/><text fill="#000000" font-family="sans-serif" font-size="13" lengthAdjust="spacing" textLength="129.9175" x="1789.35" y="666.9366">earn-sources / rules</text></g><!--link wcl to redm--><g class="link" data-entity-1="ent0025" data-entity-2="ent0006" data-link-type="dependency" data-source-line="96" id="lnk47"><path d="M541.26,627.3283 C545.2,628.4683 549.14,629.5083 553,630.3683 C864.26,700.2583 952.08,649.0683 1268,693.3683 C1286.26,695.9283 1300.9083,698.4026 1319.2283,701.8926" fill="none" id="wcl-to-redm" style="stroke:#181818;stroke-width:1;"/><polygon fill="#181818" points="1324.14,702.8283,1316.0475,697.2147,1319.2283,701.8926,1314.5504,705.0734,1324.14,702.8283" style="stroke:#181818;stroke-width:1;stroke-linejoin:miter;stroke-miterlimit:10;"/><text fill="#000000" font-family="sans-serif" font-size="13" lengthAdjust="spacing" textLength="149.4175" x="849.16" y="666.9366">reward-types / rewards</text></g><!--link ccl to camp--><g class="link" data-entity-1="ent0026" data-entity-2="ent0007" data-link-type="dependency" data-source-line="97" id="lnk48"><path d="M697.52,627.7783 C701.38,628.7383 705.23,629.6183 709,630.3683 C838.41,656.1583 873.47,642.7983 1005,653.3683 C1219.27,670.5883 1275.99,652.3383 1487,693.3683 C1491.1,694.1683 1490.4212,693.9183 1494.6212,694.9383" fill="none" id="ccl-to-camp" style="stroke:#181818;stroke-width:1;"/><polygon fill="#181818" points="1499.48,696.1183,1491.6782,690.1073,1494.6212,694.9383,1489.7902,697.8813,1499.48,696.1183" style="stroke:#181818;stroke-width:1;stroke-linejoin:miter;stroke-miterlimit:10;"/><text fill="#000000" font-family="sans-serif" font-size="13" lengthAdjust="spacing" textLength="204.3374" x="1331.33" y="666.9366">campaigns / drawings / winners</text></g><!--link fcl to bridge--><g class="link" data-entity-1="ent0027" data-entity-2="ent0008" data-link-type="dependency" data-source-line="98" id="lnk49"><path d="M823.46,627.3783 C827.32,628.5383 831.19,629.5683 835,630.3683 C988.79,662.9083 1386.84,628.1883 1542,653.3683 C1593.14,661.6683 1644.3355,676.8205 1687.0055,691.3105" fill="none" id="fcl-to-bridge" style="stroke:#181818;stroke-width:1;"/><polygon fill="#181818" points="1691.74,692.9183,1684.5042,686.2368,1687.0055,691.3105,1681.9318,693.8119,1691.74,692.9183" style="stroke:#181818;stroke-width:1;stroke-linejoin:miter;stroke-miterlimit:10;"/><text fill="#000000" font-family="sans-serif" font-size="13" lengthAdjust="spacing" textLength="72.6299" x="1616.81" y="666.9366">fraud alerts</text></g><!--link wf to actl--><g class="link" data-entity-1="ent0003" data-entity-2="ent0016" data-link-type="dependency" data-source-line="101" id="lnk50"><path d="M1377,332.6183 C1335.9,362.2283 1273.127,407.4558 1232.037,437.0558" fill="none" id="wf-to-actl" style="stroke:#181818;stroke-width:1;"/><polygon fill="#181818" points="1227.98,439.9783,1237.6205,437.9633,1232.037,437.0558,1232.9445,431.4722,1227.98,439.9783" style="stroke:#181818;stroke-width:1;stroke-linejoin:miter;stroke-miterlimit:10;"/><text fill="#000000" font-family="sans-serif" font-size="13" lengthAdjust="spacing" textLength="197.6152" x="1316.73" y="385.9866">confirm (mTLS + BEP assertion)</text></g><!--link mcl to err--><g class="link" data-entity-1="ent0022" data-entity-2="ent0028" data-link-type="dependency" data-source-line="104" id="lnk51"><path d="M986.21,629.7583 C941.17,648.4883 884.2267,672.1784 838.6567,691.1284" fill="none" id="mcl-to-err" style="stroke:#181818;stroke-width:1;stroke-dasharray:7,7;"/><polygon fill="#181818" points="834.04,693.0483,843.886,693.286,838.6567,691.1284,840.8142,685.8992,834.04,693.0483" style="stroke:#181818;stroke-width:1;stroke-linejoin:miter;stroke-miterlimit:10;"/></g><!--link acl to err--><g class="link" data-entity-1="ent0023" data-entity-2="ent0028" data-link-type="dependency" data-source-line="105" id="lnk52"><path d="M1129.54,626.7983 C1125.64,628.0383 1121.77,629.2383 1118,630.3683 C1032.03,656.1283 937.5226,679.8841 867.3926,696.6741" fill="none" id="acl-to-err" style="stroke:#181818;stroke-width:1;stroke-dasharray:7,7;"/><polygon fill="#181818" points="862.53,697.8383,872.214,699.6329,867.3926,696.6741,870.3513,691.8527,862.53,697.8383" style="stroke:#181818;stroke-width:1;stroke-linejoin:miter;stroke-miterlimit:10;"/></g><!--link ecl to err--><g class="link" data-entity-1="ent0024" data-entity-2="ent0028" data-link-type="dependency" data-source-line="106" id="lnk53"><path d="M874.82,630.7483 C853.05,649.3983 827.5967,671.2148 805.8567,689.8448" fill="none" id="ecl-to-err" style="stroke:#181818;stroke-width:1;stroke-dasharray:7,7;"/><polygon fill="#181818" points="802.06,693.0983,811.4968,690.2793,805.8567,689.8448,806.2912,684.2046,802.06,693.0983" style="stroke:#181818;stroke-width:1;stroke-linejoin:miter;stroke-miterlimit:10;"/></g><!--link wcl to err--><g class="link" data-entity-1="ent0025" data-entity-2="ent0028" data-link-type="dependency" data-source-line="107" id="lnk54"><path d="M541.24,627.5383 C588.9,646.3983 652.1109,671.4082 701.9109,691.1182" fill="none" id="wcl-to-err" style="stroke:#181818;stroke-width:1;stroke-dasharray:7,7;"/><polygon fill="#181818" points="706.56,692.9583,699.6636,685.9269,701.9109,691.1182,696.7196,693.3655,706.56,692.9583" style="stroke:#181818;stroke-width:1;stroke-linejoin:miter;stroke-miterlimit:10;"/></g><!--link ccl to err--><g class="link" data-entity-1="ent0026" data-entity-2="ent0028" data-link-type="dependency" data-source-line="108" id="lnk55"><path d="M663,630.7483 C686.07,649.3983 713.202,671.3245 736.242,689.9545" fill="none" id="ccl-to-err" style="stroke:#181818;stroke-width:1;stroke-dasharray:7,7;"/><polygon fill="#181818" points="740.13,693.0983,735.6467,684.329,736.242,689.9545,730.6166,690.5498,740.13,693.0983" style="stroke:#181818;stroke-width:1;stroke-linejoin:miter;stroke-miterlimit:10;"/></g><!--link fcl to err--><g class="link" data-entity-1="ent0027" data-entity-2="ent0028" data-link-type="dependency" data-source-line="109" id="lnk56"><path d="M772,630.7483 C772,649.3983 772,669.4683 772,688.0983" fill="none" id="fcl-to-err" style="stroke:#181818;stroke-width:1;stroke-dasharray:7,7;"/><polygon fill="#181818" points="772,693.0983,776,684.0983,772,688.0983,768,684.0983,772,693.0983" style="stroke:#181818;stroke-width:1;stroke-linejoin:miter;stroke-miterlimit:10;"/></g><!--link err to prob--><g class="link" data-entity-1="ent0028" data-entity-2="ent0013" data-link-type="dependency" data-source-line="110" id="lnk57"><path d="M681.28,713.9183 C486.74,702.1083 47,668.3883 47,604.8783 C47,304.6883 47,304.6883 47,304.6883 C47,237.5683 528.8056,193.2834 705.1756,179.3034" fill="none" id="err-to-prob" style="stroke:#181818;stroke-width:1;stroke-dasharray:7,7;"/><polygon fill="#181818" points="710.16,178.9083,700.8721,175.6319,705.1756,179.3034,701.5042,183.6069,710.16,178.9083" style="stroke:#181818;stroke-width:1;stroke-linejoin:miter;stroke-miterlimit:10;"/><text fill="#000000" font-family="sans-serif" font-size="13" lengthAdjust="spacing" textLength="154.248" x="48" y="471.9766">translated status + code</text></g><!--link prob to bep--><g class="link" data-entity-1="ent0013" data-entity-2="ent0001" data-link-type="dependency" data-source-line="111" id="lnk58"><path d="M835.88,204.2883 C839.93,205.6683 843.99,206.9083 848,207.9483 C961.11,237.4483 993.62,220.0683 1110,230.9483 C1289.21,247.7083 1337.35,231.6583 1513,270.9483 C1522.31,273.0383 1527.1958,274.241 1536.6158,277.241" fill="none" id="prob-to-bep" style="stroke:#181818;stroke-width:1;"/><polygon fill="#181818" points="1541.38,278.7583,1534.0182,272.2158,1536.6158,277.241,1531.5906,279.8386,1541.38,278.7583" style="stroke:#181818;stroke-width:1;stroke-linejoin:miter;stroke-miterlimit:10;"/><text fill="#000000" font-family="sans-serif" font-size="13" lengthAdjust="spacing" textLength="120.5103" x="1376.07" y="244.5166">RFC-7807 Problem</text></g><?plantuml-src XLTjRzis4FwkNt5mW2r9uyHhaoOPYWokaQx1iY58CdGV-eMYJWuNYbH9AgvH5DYFs2_SBzaT9TcohBGoaF3bkHVUFNUKWWeQONOCr_Y46bx1V__y2zekXGxBiSWAPSPfdiVLko22ad1lIwljV9aa_b6PKZXHW7yGcLqeCuTSQ8-TdGnpKUbmZv_3LAkvAT04aFG7NGTbR8OUItXvt5bqmZpoul59rvH36OIPazDV4g37sSfaC-iCkZTl_9Eyk83ryt8ICM-joz3TXQN6RKmc_0DcDKx8ntcZKDkUlfryaf_cUKVX02W29-dnsTbnCgnIsgAqXW90CYsIWU-i2GEGrdPyjctteJkJqrUlN__qZ6qXzLhbP79sVfhsRNSXtx7TXvB6r-SdyXdRH82rxNIIeZpfs-v2LYhvsRRTX-wSdfrFpcNojKkLadmGyvOeFO_eN89_VTsrkdFatyh1I9t6b0f2gsZfHxZyJ3msGeD1DNz8RULyiYRew2qn62wBake94Mwi8z4HjDuB3ocMNVpqmnrCRwxWLn5m8POVpGkOLk61qgiarPurS8VkIKc4tMjHf9dOsz0sNsmOlxo1QLaw-qJ-VR3kCTTsiO5Vv5ryM_JIEXoj0jk1yyQG00fdgFH7MmAyCIJWCCEYvFECDWLeenXqIHIbeEOnsdA9DeO45FMNkOiX6wTEPNFS37jSIhgI-_jRJMz_duNgwlx2h6xvDBeaQJY2gump4vQZjXMjrQsItcBW5htLJ-W-cbs78lDGUNHN6RoW3gRHGwIiZmdj5dMCYk-hloMHo9AexLEb74xDabU75Cm9sDTmusogiO1fndmYDRVlPkFJiyafATZMG2pYJl5r8mhCr6knH3Tm_j-nID71Z6g7ZgSPKwUkfxYGGVTbLwJTbDwI5GEobpKNuRRYMwqZloMD0zAtL7Kk-xxNYm7PMSFHxtaj1sJVEL5jczsMpMlPNXg8NsEw05qLImfcMf60_qPI8c1KMwYRUCp4DnBHIdJmGZuR_BM13Xxbi-4Uz6SXln7Y0N-aV2wiQ_LTVBwD_xFqWMgpW4ldw29uBqps37USYsc8Ty2LIVbIIQYNmtXyGLqOu6TuVtz_SqV5ZMqZ2FOHJSAR3AAQ9j2HADLHqtUEOjyvsl-bxWi_nAv0THdbW1g7oXLc1w3QXgBCt-GwPkpGfmhTicaX1rIjcAlFG8THPOdPNiBMeclK2CXisvpQthHRcpoeEz4U7ufx2-I86RVzbfO-YGfOKwpRrKnip71ZjjYOoOrPv3DPMpEV_2HGpM3O_MiybO4oaLl7JA6p4hyNJWNsabreVD69Q2TCIsmdpBb5Es52oNR2RCdR2LE1lMZCqahLCC6JbKQ0BZ_Wn1QnY3orVurq3JWotKE8fcp6t9dHyq5yuCqN7CjSkMAFN6myf9A9GZmOUtg1aCYw7VKlJxxhXYrP4L4kLimuBCiQ5QUUZjMuG0KISUs5oQ3C2Nupvo7zDvp6lC7Nzo3XyrWfWX8GF8TYLVbq5hqSqotQU9uiSbYbl3PLRy1kSN_DXEVN3k69KDoC8fTcpde_bbK8v4OCwE7XHQmXqHbZPxpeZ6Ldd7VnpiKnNqtHaK3V2ruBhWXFNogLZ_7EC8c8U5oiezDUTT1SWabYB34ojI7O0cpUrFSVbhuDWe2Wq1tG9mhy9l97SKWxg_3KUTNgYTAX37HVeGuJD1cmukH_?></g></svg>