<svg xmlns="http://www.w3.org/2000/svg" xmlns:xlink="http://www.w3.org/1999/xlink" contentStyleType="text/css" data-diagram-type="SEQUENCE" height="950px" preserveAspectRatio="none" style="width:1798px;height:950px;background:#FFFFFF;" version="1.1" viewBox="0 0 1798 950" width="1798px" zoomAndPan="magnify"><?plantuml 1.2026.4?><defs/><g><g class="title" data-source-line="1151"><text fill="#000000" font-family="sans-serif" font-size="14" font-weight="700" lengthAdjust="spacing" textLength="345.3584" x="723.136" y="28.5352">Refund Clawback &#8212; PaymentReversed Handling</text></g><rect fill="none" height="151.4844" style="stroke:#000000;stroke-width:1.5;" width="486.0854" x="868.5918" y="514.5664"/><g class="participant-lifeline" data-entity-uid="part1" data-qualified-name="PH" data-source-line="1153" id="part1-lifeline"><g><title>Payment Hub</title><rect fill="#000000" fill-opacity="0.00000" height="748.5586" width="8" x="52.8984" y="118.9766"/><line style="stroke:#181818;stroke-width:0.5;stroke-dasharray:5,5;" x1="56" x2="56" y1="118.9766" y2="867.5352"/></g></g><g class="participant-lifeline" data-entity-uid="part2" data-qualified-name="K1" data-source-line="1154" id="part2-lifeline"><g><title>loyalty.ingress.reversal.v1</title><rect fill="#000000" fill-opacity="0.00000" height="748.5586" width="8" x="320.7119" y="118.9766"/><line style="stroke:#181818;stroke-width:0.5;stroke-dasharray:5,5;" x1="324.6309" x2="324.6309" y1="118.9766" y2="867.5352"/></g></g><g class="participant-lifeline" data-entity-uid="part3" data-qualified-name="Bridge" data-source-line="1155" id="part3-lifeline"><g><title>loyalty-integration-bridge</title><rect fill="#000000" fill-opacity="0.00000" height="748.5586" width="8" x="525.2686" y="118.9766"/><line style="stroke:#181818;stroke-width:0.5;stroke-dasharray:5,5;" x1="528.793" x2="528.793" y1="118.9766" y2="867.5352"/></g></g><g class="participant-lifeline" data-entity-uid="part4" data-qualified-name="K2" data-source-line="1156" id="part4-lifeline"><g><title>loyalty.payment.reversed.v1</title><rect fill="#000000" fill-opacity="0.00000" height="748.5586" width="8" x="759.4014" y="118.9766"/><line style="stroke:#181818;stroke-width:0.5;stroke-dasharray:5,5;" x1="763.2109" x2="763.2109" y1="118.9766" y2="867.5352"/></g></g><g class="participant-lifeline" data-entity-uid="part5" data-qualified-name="Ledger" data-source-line="1157" id="part5-lifeline"><g><title>loyalty-core</title><rect fill="#000000" fill-opacity="0.00000" height="748.5586" width="8" x="984.3906" y="118.9766"/><line style="stroke:#181818;stroke-width:0.5;stroke-dasharray:5,5;" x1="987.5918" x2="987.5918" y1="118.9766" y2="867.5352"/></g></g><g class="participant-lifeline" data-entity-uid="part6" data-qualified-name="K3" data-source-line="1158" id="part6-lifeline"><g><title>loyalty.ledger.points_clawed_back.v1</title><rect fill="#000000" fill-opacity="0.00000" height="748.5586" width="8" x="1345.6772" y="118.9766"/><line style="stroke:#181818;stroke-width:0.5;stroke-dasharray:5,5;" x1="1348.9985" x2="1348.9985" y1="118.9766" y2="867.5352"/></g></g><g class="participant-lifeline" data-entity-uid="part7" data-qualified-name="Notif" data-source-line="1159" id="part7-lifeline"><g><title>notification-service</title><rect fill="#000000" fill-opacity="0.00000" height="748.5586" width="8" x="1564.4902" y="118.9766"/><line style="stroke:#181818;stroke-width:0.5;stroke-dasharray:5,5;" x1="1568.356" x2="1568.356" y1="118.9766" y2="867.5352"/></g></g><g class="participant-lifeline" data-entity-uid="part8" data-qualified-name="Member" data-source-line="1160" id="part8-lifeline"><g><title>Member</title><rect fill="#000000" fill-opacity="0.00000" height="748.5586" width="8" x="1752.9961" y="118.9766"/><line style="stroke:#181818;stroke-width:0.5;stroke-dasharray:5,5;" x1="1756.3618" x2="1756.3618" y1="118.9766" y2="867.5352"/></g></g><g class="participant participant-head" data-entity-uid="part1" data-qualified-name="PH" data-source-line="1153" id="part1-head"><rect fill="#E2E2F0" height="30.4883" rx="2.5" ry="2.5" style="stroke:#181818;stroke-width:0.5;" width="103.7969" x="5" y="87.4883"/><text fill="#000000" font-family="sans-serif" font-size="14" lengthAdjust="spacing" textLength="89.7969" x="12" y="108.0234">Payment Hub</text></g><g class="participant participant-tail" data-entity-uid="part1" data-qualified-name="PH" data-source-line="1153" id="part1-tail"><rect fill="#E2E2F0" height="30.4883" rx="2.5" ry="2.5" style="stroke:#181818;stroke-width:0.5;" width="103.7969" x="5" y="866.5352"/><text fill="#000000" font-family="sans-serif" font-size="14" lengthAdjust="spacing" textLength="89.7969" x="12" y="887.0703">Payment Hub</text></g><g class="participant participant-head" data-entity-uid="part2" data-qualified-name="K1" data-source-line="1154" id="part2-head"><path d="M231.6309,92.4883 L417.793,92.4883 C422.793,92.4883 422.793,105.7324 422.793,105.7324 C422.793,105.7324 422.793,118.9766 417.793,118.9766 L231.6309,118.9766 C226.6309,118.9766 226.6309,105.7324 226.6309,105.7324 C226.6309,105.7324 226.6309,92.4883 231.6309,92.4883" fill="#E2E2F0" style="stroke:#181818;stroke-width:0.5;"/><path d="M417.793,92.4883 C412.793,92.4883 412.793,105.7324 412.793,105.7324 C412.793,118.9766 417.793,118.9766 417.793,118.9766" fill="none" style="stroke:#181818;stroke-width:0.5;"/><text fill="#000000" font-family="sans-serif" font-size="14" lengthAdjust="spacing" textLength="176.1621" x="231.6309" y="111.0234">loyalty.ingress.reversal.v1</text></g><g class="participant participant-tail" data-entity-uid="part2" data-qualified-name="K1" data-source-line="1154" id="part2-tail"><path d="M231.6309,866.5352 L417.793,866.5352 C422.793,866.5352 422.793,879.7793 422.793,879.7793 C422.793,879.7793 422.793,893.0234 417.793,893.0234 L231.6309,893.0234 C226.6309,893.0234 226.6309,879.7793 226.6309,879.7793 C226.6309,879.7793 226.6309,866.5352 231.6309,866.5352" fill="#E2E2F0" style="stroke:#181818;stroke-width:0.5;"/><path d="M417.793,866.5352 C412.793,866.5352 412.793,879.7793 412.793,879.7793 C412.793,893.0234 417.793,893.0234 417.793,893.0234" fill="none" style="stroke:#181818;stroke-width:0.5;"/><text fill="#000000" font-family="sans-serif" font-size="14" lengthAdjust="spacing" textLength="176.1621" x="231.6309" y="885.0703">loyalty.ingress.reversal.v1</text></g><g class="participant participant-head" data-entity-uid="part3" data-qualified-name="Bridge" data-source-line="1155" id="part3-head"><rect fill="#E2E2F0" height="30.4883" rx="2.5" ry="2.5" style="stroke:#181818;stroke-width:0.5;" width="192.9512" x="432.793" y="87.4883"/><text fill="#000000" font-family="sans-serif" font-size="14" lengthAdjust="spacing" textLength="178.9512" x="439.793" y="108.0234">loyalty-integration-bridge</text></g><g class="participant participant-tail" data-entity-uid="part3" data-qualified-name="Bridge" data-source-line="1155" id="part3-tail"><rect fill="#E2E2F0" height="30.4883" rx="2.5" ry="2.5" style="stroke:#181818;stroke-width:0.5;" width="192.9512" x="432.793" y="866.5352"/><text fill="#000000" font-family="sans-serif" font-size="14" lengthAdjust="spacing" textLength="178.9512" x="439.793" y="887.0703">loyalty-integration-bridge</text></g><g class="participant participant-head" data-entity-uid="part4" data-qualified-name="K2" data-source-line="1156" id="part4-head"><path d="M663.2109,92.4883 L863.5918,92.4883 C868.5918,92.4883 868.5918,105.7324 868.5918,105.7324 C868.5918,105.7324 868.5918,118.9766 863.5918,118.9766 L663.2109,118.9766 C658.2109,118.9766 658.2109,105.7324 658.2109,105.7324 C658.2109,105.7324 658.2109,92.4883 663.2109,92.4883" fill="#E2E2F0" style="stroke:#181818;stroke-width:0.5;"/><path d="M863.5918,92.4883 C858.5918,92.4883 858.5918,105.7324 858.5918,105.7324 C858.5918,118.9766 863.5918,118.9766 863.5918,118.9766" fill="none" style="stroke:#181818;stroke-width:0.5;"/><text fill="#000000" font-family="sans-serif" font-size="14" lengthAdjust="spacing" textLength="190.3809" x="663.2109" y="111.0234">loyalty.payment.reversed.v1</text></g><g class="participant participant-tail" data-entity-uid="part4" data-qualified-name="K2" data-source-line="1156" id="part4-tail"><path d="M663.2109,866.5352 L863.5918,866.5352 C868.5918,866.5352 868.5918,879.7793 868.5918,879.7793 C868.5918,879.7793 868.5918,893.0234 863.5918,893.0234 L663.2109,893.0234 C658.2109,893.0234 658.2109,879.7793 658.2109,879.7793 C658.2109,879.7793 658.2109,866.5352 663.2109,866.5352" fill="#E2E2F0" style="stroke:#181818;stroke-width:0.5;"/><path d="M863.5918,866.5352 C858.5918,866.5352 858.5918,879.7793 858.5918,879.7793 C858.5918,893.0234 863.5918,893.0234 863.5918,893.0234" fill="none" style="stroke:#181818;stroke-width:0.5;"/><text fill="#000000" font-family="sans-serif" font-size="14" lengthAdjust="spacing" textLength="190.3809" x="663.2109" y="885.0703">loyalty.payment.reversed.v1</text></g><g class="participant participant-head" data-entity-uid="part5" data-qualified-name="Ledger" data-source-line="1157" id="part5-head"><rect fill="#E2E2F0" height="46.9766" rx="2.5" ry="2.5" style="stroke:#181818;stroke-width:0.5;" width="219.5977" x="878.5918" y="71"/><text fill="#000000" font-family="sans-serif" font-size="14" lengthAdjust="spacing" textLength="81.6895" x="947.5459" y="91.5352">loyalty-core</text><text fill="#000000" font-family="sans-serif" font-size="14" lengthAdjust="spacing" textLength="205.5977" x="885.5918" y="108.0234">(Ledger + Reversal Consumer)</text></g><g class="participant participant-tail" data-entity-uid="part5" data-qualified-name="Ledger" data-source-line="1157" id="part5-tail"><rect fill="#E2E2F0" height="46.9766" rx="2.5" ry="2.5" style="stroke:#181818;stroke-width:0.5;" width="219.5977" x="878.5918" y="866.5352"/><text fill="#000000" font-family="sans-serif" font-size="14" lengthAdjust="spacing" textLength="81.6895" x="947.5459" y="887.0703">loyalty-core</text><text fill="#000000" font-family="sans-serif" font-size="14" lengthAdjust="spacing" textLength="205.5977" x="885.5918" y="903.5586">(Ledger + Reversal Consumer)</text></g><g class="participant participant-head" data-entity-uid="part6" data-qualified-name="K3" data-source-line="1158" id="part6-head"><path d="M1218.9985,92.4883 L1480.356,92.4883 C1485.356,92.4883 1485.356,105.7324 1485.356,105.7324 C1485.356,105.7324 1485.356,118.9766 1480.356,118.9766 L1218.9985,118.9766 C1213.9985,118.9766 1213.9985,105.7324 1213.9985,105.7324 C1213.9985,105.7324 1213.9985,92.4883 1218.9985,92.4883" fill="#E2E2F0" style="stroke:#181818;stroke-width:0.5;"/><path d="M1480.356,92.4883 C1475.356,92.4883 1475.356,105.7324 1475.356,105.7324 C1475.356,118.9766 1480.356,118.9766 1480.356,118.9766" fill="none" style="stroke:#181818;stroke-width:0.5;"/><text fill="#000000" font-family="sans-serif" font-size="14" lengthAdjust="spacing" textLength="251.3574" x="1218.9985" y="111.0234">loyalty.ledger.points_clawed_back.v1</text></g><g class="participant participant-tail" data-entity-uid="part6" data-qualified-name="K3" data-source-line="1158" id="part6-tail"><path d="M1218.9985,866.5352 L1480.356,866.5352 C1485.356,866.5352 1485.356,879.7793 1485.356,879.7793 C1485.356,879.7793 1485.356,893.0234 1480.356,893.0234 L1218.9985,893.0234 C1213.9985,893.0234 1213.9985,879.7793 1213.9985,879.7793 C1213.9985,879.7793 1213.9985,866.5352 1218.9985,866.5352" fill="#E2E2F0" style="stroke:#181818;stroke-width:0.5;"/><path d="M1480.356,866.5352 C1475.356,866.5352 1475.356,879.7793 1475.356,879.7793 C1475.356,893.0234 1480.356,893.0234 1480.356,893.0234" fill="none" style="stroke:#181818;stroke-width:0.5;"/><text fill="#000000" font-family="sans-serif" font-size="14" lengthAdjust="spacing" textLength="251.3574" x="1218.9985" y="885.0703">loyalty.ledger.points_clawed_back.v1</text></g><g class="participant participant-head" data-entity-uid="part7" data-qualified-name="Notif" data-source-line="1159" id="part7-head"><rect fill="#E2E2F0" height="30.4883" rx="2.5" ry="2.5" style="stroke:#181818;stroke-width:0.5;" width="146.2686" x="1495.356" y="87.4883"/><text fill="#000000" font-family="sans-serif" font-size="14" lengthAdjust="spacing" textLength="132.2686" x="1502.356" y="108.0234">notification-service</text></g><g class="participant participant-tail" data-entity-uid="part7" data-qualified-name="Notif" data-source-line="1159" id="part7-tail"><rect fill="#E2E2F0" height="30.4883" rx="2.5" ry="2.5" style="stroke:#181818;stroke-width:0.5;" width="146.2686" x="1495.356" y="866.5352"/><text fill="#000000" font-family="sans-serif" font-size="14" lengthAdjust="spacing" textLength="132.2686" x="1502.356" y="887.0703">notification-service</text></g><g class="participant participant-head" data-entity-uid="part8" data-qualified-name="Member" data-source-line="1160" id="part8-head"><text fill="#000000" font-family="sans-serif" font-size="14" lengthAdjust="spacing" textLength="55.2686" x="1726.3618" y="116.0234">Member</text><ellipse cx="1756.9961" cy="50.9883" fill="#E2E2F0" rx="8" ry="8" style="stroke:#181818;stroke-width:0.5;"/><path d="M1756.9961,58.9883 L1756.9961,85.9883 M1743.9961,66.9883 L1769.9961,66.9883 M1756.9961,85.9883 L1743.9961,100.9883 M1756.9961,85.9883 L1769.9961,100.9883" fill="none" style="stroke:#181818;stroke-width:0.5;"/></g><g class="participant participant-tail" data-entity-uid="part8" data-qualified-name="Member" data-source-line="1160" id="part8-tail"><text fill="#000000" font-family="sans-serif" font-size="14" lengthAdjust="spacing" textLength="55.2686" x="1726.3618" y="880.0703">Member</text><ellipse cx="1756.9961" cy="891.5234" fill="#E2E2F0" rx="8" ry="8" style="stroke:#181818;stroke-width:0.5;"/><path d="M1756.9961,899.5234 L1756.9961,926.5234 M1743.9961,907.5234 L1769.9961,907.5234 M1756.9961,926.5234 L1743.9961,941.5234 M1756.9961,926.5234 L1769.9961,941.5234" fill="none" style="stroke:#181818;stroke-width:0.5;"/></g><g class="message" data-entity-1="part1" data-entity-2="part2" data-source-line="1162" id="msg1"><polygon fill="#181818" points="312.7119,207.5293,322.7119,211.5293,312.7119,215.5293,316.7119,211.5293" style="stroke:#181818;stroke-width:1;stroke-linejoin:miter;stroke-miterlimit:10;"/><line style="stroke:#181818;stroke-width:1;" x1="56.8984" x2="318.7119" y1="211.5293" y2="211.5293"/><text fill="#000000" font-family="sans-serif" font-size="13" lengthAdjust="spacing" textLength="181.2446" x="63.8984" y="145.5449">bank-side adapter publishes</text><text fill="#000000" font-family="sans-serif" font-size="13" lengthAdjust="spacing" textLength="163.5791" x="63.8984" y="160.8555">loyalty.ingress.reversal.v1</text><text fill="#000000" font-family="sans-serif" font-size="13" lengthAdjust="spacing" textLength="205.6641" x="63.8984" y="176.166">{originalEventId, reversalEventId,</text><text fill="#000000" font-family="sans-serif" font-size="13" lengthAdjust="spacing" textLength="207.543" x="63.8984" y="191.4766">customerId, amount, reversedAt}</text><text fill="#000000" font-family="sans-serif" font-size="13" lengthAdjust="spacing" textLength="243.8135" x="63.8984" y="206.7871">(adapter is bank-owned &#8212; ADR-0025)</text></g><g class="message" data-entity-1="part2" data-entity-2="part3" data-source-line="1164" id="msg2"><polygon fill="#181818" points="517.2686,236.8398,527.2686,240.8398,517.2686,244.8398,521.2686,240.8398" style="stroke:#181818;stroke-width:1;stroke-linejoin:miter;stroke-miterlimit:10;"/><line style="stroke:#181818;stroke-width:1;" x1="324.7119" x2="523.2686" y1="240.8398" y2="240.8398"/><text fill="#000000" font-family="sans-serif" font-size="13" lengthAdjust="spacing" textLength="56.7861" x="331.7119" y="236.0977">consume</text></g><path d="M534,253.8398 L534,324.8398 L810,324.8398 L810,263.8398 L800,253.8398 L534,253.8398" fill="#FEFFDD" style="stroke:#181818;stroke-width:0.5;"/><path d="M800,253.8398 L800,263.8398 L810,263.8398 L800,253.8398" fill="#FEFFDD" style="stroke:#181818;stroke-width:0.5;"/><text fill="#000000" font-family="sans-serif" font-size="13" lengthAdjust="spacing" textLength="214.1763" x="540" y="271.4082">Validate + emit canonical reversal</text><text fill="#000000" font-family="sans-serif" font-size="13" lengthAdjust="spacing" textLength="255.8296" x="540" y="286.7188">(no stream-join, no member resolution).</text><text fill="#000000" font-family="sans-serif" font-size="13" lengthAdjust="spacing" textLength="225.0435" x="540" y="302.0293">Customer-scoped; core matches by</text><text fill="#000000" font-family="sans-serif" font-size="13" lengthAdjust="spacing" textLength="232.1274" x="540" y="317.3398">source_ref (ADR-0015 / ADR-0025).</text><g class="message" data-entity-1="part3" data-entity-2="part4" data-source-line="1171" id="msg3"><polygon fill="#181818" points="751.4014,378.0137,761.4014,382.0137,751.4014,386.0137,755.4014,382.0137" style="stroke:#181818;stroke-width:1;stroke-linejoin:miter;stroke-miterlimit:10;"/><line style="stroke:#181818;stroke-width:1;" x1="529.2686" x2="757.4014" y1="382.0137" y2="382.0137"/><text fill="#000000" font-family="sans-serif" font-size="13" lengthAdjust="spacing" textLength="210.1328" x="536.2686" y="346.6504">ReversalEvent (customer-scoped)</text><text fill="#000000" font-family="sans-serif" font-size="13" lengthAdjust="spacing" textLength="181.2002" x="536.2686" y="361.9609">{customerId, originalEventId,</text><text fill="#000000" font-family="sans-serif" font-size="13" lengthAdjust="spacing" textLength="120.085" x="536.2686" y="377.2715">reversalEventId, ...}</text></g><g class="message" data-entity-1="part4" data-entity-2="part5" data-source-line="1173" id="msg4"><polygon fill="#181818" points="976.3906,407.3242,986.3906,411.3242,976.3906,415.3242,980.3906,411.3242" style="stroke:#181818;stroke-width:1;stroke-linejoin:miter;stroke-miterlimit:10;"/><line style="stroke:#181818;stroke-width:1;" x1="763.4014" x2="982.3906" y1="411.3242" y2="411.3242"/><text fill="#000000" font-family="sans-serif" font-size="13" lengthAdjust="spacing" textLength="190.2266" x="770.4014" y="406.582">consume (Reversal Consumer)</text></g><g class="message" data-entity-1="part5" data-entity-2="part5" data-source-line="1174" id="msg5"><line style="stroke:#181818;stroke-width:1;" x1="988.3906" x2="1030.3906" y1="486.5664" y2="486.5664"/><line style="stroke:#181818;stroke-width:1;" x1="1030.3906" x2="1030.3906" y1="486.5664" y2="499.5664"/><line style="stroke:#181818;stroke-width:1;" x1="989.3906" x2="1030.3906" y1="499.5664" y2="499.5664"/><polygon fill="#181818" points="999.3906,495.5664,989.3906,499.5664,999.3906,503.5664,995.3906,499.5664" style="stroke:#181818;stroke-width:1;stroke-linejoin:miter;stroke-miterlimit:10;"/><text fill="#000000" font-family="sans-serif" font-size="13" lengthAdjust="spacing" textLength="159.542" x="995.3906" y="435.8926">queryEntriesBySourceRef(</text><text fill="#000000" font-family="sans-serif" font-size="13" lengthAdjust="spacing" textLength="92.4663" x="1003.6172" y="451.2031">sourceRef LIKE</text><text fill="#000000" font-family="sans-serif" font-size="13" lengthAdjust="spacing" textLength="169.7173" x="1003.6172" y="466.5137">"&lt;originalEventId&gt;:rule:%")</text><text fill="#000000" font-family="sans-serif" font-size="13" lengthAdjust="spacing" textLength="197.7422" x="995.3906" y="481.8242">(its own ledger &#8212; all Programs)</text></g><path d="M868.5918,514.5664 L943.0386,514.5664 L943.0386,521.877 L933.0386,531.877 L868.5918,531.877 L868.5918,514.5664" fill="#EEEEEE" style="stroke:#000000;stroke-width:1.5;"/><rect fill="none" height="151.4844" style="stroke:#000000;stroke-width:1.5;" width="486.0854" x="868.5918" y="514.5664"/><text fill="#000000" font-family="sans-serif" font-size="13" font-weight="700" lengthAdjust="spacing" textLength="29.4468" x="883.5918" y="528.1348">loop</text><text fill="#000000" font-family="sans-serif" font-size="11" font-weight="700" lengthAdjust="spacing" textLength="262.9365" x="958.0386" y="527.2012">[For each original Earned entry (any Program)]</text><g class="message" data-entity-1="part5" data-entity-2="part5" data-source-line="1177" id="msg6"><line style="stroke:#181818;stroke-width:1;" x1="988.3906" x2="1030.3906" y1="645.0508" y2="645.0508"/><line style="stroke:#181818;stroke-width:1;" x1="1030.3906" x2="1030.3906" y1="645.0508" y2="658.0508"/><line style="stroke:#181818;stroke-width:1;" x1="989.3906" x2="1030.3906" y1="658.0508" y2="658.0508"/><polygon fill="#181818" points="999.3906,654.0508,989.3906,658.0508,999.3906,662.0508,995.3906,658.0508" style="stroke:#181818;stroke-width:1;stroke-linejoin:miter;stroke-miterlimit:10;"/><text fill="#000000" font-family="sans-serif" font-size="13" lengthAdjust="spacing" textLength="87.5786" x="995.3906" y="548.4453">appendEntry({</text><text fill="#000000" font-family="sans-serif" font-size="13" lengthAdjust="spacing" textLength="142.6826" x="1003.6172" y="563.7559">memberId, programId,</text><text fill="#000000" font-family="sans-serif" font-size="13" lengthAdjust="spacing" textLength="192.937" x="1003.6172" y="579.0664">qualifying_delta=-original_qd,</text><text fill="#000000" font-family="sans-serif" font-size="13" lengthAdjust="spacing" textLength="201.354" x="1003.6172" y="594.377">redeemable_delta=-original_rd,</text><text fill="#000000" font-family="sans-serif" font-size="13" lengthAdjust="spacing" textLength="133.9736" x="1003.6172" y="609.6875">entryType=Reversed,</text><text fill="#000000" font-family="sans-serif" font-size="13" lengthAdjust="spacing" textLength="339.0601" x="1003.6172" y="624.998">sourceRef=reversalEventId+":entry:"+originalEntryId})</text><text fill="#000000" font-family="sans-serif" font-size="13" lengthAdjust="spacing" textLength="226.021" x="995.3906" y="640.3086">balance may go NEGATIVE (allowed)</text></g><g class="message" data-entity-1="part5" data-entity-2="part6" data-source-line="1180" id="msg7"><polygon fill="#181818" points="1337.6772,690.3613,1347.6772,694.3613,1337.6772,698.3613,1341.6772,694.3613" style="stroke:#181818;stroke-width:1;stroke-linejoin:miter;stroke-miterlimit:10;"/><line style="stroke:#181818;stroke-width:1;" x1="988.3906" x2="1343.6772" y1="694.3613" y2="694.3613"/><text fill="#000000" font-family="sans-serif" font-size="13" lengthAdjust="spacing" textLength="163.5283" x="995.3906" y="689.6191">publish PointsClawedBack</text></g><g class="message" data-entity-1="part6" data-entity-2="part7" data-source-line="1181" id="msg8"><polygon fill="#181818" points="1556.4902,719.6719,1566.4902,723.6719,1556.4902,727.6719,1560.4902,723.6719" style="stroke:#181818;stroke-width:1;stroke-linejoin:miter;stroke-miterlimit:10;"/><line style="stroke:#181818;stroke-width:1;" x1="1349.6772" x2="1562.4902" y1="723.6719" y2="723.6719"/><text fill="#000000" font-family="sans-serif" font-size="13" lengthAdjust="spacing" textLength="56.7861" x="1356.6772" y="718.9297">consume</text></g><g class="message" data-entity-1="part7" data-entity-2="part8" data-source-line="1182" id="msg9"><polygon fill="#181818" points="1744.9961,764.293,1754.9961,768.293,1744.9961,772.293,1748.9961,768.293" style="stroke:#181818;stroke-width:1;stroke-linejoin:miter;stroke-miterlimit:10;"/><line style="stroke:#181818;stroke-width:1;" x1="1568.4902" x2="1750.9961" y1="768.293" y2="768.293"/><text fill="#000000" font-family="sans-serif" font-size="13" lengthAdjust="spacing" textLength="154.9272" x="1575.4902" y="748.2402">Push: "Some points were</text><text fill="#000000" font-family="sans-serif" font-size="13" lengthAdjust="spacing" textLength="164.5059" x="1575.4902" y="763.5508">reversed due to a refund."</text></g><path d="M815,781.293 L815,852.293 L1160,852.293 L1160,791.293 L1150,781.293 L815,781.293" fill="#FEFFDD" style="stroke:#181818;stroke-width:0.5;"/><path d="M1150,781.293 L1150,791.293 L1160,791.293 L1150,781.293" fill="#FEFFDD" style="stroke:#181818;stroke-width:0.5;"/><text fill="#000000" font-family="sans-serif" font-size="13" lengthAdjust="spacing" textLength="302.4531" x="821" y="798.8613">Core-driven (ADR-0015): core reverses its OWN</text><text fill="#000000" font-family="sans-serif" font-size="13" lengthAdjust="spacing" textLength="324.2192" x="821" y="814.1719">entries &#8212; single-writer (P5), per-Program coverage</text><text fill="#000000" font-family="sans-serif" font-size="13" lengthAdjust="spacing" textLength="309.2896" x="821" y="829.4824">automatic. Negative balance intentional; Member</text><text fill="#000000" font-family="sans-serif" font-size="13" lengthAdjust="spacing" textLength="210.209" x="821" y="844.793">cannot redeem until balance &#8805; 0.</text><?plantuml-src VLHDRzj64BtpLmm45A1WaxKT-ABK0Mn7hGsdZg04wKM0i297yYRBNMPtAOC83FIQU_z2_rX-ITzoIKLMWjwudAytRzwCbrunpNdTw9AkbNXSYU8JVVlx7vg9jcBjvxnbwxYa6w5B9VKcIMfXlInaBRIdKUz6DyrgHCBHx2Rvt733D5Ac5SgtEM8iEvVRBfDG-VQqyxmxVPwfzy-azhonmakZivMLvOOxzwlkyp1v7SltoRdS9J_xUVB2M5xez0qZbwKZclUWwDferrHinrruj1yMKztVl3Q0w9O5sE9o6GZRLNtnlAesNgvb4NjnRBUoYCtS1qCY2cyi_SdL2hMIsGrbhy0AJMWbzAVCoP99bABsG5etAoNT0xk5_XzU5_gBiN8ZjL3JBMYvBOzfC0y_5hfed3TeDLX5PHhj1oykB_qJw1cgIXUXc4SD1GHLNBwUPoSdP-VZ905Iu8rZ0UOY4fYWPoQ0UF1ariFKY3u89Ki1qn5n9JqLGXiDQjGE89nIRSXvowBAFeBaOyAxwkY1bpEg2KIEStXUzprahZ0rboyf39OguGjmHAiMBiuqjk2bvJMb4VRfEVtwlOCyOMW-m4tw9WBzPsXblayPfSNpMcEml4_X8UCBVKWvvNd-1CBEGeLUUZl2AFrHWqdljEyEBTfsghsLxAxQTrrpsDjqeOTMyQ8tjtVJy6Vqsm6iLnFRA9xyCWByL7f7c2b5GNU35KhHp1eiNkKmN6LCJRz3dIoAXrsBD1KsA04PRKkfqEqGCmRXFm4jwXea1zHj-YNWYjCCdDGni2ECq1tqiMwXwMN9oekBRAYv_1mzB9VCbLWf_i73HeyErVksvelXQ1q_8-VYO2v7eqaNCXaTxSWAxzlo2IIjX1Aw29fgQMFeVlh7vVlR3rDqhPJ1ue-3V9AzITszGCFzdjAikn7NtOcumeL8O8LFj_TxonBVCCGZ0CkiSGyJ6hs3kYWU6dhaSBE63QKI9yaR4c0aNErybCITCx0FXmiBWdt8IYlHwdVvZoTnJ_fSZe8GtlvrdqJoeAnE2mvZK9mzMXcEG3ex7sDSq7y_Q-H0kEZMMZJO0zot8gTxtk1ZopGm5mwv3XihrClXob5OVC3jnqauFbBj8hvz_PTEzlRoFm00?></g></svg>