<svg xmlns="http://www.w3.org/2000/svg" xmlns:xlink="http://www.w3.org/1999/xlink" contentStyleType="text/css" data-diagram-type="SEQUENCE" height="950px" preserveAspectRatio="none" style="width:1762px;height:950px;background:#FFFFFF;" version="1.1" viewBox="0 0 1762 950" width="1762px" zoomAndPan="magnify"><?plantuml 1.2026.4?><defs/><g><g class="title" data-source-line="1"><text fill="#000000" font-family="sans-serif" font-size="14" font-weight="700" lengthAdjust="spacing" textLength="345.3584" x="705.0007" y="28.5352">Refund Clawback &#8212; PaymentReversed Handling</text></g><rect fill="none" height="151.4844" style="stroke:#000000;stroke-width:1.5;" width="486.0854" x="832.3213" y="514.5664"/><g class="participant-lifeline" data-entity-uid="part1" data-qualified-name="PH" data-source-line="3" id="part1-lifeline"><g><title>Payment Hub</title><rect fill="#000000" fill-opacity="0.00000" height="748.5586" width="8" x="52.8984" y="118.9766"/><line style="stroke:#181818;stroke-width:0.5;stroke-dasharray:5,5;" x1="56" x2="56" y1="118.9766" y2="867.5352"/></g></g><g class="participant-lifeline" data-entity-uid="part2" data-qualified-name="K1" data-source-line="4" id="part2-lifeline"><g><title>loyalty.ingress.reversal.v1</title><rect fill="#000000" fill-opacity="0.00000" height="748.5586" width="8" x="284.4414" y="118.9766"/><line style="stroke:#181818;stroke-width:0.5;stroke-dasharray:5,5;" x1="288.3604" x2="288.3604" y1="118.9766" y2="867.5352"/></g></g><g class="participant-lifeline" data-entity-uid="part3" data-qualified-name="Bridge" data-source-line="5" id="part3-lifeline"><g><title>loyalty-integration-bridge</title><rect fill="#000000" fill-opacity="0.00000" height="748.5586" width="8" x="488.998" y="118.9766"/><line style="stroke:#181818;stroke-width:0.5;stroke-dasharray:5,5;" x1="492.5225" x2="492.5225" y1="118.9766" y2="867.5352"/></g></g><g class="participant-lifeline" data-entity-uid="part4" data-qualified-name="K2" data-source-line="6" id="part4-lifeline"><g><title>loyalty.payment.reversed.v1</title><rect fill="#000000" fill-opacity="0.00000" height="748.5586" width="8" x="723.1309" y="118.9766"/><line style="stroke:#181818;stroke-width:0.5;stroke-dasharray:5,5;" x1="726.9404" x2="726.9404" y1="118.9766" y2="867.5352"/></g></g><g class="participant-lifeline" data-entity-uid="part5" data-qualified-name="Ledger" data-source-line="7" id="part5-lifeline"><g><title>loyalty-core</title><rect fill="#000000" fill-opacity="0.00000" height="748.5586" width="8" x="948.1201" y="118.9766"/><line style="stroke:#181818;stroke-width:0.5;stroke-dasharray:5,5;" x1="951.3213" x2="951.3213" y1="118.9766" y2="867.5352"/></g></g><g class="participant-lifeline" data-entity-uid="part6" data-qualified-name="K3" data-source-line="8" id="part6-lifeline"><g><title>loyalty.ledger.points_clawed_back.v1</title><rect fill="#000000" fill-opacity="0.00000" height="748.5586" width="8" x="1309.4067" y="118.9766"/><line style="stroke:#181818;stroke-width:0.5;stroke-dasharray:5,5;" x1="1312.728" x2="1312.728" y1="118.9766" y2="867.5352"/></g></g><g class="participant-lifeline" data-entity-uid="part7" data-qualified-name="Notif" data-source-line="9" id="part7-lifeline"><g><title>notification-service</title><rect fill="#000000" fill-opacity="0.00000" height="748.5586" width="8" x="1528.2197" y="118.9766"/><line style="stroke:#181818;stroke-width:0.5;stroke-dasharray:5,5;" x1="1532.0854" x2="1532.0854" y1="118.9766" y2="867.5352"/></g></g><g class="participant-lifeline" data-entity-uid="part8" data-qualified-name="Member" data-source-line="10" id="part8-lifeline"><g><title>Member</title><rect fill="#000000" fill-opacity="0.00000" height="748.5586" width="8" x="1716.7256" y="118.9766"/><line style="stroke:#181818;stroke-width:0.5;stroke-dasharray:5,5;" x1="1720.0913" x2="1720.0913" y1="118.9766" y2="867.5352"/></g></g><g class="participant participant-head" data-entity-uid="part1" data-qualified-name="PH" data-source-line="3" id="part1-head"><rect fill="#E2E2F0" height="30.4883" rx="2.5" ry="2.5" style="stroke:#181818;stroke-width:0.5;" width="103.7969" x="5" y="87.4883"/><text fill="#000000" font-family="sans-serif" font-size="14" lengthAdjust="spacing" textLength="89.7969" x="12" y="108.0234">Payment Hub</text></g><g class="participant participant-tail" data-entity-uid="part1" data-qualified-name="PH" data-source-line="3" id="part1-tail"><rect fill="#E2E2F0" height="30.4883" rx="2.5" ry="2.5" style="stroke:#181818;stroke-width:0.5;" width="103.7969" x="5" y="866.5352"/><text fill="#000000" font-family="sans-serif" font-size="14" lengthAdjust="spacing" textLength="89.7969" x="12" y="887.0703">Payment Hub</text></g><g class="participant participant-head" data-entity-uid="part2" data-qualified-name="K1" data-source-line="4" id="part2-head"><path d="M195.3604,92.4883 L381.5225,92.4883 C386.5225,92.4883 386.5225,105.7324 386.5225,105.7324 C386.5225,105.7324 386.5225,118.9766 381.5225,118.9766 L195.3604,118.9766 C190.3604,118.9766 190.3604,105.7324 190.3604,105.7324 C190.3604,105.7324 190.3604,92.4883 195.3604,92.4883" fill="#E2E2F0" style="stroke:#181818;stroke-width:0.5;"/><path d="M381.5225,92.4883 C376.5225,92.4883 376.5225,105.7324 376.5225,105.7324 C376.5225,118.9766 381.5225,118.9766 381.5225,118.9766" fill="none" style="stroke:#181818;stroke-width:0.5;"/><text fill="#000000" font-family="sans-serif" font-size="14" lengthAdjust="spacing" textLength="176.1621" x="195.3604" y="111.0234">loyalty.ingress.reversal.v1</text></g><g class="participant participant-tail" data-entity-uid="part2" data-qualified-name="K1" data-source-line="4" id="part2-tail"><path d="M195.3604,866.5352 L381.5225,866.5352 C386.5225,866.5352 386.5225,879.7793 386.5225,879.7793 C386.5225,879.7793 386.5225,893.0234 381.5225,893.0234 L195.3604,893.0234 C190.3604,893.0234 190.3604,879.7793 190.3604,879.7793 C190.3604,879.7793 190.3604,866.5352 195.3604,866.5352" fill="#E2E2F0" style="stroke:#181818;stroke-width:0.5;"/><path d="M381.5225,866.5352 C376.5225,866.5352 376.5225,879.7793 376.5225,879.7793 C376.5225,893.0234 381.5225,893.0234 381.5225,893.0234" fill="none" style="stroke:#181818;stroke-width:0.5;"/><text fill="#000000" font-family="sans-serif" font-size="14" lengthAdjust="spacing" textLength="176.1621" x="195.3604" y="885.0703">loyalty.ingress.reversal.v1</text></g><g class="participant participant-head" data-entity-uid="part3" data-qualified-name="Bridge" data-source-line="5" id="part3-head"><rect fill="#E2E2F0" height="30.4883" rx="2.5" ry="2.5" style="stroke:#181818;stroke-width:0.5;" width="192.9512" x="396.5225" y="87.4883"/><text fill="#000000" font-family="sans-serif" font-size="14" lengthAdjust="spacing" textLength="178.9512" x="403.5225" y="108.0234">loyalty-integration-bridge</text></g><g class="participant participant-tail" data-entity-uid="part3" data-qualified-name="Bridge" data-source-line="5" id="part3-tail"><rect fill="#E2E2F0" height="30.4883" rx="2.5" ry="2.5" style="stroke:#181818;stroke-width:0.5;" width="192.9512" x="396.5225" y="866.5352"/><text fill="#000000" font-family="sans-serif" font-size="14" lengthAdjust="spacing" textLength="178.9512" x="403.5225" y="887.0703">loyalty-integration-bridge</text></g><g class="participant participant-head" data-entity-uid="part4" data-qualified-name="K2" data-source-line="6" id="part4-head"><path d="M626.9404,92.4883 L827.3213,92.4883 C832.3213,92.4883 832.3213,105.7324 832.3213,105.7324 C832.3213,105.7324 832.3213,118.9766 827.3213,118.9766 L626.9404,118.9766 C621.9404,118.9766 621.9404,105.7324 621.9404,105.7324 C621.9404,105.7324 621.9404,92.4883 626.9404,92.4883" fill="#E2E2F0" style="stroke:#181818;stroke-width:0.5;"/><path d="M827.3213,92.4883 C822.3213,92.4883 822.3213,105.7324 822.3213,105.7324 C822.3213,118.9766 827.3213,118.9766 827.3213,118.9766" fill="none" style="stroke:#181818;stroke-width:0.5;"/><text fill="#000000" font-family="sans-serif" font-size="14" lengthAdjust="spacing" textLength="190.3809" x="626.9404" y="111.0234">loyalty.payment.reversed.v1</text></g><g class="participant participant-tail" data-entity-uid="part4" data-qualified-name="K2" data-source-line="6" id="part4-tail"><path d="M626.9404,866.5352 L827.3213,866.5352 C832.3213,866.5352 832.3213,879.7793 832.3213,879.7793 C832.3213,879.7793 832.3213,893.0234 827.3213,893.0234 L626.9404,893.0234 C621.9404,893.0234 621.9404,879.7793 621.9404,879.7793 C621.9404,879.7793 621.9404,866.5352 626.9404,866.5352" fill="#E2E2F0" style="stroke:#181818;stroke-width:0.5;"/><path d="M827.3213,866.5352 C822.3213,866.5352 822.3213,879.7793 822.3213,879.7793 C822.3213,893.0234 827.3213,893.0234 827.3213,893.0234" fill="none" style="stroke:#181818;stroke-width:0.5;"/><text fill="#000000" font-family="sans-serif" font-size="14" lengthAdjust="spacing" textLength="190.3809" x="626.9404" y="885.0703">loyalty.payment.reversed.v1</text></g><g class="participant participant-head" data-entity-uid="part5" data-qualified-name="Ledger" data-source-line="7" id="part5-head"><rect fill="#E2E2F0" height="46.9766" rx="2.5" ry="2.5" style="stroke:#181818;stroke-width:0.5;" width="219.5977" x="842.3213" y="71"/><text fill="#000000" font-family="sans-serif" font-size="14" lengthAdjust="spacing" textLength="81.6895" x="911.2754" y="91.5352">loyalty-core</text><text fill="#000000" font-family="sans-serif" font-size="14" lengthAdjust="spacing" textLength="205.5977" x="849.3213" y="108.0234">(Ledger + Reversal Consumer)</text></g><g class="participant participant-tail" data-entity-uid="part5" data-qualified-name="Ledger" data-source-line="7" id="part5-tail"><rect fill="#E2E2F0" height="46.9766" rx="2.5" ry="2.5" style="stroke:#181818;stroke-width:0.5;" width="219.5977" x="842.3213" y="866.5352"/><text fill="#000000" font-family="sans-serif" font-size="14" lengthAdjust="spacing" textLength="81.6895" x="911.2754" y="887.0703">loyalty-core</text><text fill="#000000" font-family="sans-serif" font-size="14" lengthAdjust="spacing" textLength="205.5977" x="849.3213" y="903.5586">(Ledger + Reversal Consumer)</text></g><g class="participant participant-head" data-entity-uid="part6" data-qualified-name="K3" data-source-line="8" id="part6-head"><path d="M1182.728,92.4883 L1444.0854,92.4883 C1449.0854,92.4883 1449.0854,105.7324 1449.0854,105.7324 C1449.0854,105.7324 1449.0854,118.9766 1444.0854,118.9766 L1182.728,118.9766 C1177.728,118.9766 1177.728,105.7324 1177.728,105.7324 C1177.728,105.7324 1177.728,92.4883 1182.728,92.4883" fill="#E2E2F0" style="stroke:#181818;stroke-width:0.5;"/><path d="M1444.0854,92.4883 C1439.0854,92.4883 1439.0854,105.7324 1439.0854,105.7324 C1439.0854,118.9766 1444.0854,118.9766 1444.0854,118.9766" fill="none" style="stroke:#181818;stroke-width:0.5;"/><text fill="#000000" font-family="sans-serif" font-size="14" lengthAdjust="spacing" textLength="251.3574" x="1182.728" y="111.0234">loyalty.ledger.points_clawed_back.v1</text></g><g class="participant participant-tail" data-entity-uid="part6" data-qualified-name="K3" data-source-line="8" id="part6-tail"><path d="M1182.728,866.5352 L1444.0854,866.5352 C1449.0854,866.5352 1449.0854,879.7793 1449.0854,879.7793 C1449.0854,879.7793 1449.0854,893.0234 1444.0854,893.0234 L1182.728,893.0234 C1177.728,893.0234 1177.728,879.7793 1177.728,879.7793 C1177.728,879.7793 1177.728,866.5352 1182.728,866.5352" fill="#E2E2F0" style="stroke:#181818;stroke-width:0.5;"/><path d="M1444.0854,866.5352 C1439.0854,866.5352 1439.0854,879.7793 1439.0854,879.7793 C1439.0854,893.0234 1444.0854,893.0234 1444.0854,893.0234" fill="none" style="stroke:#181818;stroke-width:0.5;"/><text fill="#000000" font-family="sans-serif" font-size="14" lengthAdjust="spacing" textLength="251.3574" x="1182.728" y="885.0703">loyalty.ledger.points_clawed_back.v1</text></g><g class="participant participant-head" data-entity-uid="part7" data-qualified-name="Notif" data-source-line="9" id="part7-head"><rect fill="#E2E2F0" height="30.4883" rx="2.5" ry="2.5" style="stroke:#181818;stroke-width:0.5;" width="146.2686" x="1459.0854" y="87.4883"/><text fill="#000000" font-family="sans-serif" font-size="14" lengthAdjust="spacing" textLength="132.2686" x="1466.0854" y="108.0234">notification-service</text></g><g class="participant participant-tail" data-entity-uid="part7" data-qualified-name="Notif" data-source-line="9" id="part7-tail"><rect fill="#E2E2F0" height="30.4883" rx="2.5" ry="2.5" style="stroke:#181818;stroke-width:0.5;" width="146.2686" x="1459.0854" y="866.5352"/><text fill="#000000" font-family="sans-serif" font-size="14" lengthAdjust="spacing" textLength="132.2686" x="1466.0854" y="887.0703">notification-service</text></g><g class="participant participant-head" data-entity-uid="part8" data-qualified-name="Member" data-source-line="10" id="part8-head"><text fill="#000000" font-family="sans-serif" font-size="14" lengthAdjust="spacing" textLength="55.2686" x="1690.0913" y="116.0234">Member</text><ellipse cx="1720.7256" cy="50.9883" fill="#E2E2F0" rx="8" ry="8" style="stroke:#181818;stroke-width:0.5;"/><path d="M1720.7256,58.9883 L1720.7256,85.9883 M1707.7256,66.9883 L1733.7256,66.9883 M1720.7256,85.9883 L1707.7256,100.9883 M1720.7256,85.9883 L1733.7256,100.9883" fill="none" style="stroke:#181818;stroke-width:0.5;"/></g><g class="participant participant-tail" data-entity-uid="part8" data-qualified-name="Member" data-source-line="10" id="part8-tail"><text fill="#000000" font-family="sans-serif" font-size="14" lengthAdjust="spacing" textLength="55.2686" x="1690.0913" y="880.0703">Member</text><ellipse cx="1720.7256" cy="891.5234" fill="#E2E2F0" rx="8" ry="8" style="stroke:#181818;stroke-width:0.5;"/><path d="M1720.7256,899.5234 L1720.7256,926.5234 M1707.7256,907.5234 L1733.7256,907.5234 M1720.7256,926.5234 L1707.7256,941.5234 M1720.7256,926.5234 L1733.7256,941.5234" fill="none" style="stroke:#181818;stroke-width:0.5;"/></g><g class="message" data-entity-1="part1" data-entity-2="part2" data-source-line="12" id="msg1"><polygon fill="#181818" points="276.4414,207.5293,286.4414,211.5293,276.4414,215.5293,280.4414,211.5293" style="stroke:#181818;stroke-width:1;stroke-linejoin:miter;stroke-miterlimit:10;"/><line style="stroke:#181818;stroke-width:1;" x1="56.8984" x2="282.4414" y1="211.5293" y2="211.5293"/><text fill="#000000" font-family="sans-serif" font-size="13" lengthAdjust="spacing" textLength="181.2446" x="63.8984" y="145.5449">bank-side adapter publishes</text><text fill="#000000" font-family="sans-serif" font-size="13" lengthAdjust="spacing" textLength="163.5791" x="63.8984" y="160.8555">loyalty.ingress.reversal.v1</text><text fill="#000000" font-family="sans-serif" font-size="13" lengthAdjust="spacing" textLength="205.6641" x="63.8984" y="176.166">{originalEventId, reversalEventId,</text><text fill="#000000" font-family="sans-serif" font-size="13" lengthAdjust="spacing" textLength="207.543" x="63.8984" y="191.4766">customerId, amount, reversedAt}</text><text fill="#000000" font-family="sans-serif" font-size="13" lengthAdjust="spacing" textLength="155.2573" x="63.8984" y="206.7871">(adapter is bank-owned)</text></g><g class="message" data-entity-1="part2" data-entity-2="part3" data-source-line="14" id="msg2"><polygon fill="#181818" points="480.998,236.8398,490.998,240.8398,480.998,244.8398,484.998,240.8398" style="stroke:#181818;stroke-width:1;stroke-linejoin:miter;stroke-miterlimit:10;"/><line style="stroke:#181818;stroke-width:1;" x1="288.4414" x2="486.998" y1="240.8398" y2="240.8398"/><text fill="#000000" font-family="sans-serif" font-size="13" lengthAdjust="spacing" textLength="56.7861" x="295.4414" y="236.0977">consume</text></g><path d="M497,253.8398 L497,324.8398 L773,324.8398 L773,263.8398 L763,253.8398 L497,253.8398" fill="#FEFFDD" style="stroke:#181818;stroke-width:0.5;"/><path d="M763,253.8398 L763,263.8398 L773,263.8398 L763,253.8398" fill="#FEFFDD" style="stroke:#181818;stroke-width:0.5;"/><text fill="#000000" font-family="sans-serif" font-size="13" lengthAdjust="spacing" textLength="214.1763" x="503" y="271.4082">Validate + emit canonical reversal</text><text fill="#000000" font-family="sans-serif" font-size="13" lengthAdjust="spacing" textLength="255.8296" x="503" y="286.7188">(no stream-join, no member resolution).</text><text fill="#000000" font-family="sans-serif" font-size="13" lengthAdjust="spacing" textLength="225.0435" x="503" y="302.0293">Customer-scoped; core matches by</text><text fill="#000000" font-family="sans-serif" font-size="13" lengthAdjust="spacing" textLength="69.856" x="503" y="317.3398">source_ref.</text><g class="message" data-entity-1="part3" data-entity-2="part4" data-source-line="21" id="msg3"><polygon fill="#181818" points="715.1309,378.0137,725.1309,382.0137,715.1309,386.0137,719.1309,382.0137" style="stroke:#181818;stroke-width:1;stroke-linejoin:miter;stroke-miterlimit:10;"/><line style="stroke:#181818;stroke-width:1;" x1="492.998" x2="721.1309" y1="382.0137" y2="382.0137"/><text fill="#000000" font-family="sans-serif" font-size="13" lengthAdjust="spacing" textLength="210.1328" x="499.998" y="346.6504">ReversalEvent (customer-scoped)</text><text fill="#000000" font-family="sans-serif" font-size="13" lengthAdjust="spacing" textLength="181.2002" x="499.998" y="361.9609">{customerId, originalEventId,</text><text fill="#000000" font-family="sans-serif" font-size="13" lengthAdjust="spacing" textLength="120.085" x="499.998" y="377.2715">reversalEventId, ...}</text></g><g class="message" data-entity-1="part4" data-entity-2="part5" data-source-line="23" id="msg4"><polygon fill="#181818" points="940.1201,407.3242,950.1201,411.3242,940.1201,415.3242,944.1201,411.3242" style="stroke:#181818;stroke-width:1;stroke-linejoin:miter;stroke-miterlimit:10;"/><line style="stroke:#181818;stroke-width:1;" x1="727.1309" x2="946.1201" y1="411.3242" y2="411.3242"/><text fill="#000000" font-family="sans-serif" font-size="13" lengthAdjust="spacing" textLength="190.2266" x="734.1309" y="406.582">consume (Reversal Consumer)</text></g><g class="message" data-entity-1="part5" data-entity-2="part5" data-source-line="24" id="msg5"><line style="stroke:#181818;stroke-width:1;" x1="952.1201" x2="994.1201" y1="486.5664" y2="486.5664"/><line style="stroke:#181818;stroke-width:1;" x1="994.1201" x2="994.1201" y1="486.5664" y2="499.5664"/><line style="stroke:#181818;stroke-width:1;" x1="953.1201" x2="994.1201" y1="499.5664" y2="499.5664"/><polygon fill="#181818" points="963.1201,495.5664,953.1201,499.5664,963.1201,503.5664,959.1201,499.5664" style="stroke:#181818;stroke-width:1;stroke-linejoin:miter;stroke-miterlimit:10;"/><text fill="#000000" font-family="sans-serif" font-size="13" lengthAdjust="spacing" textLength="159.542" x="959.1201" y="435.8926">queryEntriesBySourceRef(</text><text fill="#000000" font-family="sans-serif" font-size="13" lengthAdjust="spacing" textLength="92.4663" x="967.3467" y="451.2031">sourceRef LIKE</text><text fill="#000000" font-family="sans-serif" font-size="13" lengthAdjust="spacing" textLength="169.7173" x="967.3467" y="466.5137">"&lt;originalEventId&gt;:rule:%")</text><text fill="#000000" font-family="sans-serif" font-size="13" lengthAdjust="spacing" textLength="197.7422" x="959.1201" y="481.8242">(its own ledger &#8212; all Programs)</text></g><path d="M832.3213,514.5664 L906.7681,514.5664 L906.7681,521.877 L896.7681,531.877 L832.3213,531.877 L832.3213,514.5664" fill="#EEEEEE" style="stroke:#000000;stroke-width:1.5;"/><rect fill="none" height="151.4844" style="stroke:#000000;stroke-width:1.5;" width="486.0854" x="832.3213" y="514.5664"/><text fill="#000000" font-family="sans-serif" font-size="13" font-weight="700" lengthAdjust="spacing" textLength="29.4468" x="847.3213" y="528.1348">loop</text><text fill="#000000" font-family="sans-serif" font-size="11" font-weight="700" lengthAdjust="spacing" textLength="262.9365" x="921.7681" y="527.2012">[For each original Earned entry (any Program)]</text><g class="message" data-entity-1="part5" data-entity-2="part5" data-source-line="27" id="msg6"><line style="stroke:#181818;stroke-width:1;" x1="952.1201" x2="994.1201" y1="645.0508" y2="645.0508"/><line style="stroke:#181818;stroke-width:1;" x1="994.1201" x2="994.1201" y1="645.0508" y2="658.0508"/><line style="stroke:#181818;stroke-width:1;" x1="953.1201" x2="994.1201" y1="658.0508" y2="658.0508"/><polygon fill="#181818" points="963.1201,654.0508,953.1201,658.0508,963.1201,662.0508,959.1201,658.0508" style="stroke:#181818;stroke-width:1;stroke-linejoin:miter;stroke-miterlimit:10;"/><text fill="#000000" font-family="sans-serif" font-size="13" lengthAdjust="spacing" textLength="87.5786" x="959.1201" y="548.4453">appendEntry({</text><text fill="#000000" font-family="sans-serif" font-size="13" lengthAdjust="spacing" textLength="142.6826" x="967.3467" y="563.7559">memberId, programId,</text><text fill="#000000" font-family="sans-serif" font-size="13" lengthAdjust="spacing" textLength="192.937" x="967.3467" y="579.0664">qualifying_delta=-original_qd,</text><text fill="#000000" font-family="sans-serif" font-size="13" lengthAdjust="spacing" textLength="201.354" x="967.3467" y="594.377">redeemable_delta=-original_rd,</text><text fill="#000000" font-family="sans-serif" font-size="13" lengthAdjust="spacing" textLength="133.9736" x="967.3467" y="609.6875">entryType=Reversed,</text><text fill="#000000" font-family="sans-serif" font-size="13" lengthAdjust="spacing" textLength="339.0601" x="967.3467" y="624.998">sourceRef=reversalEventId+":entry:"+originalEntryId})</text><text fill="#000000" font-family="sans-serif" font-size="13" lengthAdjust="spacing" textLength="226.021" x="959.1201" y="640.3086">balance may go NEGATIVE (allowed)</text></g><g class="message" data-entity-1="part5" data-entity-2="part6" data-source-line="30" id="msg7"><polygon fill="#181818" points="1301.4067,690.3613,1311.4067,694.3613,1301.4067,698.3613,1305.4067,694.3613" style="stroke:#181818;stroke-width:1;stroke-linejoin:miter;stroke-miterlimit:10;"/><line style="stroke:#181818;stroke-width:1;" x1="952.1201" x2="1307.4067" y1="694.3613" y2="694.3613"/><text fill="#000000" font-family="sans-serif" font-size="13" lengthAdjust="spacing" textLength="163.5283" x="959.1201" y="689.6191">publish PointsClawedBack</text></g><g class="message" data-entity-1="part6" data-entity-2="part7" data-source-line="31" id="msg8"><polygon fill="#181818" points="1520.2197,719.6719,1530.2197,723.6719,1520.2197,727.6719,1524.2197,723.6719" style="stroke:#181818;stroke-width:1;stroke-linejoin:miter;stroke-miterlimit:10;"/><line style="stroke:#181818;stroke-width:1;" x1="1313.4067" x2="1526.2197" y1="723.6719" y2="723.6719"/><text fill="#000000" font-family="sans-serif" font-size="13" lengthAdjust="spacing" textLength="56.7861" x="1320.4067" y="718.9297">consume</text></g><g class="message" data-entity-1="part7" data-entity-2="part8" data-source-line="32" id="msg9"><polygon fill="#181818" points="1708.7256,764.293,1718.7256,768.293,1708.7256,772.293,1712.7256,768.293" style="stroke:#181818;stroke-width:1;stroke-linejoin:miter;stroke-miterlimit:10;"/><line style="stroke:#181818;stroke-width:1;" x1="1532.2197" x2="1714.7256" y1="768.293" y2="768.293"/><text fill="#000000" font-family="sans-serif" font-size="13" lengthAdjust="spacing" textLength="154.9272" x="1539.2197" y="748.2402">Push: "Some points were</text><text fill="#000000" font-family="sans-serif" font-size="13" lengthAdjust="spacing" textLength="164.5059" x="1539.2197" y="763.5508">reversed due to a refund."</text></g><path d="M779,781.293 L779,852.293 L1124,852.293 L1124,791.293 L1114,781.293 L779,781.293" fill="#FEFFDD" style="stroke:#181818;stroke-width:0.5;"/><path d="M1114,781.293 L1114,791.293 L1124,791.293 L1114,781.293" fill="#FEFFDD" style="stroke:#181818;stroke-width:0.5;"/><text fill="#000000" font-family="sans-serif" font-size="13" lengthAdjust="spacing" textLength="222.5552" x="785" y="798.8613">Core-driven: core reverses its OWN</text><text fill="#000000" font-family="sans-serif" font-size="13" lengthAdjust="spacing" textLength="324.2192" x="785" y="814.1719">entries &#8212; single-writer (P5), per-Program coverage</text><text fill="#000000" font-family="sans-serif" font-size="13" lengthAdjust="spacing" textLength="309.2896" x="785" y="829.4824">automatic. Negative balance intentional; Member</text><text fill="#000000" font-family="sans-serif" font-size="13" lengthAdjust="spacing" textLength="210.209" x="785" y="844.793">cannot redeem until balance &#8805; 0.</text><?plantuml-src VLJRRjj647tdLmm85A1WasWSz4Mf0yI6MXjENS49qXS1mf8xahTPxZAxImb4OA2lVUylvCVo9JdBYo0hGT-udDkPCtCcgA2P7dZJ6adNMknBKNsah__yHqlHrMp20-_OUPPq8upKocoJf14kg4ermWHAHpUwQSkKXAVbJVAfvPOfrROJEdG5OXnxNxW-az35xaNlUVVYUQRHFrScyDQ9eAp9IwVabdltg_xpD7apb1-Jipmal_XnyiewNfdiBIENepDw647HjJM-hTdD-l31VbfCzt-BnWAYNrTWY-Kw4dQe-l9vLME3sgXgwCMpswbgQEO-6X9H1Ule3wvBr4gMDvI_1YiqfrAOZxbNaab8qGGWRTfIA__8VcN-XzUL-MoTsYeZz687McxbEKtcwSVALAqF5gr6gwXjQyBanV9DU08zKrNb1oXsRrZEaWJW076O161M0sS9scH2tST0TZCDYkY3q4eAcCw8QnMe4iOQiA4FcE2K6Ki-E1Pr_ZTuFIUywvuHU7chsyZTh83dzGWxzvLjMBwYE4kgHQX02vKTNBnjNSLhnviYOInq19QCS2Et5m3zSCm7PTNph3DGUCpFAPqhSyed5KNn16ekOeLnhmxKKFRzWYMZqx4x5irr2nESOd_LlUlRW2YpbPcQmelUtjujuf_qrnDOh-UkrJp_AGNyJ0LF61WDszfhMMXDIsUXgjfZZDhQXdx3wh6e7Wyjqa8uZ9cGqNMK2TDDCJDG-mFGecb0SaJTPPyZhc5kaPDc2Em98tI7JTXqMDYrP1t4PJxLN7yQF1nBvbgKch_pS8D7Z-fzr_3bT97Edv5pUJANitJUXypJimDPyNqhdq1IARGmLToUZhQMxXU_ltb_-s61hhMs-xZhw2mvcjJTIpGyYf2M_G6uxlL_1VadiCAd5_MHB8Ot38F2OLcs_d5EwJji5mrNXFOS3z8aFvAuDy6I02Fn91TfCgZBmZvT9KW1cvzBfz3gV931cC1JdFwVVzqd0sDOftu1FBZNdE-TYhBEbh_CC2Ci_JXWv42uw5KhMYm_BbPLq3rlyR5ZckYAfzb4GGhzQhfR57KDZECC2UT4wKF4rt-_qCz7Olm6?></g></svg>