<svg xmlns="http://www.w3.org/2000/svg" xmlns:xlink="http://www.w3.org/1999/xlink" contentStyleType="text/css" data-diagram-type="DESCRIPTION" height="559px" preserveAspectRatio="none" style="width:810px;height:559px;background:#FFFFFF;" version="1.1" viewBox="0 0 810 559" width="810px" zoomAndPan="magnify"><?plantuml 1.2026.4?><defs/><g><g class="title" data-source-line="1"><text fill="#000000" font-family="sans-serif" font-size="14" font-weight="700" lengthAdjust="spacing" textLength="215.0996" x="294.2928" y="23.5352">How the concepts fit together</text></g><!--entity cust--><g class="entity" data-qualified-name="cust" data-source-line="22" id="ent0001"><rect fill="#0B4884" height="52.9766" rx="6" ry="6" style="stroke:#073661;stroke-width:0.5;" width="168.3398" x="52.44" y="44.4883"/><text fill="#FFFFFF" font-family="sans-serif" font-size="14" lengthAdjust="spacing" textLength="65.9463" x="103.6368" y="68.0234">Customer</text><text fill="#FFFFFF" font-family="sans-serif" font-size="14" lengthAdjust="spacing" textLength="148.3398" x="62.44" y="84.5117">(bank account holder)</text></g><!--entity prog--><g class="entity" data-qualified-name="prog" data-source-line="23" id="ent0002"><rect fill="#0B4884" height="52.9766" rx="6" ry="6" style="stroke:#073661;stroke-width:0.5;" width="246.6797" x="353.27" y="44.4883"/><text fill="#FFFFFF" font-family="sans-serif" font-size="14" lengthAdjust="spacing" textLength="57.3262" x="447.9468" y="68.0234">Program</text><text fill="#FFFFFF" font-family="sans-serif" font-size="14" lengthAdjust="spacing" textLength="226.6797" x="363.27" y="84.5117">(scheme: rules + tiers + rewards)</text></g><!--entity mem--><g class="entity" data-qualified-name="mem" data-source-line="24" id="ent0003"><rect fill="#0B4884" height="52.9766" rx="6" ry="6" style="stroke:#073661;stroke-width:0.5;" width="259.2168" x="7" y="152.7083"/><text fill="#FFFFFF" font-family="sans-serif" font-size="14" lengthAdjust="spacing" textLength="55.2686" x="108.9741" y="176.2434">Member</text><text fill="#FFFFFF" font-family="sans-serif" font-size="14" lengthAdjust="spacing" textLength="239.2168" x="17" y="192.7317">(= Customer opted into a Program)</text></g><!--entity ledger--><g class="entity" data-qualified-name="ledger" data-source-line="25" id="ent0004"><rect fill="#0B4884" height="52.9766" rx="6" ry="6" style="stroke:#073661;stroke-width:0.5;" width="297.1973" x="166.01" y="377.3983"/><text fill="#FFFFFF" font-family="sans-serif" font-size="14" lengthAdjust="spacing" textLength="85.0732" x="272.072" y="400.9334">Point Ledger</text><text fill="#FFFFFF" font-family="sans-serif" font-size="14" lengthAdjust="spacing" textLength="277.1973" x="176.01" y="417.4217">(append-only; Redeemable + Qualifying)</text></g><!--entity tier--><g class="entity" data-qualified-name="tier" data-source-line="26" id="ent0005"><rect fill="#0B4884" height="52.9766" rx="6" ry="6" style="stroke:#073661;stroke-width:0.5;" width="176.3857" x="226.42" y="492.3683"/><text fill="#FFFFFF" font-family="sans-serif" font-size="14" lengthAdjust="spacing" textLength="26.4277" x="301.399" y="515.9034">Tier</text><text fill="#FFFFFF" font-family="sans-serif" font-size="14" lengthAdjust="spacing" textLength="156.3857" x="236.42" y="532.3917">(Bronze / Silver / Gold)</text></g><!--entity rules--><g class="entity" data-qualified-name="rules" data-source-line="28" id="ent0006"><rect fill="#00897B" height="69.4648" rx="6" ry="6" style="stroke:#00695C;stroke-width:0.5;" width="112.1553" x="684.53" y="144.4683"/><text fill="#FFFFFF" font-family="sans-serif" font-size="14" font-style="italic" lengthAdjust="spacing" textLength="35.7178" x="722.7488" y="168.0034">&#171;cfg&#187;</text><text fill="#FFFFFF" font-family="sans-serif" font-size="14" lengthAdjust="spacing" textLength="92.1553" x="694.53" y="184.4917">Earning Rules</text><text fill="#FFFFFF" font-family="sans-serif" font-size="14" lengthAdjust="spacing" textLength="34.5967" x="723.3093" y="200.98">(DSL)</text></g><!--entity rewards--><g class="entity" data-qualified-name="rewards" data-source-line="29" id="ent0007"><rect fill="#00897B" height="52.9766" rx="6" ry="6" style="stroke:#00695C;stroke-width:0.5;" width="139.875" x="290.67" y="152.7083"/><text fill="#FFFFFF" font-family="sans-serif" font-size="14" font-style="italic" lengthAdjust="spacing" textLength="35.7178" x="342.7486" y="176.2434">&#171;cfg&#187;</text><text fill="#FFFFFF" font-family="sans-serif" font-size="14" lengthAdjust="spacing" textLength="119.875" x="300.67" y="192.7317">Reward catalogue</text></g><!--entity camp--><g class="entity" data-qualified-name="camp" data-source-line="30" id="ent0008"><rect fill="#00897B" height="52.9766" rx="6" ry="6" style="stroke:#00695C;stroke-width:0.5;" width="164.6826" x="454.27" y="152.7083"/><text fill="#FFFFFF" font-family="sans-serif" font-size="14" font-style="italic" lengthAdjust="spacing" textLength="35.7178" x="518.7524" y="176.2434">&#171;cfg&#187;</text><text fill="#FFFFFF" font-family="sans-serif" font-size="14" lengthAdjust="spacing" textLength="144.6826" x="464.27" y="192.7317">Campaign + Drawing</text></g><!--entity earn--><g class="entity" data-qualified-name="earn" data-source-line="32" id="ent0009"><rect fill="#5D7A99" height="69.4648" rx="6" ry="6" style="stroke:#3D5470;stroke-width:0.5;" width="238.6543" x="470.28" y="260.9283"/><text fill="#FFFFFF" font-family="sans-serif" font-size="14" font-style="italic" lengthAdjust="spacing" textLength="43.251" x="567.9817" y="284.4634">&#171;flow&#187;</text><text fill="#FFFFFF" font-family="sans-serif" font-size="14" lengthAdjust="spacing" textLength="60.9355" x="559.1394" y="300.9517">EARNING</text><text fill="#FFFFFF" font-family="sans-serif" font-size="14" lengthAdjust="spacing" textLength="218.6543" x="480.28" y="317.44">event -&gt; Rule Engine -&gt; Earned</text></g><!--entity redeem--><g class="entity" data-qualified-name="redeem" data-source-line="33" id="ent0010"><rect fill="#5D7A99" height="69.4648" rx="6" ry="6" style="stroke:#3D5470;stroke-width:0.5;" width="232.8027" x="198.21" y="260.9283"/><text fill="#FFFFFF" font-family="sans-serif" font-size="14" font-style="italic" lengthAdjust="spacing" textLength="43.251" x="292.9859" y="284.4634">&#171;flow&#187;</text><text fill="#FFFFFF" font-family="sans-serif" font-size="14" lengthAdjust="spacing" textLength="88.416" x="270.4034" y="300.9517">REDEMPTION</text><text fill="#FFFFFF" font-family="sans-serif" font-size="14" lengthAdjust="spacing" textLength="212.8027" x="208.21" y="317.44">reserve -&gt; commit (Redeemed)</text></g><!--link cust to mem--><g class="link" data-entity-1="ent0001" data-entity-2="ent0003" data-link-type="dependency" data-source-line="35" id="lnk11"><path d="M136.61,97.9583 C136.61,114.5483 136.61,130.9483 136.61,147.4783" fill="none" id="cust-to-mem" style="stroke:#181818;stroke-width:1;"/><polygon fill="#181818" points="136.61,152.4783,140.61,143.4783,136.61,147.4783,132.61,143.4783,136.61,152.4783" style="stroke:#181818;stroke-width:1;stroke-linejoin:miter;stroke-miterlimit:10;"/><text fill="#000000" font-family="sans-serif" font-size="13" lengthAdjust="spacing" textLength="130.749" x="137.61" y="126.0366">opt-in (accept T&amp;Cs)</text></g><!--link prog to mem--><g class="link" data-entity-1="ent0002" data-entity-2="ent0003" data-link-type="dependency" data-source-line="36" id="lnk12"><path d="M353.19,96.2683 C335.97,100.9383 318.69,106.3183 302.61,112.4683 C287.93,118.0783 285.93,122.9983 271.61,129.4683 C253.55,137.6183 238.3871,143.6944 219.5871,150.5544" fill="none" id="prog-to-mem" style="stroke:#181818;stroke-width:1;"/><polygon fill="#181818" points="214.89,152.2683,224.7159,152.9409,219.5871,150.5544,221.9736,145.4256,214.89,152.2683" style="stroke:#181818;stroke-width:1;stroke-linejoin:miter;stroke-miterlimit:10;"/><text fill="#000000" font-family="sans-serif" font-size="13" lengthAdjust="spacing" textLength="87.3691" x="303.61" y="126.0366">defines roster</text></g><!--link mem to ledger--><g class="link" data-entity-1="ent0003" data-entity-2="ent0004" data-link-type="dependency" data-source-line="37" id="lnk13"><path d="M132.12,206.0283 C128,238.3183 126.03,293.7883 152.61,330.3983 C167.82,351.3383 185.9372,364.2713 209.5272,374.9813" fill="none" id="mem-to-ledger" style="stroke:#181818;stroke-width:1;"/><polygon fill="#181818" points="214.08,377.0483,207.5386,369.6855,209.5272,374.9813,204.2315,376.9699,214.08,377.0483" style="stroke:#181818;stroke-width:1;stroke-linejoin:miter;stroke-miterlimit:10;"/><text fill="#000000" font-family="sans-serif" font-size="13" lengthAdjust="spacing" textLength="32.6968" x="153.61" y="300.7266">owns</text></g><!--link ledger to tier--><g class="link" data-entity-1="ent0004" data-entity-2="ent0005" data-link-type="dependency" data-source-line="38" id="lnk14"><path d="M314.61,430.7983 C314.61,449.1783 314.61,468.7183 314.61,487.0583" fill="none" id="ledger-to-tier" style="stroke:#181818;stroke-width:1;"/><polygon fill="#181818" points="314.61,492.0583,318.61,483.0583,314.61,487.0583,310.61,483.0583,314.61,492.0583" style="stroke:#181818;stroke-width:1;stroke-linejoin:miter;stroke-miterlimit:10;"/><text fill="#000000" font-family="sans-serif" font-size="13" lengthAdjust="spacing" textLength="116.7461" x="315.61" y="458.9366">Qualifying balance</text><text fill="#000000" font-family="sans-serif" font-size="13" lengthAdjust="spacing" textLength="111.3125" x="318.3268" y="474.2472">crosses threshold</text></g><!--link prog to rules--><g class="link" data-entity-1="ent0002" data-entity-2="ent0006" data-link-type="dependency" data-source-line="40" id="lnk15"><path d="M569.25,97.9683 C582.91,102.4383 596.72,107.3183 609.61,112.4683 C634.65,122.4783 656.9803,133.1685 679.7403,144.9585" fill="none" id="prog-to-rules" style="stroke:#181818;stroke-width:1;stroke-dasharray:7,7;"/><polygon fill="#181818" points="684.18,147.2583,678.0284,139.5669,679.7403,144.9585,674.3487,146.6704,684.18,147.2583" style="stroke:#181818;stroke-width:1;stroke-linejoin:miter;stroke-miterlimit:10;"/><text fill="#000000" font-family="sans-serif" font-size="13" lengthAdjust="spacing" textLength="86.9438" x="647.46" y="126.0366">you configure</text></g><!--link prog to rewards--><g class="link" data-entity-1="ent0002" data-entity-2="ent0007" data-link-type="dependency" data-source-line="41" id="lnk16"><path d="M432.24,97.8983 C425.74,102.4283 419.32,107.3383 413.61,112.4683 C400.41,124.3183 390.834,135.6364 381.254,148.5164" fill="none" id="prog-to-rewards" style="stroke:#181818;stroke-width:1;stroke-dasharray:7,7;"/><polygon fill="#181818" points="378.27,152.5283,386.8508,147.694,381.254,148.5164,380.4317,142.9196,378.27,152.5283" style="stroke:#181818;stroke-width:1;stroke-linejoin:miter;stroke-miterlimit:10;"/><text fill="#000000" font-family="sans-serif" font-size="13" lengthAdjust="spacing" textLength="86.9438" x="414.61" y="126.0366">you configure</text></g><!--link prog to camp--><g class="link" data-entity-1="ent0002" data-entity-2="ent0008" data-link-type="dependency" data-source-line="42" id="lnk17"><path d="M497.89,97.9083 C501.34,102.6183 504.72,107.5883 507.61,112.4683 C515.04,125.0283 519.8419,135.2026 524.9219,147.5826" fill="none" id="prog-to-camp" style="stroke:#181818;stroke-width:1;stroke-dasharray:7,7;"/><polygon fill="#181818" points="526.82,152.2083,527.104,142.3635,524.9219,147.5826,519.7028,145.4005,526.82,152.2083" style="stroke:#181818;stroke-width:1;stroke-linejoin:miter;stroke-miterlimit:10;"/><text fill="#000000" font-family="sans-serif" font-size="13" lengthAdjust="spacing" textLength="86.9438" x="516.99" y="126.0366">you configure</text></g><!--link rules to earn--><g class="link" data-entity-1="ent0006" data-entity-2="ent0009" data-link-type="dependency" data-source-line="44" id="lnk18"><path d="M746.93,214.1683 C747.18,225.2383 745.31,236.9683 738.61,245.9283 C730.78,256.3883 724.9841,262.1452 713.6841,268.6452" fill="none" id="rules-to-earn" style="stroke:#181818;stroke-width:1;"/><polygon fill="#181818" points="709.35,271.1383,719.1459,270.118,713.6841,268.6452,715.1569,263.1835,709.35,271.1383" style="stroke:#181818;stroke-width:1;stroke-linejoin:miter;stroke-miterlimit:10;"/><text fill="#000000" font-family="sans-serif" font-size="13" lengthAdjust="spacing" textLength="31.2305" x="746.54" y="242.4966">drive</text></g><!--link earn to ledger--><g class="link" data-entity-1="ent0009" data-entity-2="ent0004" data-link-type="dependency" data-source-line="45" id="lnk19"><path d="M508.94,330.7483 C483.65,341.1783 455.57,352.4983 429.61,362.3983 C416.85,367.2583 407.9278,370.5541 394.6778,375.2941" fill="none" id="earn-to-ledger" style="stroke:#181818;stroke-width:1;"/><polygon fill="#181818" points="389.97,376.9783,399.7914,377.7131,394.6778,375.2941,397.0968,370.1805,389.97,376.9783" style="stroke:#181818;stroke-width:1;stroke-linejoin:miter;stroke-miterlimit:10;"/><text fill="#000000" font-family="sans-serif" font-size="13" lengthAdjust="spacing" textLength="255.8296" x="470.38" y="358.9666">writes Earned (Redeemable &amp; Qualifying)</text></g><!--link mem to redeem--><g class="link" data-entity-1="ent0003" data-entity-2="ent0010" data-link-type="dependency" data-source-line="46" id="lnk20"><path d="M146.71,205.9583 C153.18,219.4983 162.78,235.4183 175.61,245.9283 C182.43,251.5183 185.5755,254.0488 193.4655,258.4588" fill="none" id="mem-to-redeem" style="stroke:#181818;stroke-width:1;"/><polygon fill="#181818" points="197.83,260.8983,191.9255,253.0156,193.4655,258.4588,188.0223,259.9988,197.83,260.8983" style="stroke:#181818;stroke-width:1;stroke-linejoin:miter;stroke-miterlimit:10;"/><text fill="#000000" font-family="sans-serif" font-size="13" lengthAdjust="spacing" textLength="126.6611" x="176.61" y="242.4966">spends on a Reward</text></g><!--link rewards to redeem--><g class="link" data-entity-1="ent0007" data-entity-2="ent0010" data-link-type="dependency" data-source-line="47" id="lnk21"><path d="M328.78,206.0483 C322.6,212.7883 317,220.5383 313.61,228.9283 C309.64,238.7683 308.4893,245.1419 308.8893,255.6219" fill="none" id="rewards-to-redeem" style="stroke:#181818;stroke-width:1;"/><polygon fill="#181818" points="309.08,260.6183,312.7338,251.4723,308.8893,255.6219,304.7396,251.7774,309.08,260.6183" style="stroke:#181818;stroke-width:1;stroke-linejoin:miter;stroke-miterlimit:10;"/><text fill="#000000" font-family="sans-serif" font-size="13" lengthAdjust="spacing" textLength="98.8774" x="314.61" y="242.4966">priced in points</text></g><!--link redeem to ledger--><g class="link" data-entity-1="ent0010" data-entity-2="ent0004" data-link-type="dependency" data-source-line="48" id="lnk22"><path d="M314.61,330.8583 C314.61,345.8983 314.61,358.2683 314.61,372.1783" fill="none" id="redeem-to-ledger" style="stroke:#181818;stroke-width:1;"/><polygon fill="#181818" points="314.61,377.1783,318.61,368.1783,314.61,372.1783,310.61,368.1783,314.61,377.1783" style="stroke:#181818;stroke-width:1;stroke-linejoin:miter;stroke-miterlimit:10;"/><text fill="#000000" font-family="sans-serif" font-size="13" lengthAdjust="spacing" textLength="107.6309" x="315.61" y="358.9666">writes Redeemed</text></g><!--link camp to earn--><g class="link" data-entity-1="ent0008" data-entity-2="ent0009" data-link-type="dependency" data-source-line="49" id="lnk23"><path d="M550.32,206.0783 C554.09,213.4083 558.1,221.4383 561.61,228.9283 C566.4,239.1483 569.3661,245.8059 573.7261,256.0759" fill="none" id="camp-to-earn" style="stroke:#181818;stroke-width:1;"/><polygon fill="#181818" points="575.68,260.6783,575.8449,250.8308,573.7261,256.0759,568.481,253.957,575.68,260.6783" style="stroke:#181818;stroke-width:1;stroke-linejoin:miter;stroke-miterlimit:10;"/><text fill="#000000" font-family="sans-serif" font-size="13" lengthAdjust="spacing" textLength="162.2017" x="569.9" y="242.4966">bonus points (linked rule)</text></g><!--link camp to redeem--><g class="link" data-entity-1="ent0008" data-entity-2="ent0010" data-link-type="dependency" data-source-line="50" id="lnk24"><path d="M480.24,206.1183 C466.37,213.0683 451.74,220.8983 438.61,228.9283 C427.76,235.5683 426.49,239.3583 415.61,245.9283 C407.27,250.9583 402.777,253.5832 393.807,258.2432" fill="none" id="camp-to-redeem" style="stroke:#181818;stroke-width:1;"/><polygon fill="#181818" points="389.37,260.5483,399.2006,259.9488,393.807,258.2432,395.5125,252.8496,389.37,260.5483" style="stroke:#181818;stroke-width:1;stroke-linejoin:miter;stroke-miterlimit:10;"/><text fill="#000000" font-family="sans-serif" font-size="13" lengthAdjust="spacing" textLength="115.8447" x="439.61" y="242.4966">sweepstakes entry</text></g><?plantuml-src VLHTRzem57tthxZgf0fKqTAMbj9rIFrQLwdjEieZByQv2HQE7TaEZ4txxxjsO2Jz60z1kJxd-7wS6o-zGlXcbk1d2C9eWOLta4eFtcH8GSkOcqjTSCjpS3EUcANK6QHSEQoT99ZoKlan_lINIcOwH-r1q8C4jYZBzTnX0SVTMb2R14Fmg5T7el1SPvJSRmPmnSKyiwRKoRLHniAdxhHtTjQZawz6-tKiZR-0DZP1kq7sZqzF3ocwfbkD5WwFs9_tBhku46as77vmP_Tiq9--qU-U3ax4HtAfCikFz4wIFXyCNkiT9oUzVfVqsBO5EzUbyoP7Ez6jARKGk10av65c537REy0T2CBKES_MP9GDKPoOOOxdO4k53lR0IxJXt-AIsyHLz8BWTVeZvjDuuHVOt0wcy9Y0rDu0XxL-nSunRznj20GFc6HHWXS5wgHZj5fzXX4cY3cV4cuFVfHSoNH5ZgfqLAJKfSOoIbnPetyX7C2BL0jAvG3kgFQA5EffjEkMMnrCEWe54_dcvO6Gc-4I8tQYpXZ5Le3WdYkJbTX4Ltrg38Jd1IURKmatbeUDQ3047JSpkXmztJ_TJJGkmc9qXZ4tkDMPr1XUGygO196rPKW5ATP8ylRczl5vVF_zQQ8jhOnTHAemUKxxsgeQYqcxgM9ZcB7W3-WGdcO5vs6M7QcXHLQYbOVnxhLhis226eQMcj8Z2UF27eTWEAo653IMsh7rMpW8Ww3mTgWmvOhJDsMY1Maual8poZpObbMNxTFtHEyFrzuyXvKfmsSebLbfyHMa6iF_GQ7pRn2iKWyfXfw6ognS88ilZOgMLdf2LjFOj3HwTRVkrN-jg9fBH1SSxi1esepAJ6oJRmDNM2dY3a4HTYIOAfwybyLce2mMLSj-QdJfrWBGKbBFIJBKsDv2jvaj4Gld-PmKoNjsnVu2?></g></svg>