<svg xmlns="http://www.w3.org/2000/svg" xmlns:xlink="http://www.w3.org/1999/xlink" contentStyleType="text/css" data-diagram-type="SALT" height="261px" preserveAspectRatio="none" style="width:1246px;height:261px;background:#FFFFFF;" version="1.1" viewBox="0 0 1246 261" width="1246px" zoomAndPan="magnify"><?plantuml 1.2026.4?><defs/><g><rect fill="#DDDDDD" height="15.1328" style="stroke:#000000;stroke-width:1;" width="743" x="6" y="6"/><text fill="#000000" font-family="sans-serif" font-size="12" lengthAdjust="spacing" textLength="157.0605" x="6" y="17.6016">Program: ^RDB_REWARDS^</text><text fill="#000000" font-family="sans-serif" font-size="12" lengthAdjust="spacing" textLength="185.5723" x="173.0605" y="17.6016">Loyalty Admin &gt; Members &gt; 42</text><text fill="#000000" font-family="sans-serif" font-size="12" lengthAdjust="spacing" textLength="66.3457" x="6" y="49.8672">Member 42</text><text fill="#000000" font-family="sans-serif" font-size="12" lengthAdjust="spacing" textLength="216.9023" x="753" y="49.8672">customer 1001 &#183; ACTIVE &#183; Tier: GOLD</text><line style="stroke:#000000;stroke-width:1;" x1="751" x2="1034" y1="52.3984" y2="52.3984"/><line style="stroke:#000000;stroke-width:1;" x1="751" x2="751" y1="49.3984" y2="51.3984"/><line style="stroke:#000000;stroke-width:1;" x1="1034" x2="1034" y1="49.3984" y2="51.3984"/><text fill="#000000" font-family="sans-serif" font-size="12" lengthAdjust="spacing" textLength="70.7344" x="6" y="84.1328">Redeemable</text><text fill="#000000" font-family="sans-serif" font-size="12" lengthAdjust="spacing" textLength="151.0547" x="750" y="84.1328">"12,000 pts"     Qualifying</text><text fill="#000000" font-family="sans-serif" font-size="12" lengthAdjust="spacing" textLength="177.6973" x="1038" y="84.1328">"80,000 pts"     T&amp;Cs accepted</text><text fill="#000000" font-family="sans-serif" font-size="12" lengthAdjust="spacing" textLength="13.7988" x="1220.6973" y="84.1328">v1</text><line style="stroke:#000000;stroke-width:1;" x1="1218.6973" x2="1237.6973" y1="86.6641" y2="86.6641"/><line style="stroke:#000000;stroke-width:1;" x1="1218.6973" x2="1218.6973" y1="83.6641" y2="85.6641"/><line style="stroke:#000000;stroke-width:1;" x1="1237.6973" x2="1237.6973" y1="83.6641" y2="85.6641"/><line style="stroke:#AAAAAA;stroke-width:1;" x1="6" x2="749" y1="93.1641" y2="93.1641"/><line style="stroke:#AAAAAA;stroke-width:1;" x1="6" x2="749" y1="95.1641" y2="95.1641"/><text fill="#000000" font-family="sans-serif" font-size="12" lengthAdjust="spacing" textLength="39.7148" x="8" y="110.2656">Ledger</text><line style="stroke:#000000;stroke-width:1;" x1="6" x2="6" y1="98.6641" y2="112.7969"/><line style="stroke:#000000;stroke-width:1;" x1="6" x2="50.7148" y1="98.6641" y2="98.6641"/><line style="stroke:#000000;stroke-width:1;" x1="50.7148" x2="50.7148" y1="98.6641" y2="112.7969"/><line style="stroke:#000000;stroke-width:1;" x1="50.7148" x2="60.7148" y1="112.7969" y2="112.7969"/><text fill="#000000" font-family="sans-serif" font-size="12" lengthAdjust="spacing" textLength="37.5352" x="62.7148" y="110.2656">Adjust</text><line style="stroke:#000000;stroke-width:1;" x1="60.7148" x2="60.7148" y1="98.6641" y2="112.7969"/><line style="stroke:#000000;stroke-width:1;" x1="60.7148" x2="103.25" y1="98.6641" y2="98.6641"/><line style="stroke:#000000;stroke-width:1;" x1="103.25" x2="103.25" y1="98.6641" y2="112.7969"/><line style="stroke:#000000;stroke-width:1;" x1="103.25" x2="113.25" y1="112.7969" y2="112.7969"/><text fill="#000000" font-family="sans-serif" font-size="12" lengthAdjust="spacing" textLength="28.0957" x="7" y="143.5313">Type</text><text fill="#000000" font-family="sans-serif" font-size="12" lengthAdjust="spacing" textLength="37.8105" x="69.6387" y="143.5313">qDelta</text><text fill="#000000" font-family="sans-serif" font-size="12" lengthAdjust="spacing" textLength="35.168" x="109.4492" y="143.5313">rDelta</text><text fill="#000000" font-family="sans-serif" font-size="12" lengthAdjust="spacing" textLength="39.0234" x="151.3398" y="143.5313">Source</text><text fill="#000000" font-family="sans-serif" font-size="12" lengthAdjust="spacing" textLength="31.8457" x="258" y="143.5313">When</text><text fill="#000000" font-family="sans-serif" font-size="12" lengthAdjust="spacing" textLength="39.7266" x="7" y="159.6641">Earned</text><text fill="#000000" font-family="sans-serif" font-size="12" lengthAdjust="spacing" textLength="22.7637" x="69.6387" y="159.6641">120</text><text fill="#000000" font-family="sans-serif" font-size="12" lengthAdjust="spacing" textLength="22.7637" x="109.4492" y="159.6641">120</text><text fill="#000000" font-family="sans-serif" font-size="12" lengthAdjust="spacing" textLength="84.7559" x="151.3398" y="159.6641">evt-&#8230;:rule-31</text><text fill="#000000" font-family="sans-serif" font-size="12" lengthAdjust="spacing" textLength="74.5898" x="258" y="159.6641">2026-05-20</text><text fill="#000000" font-family="sans-serif" font-size="12" lengthAdjust="spacing" textLength="60.6387" x="7" y="175.7969">Redeemed</text><text fill="#000000" font-family="sans-serif" font-size="12" lengthAdjust="spacing" textLength="7.5879" x="69.6387" y="175.7969">0</text><text fill="#000000" font-family="sans-serif" font-size="12" lengthAdjust="spacing" textLength="37.2949" x="109.4492" y="175.7969">-5000</text><text fill="#000000" font-family="sans-serif" font-size="12" lengthAdjust="spacing" textLength="104.6602" x="151.3398" y="175.7969">redemption-7781</text><text fill="#000000" font-family="sans-serif" font-size="12" lengthAdjust="spacing" textLength="74.5898" x="258" y="175.7969">2026-05-22</text><text fill="#000000" font-family="sans-serif" font-size="12" lengthAdjust="spacing" textLength="51.7734" x="7" y="191.9297">Adjusted</text><text fill="#000000" font-family="sans-serif" font-size="12" lengthAdjust="spacing" textLength="7.5879" x="69.6387" y="191.9297">0</text><text fill="#000000" font-family="sans-serif" font-size="12" lengthAdjust="spacing" textLength="39.8906" x="109.4492" y="191.9297">+1000</text><text fill="#000000" font-family="sans-serif" font-size="12" lengthAdjust="spacing" textLength="89.3555" x="151.3398" y="191.9297">CS-2026-8841</text><text fill="#000000" font-family="sans-serif" font-size="12" lengthAdjust="spacing" textLength="74.5898" x="258" y="191.9297">2026-05-26</text><line style="stroke:#000000;stroke-width:1;" x1="6" x2="68.6387" y1="130.9297" y2="130.9297"/><line style="stroke:#000000;stroke-width:1;" x1="257" x2="333.5898" y1="195.4609" y2="195.4609"/><line style="stroke:#000000;stroke-width:1;" x1="68.6387" x2="108.4492" y1="130.9297" y2="130.9297"/><line style="stroke:#000000;stroke-width:1;" x1="108.4492" x2="150.3398" y1="130.9297" y2="130.9297"/><line style="stroke:#000000;stroke-width:1;" x1="150.3398" x2="257" y1="130.9297" y2="130.9297"/><line style="stroke:#000000;stroke-width:1;" x1="257" x2="333.5898" y1="130.9297" y2="130.9297"/><line style="stroke:#000000;stroke-width:1;" x1="6" x2="68.6387" y1="179.3281" y2="179.3281"/><line style="stroke:#000000;stroke-width:1;" x1="68.6387" x2="108.4492" y1="179.3281" y2="179.3281"/><line style="stroke:#000000;stroke-width:1;" x1="108.4492" x2="150.3398" y1="179.3281" y2="179.3281"/><line style="stroke:#000000;stroke-width:1;" x1="150.3398" x2="257" y1="179.3281" y2="179.3281"/><line style="stroke:#000000;stroke-width:1;" x1="257" x2="333.5898" y1="179.3281" y2="179.3281"/><line style="stroke:#000000;stroke-width:1;" x1="6" x2="68.6387" y1="163.1953" y2="163.1953"/><line style="stroke:#000000;stroke-width:1;" x1="68.6387" x2="108.4492" y1="163.1953" y2="163.1953"/><line style="stroke:#000000;stroke-width:1;" x1="108.4492" x2="150.3398" y1="163.1953" y2="163.1953"/><line style="stroke:#000000;stroke-width:1;" x1="150.3398" x2="257" y1="163.1953" y2="163.1953"/><line style="stroke:#000000;stroke-width:1;" x1="257" x2="333.5898" y1="163.1953" y2="163.1953"/><line style="stroke:#000000;stroke-width:1;" x1="6" x2="68.6387" y1="147.0625" y2="147.0625"/><line style="stroke:#000000;stroke-width:1;" x1="68.6387" x2="108.4492" y1="147.0625" y2="147.0625"/><line style="stroke:#000000;stroke-width:1;" x1="108.4492" x2="150.3398" y1="147.0625" y2="147.0625"/><line style="stroke:#000000;stroke-width:1;" x1="150.3398" x2="257" y1="147.0625" y2="147.0625"/><line style="stroke:#000000;stroke-width:1;" x1="257" x2="333.5898" y1="147.0625" y2="147.0625"/><line style="stroke:#000000;stroke-width:1;" x1="6" x2="68.6387" y1="195.4609" y2="195.4609"/><line style="stroke:#000000;stroke-width:1;" x1="68.6387" x2="108.4492" y1="195.4609" y2="195.4609"/><line style="stroke:#000000;stroke-width:1;" x1="108.4492" x2="150.3398" y1="195.4609" y2="195.4609"/><line style="stroke:#000000;stroke-width:1;" x1="150.3398" x2="257" y1="195.4609" y2="195.4609"/><line style="stroke:#000000;stroke-width:1;" x1="6" x2="6" y1="130.9297" y2="147.0625"/><line style="stroke:#000000;stroke-width:1;" x1="108.4492" x2="108.4492" y1="163.1953" y2="179.3281"/><line style="stroke:#000000;stroke-width:1;" x1="68.6387" x2="68.6387" y1="130.9297" y2="147.0625"/><line style="stroke:#000000;stroke-width:1;" x1="150.3398" x2="150.3398" y1="163.1953" y2="179.3281"/><line style="stroke:#000000;stroke-width:1;" x1="108.4492" x2="108.4492" y1="130.9297" y2="147.0625"/><line style="stroke:#000000;stroke-width:1;" x1="257" x2="257" y1="163.1953" y2="179.3281"/><line style="stroke:#000000;stroke-width:1;" x1="333.5898" x2="333.5898" y1="163.1953" y2="179.3281"/><line style="stroke:#000000;stroke-width:1;" x1="150.3398" x2="150.3398" y1="130.9297" y2="147.0625"/><line style="stroke:#000000;stroke-width:1;" x1="257" x2="257" y1="130.9297" y2="147.0625"/><line style="stroke:#000000;stroke-width:1;" x1="333.5898" x2="333.5898" y1="130.9297" y2="147.0625"/><line style="stroke:#000000;stroke-width:1;" x1="6" x2="6" y1="179.3281" y2="195.4609"/><line style="stroke:#000000;stroke-width:1;" x1="68.6387" x2="68.6387" y1="179.3281" y2="195.4609"/><line style="stroke:#000000;stroke-width:1;" x1="6" x2="6" y1="147.0625" y2="163.1953"/><line style="stroke:#000000;stroke-width:1;" x1="108.4492" x2="108.4492" y1="179.3281" y2="195.4609"/><line style="stroke:#000000;stroke-width:1;" x1="68.6387" x2="68.6387" y1="147.0625" y2="163.1953"/><line style="stroke:#000000;stroke-width:1;" x1="150.3398" x2="150.3398" y1="179.3281" y2="195.4609"/><line style="stroke:#000000;stroke-width:1;" x1="108.4492" x2="108.4492" y1="147.0625" y2="163.1953"/><line style="stroke:#000000;stroke-width:1;" x1="257" x2="257" y1="179.3281" y2="195.4609"/><line style="stroke:#000000;stroke-width:1;" x1="333.5898" x2="333.5898" y1="179.3281" y2="195.4609"/><line style="stroke:#000000;stroke-width:1;" x1="150.3398" x2="150.3398" y1="147.0625" y2="163.1953"/><line style="stroke:#000000;stroke-width:1;" x1="257" x2="257" y1="147.0625" y2="163.1953"/><line style="stroke:#000000;stroke-width:1;" x1="333.5898" x2="333.5898" y1="147.0625" y2="163.1953"/><line style="stroke:#000000;stroke-width:1;" x1="6" x2="6" y1="163.1953" y2="179.3281"/><line style="stroke:#000000;stroke-width:1;" x1="68.6387" x2="68.6387" y1="163.1953" y2="179.3281"/><line style="stroke:#AAAAAA;stroke-width:1.5;" x1="6" x2="749" y1="200.9609" y2="200.9609"/><text fill="#000000" font-family="sans-serif" font-size="12" lengthAdjust="spacing" textLength="562.8457" x="9" y="217.0625">Ledger is append-only. The Adjust tab raises an ADJUSTMENT approval (maker-checker via BEP).</text><line style="stroke:#000000;stroke-width:1;" x1="7" x2="746" y1="219.5938" y2="219.5938"/><line style="stroke:#000000;stroke-width:1;" x1="7" x2="7" y1="216.5938" y2="218.5938"/><line style="stroke:#000000;stroke-width:1;" x1="746" x2="746" y1="216.5938" y2="218.5938"/><line style="stroke:#AAAAAA;stroke-width:1;" x1="6" x2="749" y1="226.0938" y2="226.0938"/><line style="stroke:#AAAAAA;stroke-width:1;" x1="6" x2="749" y1="228.0938" y2="228.0938"/><rect fill="#EEEEEE" height="18.1328" rx="5" ry="5" style="stroke:#000000;stroke-width:2.5;" width="148" x="8.5" y="234.0938"/><text fill="#000000" font-family="sans-serif" font-size="12" lengthAdjust="spacing" textLength="99.9902" x="32.5049" y="247.6953">Raise adjustment</text><rect fill="#EEEEEE" height="18.1328" rx="5" ry="5" style="stroke:#000000;stroke-width:2.5;" width="124" x="752.5" y="234.0938"/><text fill="#000000" font-family="sans-serif" font-size="12" lengthAdjust="spacing" textLength="78.7676" x="775.1162" y="247.6953">Export ledger</text><?plantuml-src LP9TRjD04CVVVOfHa12qNRDhqZQALDGqjYfG2iKnzA5gqSOUaWL_iLv7jP9MFGrNu9sZS9Bks4b5BDaxdfdVp7z6UrePgKqbKmDrXPhDQvKWgnNBC9kXTbOEm6eFBdKnrp8RmctedtqBWwjHw4zlOGsJeh5i0wCaKpcyWuiMgwpLz-3UmgvzEoTvrj2BwyeKcVqLd0lu-mT6u-Zzru2iIA4UmlcdYT_Ra24cY9cSfKYey0uuvr2QgWVqVAvbghutAfzJTC1tez7BSGKoZh4qc532Kb3PanCQwGrCC9bR5Mih_OULz2nszS8Xk2cnhRA6NpwcHbf3RurfKUku2tSfLmlCYGgapcqlSWcFmww1IyF-FVuUwZf5zbQGo-FU4UE7pED4TyEsMlcsCZkacQYv3MQbKKNEZey7uZ_M8xOROfVT5njsF6Ljzc3G5x3JzyYoDFZ3W_tqDYjHTcrbYNd2YZnjN8WMk5sIaJFGKbLeKt8O-H--JAEBu6D4W2wMCeLNcVnfxr6ymDYUi5GIpeBBr-xpwgyXf08WsuePvWPkhAHh2ExAGXj8En4tphrpQZNGrNGSuP9aj_y4?></g></svg>