<svg xmlns="http://www.w3.org/2000/svg" xmlns:xlink="http://www.w3.org/1999/xlink" contentStyleType="text/css" data-diagram-type="SALT" height="258px" preserveAspectRatio="none" style="width:387px;height:258px;background:#FFFFFF;" version="1.1" viewBox="0 0 387 258" width="387px" zoomAndPan="magnify"><?plantuml 1.2026.4?><defs/><g><text fill="#000000" font-family="sans-serif" font-size="12" lengthAdjust="spacing" textLength="149.4434" x="9" y="17.6016">HBP Mobile   &#183;   Rewards</text><line style="stroke:#000000;stroke-width:1;" x1="7" x2="218" y1="20.1328" y2="20.1328"/><line style="stroke:#000000;stroke-width:1;" x1="7" x2="7" y1="17.1328" y2="19.1328"/><line style="stroke:#000000;stroke-width:1;" x1="218" x2="218" y1="17.1328" y2="19.1328"/><line style="stroke:#AAAAAA;stroke-width:1;" x1="6" x2="381" y1="26.6328" y2="26.6328"/><line style="stroke:#AAAAAA;stroke-width:1;" x1="6" x2="381" y1="28.6328" y2="28.6328"/><text fill="#000000" font-family="sans-serif" font-size="12" lengthAdjust="spacing" textLength="193.4707" x="9" y="43.7344">Updated Terms &amp; Conditions (v2)</text><line style="stroke:#000000;stroke-width:1;" x1="7" x2="258" y1="46.2656" y2="46.2656"/><line style="stroke:#000000;stroke-width:1;" x1="7" x2="7" y1="43.2656" y2="45.2656"/><line style="stroke:#000000;stroke-width:1;" x1="258" x2="258" y1="43.2656" y2="45.2656"/><text fill="#000000" font-family="sans-serif" font-size="12" lengthAdjust="spacing" textLength="200.2383" x="9" y="78">We've updated the Rewards terms.</text><line style="stroke:#000000;stroke-width:1;" x1="7" x2="266" y1="80.5313" y2="80.5313"/><line style="stroke:#000000;stroke-width:1;" x1="7" x2="7" y1="77.5313" y2="79.5313"/><line style="stroke:#000000;stroke-width:1;" x1="266" x2="266" y1="77.5313" y2="79.5313"/><text fill="#000000" font-family="sans-serif" font-size="12" lengthAdjust="spacing" textLength="233.502" x="9" y="96.1328">You can keep earning for 23 more days,</text><line style="stroke:#000000;stroke-width:1;" x1="7" x2="314" y1="98.6641" y2="98.6641"/><line style="stroke:#000000;stroke-width:1;" x1="7" x2="7" y1="95.6641" y2="97.6641"/><line style="stroke:#000000;stroke-width:1;" x1="314" x2="314" y1="95.6641" y2="97.6641"/><text fill="#000000" font-family="sans-serif" font-size="12" lengthAdjust="spacing" textLength="250.0547" x="9" y="114.2656">but redemption is paused until you accept.</text><line style="stroke:#000000;stroke-width:1;" x1="7" x2="346" y1="116.7969" y2="116.7969"/><line style="stroke:#000000;stroke-width:1;" x1="7" x2="7" y1="113.7969" y2="115.7969"/><line style="stroke:#000000;stroke-width:1;" x1="346" x2="346" y1="113.7969" y2="115.7969"/><line style="stroke:#AAAAAA;stroke-width:1.5;" x1="6" x2="381" y1="124.2969" y2="124.2969"/><rect fill="#EEEEEE" height="18.1328" rx="5" ry="5" style="stroke:#000000;stroke-width:2.5;" width="188" x="8.5" y="131.2969"/><text fill="#000000" font-family="sans-serif" font-size="12" lengthAdjust="spacing" textLength="120.6973" x="42.1514" y="144.8984">View full terms (PDF)</text><text fill="#000000" font-family="sans-serif" font-size="12" lengthAdjust="spacing" textLength="272.6836" x="26" y="181.6641">"I accept the updated Terms &amp; Conditions (v2)"</text><rect fill="none" height="10" style="stroke:#000000;stroke-width:1.5;" width="10" x="8" y="172.1289"/><polygon fill="#000000" points="9,176.0625,12,179.0625,19,170.0625,12,177.0625" style="stroke:#000000;stroke-width:1.5;stroke-linejoin:miter;stroke-miterlimit:10;"/><rect fill="#EEEEEE" height="18.1328" rx="5" ry="5" style="stroke:#000000;stroke-width:2.5;" width="268" x="8.5" y="204.8281"/><text fill="#000000" font-family="sans-serif" font-size="12" lengthAdjust="spacing" textLength="105.7617" x="89.6191" y="218.4297">Accept &amp; continue</text><line style="stroke:#AAAAAA;stroke-width:1;" x1="6" x2="381" y1="229.9609" y2="229.9609"/><line style="stroke:#AAAAAA;stroke-width:1;" x1="6" x2="381" y1="231.9609" y2="231.9609"/><text fill="#000000" font-family="sans-serif" font-size="12" lengthAdjust="spacing" textLength="273.1348" x="9" y="247.0625">After accepting: redemption is unlocked again.</text><line style="stroke:#000000;stroke-width:1;" x1="7" x2="378" y1="249.5938" y2="249.5938"/><line style="stroke:#000000;stroke-width:1;" x1="7" x2="7" y1="246.5938" y2="248.5938"/><line style="stroke:#000000;stroke-width:1;" x1="378" x2="378" y1="246.5938" y2="248.5938"/><line style="stroke:#000000;stroke-width:1;" x1="5" x2="381" y1="5" y2="5"/><line style="stroke:#000000;stroke-width:1;" x1="5" x2="381" y1="252.5938" y2="252.5938"/><line style="stroke:#000000;stroke-width:1;" x1="5" x2="5" y1="5" y2="23.1328"/><line style="stroke:#000000;stroke-width:1;" x1="381" x2="381" y1="5" y2="23.1328"/><line style="stroke:#000000;stroke-width:1;" x1="5" x2="5" y1="185.1953" y2="201.3281"/><line style="stroke:#000000;stroke-width:1;" x1="381" x2="381" y1="185.1953" y2="201.3281"/><line style="stroke:#000000;stroke-width:1;" x1="5" x2="5" y1="119.7969" y2="127.7969"/><line style="stroke:#000000;stroke-width:1;" x1="381" x2="381" y1="119.7969" y2="127.7969"/><line style="stroke:#000000;stroke-width:1;" x1="5" x2="5" y1="49.2656" y2="65.3984"/><line style="stroke:#000000;stroke-width:1;" x1="381" x2="381" y1="49.2656" y2="65.3984"/><line style="stroke:#000000;stroke-width:1;" x1="5" x2="5" y1="234.4609" y2="252.5938"/><line style="stroke:#000000;stroke-width:1;" x1="381" x2="381" y1="234.4609" y2="252.5938"/><line style="stroke:#000000;stroke-width:1;" x1="5" x2="5" y1="169.0625" y2="185.1953"/><line style="stroke:#000000;stroke-width:1;" x1="381" x2="381" y1="169.0625" y2="185.1953"/><line style="stroke:#000000;stroke-width:1;" x1="5" x2="5" y1="101.6641" y2="119.7969"/><line style="stroke:#000000;stroke-width:1;" x1="381" x2="381" y1="101.6641" y2="119.7969"/><line style="stroke:#000000;stroke-width:1;" x1="5" x2="5" y1="31.1328" y2="49.2656"/><line style="stroke:#000000;stroke-width:1;" x1="381" x2="381" y1="31.1328" y2="49.2656"/><line style="stroke:#000000;stroke-width:1;" x1="5" x2="5" y1="226.4609" y2="234.4609"/><line style="stroke:#000000;stroke-width:1;" x1="381" x2="381" y1="226.4609" y2="234.4609"/><line style="stroke:#000000;stroke-width:1;" x1="5" x2="5" y1="152.9297" y2="169.0625"/><line style="stroke:#000000;stroke-width:1;" x1="381" x2="381" y1="152.9297" y2="169.0625"/><line style="stroke:#000000;stroke-width:1;" x1="5" x2="5" y1="83.5313" y2="101.6641"/><line style="stroke:#000000;stroke-width:1;" x1="381" x2="381" y1="83.5313" y2="101.6641"/><line style="stroke:#000000;stroke-width:1;" x1="5" x2="5" y1="23.1328" y2="31.1328"/><line style="stroke:#000000;stroke-width:1;" x1="381" x2="381" y1="23.1328" y2="31.1328"/><line style="stroke:#000000;stroke-width:1;" x1="5" x2="5" y1="201.3281" y2="226.4609"/><line style="stroke:#000000;stroke-width:1;" x1="381" x2="381" y1="201.3281" y2="226.4609"/><line style="stroke:#000000;stroke-width:1;" x1="5" x2="5" y1="127.7969" y2="152.9297"/><line style="stroke:#000000;stroke-width:1;" x1="381" x2="381" y1="127.7969" y2="152.9297"/><line style="stroke:#000000;stroke-width:1;" x1="5" x2="5" y1="65.3984" y2="83.5313"/><line style="stroke:#000000;stroke-width:1;" x1="381" x2="381" y1="65.3984" y2="83.5313"/><?plantuml-src ZL7BIiD05DtdAmvPr1PDq2WkX4Ah8hWGH7nIkfZEtCIXwKoOHqiH-rlk_J9dajI5AsTnD_SyxqoiOyPPLZjuIoQhl1IKUPavRZF6EJKk-JXCW5HUChN4dLx8cW1yVuNnG1jcX4t3VZoEeAT6C4S2ZsHM5WDSQIMaarfP3DV5A0BpY7kXWpN1zsZtJdifkCZC8p1zqnwSAIo96X0pIgeAfJOeJh7IXY3OrXwrq8LtC2HerKGpI8k6XJu2NZbPOnkKkZAjycuNnWpFaZOeVLrtfXZUNz-CCEyppbxdI6zxMXlH_w_S3FsRTjG1k0ufbAVzOlvxhsaPh7kFqExYJmclQisNmP9LJAgG_JEPa1BnkvBa92-EY_Fyx0S0?></g></svg>