<svg xmlns="http://www.w3.org/2000/svg" xmlns:xlink="http://www.w3.org/1999/xlink" contentStyleType="text/css" data-diagram-type="SALT" height="312px" preserveAspectRatio="none" style="width:817px;height:312px;background:#FFFFFF;" version="1.1" viewBox="0 0 817 312" width="817px" zoomAndPan="magnify"><?plantuml 1.2026.4?><defs/><g><rect fill="#DDDDDD" height="15.1328" style="stroke:#000000;stroke-width:1;" width="572.4707" x="6" y="6"/><text fill="#000000" font-family="sans-serif" font-size="12" lengthAdjust="spacing" textLength="157.0605" x="6" y="17.6016">Program: ^RDB_REWARDS^</text><text fill="#000000" font-family="sans-serif" font-size="12" lengthAdjust="spacing" textLength="164.6016" x="173.0605" y="17.6016">Loyalty Admin &gt; Campaigns</text><text fill="#000000" font-family="sans-serif" font-size="12" lengthAdjust="spacing" textLength="58.7109" x="8" y="49.8672">Campaign</text><line style="stroke:#000000;stroke-width:1;" x1="6" x2="6" y1="38.2656" y2="52.3984"/><line style="stroke:#000000;stroke-width:1;" x1="6" x2="69.7109" y1="38.2656" y2="38.2656"/><line style="stroke:#000000;stroke-width:1;" x1="69.7109" x2="69.7109" y1="38.2656" y2="52.3984"/><line style="stroke:#000000;stroke-width:1;" x1="69.7109" x2="79.7109" y1="52.3984" y2="52.3984"/><text fill="#000000" font-family="sans-serif" font-size="12" lengthAdjust="spacing" textLength="48.1699" x="81.7109" y="49.8672">Drawing</text><line style="stroke:#000000;stroke-width:1;" x1="79.7109" x2="79.7109" y1="38.2656" y2="52.3984"/><line style="stroke:#000000;stroke-width:1;" x1="79.7109" x2="132.8809" y1="38.2656" y2="38.2656"/><line style="stroke:#000000;stroke-width:1;" x1="132.8809" x2="132.8809" y1="38.2656" y2="52.3984"/><line style="stroke:#000000;stroke-width:1;" x1="132.8809" x2="142.8809" y1="52.3984" y2="52.3984"/><text fill="#000000" font-family="sans-serif" font-size="12" lengthAdjust="spacing" textLength="46.3418" x="144.8809" y="49.8672">Winners</text><line style="stroke:#000000;stroke-width:1;" x1="142.8809" x2="142.8809" y1="38.2656" y2="52.3984"/><line style="stroke:#000000;stroke-width:1;" x1="142.8809" x2="194.2227" y1="38.2656" y2="38.2656"/><line style="stroke:#000000;stroke-width:1;" x1="194.2227" x2="194.2227" y1="38.2656" y2="52.3984"/><line style="stroke:#000000;stroke-width:1;" x1="194.2227" x2="204.2227" y1="52.3984" y2="52.3984"/><text fill="#000000" font-family="sans-serif" font-size="12" lengthAdjust="spacing" textLength="94.4707" x="7" y="83.1328">Campaign name</text><text fill="#000000" font-family="sans-serif" font-size="12" lengthAdjust="spacing" textLength="149.9648" x="106.4707" y="83.1328">Dining Double Points May</text><line style="stroke:#000000;stroke-width:1;" x1="104.4707" x2="475.4707" y1="85.6641" y2="85.6641"/><line style="stroke:#000000;stroke-width:1;" x1="104.4707" x2="104.4707" y1="82.6641" y2="84.6641"/><line style="stroke:#000000;stroke-width:1;" x1="475.4707" x2="475.4707" y1="82.6641" y2="84.6641"/><text fill="#000000" font-family="sans-serif" font-size="12" lengthAdjust="spacing" textLength="77.0449" x="7" y="101.2656">Window from</text><text fill="#000000" font-family="sans-serif" font-size="12" lengthAdjust="spacing" textLength="74.5898" x="106.4707" y="101.2656">2026-05-01</text><line style="stroke:#000000;stroke-width:1;" x1="104.4707" x2="475.4707" y1="103.7969" y2="103.7969"/><line style="stroke:#000000;stroke-width:1;" x1="104.4707" x2="104.4707" y1="100.7969" y2="102.7969"/><line style="stroke:#000000;stroke-width:1;" x1="475.4707" x2="475.4707" y1="100.7969" y2="102.7969"/><text fill="#000000" font-family="sans-serif" font-size="12" lengthAdjust="spacing" textLength="61.0078" x="7" y="119.3984">Window to</text><text fill="#000000" font-family="sans-serif" font-size="12" lengthAdjust="spacing" textLength="74.5898" x="106.4707" y="119.3984">2026-05-31</text><line style="stroke:#000000;stroke-width:1;" x1="104.4707" x2="475.4707" y1="121.9297" y2="121.9297"/><line style="stroke:#000000;stroke-width:1;" x1="104.4707" x2="104.4707" y1="118.9297" y2="120.9297"/><line style="stroke:#000000;stroke-width:1;" x1="475.4707" x2="475.4707" y1="118.9297" y2="120.9297"/><text fill="#000000" font-family="sans-serif" font-size="12" lengthAdjust="spacing" textLength="35.6309" x="7" y="137.5313">Status</text><rect fill="#EEEEEE" height="17.1328" style="stroke:#000000;stroke-width:1;" width="55" x="103.4707" y="125.9297"/><text fill="#000000" font-family="sans-serif" font-size="12" lengthAdjust="spacing" textLength="38.877" x="105.4707" y="139.5313">DRAFT</text><line style="stroke:#000000;stroke-width:1;" x1="147.4707" x2="147.4707" y1="125.9297" y2="143.0625"/><polygon fill="#000000" points="150.4707,131.9297,156.4707,131.9297,153.4707,138.0625" style="stroke:#000000;stroke-width:1;stroke-linejoin:miter;stroke-miterlimit:10;"/><text fill="#000000" font-family="sans-serif" font-size="12" lengthAdjust="spacing" textLength="64.875" x="7" y="157.6641">Linked rule</text><rect fill="#EEEEEE" height="17.1328" style="stroke:#000000;stroke-width:1;" width="215" x="103.4707" y="146.0625"/><text fill="#000000" font-family="sans-serif" font-size="12" lengthAdjust="spacing" textLength="161.1973" x="105.4707" y="159.6641">Dining 2x bonus (COLLECT)</text><line style="stroke:#000000;stroke-width:1;" x1="307.4707" x2="307.4707" y1="146.0625" y2="163.1953"/><polygon fill="#000000" points="310.4707,152.0625,316.4707,152.0625,313.4707,158.1953" style="stroke:#000000;stroke-width:1;stroke-linejoin:miter;stroke-miterlimit:10;"/><rect fill="#EEEEEE" height="18.1328" rx="5" ry="5" style="stroke:#000000;stroke-width:2.5;" width="92" x="481.9707" y="148.5625"/><text fill="#000000" font-family="sans-serif" font-size="12" lengthAdjust="spacing" textLength="57.3164" x="499.3125" y="162.1641">Open rule</text><line style="stroke:#AAAAAA;stroke-width:1;" x1="6" x2="578.4707" y1="174.6953" y2="174.6953"/><line style="stroke:#AAAAAA;stroke-width:1;" x1="6" x2="578.4707" y1="176.6953" y2="176.6953"/><text fill="#000000" font-family="sans-serif" font-size="12" lengthAdjust="spacing" textLength="133.1074" x="9" y="191.7969">Drawing (sweepstakes)</text><line style="stroke:#000000;stroke-width:1;" x1="7" x2="178" y1="194.3281" y2="194.3281"/><line style="stroke:#000000;stroke-width:1;" x1="7" x2="7" y1="191.3281" y2="193.3281"/><line style="stroke:#000000;stroke-width:1;" x1="178" x2="178" y1="191.3281" y2="193.3281"/><text fill="#000000" font-family="sans-serif" font-size="12" lengthAdjust="spacing" textLength="91.582" x="7" y="210.9297">Scheduled draw</text><text fill="#000000" font-family="sans-serif" font-size="12" lengthAdjust="spacing" textLength="112.5352" x="164.0352" y="210.9297">2026-06-01 12:00</text><line style="stroke:#000000;stroke-width:1;" x1="162.0352" x2="525.0352" y1="213.4609" y2="213.4609"/><line style="stroke:#000000;stroke-width:1;" x1="162.0352" x2="162.0352" y1="210.4609" y2="212.4609"/><line style="stroke:#000000;stroke-width:1;" x1="525.0352" x2="525.0352" y1="210.4609" y2="212.4609"/><text fill="#000000" font-family="sans-serif" font-size="12" lengthAdjust="spacing" textLength="52.2246" x="7" y="229.0625">Selection</text><rect fill="#EEEEEE" height="17.1328" style="stroke:#000000;stroke-width:1;" width="95" x="161.0352" y="217.4609"/><text fill="#000000" font-family="sans-serif" font-size="12" lengthAdjust="spacing" textLength="75.0762" x="163.0352" y="231.0625">SEEDED_RNG</text><line style="stroke:#000000;stroke-width:1;" x1="245.0352" x2="245.0352" y1="217.4609" y2="234.5938"/><polygon fill="#000000" points="248.0352,223.4609,254.0352,223.4609,251.0352,229.5938" style="stroke:#000000;stroke-width:1;stroke-linejoin:miter;stroke-miterlimit:10;"/><text fill="#000000" font-family="sans-serif" font-size="12" lengthAdjust="spacing" textLength="28.5762" x="7" y="249.1953">Prize</text><rect fill="#EEEEEE" height="17.1328" style="stroke:#000000;stroke-width:1;" width="255" x="161.0352" y="237.5938"/><text fill="#000000" font-family="sans-serif" font-size="12" lengthAdjust="spacing" textLength="193.002" x="163.0352" y="251.1953">USD 1,000 Cashback x 3 winners</text><line style="stroke:#000000;stroke-width:1;" x1="405.0352" x2="405.0352" y1="237.5938" y2="254.7266"/><polygon fill="#000000" points="408.0352,243.5938,414.0352,243.5938,411.0352,249.7266" style="stroke:#000000;stroke-width:1;stroke-linejoin:miter;stroke-miterlimit:10;"/><text fill="#000000" font-family="sans-serif" font-size="12" lengthAdjust="spacing" textLength="132.0352" x="27" y="269.3281">One entry per member</text><rect fill="none" height="10" style="stroke:#000000;stroke-width:1.5;" width="10" x="9" y="259.793"/><polygon fill="#000000" points="10,263.7266,13,266.7266,20,257.7266,13,264.7266" style="stroke:#000000;stroke-width:1.5;stroke-linejoin:miter;stroke-miterlimit:10;"/><line style="stroke:#AAAAAA;stroke-width:1;" x1="6" x2="578.4707" y1="277.3594" y2="277.3594"/><line style="stroke:#AAAAAA;stroke-width:1;" x1="6" x2="578.4707" y1="279.3594" y2="279.3594"/><rect fill="#EEEEEE" height="18.1328" rx="5" ry="5" style="stroke:#000000;stroke-width:2.5;" width="100" x="8.5" y="285.3594"/><text fill="#000000" font-family="sans-serif" font-size="12" lengthAdjust="spacing" textLength="57.7734" x="29.6133" y="298.9609">Save draft</text><rect fill="#EEEEEE" height="18.1328" rx="5" ry="5" style="stroke:#000000;stroke-width:2.5;" width="84" x="581.9707" y="285.3594"/><text fill="#000000" font-family="sans-serif" font-size="12" lengthAdjust="spacing" textLength="51.8965" x="598.0225" y="298.9609">Schedule</text><rect fill="#EEEEEE" height="18.1328" rx="5" ry="5" style="stroke:#000000;stroke-width:2.5;" width="84" x="672.9707" y="285.3594"/><text fill="#000000" font-family="sans-serif" font-size="12" lengthAdjust="spacing" textLength="46.3945" x="691.7734" y="298.9609">Activate</text><rect fill="#EEEEEE" height="18.1328" rx="5" ry="5" style="stroke:#000000;stroke-width:2.5;" width="44" x="763.9707" y="285.3594"/><text fill="#000000" font-family="sans-serif" font-size="12" lengthAdjust="spacing" textLength="21.5039" x="775.2188" y="298.9609">End</text><?plantuml-src bLBBJW8n5DtFLzomGkFWW8y52GQaeniKCeF1X00fz8eDJ4lQZe2FV_SEmyl4XJPfqtjxpadFQUlMSUCidpj8BHf_cag1VYhz2KyMN4wLz-41V9n2n-YfuKaLXX6x7KLXhn6nU0YVqD9hOg-X8HAfu0QQMwA5BsAMClRvlabuPlXIgYdjUb8fD4Sucd20AfuWeGfCgWpFT3gU8tIqLCx20r_3hwEm4I5fePVmOdH25ObKWigr7rpvGHd-C7w8EBtf7ObS_4CaTjobTjVxX26B6dVTuUQi9TKC1PYKVELdkTNA2iPQ4QlORBTQORDxaWNTX_O2LOuU43-BhLQZfR2Bj6YNY0jwqHdQay8-qNZoYe9O0WG13qQkipJAbMeG_CK7pd7Yf5Px8t4Oif2DeiVxt4t7o7Syq0Zn53CedmMat-JsTSmdCrZ11IppTyzP_US1j1K2AcVMi4032IPZDCS6-n3pDynk_-9Wi8bYvsbRDkXgRzpjob09YkZBgwCIsT_sl78fyrow_0O0?></g></svg>