<svg xmlns="http://www.w3.org/2000/svg" xmlns:xlink="http://www.w3.org/1999/xlink" contentStyleType="text/css" data-diagram-type="ACTIVITY" height="612px" preserveAspectRatio="none" style="width:462px;height:612px;background:#FFFFFF;" version="1.1" viewBox="0 0 462 612" width="462px" zoomAndPan="magnify"><?plantuml 1.2026.4?><defs/><g><g class="title" data-source-line="1"><text fill="#000000" font-family="sans-serif" font-size="14" font-weight="700" lengthAdjust="spacing" textLength="335.0361" x="62.8337" y="33.5352">Standing up a new Program &#8212; setup sequence</text></g><ellipse cx="145.6426" cy="62.4883" fill="#222222" rx="10" ry="10" style="stroke:#222222;stroke-width:1;"/><path d="M258.8574,103.377 L258.8574,119.6875 L238.8574,123.6875 L258.8574,127.6875 L258.8574,143.998 A0,0 0 0 0 258.8574,143.998 L441.7036,143.998 A0,0 0 0 0 441.7036,143.998 L441.7036,113.377 L431.7036,103.377 L258.8574,103.377 A0,0 0 0 0 258.8574,103.377" fill="#FEFFDD" style="stroke:#181818;stroke-width:0.5;"/><path d="M431.7036,103.377 L431.7036,113.377 L441.7036,113.377 L431.7036,103.377" fill="#FEFFDD" style="stroke:#181818;stroke-width:0.5;"/><text fill="#000000" font-family="sans-serif" font-size="13" lengthAdjust="spacing" textLength="161.8462" x="264.8574" y="120.9453">chooses qualifying metric</text><text fill="#000000" font-family="sans-serif" font-size="13" lengthAdjust="spacing" textLength="101.8989" x="264.8574" y="136.2559">+ default expiry</text><rect fill="#0B4884" height="62.3984" rx="12.5" ry="12.5" style="stroke:#073661;stroke-width:0.5;" width="186.4297" x="52.4277" y="92.4883"/><text fill="#FFFFFF" font-family="sans-serif" font-size="12" font-weight="700" lengthAdjust="spacing" textLength="26.7129" x="62.4277" y="114.0898">&#167;4.1</text><text fill="#FFFFFF" font-family="sans-serif" font-size="12" lengthAdjust="spacing" textLength="71.3965" x="92.9375" y="114.0898">Migration &#8212;</text><text fill="#FFFFFF" font-family="sans-serif" font-size="12" lengthAdjust="spacing" textLength="166.4297" x="62.4277" y="128.2227">insert Program + Tier ladder</text><text fill="#FFFFFF" font-family="sans-serif" font-size="12" lengthAdjust="spacing" textLength="127.5586" x="62.4277" y="142.3555">(NOT a BEP operation)</text><rect fill="#0B4884" height="48.2656" rx="12.5" ry="12.5" style="stroke:#073661;stroke-width:0.5;" width="229.8711" x="30.707" y="174.8867"/><text fill="#FFFFFF" font-family="sans-serif" font-size="12" font-weight="700" lengthAdjust="spacing" textLength="26.7129" x="40.707" y="196.4883">&#167;4.2</text><text fill="#FFFFFF" font-family="sans-serif" font-size="12" lengthAdjust="spacing" textLength="179.3613" x="71.2168" y="196.4883">Confirm Earn Source catalogue</text><text fill="#FFFFFF" font-family="sans-serif" font-size="12" lengthAdjust="spacing" textLength="205.6523" x="40.707" y="210.6211">(GET /programs/{id}/earn-sources)</text><rect fill="#0B4884" height="62.3984" rx="12.5" ry="12.5" style="stroke:#073661;stroke-width:0.5;" width="197.252" x="47.0166" y="243.1523"/><text fill="#FFFFFF" font-family="sans-serif" font-size="12" font-weight="700" lengthAdjust="spacing" textLength="26.7129" x="57.0166" y="264.7539">&#167;4.3</text><text fill="#FFFFFF" font-family="sans-serif" font-size="12" lengthAdjust="spacing" textLength="130.5352" x="87.5264" y="264.7539">Author Earning Rule(s)</text><text fill="#FFFFFF" font-family="sans-serif" font-size="12" lengthAdjust="spacing" textLength="177.252" x="57.0166" y="278.8867">DRAFT -&gt; dry-run -&gt; activate</text><text fill="#FFFFFF" font-family="sans-serif" font-size="12" lengthAdjust="spacing" textLength="169.7109" x="57.0166" y="293.0195">(RULE_ACTIVATION approval)</text><rect fill="#0B4884" height="62.3984" rx="12.5" ry="12.5" style="stroke:#073661;stroke-width:0.5;" width="186.5762" x="52.3545" y="325.5508"/><text fill="#FFFFFF" font-family="sans-serif" font-size="12" font-weight="700" lengthAdjust="spacing" textLength="15.832" x="62.3545" y="347.1523">&#167;7</text><text fill="#FFFFFF" font-family="sans-serif" font-size="12" lengthAdjust="spacing" textLength="146.4902" x="81.9834" y="347.1523">Author Reward catalogue</text><text fill="#FFFFFF" font-family="sans-serif" font-size="12" lengthAdjust="spacing" textLength="107.6953" x="62.3545" y="361.2852">DRAFT -&gt; activate</text><text fill="#FFFFFF" font-family="sans-serif" font-size="12" lengthAdjust="spacing" textLength="166.5762" x="62.3545" y="375.418">(REWARD_CHANGE approval)</text><rect fill="#0B4884" height="34.1328" rx="12.5" ry="12.5" style="stroke:#073661;stroke-width:0.5;" width="205.0508" x="43.1172" y="407.9492"/><text fill="#FFFFFF" font-family="sans-serif" font-size="12" font-weight="700" lengthAdjust="spacing" textLength="23.748" x="53.1172" y="429.5508">&#167;11</text><text fill="#FFFFFF" font-family="sans-serif" font-size="12" lengthAdjust="spacing" textLength="157.5059" x="80.6621" y="429.5508">Publish T&amp;Cs v1 to the app</text><rect fill="#0B4884" height="34.1328" rx="12.5" ry="12.5" style="stroke:#073661;stroke-width:0.5;" width="259.2852" x="16" y="462.082"/><text fill="#FFFFFF" font-family="sans-serif" font-size="12" font-weight="700" lengthAdjust="spacing" textLength="15.832" x="26" y="483.6836">&#167;9</text><text fill="#FFFFFF" font-family="sans-serif" font-size="12" lengthAdjust="spacing" textLength="219.6563" x="45.6289" y="483.6836">(optional) configure launch Campaign</text><rect fill="#0B4884" height="34.1328" rx="12.5" ry="12.5" style="stroke:#073661;stroke-width:0.5;" width="236.0703" x="27.6074" y="516.2148"/><text fill="#FFFFFF" font-family="sans-serif" font-size="12" font-weight="700" lengthAdjust="spacing" textLength="26.7129" x="37.6074" y="537.8164">&#167;4.4</text><text fill="#FFFFFF" font-family="sans-serif" font-size="12" lengthAdjust="spacing" textLength="185.5605" x="68.1172" y="537.8164">Enable opt-in in the mobile app</text><ellipse cx="145.6426" cy="581.3477" fill="none" rx="11" ry="11" style="stroke:#222222;stroke-width:1;"/><ellipse cx="145.6426" cy="581.3477" fill="#222222" rx="6" ry="6" style="stroke:#222222;stroke-width:1;"/><line style="stroke:#181818;stroke-width:1;" x1="145.6426" x2="145.6426" y1="72.4883" y2="92.4883"/><polygon fill="#181818" points="141.6426,82.4883,145.6426,92.4883,149.6426,82.4883,145.6426,86.4883" style="stroke:#181818;stroke-width:1;stroke-linejoin:miter;stroke-miterlimit:10;"/><line style="stroke:#181818;stroke-width:1;" x1="145.6426" x2="145.6426" y1="154.8867" y2="174.8867"/><polygon fill="#181818" points="141.6426,164.8867,145.6426,174.8867,149.6426,164.8867,145.6426,168.8867" style="stroke:#181818;stroke-width:1;stroke-linejoin:miter;stroke-miterlimit:10;"/><line style="stroke:#181818;stroke-width:1;" x1="145.6426" x2="145.6426" y1="223.1523" y2="243.1523"/><polygon fill="#181818" points="141.6426,233.1523,145.6426,243.1523,149.6426,233.1523,145.6426,237.1523" style="stroke:#181818;stroke-width:1;stroke-linejoin:miter;stroke-miterlimit:10;"/><line style="stroke:#181818;stroke-width:1;" x1="145.6426" x2="145.6426" y1="305.5508" y2="325.5508"/><polygon fill="#181818" points="141.6426,315.5508,145.6426,325.5508,149.6426,315.5508,145.6426,319.5508" style="stroke:#181818;stroke-width:1;stroke-linejoin:miter;stroke-miterlimit:10;"/><line style="stroke:#181818;stroke-width:1;" x1="145.6426" x2="145.6426" y1="387.9492" y2="407.9492"/><polygon fill="#181818" points="141.6426,397.9492,145.6426,407.9492,149.6426,397.9492,145.6426,401.9492" style="stroke:#181818;stroke-width:1;stroke-linejoin:miter;stroke-miterlimit:10;"/><line style="stroke:#181818;stroke-width:1;" x1="145.6426" x2="145.6426" y1="442.082" y2="462.082"/><polygon fill="#181818" points="141.6426,452.082,145.6426,462.082,149.6426,452.082,145.6426,456.082" style="stroke:#181818;stroke-width:1;stroke-linejoin:miter;stroke-miterlimit:10;"/><line style="stroke:#181818;stroke-width:1;" x1="145.6426" x2="145.6426" y1="496.2148" y2="516.2148"/><polygon fill="#181818" points="141.6426,506.2148,145.6426,516.2148,149.6426,506.2148,145.6426,510.2148" style="stroke:#181818;stroke-width:1;stroke-linejoin:miter;stroke-miterlimit:10;"/><line style="stroke:#181818;stroke-width:1;" x1="145.6426" x2="145.6426" y1="550.3477" y2="570.3477"/><polygon fill="#181818" points="141.6426,560.3477,145.6426,570.3477,149.6426,560.3477,145.6426,564.3477" style="stroke:#181818;stroke-width:1;stroke-linejoin:miter;stroke-miterlimit:10;"/><?plantuml-src PPBTRjf048NlUOgHAbM4Y58Q6a8gLNACyoEr116tlK6A1kzWhsBFEli3HL6aFaJVeU_HH-cJT9S0GSBoXJLxvfipPssbBGdkBBAGd8Eh0O5f2MEjSeqL_Flr6mnPNpVqw8WpQZJCW-GQmwafKAXbQ9nZQMZl13Ch5zAkuAa1S87PGwwLOn6hKcbuytxMEplh-PDBnNPJcw-Ve5PQaDug-oUdfrrV7Kgi58i3r4VHny7WLN18VFQEBMhRE6-r_lxflUksMl1L-ksiL1mMdB9aGzhkbZw6L9A64eKtCkNcw3RriLmaOr0rlVGTVMgmiWHQveKzXwnGof21HuUbdAz28XLPBRCf7uEWERhI0lsifLvjRNpmDcB5SwahI50pt2cdCu8CBPOgT-G7NoKfTEeNLwRp9CLpXxoqRTPIuqriO2SU5ZbR-BK3AyoVk9AQvcZAmqbqcKBxCmYzQcl7uNDzFMZ3ZCctBybz5ASttwFqvdO4MFk12ootyFuhUa9Br6BVuOwz3qn-H9FXVNmTZQwI0rmtn3zsirAQ0jAtiO555wm2Mr3GRbG3BsggEYJjMo4BEULEaxyJnra1CLOrofnt0VHyGy8uyp-pRsjB1ly6PgLcijoWZLNrVm00?></g></svg>