<svg xmlns="http://www.w3.org/2000/svg" xmlns:xlink="http://www.w3.org/1999/xlink" contentStyleType="text/css" data-diagram-type="SALT" height="215px" preserveAspectRatio="none" style="width:435px;height:215px;background:#FFFFFF;" version="1.1" viewBox="0 0 435 215" width="435px" zoomAndPan="magnify"><?plantuml 1.2026.4?><defs/><g><text fill="#000000" font-family="sans-serif" font-size="12" lengthAdjust="spacing" textLength="188.4141" x="9" y="17.6016">iBank Mobile   &#183;   Points expiring</text><line style="stroke:#000000;stroke-width:1;" x1="7" x2="282" y1="20.1328" y2="20.1328"/><line style="stroke:#000000;stroke-width:1;" x1="7" x2="7" y1="17.1328" y2="19.1328"/><line style="stroke:#000000;stroke-width:1;" x1="282" x2="282" y1="17.1328" y2="19.1328"/><line style="stroke:#AAAAAA;stroke-width:1;" x1="6" x2="429" y1="26.6328" y2="26.6328"/><line style="stroke:#AAAAAA;stroke-width:1;" x1="6" x2="429" y1="28.6328" y2="28.6328"/><text fill="#000000" font-family="sans-serif" font-size="12" lengthAdjust="spacing" textLength="194.168" x="9" y="43.7344">Redeemable balance:  12,000 pts</text><line style="stroke:#000000;stroke-width:1;" x1="7" x2="258" y1="46.2656" y2="46.2656"/><line style="stroke:#000000;stroke-width:1;" x1="7" x2="7" y1="43.2656" y2="45.2656"/><line style="stroke:#000000;stroke-width:1;" x1="258" x2="258" y1="43.2656" y2="45.2656"/><text fill="#000000" font-family="sans-serif" font-size="12" lengthAdjust="spacing" textLength="253.5059" x="9" y="61.8672">Tier:  Gold  (expiry extended to 60 months)</text><line style="stroke:#000000;stroke-width:1;" x1="7" x2="354" y1="64.3984" y2="64.3984"/><line style="stroke:#000000;stroke-width:1;" x1="7" x2="7" y1="61.3984" y2="63.3984"/><line style="stroke:#000000;stroke-width:1;" x1="354" x2="354" y1="61.3984" y2="63.3984"/><line style="stroke:#AAAAAA;stroke-width:1.5;" x1="6" x2="429" y1="71.8984" y2="71.8984"/><text fill="#000000" font-family="sans-serif" font-size="12" lengthAdjust="spacing" textLength="46.2363" x="7" y="89">Amount</text><text fill="#000000" font-family="sans-serif" font-size="12" lengthAdjust="spacing" textLength="61.2129" x="65.1035" y="89">Expires on</text><text fill="#000000" font-family="sans-serif" font-size="12" lengthAdjust="spacing" textLength="56.1035" x="7" y="105.1328">2,000 pts</text><text fill="#000000" font-family="sans-serif" font-size="12" lengthAdjust="spacing" textLength="74.5898" x="65.1035" y="105.1328">2026-07-31</text><text fill="#000000" font-family="sans-serif" font-size="12" lengthAdjust="spacing" textLength="56.1035" x="7" y="121.2656">3,500 pts</text><text fill="#000000" font-family="sans-serif" font-size="12" lengthAdjust="spacing" textLength="74.5898" x="65.1035" y="121.2656">2026-09-30</text><text fill="#000000" font-family="sans-serif" font-size="12" lengthAdjust="spacing" textLength="56.1035" x="7" y="137.3984">6,500 pts</text><text fill="#000000" font-family="sans-serif" font-size="12" lengthAdjust="spacing" textLength="74.5898" x="65.1035" y="137.3984">2027-01-15</text><line style="stroke:#000000;stroke-width:1;" x1="6" x2="64.1035" y1="76.3984" y2="76.3984"/><line style="stroke:#000000;stroke-width:1;" x1="64.1035" x2="140.6934" y1="92.5313" y2="92.5313"/><line style="stroke:#000000;stroke-width:1;" x1="64.1035" x2="140.6934" y1="76.3984" y2="76.3984"/><line style="stroke:#000000;stroke-width:1;" x1="6" x2="64.1035" y1="140.9297" y2="140.9297"/><line style="stroke:#000000;stroke-width:1;" x1="64.1035" x2="140.6934" y1="140.9297" y2="140.9297"/><line style="stroke:#000000;stroke-width:1;" x1="6" x2="64.1035" y1="124.7969" y2="124.7969"/><line style="stroke:#000000;stroke-width:1;" x1="6" x2="64.1035" y1="108.6641" y2="108.6641"/><line style="stroke:#000000;stroke-width:1;" x1="64.1035" x2="140.6934" y1="124.7969" y2="124.7969"/><line style="stroke:#000000;stroke-width:1;" x1="6" x2="64.1035" y1="92.5313" y2="92.5313"/><line style="stroke:#000000;stroke-width:1;" x1="64.1035" x2="140.6934" y1="108.6641" y2="108.6641"/><line style="stroke:#000000;stroke-width:1;" x1="6" x2="6" y1="76.3984" y2="92.5313"/><line style="stroke:#000000;stroke-width:1;" x1="140.6934" x2="140.6934" y1="108.6641" y2="124.7969"/><line style="stroke:#000000;stroke-width:1;" x1="64.1035" x2="64.1035" y1="92.5313" y2="108.6641"/><line style="stroke:#000000;stroke-width:1;" x1="140.6934" x2="140.6934" y1="92.5313" y2="108.6641"/><line style="stroke:#000000;stroke-width:1;" x1="64.1035" x2="64.1035" y1="76.3984" y2="92.5313"/><line style="stroke:#000000;stroke-width:1;" x1="140.6934" x2="140.6934" y1="76.3984" y2="92.5313"/><line style="stroke:#000000;stroke-width:1;" x1="6" x2="6" y1="124.7969" y2="140.9297"/><line style="stroke:#000000;stroke-width:1;" x1="6" x2="6" y1="108.6641" y2="124.7969"/><line style="stroke:#000000;stroke-width:1;" x1="64.1035" x2="64.1035" y1="124.7969" y2="140.9297"/><line style="stroke:#000000;stroke-width:1;" x1="6" x2="6" y1="92.5313" y2="108.6641"/><line style="stroke:#000000;stroke-width:1;" x1="140.6934" x2="140.6934" y1="124.7969" y2="140.9297"/><line style="stroke:#000000;stroke-width:1;" x1="64.1035" x2="64.1035" y1="108.6641" y2="124.7969"/><text fill="#000000" font-family="sans-serif" font-size="12" lengthAdjust="spacing" textLength="307.0371" x="9" y="170.6641">Points are used oldest-first when you redeem (FIFO).</text><line style="stroke:#000000;stroke-width:1;" x1="7" x2="426" y1="173.1953" y2="173.1953"/><line style="stroke:#000000;stroke-width:1;" x1="7" x2="7" y1="170.1953" y2="172.1953"/><line style="stroke:#000000;stroke-width:1;" x1="426" x2="426" y1="170.1953" y2="172.1953"/><line style="stroke:#AAAAAA;stroke-width:1;" x1="6" x2="429" y1="179.6953" y2="179.6953"/><line style="stroke:#AAAAAA;stroke-width:1;" x1="6" x2="429" y1="181.6953" y2="181.6953"/><rect fill="#EEEEEE" height="18.1328" rx="5" ry="5" style="stroke:#000000;stroke-width:2.5;" width="244" x="8.5" y="187.6953"/><text fill="#000000" font-family="sans-serif" font-size="12" lengthAdjust="spacing" textLength="91.0781" x="84.9609" y="201.2969">Browse rewards</text><line style="stroke:#000000;stroke-width:1;" x1="5" x2="429" y1="5" y2="5"/><line style="stroke:#000000;stroke-width:1;" x1="5" x2="429" y1="209.3281" y2="209.3281"/><line style="stroke:#000000;stroke-width:1;" x1="5" x2="5" y1="5" y2="23.1328"/><line style="stroke:#000000;stroke-width:1;" x1="429" x2="429" y1="5" y2="23.1328"/><line style="stroke:#000000;stroke-width:1;" x1="5" x2="5" y1="184.1953" y2="209.3281"/><line style="stroke:#000000;stroke-width:1;" x1="429" x2="429" y1="184.1953" y2="209.3281"/><line style="stroke:#000000;stroke-width:1;" x1="5" x2="5" y1="158.0625" y2="176.1953"/><line style="stroke:#000000;stroke-width:1;" x1="429" x2="429" y1="158.0625" y2="176.1953"/><line style="stroke:#000000;stroke-width:1;" x1="5" x2="5" y1="75.3984" y2="141.9297"/><line style="stroke:#000000;stroke-width:1;" x1="429" x2="429" y1="75.3984" y2="141.9297"/><line style="stroke:#000000;stroke-width:1;" x1="5" x2="5" y1="49.2656" y2="67.3984"/><line style="stroke:#000000;stroke-width:1;" x1="429" x2="429" y1="49.2656" y2="67.3984"/><line style="stroke:#000000;stroke-width:1;" x1="5" x2="5" y1="23.1328" y2="31.1328"/><line style="stroke:#000000;stroke-width:1;" x1="429" x2="429" y1="23.1328" y2="31.1328"/><line style="stroke:#000000;stroke-width:1;" x1="5" x2="5" y1="176.1953" y2="184.1953"/><line style="stroke:#000000;stroke-width:1;" x1="429" x2="429" y1="176.1953" y2="184.1953"/><line style="stroke:#000000;stroke-width:1;" x1="5" x2="5" y1="141.9297" y2="158.0625"/><line style="stroke:#000000;stroke-width:1;" x1="429" x2="429" y1="141.9297" y2="158.0625"/><line style="stroke:#000000;stroke-width:1;" x1="5" x2="5" y1="67.3984" y2="75.3984"/><line style="stroke:#000000;stroke-width:1;" x1="429" x2="429" y1="67.3984" y2="75.3984"/><line style="stroke:#000000;stroke-width:1;" x1="5" x2="5" y1="31.1328" y2="49.2656"/><line style="stroke:#000000;stroke-width:1;" x1="429" x2="429" y1="31.1328" y2="49.2656"/><?plantuml-src PP71IWCn48Rl-nG_zT9YisHtxHQ5GYrOyI2AU1CFMJEsmTsa95bggUrhUVV9J9Qs1nt87ER_ClbdCdLUMEz4xT4wicpHAaciLOm-LyeglKYsvmdGKpEXFt1lAbKJW9_la1wDqjxXIFO2Dvb4-8aaKIEgW5QY5lgDhe0i7tBEiV8kWhrdHJPKRqqjWNxNOnDQUTAI9Bn1oT4OxPTk4FdzFgJjMKYuRaohFRhumasyIGv6H-tqHgVbF2yP7xCYYren7FtJBbd1erR-rSQCPomR1MqNJXeT7yOLbkAg989pSfwzA-iyralIs9WMjfiT_VdT_66GddRoWaFCh5ax2jXQMEcErTTabqp3wF4ZaYHBexlquXS0?></g></svg>