<svg xmlns="http://www.w3.org/2000/svg" xmlns:xlink="http://www.w3.org/1999/xlink" contentStyleType="text/css" data-diagram-type="SALT" height="253px" preserveAspectRatio="none" style="width:734px;height:253px;background:#FFFFFF;" version="1.1" viewBox="0 0 734 253" width="734px" zoomAndPan="magnify"><?plantuml 1.2026.4?><defs/><g><rect fill="#DDDDDD" height="15.1328" style="stroke:#000000;stroke-width:1;" width="647" x="6" y="6"/><text fill="#000000" font-family="sans-serif" font-size="12" lengthAdjust="spacing" textLength="157.0605" x="6" y="17.6016">Program: ^RDB_REWARDS^</text><text fill="#000000" font-family="sans-serif" font-size="12" lengthAdjust="spacing" textLength="165.9492" x="173.0605" y="17.6016">Loyalty Admin &gt; Tier Ladder</text><text fill="#000000" font-family="sans-serif" font-size="12" lengthAdjust="spacing" textLength="22.6523" x="7" y="50.8672">Tier</text><text fill="#000000" font-family="sans-serif" font-size="12" lengthAdjust="spacing" textLength="42.7969" x="55.4355" y="50.8672">Ordinal</text><text fill="#000000" font-family="sans-serif" font-size="12" lengthAdjust="spacing" textLength="118.6992" x="100.2324" y="50.8672">Qualifying threshold</text><text fill="#000000" font-family="sans-serif" font-size="12" lengthAdjust="spacing" textLength="87.6563" x="220.9316" y="50.8672">Expiry override</text><text fill="#000000" font-family="sans-serif" font-size="12" lengthAdjust="spacing" textLength="46.4355" x="7" y="67">BRONZE</text><text fill="#000000" font-family="sans-serif" font-size="12" lengthAdjust="spacing" textLength="7.5879" x="55.4355" y="67">1</text><text fill="#000000" font-family="sans-serif" font-size="12" lengthAdjust="spacing" textLength="7.5879" x="100.2324" y="67">0</text><text fill="#000000" font-family="sans-serif" font-size="12" lengthAdjust="spacing" textLength="93.1816" x="220.9316" y="67">(inherits 24 mo)</text><text fill="#000000" font-family="sans-serif" font-size="12" lengthAdjust="spacing" textLength="38.2559" x="7" y="83.1328">SILVER</text><text fill="#000000" font-family="sans-serif" font-size="12" lengthAdjust="spacing" textLength="7.5879" x="55.4355" y="83.1328">2</text><text fill="#000000" font-family="sans-serif" font-size="12" lengthAdjust="spacing" textLength="37.9395" x="100.2324" y="83.1328">50000</text><text fill="#000000" font-family="sans-serif" font-size="12" lengthAdjust="spacing" textLength="63.0469" x="220.9316" y="83.1328">36 months</text><text fill="#000000" font-family="sans-serif" font-size="12" lengthAdjust="spacing" textLength="33.3809" x="7" y="99.2656">GOLD</text><text fill="#000000" font-family="sans-serif" font-size="12" lengthAdjust="spacing" textLength="7.5879" x="55.4355" y="99.2656">3</text><text fill="#000000" font-family="sans-serif" font-size="12" lengthAdjust="spacing" textLength="45.5273" x="100.2324" y="99.2656">200000</text><text fill="#000000" font-family="sans-serif" font-size="12" lengthAdjust="spacing" textLength="63.0469" x="220.9316" y="99.2656">60 months</text><line style="stroke:#000000;stroke-width:1;" x1="6" x2="54.4355" y1="38.2656" y2="38.2656"/><line style="stroke:#000000;stroke-width:1;" x1="99.2324" x2="219.9316" y1="70.5313" y2="70.5313"/><line style="stroke:#000000;stroke-width:1;" x1="54.4355" x2="99.2324" y1="38.2656" y2="38.2656"/><line style="stroke:#000000;stroke-width:1;" x1="219.9316" x2="315.1133" y1="70.5313" y2="70.5313"/><line style="stroke:#000000;stroke-width:1;" x1="99.2324" x2="219.9316" y1="38.2656" y2="38.2656"/><line style="stroke:#000000;stroke-width:1;" x1="219.9316" x2="315.1133" y1="38.2656" y2="38.2656"/><line style="stroke:#000000;stroke-width:1;" x1="6" x2="54.4355" y1="86.6641" y2="86.6641"/><line style="stroke:#000000;stroke-width:1;" x1="54.4355" x2="99.2324" y1="86.6641" y2="86.6641"/><line style="stroke:#000000;stroke-width:1;" x1="6" x2="54.4355" y1="54.3984" y2="54.3984"/><line style="stroke:#000000;stroke-width:1;" x1="99.2324" x2="219.9316" y1="86.6641" y2="86.6641"/><line style="stroke:#000000;stroke-width:1;" x1="54.4355" x2="99.2324" y1="54.3984" y2="54.3984"/><line style="stroke:#000000;stroke-width:1;" x1="219.9316" x2="315.1133" y1="86.6641" y2="86.6641"/><line style="stroke:#000000;stroke-width:1;" x1="99.2324" x2="219.9316" y1="54.3984" y2="54.3984"/><line style="stroke:#000000;stroke-width:1;" x1="219.9316" x2="315.1133" y1="54.3984" y2="54.3984"/><line style="stroke:#000000;stroke-width:1;" x1="6" x2="54.4355" y1="102.7969" y2="102.7969"/><line style="stroke:#000000;stroke-width:1;" x1="54.4355" x2="99.2324" y1="102.7969" y2="102.7969"/><line style="stroke:#000000;stroke-width:1;" x1="99.2324" x2="219.9316" y1="102.7969" y2="102.7969"/><line style="stroke:#000000;stroke-width:1;" x1="6" x2="54.4355" y1="70.5313" y2="70.5313"/><line style="stroke:#000000;stroke-width:1;" x1="219.9316" x2="315.1133" y1="102.7969" y2="102.7969"/><line style="stroke:#000000;stroke-width:1;" x1="54.4355" x2="99.2324" y1="70.5313" y2="70.5313"/><line style="stroke:#000000;stroke-width:1;" x1="6" x2="6" y1="38.2656" y2="54.3984"/><line style="stroke:#000000;stroke-width:1;" x1="99.2324" x2="99.2324" y1="70.5313" y2="86.6641"/><line style="stroke:#000000;stroke-width:1;" x1="54.4355" x2="54.4355" y1="38.2656" y2="54.3984"/><line style="stroke:#000000;stroke-width:1;" x1="219.9316" x2="219.9316" y1="70.5313" y2="86.6641"/><line style="stroke:#000000;stroke-width:1;" x1="315.1133" x2="315.1133" y1="70.5313" y2="86.6641"/><line style="stroke:#000000;stroke-width:1;" x1="99.2324" x2="99.2324" y1="38.2656" y2="54.3984"/><line style="stroke:#000000;stroke-width:1;" x1="219.9316" x2="219.9316" y1="38.2656" y2="54.3984"/><line style="stroke:#000000;stroke-width:1;" x1="315.1133" x2="315.1133" y1="38.2656" y2="54.3984"/><line style="stroke:#000000;stroke-width:1;" x1="6" x2="6" y1="86.6641" y2="102.7969"/><line style="stroke:#000000;stroke-width:1;" x1="54.4355" x2="54.4355" y1="86.6641" y2="102.7969"/><line style="stroke:#000000;stroke-width:1;" x1="6" x2="6" y1="54.3984" y2="70.5313"/><line style="stroke:#000000;stroke-width:1;" x1="99.2324" x2="99.2324" y1="86.6641" y2="102.7969"/><line style="stroke:#000000;stroke-width:1;" x1="54.4355" x2="54.4355" y1="54.3984" y2="70.5313"/><line style="stroke:#000000;stroke-width:1;" x1="219.9316" x2="219.9316" y1="86.6641" y2="102.7969"/><line style="stroke:#000000;stroke-width:1;" x1="315.1133" x2="315.1133" y1="86.6641" y2="102.7969"/><line style="stroke:#000000;stroke-width:1;" x1="99.2324" x2="99.2324" y1="54.3984" y2="70.5313"/><line style="stroke:#000000;stroke-width:1;" x1="219.9316" x2="219.9316" y1="54.3984" y2="70.5313"/><line style="stroke:#000000;stroke-width:1;" x1="315.1133" x2="315.1133" y1="54.3984" y2="70.5313"/><line style="stroke:#000000;stroke-width:1;" x1="6" x2="6" y1="70.5313" y2="86.6641"/><line style="stroke:#000000;stroke-width:1;" x1="54.4355" x2="54.4355" y1="70.5313" y2="86.6641"/><line style="stroke:#AAAAAA;stroke-width:1.5;" x1="6" x2="653" y1="108.2969" y2="108.2969"/><text fill="#000000" font-family="sans-serif" font-size="12" lengthAdjust="spacing" textLength="497.2734" x="9" y="124.3984">Threshold / benefit changes are economic &#8212; Submit raises a TIER_CHANGE approval.</text><line style="stroke:#000000;stroke-width:1;" x1="7" x2="650" y1="126.9297" y2="126.9297"/><line style="stroke:#000000;stroke-width:1;" x1="7" x2="7" y1="123.9297" y2="125.9297"/><line style="stroke:#000000;stroke-width:1;" x1="650" x2="650" y1="123.9297" y2="125.9297"/><line style="stroke:#AAAAAA;stroke-width:1;" x1="6" x2="653" y1="133.4297" y2="133.4297"/><line style="stroke:#AAAAAA;stroke-width:1;" x1="6" x2="653" y1="135.4297" y2="135.4297"/><text fill="#000000" font-family="sans-serif" font-size="12" lengthAdjust="spacing" textLength="102.5918" x="6" y="150.5313">Edit tier ^SILVER^</text><text fill="#000000" font-family="sans-serif" font-size="12" lengthAdjust="spacing" textLength="118.6992" x="6" y="182.7969">Qualifying threshold</text><text fill="#000000" font-family="sans-serif" font-size="12" lengthAdjust="spacing" textLength="37.9395" x="657" y="182.7969">40000</text><line style="stroke:#000000;stroke-width:1;" x1="655" x2="698" y1="185.3281" y2="185.3281"/><line style="stroke:#000000;stroke-width:1;" x1="655" x2="655" y1="182.3281" y2="184.3281"/><line style="stroke:#000000;stroke-width:1;" x1="698" x2="698" y1="182.3281" y2="184.3281"/><text fill="#000000" font-family="sans-serif" font-size="12" lengthAdjust="spacing" textLength="117.832" x="6" y="200.9297">Expiry override (mo)</text><text fill="#000000" font-family="sans-serif" font-size="12" lengthAdjust="spacing" textLength="15.1758" x="657" y="200.9297">36</text><line style="stroke:#000000;stroke-width:1;" x1="655" x2="674" y1="203.4609" y2="203.4609"/><line style="stroke:#000000;stroke-width:1;" x1="655" x2="655" y1="200.4609" y2="202.4609"/><line style="stroke:#000000;stroke-width:1;" x1="674" x2="674" y1="200.4609" y2="202.4609"/><rect fill="#EEEEEE" height="18.1328" rx="5" ry="5" style="stroke:#000000;stroke-width:2.5;" width="284" x="8.5" y="226.0938"/><text fill="#000000" font-family="sans-serif" font-size="12" lengthAdjust="spacing" textLength="207.4102" x="46.7949" y="239.6953">Submit for approval (TIER_CHANGE)</text><rect fill="#EEEEEE" height="18.1328" rx="5" ry="5" style="stroke:#000000;stroke-width:2.5;" width="68" x="656.5" y="226.0938"/><text fill="#000000" font-family="sans-serif" font-size="12" lengthAdjust="spacing" textLength="38.6777" x="671.1611" y="239.6953">Cancel</text><?plantuml-src TPBRJW8n48Rlzod-u0sOWCk2N9XWE6sGX8WkH1C9aC8MjibkIxgxHC8XFeHFw9Cu3OX6SIwcJV_vfZFJrkA4wIHcOO8qvZg_I8NFywd89u9hQsC1cqiyQBNGBBh1s6ir9fxxNFTQ_J6swAeraMlK_KX8t6904BhCzsdP4Lim_0MvWm92UjeNaeMqUqnPAEPh8HT80itZG8K-7RklIw7NK2kkDTLYu8RNktznIIlYO5lOE6DRP8KCk1P93AUCIEKCtUzqdroFHESKTcsJ_QLB5M9a4iG6Q_UwhSFfINViCzmM5ViRCrtlz-GoWrDFLvXooUSYmInWSi5ZCCt1PqggICpmyVQEVZgDIDTCn4R6eEDwa-PT_RxjWYsNMgrOMCXGscgLdEjJh7aWZ0_DZO-p_cUacRAfs-2_XeiipSW4b2gPOuhXLorpfKzN8_kZe1n6X0pHP7B6GuoidLNZqZT_oBAA1STsAeNo9m00?></g></svg>