<svg xmlns="http://www.w3.org/2000/svg" xmlns:xlink="http://www.w3.org/1999/xlink" contentStyleType="text/css" data-diagram-type="SALT" height="199px" preserveAspectRatio="none" style="width:435px;height:199px;background:#FFFFFF;" version="1.1" viewBox="0 0 435 199" width="435px" zoomAndPan="magnify"><?plantuml 1.2026.4?><defs/><g><text fill="#000000" font-family="sans-serif" font-size="12" lengthAdjust="spacing" textLength="149.4434" x="9" y="17.6016">HBP Mobile   &#183;   Rewards</text><line style="stroke:#000000;stroke-width:1;" x1="7" x2="218" y1="20.1328" y2="20.1328"/><line style="stroke:#000000;stroke-width:1;" x1="7" x2="7" y1="17.1328" y2="19.1328"/><line style="stroke:#000000;stroke-width:1;" x1="218" x2="218" y1="17.1328" y2="19.1328"/><line style="stroke:#AAAAAA;stroke-width:1;" x1="6" x2="429" y1="26.6328" y2="26.6328"/><line style="stroke:#AAAAAA;stroke-width:1;" x1="6" x2="429" y1="28.6328" y2="28.6328"/><text fill="#000000" font-family="sans-serif" font-size="12" lengthAdjust="spacing" textLength="132.8848" x="9" y="43.7344">Join RDB Core Rewards</text><line style="stroke:#000000;stroke-width:1;" x1="7" x2="178" y1="46.2656" y2="46.2656"/><line style="stroke:#000000;stroke-width:1;" x1="7" x2="7" y1="43.2656" y2="45.2656"/><line style="stroke:#000000;stroke-width:1;" x1="178" x2="178" y1="43.2656" y2="45.2656"/><text fill="#000000" font-family="sans-serif" font-size="12" lengthAdjust="spacing" textLength="301.459" x="9" y="78">Earn points on card spend, bill payments and more.</text><line style="stroke:#000000;stroke-width:1;" x1="7" x2="410" y1="80.5313" y2="80.5313"/><line style="stroke:#000000;stroke-width:1;" x1="7" x2="7" y1="77.5313" y2="79.5313"/><line style="stroke:#000000;stroke-width:1;" x1="410" x2="410" y1="77.5313" y2="79.5313"/><text fill="#000000" font-family="sans-serif" font-size="12" lengthAdjust="spacing" textLength="285.0586" x="9" y="96.1328">Redeem for cashback, vouchers and prize draws.</text><line style="stroke:#000000;stroke-width:1;" x1="7" x2="378" y1="98.6641" y2="98.6641"/><line style="stroke:#000000;stroke-width:1;" x1="7" x2="7" y1="95.6641" y2="97.6641"/><line style="stroke:#000000;stroke-width:1;" x1="378" x2="378" y1="95.6641" y2="97.6641"/><line style="stroke:#AAAAAA;stroke-width:1.5;" x1="6" x2="429" y1="106.1641" y2="106.1641"/><text fill="#000000" font-family="sans-serif" font-size="12" lengthAdjust="spacing" textLength="220.9805" x="26" y="122.2656">"I accept the Terms &amp; Conditions (v1)"</text><rect fill="none" height="10" style="stroke:#000000;stroke-width:1.5;" width="10" x="8" y="112.7305"/><polygon fill="#000000" points="9,116.6641,12,119.6641,19,110.6641,12,117.6641" style="stroke:#000000;stroke-width:1.5;stroke-linejoin:miter;stroke-miterlimit:10;"/><rect fill="#EEEEEE" height="18.1328" rx="5" ry="5" style="stroke:#000000;stroke-width:2.5;" width="196" x="8.5" y="145.4297"/><text fill="#000000" font-family="sans-serif" font-size="12" lengthAdjust="spacing" textLength="49.8809" x="81.5596" y="159.0313">Join now</text><line style="stroke:#AAAAAA;stroke-width:1;" x1="6" x2="429" y1="170.5625" y2="170.5625"/><line style="stroke:#AAAAAA;stroke-width:1;" x1="6" x2="429" y1="172.5625" y2="172.5625"/><text fill="#000000" font-family="sans-serif" font-size="12" lengthAdjust="spacing" textLength="312.498" x="9" y="187.6641">After joining: you're a BRONZE member with 0 points.</text><line style="stroke:#000000;stroke-width:1;" x1="7" x2="426" y1="190.1953" y2="190.1953"/><line style="stroke:#000000;stroke-width:1;" x1="7" x2="7" y1="187.1953" y2="189.1953"/><line style="stroke:#000000;stroke-width:1;" x1="426" x2="426" y1="187.1953" y2="189.1953"/><line style="stroke:#000000;stroke-width:1;" x1="5" x2="429" y1="5" y2="5"/><line style="stroke:#000000;stroke-width:1;" x1="5" x2="429" y1="193.1953" y2="193.1953"/><line style="stroke:#000000;stroke-width:1;" x1="5" x2="5" y1="5" y2="23.1328"/><line style="stroke:#000000;stroke-width:1;" x1="429" x2="429" y1="5" y2="23.1328"/><line style="stroke:#000000;stroke-width:1;" x1="5" x2="5" y1="175.0625" y2="193.1953"/><line style="stroke:#000000;stroke-width:1;" x1="429" x2="429" y1="175.0625" y2="193.1953"/><line style="stroke:#000000;stroke-width:1;" x1="5" x2="5" y1="141.9297" y2="167.0625"/><line style="stroke:#000000;stroke-width:1;" x1="429" x2="429" y1="141.9297" y2="167.0625"/><line style="stroke:#000000;stroke-width:1;" x1="5" x2="5" y1="109.6641" y2="125.7969"/><line style="stroke:#000000;stroke-width:1;" x1="429" x2="429" y1="109.6641" y2="125.7969"/><line style="stroke:#000000;stroke-width:1;" x1="5" x2="5" y1="83.5313" y2="101.6641"/><line style="stroke:#000000;stroke-width:1;" x1="429" x2="429" y1="83.5313" y2="101.6641"/><line style="stroke:#000000;stroke-width:1;" x1="5" x2="5" y1="49.2656" y2="65.3984"/><line style="stroke:#000000;stroke-width:1;" x1="429" x2="429" y1="49.2656" y2="65.3984"/><line style="stroke:#000000;stroke-width:1;" x1="5" x2="5" y1="23.1328" y2="31.1328"/><line style="stroke:#000000;stroke-width:1;" x1="429" x2="429" y1="23.1328" y2="31.1328"/><line style="stroke:#000000;stroke-width:1;" x1="5" x2="5" y1="167.0625" y2="175.0625"/><line style="stroke:#000000;stroke-width:1;" x1="429" x2="429" y1="167.0625" y2="175.0625"/><line style="stroke:#000000;stroke-width:1;" x1="5" x2="5" y1="125.7969" y2="141.9297"/><line style="stroke:#000000;stroke-width:1;" x1="429" x2="429" y1="125.7969" y2="141.9297"/><line style="stroke:#000000;stroke-width:1;" x1="5" x2="5" y1="101.6641" y2="109.6641"/><line style="stroke:#000000;stroke-width:1;" x1="429" x2="429" y1="101.6641" y2="109.6641"/><line style="stroke:#000000;stroke-width:1;" x1="5" x2="5" y1="65.3984" y2="83.5313"/><line style="stroke:#000000;stroke-width:1;" x1="429" x2="429" y1="65.3984" y2="83.5313"/><line style="stroke:#000000;stroke-width:1;" x1="5" x2="5" y1="31.1328" y2="49.2656"/><line style="stroke:#000000;stroke-width:1;" x1="429" x2="429" y1="31.1328" y2="49.2656"/><?plantuml-src JP3DIiD058NtUOf35lvW4zeYBeH2ZNQXe49mKInTJ3AtpTXcPfYPD5Inh-NU9_Ecjk8iBWpVEPTpxjW7uO8Nwu36aqkMZPAKD2enDYWTVLn4GAmoeLTuD8LQ4u3lBnuvjS997pCVZJhHWr4Q-Ls6M-FeFquxEX5Emx8aU1YDaY6y9IrxuArhMB6jgOD2IzIy8UsiSKwIgCR2EBRugX3bgeUDQSgAtA_MElLEa4wqVc_PxNZCfdF4zn1bIJOWL8GNShN72OVJKWLbjCVPPd1-p3V3uUrRQDCU__E_VZUBG0vlp9LUNcDhcbFkAP3bpq-l4zHK5ynR5Ihq3qqvq6SqvfBTVQDea0xxmwlqyWS0?></g></svg>