<svg xmlns="http://www.w3.org/2000/svg" xmlns:xlink="http://www.w3.org/1999/xlink" contentStyleType="text/css" data-diagram-type="SALT" height="757px" preserveAspectRatio="none" style="width:1065px;height:757px;background:#FFFFFF;" version="1.1" viewBox="0 0 1065 757" width="1065px" zoomAndPan="magnify"><?plantuml 1.2026.4?><defs/><g><rect fill="#DDDDDD" height="15.1328" style="stroke:#000000;stroke-width:1;" width="551" x="6" y="6"/><text fill="#000000" font-family="sans-serif" font-size="12" lengthAdjust="spacing" textLength="20.0566" x="6" y="17.6016">File</text><text fill="#000000" font-family="sans-serif" font-size="12" lengthAdjust="spacing" textLength="22.0137" x="36.0566" y="17.6016">Edit</text><text fill="#000000" font-family="sans-serif" font-size="12" lengthAdjust="spacing" textLength="27.2461" x="68.0703" y="17.6016">View</text><text fill="#000000" font-family="sans-serif" font-size="12" lengthAdjust="spacing" textLength="157.0605" x="105.3164" y="17.6016">Program: ^RDB_REWARDS^</text><text fill="#000000" font-family="sans-serif" font-size="12" lengthAdjust="spacing" textLength="395.0156" x="9" y="49.8672">Loyalty Admin   &gt;   Earning Rules   &gt;   Dining &amp; Grocery Accelerator</text><line style="stroke:#000000;stroke-width:1;" x1="7" x2="554" y1="52.3984" y2="52.3984"/><line style="stroke:#000000;stroke-width:1;" x1="7" x2="7" y1="49.3984" y2="51.3984"/><line style="stroke:#000000;stroke-width:1;" x1="554" x2="554" y1="49.3984" y2="51.3984"/><text fill="#000000" font-family="sans-serif" font-size="12" lengthAdjust="spacing" textLength="60.9492" x="7" y="85.1328">Rule name</text><text fill="#000000" font-family="sans-serif" font-size="12" lengthAdjust="spacing" textLength="168.7441" x="92.707" y="85.1328">Dining &amp; Grocery Accelerator</text><line style="stroke:#000000;stroke-width:1;" x1="90.707" x2="501.707" y1="87.6641" y2="87.6641"/><line style="stroke:#000000;stroke-width:1;" x1="90.707" x2="90.707" y1="84.6641" y2="86.6641"/><line style="stroke:#000000;stroke-width:1;" x1="501.707" x2="501.707" y1="84.6641" y2="86.6641"/><text fill="#000000" font-family="sans-serif" font-size="12" lengthAdjust="spacing" textLength="67.9629" x="7" y="119.3984">Earn source</text><rect fill="#EEEEEE" height="17.1328" style="stroke:#000000;stroke-width:1;" width="95" x="89.707" y="107.7969"/><text fill="#000000" font-family="sans-serif" font-size="12" lengthAdjust="spacing" textLength="76.6113" x="91.707" y="121.3984">CARD_SPEND</text><line style="stroke:#000000;stroke-width:1;" x1="173.707" x2="173.707" y1="107.7969" y2="124.9297"/><polygon fill="#000000" points="176.707,113.7969,182.707,113.7969,179.707,119.9297" style="stroke:#000000;stroke-width:1;stroke-linejoin:miter;stroke-miterlimit:10;"/><text fill="#000000" font-family="sans-serif" font-size="12" lengthAdjust="spacing" textLength="35.6309" x="7" y="139.5313">Status</text><text fill="#000000" font-family="sans-serif" font-size="12" lengthAdjust="spacing" textLength="71.6602" x="92.707" y="139.5313">DRAFT  &#183;  v3</text><line style="stroke:#000000;stroke-width:1;" x1="90.707" x2="501.707" y1="142.0625" y2="142.0625"/><line style="stroke:#000000;stroke-width:1;" x1="90.707" x2="90.707" y1="139.0625" y2="141.0625"/><line style="stroke:#000000;stroke-width:1;" x1="501.707" x2="501.707" y1="139.0625" y2="141.0625"/><text fill="#000000" font-family="sans-serif" font-size="12" lengthAdjust="spacing" textLength="80.707" x="7" y="173.7969">Effective from</text><text fill="#000000" font-family="sans-serif" font-size="12" lengthAdjust="spacing" textLength="74.5898" x="92.707" y="173.7969">2026-06-01</text><line style="stroke:#000000;stroke-width:1;" x1="90.707" x2="501.707" y1="176.3281" y2="176.3281"/><line style="stroke:#000000;stroke-width:1;" x1="90.707" x2="90.707" y1="173.3281" y2="175.3281"/><line style="stroke:#000000;stroke-width:1;" x1="501.707" x2="501.707" y1="173.3281" y2="175.3281"/><text fill="#000000" font-family="sans-serif" font-size="12" lengthAdjust="spacing" textLength="64.6699" x="7" y="191.9297">Effective to</text><text fill="#000000" font-family="sans-serif" font-size="12" lengthAdjust="spacing" textLength="74.5898" x="92.707" y="191.9297">2026-12-31</text><line style="stroke:#000000;stroke-width:1;" x1="90.707" x2="501.707" y1="194.4609" y2="194.4609"/><line style="stroke:#000000;stroke-width:1;" x1="90.707" x2="90.707" y1="191.4609" y2="193.4609"/><line style="stroke:#000000;stroke-width:1;" x1="501.707" x2="501.707" y1="191.4609" y2="193.4609"/><line style="stroke:#AAAAAA;stroke-width:1;" x1="6" x2="557" y1="201.9609" y2="201.9609"/><line style="stroke:#AAAAAA;stroke-width:1;" x1="6" x2="557" y1="203.9609" y2="203.9609"/><text fill="#000000" font-family="sans-serif" font-size="12" lengthAdjust="spacing" textLength="415.4883" x="6" y="235.1953">Hit policy ^FIRST^        Rounding ^FLOOR^        [X] Apply tier multiplier</text><text fill="#000000" font-family="sans-serif" font-size="12" lengthAdjust="spacing" textLength="7.5879" x="7" y="268.4609">#</text><text fill="#000000" font-family="sans-serif" font-size="12" lengthAdjust="spacing" textLength="58.1191" x="16.5879" y="268.4609">when mcc</text><text fill="#000000" font-family="sans-serif" font-size="12" lengthAdjust="spacing" textLength="84.5859" x="109.4023" y="268.4609">when currency</text><text fill="#000000" font-family="sans-serif" font-size="12" lengthAdjust="spacing" textLength="79.207" x="195.9883" y="268.4609">when amount</text><text fill="#000000" font-family="sans-serif" font-size="12" lengthAdjust="spacing" textLength="25.6699" x="277.1953" y="268.4609">earn</text><text fill="#000000" font-family="sans-serif" font-size="12" lengthAdjust="spacing" textLength="19.1484" x="309.1543" y="268.4609">per</text><text fill="#000000" font-family="sans-serif" font-size="12" lengthAdjust="spacing" textLength="36.4453" x="330.3027" y="268.4609">points</text><text fill="#000000" font-family="sans-serif" font-size="12" lengthAdjust="spacing" textLength="7.5879" x="7" y="284.5938">1</text><text fill="#000000" font-family="sans-serif" font-size="12" lengthAdjust="spacing" textLength="90.8145" x="16.5879" y="284.5938">in [5812, 5813]</text><text fill="#000000" font-family="sans-serif" font-size="16" font-weight="700" lengthAdjust="spacing" textLength="33.6094" x="109.4023" y="288.4609">USD</text><text fill="#000000" font-family="sans-serif" font-size="12" lengthAdjust="spacing" textLength="29.959" x="277.1953" y="284.5938">RATE</text><text fill="#000000" font-family="sans-serif" font-size="12" lengthAdjust="spacing" textLength="7.5879" x="309.1543" y="284.5938">1</text><text fill="#000000" font-family="sans-serif" font-size="12" lengthAdjust="spacing" textLength="7.5879" x="330.3027" y="284.5938">3</text><text fill="#000000" font-family="sans-serif" font-size="12" lengthAdjust="spacing" textLength="7.5879" x="7" y="305.4375">2</text><text fill="#000000" font-family="sans-serif" font-size="12" lengthAdjust="spacing" textLength="90.8145" x="16.5879" y="305.4375">in [5411, 5422]</text><text fill="#000000" font-family="sans-serif" font-size="16" font-weight="700" lengthAdjust="spacing" textLength="33.6094" x="109.4023" y="309.3047">USD</text><text fill="#000000" font-family="sans-serif" font-size="12" lengthAdjust="spacing" textLength="29.959" x="277.1953" y="305.4375">RATE</text><text fill="#000000" font-family="sans-serif" font-size="12" lengthAdjust="spacing" textLength="7.5879" x="309.1543" y="305.4375">1</text><text fill="#000000" font-family="sans-serif" font-size="12" lengthAdjust="spacing" textLength="7.5879" x="330.3027" y="305.4375">2</text><text fill="#000000" font-family="sans-serif" font-size="12" lengthAdjust="spacing" textLength="7.5879" x="7" y="326.2813">3</text><text fill="#000000" font-family="sans-serif" font-size="16" font-weight="700" lengthAdjust="spacing" textLength="33.6094" x="109.4023" y="330.1484">USD</text><text fill="#000000" font-family="sans-serif" font-size="12" lengthAdjust="spacing" textLength="30.4629" x="195.9883" y="326.2813">&gt;= 1</text><text fill="#000000" font-family="sans-serif" font-size="12" lengthAdjust="spacing" textLength="29.959" x="277.1953" y="326.2813">RATE</text><text fill="#000000" font-family="sans-serif" font-size="12" lengthAdjust="spacing" textLength="7.5879" x="309.1543" y="326.2813">1</text><text fill="#000000" font-family="sans-serif" font-size="12" lengthAdjust="spacing" textLength="7.5879" x="330.3027" y="326.2813">1</text><line style="stroke:#000000;stroke-width:1;" x1="6" x2="15.5879" y1="255.8594" y2="255.8594"/><line style="stroke:#000000;stroke-width:1;" x1="276.1953" x2="308.1543" y1="334.5234" y2="334.5234"/><line style="stroke:#000000;stroke-width:1;" x1="15.5879" x2="108.4023" y1="255.8594" y2="255.8594"/><line style="stroke:#000000;stroke-width:1;" x1="308.1543" x2="329.3027" y1="334.5234" y2="334.5234"/><line style="stroke:#000000;stroke-width:1;" x1="108.4023" x2="194.9883" y1="255.8594" y2="255.8594"/><line style="stroke:#000000;stroke-width:1;" x1="329.3027" x2="367.748" y1="334.5234" y2="334.5234"/><line style="stroke:#000000;stroke-width:1;" x1="194.9883" x2="276.1953" y1="255.8594" y2="255.8594"/><line style="stroke:#000000;stroke-width:1;" x1="276.1953" x2="308.1543" y1="255.8594" y2="255.8594"/><line style="stroke:#000000;stroke-width:1;" x1="308.1543" x2="329.3027" y1="255.8594" y2="255.8594"/><line style="stroke:#000000;stroke-width:1;" x1="329.3027" x2="367.748" y1="255.8594" y2="255.8594"/><line style="stroke:#000000;stroke-width:1;" x1="6" x2="15.5879" y1="313.6797" y2="313.6797"/><line style="stroke:#000000;stroke-width:1;" x1="15.5879" x2="108.4023" y1="313.6797" y2="313.6797"/><line style="stroke:#000000;stroke-width:1;" x1="108.4023" x2="194.9883" y1="313.6797" y2="313.6797"/><line style="stroke:#000000;stroke-width:1;" x1="194.9883" x2="276.1953" y1="313.6797" y2="313.6797"/><line style="stroke:#000000;stroke-width:1;" x1="276.1953" x2="308.1543" y1="313.6797" y2="313.6797"/><line style="stroke:#000000;stroke-width:1;" x1="308.1543" x2="329.3027" y1="313.6797" y2="313.6797"/><line style="stroke:#000000;stroke-width:1;" x1="329.3027" x2="367.748" y1="313.6797" y2="313.6797"/><line style="stroke:#000000;stroke-width:1;" x1="6" x2="15.5879" y1="292.8359" y2="292.8359"/><line style="stroke:#000000;stroke-width:1;" x1="15.5879" x2="108.4023" y1="292.8359" y2="292.8359"/><line style="stroke:#000000;stroke-width:1;" x1="108.4023" x2="194.9883" y1="292.8359" y2="292.8359"/><line style="stroke:#000000;stroke-width:1;" x1="194.9883" x2="276.1953" y1="292.8359" y2="292.8359"/><line style="stroke:#000000;stroke-width:1;" x1="276.1953" x2="308.1543" y1="292.8359" y2="292.8359"/><line style="stroke:#000000;stroke-width:1;" x1="308.1543" x2="329.3027" y1="292.8359" y2="292.8359"/><line style="stroke:#000000;stroke-width:1;" x1="329.3027" x2="367.748" y1="292.8359" y2="292.8359"/><line style="stroke:#000000;stroke-width:1;" x1="6" x2="15.5879" y1="271.9922" y2="271.9922"/><line style="stroke:#000000;stroke-width:1;" x1="15.5879" x2="108.4023" y1="271.9922" y2="271.9922"/><line style="stroke:#000000;stroke-width:1;" x1="108.4023" x2="194.9883" y1="271.9922" y2="271.9922"/><line style="stroke:#000000;stroke-width:1;" x1="194.9883" x2="276.1953" y1="271.9922" y2="271.9922"/><line style="stroke:#000000;stroke-width:1;" x1="276.1953" x2="308.1543" y1="271.9922" y2="271.9922"/><line style="stroke:#000000;stroke-width:1;" x1="308.1543" x2="329.3027" y1="271.9922" y2="271.9922"/><line style="stroke:#000000;stroke-width:1;" x1="329.3027" x2="367.748" y1="271.9922" y2="271.9922"/><line style="stroke:#000000;stroke-width:1;" x1="6" x2="15.5879" y1="334.5234" y2="334.5234"/><line style="stroke:#000000;stroke-width:1;" x1="15.5879" x2="108.4023" y1="334.5234" y2="334.5234"/><line style="stroke:#000000;stroke-width:1;" x1="108.4023" x2="194.9883" y1="334.5234" y2="334.5234"/><line style="stroke:#000000;stroke-width:1;" x1="194.9883" x2="276.1953" y1="334.5234" y2="334.5234"/><line style="stroke:#000000;stroke-width:1;" x1="6" x2="6" y1="255.8594" y2="271.9922"/><line style="stroke:#000000;stroke-width:1;" x1="15.5879" x2="15.5879" y1="255.8594" y2="271.9922"/><line style="stroke:#000000;stroke-width:1;" x1="108.4023" x2="108.4023" y1="255.8594" y2="271.9922"/><line style="stroke:#000000;stroke-width:1;" x1="194.9883" x2="194.9883" y1="255.8594" y2="271.9922"/><line style="stroke:#000000;stroke-width:1;" x1="276.1953" x2="276.1953" y1="255.8594" y2="271.9922"/><line style="stroke:#000000;stroke-width:1;" x1="308.1543" x2="308.1543" y1="255.8594" y2="271.9922"/><line style="stroke:#000000;stroke-width:1;" x1="329.3027" x2="329.3027" y1="255.8594" y2="271.9922"/><line style="stroke:#000000;stroke-width:1;" x1="367.748" x2="367.748" y1="255.8594" y2="271.9922"/><line style="stroke:#000000;stroke-width:1;" x1="6" x2="6" y1="313.6797" y2="334.5234"/><line style="stroke:#000000;stroke-width:1;" x1="108.4023" x2="108.4023" y1="313.6797" y2="334.5234"/><line style="stroke:#000000;stroke-width:1;" x1="194.9883" x2="194.9883" y1="313.6797" y2="334.5234"/><line style="stroke:#000000;stroke-width:1;" x1="276.1953" x2="276.1953" y1="313.6797" y2="334.5234"/><line style="stroke:#000000;stroke-width:1;" x1="308.1543" x2="308.1543" y1="313.6797" y2="334.5234"/><line style="stroke:#000000;stroke-width:1;" x1="329.3027" x2="329.3027" y1="313.6797" y2="334.5234"/><line style="stroke:#000000;stroke-width:1;" x1="367.748" x2="367.748" y1="313.6797" y2="334.5234"/><line style="stroke:#000000;stroke-width:1;" x1="6" x2="6" y1="292.8359" y2="313.6797"/><line style="stroke:#000000;stroke-width:1;" x1="15.5879" x2="15.5879" y1="292.8359" y2="313.6797"/><line style="stroke:#000000;stroke-width:1;" x1="108.4023" x2="108.4023" y1="292.8359" y2="313.6797"/><line style="stroke:#000000;stroke-width:1;" x1="276.1953" x2="276.1953" y1="292.8359" y2="313.6797"/><line style="stroke:#000000;stroke-width:1;" x1="308.1543" x2="308.1543" y1="292.8359" y2="313.6797"/><line style="stroke:#000000;stroke-width:1;" x1="329.3027" x2="329.3027" y1="292.8359" y2="313.6797"/><line style="stroke:#000000;stroke-width:1;" x1="367.748" x2="367.748" y1="292.8359" y2="313.6797"/><line style="stroke:#000000;stroke-width:1;" x1="6" x2="6" y1="271.9922" y2="292.8359"/><line style="stroke:#000000;stroke-width:1;" x1="15.5879" x2="15.5879" y1="271.9922" y2="292.8359"/><line style="stroke:#000000;stroke-width:1;" x1="108.4023" x2="108.4023" y1="271.9922" y2="292.8359"/><line style="stroke:#000000;stroke-width:1;" x1="276.1953" x2="276.1953" y1="271.9922" y2="292.8359"/><line style="stroke:#000000;stroke-width:1;" x1="308.1543" x2="308.1543" y1="271.9922" y2="292.8359"/><line style="stroke:#000000;stroke-width:1;" x1="329.3027" x2="329.3027" y1="271.9922" y2="292.8359"/><line style="stroke:#000000;stroke-width:1;" x1="367.748" x2="367.748" y1="271.9922" y2="292.8359"/><rect fill="#EEEEEE" height="18.1328" rx="5" ry="5" style="stroke:#000000;stroke-width:2.5;" width="92" x="8.5" y="355.1563"/><text fill="#000000" font-family="sans-serif" font-size="12" lengthAdjust="spacing" textLength="62.0449" x="23.4775" y="368.7578">+ Add row</text><rect fill="#EEEEEE" height="18.1328" rx="5" ry="5" style="stroke:#000000;stroke-width:2.5;" width="84" x="560.5" y="355.1563"/><text fill="#000000" font-family="sans-serif" font-size="12" lengthAdjust="spacing" textLength="56.4844" x="574.2578" y="368.7578">- Remove</text><rect fill="#EEEEEE" height="18.1328" rx="5" ry="5" style="stroke:#000000;stroke-width:2.5;" width="76" x="880.5" y="355.1563"/><text fill="#000000" font-family="sans-serif" font-size="12" lengthAdjust="spacing" textLength="49.4004" x="893.7998" y="368.7578">Move up</text><rect fill="#EEEEEE" height="18.1328" rx="5" ry="5" style="stroke:#000000;stroke-width:2.5;" width="92" x="963.5" y="355.1563"/><text fill="#000000" font-family="sans-serif" font-size="12" lengthAdjust="spacing" textLength="66.0176" x="976.4912" y="368.7578">Move down</text><line style="stroke:#AAAAAA;stroke-width:1;" x1="6" x2="557" y1="380.2891" y2="380.2891"/><line style="stroke:#AAAAAA;stroke-width:1;" x1="6" x2="557" y1="382.2891" y2="382.2891"/><text fill="#000000" font-family="sans-serif" font-size="12" lengthAdjust="spacing" textLength="28.5996" x="6" y="413.5234">Caps</text><text fill="#000000" font-family="sans-serif" font-size="12" lengthAdjust="spacing" textLength="74.8066" x="7" y="430.6563">perEventMax</text><text fill="#000000" font-family="sans-serif" font-size="12" lengthAdjust="spacing" textLength="22.7637" x="133.8398" y="430.6563">500</text><line style="stroke:#000000;stroke-width:1;" x1="131.8398" x2="414.8398" y1="433.1875" y2="433.1875"/><line style="stroke:#000000;stroke-width:1;" x1="131.8398" x2="131.8398" y1="430.1875" y2="432.1875"/><line style="stroke:#000000;stroke-width:1;" x1="414.8398" x2="414.8398" y1="430.1875" y2="432.1875"/><text fill="#000000" font-family="sans-serif" font-size="12" lengthAdjust="spacing" textLength="106.6348" x="7" y="448.7891">perMemberPerDay</text><text fill="#000000" font-family="sans-serif" font-size="12" lengthAdjust="spacing" textLength="30.3516" x="133.8398" y="448.7891">1000</text><line style="stroke:#000000;stroke-width:1;" x1="131.8398" x2="414.8398" y1="451.3203" y2="451.3203"/><line style="stroke:#000000;stroke-width:1;" x1="131.8398" x2="131.8398" y1="448.3203" y2="450.3203"/><line style="stroke:#000000;stroke-width:1;" x1="414.8398" x2="414.8398" y1="448.3203" y2="450.3203"/><text fill="#000000" font-family="sans-serif" font-size="12" lengthAdjust="spacing" textLength="121.8398" x="7" y="483.0547">perMemberPerMonth</text><text fill="#000000" font-family="sans-serif" font-size="12" lengthAdjust="spacing" textLength="3.7969" x="133.8398" y="483.0547">&#160;</text><line style="stroke:#000000;stroke-width:1;" x1="131.8398" x2="422.8398" y1="485.5859" y2="485.5859"/><line style="stroke:#000000;stroke-width:1;" x1="131.8398" x2="131.8398" y1="482.5859" y2="484.5859"/><line style="stroke:#000000;stroke-width:1;" x1="422.8398" x2="422.8398" y1="482.5859" y2="484.5859"/><text fill="#000000" font-family="sans-serif" font-size="12" lengthAdjust="spacing" textLength="109.9395" x="7" y="501.1875">perMemberPerRule</text><text fill="#000000" font-family="sans-serif" font-size="12" lengthAdjust="spacing" textLength="3.7969" x="133.8398" y="501.1875">&#160;</text><line style="stroke:#000000;stroke-width:1;" x1="131.8398" x2="422.8398" y1="503.7188" y2="503.7188"/><line style="stroke:#000000;stroke-width:1;" x1="131.8398" x2="131.8398" y1="500.7188" y2="502.7188"/><line style="stroke:#000000;stroke-width:1;" x1="422.8398" x2="422.8398" y1="500.7188" y2="502.7188"/><line style="stroke:#AAAAAA;stroke-width:1.5;" x1="6" x2="557" y1="512.2188" y2="512.2188"/><text fill="#000000" font-family="sans-serif" font-size="12" lengthAdjust="spacing" textLength="82.3125" x="8" y="544.4531">Decision table</text><line style="stroke:#000000;stroke-width:1;" x1="6" x2="6" y1="532.8516" y2="546.9844"/><line style="stroke:#000000;stroke-width:1;" x1="6" x2="93.3125" y1="532.8516" y2="532.8516"/><line style="stroke:#000000;stroke-width:1;" x1="93.3125" x2="93.3125" y1="532.8516" y2="546.9844"/><line style="stroke:#000000;stroke-width:1;" x1="93.3125" x2="103.3125" y1="546.9844" y2="546.9844"/><text fill="#000000" font-family="sans-serif" font-size="12" lengthAdjust="spacing" textLength="122.0918" x="105.3125" y="544.4531">Raw JSON (advanced)</text><line style="stroke:#000000;stroke-width:1;" x1="103.3125" x2="103.3125" y1="532.8516" y2="546.9844"/><line style="stroke:#000000;stroke-width:1;" x1="103.3125" x2="230.4043" y1="532.8516" y2="532.8516"/><line style="stroke:#000000;stroke-width:1;" x1="230.4043" x2="230.4043" y1="532.8516" y2="546.9844"/><line style="stroke:#000000;stroke-width:1;" x1="230.4043" x2="240.4043" y1="546.9844" y2="546.9844"/><rect fill="#EEEEEE" height="18.1328" rx="5" ry="5" style="stroke:#000000;stroke-width:2.5;" width="204" x="8.5" y="567.6172"/><text fill="#000000" font-family="sans-serif" font-size="12" lengthAdjust="spacing" textLength="140.8418" x="40.0791" y="581.2188">Validate against schema</text><text fill="#000000" font-family="sans-serif" font-size="12" lengthAdjust="spacing" textLength="134.8594" x="561" y="576.7188">schema: OK &#8212; 0 errors</text><line style="stroke:#000000;stroke-width:1;" x1="559" x2="874" y1="579.25" y2="579.25"/><line style="stroke:#000000;stroke-width:1;" x1="559" x2="559" y1="576.25" y2="578.25"/><line style="stroke:#000000;stroke-width:1;" x1="874" x2="874" y1="576.25" y2="578.25"/><line style="stroke:#AAAAAA;stroke-width:1.5;" x1="6" x2="557" y1="593.75" y2="593.75"/><text fill="#000000" font-family="sans-serif" font-size="12" lengthAdjust="spacing" textLength="296.5664" x="6" y="625.9844">Dry-run  replay ^last 30 days^        [ Run dry-run ]</text><text fill="#000000" font-family="sans-serif" font-size="12" lengthAdjust="spacing" textLength="90.7148" x="7" y="659.25">Matched events</text><text fill="#000000" font-family="sans-serif" font-size="12" lengthAdjust="spacing" textLength="41.7363" x="102.7148" y="659.25">12,403</text><line style="stroke:#000000;stroke-width:1;" x1="100.7148" x2="391.7148" y1="661.7813" y2="661.7813"/><line style="stroke:#000000;stroke-width:1;" x1="100.7148" x2="100.7148" y1="658.7813" y2="660.7813"/><line style="stroke:#000000;stroke-width:1;" x1="391.7148" x2="391.7148" y1="658.7813" y2="660.7813"/><text fill="#000000" font-family="sans-serif" font-size="12" lengthAdjust="spacing" textLength="35.5254" x="7" y="677.3828">Points</text><text fill="#000000" font-family="sans-serif" font-size="12" lengthAdjust="spacing" textLength="36.8965" x="102.7148" y="677.3828">1.84M</text><line style="stroke:#000000;stroke-width:1;" x1="100.7148" x2="391.7148" y1="679.9141" y2="679.9141"/><line style="stroke:#000000;stroke-width:1;" x1="100.7148" x2="100.7148" y1="676.9141" y2="678.9141"/><line style="stroke:#000000;stroke-width:1;" x1="391.7148" x2="391.7148" y1="676.9141" y2="678.9141"/><text fill="#000000" font-family="sans-serif" font-size="12" lengthAdjust="spacing" textLength="48.8262" x="7" y="695.5156">Est. cost</text><text fill="#000000" font-family="sans-serif" font-size="12" lengthAdjust="spacing" textLength="41.7363" x="102.7148" y="695.5156">$1,840</text><line style="stroke:#000000;stroke-width:1;" x1="100.7148" x2="391.7148" y1="698.0469" y2="698.0469"/><line style="stroke:#000000;stroke-width:1;" x1="100.7148" x2="100.7148" y1="695.0469" y2="697.0469"/><line style="stroke:#000000;stroke-width:1;" x1="391.7148" x2="391.7148" y1="695.0469" y2="697.0469"/><line style="stroke:#AAAAAA;stroke-width:1;" x1="6" x2="557" y1="705.5469" y2="705.5469"/><line style="stroke:#AAAAAA;stroke-width:1;" x1="6" x2="557" y1="707.5469" y2="707.5469"/><rect fill="#EEEEEE" height="18.1328" rx="5" ry="5" style="stroke:#000000;stroke-width:2.5;" width="100" x="8.5" y="729.6797"/><text fill="#000000" font-family="sans-serif" font-size="12" lengthAdjust="spacing" textLength="57.7734" x="29.6133" y="743.2813">Save draft</text><rect fill="#EEEEEE" height="18.1328" rx="5" ry="5" style="stroke:#000000;stroke-width:2.5;" width="172" x="560.5" y="729.6797"/><text fill="#000000" font-family="sans-serif" font-size="12" lengthAdjust="spacing" textLength="115.2305" x="588.8848" y="743.2813">Submit for approval</text><rect fill="#EEEEEE" height="18.1328" rx="5" ry="5" style="stroke:#000000;stroke-width:2.5;" width="68" x="880.5" y="729.6797"/><text fill="#000000" font-family="sans-serif" font-size="12" lengthAdjust="spacing" textLength="38.6777" x="895.1611" y="743.2813">Cancel</text><?plantuml-src dLLhRjf04FxFAKQagjeqKDkGAef4L1f3No4WEqqh8Hnjx2LPoTwrrckebOTwYDwb_tkKdgIpYo6EahRG5Tx7UEQRyNopm-jC4Qao4glQLGtWQXlwBAPm3Rs8ALnE6PtZCfBYGf9a7mBFVNFczJvtFTSFu0PDclZKZqI140LqeuHn03Z0fqSaP_m2l3ocMIbpcH4zXRTIX5IYGHZIc4gYXAoNO3eEC5R0IKB1Z6ke_yqM7Xzr0zKqimu7Cf7Ba2u0WqFyY3D_r3js0wFXAwBoR6MiNNhT_Wd0pny0inQiD-xvd4vfgDYCmbIAH2CwblEgOU7F1jW8y0vAYKLm1ifs6gtDe3HddKwPwtT8SYfY5XOGzDzx_acmLFL4pYETxw1_D1nwA_duomIwQHeNe1YLaEInOccCsoLxMphSBHtX_99oIC8GAYariZ2NadBqkHIG1BqfVQIQ9LnJnCPPCAuo3MXh8PRMU7VFTdO0vzR407RWa-zMFMnNF_WQlEv9Jw-sERKqbhF2QjisOhKTvt-m78tLUg1MwZx0EkY0_KSikoH6Pt0CB_0UHI3572RuRWmDy6WYaFh5SQ2tULezHMBEOL9bzf2asUeoOJPxCyhLW7ozA-vTorglzD1wG9DpAaTKkgHOMDlMFyshDw6ACH1SNMgCzQk_QcuwmoRcEh6tjylwV0ak3Ld610T5paslyyWSFlZ3OtX6eXdX8OsULzWu9J6BYA90BWZZcO8ilAG9CUclB_RxCFm8lxvz1mkeb49cZmUo2iALHKFcMEYIfZ5cD8W9uhOiY4YHtLqrR88Seb9tSgyz3eX2pn5GJMjc275ssbPhdMIEpAsgzZcxkTSUhDU6CjM4K62qIzidzivUszgmxup19xfi9Pcgiexz_3p1RZJ5PaxIL8ePYSitXveIFDHkQgyfZyoVLSrkwlxNRFy6?></g></svg>