<svg xmlns="http://www.w3.org/2000/svg" xmlns:xlink="http://www.w3.org/1999/xlink" contentStyleType="text/css" data-diagram-type="SALT" height="522px" preserveAspectRatio="none" style="width:803px;height:522px;background:#FFFFFF;" version="1.1" viewBox="0 0 803 522" width="803px" zoomAndPan="magnify"><?plantuml 1.2026.4?><defs/><g><rect fill="#DDDDDD" height="15.1328" style="stroke:#000000;stroke-width:1;" width="558.7402" x="6" y="6"/><text fill="#000000" font-family="sans-serif" font-size="12" lengthAdjust="spacing" textLength="157.0605" x="6" y="17.6016">Program: ^RDB_REWARDS^</text><text fill="#000000" font-family="sans-serif" font-size="12" lengthAdjust="spacing" textLength="164.6016" x="173.0605" y="17.6016">Loyalty Admin &gt; Campaigns</text><text fill="#000000" font-family="sans-serif" font-size="12" lengthAdjust="spacing" textLength="58.7109" x="8" y="49.8672">Campaign</text><line style="stroke:#000000;stroke-width:1;" x1="6" x2="6" y1="38.2656" y2="52.3984"/><line style="stroke:#000000;stroke-width:1;" x1="6" x2="69.7109" y1="38.2656" y2="38.2656"/><line style="stroke:#000000;stroke-width:1;" x1="69.7109" x2="69.7109" y1="38.2656" y2="52.3984"/><line style="stroke:#000000;stroke-width:1;" x1="69.7109" x2="79.7109" y1="52.3984" y2="52.3984"/><text fill="#000000" font-family="sans-serif" font-size="12" lengthAdjust="spacing" textLength="54.2871" x="81.7109" y="49.8672">Drawings</text><line style="stroke:#000000;stroke-width:1;" x1="79.7109" x2="79.7109" y1="38.2656" y2="52.3984"/><line style="stroke:#000000;stroke-width:1;" x1="79.7109" x2="138.998" y1="38.2656" y2="38.2656"/><line style="stroke:#000000;stroke-width:1;" x1="138.998" x2="138.998" y1="38.2656" y2="52.3984"/><line style="stroke:#000000;stroke-width:1;" x1="138.998" x2="148.998" y1="52.3984" y2="52.3984"/><text fill="#000000" font-family="sans-serif" font-size="12" lengthAdjust="spacing" textLength="46.3418" x="150.998" y="49.8672">Winners</text><line style="stroke:#000000;stroke-width:1;" x1="148.998" x2="148.998" y1="38.2656" y2="52.3984"/><line style="stroke:#000000;stroke-width:1;" x1="148.998" x2="200.3398" y1="38.2656" y2="38.2656"/><line style="stroke:#000000;stroke-width:1;" x1="200.3398" x2="200.3398" y1="38.2656" y2="52.3984"/><line style="stroke:#000000;stroke-width:1;" x1="200.3398" x2="210.3398" y1="52.3984" y2="52.3984"/><text fill="#000000" font-family="sans-serif" font-size="12" lengthAdjust="spacing" textLength="94.4707" x="7" y="83.1328">Campaign name</text><text fill="#000000" font-family="sans-serif" font-size="12" lengthAdjust="spacing" textLength="131.8184" x="124.7402" y="83.1328">Ramadan Dining Boost</text><line style="stroke:#000000;stroke-width:1;" x1="122.7402" x2="461.7402" y1="85.6641" y2="85.6641"/><line style="stroke:#000000;stroke-width:1;" x1="122.7402" x2="122.7402" y1="82.6641" y2="84.6641"/><line style="stroke:#000000;stroke-width:1;" x1="461.7402" x2="461.7402" y1="82.6641" y2="84.6641"/><text fill="#000000" font-family="sans-serif" font-size="12" lengthAdjust="spacing" textLength="77.0449" x="7" y="117.3984">Window from</text><text fill="#000000" font-family="sans-serif" font-size="12" lengthAdjust="spacing" textLength="74.5898" x="124.7402" y="117.3984">2026-06-01</text><line style="stroke:#000000;stroke-width:1;" x1="122.7402" x2="461.7402" y1="119.9297" y2="119.9297"/><line style="stroke:#000000;stroke-width:1;" x1="122.7402" x2="122.7402" y1="116.9297" y2="118.9297"/><line style="stroke:#000000;stroke-width:1;" x1="461.7402" x2="461.7402" y1="116.9297" y2="118.9297"/><text fill="#000000" font-family="sans-serif" font-size="12" lengthAdjust="spacing" textLength="61.0078" x="7" y="135.5313">Window to</text><text fill="#000000" font-family="sans-serif" font-size="12" lengthAdjust="spacing" textLength="74.5898" x="124.7402" y="135.5313">2026-06-30</text><line style="stroke:#000000;stroke-width:1;" x1="122.7402" x2="461.7402" y1="138.0625" y2="138.0625"/><line style="stroke:#000000;stroke-width:1;" x1="122.7402" x2="122.7402" y1="135.0625" y2="137.0625"/><line style="stroke:#000000;stroke-width:1;" x1="461.7402" x2="461.7402" y1="135.0625" y2="137.0625"/><text fill="#000000" font-family="sans-serif" font-size="12" lengthAdjust="spacing" textLength="35.6309" x="7" y="169.7969">Status</text><rect fill="#EEEEEE" height="17.1328" style="stroke:#000000;stroke-width:1;" width="55" x="121.7402" y="158.1953"/><text fill="#000000" font-family="sans-serif" font-size="12" lengthAdjust="spacing" textLength="38.877" x="123.7402" y="171.7969">DRAFT</text><line style="stroke:#000000;stroke-width:1;" x1="165.7402" x2="165.7402" y1="158.1953" y2="175.3281"/><polygon fill="#000000" points="168.7402,164.1953,174.7402,164.1953,171.7402,170.3281" style="stroke:#000000;stroke-width:1;stroke-linejoin:miter;stroke-miterlimit:10;"/><text fill="#000000" font-family="sans-serif" font-size="12" lengthAdjust="spacing" textLength="91.6875" x="7" y="189.9297">Target segment</text><rect fill="#EEEEEE" height="17.1328" style="stroke:#000000;stroke-width:1;" width="103" x="121.7402" y="178.3281"/><text fill="#000000" font-family="sans-serif" font-size="12" lengthAdjust="spacing" textLength="73.3711" x="123.7402" y="191.9297">All members</text><line style="stroke:#000000;stroke-width:1;" x1="213.7402" x2="213.7402" y1="178.3281" y2="195.4609"/><polygon fill="#000000" points="216.7402,184.3281,222.7402,184.3281,219.7402,190.4609" style="stroke:#000000;stroke-width:1;stroke-linejoin:miter;stroke-miterlimit:10;"/><line style="stroke:#AAAAAA;stroke-width:1;" x1="7" x2="120.7402" y1="201.9609" y2="201.9609"/><text fill="#000000" font-family="sans-serif" font-size="12" lengthAdjust="spacing" textLength="112.7402" x="7" y="234.1953">Linked earning rule</text><rect fill="#EEEEEE" height="17.1328" style="stroke:#000000;stroke-width:1;" width="223" x="121.7402" y="222.5938"/><text fill="#000000" font-family="sans-serif" font-size="12" lengthAdjust="spacing" textLength="164.2852" x="123.7402" y="236.1953">Dining 3x Bonus (campaign)</text><line style="stroke:#000000;stroke-width:1;" x1="333.7402" x2="333.7402" y1="222.5938" y2="239.7266"/><polygon fill="#000000" points="336.7402,228.5938,342.7402,228.5938,339.7402,234.7266" style="stroke:#000000;stroke-width:1;stroke-linejoin:miter;stroke-miterlimit:10;"/><rect fill="#EEEEEE" height="18.1328" rx="5" ry="5" style="stroke:#000000;stroke-width:2.5;" width="92" x="468.2402" y="225.0938"/><text fill="#000000" font-family="sans-serif" font-size="12" lengthAdjust="spacing" textLength="57.3164" x="485.582" y="238.6953">Open rule</text><line style="stroke:#AAAAAA;stroke-width:1;" x1="6" x2="564.7402" y1="251.2266" y2="251.2266"/><line style="stroke:#AAAAAA;stroke-width:1;" x1="6" x2="564.7402" y1="253.2266" y2="253.2266"/><text fill="#000000" font-family="sans-serif" font-size="12" lengthAdjust="spacing" textLength="133.1074" x="9" y="284.4609">Drawing (sweepstakes)</text><line style="stroke:#000000;stroke-width:1;" x1="7" x2="178" y1="286.9922" y2="286.9922"/><line style="stroke:#000000;stroke-width:1;" x1="7" x2="7" y1="283.9922" y2="285.9922"/><line style="stroke:#000000;stroke-width:1;" x1="178" x2="178" y1="283.9922" y2="285.9922"/><text fill="#000000" font-family="sans-serif" font-size="12" lengthAdjust="spacing" textLength="91.582" x="7" y="319.7266">Scheduled draw</text><text fill="#000000" font-family="sans-serif" font-size="12" lengthAdjust="spacing" textLength="112.5352" x="164.0352" y="319.7266">2026-07-01 12:00</text><line style="stroke:#000000;stroke-width:1;" x1="162.0352" x2="501.0352" y1="322.2578" y2="322.2578"/><line style="stroke:#000000;stroke-width:1;" x1="162.0352" x2="162.0352" y1="319.2578" y2="321.2578"/><line style="stroke:#000000;stroke-width:1;" x1="501.0352" x2="501.0352" y1="319.2578" y2="321.2578"/><text fill="#000000" font-family="sans-serif" font-size="12" lengthAdjust="spacing" textLength="52.2246" x="7" y="337.8594">Selection</text><rect fill="#EEEEEE" height="17.1328" style="stroke:#000000;stroke-width:1;" width="95" x="161.0352" y="326.2578"/><text fill="#000000" font-family="sans-serif" font-size="12" lengthAdjust="spacing" textLength="75.0762" x="163.0352" y="339.8594">SEEDED_RNG</text><line style="stroke:#000000;stroke-width:1;" x1="245.0352" x2="245.0352" y1="326.2578" y2="343.3906"/><polygon fill="#000000" points="248.0352,332.2578,254.0352,332.2578,251.0352,338.3906" style="stroke:#000000;stroke-width:1;stroke-linejoin:miter;stroke-miterlimit:10;"/><text fill="#000000" font-family="sans-serif" font-size="12" lengthAdjust="spacing" textLength="109.4414" x="7" y="374.125">Entry window from</text><text fill="#000000" font-family="sans-serif" font-size="12" lengthAdjust="spacing" textLength="74.5898" x="164.0352" y="374.125">2026-06-01</text><line style="stroke:#000000;stroke-width:1;" x1="162.0352" x2="501.0352" y1="376.6563" y2="376.6563"/><line style="stroke:#000000;stroke-width:1;" x1="162.0352" x2="162.0352" y1="373.6563" y2="375.6563"/><line style="stroke:#000000;stroke-width:1;" x1="501.0352" x2="501.0352" y1="373.6563" y2="375.6563"/><text fill="#000000" font-family="sans-serif" font-size="12" lengthAdjust="spacing" textLength="93.4043" x="7" y="392.2578">Entry window to</text><text fill="#000000" font-family="sans-serif" font-size="12" lengthAdjust="spacing" textLength="74.5898" x="164.0352" y="392.2578">2026-06-30</text><line style="stroke:#000000;stroke-width:1;" x1="162.0352" x2="501.0352" y1="394.7891" y2="394.7891"/><line style="stroke:#000000;stroke-width:1;" x1="162.0352" x2="162.0352" y1="391.7891" y2="393.7891"/><line style="stroke:#000000;stroke-width:1;" x1="501.0352" x2="501.0352" y1="391.7891" y2="393.7891"/><text fill="#000000" font-family="sans-serif" font-size="12" lengthAdjust="spacing" textLength="28.5762" x="7" y="426.5234">Prize</text><rect fill="#EEEEEE" height="17.1328" style="stroke:#000000;stroke-width:1;" width="207" x="161.0352" y="414.9219"/><text fill="#000000" font-family="sans-serif" font-size="12" lengthAdjust="spacing" textLength="156.2344" x="163.0352" y="428.5234">$50 Cashback &#215; 5 winners</text><line style="stroke:#000000;stroke-width:1;" x1="357.0352" x2="357.0352" y1="414.9219" y2="432.0547"/><polygon fill="#000000" points="360.0352,420.9219,366.0352,420.9219,363.0352,427.0547" style="stroke:#000000;stroke-width:1;stroke-linejoin:miter;stroke-miterlimit:10;"/><text fill="#000000" font-family="sans-serif" font-size="12" lengthAdjust="spacing" textLength="132.0352" x="27" y="462.7891">One entry per member</text><rect fill="none" height="10" style="stroke:#000000;stroke-width:1.5;" width="10" x="9" y="453.2539"/><polygon fill="#000000" points="10,457.1875,13,460.1875,20,451.1875,13,458.1875" style="stroke:#000000;stroke-width:1.5;stroke-linejoin:miter;stroke-miterlimit:10;"/><line style="stroke:#AAAAAA;stroke-width:1;" x1="6" x2="564.7402" y1="470.8203" y2="470.8203"/><line style="stroke:#AAAAAA;stroke-width:1;" x1="6" x2="564.7402" y1="472.8203" y2="472.8203"/><rect fill="#EEEEEE" height="18.1328" rx="5" ry="5" style="stroke:#000000;stroke-width:2.5;" width="100" x="8.5" y="494.9531"/><text fill="#000000" font-family="sans-serif" font-size="12" lengthAdjust="spacing" textLength="57.7734" x="29.6133" y="508.5547">Save draft</text><rect fill="#EEEEEE" height="18.1328" rx="5" ry="5" style="stroke:#000000;stroke-width:2.5;" width="84" x="568.2402" y="494.9531"/><text fill="#000000" font-family="sans-serif" font-size="12" lengthAdjust="spacing" textLength="51.8965" x="584.292" y="508.5547">Schedule</text><rect fill="#EEEEEE" height="18.1328" rx="5" ry="5" style="stroke:#000000;stroke-width:2.5;" width="84" x="659.2402" y="494.9531"/><text fill="#000000" font-family="sans-serif" font-size="12" lengthAdjust="spacing" textLength="46.3945" x="678.043" y="508.5547">Activate</text><rect fill="#EEEEEE" height="18.1328" rx="5" ry="5" style="stroke:#000000;stroke-width:2.5;" width="44" x="750.2402" y="494.9531"/><text fill="#000000" font-family="sans-serif" font-size="12" lengthAdjust="spacing" textLength="21.5039" x="761.4883" y="508.5547">End</text><?plantuml-src dPFVJjim5CRl-nH7qIu0gIKjT9EGG0GITeC6If2OL3N8hGyXQdnIsOPIMfvZ3xGNsycVqhIRn5GhYUBuEv_jx-US6okqDIAphKKBO740jpfFj50d48V-nKCOt7kX7yMmXEjyph8vU5Ab16TmATHKf0aPUEVAJb5z-F6HzRuMivGImw_tAH7gXf1lM6j9A8IwBS49XH9I4FWfSJrSvBcnyC_cb3wTyibpo7m6ZpfNQm6xzTpUrxRBLnS-QKxJn-RDeORFaVj_FjMg8YliizaIB27sG-_gBYubTq8dQC5Wef3iMk9b6IXK8mwk4hRR3UFhb2Oe0OKkGzBF6LR6LMX7hvmRySnxuphb_OBX06wcI9Lwo3u5aDFJcefJ4uCzCqESyicOeDbtDfX5uoUKN2r1idWxdMz5ojtUYUj-baw46OvjcjDMBb4G-87_4Fxu7ZSs6v3LSvXj4jw1xORFYl3ER6zr-eRmDzilVPVFjdaQYV44Vl-2VZ4ZVM2iYWS_Xt1325WkQOgwPhqDPG2HUC4YxKSBmnBXYa7TzJZ75s5NtO0aetrldIF9yhzkTJl5_Zh7Vm00?></g></svg>