<svg xmlns="http://www.w3.org/2000/svg" xmlns:xlink="http://www.w3.org/1999/xlink" contentStyleType="text/css" data-diagram-type="STATE" height="829px" preserveAspectRatio="none" style="width:1037px;height:829px;background:#FFFFFF;" version="1.1" viewBox="0 0 1037 829" width="1037px" zoomAndPan="magnify"><?plantuml 1.2026.4?><defs/><g><g class="title" data-source-line="1"><text fill="#000000" font-family="sans-serif" font-size="14" font-weight="700" lengthAdjust="spacing" textLength="429.4063" x="300.4928" y="23.5352">Where the four journeys sit on the member relationship arc</text></g><g class="entity" data-qualified-name="Earn" data-source-line="12" id="ent0001"><rect fill="#C8E6C9" height="50" rx="12.5" ry="12.5" style="stroke:#424242;stroke-width:0.5;" width="87.6143" x="393.62" y="377.4883"/><line style="stroke:#424242;stroke-width:0.5;" x1="393.62" x2="481.2343" y1="403.9766" y2="403.9766"/><text fill="#000000" font-family="sans-serif" font-size="14" lengthAdjust="spacing" textLength="67.6143" x="403.62" y="396.0234">EARN  (J1)</text></g><g class="entity" data-qualified-name="Tier" data-source-line="13" id="ent0002"><rect fill="#C8E6C9" height="50" rx="12.5" ry="12.5" style="stroke:#424242;stroke-width:0.5;" width="164.7578" x="163.05" y="504.4883"/><line style="stroke:#424242;stroke-width:0.5;" x1="163.05" x2="327.8078" y1="530.9766" y2="530.9766"/><text fill="#000000" font-family="sans-serif" font-size="14" lengthAdjust="spacing" textLength="144.7578" x="173.05" y="523.0234">TRACK / TIER UP  (J3)</text></g><g class="entity" data-qualified-name="Redeem" data-source-line="14" id="ent0003"><rect fill="#C8E6C9" height="50" rx="12.5" ry="12.5" style="stroke:#424242;stroke-width:0.5;" width="105.333" x="656.76" y="631.4883"/><line style="stroke:#424242;stroke-width:0.5;" x1="656.76" x2="762.093" y1="657.9766" y2="657.9766"/><text fill="#000000" font-family="sans-serif" font-size="14" lengthAdjust="spacing" textLength="85.333" x="666.76" y="650.0234">REDEEM  (J2)</text></g><g class="entity" data-qualified-name="Sweep" data-source-line="15" id="ent0004"><rect fill="#C8E6C9" height="50" rx="12.5" ry="12.5" style="stroke:#424242;stroke-width:0.5;" width="143.9219" x="878.47" y="761.4483"/><line style="stroke:#424242;stroke-width:0.5;" x1="878.47" x2="1022.3919" y1="787.9366" y2="787.9366"/><text fill="#000000" font-family="sans-serif" font-size="14" lengthAdjust="spacing" textLength="123.9219" x="888.47" y="779.9834">SWEEPSTAKES  (J4)</text></g><g class="entity" data-qualified-name="Expiry" data-source-line="23" id="ent0005"><rect fill="#C8E6C9" height="50" rx="12.5" ry="12.5" style="stroke:#424242;stroke-width:0.5;" width="135.2813" x="395.79" y="504.4883"/><line style="stroke:#424242;stroke-width:0.5;" x1="395.79" x2="531.0713" y1="530.9766" y2="530.9766"/><text fill="#000000" font-family="sans-serif" font-size="14" lengthAdjust="spacing" textLength="115.2813" x="405.79" y="523.0234">POINTS EXPIRING</text></g><g class="start_entity" data-qualified-name=".start." data-source-line="9" id="ent0006"><ellipse cx="437.43" cy="53.4883" fill="#222222" rx="10" ry="10" style="stroke:#222222;stroke-width:1;"/></g><g class="entity" data-qualified-name="Discover" data-source-line="9" id="ent0007"><rect fill="#C8E6C9" height="50" rx="12.5" ry="12.5" style="stroke:#424242;stroke-width:0.5;" width="78.2148" x="398.32" y="124.4883"/><line style="stroke:#424242;stroke-width:0.5;" x1="398.32" x2="476.5348" y1="150.9766" y2="150.9766"/><text fill="#000000" font-family="sans-serif" font-size="14" lengthAdjust="spacing" textLength="58.2148" x="408.32" y="143.0234">Discover</text></g><g class="entity" data-qualified-name="OptIn" data-source-line="10" id="ent0009"><rect fill="#C8E6C9" height="50" rx="12.5" ry="12.5" style="stroke:#424242;stroke-width:0.5;" width="57.6455" x="408.61" y="266.4883"/><line style="stroke:#424242;stroke-width:0.5;" x1="408.61" x2="466.2555" y1="292.9766" y2="292.9766"/><text fill="#000000" font-family="sans-serif" font-size="14" lengthAdjust="spacing" textLength="37.6455" x="418.61" y="285.0234">OptIn</text></g><g class="entity" data-qualified-name="GMN20" data-source-line="27" id="ent0021"><path d="M582.12,758.4883 L582.12,814.4199 A0,0 0 0 0 582.12,814.4199 L836.7328,814.4199 A0,0 0 0 0 836.7328,814.4199 L836.7328,768.4883 L826.7328,758.4883 L713.43,758.4883 L709.43,681.8583 L705.43,758.4883 L582.12,758.4883 A0,0 0 0 0 582.12,758.4883" fill="#FEFFDD" style="stroke:#181818;stroke-width:0.5;"/><path d="M826.7328,758.4883 L826.7328,768.4883 L836.7328,768.4883 L826.7328,758.4883" fill="#FEFFDD" style="stroke:#181818;stroke-width:0.5;"/><text fill="#000000" font-family="sans-serif" font-size="13" lengthAdjust="spacing" textLength="204.0962" x="588.12" y="776.0566">Redeem never lowers Tier &#8212; the</text><text fill="#000000" font-family="sans-serif" font-size="13" lengthAdjust="spacing" textLength="233.6128" x="588.12" y="791.3672">delight moment that keeps members</text><text fill="#000000" font-family="sans-serif" font-size="13" lengthAdjust="spacing" textLength="139.3057" x="588.12" y="806.6777">spending their points.</text></g><!--link *start* to Discover--><g class="link" data-entity-1="ent0006" data-entity-2="ent0007" data-link-type="dependency" data-source-line="9" id="lnk8"><path d="M437.43,63.8483 C437.43,77.7783 437.43,99.4383 437.43,119.1383" fill="none" id="*start*-to-Discover" style="stroke:#181818;stroke-width:1;"/><polygon fill="#181818" points="437.43,124.1383,441.43,115.1383,437.43,119.1383,433.43,115.1383,437.43,124.1383" style="stroke:#181818;stroke-width:1;stroke-linejoin:miter;stroke-miterlimit:10;"/></g><!--link Discover to OptIn--><g class="link" data-entity-1="ent0007" data-entity-2="ent0009" data-link-type="dependency" data-source-line="10" id="lnk10"><path d="M437.43,174.8683 C437.43,200.5683 437.43,235.7883 437.43,261.3783" fill="none" id="Discover-to-OptIn" style="stroke:#181818;stroke-width:1;"/><polygon fill="#181818" points="437.43,266.3783,441.43,257.3783,437.43,261.3783,433.43,257.3783,437.43,266.3783" style="stroke:#181818;stroke-width:1;stroke-linejoin:miter;stroke-miterlimit:10;"/><text fill="#000000" font-family="sans-serif" font-size="13" lengthAdjust="spacing" textLength="120.2183" x="438.43" y="218.0566">Join + accept T&amp;Cs</text><text fill="#000000" font-family="sans-serif" font-size="13" lengthAdjust="spacing" textLength="106.5391" x="445.2696" y="233.3672">(welcome bonus)</text></g><!--link OptIn to Earn--><g class="link" data-entity-1="ent0009" data-entity-2="ent0001" data-link-type="dependency" data-source-line="11" id="lnk11"><path d="M437.43,316.9483 C437.43,334.8983 437.43,354.1783 437.43,372.1083" fill="none" id="OptIn-to-Earn" style="stroke:#181818;stroke-width:1;"/><polygon fill="#181818" points="437.43,377.1083,441.43,368.1083,437.43,372.1083,433.43,368.1083,437.43,377.1083" style="stroke:#181818;stroke-width:1;stroke-linejoin:miter;stroke-miterlimit:10;"/></g><!--link Earn to Tier--><g class="link" data-entity-1="ent0001" data-entity-2="ent0002" data-link-type="dependency" data-source-line="16" id="lnk12"><path d="M393.3,402.6383 C300.36,401.8883 89.29,406.0383 44.43,457.4883 C6,501.5583 86.5897,517.8345 157.7397,524.1745" fill="none" id="Earn-to-Tier" style="stroke:#181818;stroke-width:1;"/><polygon fill="#181818" points="162.72,524.6183,154.1105,519.8353,157.7397,524.1745,153.4005,527.8037,162.72,524.6183" style="stroke:#181818;stroke-width:1;stroke-linejoin:miter;stroke-miterlimit:10;"/><text fill="#000000" font-family="sans-serif" font-size="13" lengthAdjust="spacing" textLength="156.9966" x="45.43" y="471.0566">qualifying balance grows</text></g><!--link Tier to Earn--><g class="link" data-entity-1="ent0002" data-entity-2="ent0001" data-link-type="dependency" data-source-line="20" id="lnk16"><path d="M248.81,504.1383 C252.14,488.8583 258.67,469.7883 271.43,457.4883 C304.37,425.7283 351.2623,413.3696 388.2323,407.9796" fill="none" id="Tier-to-Earn" style="stroke:#181818;stroke-width:1;"/><polygon fill="#181818" points="393.18,407.2583,383.6971,404.5985,388.2323,407.9796,384.8512,412.5149,393.18,407.2583" style="stroke:#181818;stroke-width:1;stroke-linejoin:miter;stroke-miterlimit:10;"/><text fill="#000000" font-family="sans-serif" font-size="13" lengthAdjust="spacing" textLength="92.6123" x="272.43" y="471.0566">keep spending</text></g><!--link Tier to Redeem--><g class="link" data-entity-1="ent0002" data-entity-2="ent0003" data-link-type="dependency" data-source-line="17" id="lnk13"><path d="M328.27,553.1483 C379.56,567.1483 446.8,585.4483 506.43,601.4883 C557.32,615.1783 610.5965,629.3386 651.5765,640.1886" fill="none" id="Tier-to-Redeem" style="stroke:#181818;stroke-width:1;"/><polygon fill="#181818" points="656.41,641.4683,648.7336,635.298,651.5765,640.1886,646.686,643.0315,656.41,641.4683" style="stroke:#181818;stroke-width:1;stroke-linejoin:miter;stroke-miterlimit:10;"/><text fill="#000000" font-family="sans-serif" font-size="13" lengthAdjust="spacing" textLength="175.1509" x="507.43" y="598.0566">spends redeemable balance</text></g><!--link Redeem to Sweep--><g class="link" data-entity-1="ent0003" data-entity-2="ent0004" data-link-type="dependency" data-source-line="18" id="lnk14"><path d="M733.39,681.7583 C749.31,696.8083 771.29,715.6683 793.43,728.4883 C819.65,743.6683 845.8797,754.3578 873.3597,763.5778" fill="none" id="Redeem-to-Sweep" style="stroke:#181818;stroke-width:1;"/><polygon fill="#181818" points="878.1,765.1683,870.8398,758.5132,873.3597,763.5778,868.2951,766.0977,878.1,765.1683" style="stroke:#181818;stroke-width:1;stroke-linejoin:miter;stroke-miterlimit:10;"/><text fill="#000000" font-family="sans-serif" font-size="13" lengthAdjust="spacing" textLength="135.1162" x="794.43" y="725.0566">entry = a redemption</text></g><!--link Sweep to Earn--><g class="link" data-entity-1="ent0004" data-entity-2="ent0001" data-link-type="dependency" data-source-line="19" id="lnk15"><path d="M954.65,761.3083 C962.57,707.4083 973.26,576.3283 905.43,504.4883 C847.44,443.0683 591.5128,415.9232 486.4428,407.1732" fill="none" id="Sweep-to-Earn" style="stroke:#181818;stroke-width:1;"/><polygon fill="#181818" points="481.46,406.7583,490.097,411.4914,486.4428,407.1732,490.7609,403.519,481.46,406.7583" style="stroke:#181818;stroke-width:1;stroke-linejoin:miter;stroke-miterlimit:10;"/><text fill="#000000" font-family="sans-serif" font-size="13" lengthAdjust="spacing" textLength="66.0283" x="953.23" y="598.0566">re-engage</text></g><!--link Redeem to Earn--><g class="link" data-entity-1="ent0003" data-entity-2="ent0001" data-link-type="dependency" data-source-line="21" id="lnk17"><path d="M710.59,631.2583 C711.18,589.6283 706.04,504.5083 658.43,457.4883 C633.7,433.0583 543.4735,417.3786 486.3935,409.5386" fill="none" id="Redeem-to-Earn" style="stroke:#181818;stroke-width:1;"/><polygon fill="#181818" points="481.44,408.8583,489.812,414.0457,486.3935,409.5386,490.9006,406.1201,481.44,408.8583" style="stroke:#181818;stroke-width:1;stroke-linejoin:miter;stroke-miterlimit:10;"/><text fill="#000000" font-family="sans-serif" font-size="13" lengthAdjust="spacing" textLength="192.5625" x="704.74" y="534.5566">redeeming does NOT drop tier</text></g><!--link Earn to Expiry--><g class="link" data-entity-1="ent0001" data-entity-2="ent0005" data-link-type="dependency" data-source-line="22" id="lnk18"><path d="M396.05,427.8783 C379.76,440.7783 366.95,457.4483 376.43,474.4883 C383.17,486.6083 389.7109,493.588 401.3409,501.288" fill="none" id="Earn-to-Expiry" style="stroke:#181818;stroke-width:1;"/><polygon fill="#181818" points="405.51,504.0483,400.2139,495.7446,401.3409,501.288,395.7975,502.4151,405.51,504.0483" style="stroke:#181818;stroke-width:1;stroke-linejoin:miter;stroke-miterlimit:10;"/><text fill="#000000" font-family="sans-serif" font-size="13" lengthAdjust="spacing" textLength="74.147" x="377.43" y="471.0566">cohort ages</text></g><!--link Expiry to Earn--><g class="link" data-entity-1="ent0005" data-entity-2="ent0001" data-link-type="dependency" data-source-line="24" id="lnk19"><path d="M462.48,504.2683 C461.58,490.4383 459.83,472.8483 456.43,457.4883 C454.23,447.5883 452.4981,441.7002 449.1281,432.5502" fill="none" id="Expiry-to-Earn" style="stroke:#181818;stroke-width:1;"/><polygon fill="#181818" points="447.4,427.8583,446.757,437.6861,449.1281,432.5502,454.264,434.9212,447.4,427.8583" style="stroke:#181818;stroke-width:1;stroke-linejoin:miter;stroke-miterlimit:10;"/><text fill="#000000" font-family="sans-serif" font-size="13" lengthAdjust="spacing" textLength="189.9219" x="460.23" y="471.0566">30/60-day nudge re-engages</text></g><?plantuml-src LP9lRzCm4CRV-rCy6XBQG6LZcoQO15BfBDHDj5KQD2JWXPjS4xF43hQxKY4aFWIVa4-2Bt-seaXHSi_l_9plBkXG4MvBSeHG4jPsu_0jlWpjFBmEiAOLQgfNvE2eKa5RuqlTGBbC27-dJQESgk5BbTkjDWNMglAqhmGL23y5y4vbTuMp6vDFR6KTdanUoOl9QrQioydrqVDJViGl8Ju_-uhHw2skjC_iFJanVBJHUHEc1fUujjhWELIMKHEGFftuB-PmIrLcQyBAceq_4XtBML8v8xgQ3kGucG67ro-F3g3yVrAQZ2StE4OwbGa-BfWwwwXKnq9wAf5NKdvWyRGJ4yg9wa5UtagvMARZ6xbavhnZbbkYHh1PMn2V5s_nVQCglTvn1rUgKYOZn5vjlMXr1hkp8-eRChcFu-1_jOepx3D4Zp3TkaIOJ70xl85g-RhX0OfE7DeHAKSZCeKgwD6kL-wOR1rZQVi63vaSuR9pInwpUOhSsGQ1s_HmIVcZqR6CIsIsj2uWElcXIulvT9Ok8JyjfibqzhuRHSkBFctFxkpa-E9abAiTp2OlwB5mBuInWGSUWgrXryCiC3JE46zEPRVakYdYx-y_lDyHoQdIHHbGnvqn8GPLQ6_k-zttaHcQm2dQeObh5_mB4ODWvty0?></g></svg>