<svg xmlns="http://www.w3.org/2000/svg" xmlns:xlink="http://www.w3.org/1999/xlink" contentStyleType="text/css" data-diagram-type="DESCRIPTION" height="1066px" preserveAspectRatio="none" style="width:1552px;height:1066px;background:#FFFFFF;" version="1.1" viewBox="0 0 1552 1066" width="1552px" zoomAndPan="magnify"><?plantuml 1.2026.4?><defs/><g><g class="title" data-source-line="80"><text fill="#000000" font-family="sans-serif" font-size="14" font-weight="700" lengthAdjust="spacing" textLength="321.6172" x="612.1464" y="23.5352">C4 Level 3 &#8212; loyalty-core &#8212; Static Topology</text></g><!--cluster **loyalty-core**--><g class="cluster" data-qualified-name="..loyalty-core.." data-source-line="120" id="ent0006"><rect fill="#F0F7FF" height="644.88" rx="10" ry="10" style="stroke:#0B4884;stroke-width:1;stroke-dasharray:7,7;" width="1374" x="7" y="407.3983"/><text fill="#000000" font-family="sans-serif" font-size="14" font-style="italic" lengthAdjust="spacing" textLength="36.2236" x="675.8882" y="422.9334">&#171;svc&#187;</text><text fill="#000000" font-family="sans-serif" font-size="14" font-weight="700" lengthAdjust="spacing" textLength="88.1768" x="649.9116" y="439.4217">loyalty-core</text></g><!--cluster Inbound API--><g class="cluster" data-qualified-name="..loyalty-core...Inbound API" data-source-line="122" id="ent0007"><path d="M484.5,466.3983 L567.6816,466.3983 A3.75,3.75 0 0 1 570.1816,468.8983 L577.1816,488.8866 L631.5,488.8866 A2.5,2.5 0 0 1 634,491.3866 L634,567.8683 A2.5,2.5 0 0 1 631.5,570.3683 L484.5,570.3683 A2.5,2.5 0 0 1 482,567.8683 L482,468.8983 A2.5,2.5 0 0 1 484.5,466.3983" fill="#FAFAFA" style="stroke:#9E9E9E;stroke-width:1.5;"/><line style="stroke:#9E9E9E;stroke-width:1.5;" x1="482" x2="577.1816" y1="488.8866" y2="488.8866"/><text fill="#000000" font-family="sans-serif" font-size="14" font-style="italic" lengthAdjust="spacing" textLength="82.1816" x="486" y="481.9334">Inbound API</text></g><!--cluster Application Components--><g class="cluster" data-qualified-name="..loyalty-core...Application Components" data-source-line="126" id="ent0009"><path d="M33.5,594.3683 L202.0967,594.3683 A3.75,3.75 0 0 1 204.5967,596.8683 L211.5967,616.8566 L941.5,616.8566 A2.5,2.5 0 0 1 944,619.3566 L944,897.7983 A2.5,2.5 0 0 1 941.5,900.2983 L33.5,900.2983 A2.5,2.5 0 0 1 31,897.7983 L31,596.8683 A2.5,2.5 0 0 1 33.5,594.3683" fill="#FAFAFA" style="stroke:#9E9E9E;stroke-width:1.5;"/><line style="stroke:#9E9E9E;stroke-width:1.5;" x1="31" x2="211.5967" y1="616.8566" y2="616.8566"/><text fill="#000000" font-family="sans-serif" font-size="14" font-style="italic" lengthAdjust="spacing" textLength="167.5967" x="35" y="609.9034">Application Components</text></g><!--cluster Background Jobs--><g class="cluster" data-qualified-name="..loyalty-core...Background Jobs" data-source-line="137" id="ent0018"><path d="M728.5,466.3983 L843.2158,466.3983 A3.75,3.75 0 0 1 845.7158,468.8983 L852.7158,488.8866 L1086.5,488.8866 A2.5,2.5 0 0 1 1089,491.3866 L1089,567.8683 A2.5,2.5 0 0 1 1086.5,570.3683 L728.5,570.3683 A2.5,2.5 0 0 1 726,567.8683 L726,468.8983 A2.5,2.5 0 0 1 728.5,466.3983" fill="#FAFAFA" style="stroke:#9E9E9E;stroke-width:1.5;"/><line style="stroke:#9E9E9E;stroke-width:1.5;" x1="726" x2="852.7158" y1="488.8866" y2="488.8866"/><text fill="#000000" font-family="sans-serif" font-size="14" font-style="italic" lengthAdjust="spacing" textLength="113.7158" x="730" y="481.9334">Background Jobs</text></g><!--cluster Outbound--><g class="cluster" data-qualified-name="..loyalty-core...Outbound" data-source-line="142" id="ent0021"><path d="M970.5,796.3283 L1039.9004,796.3283 A3.75,3.75 0 0 1 1042.4004,798.8283 L1049.4004,818.8166 L1354.5,818.8166 A2.5,2.5 0 0 1 1357,821.3166 L1357,897.7983 A2.5,2.5 0 0 1 1354.5,900.2983 L970.5,900.2983 A2.5,2.5 0 0 1 968,897.7983 L968,798.8283 A2.5,2.5 0 0 1 970.5,796.3283" fill="#FAFAFA" style="stroke:#9E9E9E;stroke-width:1.5;"/><line style="stroke:#9E9E9E;stroke-width:1.5;" x1="968" x2="1049.4004" y1="818.8166" y2="818.8166"/><text fill="#000000" font-family="sans-serif" font-size="14" font-style="italic" lengthAdjust="spacing" textLength="68.4004" x="972" y="811.8634">Outbound</text></g><!--cluster Data Tier (loyalty-core RDS)--><g class="cluster" data-qualified-name="..loyalty-core...Data Tier .loyalty-core RDS." data-source-line="147" id="ent0024"><path d="M142.5,924.2983 L332.0762,924.2983 A3.75,3.75 0 0 1 334.5762,926.7983 L341.5762,946.7866 L1088.5,946.7866 A2.5,2.5 0 0 1 1091,949.2866 L1091,1025.7783 A2.5,2.5 0 0 1 1088.5,1028.2783 L142.5,1028.2783 A2.5,2.5 0 0 1 140,1025.7783 L140,926.7983 A2.5,2.5 0 0 1 142.5,924.2983" fill="#FAFAFA" style="stroke:#9E9E9E;stroke-width:1.5;"/><line style="stroke:#9E9E9E;stroke-width:1.5;" x1="140" x2="341.5762" y1="946.7866" y2="946.7866"/><text fill="#000000" font-family="sans-serif" font-size="14" font-style="italic" lengthAdjust="spacing" textLength="188.5762" x="144" y="939.8334">Data Tier (loyalty-core RDS)</text></g><!--entity api--><g class="entity" data-qualified-name="..loyalty-core...Inbound API.api" data-source-line="123" id="ent0008"><rect fill="#0B4884" height="52.9766" rx="2.5" ry="2.5" style="stroke:#073661;stroke-width:0.5;" width="119.1621" x="498.42" y="501.3983"/><text fill="#FFFFFF" font-family="sans-serif" font-size="14" font-style="italic" lengthAdjust="spacing" textLength="91.335" x="512.3336" y="524.9334">&#171;component&#187;</text><text fill="#FFFFFF" font-family="sans-serif" font-size="14" lengthAdjust="spacing" textLength="99.1621" x="508.42" y="541.4217">REST API Layer</text></g><!--entity memb--><g class="entity" data-qualified-name="..loyalty-core...Application Components.memb" data-source-line="127" id="ent0010"><rect fill="#0B4884" height="52.9766" rx="2.5" ry="2.5" style="stroke:#073661;stroke-width:0.5;" width="178.5254" x="46.74" y="629.3683"/><text fill="#FFFFFF" font-family="sans-serif" font-size="14" font-style="italic" lengthAdjust="spacing" textLength="91.335" x="90.3352" y="652.9034">&#171;component&#187;</text><text fill="#FFFFFF" font-family="sans-serif" font-size="14" lengthAdjust="spacing" textLength="158.5254" x="56.74" y="669.3917">Membership Aggregate</text></g><!--entity tier--><g class="entity" data-qualified-name="..loyalty-core...Application Components.tier" data-source-line="128" id="ent0011"><rect fill="#0B4884" height="52.9766" rx="2.5" ry="2.5" style="stroke:#073661;stroke-width:0.5;" width="118.7246" x="253.64" y="629.3683"/><text fill="#FFFFFF" font-family="sans-serif" font-size="14" font-style="italic" lengthAdjust="spacing" textLength="91.335" x="267.3348" y="652.9034">&#171;component&#187;</text><text fill="#FFFFFF" font-family="sans-serif" font-size="14" lengthAdjust="spacing" textLength="98.7246" x="263.64" y="669.3917">Tier Projection</text></g><!--entity lwrite--><g class="entity" data-qualified-name="..loyalty-core...Application Components.lwrite" data-source-line="129" id="ent0012"><rect fill="#0B4884" height="52.9766" rx="2.5" ry="2.5" style="stroke:#073661;stroke-width:0.5;" width="166.4189" x="761.79" y="727.3483"/><text fill="#FFFFFF" font-family="sans-serif" font-size="14" font-style="italic" lengthAdjust="spacing" textLength="91.335" x="799.332" y="750.8834">&#171;component&#187;</text><text fill="#FFFFFF" font-family="sans-serif" font-size="14" lengthAdjust="spacing" textLength="146.4189" x="771.79" y="767.3717">Ledger Service (Write)</text></g><!--entity bproj--><g class="entity" data-qualified-name="..loyalty-core...Application Components.bproj" data-source-line="130" id="ent0013"><rect fill="#0B4884" height="52.9766" rx="2.5" ry="2.5" style="stroke:#073661;stroke-width:0.5;" width="143.5186" x="618.24" y="831.3283"/><text fill="#FFFFFF" font-family="sans-serif" font-size="14" font-style="italic" lengthAdjust="spacing" textLength="91.335" x="644.3318" y="854.8634">&#171;component&#187;</text><text fill="#FFFFFF" font-family="sans-serif" font-size="14" lengthAdjust="spacing" textLength="123.5186" x="628.24" y="871.3517">Balance Projection</text></g><!--entity resv--><g class="entity" data-qualified-name="..loyalty-core...Application Components.resv" data-source-line="131" id="ent0014"><rect fill="#0B4884" height="52.9766" rx="2.5" ry="2.5" style="stroke:#073661;stroke-width:0.5;" width="161.7637" x="766.12" y="629.3683"/><text fill="#FFFFFF" font-family="sans-serif" font-size="14" font-style="italic" lengthAdjust="spacing" textLength="91.335" x="801.3344" y="652.9034">&#171;component&#187;</text><text fill="#FFFFFF" font-family="sans-serif" font-size="14" lengthAdjust="spacing" textLength="141.7637" x="776.12" y="669.3917">Reservation Manager</text></g><!--entity cohort--><g class="entity" data-qualified-name="..loyalty-core...Application Components.cohort" data-source-line="132" id="ent0015"><rect fill="#0B4884" height="52.9766" rx="2.5" ry="2.5" style="stroke:#073661;stroke-width:0.5;" width="138.8359" x="789.58" y="831.3283"/><text fill="#FFFFFF" font-family="sans-serif" font-size="14" font-style="italic" lengthAdjust="spacing" textLength="91.335" x="813.3305" y="854.8634">&#171;component&#187;</text><text fill="#FFFFFF" font-family="sans-serif" font-size="14" lengthAdjust="spacing" textLength="118.8359" x="799.58" y="871.3517">Cohort Projection</text></g><!--entity adj--><g class="entity" data-qualified-name="..loyalty-core...Application Components.adj" data-source-line="133" id="ent0016"><rect fill="#0B4884" height="52.9766" rx="2.5" ry="2.5" style="stroke:#073661;stroke-width:0.5;" width="178.7236" x="400.64" y="629.3683"/><text fill="#FFFFFF" font-family="sans-serif" font-size="14" font-style="italic" lengthAdjust="spacing" textLength="91.335" x="444.3343" y="652.9034">&#171;component&#187;</text><text fill="#FFFFFF" font-family="sans-serif" font-size="14" lengthAdjust="spacing" textLength="158.7236" x="410.64" y="669.3917">Approval Request Store</text></g><!--entity audit--><g class="entity" data-qualified-name="..loyalty-core...Application Components.audit" data-source-line="134" id="ent0017"><rect fill="#0B4884" height="52.9766" rx="2.5" ry="2.5" style="stroke:#073661;stroke-width:0.5;" width="130.6123" x="607.69" y="629.3683"/><text fill="#FFFFFF" font-family="sans-serif" font-size="14" font-style="italic" lengthAdjust="spacing" textLength="91.335" x="627.3287" y="652.9034">&#171;component&#187;</text><text fill="#FFFFFF" font-family="sans-serif" font-size="14" lengthAdjust="spacing" textLength="110.6123" x="617.69" y="669.3917">Audit Log Writer</text></g><!--entity expj--><g class="entity" data-qualified-name="..loyalty-core...Background Jobs.expj" data-source-line="138" id="ent0019"><rect fill="#0B4884" height="52.9766" rx="2.5" ry="2.5" style="stroke:#073661;stroke-width:0.5;" width="113.335" x="959.33" y="501.3983"/><text fill="#FFFFFF" font-family="sans-serif" font-size="14" font-style="italic" lengthAdjust="spacing" textLength="91.335" x="970.33" y="524.9334">&#171;component&#187;</text><text fill="#FFFFFF" font-family="sans-serif" font-size="14" lengthAdjust="spacing" textLength="68.2705" x="981.8622" y="541.4217">Expiry Job</text></g><!--entity sweep--><g class="entity" data-qualified-name="..loyalty-core...Background Jobs.sweep" data-source-line="139" id="ent0020"><rect fill="#0B4884" height="52.9766" rx="2.5" ry="2.5" style="stroke:#073661;stroke-width:0.5;" width="189.1621" x="742.42" y="501.3983"/><text fill="#FFFFFF" font-family="sans-serif" font-size="14" font-style="italic" lengthAdjust="spacing" textLength="91.335" x="791.3336" y="524.9334">&#171;component&#187;</text><text fill="#FFFFFF" font-family="sans-serif" font-size="14" lengthAdjust="spacing" textLength="169.1621" x="752.42" y="541.4217">Reservation TTL Sweeper</text></g><!--entity relay--><g class="entity" data-qualified-name="..loyalty-core...Outbound.relay" data-source-line="143" id="ent0022"><rect fill="#0B4884" height="52.9766" rx="2.5" ry="2.5" style="stroke:#073661;stroke-width:0.5;" width="113.335" x="984.33" y="831.3283"/><text fill="#FFFFFF" font-family="sans-serif" font-size="14" font-style="italic" lengthAdjust="spacing" textLength="91.335" x="995.33" y="854.8634">&#171;component&#187;</text><text fill="#FFFFFF" font-family="sans-serif" font-size="14" lengthAdjust="spacing" textLength="90.9727" x="995.5112" y="871.3517">Outbox Relay</text></g><!--entity lifecycle--><g class="entity" data-qualified-name="..loyalty-core...Outbound.lifecycle" data-source-line="144" id="ent0023"><rect fill="#0B4884" height="52.9766" rx="2.5" ry="2.5" style="stroke:#073661;stroke-width:0.5;" width="215.1592" x="1125.42" y="831.3283"/><text fill="#FFFFFF" font-family="sans-serif" font-size="14" font-style="italic" lengthAdjust="spacing" textLength="91.335" x="1187.3321" y="854.8634">&#171;component&#187;</text><text fill="#FFFFFF" font-family="sans-serif" font-size="14" lengthAdjust="spacing" textLength="195.1592" x="1135.42" y="871.3517">Member-Lifecycle Consumer</text></g><!--entity t_member--><g class="entity" data-qualified-name="..loyalty-core...Data Tier .loyalty-core RDS..t_member" data-source-line="148" id="ent0025"><rect fill="#5D7A99" height="52.9766" rx="2.5" ry="2.5" style="stroke:#3D5470;stroke-width:0.5;" width="76.2803" x="155.86" y="959.2983"/><text fill="#FFFFFF" font-family="sans-serif" font-size="14" font-style="italic" lengthAdjust="spacing" textLength="44.1807" x="171.9098" y="982.8334">&#171;data&#187;</text><text fill="#FFFFFF" font-family="sans-serif" font-size="14" lengthAdjust="spacing" textLength="56.2803" x="165.86" y="999.3217">member</text></g><!--entity t_ledger--><g class="entity" data-qualified-name="..loyalty-core...Data Tier .loyalty-core RDS..t_ledger" data-source-line="149" id="ent0026"><rect fill="#5D7A99" height="52.9766" rx="2.5" ry="2.5" style="stroke:#3D5470;stroke-width:0.5;" width="105.2988" x="739.35" y="959.2983"/><text fill="#FFFFFF" font-family="sans-serif" font-size="14" font-style="italic" lengthAdjust="spacing" textLength="44.1807" x="769.9091" y="982.8334">&#171;data&#187;</text><text fill="#FFFFFF" font-family="sans-serif" font-size="14" lengthAdjust="spacing" textLength="85.2988" x="749.35" y="999.3217">point_ledger</text></g><!--entity t_resv--><g class="entity" data-qualified-name="..loyalty-core...Data Tier .loyalty-core RDS..t_resv" data-source-line="150" id="ent0027"><rect fill="#5D7A99" height="52.9766" rx="2.5" ry="2.5" style="stroke:#3D5470;stroke-width:0.5;" width="138.125" x="572.94" y="959.2983"/><text fill="#FFFFFF" font-family="sans-serif" font-size="14" font-style="italic" lengthAdjust="spacing" textLength="44.1807" x="619.9122" y="982.8334">&#171;data&#187;</text><text fill="#FFFFFF" font-family="sans-serif" font-size="14" lengthAdjust="spacing" textLength="118.125" x="582.94" y="999.3217">point_reservation</text></g><!--entity t_cohort--><g class="entity" data-qualified-name="..loyalty-core...Data Tier .loyalty-core RDS..t_cohort" data-source-line="151" id="ent0028"><rect fill="#5D7A99" height="52.9766" rx="2.5" ry="2.5" style="stroke:#3D5470;stroke-width:0.5;" width="106.4063" x="872.8" y="959.2983"/><text fill="#FFFFFF" font-family="sans-serif" font-size="14" font-style="italic" lengthAdjust="spacing" textLength="44.1807" x="903.9128" y="982.8334">&#171;data&#187;</text><text fill="#FFFFFF" font-family="sans-serif" font-size="14" lengthAdjust="spacing" textLength="86.4063" x="882.8" y="999.3217">point_cohort</text></g><!--entity t_adj--><g class="entity" data-qualified-name="..loyalty-core...Data Tier .loyalty-core RDS..t_adj" data-source-line="152" id="ent0029"><rect fill="#5D7A99" height="52.9766" rx="2.5" ry="2.5" style="stroke:#3D5470;stroke-width:0.5;" width="136.9082" x="260.55" y="959.2983"/><text fill="#FFFFFF" font-family="sans-serif" font-size="14" font-style="italic" lengthAdjust="spacing" textLength="44.1807" x="306.9138" y="982.8334">&#171;data&#187;</text><text fill="#FFFFFF" font-family="sans-serif" font-size="14" lengthAdjust="spacing" textLength="116.9082" x="270.55" y="999.3217">approval_request</text></g><!--entity t_audit--><g class="entity" data-qualified-name="..loyalty-core...Data Tier .loyalty-core RDS..t_audit" data-source-line="153" id="ent0030"><rect fill="#5D7A99" height="52.9766" rx="2.5" ry="2.5" style="stroke:#3D5470;stroke-width:0.5;" width="119.1895" x="425.41" y="959.2983"/><text fill="#FFFFFF" font-family="sans-serif" font-size="14" font-style="italic" lengthAdjust="spacing" textLength="44.1807" x="462.9144" y="982.8334">&#171;data&#187;</text><text fill="#FFFFFF" font-family="sans-serif" font-size="14" lengthAdjust="spacing" textLength="99.1895" x="435.41" y="999.3217">core_audit_log</text></g><!--entity t_outbox--><g class="entity" data-qualified-name="..loyalty-core...Data Tier .loyalty-core RDS..t_outbox" data-source-line="154" id="ent0031"><rect fill="#5D7A99" height="52.9766" rx="2.5" ry="2.5" style="stroke:#3D5470;stroke-width:0.5;" width="68.5215" x="1006.74" y="959.2983"/><text fill="#FFFFFF" font-family="sans-serif" font-size="14" font-style="italic" lengthAdjust="spacing" textLength="44.1807" x="1018.9104" y="982.8334">&#171;data&#187;</text><text fill="#FFFFFF" font-family="sans-serif" font-size="14" lengthAdjust="spacing" textLength="48.5215" x="1016.74" y="999.3217">outbox</text></g><!--entity mbff--><g class="entity" data-qualified-name="mbff" data-source-line="113" id="ent0001"><rect fill="#B0BEC5" height="52.9766" rx="2.5" ry="2.5" style="stroke:#78909C;stroke-width:0.5;" width="145.9727" x="602.01" y="44.4883"/><text fill="#000000" font-family="sans-serif" font-size="14" font-style="italic" lengthAdjust="spacing" textLength="36.292" x="656.8503" y="68.0234">&#171;ext&#187;</text><text fill="#000000" font-family="sans-serif" font-size="14" lengthAdjust="spacing" textLength="125.9727" x="612.01" y="84.5117">loyalty-mobile-bff</text></g><!--entity abff--><g class="entity" data-qualified-name="abff" data-source-line="114" id="ent0002"><rect fill="#B0BEC5" height="52.9766" rx="2.5" ry="2.5" style="stroke:#78909C;stroke-width:0.5;" width="141.9463" x="510.03" y="142.4683"/><text fill="#000000" font-family="sans-serif" font-size="14" font-style="italic" lengthAdjust="spacing" textLength="36.292" x="562.8571" y="166.0034">&#171;ext&#187;</text><text fill="#000000" font-family="sans-serif" font-size="14" lengthAdjust="spacing" textLength="121.9463" x="520.03" y="182.4917">loyalty-admin-bff</text></g><!--entity earn--><g class="entity" data-qualified-name="earn" data-source-line="115" id="ent0003"><rect fill="#B0BEC5" height="52.9766" rx="2.5" ry="2.5" style="stroke:#78909C;stroke-width:0.5;" width="123.8037" x="519.1" y="240.4383"/><text fill="#000000" font-family="sans-serif" font-size="14" font-style="italic" lengthAdjust="spacing" textLength="36.292" x="562.8559" y="263.9734">&#171;ext&#187;</text><text fill="#000000" font-family="sans-serif" font-size="14" lengthAdjust="spacing" textLength="103.8037" x="529.1" y="280.4617">loyalty-earning</text></g><!--entity redm--><g class="entity" data-qualified-name="redm" data-source-line="116" id="ent0004"><rect fill="#B0BEC5" height="52.9766" rx="2.5" ry="2.5" style="stroke:#78909C;stroke-width:0.5;" width="150.9834" x="541.51" y="338.4183"/><text fill="#000000" font-family="sans-serif" font-size="14" font-style="italic" lengthAdjust="spacing" textLength="36.292" x="598.8557" y="361.9534">&#171;ext&#187;</text><text fill="#000000" font-family="sans-serif" font-size="14" lengthAdjust="spacing" textLength="130.9834" x="551.51" y="378.4417">loyalty-redemption</text></g><!--entity msk--><g class="entity" data-qualified-name="msk" data-source-line="117" id="ent0005"><rect fill="#B0BEC5" height="52.9766" rx="2.5" ry="2.5" style="stroke:#78909C;stroke-width:0.5;" width="141.8301" x="1397.08" y="959.2983"/><text fill="#000000" font-family="sans-serif" font-size="14" font-style="italic" lengthAdjust="spacing" textLength="36.292" x="1449.849" y="982.8334">&#171;ext&#187;</text><text fill="#000000" font-family="sans-serif" font-size="14" lengthAdjust="spacing" textLength="121.8301" x="1407.08" y="999.3217">Shared MSK Kafka</text></g><!--link mbff to api--><g class="link" data-entity-1="ent0001" data-entity-2="ent0008" data-link-type="dependency" data-source-line="159" id="lnk32"><path d="M685.73,97.7583 C707.38,153.8783 750.57,290.1783 706,391.3983 C684.94,439.2183 641.9176,474.7559 606.4476,498.2659" fill="none" id="mbff-to-api" style="stroke:#181818;stroke-width:1;"/><polygon fill="#181818" points="602.28,501.0283,611.9917,499.3901,606.4476,498.2659,607.5719,492.7219,602.28,501.0283" style="stroke:#181818;stroke-width:1;stroke-linejoin:miter;stroke-miterlimit:10;"/></g><!--link abff to api--><g class="link" data-entity-1="ent0002" data-entity-2="ent0008" data-link-type="dependency" data-source-line="160" id="lnk33"><path d="M541.56,195.8583 C527.24,207.5883 512.7,222.7983 505,240.4383 C465.55,330.8283 514.6467,445.2804 541.3867,496.8004" fill="none" id="abff-to-api" style="stroke:#181818;stroke-width:1;"/><polygon fill="#181818" points="543.69,501.2383,543.0943,491.4075,541.3867,496.8004,535.9937,495.0928,543.69,501.2383" style="stroke:#181818;stroke-width:1;stroke-linejoin:miter;stroke-miterlimit:10;"/></g><!--link earn to api--><g class="link" data-entity-1="ent0003" data-entity-2="ent0008" data-link-type="dependency" data-source-line="161" id="lnk34"><path d="M555.27,293.6483 C544.64,306.0783 533.53,321.8683 528,338.4183 C509.26,394.5083 529.3556,459.377 544.3856,496.317" fill="none" id="earn-to-api" style="stroke:#181818;stroke-width:1;"/><polygon fill="#181818" points="546.27,500.9483,546.5832,491.1044,544.3856,496.317,539.1731,494.1194,546.27,500.9483" style="stroke:#181818;stroke-width:1;stroke-linejoin:miter;stroke-miterlimit:10;"/></g><!--link redm to api--><g class="link" data-entity-1="ent0004" data-entity-2="ent0008" data-link-type="dependency" data-source-line="162" id="lnk35"><path d="M607.52,391.7683 C596.51,421.8083 580.1803,466.3735 569.1803,496.3935" fill="none" id="redm-to-api" style="stroke:#181818;stroke-width:1;"/><polygon fill="#181818" points="567.46,501.0883,574.3123,494.0139,569.1803,496.3935,566.8007,491.2615,567.46,501.0883" style="stroke:#181818;stroke-width:1;stroke-linejoin:miter;stroke-miterlimit:10;"/></g><!--link api to memb--><g class="link" data-entity-1="ent0008" data-entity-2="ent0010" data-link-type="dependency" data-source-line="165" id="lnk36"><path d="M498.01,532.5283 C432.56,538.1283 325.69,552.0883 240,586.3683 C213.91,596.8083 191.5059,611.3161 171.8259,626.0161" fill="none" id="api-to-memb" style="stroke:#181818;stroke-width:1;"/><polygon fill="#181818" points="167.82,629.0083,177.4243,626.827,171.8259,626.0161,172.6368,620.4177,167.82,629.0083" style="stroke:#181818;stroke-width:1;stroke-linejoin:miter;stroke-miterlimit:10;"/></g><!--link api to lwrite--><g class="link" data-entity-1="ent0008" data-entity-2="ent0012" data-link-type="dependency" data-source-line="166" id="lnk37"><path d="M617.78,550.3183 C649.75,560.7783 690.03,572.3683 727,578.3683 C738.8,580.2883 933.71,577.7683 942,586.3683 C971.6,617.0883 961.36,644.3383 942,682.3483 C932.55,700.8983 919.8624,712.9683 902.8124,724.1383" fill="none" id="api-to-lwrite" style="stroke:#181818;stroke-width:1;"/><polygon fill="#181818" points="898.63,726.8783,908.3503,725.2922,902.8124,724.1383,903.9663,718.6004,898.63,726.8783" style="stroke:#181818;stroke-width:1;stroke-linejoin:miter;stroke-miterlimit:10;"/></g><!--link api to resv--><g class="link" data-entity-1="ent0008" data-entity-2="ent0014" data-link-type="dependency" data-source-line="167" id="lnk38"><path d="M618.05,546.4183 C673.85,562.7583 748.85,584.8283 752,586.3683 C775.18,597.7483 794.8241,611.5893 812.6841,625.7693" fill="none" id="api-to-resv" style="stroke:#181818;stroke-width:1;"/><polygon fill="#181818" points="816.6,628.8783,812.0386,620.1494,812.6841,625.7693,807.0642,626.4147,816.6,628.8783" style="stroke:#181818;stroke-width:1;stroke-linejoin:miter;stroke-miterlimit:10;"/></g><!--link api to adj--><g class="link" data-entity-1="ent0008" data-entity-2="ent0016" data-link-type="dependency" data-source-line="168" id="lnk39"><path d="M544.08,554.6783 C532.34,576.4183 518.0151,602.9684 506.2851,624.6984" fill="none" id="api-to-adj" style="stroke:#181818;stroke-width:1;"/><polygon fill="#181818" points="503.91,629.0983,511.7051,623.0786,506.2851,624.6984,504.6652,619.2784,503.91,629.0983" style="stroke:#181818;stroke-width:1;stroke-linejoin:miter;stroke-miterlimit:10;"/></g><!--link memb to t_member--><g class="link" data-entity-1="ent0010" data-entity-2="ent0025" data-link-type="dependency" data-source-line="171" id="lnk40"><path d="M140.55,682.5883 C151.39,743.8983 177.7792,893.0747 188.5992,954.2547" fill="none" id="memb-to-t_member" style="stroke:#181818;stroke-width:1;"/><polygon fill="#181818" points="189.47,959.1783,191.8415,949.6192,188.5992,954.2547,183.9638,951.0124,189.47,959.1783" style="stroke:#181818;stroke-width:1;stroke-linejoin:miter;stroke-miterlimit:10;"/></g><!--link tier to t_member--><g class="link" data-entity-1="ent0011" data-entity-2="ent0025" data-link-type="dependency" data-source-line="172" id="lnk41"><path d="M303.66,682.5883 C281.42,743.8983 227.2062,893.2984 204.9962,954.4784" fill="none" id="tier-to-t_member" style="stroke:#181818;stroke-width:1;"/><polygon fill="#181818" points="203.29,959.1783,210.121,952.0834,204.9962,954.4784,202.6012,949.3535,203.29,959.1783" style="stroke:#181818;stroke-width:1;stroke-linejoin:miter;stroke-miterlimit:10;"/></g><!--link lwrite to t_ledger--><g class="link" data-entity-1="ent0012" data-entity-2="ent0026" data-link-type="dependency" data-source-line="173" id="lnk42"><path d="M761.59,755.1683 C700.31,757.3983 624.32,764.9883 604,788.3283 C568.99,828.5383 567.56,869.3683 604,908.2983 C613.21,918.1383 712.76,910.6683 725,916.2983 C745.1,925.5483 759.3162,939.7325 771.2962,955.0225" fill="none" id="lwrite-to-t_ledger" style="stroke:#181818;stroke-width:1;"/><polygon fill="#181818" points="774.38,958.9583,771.9779,949.4069,771.2962,955.0225,765.6806,954.3409,774.38,958.9583" style="stroke:#181818;stroke-width:1;stroke-linejoin:miter;stroke-miterlimit:10;"/></g><!--link bproj to t_member--><g class="link" data-entity-1="ent0013" data-entity-2="ent0025" data-link-type="dependency" data-source-line="174" id="lnk43"><path d="M618.14,867.7883 C493.72,883.3683 251,914.0083 247,916.2983 C229.78,926.1783 218.8188,939.8006 209.7288,954.8206" fill="none" id="bproj-to-t_member" style="stroke:#181818;stroke-width:1;"/><polygon fill="#181818" points="207.14,959.0983,215.2219,953.4696,209.7288,954.8206,208.3777,949.3275,207.14,959.0983" style="stroke:#181818;stroke-width:1;stroke-linejoin:miter;stroke-miterlimit:10;"/></g><!--link resv to t_resv--><g class="link" data-entity-1="ent0014" data-entity-2="ent0027" data-link-type="dependency" data-source-line="175" id="lnk44"><path d="M770.34,682.7683 C696.56,709.4483 592.9,752.1083 570,788.3283 C541.5,833.3983 550.34,858.7383 570,908.2983 C577.8,927.9683 589.6104,942.1548 604.2504,955.4648" fill="none" id="resv-to-t_resv" style="stroke:#181818;stroke-width:1;"/><polygon fill="#181818" points="607.95,958.8283,603.9815,949.8143,604.2504,955.4648,598.6,955.7337,607.95,958.8283" style="stroke:#181818;stroke-width:1;stroke-linejoin:miter;stroke-miterlimit:10;"/></g><!--link cohort to t_cohort--><g class="link" data-entity-1="ent0015" data-entity-2="ent0028" data-link-type="dependency" data-source-line="176" id="lnk45"><path d="M872.72,884.6083 C884.28,906.3483 898.3917,932.884 909.9517,954.614" fill="none" id="cohort-to-t_cohort" style="stroke:#181818;stroke-width:1;"/><polygon fill="#181818" points="912.3,959.0283,911.6044,949.204,909.9517,954.614,904.5417,952.9613,912.3,959.0283" style="stroke:#181818;stroke-width:1;stroke-linejoin:miter;stroke-miterlimit:10;"/></g><!--link adj to t_adj--><g class="link" data-entity-1="ent0016" data-entity-2="ent0029" data-link-type="dependency" data-source-line="177" id="lnk46"><path d="M477.37,682.5883 C447.27,743.8983 373.8137,893.5101 343.7737,954.6901" fill="none" id="adj-to-t_adj" style="stroke:#181818;stroke-width:1;"/><polygon fill="#181818" points="341.57,959.1783,349.1272,952.8626,343.7737,954.6901,341.9462,949.3366,341.57,959.1783" style="stroke:#181818;stroke-width:1;stroke-linejoin:miter;stroke-miterlimit:10;"/></g><!--link audit to t_audit--><g class="link" data-entity-1="ent0017" data-entity-2="ent0030" data-link-type="dependency" data-source-line="178" id="lnk47"><path d="M607.5,682.4383 C586.76,693.4383 565.49,708.2483 551,727.3483 C497.04,798.4783 487.1226,904.1713 485.4026,953.9713" fill="none" id="audit-to-t_audit" style="stroke:#181818;stroke-width:1;"/><polygon fill="#181818" points="485.23,958.9683,489.5383,950.1117,485.4026,953.9713,481.543,949.8356,485.23,958.9683" style="stroke:#181818;stroke-width:1;stroke-linejoin:miter;stroke-miterlimit:10;"/></g><!--link relay to t_outbox--><g class="link" data-entity-1="ent0022" data-entity-2="ent0031" data-link-type="dependency" data-source-line="179" id="lnk48"><path d="M1041,884.6083 C1041,906.3483 1041,932.2983 1041,954.0283" fill="none" id="relay-to-t_outbox" style="stroke:#181818;stroke-width:1;"/><polygon fill="#181818" points="1041,959.0283,1045,950.0283,1041,954.0283,1037,950.0283,1041,959.0283" style="stroke:#181818;stroke-width:1;stroke-linejoin:miter;stroke-miterlimit:10;"/></g><!--link lwrite to bproj--><!--link lwrite to cohort--><!--link resv to lwrite--><!--link expj to lwrite--><!--link sweep to resv--><!--link relay to msk--><g class="link" data-entity-1="ent0022" data-entity-2="ent0005" data-link-type="dependency" data-source-line="189" id="lnk54"><path d="M1071.77,884.6283 C1083.43,893.2883 1097.23,902.2683 1111,908.2983 C1204.9,949.4683 1317.6959,968.5504 1391.6759,977.4604" fill="none" id="relay-to-msk" style="stroke:#181818;stroke-width:1;"/><polygon fill="#181818" points="1396.64,978.0583,1388.1829,973.0108,1391.6759,977.4604,1387.2263,980.9534,1396.64,978.0583" style="stroke:#181818;stroke-width:1;stroke-linejoin:miter;stroke-miterlimit:10;"/></g><!--reverse link lifecycle to msk--><g class="link" data-entity-1="ent0023" data-entity-2="ent0005" data-link-type="dependency" data-source-line="190" id="lnk55"><path d="M1285.8162,887.1216 C1326.2562,908.8116 1379.23,937.1983 1419.66,958.8783" fill="none" id="lifecycle-backto-msk" style="stroke:#181818;stroke-width:1;"/><polygon fill="#181818" points="1281.41,884.7583,1287.4506,892.5372,1285.8162,887.1216,1291.2318,885.4872,1281.41,884.7583" style="stroke:#181818;stroke-width:1;stroke-linejoin:miter;stroke-miterlimit:10;"/></g><!--link mbff to abff--><!--link abff to earn--><!--link earn to redm--><?plantuml-src XLTTRkCs47xtAGRAGvC0AjpyR18q293DfkZkEkWYDj27eWWeQIIpaKYLf1qRYmNwr0CKlKFlqQFiIJgaVYo9SYe30JZyvfVV31d3JOvmTmOpN6CEf_3rZxyXbrkMcsqOIuLEC3VCy1WMifIvpBQJYNxcecIA5Q2NB94lN6IGibnZPoV1bAroiy2DkSrv9WeK1cBwWwg34Z91ZIMSN7Q4YebdApmxxxfI61icCehtymJeKt8baZkf1AhhQxsERswW_Kwc3l9MgWJLt6npz209qqjCAXYBdxFQN2xxrWxIQNgHfXrpFiRXfj7PvUNPPDnWB8jI2agUL1ga1VuWXHc1DAxTvxiUGW-c5wTltdotntV236kpEKyksDNLq7SNyZ--Xz23q-Jyx6AwnpST_YwTQ1fXV3xqtOKqfNIVxti8FRYul9fUnPClNPgK50FB6f8C8gAycFqDRLVchj3-sW0TRsfNtB2SEq_VmFs6E2nO3W9vjepaIcauL1ZYffGQ4qYLB61sSZJPCJPeUggG4SynZD8qW2OXfg4WmHYS9GKN5ReBPtlWo9IWNWnin1su5O_15IPOb8PBqGk6n4KNFbyo4i73_2DyPEap2_hM2_rigzAR6f6jE5FRhfdZuoxa-DZwh9heisLFSsx1U-6quVRJ-w1fzPsLn_lvmcx1Z6rH1GqL-arXIrHoKltIitnRbdI8p2OCTmrSZpXvm292fPUyXDiiKvWnWy68au9mGzq5HmMVbFoDHAwoUm8qX1lgpZ39I7kEQirZXCEV5JTu5FZA-OlT6Qg_PJaJf3Vmxcb79G6ymj8SLkkgE0zCKC5KCAQiKA-7kdToAPNnilPqOuSRQjEnABccVdh4trUe3TqtH92Hh5dYHNsxIhY1cSp0rQeXXAzgSHuXTjC1FiXeZ0dtcvAhhTqDkYFAiq-z_sf55uiPp5yGInkYfwtjZXVTJolZEc4aBBUreOBbR1ky4fQoW75sXpEUOhoDxVqlXLuLev7b3SYBxXrT1E38VjXh_STtywEHY0ldj5T45t1zdzY6UAemGyrISc6USjSQmHxDQdTSK-sE8V0rn-XSwLLatUTndCgifZAPTLGEHZH7M6mBz-Ge-aGFh63KOSFWdg9qF7YzgXN6dP-xlfhvQakc9_RcWJ2ySGEJTHVsrcWNzave5sJ4Jk2lV_u5BLtqX7OSmWt5Pb4FgcRfgjqiR278L3k9dK738afCleXw_XvgRbCDdHq5r3yLv6XY_RXqhQsMF7Qi-j8gZ5PQqyNDGGzhO-nOS25NfztAwiEd1A23jFcuK-g8tA6vBjm9wmFffXuQ6RQbX4Ewyocq6BN-7jQe8WrSmB__d7vBZuewbV2N9KyI5B-6zJZtvNMKTJwTZVfGxCmQtN3ZgBVXYa01DoC9ZBJlWLrcrSdJIw0T670TXitRu4Td1rZxVy2IMyOuxlNyk8SDyyJk0UFuE8YA7Yh_0G00?></g></svg>