<svg xmlns="http://www.w3.org/2000/svg" xmlns:xlink="http://www.w3.org/1999/xlink" contentStyleType="text/css" data-diagram-type="DESCRIPTION" height="1106px" preserveAspectRatio="none" style="width:1405px;height:1106px;background:#FFFFFF;" version="1.1" viewBox="0 0 1405 1106" width="1405px" zoomAndPan="magnify"><?plantuml 1.2026.4?><defs/><g><g class="title" data-source-line="66"><text fill="#000000" font-family="sans-serif" font-size="14" font-weight="700" lengthAdjust="spacing" textLength="644.1504" x="377.3968" y="23.5352">C4 Level 3 &#8212; loyalty-integration-bridge &#8212; Static Topology (ingress gateway, ADR-0025)</text></g><!--cluster **loyalty-integration-bridge**--><g class="cluster" data-qualified-name="..loyalty-integration-bridge.." data-source-line="108" id="ent0005"><rect fill="#F0F7FF" height="587.4" rx="10" ry="10" style="stroke:#0B4884;stroke-width:1;stroke-dasharray:7,7;" width="1152" x="228.81" y="318.9083"/><text fill="#000000" font-family="sans-serif" font-size="14" font-style="italic" lengthAdjust="spacing" textLength="36.2236" x="786.6982" y="334.4434">&#171;svc&#187;</text><text fill="#000000" font-family="sans-serif" font-size="14" font-weight="700" lengthAdjust="spacing" textLength="192.8828" x="708.3686" y="350.9317">loyalty-integration-bridge</text></g><!--cluster Ingress Consumers (validate ? stamp ? produce)--><g class="cluster" data-qualified-name="..loyalty-integration-bridge...Ingress Consumers .validate . stamp . produce." data-source-line="110" id="ent0006"><path d="M270.31,377.9083 L611.0288,377.9083 A3.75,3.75 0 0 1 613.5288,380.4083 L620.5288,400.3966 L1004.31,400.3966 A2.5,2.5 0 0 1 1006.81,402.8966 L1006.81,495.8783 A2.5,2.5 0 0 1 1004.31,498.3783 L270.31,498.3783 A2.5,2.5 0 0 1 267.81,495.8783 L267.81,380.4083 A2.5,2.5 0 0 1 270.31,377.9083" fill="#FAFAFA" style="stroke:#9E9E9E;stroke-width:1.5;"/><line style="stroke:#9E9E9E;stroke-width:1.5;" x1="267.81" x2="620.5288" y1="400.3966" y2="400.3966"/><text fill="#000000" font-family="sans-serif" font-size="14" font-style="italic" lengthAdjust="spacing" textLength="339.7188" x="271.81" y="393.4434">Ingress Consumers (validate &#8594; stamp &#8594; produce)</text></g><!--cluster Cross-cutting Consumers--><g class="cluster" data-qualified-name="..loyalty-integration-bridge...Cross-cutting Consumers" data-source-line="117" id="ent0011"><path d="M1117.31,585.6183 L1293.4604,585.6183 A3.75,3.75 0 0 1 1295.9604,588.1183 L1302.9604,608.1066 L1354.31,608.1066 A2.5,2.5 0 0 1 1356.81,610.6066 L1356.81,687.0983 A2.5,2.5 0 0 1 1354.31,689.5983 L1117.31,689.5983 A2.5,2.5 0 0 1 1114.81,687.0983 L1114.81,588.1183 A2.5,2.5 0 0 1 1117.31,585.6183" fill="#FAFAFA" style="stroke:#9E9E9E;stroke-width:1.5;"/><line style="stroke:#9E9E9E;stroke-width:1.5;" x1="1114.81" x2="1302.9604" y1="608.1066" y2="608.1066"/><text fill="#000000" font-family="sans-serif" font-size="14" font-style="italic" lengthAdjust="spacing" textLength="175.1504" x="1118.81" y="601.1534">Cross-cutting Consumers</text></g><!--cluster Inbound HTTPS--><g class="cluster" data-qualified-name="..loyalty-integration-bridge...Inbound HTTPS" data-source-line="121" id="ent0013"><path d="M255.31,585.6183 L360.3325,585.6183 A3.75,3.75 0 0 1 362.8325,588.1183 L369.8325,608.1066 L490.31,608.1066 A2.5,2.5 0 0 1 492.81,610.6066 L492.81,687.0983 A2.5,2.5 0 0 1 490.31,689.5983 L255.31,689.5983 A2.5,2.5 0 0 1 252.81,687.0983 L252.81,588.1183 A2.5,2.5 0 0 1 255.31,585.6183" fill="#FAFAFA" style="stroke:#9E9E9E;stroke-width:1.5;"/><line style="stroke:#9E9E9E;stroke-width:1.5;" x1="252.81" x2="369.8325" y1="608.1066" y2="608.1066"/><text fill="#000000" font-family="sans-serif" font-size="14" font-style="italic" lengthAdjust="spacing" textLength="104.0225" x="256.81" y="601.1534">Inbound HTTPS</text></g><!--cluster Validation + Canonical Stamping--><g class="cluster" data-qualified-name="..loyalty-integration-bridge...Validation . Canonical Stamping" data-source-line="125" id="ent0015"><path d="M619.31,577.3783 L843.0659,577.3783 A3.75,3.75 0 0 1 845.5659,579.8783 L852.5659,599.8666 L1088.31,599.8666 A2.5,2.5 0 0 1 1090.81,602.3666 L1090.81,695.3383 A2.5,2.5 0 0 1 1088.31,697.8383 L619.31,697.8383 A2.5,2.5 0 0 1 616.81,695.3383 L616.81,579.8783 A2.5,2.5 0 0 1 619.31,577.3783" fill="#FAFAFA" style="stroke:#9E9E9E;stroke-width:1.5;"/><line style="stroke:#9E9E9E;stroke-width:1.5;" x1="616.81" x2="852.5659" y1="599.8666" y2="599.8666"/><text fill="#000000" font-family="sans-serif" font-size="14" font-style="italic" lengthAdjust="spacing" textLength="222.7559" x="620.81" y="592.9134">Validation + Canonical Stamping</text></g><!--cluster State (in-memory, ephemeral)--><g class="cluster" data-qualified-name="..loyalty-integration-bridge...State .in-memory. ephemeral." data-source-line="130" id="ent0018"><path d="M1101.31,770.0783 L1306.144,770.0783 A3.75,3.75 0 0 1 1308.644,772.5783 L1315.644,792.5666 L1354.31,792.5666 A2.5,2.5 0 0 1 1356.81,795.0666 L1356.81,871.5583 A2.5,2.5 0 0 1 1354.31,874.0583 L1101.31,874.0583 A2.5,2.5 0 0 1 1098.81,871.5583 L1098.81,772.5783 A2.5,2.5 0 0 1 1101.31,770.0783" fill="#FAFAFA" style="stroke:#9E9E9E;stroke-width:1.5;"/><line style="stroke:#9E9E9E;stroke-width:1.5;" x1="1098.81" x2="1315.644" y1="792.5666" y2="792.5666"/><text fill="#000000" font-family="sans-serif" font-size="14" font-style="italic" lengthAdjust="spacing" textLength="203.834" x="1102.81" y="785.6134">State (in-memory, ephemeral)</text></g><!--cluster Configuration (startup-loaded)--><g class="cluster" data-qualified-name="..loyalty-integration-bridge...Configuration .startup-loaded." data-source-line="134" id="ent0020"><path d="M846.31,761.8383 L1056.934,761.8383 A3.75,3.75 0 0 1 1059.434,764.3383 L1066.434,784.3266 L1066.31,784.3266 A2.5,2.5 0 0 1 1068.81,786.8266 L1068.81,879.8083 A2.5,2.5 0 0 1 1066.31,882.3083 L846.31,882.3083 A2.5,2.5 0 0 1 843.81,879.8083 L843.81,764.3383 A2.5,2.5 0 0 1 846.31,761.8383" fill="#FAFAFA" style="stroke:#9E9E9E;stroke-width:1.5;"/><line style="stroke:#9E9E9E;stroke-width:1.5;" x1="843.81" x2="1066.434" y1="784.3266" y2="784.3266"/><text fill="#000000" font-family="sans-serif" font-size="14" font-style="italic" lengthAdjust="spacing" textLength="209.624" x="847.81" y="777.3734">Configuration (startup-loaded)</text></g><!--cluster Outbound--><g class="cluster" data-qualified-name="..loyalty-integration-bridge...Outbound" data-source-line="138" id="ent0022"><path d="M412.31,770.0783 L481.7104,770.0783 A3.75,3.75 0 0 1 484.2104,772.5783 L491.2104,792.5666 L817.31,792.5666 A2.5,2.5 0 0 1 819.81,795.0666 L819.81,871.5583 A2.5,2.5 0 0 1 817.31,874.0583 L412.31,874.0583 A2.5,2.5 0 0 1 409.81,871.5583 L409.81,772.5783 A2.5,2.5 0 0 1 412.31,770.0783" fill="#FAFAFA" style="stroke:#9E9E9E;stroke-width:1.5;"/><line style="stroke:#9E9E9E;stroke-width:1.5;" x1="409.81" x2="491.2104" y1="792.5666" y2="792.5666"/><text fill="#000000" font-family="sans-serif" font-size="14" font-style="italic" lengthAdjust="spacing" textLength="68.4004" x="413.81" y="785.6134">Outbound</text></g><!--entity c_cs--><g class="entity" data-qualified-name="..loyalty-integration-bridge...Ingress Consumers .validate . stamp . produce..c_cs" data-source-line="111" id="ent0007"><rect fill="#0B4884" height="69.4648" rx="2.5" ry="2.5" style="stroke:#073661;stroke-width:0.5;" width="155.3926" x="676.12" y="412.9083"/><text fill="#FFFFFF" font-family="sans-serif" font-size="14" font-style="italic" lengthAdjust="spacing" textLength="91.335" x="708.1488" y="436.4434">&#171;component&#187;</text><text fill="#FFFFFF" font-family="sans-serif" font-size="14" lengthAdjust="spacing" textLength="135.3926" x="686.12" y="452.9317">Card-Spend Ingress</text><text fill="#FFFFFF" font-family="sans-serif" font-size="14" lengthAdjust="spacing" textLength="69.3984" x="719.1171" y="469.42">Consumer</text></g><!--entity c_pay--><g class="entity" data-qualified-name="..loyalty-integration-bridge...Ingress Consumers .validate . stamp . produce..c_pay" data-source-line="112" id="ent0008"><rect fill="#0B4884" height="69.4648" rx="2.5" ry="2.5" style="stroke:#073661;stroke-width:0.5;" width="131.2617" x="859.18" y="412.9083"/><text fill="#FFFFFF" font-family="sans-serif" font-size="14" font-style="italic" lengthAdjust="spacing" textLength="91.335" x="879.1434" y="436.4434">&#171;component&#187;</text><text fill="#FFFFFF" font-family="sans-serif" font-size="14" lengthAdjust="spacing" textLength="111.2617" x="869.18" y="452.9317">Payment Ingress</text><text fill="#FFFFFF" font-family="sans-serif" font-size="14" lengthAdjust="spacing" textLength="69.3984" x="890.1116" y="469.42">Consumer</text></g><!--entity c_rev--><g class="entity" data-qualified-name="..loyalty-integration-bridge...Ingress Consumers .validate . stamp . produce..c_rev" data-source-line="113" id="ent0009"><rect fill="#0B4884" height="69.4648" rx="2.5" ry="2.5" style="stroke:#073661;stroke-width:0.5;" width="130.0244" x="283.8" y="412.9083"/><text fill="#FFFFFF" font-family="sans-serif" font-size="14" font-style="italic" lengthAdjust="spacing" textLength="91.335" x="303.1447" y="436.4434">&#171;component&#187;</text><text fill="#FFFFFF" font-family="sans-serif" font-size="14" lengthAdjust="spacing" textLength="110.0244" x="293.8" y="452.9317">Reversal Ingress</text><text fill="#FFFFFF" font-family="sans-serif" font-size="14" lengthAdjust="spacing" textLength="69.3984" x="314.113" y="469.42">Consumer</text></g><!--entity c_life--><g class="entity" data-qualified-name="..loyalty-integration-bridge...Ingress Consumers .validate . stamp . produce..c_life" data-source-line="114" id="ent0010"><rect fill="#0B4884" height="69.4648" rx="2.5" ry="2.5" style="stroke:#073661;stroke-width:0.5;" width="205.6914" x="441.97" y="412.9083"/><text fill="#FFFFFF" font-family="sans-serif" font-size="14" font-style="italic" lengthAdjust="spacing" textLength="91.335" x="499.1482" y="436.4434">&#171;component&#187;</text><text fill="#FFFFFF" font-family="sans-serif" font-size="14" lengthAdjust="spacing" textLength="185.6914" x="451.97" y="452.9317">Customer-Lifecycle Ingress</text><text fill="#FFFFFF" font-family="sans-serif" font-size="14" lengthAdjust="spacing" textLength="69.3984" x="510.1165" y="469.42">Consumer</text></g><!--entity c_vel--><g class="entity" data-qualified-name="..loyalty-integration-bridge...Cross-cutting Consumers.c_vel" data-source-line="118" id="ent0012"><rect fill="#0B4884" height="52.9766" rx="2.5" ry="2.5" style="stroke:#073661;stroke-width:0.5;" width="210.7363" x="1130.45" y="620.6183"/><text fill="#FFFFFF" font-family="sans-serif" font-size="14" font-style="italic" lengthAdjust="spacing" textLength="91.335" x="1190.1507" y="644.1534">&#171;component&#187;</text><text fill="#FFFFFF" font-family="sans-serif" font-size="14" lengthAdjust="spacing" textLength="190.7363" x="1140.45" y="660.6417">Velocity Anomaly Consumer</text></g><!--entity wh--><g class="entity" data-qualified-name="..loyalty-integration-bridge...Inbound HTTPS.wh" data-source-line="122" id="ent0014"><rect fill="#0B4884" height="52.9766" rx="2.5" ry="2.5" style="stroke:#073661;stroke-width:0.5;" width="207.8174" x="268.91" y="620.6183"/><text fill="#FFFFFF" font-family="sans-serif" font-size="14" font-style="italic" lengthAdjust="spacing" textLength="91.335" x="327.1512" y="644.1534">&#171;component&#187;</text><text fill="#FFFFFF" font-family="sans-serif" font-size="14" lengthAdjust="spacing" textLength="187.8174" x="278.91" y="660.6417">Voucher Webhook Endpoint</text></g><!--entity val--><g class="entity" data-qualified-name="..loyalty-integration-bridge...Validation . Canonical Stamping.val" data-source-line="126" id="ent0016"><rect fill="#0B4884" height="52.9766" rx="2.5" ry="2.5" style="stroke:#073661;stroke-width:0.5;" width="191.1992" x="633.22" y="620.6183"/><text fill="#FFFFFF" font-family="sans-serif" font-size="14" font-style="italic" lengthAdjust="spacing" textLength="91.335" x="683.1521" y="644.1534">&#171;component&#187;</text><text fill="#FFFFFF" font-family="sans-serif" font-size="14" lengthAdjust="spacing" textLength="171.1992" x="643.22" y="660.6417">Ingress Schema Validator</text></g><!--entity stamp--><g class="entity" data-qualified-name="..loyalty-integration-bridge...Validation . Canonical Stamping.stamp" data-source-line="127" id="ent0017"><rect fill="#6A1B9A" height="69.4648" rx="2.5" ry="2.5" style="stroke:#4A148C;stroke-width:0.5;" width="222.1865" x="852.72" y="612.3783"/><text fill="#FFFFFF" font-family="sans-serif" font-size="14" font-style="italic" lengthAdjust="spacing" textLength="70.1846" x="928.721" y="635.9134">&#171;stamper&#187;</text><text fill="#FFFFFF" font-family="sans-serif" font-size="14" lengthAdjust="spacing" textLength="176.6953" x="875.4656" y="652.4017">Canonical Source Stamper</text><text fill="#FFFFFF" font-family="sans-serif" font-size="14" lengthAdjust="spacing" textLength="202.1865" x="862.72" y="668.89">(pure; sets earn_source_code)</text></g><!--entity state_vel--><g class="entity" data-qualified-name="..loyalty-integration-bridge...State .in-memory. ephemeral..state_vel" data-source-line="131" id="ent0019"><rect fill="#0B4884" height="52.9766" rx="2.5" ry="2.5" style="stroke:#073661;stroke-width:0.5;" width="225.1123" x="1115.26" y="805.0783"/><text fill="#FFFFFF" font-family="sans-serif" font-size="14" font-style="italic" lengthAdjust="spacing" textLength="91.335" x="1182.1487" y="828.6134">&#171;component&#187;</text><text fill="#FFFFFF" font-family="sans-serif" font-size="14" lengthAdjust="spacing" textLength="205.1123" x="1125.26" y="845.1017">Sliding-Window Counter Store</text></g><!--entity cfg--><g class="entity" data-qualified-name="..loyalty-integration-bridge...Configuration .startup-loaded..cfg" data-source-line="135" id="ent0021"><rect fill="#FFF3E0" height="69.4648" rx="2.5" ry="2.5" style="stroke:#E65100;stroke-width:0.5;" width="171.3818" x="860.12" y="796.8383"/><text fill="#000000" font-family="sans-serif" font-size="14" font-style="italic" lengthAdjust="spacing" textLength="57.0527" x="917.2846" y="820.3734">&#171;config&#187;</text><text fill="#000000" font-family="sans-serif" font-size="14" lengthAdjust="spacing" textLength="96.6807" x="897.4706" y="836.8617">JSON Schemas</text><text fill="#000000" font-family="sans-serif" font-size="14" lengthAdjust="spacing" textLength="151.3818" x="870.12" y="853.35">(loyalty.ingress.*.json)</text></g><!--entity prod--><g class="entity" data-qualified-name="..loyalty-integration-bridge...Outbound.prod" data-source-line="139" id="ent0023"><rect fill="#0B4884" height="52.9766" rx="2.5" ry="2.5" style="stroke:#073661;stroke-width:0.5;" width="214.2637" x="425.68" y="805.0783"/><text fill="#FFFFFF" font-family="sans-serif" font-size="14" font-style="italic" lengthAdjust="spacing" textLength="91.335" x="487.1444" y="828.6134">&#171;component&#187;</text><text fill="#FFFFFF" font-family="sans-serif" font-size="14" lengthAdjust="spacing" textLength="194.2637" x="435.68" y="845.1017">Kafka Producer (idempotent)</text></g><!--entity dlq--><g class="entity" data-qualified-name="..loyalty-integration-bridge...Outbound.dlq" data-source-line="140" id="ent0024"><rect fill="#0B4884" height="52.9766" rx="2.5" ry="2.5" style="stroke:#073661;stroke-width:0.5;" width="135.4385" x="668.1" y="805.0783"/><text fill="#FFFFFF" font-family="sans-serif" font-size="14" font-style="italic" lengthAdjust="spacing" textLength="91.335" x="690.1518" y="828.6134">&#171;component&#187;</text><text fill="#FFFFFF" font-family="sans-serif" font-size="14" lengthAdjust="spacing" textLength="115.4385" x="678.1" y="845.1017">Per-channel DLQ</text></g><!--entity adapter--><g class="entity" data-qualified-name="adapter" data-source-line="103" id="ent0001"><rect fill="#B0BEC5" height="85.9531" rx="2.5" ry="2.5" style="stroke:#78909C;stroke-width:0.5;" width="268.2266" x="84.7" y="44.4883"/><text fill="#000000" font-family="sans-serif" font-size="14" font-style="italic" lengthAdjust="spacing" textLength="36.292" x="200.6673" y="68.0234">&#171;ext&#187;</text><text fill="#000000" font-family="sans-serif" font-size="14" lengthAdjust="spacing" textLength="218.7227" x="109.452" y="84.5117">Host Bank &#8212; bank-side Adapter</text><text fill="#000000" font-family="sans-serif" font-size="14" lengthAdjust="spacing" textLength="184.9873" x="126.3196" y="101">(owned by the deployment;</text><text fill="#000000" font-family="sans-serif" font-size="14" lengthAdjust="spacing" textLength="248.2266" x="94.7" y="117.4883">translates native &#8594; loyalty.ingress.*)</text></g><!--entity voucher--><g class="entity" data-qualified-name="voucher" data-source-line="104" id="ent0002"><rect fill="#B0BEC5" height="52.9766" rx="2.5" ry="2.5" style="stroke:#78909C;stroke-width:0.5;" width="205.6299" x="7" y="421.1483"/><text fill="#000000" font-family="sans-serif" font-size="14" font-style="italic" lengthAdjust="spacing" textLength="36.292" x="91.6689" y="444.6834">&#171;ext&#187;</text><text fill="#000000" font-family="sans-serif" font-size="14" lengthAdjust="spacing" textLength="185.6299" x="17" y="461.1717">3rd-Party Voucher Provider</text></g><!--entity msk_in--><g class="entity" data-qualified-name="msk_in" data-source-line="105" id="ent0003"><rect fill="#B0BEC5" height="69.4648" rx="2.5" ry="2.5" style="stroke:#78909C;stroke-width:0.5;" width="271.8428" x="500.89" y="193.4483"/><text fill="#000000" font-family="sans-serif" font-size="14" font-style="italic" lengthAdjust="spacing" textLength="36.292" x="618.6654" y="216.9834">&#171;ext&#187;</text><text fill="#000000" font-family="sans-serif" font-size="14" lengthAdjust="spacing" textLength="201.0244" x="536.2992" y="233.4717">Shared MSK Kafka &#8212; inbound</text><text fill="#000000" font-family="sans-serif" font-size="14" lengthAdjust="spacing" textLength="251.8428" x="510.89" y="249.96">(loyalty.ingress.* + own earn stream)</text></g><!--entity msk_out--><g class="entity" data-qualified-name="msk_out" data-source-line="106" id="ent0004"><rect fill="#B0BEC5" height="69.4648" rx="2.5" ry="2.5" style="stroke:#78909C;stroke-width:0.5;" width="230.8135" x="518.41" y="1023.3083"/><text fill="#000000" font-family="sans-serif" font-size="14" font-style="italic" lengthAdjust="spacing" textLength="36.292" x="615.6707" y="1046.8434">&#171;ext&#187;</text><text fill="#000000" font-family="sans-serif" font-size="14" lengthAdjust="spacing" textLength="210.8135" x="528.41" y="1063.3317">Shared MSK Kafka &#8212; outbound</text><text fill="#000000" font-family="sans-serif" font-size="14" lengthAdjust="spacing" textLength="132.877" x="567.3783" y="1079.82">(loyalty.* canonical)</text></g><!--link adapter to msk_in--><g class="link" data-entity-1="ent0001" data-entity-2="ent0003" data-link-type="dependency" data-source-line="145" id="lnk25"><path d="M346.78,130.9283 C406.79,150.8483 472.6046,172.6832 529.0946,191.4332" fill="none" id="adapter-to-msk_in" style="stroke:#0277BD;stroke-width:1;"/><polygon fill="#0277BD" points="533.84,193.0083,526.5583,186.3768,529.0946,191.4332,524.0382,193.9695,533.84,193.0083" style="stroke:#0277BD;stroke-width:1;stroke-linejoin:miter;stroke-miterlimit:10;"/><text fill="#000000" font-family="sans-serif" font-size="13" lengthAdjust="spacing" textLength="157.1172" x="466.25" y="167.0166">produce loyalty.ingress.*</text></g><!--link msk_in to c_cs--><g class="link" data-entity-1="ent0003" data-entity-2="ent0007" data-link-type="dependency" data-source-line="148" id="lnk26"><path d="M716.1,263.1683 C724.53,269.6183 732.09,277.1583 737.81,285.9083 C762.6,323.8183 762.9755,372.8829 759.5155,407.6229" fill="none" id="msk_in-to-c_cs" style="stroke:#0277BD;stroke-width:1;"/><polygon fill="#0277BD" points="759.02,412.5983,763.8923,404.039,759.5155,407.6229,755.9317,403.2462,759.02,412.5983" style="stroke:#0277BD;stroke-width:1;stroke-linejoin:miter;stroke-miterlimit:10;"/><text fill="#000000" font-family="sans-serif" font-size="13" lengthAdjust="spacing" textLength="186.3037" x="747.09" y="299.4766">loyalty.ingress.card_spend.v1</text></g><!--link msk_in to c_pay--><g class="link" data-entity-1="ent0003" data-entity-2="ent0008" data-link-type="dependency" data-source-line="149" id="lnk27"><path d="M773.17,237.8083 C843.45,245.4083 918.95,259.5783 940.81,285.9083 C970.11,321.1783 957.331,372.3216 942.921,408.0316" fill="none" id="msk_in-to-c_pay" style="stroke:#0277BD;stroke-width:1;"/><polygon fill="#0277BD" points="941.05,412.6683,948.1273,405.819,942.921,408.0316,940.7085,402.8253,941.05,412.6683" style="stroke:#0277BD;stroke-width:1;stroke-linejoin:miter;stroke-miterlimit:10;"/><text fill="#000000" font-family="sans-serif" font-size="13" lengthAdjust="spacing" textLength="168.6255" x="950.84" y="299.4766">loyalty.ingress.payment.v1</text></g><!--link msk_in to c_rev--><g class="link" data-entity-1="ent0003" data-entity-2="ent0009" data-link-type="dependency" data-source-line="150" id="lnk28"><path d="M500.7,236.7583 C426.82,244.0283 345.95,258.2283 322.81,285.9083 C293.27,321.2683 309.6943,372.2662 327.1243,407.9262" fill="none" id="msk_in-to-c_rev" style="stroke:#0277BD;stroke-width:1;"/><polygon fill="#0277BD" points="329.32,412.4183,328.9615,402.576,327.1243,407.9262,321.7741,406.089,329.32,412.4183" style="stroke:#0277BD;stroke-width:1;stroke-linejoin:miter;stroke-miterlimit:10;"/><text fill="#000000" font-family="sans-serif" font-size="13" lengthAdjust="spacing" textLength="163.5791" x="323.81" y="299.4766">loyalty.ingress.reversal.v1</text></g><!--link msk_in to c_life--><g class="link" data-entity-1="ent0003" data-entity-2="ent0010" data-link-type="dependency" data-source-line="151" id="lnk29"><path d="M524.74,263.2883 C516.22,269.5983 508.68,277.0683 502.81,285.9083 C477.17,324.6183 497.8084,373.9263 518.5784,408.3763" fill="none" id="msk_in-to-c_life" style="stroke:#0277BD;stroke-width:1;"/><polygon fill="#0277BD" points="521.16,412.6583,519.9387,402.8854,518.5784,408.3763,513.0875,407.016,521.16,412.6583" style="stroke:#0277BD;stroke-width:1;stroke-linejoin:miter;stroke-miterlimit:10;"/><text fill="#000000" font-family="sans-serif" font-size="13" lengthAdjust="spacing" textLength="230.2104" x="503.81" y="299.4766">loyalty.ingress.customer_lifecycle.v1</text></g><!--link msk_in to c_vel--><g class="link" data-entity-1="ent0003" data-entity-2="ent0012" data-link-type="dependency" data-source-line="152" id="lnk30"><path d="M773.23,237.3383 C908.71,246.6483 1100.04,263.5283 1126.81,285.9083 C1230.09,372.2083 1237.8113,547.8588 1236.8513,615.1288" fill="none" id="msk_in-to-c_vel" style="stroke:#0277BD;stroke-width:1;"/><polygon fill="#0277BD" points="1236.78,620.1283,1240.908,611.1863,1236.8513,615.1288,1232.9088,611.0721,1236.78,620.1283" style="stroke:#0277BD;stroke-width:1;stroke-linejoin:miter;stroke-miterlimit:10;"/><text fill="#000000" font-family="sans-serif" font-size="13" lengthAdjust="spacing" textLength="159.5039" x="1230.44" y="452.7066">loyalty.earn.translated.v1</text></g><!--link c_cs to val--><g class="link" data-entity-1="ent0007" data-entity-2="ent0016" data-link-type="dependency" data-source-line="155" id="lnk31"><path d="M741.63,482.6983 C738.53,492.7683 735.58,503.9083 733.81,514.3783 C727.7,550.7083 727.1989,588.4493 727.7389,615.1593" fill="none" id="c_cs-to-val" style="stroke:#181818;stroke-width:1;"/><polygon fill="#181818" points="727.84,620.1583,731.6573,611.0793,727.7389,615.1593,723.6589,611.241,727.84,620.1583" style="stroke:#181818;stroke-width:1;stroke-linejoin:miter;stroke-miterlimit:10;"/></g><!--link c_pay to val--><g class="link" data-entity-1="ent0008" data-entity-2="ent0016" data-link-type="dependency" data-source-line="156" id="lnk32"><path d="M891.12,482.5883 C852.38,521.6183 793.1424,581.2997 758.1024,616.5997" fill="none" id="c_pay-to-val" style="stroke:#181818;stroke-width:1;"/><polygon fill="#181818" points="754.58,620.1483,763.7593,616.5788,758.1024,616.5997,758.0815,610.9429,754.58,620.1483" style="stroke:#181818;stroke-width:1;stroke-linejoin:miter;stroke-miterlimit:10;"/></g><!--link c_rev to val--><g class="link" data-entity-1="ent0009" data-entity-2="ent0016" data-link-type="dependency" data-source-line="157" id="lnk33"><path d="M386.94,482.8683 C399.19,492.0283 413.36,500.9083 427.81,506.3783 C445.98,513.2383 500.3,501.4783 514.81,514.3783 C530.78,528.5583 511.17,544.9483 524.81,561.3783 C552.02,594.1083 589.2297,612.8588 628.0397,625.3288" fill="none" id="c_rev-to-val" style="stroke:#181818;stroke-width:1;"/><polygon fill="#181818" points="632.8,626.8583,625.4551,620.2969,628.0397,625.3288,623.0078,627.9134,632.8,626.8583" style="stroke:#181818;stroke-width:1;stroke-linejoin:miter;stroke-miterlimit:10;"/></g><!--link c_life to val--><g class="link" data-entity-1="ent0010" data-entity-2="ent0016" data-link-type="dependency" data-source-line="158" id="lnk34"><path d="M544.23,482.6883 C544.38,511.1483 546.29,548.9983 554.81,561.3783 C573.59,588.6283 599.0758,605.4852 628.9958,618.3352" fill="none" id="c_life-to-val" style="stroke:#181818;stroke-width:1;"/><polygon fill="#181818" points="633.59,620.3083,626.8989,613.0813,628.9958,618.3352,623.7419,620.432,633.59,620.3083" style="stroke:#181818;stroke-width:1;stroke-linejoin:miter;stroke-miterlimit:10;"/></g><!--link val to cfg--><g class="link" data-entity-1="ent0016" data-entity-2="ent0021" data-link-type="dependency" data-source-line="159" id="lnk35"><path d="M778.25,673.9683 C797.64,685.1083 819.57,698.9783 837.81,713.8383 C868.21,738.5983 894.9145,767.971 915.5145,792.631" fill="none" id="val-to-cfg" style="stroke:#E65100;stroke-width:1;stroke-dasharray:7,7;"/><polygon fill="#E65100" points="918.72,796.4683,916.0199,786.9968,915.5145,792.631,909.8803,792.1256,918.72,796.4683" style="stroke:#E65100;stroke-width:1;stroke-linejoin:miter;stroke-miterlimit:10;"/><text fill="#000000" font-family="sans-serif" font-size="13" lengthAdjust="spacing" textLength="83.1479" x="898.8197" y="727.4066">JSON Schema</text><text fill="#000000" font-family="sans-serif" font-size="13" lengthAdjust="spacing" textLength="138.6074" x="871.09" y="742.7172">(startup-loaded, O(1))</text></g><!--link c_cs to stamp--><g class="link" data-entity-1="ent0007" data-entity-2="ent0017" data-link-type="dependency" data-source-line="160" id="lnk36"><path d="M789.92,482.5883 C828.38,518.7583 885.2875,572.2631 923.8375,608.5131" fill="none" id="c_cs-to-stamp" style="stroke:#181818;stroke-width:1;"/><polygon fill="#181818" points="927.48,611.9383,923.6636,602.8589,923.8375,608.5131,918.1833,608.6869,927.48,611.9383" style="stroke:#181818;stroke-width:1;stroke-linejoin:miter;stroke-miterlimit:10;"/></g><!--link c_pay to stamp--><g class="link" data-entity-1="ent0008" data-entity-2="ent0017" data-link-type="dependency" data-source-line="161" id="lnk37"><path d="M931.52,482.5883 C938.66,518.7583 948.9411,570.783 956.1011,607.033" fill="none" id="c_pay-to-stamp" style="stroke:#181818;stroke-width:1;"/><polygon fill="#181818" points="957.07,611.9383,959.2502,602.3338,956.1011,607.033,951.4019,603.884,957.07,611.9383" style="stroke:#181818;stroke-width:1;stroke-linejoin:miter;stroke-miterlimit:10;"/><text fill="#000000" font-family="sans-serif" font-size="13" lengthAdjust="spacing" textLength="84.8999" x="969.5653" y="527.9466">paymentType</text><text fill="#000000" font-family="sans-serif" font-size="13" lengthAdjust="spacing" textLength="93.3232" x="965.3536" y="543.2572">&#8594; earn_source</text><text fill="#000000" font-family="sans-serif" font-size="13" lengthAdjust="spacing" textLength="128.7305" x="947.65" y="558.5677">(bank-uniform map)</text></g><!--link c_rev to stamp--><g class="link" data-entity-1="ent0009" data-entity-2="ent0017" data-link-type="dependency" data-source-line="162" id="lnk38"><path d="M386.51,482.6583 C398.85,491.9383 413.17,500.9183 427.81,506.3783 C468.77,521.6183 482.91,506.0883 525.81,514.3783 C595.24,527.7783 608.18,549.0783 677.81,561.3783 C713.09,567.5983 804.59,558.7883 838.81,569.3783 C868.13,578.4483 893.4418,593.1139 916.3618,609.1339" fill="none" id="c_rev-to-stamp" style="stroke:#181818;stroke-width:1;"/><polygon fill="#181818" points="920.46,611.9983,915.3748,603.5638,916.3618,609.1339,910.7917,610.1208,920.46,611.9983" style="stroke:#181818;stroke-width:1;stroke-linejoin:miter;stroke-miterlimit:10;"/></g><!--link c_life to stamp--><g class="link" data-entity-1="ent0010" data-entity-2="ent0017" data-link-type="dependency" data-source-line="163" id="lnk39"><path d="M610.71,482.8183 C627.22,490.9283 645.02,499.2683 661.81,506.3783 C700.27,522.6383 801.15,551.3583 838.81,569.3783 C864.31,581.5683 886.9887,594.9229 909.2687,609.1829" fill="none" id="c_life-to-stamp" style="stroke:#181818;stroke-width:1;"/><polygon fill="#181818" points="913.48,611.8783,908.056,603.6576,909.2687,609.1829,903.7434,610.3956,913.48,611.8783" style="stroke:#181818;stroke-width:1;stroke-linejoin:miter;stroke-miterlimit:10;"/></g><!--link val to dlq--><g class="link" data-entity-1="ent0016" data-entity-2="ent0024" data-link-type="dependency" data-source-line="166" id="lnk40"><path d="M729.8,673.8583 C731.13,708.5383 733.2988,764.8919 734.6288,799.6519" fill="none" id="val-to-dlq" style="stroke:#C62828;stroke-width:1;"/><polygon fill="#C62828" points="734.82,804.6483,738.473,795.5019,734.6288,799.6519,730.4788,795.8078,734.82,804.6483" style="stroke:#C62828;stroke-width:1;stroke-linejoin:miter;stroke-miterlimit:10;"/><text fill="#000000" font-family="sans-serif" font-size="13" lengthAdjust="spacing" textLength="96.8652" x="733.52" y="734.9066">schema-invalid</text></g><!--link c_vel to state_vel--><g class="link" data-entity-1="ent0012" data-entity-2="ent0019" data-link-type="dependency" data-source-line="169" id="lnk41"><path d="M1234.69,673.8583 C1233.17,708.5383 1230.6999,764.8931 1229.1699,799.6531" fill="none" id="c_vel-to-state_vel" style="stroke:#181818;stroke-width:1;"/><polygon fill="#181818" points="1228.95,804.6483,1233.3419,795.8329,1229.1699,799.6531,1225.3496,795.4811,1228.95,804.6483" style="stroke:#181818;stroke-width:1;stroke-linejoin:miter;stroke-miterlimit:10;"/></g><!--link voucher to wh--><g class="link" data-entity-1="ent0002" data-entity-2="ent0014" data-link-type="dependency" data-source-line="172" id="lnk42"><path d="M144.2,474.4583 C194.6,512.2983 284.0219,579.4357 334.4219,617.2857" fill="none" id="voucher-to-wh" style="stroke:#181818;stroke-width:1;"/><polygon fill="#181818" points="338.42,620.2883,333.6255,611.6852,334.4219,617.2857,328.8214,618.0822,338.42,620.2883" style="stroke:#181818;stroke-width:1;stroke-linejoin:miter;stroke-miterlimit:10;"/><text fill="#000000" font-family="sans-serif" font-size="13" lengthAdjust="spacing" textLength="76.8003" x="267.9973" y="535.4466">HTTPS POST</text><text fill="#000000" font-family="sans-serif" font-size="13" lengthAdjust="spacing" textLength="96.6748" x="258.06" y="550.7572">(HMAC-signed)</text></g><!--link c_cs to prod--><g class="link" data-entity-1="ent0007" data-entity-2="ent0023" data-link-type="dependency" data-source-line="175" id="lnk43"><path d="M700.03,482.7983 C658.6,510.1583 606.05,547.4583 591.81,569.3783 C566.36,608.5483 545.2034,742.278 536.9934,800.058" fill="none" id="c_cs-to-prod" style="stroke:#181818;stroke-width:1;"/><polygon fill="#181818" points="536.29,805.0083,541.5163,796.6605,536.9934,800.058,533.5959,795.5351,536.29,805.0083" style="stroke:#181818;stroke-width:1;stroke-linejoin:miter;stroke-miterlimit:10;"/></g><!--link c_pay to prod--><g class="link" data-entity-1="ent0008" data-entity-2="ent0023" data-link-type="dependency" data-source-line="176" id="lnk44"><path d="M885.04,482.7383 C873.07,491.5683 859.47,500.2883 845.81,506.3783 C830.05,513.3983 824.56,510.1983 807.81,514.3783 C786.49,519.6983 633.22,553.6983 617.81,569.3783 C573.76,614.1883 600.35,646.1083 580.81,705.8383 C569.42,740.6883 555.7118,775.4041 545.4218,800.4241" fill="none" id="c_pay-to-prod" style="stroke:#181818;stroke-width:1;"/><polygon fill="#181818" points="543.52,805.0483,550.6426,798.2462,545.4218,800.4241,543.2439,795.2033,543.52,805.0483" style="stroke:#181818;stroke-width:1;stroke-linejoin:miter;stroke-miterlimit:10;"/></g><!--link c_rev to prod--><g class="link" data-entity-1="ent0009" data-entity-2="ent0023" data-link-type="dependency" data-source-line="177" id="lnk45"><path d="M395.92,482.6783 C432.82,510.3383 479.86,548.1383 491.81,569.3783 C514.39,609.4783 526.3787,741.9921 530.6787,799.7321" fill="none" id="c_rev-to-prod" style="stroke:#181818;stroke-width:1;"/><polygon fill="#181818" points="531.05,804.7183,534.3706,795.4461,530.6787,799.7321,526.3927,796.0402,531.05,804.7183" style="stroke:#181818;stroke-width:1;stroke-linejoin:miter;stroke-miterlimit:10;"/></g><!--link c_life to prod--><g class="link" data-entity-1="ent0010" data-entity-2="ent0023" data-link-type="dependency" data-source-line="178" id="lnk46"><path d="M543.74,482.8683 C541.37,558.3083 535.8971,732.4808 533.7871,799.6008" fill="none" id="c_life-to-prod" style="stroke:#181818;stroke-width:1;"/><polygon fill="#181818" points="533.63,804.5983,537.9108,795.7284,533.7871,799.6008,529.9148,795.477,533.63,804.5983" style="stroke:#181818;stroke-width:1;stroke-linejoin:miter;stroke-miterlimit:10;"/></g><!--link c_vel to prod--><g class="link" data-entity-1="ent0012" data-entity-2="ent0023" data-link-type="dependency" data-source-line="179" id="lnk47"><path d="M1191.92,673.9983 C1148.95,697.7883 1080.8,731.4683 1016.81,745.8383 C977.45,754.6783 692.43,742.1683 653.81,753.8383 C619.77,764.1283 589.9427,783.7934 566.7727,801.8634" fill="none" id="c_vel-to-prod" style="stroke:#181818;stroke-width:1;"/><polygon fill="#181818" points="562.83,804.9383,572.3868,802.5577,566.7727,801.8634,567.467,796.2493,562.83,804.9383" style="stroke:#181818;stroke-width:1;stroke-linejoin:miter;stroke-miterlimit:10;"/></g><!--link wh to prod--><g class="link" data-entity-1="ent0014" data-entity-2="ent0023" data-link-type="dependency" data-source-line="180" id="lnk48"><path d="M395.4,673.8583 C425.81,708.5383 476.3135,766.1289 506.7935,800.8889" fill="none" id="wh-to-prod" style="stroke:#181818;stroke-width:1;"/><polygon fill="#181818" points="510.09,804.6483,507.1638,795.2442,506.7935,800.8889,501.1488,800.5186,510.09,804.6483" style="stroke:#181818;stroke-width:1;stroke-linejoin:miter;stroke-miterlimit:10;"/></g><!--link prod to msk_out--><g class="link" data-entity-1="ent0023" data-entity-2="ent0004" data-link-type="dependency" data-source-line="182" id="lnk49"><path d="M523.26,858.3283 C512.04,893.2483 498.12,956.3183 524.81,1000.3083 C530.13,1009.0583 533.3413,1013.4482 541.4613,1019.7982" fill="none" id="prod-to-msk_out" style="stroke:#2E7D32;stroke-width:1;"/><polygon fill="#2E7D32" points="545.4,1022.8783,540.7745,1014.1832,541.4613,1019.7982,535.8463,1020.485,545.4,1022.8783" style="stroke:#2E7D32;stroke-width:1;stroke-linejoin:miter;stroke-miterlimit:10;"/><text fill="#000000" font-family="sans-serif" font-size="13" lengthAdjust="spacing" textLength="159.5039" x="536.0678" y="935.8766">loyalty.earn.translated.v1</text><text fill="#000000" font-family="sans-serif" font-size="13" lengthAdjust="spacing" textLength="171.3232" x="530.1581" y="951.1872">loyalty.member.lifecycle.v1</text><text fill="#000000" font-family="sans-serif" font-size="13" lengthAdjust="spacing" textLength="130.3047" x="550.6674" y="966.4977">loyalty.fraud.alert.v1</text><text fill="#000000" font-family="sans-serif" font-size="13" lengthAdjust="spacing" textLength="176.7822" x="527.4287" y="981.8083">loyalty.payment.reversed.v1</text><text fill="#000000" font-family="sans-serif" font-size="13" lengthAdjust="spacing" textLength="180.0195" x="525.81" y="997.1188">loyalty.fulfillment.resume.v1</text></g><!--link dlq to msk_out--><g class="link" data-entity-1="ent0024" data-entity-2="ent0004" data-link-type="dependency" data-source-line="183" id="lnk50"><path d="M737.62,858.4583 C738.82,893.2483 736.55,955.8683 709.81,1000.3083 C704.72,1008.7683 701.5798,1013.0595 694.0298,1019.7595" fill="none" id="dlq-to-msk_out" style="stroke:#C62828;stroke-width:1;"/><polygon fill="#C62828" points="690.29,1023.0783,699.6766,1020.0964,694.0298,1019.7595,694.3666,1014.1127,690.29,1023.0783" style="stroke:#C62828;stroke-width:1;stroke-linejoin:miter;stroke-miterlimit:10;"/><text fill="#000000" font-family="sans-serif" font-size="13" lengthAdjust="spacing" textLength="125.6011" x="735.07" y="966.3766">loyalty.ingress.*.dlq</text></g><!--link adapter to voucher--><?plantuml-src XLRTRjis5BxNKn3nnUAiyXpdpscB09dR8LtJ9Qk3zg890bey-fabKYCffqPHO5TxW65Fk2VP8KLPigGa2cBOrE5tVdY-xr0dEWKoEoINi8AK793__lgNf69DKxts4wuXabGdWliBcR08xEkvngM0t8XSf29Qazs4HnAK8X7Ly43NByZvcu_-U3mv6dgUMYOyfv9cHCMKYGUq9I5D5JJUC0XfaUeR-AhFqoJY6N1D0lm0sR3YWe62d4ocZKL9-T8i7XurNKa8DEKHPlRD8_X8KN0s4vA3VFrQhOApCr8_ax6r-Lb81dAkrobqRHXLCR3IZWRBo06ceeKt2CVXIHWs07kChE5uSJYT7dhza878Si6n0BYdiZI6lmYkUqmgt_Rf-cwR3iOd1yV7-u_uLffcEKXhEpYc-ujJslRTD7d6TzjqS4Zt3wV1etdpC8bAOmDv0EDkthL9LKhxzEMzRJg0uwDzDEptZSrNHxaOBo0uQljkcZpZksqwE9cUZay3xtkpJNECWKPLaxOYmW9GyzV6Bk5EmVnj0hHjwrmbcgQ9zVG3UViLESHfIZWaKRmGXLJa9w95dWJAgrcoSo6KnW3uqX9yWLzybJ0WvupcY73BTyK31qOMQw9ZGCBcg166fgzkkKOEgXIfhmX7OLYXIFpzJwKX8wSDextX3gdAGXMX9N0pXWF9_6igzPfy4aKGWoJNKgmm2hc3MJNshihNpRtpc4eCxyFyFNbFmoMrQIHyOQg9mNU28JyIJ8W0bPmeBO5cmvQJJ2tl4_wi3r7ejfCz4b0kU1BGr82sC763rqJTstjSRVVsJCrAwVXcshPgc9rtJd5dWgiY0ppLtHMUEiDJiDMtjBFVSYbO4G16ugImTZsZMF5v3fmHXtVBAy2o6atbmFY3U-oQ5iWrjNtGZq3wKNAwRiDynF4Z5JRgOpWzC19MdPGAfGLkyY-J489rW6izW3rOATeZsFUjAi-aKCeF2gtDrDhKkgUKdo0LGOAjUyv5HjCrsOg-nnyEsuwxTsM_aekRc-jvdnD7Yy-mY8LOahUSvGAxPgU_G0znnyEdiaUmmv00iwfBpK3FSaonnsVLQ7Fqd57Y08Hyn2SsORVBDcvGVW8elLbDoGi9huW2hImJxvKrk0zmq5krg8S7GjiVdOpCNGJC3SJF81CIxnwGOwGWBVawwSmnV4pK_vnml8lWAHNcae4X2GazVQ4CUkzPpUniAKgwabqqbBh8_LHG1gpFyw_pgzzS5LMV8et-K88FonZSs3AD4aOTrrTESdgSbBfqNL9UObaOO3uQyocLg9MUqOOEdv4yGKmvnzlWcylVTyZsqy5WwPysGZjkx0HnqbufZx8JuzA972rqB8oCLdT6p1O7IA2zQfl_PJ2Ud9mis9r_vbIOlAp0kcF5kAs8iy4iurUUsxu5QLKCCtdPmGfG3--LqSFHQl-nlQXTVNlpKWQVs8XgrRTHEk5xOgVHfhvmdTRPzrRhdi0mb_i6Xg7RQ3EuRRvOntgQLCFaXJayxiQ9ESVDQ2CbMJrNJUAZ7yD-Lw76RvjuuxTDP_CR_srZZRwuwzdTwCoqFGRRe0moPfjYByZLxlvmkEM-L8Xc06NSs3tbwToiSxZbPYesv0QXxNsdu4aeP4OocW-tegvWwxZB5Tjujb0am_D0RgfoucupQ9CX7abmF9bEfkP8a3OObxB9uUItC0PnCqYiz7Zku2glJepGhfe1hXayToUoXWyniVrjvmYvlfhVO8uN7yvdUAUBy1OtD02LIFXQ-7YbsIgarOLc7Tr2NHEtK9V4BTJHseKoaiQ2PpvD9IPmmWuc5SNnKlHaSzxowXsg_0BagDdozSjGqeADQ0fIRwrNv2ovra8CYpHCqjGPcFutR33ditrYtJXhxJOYY3MzI1X3jiGuarL3psAxVETlBgx_0m00?></g></svg>