<svg xmlns="http://www.w3.org/2000/svg" xmlns:xlink="http://www.w3.org/1999/xlink" contentStyleType="text/css" data-diagram-type="DESCRIPTION" height="857px" preserveAspectRatio="none" style="width:2061px;height:857px;background:#FFFFFF;" version="1.1" viewBox="0 0 2061 857" width="2061px" zoomAndPan="magnify"><?plantuml 1.2026.4?><defs/><g><g class="title" data-source-line="203"><text fill="#000000" font-family="sans-serif" font-size="14" font-weight="700" lengthAdjust="spacing" textLength="421.1074" x="816.7181" y="23.5352">Digital Loyalty Platform &#8212; C4 Level 2 &#8212; Synchronous Path</text></g><!--entity member--><g class="entity" data-qualified-name="member" data-source-line="227" id="ent0001"><ellipse cx="516.6443" cy="51.4883" fill="#F1F1F1" rx="8" ry="8" style="stroke:#181818;stroke-width:0.5;"/><path d="M516.6443,59.4883 L516.6443,86.4883 M503.6443,67.4883 L529.6443,67.4883 M516.6443,86.4883 L503.6443,101.4883 M516.6443,86.4883 L529.6443,101.4883" fill="none" style="stroke:#181818;stroke-width:0.5;"/><text fill="#000000" font-family="sans-serif" font-size="14" lengthAdjust="spacing" textLength="55.2686" x="489.01" y="116.5234">Member</text></g><!--entity operator--><g class="entity" data-qualified-name="operator" data-source-line="228" id="ent0002"><ellipse cx="653.6402" cy="51.4883" fill="#F1F1F1" rx="8" ry="8" style="stroke:#181818;stroke-width:0.5;"/><path d="M653.6402,59.4883 L653.6402,86.4883 M640.6402,67.4883 L666.6402,67.4883 M653.6402,86.4883 L640.6402,101.4883 M653.6402,86.4883 L666.6402,101.4883" fill="none" style="stroke:#181818;stroke-width:0.5;"/><text fill="#000000" font-family="sans-serif" font-size="14" lengthAdjust="spacing" textLength="88.3203" x="609.48" y="116.5234">BEP Operator</text></g><!--entity mobile--><g class="entity" data-qualified-name="mobile" data-source-line="230" id="ent0003"><rect fill="#B0BEC5" height="52.9766" rx="2.5" ry="2.5" style="stroke:#78909C;stroke-width:0.5;" width="155.625" x="438.83" y="176.4783"/><text fill="#000000" font-family="sans-serif" font-size="14" font-style="italic" lengthAdjust="spacing" textLength="36.292" x="498.4965" y="200.0134">&#171;ext&#187;</text><text fill="#000000" font-family="sans-serif" font-size="14" lengthAdjust="spacing" textLength="135.625" x="448.83" y="216.5017">Mobile Banking App</text></g><!--entity bep--><g class="entity" data-qualified-name="bep" data-source-line="231" id="ent0004"><rect fill="#B0BEC5" height="52.9766" rx="2.5" ry="2.5" style="stroke:#78909C;stroke-width:0.5;" width="58.292" x="624.49" y="176.4783"/><text fill="#000000" font-family="sans-serif" font-size="14" font-style="italic" lengthAdjust="spacing" textLength="36.292" x="635.49" y="200.0134">&#171;ext&#187;</text><text fill="#000000" font-family="sans-serif" font-size="14" lengthAdjust="spacing" textLength="23.3789" x="641.9465" y="216.5017">BEP</text></g><!--entity apigw--><g class="entity" data-qualified-name="apigw" data-source-line="233" id="ent0005"><rect fill="#CFD8DC" height="52.9766" rx="2.5" ry="2.5" style="stroke:#90A4AE;stroke-width:0.5;" width="136.1836" x="516.55" y="302.4583"/><text fill="#000000" font-family="sans-serif" font-size="14" font-style="italic" lengthAdjust="spacing" textLength="46.0127" x="561.6354" y="325.9934">&#171;infra&#187;</text><text fill="#000000" font-family="sans-serif" font-size="14" lengthAdjust="spacing" textLength="116.1836" x="526.55" y="342.4817">AWS API Gateway</text></g><!--entity kc--><g class="entity" data-qualified-name="kc" data-source-line="234" id="ent0006"><rect fill="#B0BEC5" height="52.9766" rx="2.5" ry="2.5" style="stroke:#78909C;stroke-width:0.5;" width="171.2793" x="7" y="554.4083"/><text fill="#000000" font-family="sans-serif" font-size="14" font-style="italic" lengthAdjust="spacing" textLength="36.292" x="74.4937" y="577.9434">&#171;ext&#187;</text><text fill="#000000" font-family="sans-serif" font-size="14" lengthAdjust="spacing" textLength="151.2793" x="17" y="594.4317">Authentication Service</text></g><!--entity mbff--><g class="entity" data-qualified-name="mbff" data-source-line="236" id="ent0007"><rect fill="#0B4884" height="52.9766" rx="2.5" ry="2.5" style="stroke:#073661;stroke-width:0.5;" width="145.9727" x="511.65" y="428.4283"/><text fill="#FFFFFF" font-family="sans-serif" font-size="14" font-style="italic" lengthAdjust="spacing" textLength="36.2236" x="566.5245" y="451.9634">&#171;svc&#187;</text><text fill="#FFFFFF" font-family="sans-serif" font-size="14" lengthAdjust="spacing" textLength="125.9727" x="521.65" y="468.4517">loyalty-mobile-bff</text></g><!--entity abff--><g class="entity" data-qualified-name="abff" data-source-line="237" id="ent0008"><rect fill="#0B4884" height="52.9766" rx="2.5" ry="2.5" style="stroke:#073661;stroke-width:0.5;" width="141.9463" x="1159.67" y="428.4283"/><text fill="#FFFFFF" font-family="sans-serif" font-size="14" font-style="italic" lengthAdjust="spacing" textLength="36.2236" x="1212.5313" y="451.9634">&#171;svc&#187;</text><text fill="#FFFFFF" font-family="sans-serif" font-size="14" lengthAdjust="spacing" textLength="121.9463" x="1169.67" y="468.4517">loyalty-admin-bff</text></g><!--entity core--><g class="entity" data-qualified-name="core" data-source-line="239" id="ent0009"><rect fill="#0B4884" height="52.9766" rx="2.5" ry="2.5" style="stroke:#073661;stroke-width:0.5;" width="101.6895" x="1515.79" y="680.3883"/><text fill="#FFFFFF" font-family="sans-serif" font-size="14" font-style="italic" lengthAdjust="spacing" textLength="36.2236" x="1548.5229" y="703.9234">&#171;svc&#187;</text><text fill="#FFFFFF" font-family="sans-serif" font-size="14" lengthAdjust="spacing" textLength="81.6895" x="1525.79" y="720.4117">loyalty-core</text></g><!--entity earn--><g class="entity" data-qualified-name="earn" data-source-line="240" id="ent0010"><rect fill="#0B4884" height="52.9766" rx="2.5" ry="2.5" style="stroke:#073661;stroke-width:0.5;" width="123.8037" x="1923.74" y="554.4083"/><text fill="#FFFFFF" font-family="sans-serif" font-size="14" font-style="italic" lengthAdjust="spacing" textLength="36.2236" x="1967.53" y="577.9434">&#171;svc&#187;</text><text fill="#FFFFFF" font-family="sans-serif" font-size="14" lengthAdjust="spacing" textLength="103.8037" x="1933.74" y="594.4317">loyalty-earning</text></g><!--entity redm--><g class="entity" data-qualified-name="redm" data-source-line="241" id="ent0011"><rect fill="#0B4884" height="52.9766" rx="2.5" ry="2.5" style="stroke:#073661;stroke-width:0.5;" width="150.9834" x="602.15" y="554.4083"/><text fill="#FFFFFF" font-family="sans-serif" font-size="14" font-style="italic" lengthAdjust="spacing" textLength="36.2236" x="659.5299" y="577.9434">&#171;svc&#187;</text><text fill="#FFFFFF" font-family="sans-serif" font-size="14" lengthAdjust="spacing" textLength="130.9834" x="612.15" y="594.4317">loyalty-redemption</text></g><!--entity camp--><g class="entity" data-qualified-name="camp" data-source-line="242" id="ent0012"><rect fill="#0B4884" height="52.9766" rx="2.5" ry="2.5" style="stroke:#073661;stroke-width:0.5;" width="138.3711" x="1056.45" y="680.3883"/><text fill="#FFFFFF" font-family="sans-serif" font-size="14" font-style="italic" lengthAdjust="spacing" textLength="36.2236" x="1107.5237" y="703.9234">&#171;svc&#187;</text><text fill="#FFFFFF" font-family="sans-serif" font-size="14" lengthAdjust="spacing" textLength="118.3711" x="1066.45" y="720.4117">loyalty-campaign</text></g><!--entity coredb--><g class="entity" data-qualified-name="coredb" data-source-line="244" id="ent0013"><rect fill="#5D7A99" height="52.9766" rx="2.5" ry="2.5" style="stroke:#3D5470;stroke-width:0.5;" width="80.6074" x="1526.34" y="790.3583"/><text fill="#FFFFFF" font-family="sans-serif" font-size="14" font-style="italic" lengthAdjust="spacing" textLength="44.1807" x="1544.5534" y="813.8934">&#171;data&#187;</text><text fill="#FFFFFF" font-family="sans-serif" font-size="14" lengthAdjust="spacing" textLength="60.6074" x="1536.34" y="830.3817">core RDS</text></g><!--entity earndb--><g class="entity" data-qualified-name="earndb" data-source-line="245" id="ent0014"><rect fill="#5D7A99" height="52.9766" rx="2.5" ry="2.5" style="stroke:#3D5470;stroke-width:0.5;" width="102.7217" x="1934.28" y="680.3883"/><text fill="#FFFFFF" font-family="sans-serif" font-size="14" font-style="italic" lengthAdjust="spacing" textLength="44.1807" x="1963.5505" y="703.9234">&#171;data&#187;</text><text fill="#FFFFFF" font-family="sans-serif" font-size="14" lengthAdjust="spacing" textLength="82.7217" x="1944.28" y="720.4117">earning RDS</text></g><!--entity redmdb--><g class="entity" data-qualified-name="redmdb" data-source-line="246" id="ent0015"><rect fill="#5D7A99" height="52.9766" rx="2.5" ry="2.5" style="stroke:#3D5470;stroke-width:0.5;" width="129.9014" x="112.69" y="680.3883"/><text fill="#FFFFFF" font-family="sans-serif" font-size="14" font-style="italic" lengthAdjust="spacing" textLength="44.1807" x="155.5504" y="703.9234">&#171;data&#187;</text><text fill="#FFFFFF" font-family="sans-serif" font-size="14" lengthAdjust="spacing" textLength="109.9014" x="122.69" y="720.4117">redemption RDS</text></g><!--entity campdb--><g class="entity" data-qualified-name="campdb" data-source-line="247" id="ent0016"><rect fill="#5D7A99" height="52.9766" rx="2.5" ry="2.5" style="stroke:#3D5470;stroke-width:0.5;" width="117.2891" x="1067" y="790.3583"/><text fill="#FFFFFF" font-family="sans-serif" font-size="14" font-style="italic" lengthAdjust="spacing" textLength="44.1807" x="1103.5542" y="813.8934">&#171;data&#187;</text><text fill="#FFFFFF" font-family="sans-serif" font-size="14" lengthAdjust="spacing" textLength="97.2891" x="1077" y="830.3817">campaign RDS</text></g><!--entity s3--><g class="entity" data-qualified-name="s3" data-source-line="248" id="ent0017"><rect fill="#5D7A99" height="52.9766" rx="2.5" ry="2.5" style="stroke:#3D5470;stroke-width:0.5;" width="66.1807" x="272.55" y="680.3883"/><text fill="#FFFFFF" font-family="sans-serif" font-size="14" font-style="italic" lengthAdjust="spacing" textLength="44.1807" x="283.55" y="703.9234">&#171;data&#187;</text><text fill="#FFFFFF" font-family="sans-serif" font-size="14" lengthAdjust="spacing" textLength="16.3926" x="297.444" y="720.4117">S3</text></g><!--entity redis--><g class="entity" data-qualified-name="redis" data-source-line="249" id="ent0018"><rect fill="#CFD8DC" height="52.9766" rx="2.5" ry="2.5" style="stroke:#90A4AE;stroke-width:0.5;" width="137.9404" x="434.67" y="554.4083"/><text fill="#000000" font-family="sans-serif" font-size="14" font-style="italic" lengthAdjust="spacing" textLength="46.0127" x="480.6339" y="577.9434">&#171;infra&#187;</text><text fill="#000000" font-family="sans-serif" font-size="14" lengthAdjust="spacing" textLength="117.9404" x="444.67" y="594.4317">ElastiCache Redis</text></g><!--entity custsvc--><g class="entity" data-qualified-name="custsvc" data-source-line="251" id="ent0019"><rect fill="#B0BEC5" height="52.9766" rx="2.5" ry="2.5" style="stroke:#78909C;stroke-width:0.5;" width="137.708" x="266.79" y="554.4083"/><text fill="#000000" font-family="sans-serif" font-size="14" font-style="italic" lengthAdjust="spacing" textLength="36.292" x="317.498" y="577.9434">&#171;ext&#187;</text><text fill="#000000" font-family="sans-serif" font-size="14" lengthAdjust="spacing" textLength="117.708" x="276.79" y="594.4317">Customer Service</text></g><!--entity payhub--><g class="entity" data-qualified-name="payhub" data-source-line="252" id="ent0020"><rect fill="#B0BEC5" height="52.9766" rx="2.5" ry="2.5" style="stroke:#78909C;stroke-width:0.5;" width="109.7969" x="371.74" y="680.3883"/><text fill="#000000" font-family="sans-serif" font-size="14" font-style="italic" lengthAdjust="spacing" textLength="36.292" x="408.4924" y="703.9234">&#171;ext&#187;</text><text fill="#000000" font-family="sans-serif" font-size="14" lengthAdjust="spacing" textLength="89.7969" x="381.74" y="720.4117">Payment Hub</text></g><!--entity voucher--><g class="entity" data-qualified-name="voucher" data-source-line="253" id="ent0021"><rect fill="#B0BEC5" height="52.9766" rx="2.5" ry="2.5" style="stroke:#78909C;stroke-width:0.5;" width="205.6299" x="511.82" y="680.3883"/><text fill="#000000" font-family="sans-serif" font-size="14" font-style="italic" lengthAdjust="spacing" textLength="36.292" x="596.4889" y="703.9234">&#171;ext&#187;</text><text fill="#000000" font-family="sans-serif" font-size="14" lengthAdjust="spacing" textLength="185.6299" x="521.82" y="720.4117">3rd-Party Voucher Provider</text></g><!--link member to mobile--><g class="link" data-entity-1="ent0001" data-entity-2="ent0003" data-link-type="dependency" data-source-line="256" id="lnk22"><path d="M516.64,119.7883 C516.64,138.1683 516.64,154.8283 516.64,171.2883" fill="none" id="member-to-mobile" style="stroke:#181818;stroke-width:1;"/><polygon fill="#181818" points="516.64,176.2883,520.64,167.2883,516.64,171.2883,512.64,167.2883,516.64,176.2883" style="stroke:#181818;stroke-width:1;stroke-linejoin:miter;stroke-miterlimit:10;"/></g><!--link operator to bep--><g class="link" data-entity-1="ent0002" data-entity-2="ent0004" data-link-type="dependency" data-source-line="257" id="lnk23"><path d="M653.64,119.7883 C653.64,138.1683 653.64,154.8283 653.64,171.2883" fill="none" id="operator-to-bep" style="stroke:#181818;stroke-width:1;"/><polygon fill="#181818" points="653.64,176.2883,657.64,167.2883,653.64,171.2883,649.64,167.2883,653.64,176.2883" style="stroke:#181818;stroke-width:1;stroke-linejoin:miter;stroke-miterlimit:10;"/></g><!--link mobile to apigw--><g class="link" data-entity-1="ent0003" data-entity-2="ent0005" data-link-type="dependency" data-source-line="258" id="lnk24"><path d="M519.09,229.9583 C521.23,243.8183 525.22,260.7783 532.64,274.4583 C538.08,284.4683 542.4155,290.352 550.3655,298.442" fill="none" id="mobile-to-apigw" style="stroke:#181818;stroke-width:1;"/><polygon fill="#181818" points="553.87,302.0083,550.4148,292.7854,550.3655,298.442,544.7088,298.3927,553.87,302.0083" style="stroke:#181818;stroke-width:1;stroke-linejoin:miter;stroke-miterlimit:10;"/><text fill="#000000" font-family="sans-serif" font-size="13" lengthAdjust="spacing" textLength="75.9053" x="533.64" y="271.0266">HTTPS &#183; JWT</text></g><!--link bep to apigw--><g class="link" data-entity-1="ent0004" data-entity-2="ent0005" data-link-type="dependency" data-source-line="259" id="lnk25"><path d="M639.34,229.6583 C627.5,250.9283 613.1919,276.6495 601.3519,297.9195" fill="none" id="bep-to-apigw" style="stroke:#181818;stroke-width:1;"/><polygon fill="#181818" points="598.92,302.2883,606.7924,296.37,601.3519,297.9195,599.8024,292.479,598.92,302.2883" style="stroke:#181818;stroke-width:1;stroke-linejoin:miter;stroke-miterlimit:10;"/><text fill="#000000" font-family="sans-serif" font-size="13" lengthAdjust="spacing" textLength="75.9053" x="624.27" y="271.0266">HTTPS &#183; JWT</text></g><!--link apigw to kc--><g class="link" data-entity-1="ent0005" data-entity-2="ent0006" data-link-type="dependency" data-source-line="260" id="lnk26"><path d="M516.3,340.0183 C418.07,357.8083 236.51,403.4383 124.64,509.4083 C111.96,521.4283 105.457,534.6569 100.607,549.4569" fill="none" id="apigw-to-kc" style="stroke:#181818;stroke-width:1;"/><polygon fill="#181818" points="99.05,554.2083,105.6538,546.9014,100.607,549.4569,98.0516,544.4102,99.05,554.2083" style="stroke:#181818;stroke-width:1;stroke-linejoin:miter;stroke-miterlimit:10;"/><text fill="#000000" font-family="sans-serif" font-size="13" lengthAdjust="spacing" textLength="127.9307" x="241.28" y="459.9866">OIDC &#183; validates JWT</text></g><!--link apigw to mbff--><g class="link" data-entity-1="ent0005" data-entity-2="ent0007" data-link-type="dependency" data-source-line="261" id="lnk27"><path d="M584.64,355.6283 C584.64,376.9083 584.64,401.9983 584.64,423.2683" fill="none" id="apigw-to-mbff" style="stroke:#181818;stroke-width:1;"/><polygon fill="#181818" points="584.64,428.2683,588.64,419.2683,584.64,423.2683,580.64,419.2683,584.64,428.2683" style="stroke:#181818;stroke-width:1;stroke-linejoin:miter;stroke-miterlimit:10;"/><text fill="#000000" font-family="sans-serif" font-size="13" lengthAdjust="spacing" textLength="136.8428" x="585.64" y="396.9966">/api/loyalty/mobile/*</text></g><!--link apigw to abff--><g class="link" data-entity-1="ent0005" data-entity-2="ent0008" data-link-type="dependency" data-source-line="262" id="lnk28"><path d="M653.16,343.0983 C776.39,366.7483 1029.2997,415.2757 1154.4797,439.3057" fill="none" id="apigw-to-abff" style="stroke:#181818;stroke-width:1;"/><polygon fill="#181818" points="1159.39,440.2483,1151.3055,434.6233,1154.4797,439.3057,1149.7973,442.4799,1159.39,440.2483" style="stroke:#181818;stroke-width:1;stroke-linejoin:miter;stroke-miterlimit:10;"/><text fill="#000000" font-family="sans-serif" font-size="13" lengthAdjust="spacing" textLength="133.104" x="947.32" y="396.9966">/api/loyalty/admin/*</text></g><!--link mbff to core--><g class="link" data-entity-1="ent0007" data-entity-2="ent0009" data-link-type="dependency" data-source-line="265" id="lnk29"><path d="M657.91,459.5883 C829.47,469.0483 1252.52,497.5683 1381.64,554.4083 C1448.89,584.0083 1508.1828,641.4196 1540.4728,676.2896" fill="none" id="mbff-to-core" style="stroke:#181818;stroke-width:1;"/><polygon fill="#181818" points="1543.87,679.9583,1540.6899,670.6369,1540.4728,676.2896,1534.8201,676.0725,1543.87,679.9583" style="stroke:#181818;stroke-width:1;stroke-linejoin:miter;stroke-miterlimit:10;"/><text fill="#000000" font-family="sans-serif" font-size="13" lengthAdjust="spacing" textLength="139.3882" x="1465.49" y="585.9666">balance / tier / ledger</text></g><!--link mbff to redm--><g class="link" data-entity-1="ent0007" data-entity-2="ent0011" data-link-type="dependency" data-source-line="266" id="lnk30"><path d="M608.6,481.6783 C616.23,490.2783 624.54,500.0583 631.64,509.4083 C642.51,523.7183 650.8916,536.3235 659.4416,549.9435" fill="none" id="mbff-to-redm" style="stroke:#181818;stroke-width:1;"/><polygon fill="#181818" points="662.1,554.1783,660.7027,544.429,659.4416,549.9435,653.9271,548.6824,662.1,554.1783" style="stroke:#181818;stroke-width:1;stroke-linejoin:miter;stroke-miterlimit:10;"/><text fill="#000000" font-family="sans-serif" font-size="13" lengthAdjust="spacing" textLength="181.1431" x="644.79" y="522.9766">browse / submit redemption</text></g><!--link mbff to camp--><g class="link" data-entity-1="ent0007" data-entity-2="ent0012" data-link-type="dependency" data-source-line="267" id="lnk31"><path d="M657.74,459.8383 C779.44,467.0483 1013.02,484.0283 1040.64,509.4083 C1073.37,539.4783 1035.26,570.8983 1060.64,607.3883 C1074.09,626.7183 1091.47,616.5683 1105.64,635.3883 C1115.36,648.2883 1119.4662,660.817 1122.0362,675.127" fill="none" id="mbff-to-camp" style="stroke:#181818;stroke-width:1;"/><polygon fill="#181818" points="1122.92,680.0483,1125.2661,670.4829,1122.0362,675.127,1117.3921,671.8971,1122.92,680.0483" style="stroke:#181818;stroke-width:1;stroke-linejoin:miter;stroke-miterlimit:10;"/><text fill="#000000" font-family="sans-serif" font-size="13" lengthAdjust="spacing" textLength="108.437" x="1061.64" y="585.9666">active campaigns</text></g><!--link mbff to redis--><g class="link" data-entity-1="ent0007" data-entity-2="ent0018" data-link-type="dependency" data-source-line="268" id="lnk32"><path d="M527.64,481.6983 C517.21,489.0983 507.71,498.2683 501.64,509.4083 C494.31,522.8483 493.8335,535.0305 496.0635,549.0305" fill="none" id="mbff-to-redis" style="stroke:#181818;stroke-width:1;"/><polygon fill="#181818" points="496.85,553.9683,499.3845,544.4511,496.0635,549.0305,491.4841,545.7095,496.85,553.9683" style="stroke:#181818;stroke-width:1;stroke-linejoin:miter;stroke-miterlimit:10;"/><text fill="#000000" font-family="sans-serif" font-size="13" lengthAdjust="spacing" textLength="125.8423" x="502.64" y="522.9766">read-through cache</text></g><!--link mbff to custsvc--><g class="link" data-entity-1="ent0007" data-entity-2="ent0019" data-link-type="dependency" data-source-line="269" id="lnk33"><path d="M511.36,457.5283 C464.83,462.1583 405.99,475.1483 365.64,509.4083 C352.36,520.6883 346.1515,534.0616 341.9515,549.1416" fill="none" id="mbff-to-custsvc" style="stroke:#181818;stroke-width:1;"/><polygon fill="#181818" points="340.61,553.9583,346.8781,546.3615,341.9515,549.1416,339.1714,544.2151,340.61,553.9583" style="stroke:#181818;stroke-width:1;stroke-linejoin:miter;stroke-miterlimit:10;"/><text fill="#000000" font-family="sans-serif" font-size="13" lengthAdjust="spacing" textLength="122.3511" x="366.64" y="522.9766">display-name fetch</text></g><!--link mbff to kc--><g class="link" data-entity-1="ent0007" data-entity-2="ent0006" data-link-type="dependency" data-source-line="270" id="lnk34"><path d="M511.28,458.7083 C404.89,463.7983 213.92,477.2183 153.64,509.4083 C134.51,519.6183 121.5198,534.3361 110.7898,549.9661" fill="none" id="mbff-to-kc" style="stroke:#181818;stroke-width:1;"/><polygon fill="#181818" points="107.96,554.0883,116.3514,548.9323,110.7898,549.9661,109.756,544.4046,107.96,554.0883" style="stroke:#181818;stroke-width:1;stroke-linejoin:miter;stroke-miterlimit:10;"/><text fill="#000000" font-family="sans-serif" font-size="13" lengthAdjust="spacing" textLength="190.7598" x="154.64" y="522.9766">step-up auth (transaction PIN)</text></g><!--link abff to core--><g class="link" data-entity-1="ent0008" data-entity-2="ent0009" data-link-type="dependency" data-source-line="273" id="lnk35"><path d="M1302.04,463.8683 C1402.25,476.6583 1576.67,505.4683 1614.64,554.4083 C1643.81,592.0083 1614.8447,643.6894 1590.9147,676.0194" fill="none" id="abff-to-core" style="stroke:#181818;stroke-width:1;"/><polygon fill="#181818" points="1587.94,680.0383,1596.5095,675.1841,1590.9147,676.0194,1590.0793,670.4246,1587.94,680.0383" style="stroke:#181818;stroke-width:1;stroke-linejoin:miter;stroke-miterlimit:10;"/><text fill="#000000" font-family="sans-serif" font-size="13" lengthAdjust="spacing" textLength="224.3896" x="1627.29" y="585.9666">Member admin / Approval requests</text></g><!--link abff to earn--><g class="link" data-entity-1="ent0008" data-entity-2="ent0010" data-link-type="dependency" data-source-line="274" id="lnk36"><path d="M1301.86,462.0783 C1392.51,470.3983 1553.8,486.8483 1690.64,509.4083 C1784.82,524.9383 1808.18,530.6783 1900.64,554.4083 C1908.1,556.3283 1911.084,557.0789 1918.784,559.2889" fill="none" id="abff-to-earn" style="stroke:#181818;stroke-width:1;"/><polygon fill="#181818" points="1923.59,560.6683,1916.0428,554.3406,1918.784,559.2889,1913.8358,562.0302,1923.59,560.6683" style="stroke:#181818;stroke-width:1;stroke-linejoin:miter;stroke-miterlimit:10;"/><text fill="#000000" font-family="sans-serif" font-size="13" lengthAdjust="spacing" textLength="135.6367" x="1783.2" y="522.9766">Program / Rule CRUD</text></g><!--link abff to redm--><g class="link" data-entity-1="ent0008" data-entity-2="ent0011" data-link-type="dependency" data-source-line="275" id="lnk37"><path d="M1159.19,471.9383 C1054.52,495.4083 865.2189,537.8447 758.1889,561.8347" fill="none" id="abff-to-redm" style="stroke:#181818;stroke-width:1;"/><polygon fill="#181818" points="753.31,562.9283,762.967,564.863,758.1889,561.8347,761.2172,557.0567,753.31,562.9283" style="stroke:#181818;stroke-width:1;stroke-linejoin:miter;stroke-miterlimit:10;"/><text fill="#000000" font-family="sans-serif" font-size="13" lengthAdjust="spacing" textLength="154.7495" x="988.25" y="522.9766">Reward catalogue admin</text></g><!--link abff to camp--><g class="link" data-entity-1="ent0008" data-entity-2="ent0012" data-link-type="dependency" data-source-line="276" id="lnk38"><path d="M1222.87,481.8283 C1213.43,512.3483 1196.4,564.3583 1177.64,607.3883 C1166.59,632.7283 1154.115,656.1325 1143.085,675.7025" fill="none" id="abff-to-camp" style="stroke:#181818;stroke-width:1;"/><polygon fill="#181818" points="1140.63,680.0583,1148.5336,674.1819,1143.085,675.7025,1141.5644,670.2538,1140.63,680.0583" style="stroke:#181818;stroke-width:1;stroke-linejoin:miter;stroke-miterlimit:10;"/><text fill="#000000" font-family="sans-serif" font-size="13" lengthAdjust="spacing" textLength="174.2686" x="1199.37" y="585.9666">Campaign / Drawing admin</text></g><!--link earn to core--><g class="link" data-entity-1="ent0010" data-entity-2="ent0009" data-link-type="dependency" data-source-line="279" id="lnk39"><path d="M1923.44,600.5783 C1915.76,602.8783 1908.02,605.1883 1900.64,607.3883 C1800.54,637.1483 1688.2373,670.1792 1622.6673,689.4392" fill="none" id="earn-to-core" style="stroke:#181818;stroke-width:1;"/><polygon fill="#181818" points="1617.87,690.8483,1627.6325,692.1497,1622.6673,689.4392,1625.3779,684.474,1617.87,690.8483" style="stroke:#181818;stroke-width:1;stroke-linejoin:miter;stroke-miterlimit:10;"/><text fill="#000000" font-family="sans-serif" font-size="13" lengthAdjust="spacing" textLength="167.7749" x="1800.69" y="648.9566">Earn entries via Ledger API</text></g><!--link redm to core--><g class="link" data-entity-1="ent0011" data-entity-2="ent0009" data-link-type="dependency" data-source-line="280" id="lnk40"><path d="M753.44,592.4683 C930.21,617.1183 1361.1479,677.2177 1510.5079,698.0477" fill="none" id="redm-to-core" style="stroke:#181818;stroke-width:1;"/><polygon fill="#181818" points="1515.46,698.7383,1507.0988,693.5335,1510.5079,698.0477,1505.9938,701.4568,1515.46,698.7383" style="stroke:#181818;stroke-width:1;stroke-linejoin:miter;stroke-miterlimit:10;"/><text fill="#000000" font-family="sans-serif" font-size="13" lengthAdjust="spacing" textLength="167.959" x="1176.37" y="648.9566">reserve / commit / release</text></g><!--link redm to camp--><g class="link" data-entity-1="ent0011" data-entity-2="ent0012" data-link-type="dependency" data-source-line="281" id="lnk41"><path d="M711.96,607.8283 C736,625.5083 766.28,646.6983 780.64,652.3883 C871.51,688.3583 979.7973,699.9684 1051.1973,703.8284" fill="none" id="redm-to-camp" style="stroke:#181818;stroke-width:1;"/><polygon fill="#181818" points="1056.19,704.0983,1047.4191,699.6183,1051.1973,703.8284,1046.9872,707.6066,1056.19,704.0983" style="stroke:#181818;stroke-width:1;stroke-linejoin:miter;stroke-miterlimit:10;"/><text fill="#000000" font-family="sans-serif" font-size="13" lengthAdjust="spacing" textLength="116.0225" x="781.64" y="648.9566">Sweepstakes Entry</text></g><!--link redm to payhub--><g class="link" data-entity-1="ent0011" data-entity-2="ent0020" data-link-type="dependency" data-source-line="284" id="lnk42"><path d="M602.13,603.7483 C597.24,605.0183 592.38,606.2383 587.64,607.3883 C525.95,622.2683 494.53,592.6283 447.64,635.3883 C435.28,646.6583 430.7725,659.8979 428.6325,674.9779" fill="none" id="redm-to-payhub" style="stroke:#181818;stroke-width:1;"/><polygon fill="#181818" points="427.93,679.9283,433.1548,671.5796,428.6325,674.9779,425.2342,670.4555,427.93,679.9283" style="stroke:#181818;stroke-width:1;stroke-linejoin:miter;stroke-miterlimit:10;"/><text fill="#000000" font-family="sans-serif" font-size="13" lengthAdjust="spacing" textLength="150.9155" x="448.64" y="648.9566">Cashback disbursement</text></g><!--link redm to voucher--><g class="link" data-entity-1="ent0011" data-entity-2="ent0021" data-link-type="dependency" data-source-line="285" id="lnk43"><path d="M634.15,607.8783 C625.07,615.5183 616.72,624.7383 611.64,635.3883 C605.1,649.0983 604.7948,661.1235 607.0548,674.9735" fill="none" id="redm-to-voucher" style="stroke:#181818;stroke-width:1;"/><polygon fill="#181818" points="607.86,679.9083,610.3584,670.3816,607.0548,674.9735,602.4628,671.6699,607.86,679.9083" style="stroke:#181818;stroke-width:1;stroke-linejoin:miter;stroke-miterlimit:10;"/><text fill="#000000" font-family="sans-serif" font-size="13" lengthAdjust="spacing" textLength="132.5264" x="612.64" y="648.9566">voucher provisioning</text></g><!--link redm to s3--><g class="link" data-entity-1="ent0011" data-entity-2="ent0017" data-link-type="dependency" data-source-line="286" id="lnk44"><path d="M601.74,604.3283 C596.99,605.4383 592.26,606.4683 587.64,607.3883 C534.1,617.9683 388.83,604.7783 343.64,635.3883 C328.21,645.8283 320.2578,659.9663 314.5278,675.5263" fill="none" id="redm-to-s3" style="stroke:#181818;stroke-width:1;"/><polygon fill="#181818" points="312.8,680.2183,319.6637,673.155,314.5278,675.5263,312.1565,670.3905,312.8,680.2183" style="stroke:#181818;stroke-width:1;stroke-linejoin:miter;stroke-miterlimit:10;"/><text fill="#000000" font-family="sans-serif" font-size="13" lengthAdjust="spacing" textLength="84.7031" x="344.64" y="648.9566">voucher PDFs</text></g><!--link core to coredb--><g class="link" data-entity-1="ent0009" data-entity-2="ent0013" data-link-type="dependency" data-source-line="289" id="lnk45"><path d="M1566.64,733.7383 C1566.64,750.8283 1566.64,768.1483 1566.64,785.1983" fill="none" id="core-to-coredb" style="stroke:#181818;stroke-width:1;"/><polygon fill="#181818" points="1566.64,790.1983,1570.64,781.1983,1566.64,785.1983,1562.64,781.1983,1566.64,790.1983" style="stroke:#181818;stroke-width:1;stroke-linejoin:miter;stroke-miterlimit:10;"/></g><!--link earn to earndb--><g class="link" data-entity-1="ent0010" data-entity-2="ent0014" data-link-type="dependency" data-source-line="290" id="lnk46"><path d="M1985.64,607.5883 C1985.64,628.8583 1985.64,653.9483 1985.64,675.2183" fill="none" id="earn-to-earndb" style="stroke:#181818;stroke-width:1;"/><polygon fill="#181818" points="1985.64,680.2183,1989.64,671.2183,1985.64,675.2183,1981.64,671.2183,1985.64,680.2183" style="stroke:#181818;stroke-width:1;stroke-linejoin:miter;stroke-miterlimit:10;"/></g><!--link redm to redmdb--><g class="link" data-entity-1="ent0011" data-entity-2="ent0015" data-link-type="dependency" data-source-line="291" id="lnk47"><path d="M601.75,604.3783 C597,605.4783 592.26,606.4983 587.64,607.3883 C470.04,630.0083 434.65,602.0083 319.64,635.3883 C284.35,645.6283 251.5973,661.8882 224.1773,677.4682" fill="none" id="redm-to-redmdb" style="stroke:#181818;stroke-width:1;"/><polygon fill="#181818" points="219.83,679.9383,229.6311,678.9699,224.1773,677.4682,225.679,672.0143,219.83,679.9383" style="stroke:#181818;stroke-width:1;stroke-linejoin:miter;stroke-miterlimit:10;"/></g><!--link camp to campdb--><g class="link" data-entity-1="ent0012" data-entity-2="ent0016" data-link-type="dependency" data-source-line="292" id="lnk48"><path d="M1125.64,733.7383 C1125.64,750.8283 1125.64,768.1483 1125.64,785.1983" fill="none" id="camp-to-campdb" style="stroke:#181818;stroke-width:1;"/><polygon fill="#181818" points="1125.64,790.1983,1129.64,781.1983,1125.64,785.1983,1121.64,781.1983,1125.64,790.1983" style="stroke:#181818;stroke-width:1;stroke-linejoin:miter;stroke-miterlimit:10;"/></g><?plantuml-src XPRDRkCs4CVlUeg1VUW7ODYjayq75WiaTjBDOhSnuhHx7aaZcR0agYHbroWAz27wBhttKVeadQ6aIF8wM1qIY_pDy3_36L9EkOnWgLBbC8EF-e2PEy0gGvTeayD_V_qDYpFuI3lAu4V_kZuKqSReGbSMLkWsGM2tgYZHO0w68eT5oXx_282VMuosgT5L4IzqfitRjtONlNl74-DPU7PvUUQXUrsue-dw6IV-gJrf4vCvWOrd5_CtRtu8JgyNeqD1n-Vn1LvT7Q_NJdzblJusdiVdPnUpLzQZtrqTNpWBAJe_Ng-TRgNxvylr-jZuul9gTXMzifug4YFInb4INyRHyNhjz5VMwsFZgncU8GL_zhRLRZ3MUrMaa61cgJSJKu9LvfvPyKscqYAdma74VyZqg4B7PAc4-QnVArXiPV3yF0WmSjh0w1Fb8PbH8nSjv7wWdRwzMy5ZIGRvRIJJkda9WgxmHfzqgFZ_BRiNnJTbEO8kfUBK0tqJTZo2tZF0Goe7_cy-h-5czG0_eQCz7iHvcp-ciLJfVe1NRiFvK14wfGjOazcfY3f9RBED1WjaTHDEQfsJC4c4RcfUzFF8AHxZN1KrFk1H-5C6aJOqUWcvCv3nKpoXAJYbesDUna_nXcBAImbx602FvoVrO5uY5z7eM0-F3m8GWV2qN7VYcmvjnCTXdsvalnZqQPaRqftesg1FY_0XtKfkdG-KyDoGNiy7PJQWxRnFtcLedLfWjE50ALRsgCoCZ0roigYiqpcPhiAEgraaCSHvxTkjyE2RzdqL3iKTsvPus5I3SEOcdgpGy7tngwvOgO6LqJiLrotSCztLqq7m3JmKgI5hWxgp6PjCthKTsRQp7vEsgySRo7SMNCFxv-VL6lxz1pvyVWwOgeM-IjI33R6DvDSrF3ui5mBiC5Ey1MI_HANB19towBIfq6ajQFhz4CLJgEz69ZdczaIwlm-yLx7n9UorX9XX4H5CmIdEo1GoYbDErWigLTUWHk-jaBOAS-MWgzMUOwwwckPJK-q8sXAr0u_AUiOGnXF7rtcLRfZaNUfvgek5AQRB30-J0dE2X5oqwQWwfUBBEYedLGd89nvyw_XyjoA16sdryFDtaeWRoOdF0mxoS0troGy-QHmV7zfSIVn1OkYtYbX6Po0TomPSQQdS8bDugZYtYwTVbXtZCtRDZRD74tDO_6cZqufgzxsr9LNNi6XxU0fBW_wQgq5VhdoJ5Ip4ybTFuDVkgRwJTsuUexY2TWhvEqcsJgw7m6leiLprt9YoUP7EPVEcF9GHMkgXjQ3rdgYq3hVizOwz7qJ9O-L2kVWXgR94PTApdM7Tc-23iPkGln9apyBAM1g2JISosFwIH2lBkyHnTvoTjxlQSglblHKT7vQtYy37r0R7PznBObxEqyPFSsBwmDe8-Vr_?></g></svg>