<svg xmlns="http://www.w3.org/2000/svg" xmlns:xlink="http://www.w3.org/1999/xlink" contentStyleType="text/css" data-diagram-type="DESCRIPTION" height="888px" preserveAspectRatio="none" style="width:1611px;height:888px;background:#FFFFFF;" version="1.1" viewBox="0 0 1611 888" width="1611px" zoomAndPan="magnify"><?plantuml 1.2026.4?><defs/><g><g class="title" data-source-line="1"><text fill="#000000" font-family="sans-serif" font-size="14" font-weight="700" lengthAdjust="spacing" textLength="369.585" x="617.5576" y="23.5352">C4 Level 3 &#8212; loyalty-mobile-bff &#8212; Static Topology</text></g><!--cluster **loyalty-mobile-bff**--><g class="cluster" data-qualified-name="..loyalty-mobile-bff.." data-source-line="40" id="ent0006"><rect fill="#F0F7FF" height="588.39" rx="10" ry="10" style="stroke:#0B4884;stroke-width:1;stroke-dasharray:7,7;" width="681" x="552.19" y="285.9383"/><text fill="#000000" font-family="sans-serif" font-size="14" font-style="italic" lengthAdjust="spacing" textLength="36.2236" x="874.5782" y="301.4734">&#171;svc&#187;</text><text fill="#000000" font-family="sans-serif" font-size="14" font-weight="700" lengthAdjust="spacing" textLength="136.1445" x="824.6177" y="317.9617">loyalty-mobile-bff</text></g><!--cluster API Layer--><g class="cluster" data-qualified-name="..loyalty-mobile-bff...API Layer" data-source-line="42" id="ent0007"><path d="M578.69,344.9383 L641.5894,344.9383 A3.75,3.75 0 0 1 644.0894,347.4383 L651.0894,367.4266 L1115.69,367.4266 A2.5,2.5 0 0 1 1118.19,369.9266 L1118.19,446.4083 A2.5,2.5 0 0 1 1115.69,448.9083 L578.69,448.9083 A2.5,2.5 0 0 1 576.19,446.4083 L576.19,347.4383 A2.5,2.5 0 0 1 578.69,344.9383" fill="#FAFAFA" style="stroke:#9E9E9E;stroke-width:1.5;"/><line style="stroke:#9E9E9E;stroke-width:1.5;" x1="576.19" x2="651.0894" y1="367.4266" y2="367.4266"/><text fill="#000000" font-family="sans-serif" font-size="14" font-style="italic" lengthAdjust="spacing" textLength="61.8994" x="580.19" y="360.4734">API Layer</text></g><!--cluster Anti-Corruption Clients--><g class="cluster" data-qualified-name="..loyalty-mobile-bff...Anti-Corruption Clients" data-source-line="48" id="ent0011"><path d="M578.69,497.9083 L740.3072,497.9083 A3.75,3.75 0 0 1 742.8072,500.4083 L749.8072,520.3966 L1035.69,520.3966 A2.5,2.5 0 0 1 1038.19,522.8966 L1038.19,730.3683 A2.5,2.5 0 0 1 1035.69,732.8683 L578.69,732.8683 A2.5,2.5 0 0 1 576.19,730.3683 L576.19,500.4083 A2.5,2.5 0 0 1 578.69,497.9083" fill="#FAFAFA" style="stroke:#9E9E9E;stroke-width:1.5;"/><line style="stroke:#9E9E9E;stroke-width:1.5;" x1="576.19" x2="749.8072" y1="520.3966" y2="520.3966"/><text fill="#000000" font-family="sans-serif" font-size="14" font-style="italic" lengthAdjust="spacing" textLength="160.6172" x="580.19" y="513.4434">Anti-Corruption Clients</text></g><!--entity prob--><g class="entity" data-qualified-name="..loyalty-mobile-bff...prob" data-source-line="55" id="ent0016"><rect fill="#0B4884" height="69.4648" rx="2.5" ry="2.5" style="stroke:#073661;stroke-width:0.5;" width="124.959" x="994.71" y="788.8683"/><text fill="#FFFFFF" font-family="sans-serif" font-size="14" font-style="italic" lengthAdjust="spacing" textLength="91.335" x="1011.522" y="812.4034">&#171;component&#187;</text><text fill="#FFFFFF" font-family="sans-serif" font-size="14" lengthAdjust="spacing" textLength="104.959" x="1004.71" y="828.8917">Problem Advice</text><text fill="#FFFFFF" font-family="sans-serif" font-size="14" lengthAdjust="spacing" textLength="78.6611" x="1017.8589" y="845.38">(RFC-7807)</text></g><!--entity pctl--><g class="entity" data-qualified-name="..loyalty-mobile-bff...API Layer.pctl" data-source-line="43" id="ent0008"><rect fill="#0B4884" height="52.9766" rx="2.5" ry="2.5" style="stroke:#073661;stroke-width:0.5;" width="149.917" x="782.23" y="379.9383"/><text fill="#FFFFFF" font-family="sans-serif" font-size="14" font-style="italic" lengthAdjust="spacing" textLength="91.335" x="811.521" y="403.4734">&#171;component&#187;</text><text fill="#FFFFFF" font-family="sans-serif" font-size="14" lengthAdjust="spacing" textLength="129.917" x="792.23" y="419.9617">Program Controller</text></g><!--entity rctl--><g class="entity" data-qualified-name="..loyalty-mobile-bff...API Layer.rctl" data-source-line="44" id="ent0009"><rect fill="#0B4884" height="52.9766" rx="2.5" ry="2.5" style="stroke:#073661;stroke-width:0.5;" width="142.3018" x="960.03" y="379.9383"/><text fill="#FFFFFF" font-family="sans-serif" font-size="14" font-style="italic" lengthAdjust="spacing" textLength="91.335" x="985.5134" y="403.4734">&#171;component&#187;</text><text fill="#FFFFFF" font-family="sans-serif" font-size="14" lengthAdjust="spacing" textLength="122.3018" x="970.03" y="419.9617">Reward Controller</text></g><!--entity cctl--><g class="entity" data-qualified-name="..loyalty-mobile-bff...API Layer.cctl" data-source-line="45" id="ent0010"><rect fill="#0B4884" height="52.9766" rx="2.5" ry="2.5" style="stroke:#073661;stroke-width:0.5;" width="161.0869" x="592.64" y="379.9383"/><text fill="#FFFFFF" font-family="sans-serif" font-size="14" font-style="italic" lengthAdjust="spacing" textLength="91.335" x="627.516" y="403.4734">&#171;component&#187;</text><text fill="#FFFFFF" font-family="sans-serif" font-size="14" lengthAdjust="spacing" textLength="141.0869" x="602.64" y="419.9617">Campaign Controller</text></g><!--entity ccl--><g class="entity" data-qualified-name="..loyalty-mobile-bff...Anti-Corruption Clients.ccl" data-source-line="49" id="ent0012"><rect fill="#00897B" height="52.9766" rx="2.5" ry="2.5" style="stroke:#00695C;stroke-width:0.5;" width="95.749" x="752.31" y="532.9083"/><text fill="#FFFFFF" font-family="sans-serif" font-size="14" font-style="italic" lengthAdjust="spacing" textLength="33.6191" x="783.3749" y="556.4434">&#171;acl&#187;</text><text fill="#FFFFFF" font-family="sans-serif" font-size="14" lengthAdjust="spacing" textLength="75.749" x="762.31" y="572.9317">Core Client</text></g><!--entity rcl--><g class="entity" data-qualified-name="..loyalty-mobile-bff...Anti-Corruption Clients.rcl" data-source-line="50" id="ent0013"><rect fill="#00897B" height="52.9766" rx="2.5" ry="2.5" style="stroke:#00695C;stroke-width:0.5;" width="145.6514" x="876.36" y="532.9083"/><text fill="#FFFFFF" font-family="sans-serif" font-size="14" font-style="italic" lengthAdjust="spacing" textLength="33.6191" x="932.3761" y="556.4434">&#171;acl&#187;</text><text fill="#FFFFFF" font-family="sans-serif" font-size="14" lengthAdjust="spacing" textLength="125.6514" x="886.36" y="572.9317">Redemption Client</text></g><!--entity cacl--><g class="entity" data-qualified-name="..loyalty-mobile-bff...Anti-Corruption Clients.cacl" data-source-line="51" id="ent0014"><rect fill="#00897B" height="52.9766" rx="2.5" ry="2.5" style="stroke:#00695C;stroke-width:0.5;" width="132.4307" x="591.97" y="532.9083"/><text fill="#FFFFFF" font-family="sans-serif" font-size="14" font-style="italic" lengthAdjust="spacing" textLength="33.6191" x="641.3758" y="556.4434">&#171;acl&#187;</text><text fill="#FFFFFF" font-family="sans-serif" font-size="14" lengthAdjust="spacing" textLength="112.4307" x="601.97" y="572.9317">Campaign Client</text></g><!--entity err--><g class="entity" data-qualified-name="..loyalty-mobile-bff...Anti-Corruption Clients.err" data-source-line="52" id="ent0015"><rect fill="#0B4884" height="52.9766" rx="2.5" ry="2.5" style="stroke:#073661;stroke-width:0.5;" width="180.542" x="700.91" y="663.8883"/><text fill="#FFFFFF" font-family="sans-serif" font-size="14" font-style="italic" lengthAdjust="spacing" textLength="91.335" x="745.5135" y="687.4234">&#171;component&#187;</text><text fill="#FFFFFF" font-family="sans-serif" font-size="14" lengthAdjust="spacing" textLength="160.542" x="710.91" y="703.9117">Upstream Error Handler</text></g><!--entity app--><g class="entity" data-qualified-name="app" data-source-line="34" id="ent0001"><rect fill="#B0BEC5" height="52.9766" rx="2.5" ry="2.5" style="stroke:#78909C;stroke-width:0.5;" width="128.8965" x="1050.74" y="44.4883"/><text fill="#000000" font-family="sans-serif" font-size="14" font-style="italic" lengthAdjust="spacing" textLength="36.292" x="1097.0422" y="68.0234">&#171;ext&#187;</text><text fill="#000000" font-family="sans-serif" font-size="14" lengthAdjust="spacing" textLength="108.8965" x="1060.74" y="84.5117">RDB Mobile App</text></g><!--entity gw--><g class="entity" data-qualified-name="gw" data-source-line="35" id="ent0002"><rect fill="#B0BEC5" height="69.4648" rx="2.5" ry="2.5" style="stroke:#78909C;stroke-width:0.5;" width="186.8379" x="797.77" y="160.4683"/><text fill="#000000" font-family="sans-serif" font-size="14" font-style="italic" lengthAdjust="spacing" textLength="36.292" x="873.0429" y="184.0034">&#171;ext&#187;</text><text fill="#000000" font-family="sans-serif" font-size="14" lengthAdjust="spacing" textLength="116.1836" x="833.0971" y="200.4917">AWS API Gateway</text><text fill="#000000" font-family="sans-serif" font-size="14" lengthAdjust="spacing" textLength="166.8379" x="807.77" y="216.98">+ Authentication Service</text></g><!--entity core--><g class="entity" data-qualified-name="core" data-source-line="36" id="ent0003"><rect fill="#B0BEC5" height="52.9766" rx="2.5" ry="2.5" style="stroke:#78909C;stroke-width:0.5;" width="101.6895" x="177.34" y="663.8883"/><text fill="#000000" font-family="sans-serif" font-size="14" font-style="italic" lengthAdjust="spacing" textLength="36.292" x="210.0387" y="687.4234">&#171;ext&#187;</text><text fill="#000000" font-family="sans-serif" font-size="14" lengthAdjust="spacing" textLength="81.6895" x="187.34" y="703.9117">loyalty-core</text></g><!--entity redm--><g class="entity" data-qualified-name="redm" data-source-line="37" id="ent0004"><rect fill="#B0BEC5" height="52.9766" rx="2.5" ry="2.5" style="stroke:#78909C;stroke-width:0.5;" width="150.9834" x="385.69" y="663.8883"/><text fill="#000000" font-family="sans-serif" font-size="14" font-style="italic" lengthAdjust="spacing" textLength="36.292" x="443.0357" y="687.4234">&#171;ext&#187;</text><text fill="#000000" font-family="sans-serif" font-size="14" lengthAdjust="spacing" textLength="130.9834" x="395.69" y="703.9117">loyalty-redemption</text></g><!--entity camp--><g class="entity" data-qualified-name="camp" data-source-line="38" id="ent0005"><rect fill="#B0BEC5" height="52.9766" rx="2.5" ry="2.5" style="stroke:#78909C;stroke-width:0.5;" width="138.3711" x="7" y="663.8883"/><text fill="#000000" font-family="sans-serif" font-size="14" font-style="italic" lengthAdjust="spacing" textLength="36.292" x="58.0396" y="687.4234">&#171;ext&#187;</text><text fill="#000000" font-family="sans-serif" font-size="14" lengthAdjust="spacing" textLength="118.3711" x="17" y="703.9117">loyalty-campaign</text></g><g class="entity" data-qualified-name="GMN32" data-source-line="82" id="ent0033"><path d="M286.07,803.2883 L286.07,843.9094 L536.2966,843.9094 L536.2966,813.2883 L526.2966,803.2883 L286.07,803.2883" fill="#FEFFDD" style="stroke:#181818;stroke-width:0.5;"/><path d="M526.2966,803.2883 L526.2966,813.2883 L536.2966,813.2883 L526.2966,803.2883" fill="#FEFFDD" style="stroke:#181818;stroke-width:1;"/><text fill="#000000" font-family="sans-serif" font-size="13" lengthAdjust="spacing" textLength="142.1304" x="335.6181" y="820.8566">No data tier, no Kafka.</text><text fill="#000000" font-family="sans-serif" font-size="13" lengthAdjust="spacing" textLength="229.2266" x="292.07" y="836.1672">State lives entirely in the upstreams.</text></g><!--link app to gw--><g class="link" data-entity-1="ent0001" data-entity-2="ent0002" data-link-type="dependency" data-source-line="59" id="lnk17"><path d="M1067.68,97.8983 C1034.42,116.0483 994.0291,138.0833 957.9091,157.7933" fill="none" id="app-to-gw" style="stroke:#181818;stroke-width:1;"/><polygon fill="#181818" points="953.52,160.1883,963.3363,159.3885,957.9091,157.7933,959.5043,152.366,953.52,160.1883" style="stroke:#181818;stroke-width:1;stroke-linejoin:miter;stroke-miterlimit:10;"/><text fill="#000000" font-family="sans-serif" font-size="13" lengthAdjust="spacing" textLength="157.5107" x="1024.25" y="134.0366">HTTPS + customer token</text></g><!--link gw to pctl--><g class="link" data-entity-1="ent0002" data-entity-2="ent0008" data-link-type="dependency" data-source-line="60" id="lnk18"><path d="M797.58,218.0683 C780.84,226.2583 765.47,237.4983 755.19,252.9383 C751,259.2183 751.5,263.3383 755.19,269.9383 C758.49,275.8583 763.25,273.2783 768.19,277.9383 C800.38,308.3183 825.3869,347.7471 840.9769,375.2871" fill="none" id="gw-to-pctl" style="stroke:#181818;stroke-width:1;"/><polygon fill="#181818" points="843.44,379.6383,842.4873,369.8356,840.9769,375.2871,835.5254,373.7766,843.44,379.6383" style="stroke:#181818;stroke-width:1;stroke-linejoin:miter;stroke-miterlimit:10;"/><text fill="#000000" font-family="sans-serif" font-size="13" lengthAdjust="spacing" textLength="338.0063" x="756.19" y="266.5066">/api/loyalty/mobile/* (?customerId=, prefix stripped)</text></g><!--link gw to rctl--><g class="link" data-entity-1="ent0002" data-entity-2="ent0009" data-link-type="dependency" data-source-line="61" id="lnk19"><path d="M984.97,210.5683 C1032.78,220.0083 1083.83,234.1183 1098.19,252.9383 C1128.26,292.3583 1091.3795,343.7411 1061.5095,375.7811" fill="none" id="gw-to-rctl" style="stroke:#181818;stroke-width:1;"/><polygon fill="#181818" points="1058.1,379.4383,1067.1629,375.5829,1061.5095,375.7811,1061.3114,370.1277,1058.1,379.4383" style="stroke:#181818;stroke-width:1;stroke-linejoin:miter;stroke-miterlimit:10;"/><text fill="#000000" font-family="sans-serif" font-size="13" lengthAdjust="spacing" textLength="322.0801" x="1107.09" y="266.5066">/api/loyalty/mobile/* (customerId in query / body)</text></g><!--link gw to cctl--><g class="link" data-entity-1="ent0002" data-entity-2="ent0010" data-link-type="dependency" data-source-line="62" id="lnk20"><path d="M797.55,196.5583 C696.16,199.1683 543.95,210.3383 507.19,252.9383 C465.19,301.5883 540.8755,348.5032 603.7755,377.3632" fill="none" id="gw-to-cctl" style="stroke:#181818;stroke-width:1;"/><polygon fill="#181818" points="608.32,379.4483,601.808,372.0595,603.7755,377.3632,598.4718,379.3307,608.32,379.4483" style="stroke:#181818;stroke-width:1;stroke-linejoin:miter;stroke-miterlimit:10;"/><text fill="#000000" font-family="sans-serif" font-size="13" lengthAdjust="spacing" textLength="236.0566" x="508.19" y="266.5066">/api/loyalty/mobile/* (?customerId=)</text></g><!--link pctl to ccl--><g class="link" data-entity-1="ent0008" data-entity-2="ent0012" data-link-type="dependency" data-source-line="65" id="lnk21"><path d="M830.01,433.2283 C821.95,442.4283 814,453.3983 809.19,464.9083 C800.13,486.5783 798.3606,508.4486 798.5906,527.8186" fill="none" id="pctl-to-ccl" style="stroke:#181818;stroke-width:1;"/><polygon fill="#181818" points="798.65,532.8183,802.5429,523.7714,798.5906,527.8186,794.5434,523.8664,798.65,532.8183" style="stroke:#181818;stroke-width:1;stroke-linejoin:miter;stroke-miterlimit:10;"/><text fill="#000000" font-family="sans-serif" font-size="13" lengthAdjust="spacing" textLength="218.8481" x="810.19" y="478.4766">programs / balance / tier / history</text></g><!--link rctl to rcl--><g class="link" data-entity-1="ent0009" data-entity-2="ent0013" data-link-type="dependency" data-source-line="66" id="lnk22"><path d="M1036.67,433.2983 C1038.58,448.1283 1038.83,466.7483 1032.19,481.9083 C1023.3,502.1883 1010.0052,516.3711 993.5552,529.3511" fill="none" id="rctl-to-rcl" style="stroke:#181818;stroke-width:1;"/><polygon fill="#181818" points="989.63,532.4483,999.1731,530.0135,993.5552,529.3511,994.2176,523.7331,989.63,532.4483" style="stroke:#181818;stroke-width:1;stroke-linejoin:miter;stroke-miterlimit:10;"/><text fill="#000000" font-family="sans-serif" font-size="13" lengthAdjust="spacing" textLength="151.0234" x="1037.62" y="478.4766">rewards / redeem / poll</text></g><!--link cctl to cacl--><g class="link" data-entity-1="ent0010" data-entity-2="ent0014" data-link-type="dependency" data-source-line="67" id="lnk23"><path d="M622.87,433.2083 C611.38,441.6583 600.65,452.2083 594.19,464.9083 C581.87,489.0983 597.6754,511.0764 618.3254,529.2364" fill="none" id="cctl-to-cacl" style="stroke:#181818;stroke-width:1;"/><polygon fill="#181818" points="622.08,532.5383,617.9632,523.5911,618.3254,529.2364,612.6801,529.5986,622.08,532.5383" style="stroke:#181818;stroke-width:1;stroke-linejoin:miter;stroke-miterlimit:10;"/><text fill="#000000" font-family="sans-serif" font-size="13" lengthAdjust="spacing" textLength="180.8003" x="595.19" y="478.4766">campaigns / drawing entries</text></g><!--link ccl to core--><g class="link" data-entity-1="ent0012" data-entity-2="ent0003" data-link-type="dependency" data-source-line="70" id="lnk24"><path d="M751.96,582.0583 C747.37,583.5683 742.73,584.8783 738.19,585.8883 C684.54,597.7883 285.84,573.0483 244.19,608.8883 C228.85,622.0783 225.5559,640.4085 225.7159,658.5585" fill="none" id="ccl-to-core" style="stroke:#181818;stroke-width:1;"/><polygon fill="#181818" points="225.76,663.5583,229.6805,654.5234,225.7159,658.5585,221.6808,654.5939,225.76,663.5583" style="stroke:#181818;stroke-width:1;stroke-linejoin:miter;stroke-miterlimit:10;"/><text fill="#000000" font-family="sans-serif" font-size="13" lengthAdjust="spacing" textLength="244.4736" x="245.19" y="629.9566">REST (memberId = customerId, v1 1:1)</text></g><!--link rcl to redm--><g class="link" data-entity-1="ent0013" data-entity-2="ent0004" data-link-type="dependency" data-source-line="71" id="lnk25"><path d="M875.88,583.0783 C871.27,584.1283 866.68,585.0783 862.19,585.8883 C790.92,598.6983 602.62,577.8883 537.19,608.8883 C512.17,620.7383 494.176,640.6639 480.666,659.3839" fill="none" id="rcl-to-redm" style="stroke:#181818;stroke-width:1;"/><polygon fill="#181818" points="477.74,663.4383,486.2504,658.4811,480.666,659.3839,479.7633,653.7995,477.74,663.4383" style="stroke:#181818;stroke-width:1;stroke-linejoin:miter;stroke-miterlimit:10;"/><text fill="#000000" font-family="sans-serif" font-size="13" lengthAdjust="spacing" textLength="232.3623" x="543.011" y="622.4566">REST (customerId + accountNumber,</text><text fill="#000000" font-family="sans-serif" font-size="13" lengthAdjust="spacing" textLength="237.8911" x="542.3033" y="637.7672">Idempotency-Key, X-Step-Up-Token)</text></g><!--link cacl to camp--><g class="link" data-entity-1="ent0014" data-entity-2="ent0005" data-link-type="dependency" data-source-line="72" id="lnk26"><path d="M591.54,562.1283 C452.18,566.3283 139.72,578.9883 102.19,608.8883 C85.88,621.8783 80.2862,640.2576 77.9862,658.4776" fill="none" id="cacl-to-camp" style="stroke:#181818;stroke-width:1;"/><polygon fill="#181818" points="77.36,663.4383,82.4557,655.0101,77.9862,658.4776,74.5187,654.0082,77.36,663.4383" style="stroke:#181818;stroke-width:1;stroke-linejoin:miter;stroke-miterlimit:10;"/><text fill="#000000" font-family="sans-serif" font-size="13" lengthAdjust="spacing" textLength="117.8379" x="103.19" y="629.9566">REST (status=LIVE)</text></g><!--link ccl to err--><g class="link" data-entity-1="ent0012" data-entity-2="ent0015" data-link-type="dependency" data-source-line="75" id="lnk27"><path d="M793.23,586.1383 C791.56,593.4283 790.02,601.4283 789.19,608.8883 C787.15,627.0883 787.392,642.7491 788.432,658.5691" fill="none" id="ccl-to-err" style="stroke:#181818;stroke-width:1;stroke-dasharray:7,7;"/><polygon fill="#181818" points="788.76,663.5583,792.161,654.3153,788.432,658.5691,784.1782,654.8401,788.76,663.5583" style="stroke:#181818;stroke-width:1;stroke-linejoin:miter;stroke-miterlimit:10;"/><text fill="#000000" font-family="sans-serif" font-size="13" lengthAdjust="spacing" textLength="160.0435" x="790.19" y="629.9566">4xx/5xx -&gt; BffException</text></g><!--link rcl to err--><g class="link" data-entity-1="ent0013" data-entity-2="ent0015" data-link-type="dependency" data-source-line="76" id="lnk28"><path d="M958.76,586.0683 C963.38,603.2183 965.74,625.3983 954.19,640.8883 C937.06,663.8483 914.3795,675.1912 886.7595,681.8812" fill="none" id="rcl-to-err" style="stroke:#181818;stroke-width:1;stroke-dasharray:7,7;"/><polygon fill="#181818" points="881.9,683.0583,891.5887,684.8272,886.7595,681.8812,889.7054,677.052,881.9,683.0583" style="stroke:#181818;stroke-width:1;stroke-linejoin:miter;stroke-miterlimit:10;"/></g><!--link cacl to err--><g class="link" data-entity-1="ent0014" data-entity-2="ent0015" data-link-type="dependency" data-source-line="77" id="lnk29"><path d="M722.19,586.2583 C733.06,592.5583 743.6,600.0783 752.19,608.8883 C767.15,624.2283 775.6169,641.7137 781.8069,658.9137" fill="none" id="cacl-to-err" style="stroke:#181818;stroke-width:1;stroke-dasharray:7,7;"/><polygon fill="#181818" points="783.5,663.6183,784.2161,653.7955,781.8069,658.9137,776.6887,656.5045,783.5,663.6183" style="stroke:#181818;stroke-width:1;stroke-linejoin:miter;stroke-miterlimit:10;"/></g><!--link err to prob--><g class="link" data-entity-1="ent0015" data-entity-2="ent0016" data-link-type="dependency" data-source-line="78" id="lnk30"><path d="M843.74,717.2983 C887.04,738.6583 944.0858,766.8065 989.9658,789.4365" fill="none" id="err-to-prob" style="stroke:#181818;stroke-width:1;stroke-dasharray:7,7;"/><polygon fill="#181818" points="994.45,791.6483,988.1479,784.0797,989.9658,789.4365,984.609,791.2544,994.45,791.6483" style="stroke:#181818;stroke-width:1;stroke-linejoin:miter;stroke-miterlimit:10;"/><text fill="#000000" font-family="sans-serif" font-size="13" lengthAdjust="spacing" textLength="154.248" x="941.11" y="762.4366">translated status + code</text></g><!--link prob to app--><g class="link" data-entity-1="ent0016" data-entity-2="ent0001" data-link-type="dependency" data-source-line="79" id="lnk31"><path d="M1120.07,816.0283 C1236.56,802.0983 1474.19,764.7083 1474.19,691.3783 C1474.19,194.1983 1474.19,194.1983 1474.19,194.1983 C1474.19,132.7283 1288.0853,96.6361 1184.7253,81.2161" fill="none" id="prob-to-app" style="stroke:#181818;stroke-width:1;"/><polygon fill="#181818" points="1179.78,80.4783,1188.0913,85.7625,1184.7253,81.2161,1189.2717,77.8501,1179.78,80.4783" style="stroke:#181818;stroke-width:1;stroke-linejoin:miter;stroke-miterlimit:10;"/><text fill="#000000" font-family="sans-serif" font-size="13" lengthAdjust="spacing" textLength="120.5103" x="1475.19" y="478.4766">RFC-7807 Problem</text></g><!--link err to GMN32--><g class="link" data-entity-1="ent0015" data-entity-2="ent0033" data-link-type="association" data-source-line="82" id="lnk34"><path d="M700.65,707.8583 C655.55,717.4183 600.66,731.0983 553.19,748.8683 C514.03,763.5083 471.84,786.4183 443.71,802.8083" fill="none" id="err-GMN32" style="stroke:#181818;stroke-width:1;stroke-dasharray:7,7;"/></g><?plantuml-src ZLPTJ-D657tthxWA3oKGax0B9A25AcIpNRHqXKYsxGCla_5ri1ZFkECnn5gjr1_HNzXVqdlzaHWdkwqZeMHyphaVS-umBd8AON82j_YC2jx2Ft_z3ShaGhdSZyqYKkWlmh1OdZdX8WbpanXbbhddfK-HJeGLCQIF8Z0laLv2A5IAZJS1XY9JReuhDrRHKiUe7KZwWxQ1qYR051DuCseiMg6VUF7aj1dAedH2BodhhnxGOqscWucn6ksxT-cplBg2pVDcK62kZGtGpbokS1iJYFGHWn8dvDEo4bIcfRSN3i9X63O4Tu0Au61nCXgTUBibfOaJewa1nAcH3FnWjDi1gMCNptRiDdHlC7nxTdRydTX2getaO30w7oxQiPkG_uZTXfBYsVcf_4viCi0czcAmG7dQZjs4h2NvsOxTXkuDH-U3S-bzQrebeHp4iZPAAoEgI_2dhLtAdID_rWaMrgb2HKweg8Zq4qnNv6Cj56YCbeyBazdKsnYqS__-6dujXWZ6IT8f-NNo8WMH94tu-FSPZEzku1VXy4Na3_eGnfbxfDsD98sUqJ13-nn9x3H5bYzDZNfsfR7OgRlJGFFwBhp50EE4WtHUuMaztgaluaJGF7VQ-hJkDGa71zl7oS41Lr3EpLVsIxrJ7Ix_LkHeE_LuRvJkh5dojaveGwnHYa4Skpa3b44YdMfJxwcVDcWnjwbs1tLI5VgQl4ML9VNRwsfevtmwcsnMT1OcAY92kgCs0c7rkhDnTJrZXVwEekejQp8R72j_K4qpLZEEs2PzIL9daJe_jPO6vAFGGT65hIQWjNKFNk_RGc4Cuu2z-w3txpzC_E5eCEpkQcH2w7AuRlI2fzMZAG7VloAZKreNy74-lvl18SWiTIP62yuyeVRuBQDu-mdL5qdKhvpNBvtNFu3zdslMJN3PerWOHYkWwg8amQ2x5h4_5DbeGAJXpmnj3drOc23VACZ_dKQNQzsOAmLcbqQ1Lx5eFSPumTzxy7mCnnV7FKeWZG84EYLgKjShMb0ceRXZIJauAISfbD0IwPkBg7LzU8n8t-QUhJcsvDXYOfZ29mFjNX_etxxov5gRZ4Au-XnWP615SGUWB6o4QL5NLGWHiif5gLUaLMYmwo_WVZgRmtvT6rp2fkYwqAvdQnAVI6jIeps78AGamxZF6Glr7ZJSy80OXrhc_YVCU_27FtEO-5yIVywcwNf55MKvSR9MJUccawMNjpU_JSlTiIPDVPavH-MLwHyTNR7TkLKdgrN_TBNY6g_3SBgIM0nbcN65AmFLFmeY_s2pauAZgqwgwDGFe0pDzgOhaLUyv_Hu1ZYzQdAWcYdFqrGUMSzH5y24rGH-DdIhSQBOunvThk2J29_44RtXEno2YfunvMsABAgSJSp-MM_GaOSw05Rs_WK0?></g></svg>