<svg xmlns="http://www.w3.org/2000/svg" xmlns:xlink="http://www.w3.org/1999/xlink" contentStyleType="text/css" data-diagram-type="DESCRIPTION" height="1085px" preserveAspectRatio="none" style="width:1205px;height:1085px;background:#FFFFFF;" version="1.1" viewBox="0 0 1205 1085" width="1205px" zoomAndPan="magnify"><?plantuml 1.2026.4?><defs/><g><g class="title" data-source-line="61"><text fill="#000000" font-family="sans-serif" font-size="14" font-weight="700" lengthAdjust="spacing" textLength="360.4043" x="419.0212" y="23.5352">C4 Level 3 &#8212; loyalty-campaign &#8212; Static Topology</text></g><!--cluster **loyalty-campaign**--><g class="cluster" data-qualified-name="..loyalty-campaign.." data-source-line="105" id="ent0006"><rect fill="#F0F7FF" height="760.37" rx="10" ry="10" style="stroke:#0B4884;stroke-width:1;stroke-dasharray:7,7;" width="916" x="7" y="168.4683"/><text fill="#000000" font-family="sans-serif" font-size="14" font-style="italic" lengthAdjust="spacing" textLength="36.2236" x="446.8882" y="184.0034">&#171;svc&#187;</text><text fill="#000000" font-family="sans-serif" font-size="14" font-weight="700" lengthAdjust="spacing" textLength="126.9639" x="401.5181" y="200.4917">loyalty-campaign</text></g><!--cluster Inbound--><g class="cluster" data-qualified-name="..loyalty-campaign...Inbound" data-source-line="107" id="ent0007"><path d="M188.5,227.4683 L245.8213,227.4683 A3.75,3.75 0 0 1 248.3213,229.9683 L255.3213,249.9566 L335.5,249.9566 A2.5,2.5 0 0 1 338,252.4566 L338,328.9383 A2.5,2.5 0 0 1 335.5,331.4383 L188.5,331.4383 A2.5,2.5 0 0 1 186,328.9383 L186,229.9683 A2.5,2.5 0 0 1 188.5,227.4683" fill="#FAFAFA" style="stroke:#9E9E9E;stroke-width:1.5;"/><line style="stroke:#9E9E9E;stroke-width:1.5;" x1="186" x2="255.3213" y1="249.9566" y2="249.9566"/><text fill="#000000" font-family="sans-serif" font-size="14" font-style="italic" lengthAdjust="spacing" textLength="56.3213" x="190" y="243.0034">Inbound</text></g><!--cluster Campaign Context--><g class="cluster" data-qualified-name="..loyalty-campaign...Campaign Context" data-source-line="111" id="ent0009"><path d="M33.5,647.8783 L161.2588,647.8783 A3.75,3.75 0 0 1 163.7588,650.3783 L170.7588,670.3666 L224.5,670.3666 A2.5,2.5 0 0 1 227,672.8666 L227,749.3583 A2.5,2.5 0 0 1 224.5,751.8583 L33.5,751.8583 A2.5,2.5 0 0 1 31,749.3583 L31,650.3783 A2.5,2.5 0 0 1 33.5,647.8783" fill="#FAFAFA" style="stroke:#9E9E9E;stroke-width:1.5;"/><line style="stroke:#9E9E9E;stroke-width:1.5;" x1="31" x2="170.7588" y1="670.3666" y2="670.3666"/><text fill="#000000" font-family="sans-serif" font-size="14" font-style="italic" lengthAdjust="spacing" textLength="126.7588" x="35" y="663.4134">Campaign Context</text></g><!--cluster Drawing Context--><g class="cluster" data-qualified-name="..loyalty-campaign...Drawing Context" data-source-line="115" id="ent0011"><path d="M253.5,387.9283 L368.9609,387.9283 A3.75,3.75 0 0 1 371.4609,390.4283 L378.4609,410.4166 L568.5,410.4166 A2.5,2.5 0 0 1 571,412.9166 L571,749.3583 A2.5,2.5 0 0 1 568.5,751.8583 L253.5,751.8583 A2.5,2.5 0 0 1 251,749.3583 L251,390.4283 A2.5,2.5 0 0 1 253.5,387.9283" fill="#FAFAFA" style="stroke:#9E9E9E;stroke-width:1.5;"/><line style="stroke:#9E9E9E;stroke-width:1.5;" x1="251" x2="378.4609" y1="410.4166" y2="410.4166"/><text fill="#000000" font-family="sans-serif" font-size="14" font-style="italic" lengthAdjust="spacing" textLength="114.4609" x="255" y="403.4634">Drawing Context</text></g><!--cluster Cross-cutting--><g class="cluster" data-qualified-name="..loyalty-campaign...Cross-cutting" data-source-line="122" id="ent0016"><path d="M597.5,647.8783 L692.6855,647.8783 A3.75,3.75 0 0 1 695.1855,650.3783 L702.1855,670.3666 L896.5,670.3666 A2.5,2.5 0 0 1 899,672.8666 L899,749.3583 A2.5,2.5 0 0 1 896.5,751.8583 L597.5,751.8583 A2.5,2.5 0 0 1 595,749.3583 L595,650.3783 A2.5,2.5 0 0 1 597.5,647.8783" fill="#FAFAFA" style="stroke:#9E9E9E;stroke-width:1.5;"/><line style="stroke:#9E9E9E;stroke-width:1.5;" x1="595" x2="702.1855" y1="670.3666" y2="670.3666"/><text fill="#000000" font-family="sans-serif" font-size="14" font-style="italic" lengthAdjust="spacing" textLength="94.1855" x="599" y="663.4134">Cross-cutting</text></g><!--cluster Data Tier (loyalty-campaign RDS)--><g class="cluster" data-qualified-name="..loyalty-campaign...Data Tier .loyalty-campaign RDS." data-source-line="127" id="ent0019"><path d="M111.5,800.8583 L337.7578,800.8583 A3.75,3.75 0 0 1 340.2578,803.3583 L347.2578,823.3466 L896.5,823.3466 A2.5,2.5 0 0 1 899,825.8466 L899,902.3383 A2.5,2.5 0 0 1 896.5,904.8383 L111.5,904.8383 A2.5,2.5 0 0 1 109,902.3383 L109,803.3583 A2.5,2.5 0 0 1 111.5,800.8583" fill="#FAFAFA" style="stroke:#9E9E9E;stroke-width:1.5;"/><line style="stroke:#9E9E9E;stroke-width:1.5;" x1="109" x2="347.2578" y1="823.3466" y2="823.3466"/><text fill="#000000" font-family="sans-serif" font-size="14" font-style="italic" lengthAdjust="spacing" textLength="225.2578" x="113" y="816.3934">Data Tier (loyalty-campaign RDS)</text></g><!--entity api--><g class="entity" data-qualified-name="..loyalty-campaign...Inbound.api" data-source-line="108" id="ent0008"><rect fill="#0B4884" height="52.9766" rx="2.5" ry="2.5" style="stroke:#073661;stroke-width:0.5;" width="119.1621" x="202.42" y="262.4683"/><text fill="#FFFFFF" font-family="sans-serif" font-size="14" font-style="italic" lengthAdjust="spacing" textLength="91.335" x="216.3336" y="286.0034">&#171;component&#187;</text><text fill="#FFFFFF" font-family="sans-serif" font-size="14" lengthAdjust="spacing" textLength="99.1621" x="212.42" y="302.4917">REST API Layer</text></g><!--entity camp--><g class="entity" data-qualified-name="..loyalty-campaign...Campaign Context.camp" data-source-line="112" id="ent0010"><rect fill="#0B4884" height="52.9766" rx="2.5" ry="2.5" style="stroke:#073661;stroke-width:0.5;" width="163.0693" x="47.47" y="682.8783"/><text fill="#FFFFFF" font-family="sans-serif" font-size="14" font-style="italic" lengthAdjust="spacing" textLength="91.335" x="83.3372" y="706.4134">&#171;component&#187;</text><text fill="#FFFFFF" font-family="sans-serif" font-size="14" lengthAdjust="spacing" textLength="143.0693" x="57.47" y="722.9017">Campaign Aggregate</text></g><!--entity draw--><g class="entity" data-qualified-name="..loyalty-campaign...Drawing Context.draw" data-source-line="116" id="ent0012"><rect fill="#0B4884" height="52.9766" rx="2.5" ry="2.5" style="stroke:#073661;stroke-width:0.5;" width="150.7715" x="325.61" y="682.8783"/><text fill="#FFFFFF" font-family="sans-serif" font-size="14" font-style="italic" lengthAdjust="spacing" textLength="91.335" x="355.3283" y="706.4134">&#171;component&#187;</text><text fill="#FFFFFF" font-family="sans-serif" font-size="14" lengthAdjust="spacing" textLength="130.7715" x="335.61" y="722.9017">Drawing Aggregate</text></g><!--entity entry--><g class="entity" data-qualified-name="..loyalty-campaign...Drawing Context.entry" data-source-line="117" id="ent0013"><rect fill="#0B4884" height="52.9766" rx="2.5" ry="2.5" style="stroke:#073661;stroke-width:0.5;" width="113.335" x="267.33" y="422.9283"/><text fill="#FFFFFF" font-family="sans-serif" font-size="14" font-style="italic" lengthAdjust="spacing" textLength="91.335" x="278.33" y="446.4634">&#171;component&#187;</text><text fill="#FFFFFF" font-family="sans-serif" font-size="14" lengthAdjust="spacing" textLength="86.3174" x="280.8388" y="462.9517">Entry Service</text></g><!--entity sched--><g class="entity" data-qualified-name="..loyalty-campaign...Drawing Context.sched" data-source-line="118" id="ent0014"><rect fill="#0B4884" height="52.9766" rx="2.5" ry="2.5" style="stroke:#073661;stroke-width:0.5;" width="146.9023" x="408.55" y="422.9283"/><text fill="#FFFFFF" font-family="sans-serif" font-size="14" font-style="italic" lengthAdjust="spacing" textLength="91.335" x="436.3337" y="446.4634">&#171;component&#187;</text><text fill="#FFFFFF" font-family="sans-serif" font-size="14" lengthAdjust="spacing" textLength="126.9023" x="418.55" y="462.9517">Drawing Scheduler</text></g><!--entity winner--><g class="entity" data-qualified-name="..loyalty-campaign...Drawing Context.winner" data-source-line="119" id="ent0015"><rect fill="#0B4884" height="52.9766" rx="2.5" ry="2.5" style="stroke:#073661;stroke-width:0.5;" width="132.2871" x="379.86" y="538.9083"/><text fill="#FFFFFF" font-family="sans-serif" font-size="14" font-style="italic" lengthAdjust="spacing" textLength="91.335" x="400.3361" y="562.4434">&#171;component&#187;</text><text fill="#FFFFFF" font-family="sans-serif" font-size="14" lengthAdjust="spacing" textLength="112.2871" x="389.86" y="578.9317">Winner Selection</text></g><!--entity audit--><g class="entity" data-qualified-name="..loyalty-campaign...Cross-cutting.audit" data-source-line="123" id="ent0017"><rect fill="#0B4884" height="52.9766" rx="2.5" ry="2.5" style="stroke:#073661;stroke-width:0.5;" width="130.6123" x="752.69" y="682.8783"/><text fill="#FFFFFF" font-family="sans-serif" font-size="14" font-style="italic" lengthAdjust="spacing" textLength="91.335" x="772.3287" y="706.4134">&#171;component&#187;</text><text fill="#FFFFFF" font-family="sans-serif" font-size="14" lengthAdjust="spacing" textLength="110.6123" x="762.69" y="722.9017">Audit Log Writer</text></g><!--entity relay--><g class="entity" data-qualified-name="..loyalty-campaign...Cross-cutting.relay" data-source-line="124" id="ent0018"><rect fill="#0B4884" height="52.9766" rx="2.5" ry="2.5" style="stroke:#073661;stroke-width:0.5;" width="113.335" x="611.33" y="682.8783"/><text fill="#FFFFFF" font-family="sans-serif" font-size="14" font-style="italic" lengthAdjust="spacing" textLength="91.335" x="622.33" y="706.4134">&#171;component&#187;</text><text fill="#FFFFFF" font-family="sans-serif" font-size="14" lengthAdjust="spacing" textLength="90.9727" x="622.5112" y="722.9017">Outbox Relay</text></g><!--entity t_camp--><g class="entity" data-qualified-name="..loyalty-campaign...Data Tier .loyalty-campaign RDS..t_camp" data-source-line="128" id="ent0020"><rect fill="#5D7A99" height="52.9766" rx="2.5" ry="2.5" style="stroke:#3D5470;stroke-width:0.5;" width="85.9805" x="125.01" y="835.8583"/><text fill="#FFFFFF" font-family="sans-serif" font-size="14" font-style="italic" lengthAdjust="spacing" textLength="44.1807" x="145.9099" y="859.3934">&#171;data&#187;</text><text fill="#FFFFFF" font-family="sans-serif" font-size="14" lengthAdjust="spacing" textLength="65.9805" x="135.01" y="875.8817">campaign</text></g><!--entity t_draw--><g class="entity" data-qualified-name="..loyalty-campaign...Data Tier .loyalty-campaign RDS..t_draw" data-source-line="129" id="ent0021"><rect fill="#5D7A99" height="52.9766" rx="2.5" ry="2.5" style="stroke:#3D5470;stroke-width:0.5;" width="74.5234" x="382.74" y="835.8583"/><text fill="#FFFFFF" font-family="sans-serif" font-size="14" font-style="italic" lengthAdjust="spacing" textLength="44.1807" x="397.9114" y="859.3934">&#171;data&#187;</text><text fill="#FFFFFF" font-family="sans-serif" font-size="14" lengthAdjust="spacing" textLength="54.5234" x="392.74" y="875.8817">drawing</text></g><!--entity t_entry--><g class="entity" data-qualified-name="..loyalty-campaign...Data Tier .loyalty-campaign RDS..t_entry" data-source-line="130" id="ent0022"><rect fill="#5D7A99" height="52.9766" rx="2.5" ry="2.5" style="stroke:#3D5470;stroke-width:0.5;" width="116.291" x="238.85" y="835.8583"/><text fill="#FFFFFF" font-family="sans-serif" font-size="14" font-style="italic" lengthAdjust="spacing" textLength="44.1807" x="274.9052" y="859.3934">&#171;data&#187;</text><text fill="#FFFFFF" font-family="sans-serif" font-size="14" lengthAdjust="spacing" textLength="96.291" x="248.85" y="875.8817">drawing_entry</text></g><!--entity t_winner--><g class="entity" data-qualified-name="..loyalty-campaign...Data Tier .loyalty-campaign RDS..t_winner" data-source-line="131" id="ent0023"><rect fill="#5D7A99" height="52.9766" rx="2.5" ry="2.5" style="stroke:#3D5470;stroke-width:0.5;" width="116.5781" x="485.71" y="835.8583"/><text fill="#FFFFFF" font-family="sans-serif" font-size="14" font-style="italic" lengthAdjust="spacing" textLength="44.1807" x="521.9087" y="859.3934">&#171;data&#187;</text><text fill="#FFFFFF" font-family="sans-serif" font-size="14" lengthAdjust="spacing" textLength="96.5781" x="495.71" y="875.8817">winner_record</text></g><!--entity t_audit--><g class="entity" data-qualified-name="..loyalty-campaign...Data Tier .loyalty-campaign RDS..t_audit" data-source-line="132" id="ent0024"><rect fill="#5D7A99" height="52.9766" rx="2.5" ry="2.5" style="stroke:#3D5470;stroke-width:0.5;" width="155.8711" x="727.06" y="835.8583"/><text fill="#FFFFFF" font-family="sans-serif" font-size="14" font-style="italic" lengthAdjust="spacing" textLength="44.1807" x="782.9052" y="859.3934">&#171;data&#187;</text><text fill="#FFFFFF" font-family="sans-serif" font-size="14" lengthAdjust="spacing" textLength="135.8711" x="737.06" y="875.8817">campaign_audit_log</text></g><!--entity t_outbox--><g class="entity" data-qualified-name="..loyalty-campaign...Data Tier .loyalty-campaign RDS..t_outbox" data-source-line="133" id="ent0025"><rect fill="#5D7A99" height="52.9766" rx="2.5" ry="2.5" style="stroke:#3D5470;stroke-width:0.5;" width="68.5215" x="630.74" y="835.8583"/><text fill="#FFFFFF" font-family="sans-serif" font-size="14" font-style="italic" lengthAdjust="spacing" textLength="44.1807" x="642.9104" y="859.3934">&#171;data&#187;</text><text fill="#FFFFFF" font-family="sans-serif" font-size="14" lengthAdjust="spacing" textLength="48.5215" x="640.74" y="875.8817">outbox</text></g><!--entity mbff--><g class="entity" data-qualified-name="mbff" data-source-line="98" id="ent0001"><rect fill="#B0BEC5" height="52.9766" rx="2.5" ry="2.5" style="stroke:#78909C;stroke-width:0.5;" width="145.9727" x="17.01" y="44.4883"/><text fill="#000000" font-family="sans-serif" font-size="14" font-style="italic" lengthAdjust="spacing" textLength="36.292" x="71.8503" y="68.0234">&#171;ext&#187;</text><text fill="#000000" font-family="sans-serif" font-size="14" lengthAdjust="spacing" textLength="125.9727" x="27.01" y="84.5117">loyalty-mobile-bff</text></g><!--entity abff--><g class="entity" data-qualified-name="abff" data-source-line="99" id="ent0002"><rect fill="#B0BEC5" height="52.9766" rx="2.5" ry="2.5" style="stroke:#78909C;stroke-width:0.5;" width="141.9463" x="191.03" y="44.4883"/><text fill="#000000" font-family="sans-serif" font-size="14" font-style="italic" lengthAdjust="spacing" textLength="36.292" x="243.8571" y="68.0234">&#171;ext&#187;</text><text fill="#000000" font-family="sans-serif" font-size="14" lengthAdjust="spacing" textLength="121.9463" x="201.03" y="84.5117">loyalty-admin-bff</text></g><!--entity redm--><g class="entity" data-qualified-name="redm" data-source-line="100" id="ent0003"><rect fill="#B0BEC5" height="52.9766" rx="2.5" ry="2.5" style="stroke:#78909C;stroke-width:0.5;" width="150.9834" x="360.51" y="44.4883"/><text fill="#000000" font-family="sans-serif" font-size="14" font-style="italic" lengthAdjust="spacing" textLength="36.292" x="417.8557" y="68.0234">&#171;ext&#187;</text><text fill="#000000" font-family="sans-serif" font-size="14" lengthAdjust="spacing" textLength="130.9834" x="370.51" y="84.5117">loyalty-redemption</text></g><!--entity msk--><g class="entity" data-qualified-name="msk" data-source-line="101" id="ent0004"><rect fill="#B0BEC5" height="52.9766" rx="2.5" ry="2.5" style="stroke:#78909C;stroke-width:0.5;" width="141.8301" x="939.08" y="835.8583"/><text fill="#000000" font-family="sans-serif" font-size="14" font-style="italic" lengthAdjust="spacing" textLength="36.292" x="991.849" y="859.3934">&#171;ext&#187;</text><text fill="#000000" font-family="sans-serif" font-size="14" lengthAdjust="spacing" textLength="121.8301" x="949.08" y="875.8817">Shared MSK Kafka</text></g><!--entity cron--><g class="entity" data-qualified-name="cron" data-source-line="103" id="ent0005"><rect fill="#00897B" height="85.9531" rx="2.5" ry="2.5" style="stroke:#00695C;stroke-width:0.5;" width="252.8867" x="938.56" y="245.9783"/><text fill="#FFFFFF" font-family="sans-serif" font-size="14" font-style="italic" lengthAdjust="spacing" textLength="54.2773" x="1037.8647" y="269.5134">&#171;sched&#187;</text><text fill="#FFFFFF" font-family="sans-serif" font-size="14" lengthAdjust="spacing" textLength="129.3496" x="1000.3286" y="286.0017">Spring @Scheduled</text><text fill="#FFFFFF" font-family="sans-serif" font-size="14" lengthAdjust="spacing" textLength="193.6826" x="968.1621" y="302.49">(in-pod, ShedLock-guarded)</text><text fill="#FFFFFF" font-family="sans-serif" font-size="14" lengthAdjust="spacing" textLength="232.8867" x="948.56" y="318.9783">polls drawing.draw_at every 1 min</text></g><g class="entity" data-qualified-name="GMN44" data-source-line="166" id="ent0045"><path d="M882.04,968.8383 L882.04,1070.7016 A0,0 0 0 0 882.04,1070.7016 L1137.9668,1070.7016 A0,0 0 0 0 1137.9668,1070.7016 L1137.9668,978.8383 L1127.9668,968.8383 L1014,968.8383 L1010,889.0083 L1006,968.8383 L882.04,968.8383 A0,0 0 0 0 882.04,968.8383" fill="#FEFFDD" style="stroke:#181818;stroke-width:0.5;"/><path d="M1127.9668,968.8383 L1127.9668,978.8383 L1137.9668,978.8383 L1127.9668,968.8383" fill="#FEFFDD" style="stroke:#181818;stroke-width:0.5;"/><text fill="#000000" font-family="sans-serif" font-size="13" lengthAdjust="spacing" textLength="188.8809" x="911.0629" y="986.4066">loyalty-redemption listens for</text><text fill="#000000" font-family="sans-serif" font-size="13" lengthAdjust="spacing" textLength="206.3877" x="902.3095" y="1001.7172">loyalty.campaign.WinnerSelected</text><text fill="#000000" font-family="sans-serif" font-size="13" lengthAdjust="spacing" textLength="180.7241" x="915.1413" y="1017.0277">and, if the prize is a Reward,</text><text fill="#000000" font-family="sans-serif" font-size="13" lengthAdjust="spacing" textLength="234.9268" x="888.04" y="1032.3383">issues a system-initiated redemption</text><text fill="#000000" font-family="sans-serif" font-size="13" lengthAdjust="spacing" textLength="155.6509" x="927.6779" y="1047.6488">via SweepstakesAdapter.</text><text fill="#000000" font-family="sans-serif" font-size="13" lengthAdjust="spacing" textLength="178.4771" x="916.2649" y="1062.9594">This is the T-13 touchpoint.</text></g><!--link mbff to api--><g class="link" data-entity-1="ent0001" data-entity-2="ent0008" data-link-type="dependency" data-source-line="138" id="lnk26"><path d="M95.57,97.6883 C99.94,114.2383 107.13,135.7083 118,152.4683 C146.95,197.1083 189.6634,234.3143 221.9934,259.1243" fill="none" id="mbff-to-api" style="stroke:#181818;stroke-width:1;"/><polygon fill="#181818" points="225.96,262.1683,221.2553,253.5158,221.9934,259.1243,216.3849,259.8624,225.96,262.1683" style="stroke:#181818;stroke-width:1;stroke-linejoin:miter;stroke-miterlimit:10;"/><text fill="#000000" font-family="sans-serif" font-size="13" lengthAdjust="spacing" textLength="135.6685" x="119" y="134.0366">list active campaigns,</text><text fill="#000000" font-family="sans-serif" font-size="13" lengthAdjust="spacing" textLength="120.9165" x="128.4326" y="149.3472">list active drawings</text></g><!--link abff to api--><g class="link" data-entity-1="ent0002" data-entity-2="ent0008" data-link-type="dependency" data-source-line="139" id="lnk27"><path d="M262,97.5983 C262,139.0583 262,215.3783 262,257.0283" fill="none" id="abff-to-api" style="stroke:#181818;stroke-width:1;"/><polygon fill="#181818" points="262,262.0283,266,253.0283,262,257.0283,258,253.0283,262,262.0283" style="stroke:#181818;stroke-width:1;stroke-linejoin:miter;stroke-miterlimit:10;"/><text fill="#000000" font-family="sans-serif" font-size="13" lengthAdjust="spacing" textLength="35.9595" x="263" y="141.5366">CRUD</text></g><!--link redm to api--><g class="link" data-entity-1="ent0003" data-entity-2="ent0008" data-link-type="dependency" data-source-line="140" id="lnk28"><path d="M415.36,97.5983 C381.96,139.0583 319.5766,216.4844 286.0266,258.1344" fill="none" id="redm-to-api" style="stroke:#181818;stroke-width:1;"/><polygon fill="#181818" points="282.89,262.0283,291.6509,257.5286,286.0266,258.1344,285.4208,252.5101,282.89,262.0283" style="stroke:#181818;stroke-width:1;stroke-linejoin:miter;stroke-miterlimit:10;"/><text fill="#000000" font-family="sans-serif" font-size="13" lengthAdjust="spacing" textLength="222.8091" x="394.95" y="141.5366">Drawing.recordEntry()  (T-13 entry)</text></g><!--link api to camp--><g class="link" data-entity-1="ent0008" data-entity-2="ent0010" data-link-type="dependency" data-source-line="143" id="lnk29"><path d="M247.99,315.7183 C241.95,327.4583 235.11,341.6683 230,354.9283 C183.97,474.3183 149.1961,618.6222 135.7961,677.6922" fill="none" id="api-to-camp" style="stroke:#181818;stroke-width:1;"/><polygon fill="#181818" points="134.69,682.5683,140.5819,674.6762,135.7961,677.6922,132.7802,672.9064,134.69,682.5683" style="stroke:#181818;stroke-width:1;stroke-linejoin:miter;stroke-miterlimit:10;"/></g><!--link api to draw--><g class="link" data-entity-1="ent0008" data-entity-2="ent0012" data-link-type="dependency" data-source-line="144" id="lnk30"><path d="M255.52,315.8383 C247.55,352.3483 236.91,420.6683 253,475.9083 C277.42,559.7383 338.9568,638.4173 374.1568,678.8473" fill="none" id="api-to-draw" style="stroke:#181818;stroke-width:1;"/><polygon fill="#181818" points="377.44,682.6183,374.5471,673.2039,374.1568,678.8473,368.5134,678.457,377.44,682.6183" style="stroke:#181818;stroke-width:1;stroke-linejoin:miter;stroke-miterlimit:10;"/></g><!--link api to entry--><g class="link" data-entity-1="ent0008" data-entity-2="ent0013" data-link-type="dependency" data-source-line="145" id="lnk31"><path d="M272.1,315.7683 C283.63,345.2283 300.5596,388.4914 312.0796,417.9614" fill="none" id="api-to-entry" style="stroke:#181818;stroke-width:1;"/><polygon fill="#181818" points="313.9,422.6183,314.3488,412.7797,312.0796,417.9614,306.8978,415.6923,313.9,422.6183" style="stroke:#181818;stroke-width:1;stroke-linejoin:miter;stroke-miterlimit:10;"/></g><!--link api to audit--><g class="link" data-entity-1="ent0008" data-entity-2="ent0017" data-link-type="dependency" data-source-line="146" id="lnk32"><path d="M321.89,297.4683 C387.06,307.8183 492.32,331.0483 570,379.9283 C688.79,454.6783 707.13,495.5483 781,614.8783 C794.23,636.2583 802.7466,658.3992 809.0166,677.8592" fill="none" id="api-to-audit" style="stroke:#181818;stroke-width:1;"/><polygon fill="#181818" points="810.55,682.6183,811.5972,672.8253,809.0166,677.8592,803.9827,675.2786,810.55,682.6183" style="stroke:#181818;stroke-width:1;stroke-linejoin:miter;stroke-miterlimit:10;"/></g><!--link cron to sched--><g class="link" data-entity-1="ent0005" data-entity-2="ent0014" data-link-type="dependency" data-source-line="148" id="lnk33"><path d="M938.14,324.4383 C821.23,356.2083 656.5949,400.9568 560.5349,427.0668" fill="none" id="cron-to-sched" style="stroke:#181818;stroke-width:1;"/><polygon fill="#181818" points="555.71,428.3783,565.4441,429.8776,560.5349,427.0668,563.3457,422.1577,555.71,428.3783" style="stroke:#181818;stroke-width:1;stroke-linejoin:miter;stroke-miterlimit:10;"/><text fill="#000000" font-family="sans-serif" font-size="13" lengthAdjust="spacing" textLength="162.1763" x="826.72" y="368.4966">trigger at draw close time</text></g><!--link sched to winner--><g class="link" data-entity-1="ent0014" data-entity-2="ent0015" data-link-type="dependency" data-source-line="149" id="lnk34"><path d="M473.83,476.2783 C467.94,494.9283 461.5257,515.2404 455.6457,533.8604" fill="none" id="sched-to-winner" style="stroke:#181818;stroke-width:1;"/><polygon fill="#181818" points="454.14,538.6283,460.6645,531.2506,455.6457,533.8604,453.0359,528.8415,454.14,538.6283" style="stroke:#181818;stroke-width:1;stroke-linejoin:miter;stroke-miterlimit:10;"/><text fill="#000000" font-family="sans-serif" font-size="13" lengthAdjust="spacing" textLength="150.979" x="467.16" y="512.4766">selectWinner(drawingId)</text></g><!--link winner to draw--><g class="link" data-entity-1="ent0015" data-entity-2="ent0012" data-link-type="dependency" data-source-line="150" id="lnk35"><path d="M408.69,592.1583 C401.91,598.7183 395.8,606.3683 392,614.8783 C382.44,636.3283 385.1481,658.409 390.5181,677.839" fill="none" id="winner-to-draw" style="stroke:#181818;stroke-width:1;"/><polygon fill="#181818" points="391.85,682.6583,393.308,672.9179,390.5181,677.839,385.597,675.0491,391.85,682.6583" style="stroke:#181818;stroke-width:1;stroke-linejoin:miter;stroke-miterlimit:10;"/><text fill="#000000" font-family="sans-serif" font-size="13" lengthAdjust="spacing" textLength="147.3101" x="393" y="628.4466">closeDrawing(winnerId)</text></g><!--link winner to relay--><g class="link" data-entity-1="ent0015" data-entity-2="ent0018" data-link-type="dependency" data-source-line="151" id="lnk36"><path d="M512.45,591.6983 C527.52,598.4483 543.16,606.2783 557,614.8783 C588.46,634.4283 616.7502,658.9202 638.2402,679.1602" fill="none" id="winner-to-relay" style="stroke:#181818;stroke-width:1;"/><polygon fill="#181818" points="641.88,682.5883,638.0708,673.5059,638.2402,679.1602,632.5859,679.3296,641.88,682.5883" style="stroke:#181818;stroke-width:1;stroke-linejoin:miter;stroke-miterlimit:10;"/><text fill="#000000" font-family="sans-serif" font-size="13" lengthAdjust="spacing" textLength="192.2832" x="580.94" y="628.4466">enqueueEvent(WinnerSelected)</text></g><!--link camp to t_camp--><g class="link" data-entity-1="ent0010" data-entity-2="ent0020" data-link-type="dependency" data-source-line="154" id="lnk37"><path d="M135.7,736.3283 C142.87,764.0583 152.9087,802.9374 160.0687,830.6374" fill="none" id="camp-to-t_camp" style="stroke:#181818;stroke-width:1;"/><polygon fill="#181818" points="161.32,835.4783,162.9404,825.7636,160.0687,830.6374,155.195,827.7657,161.32,835.4783" style="stroke:#181818;stroke-width:1;stroke-linejoin:miter;stroke-miterlimit:10;"/></g><!--link draw to t_draw--><g class="link" data-entity-1="ent0012" data-entity-2="ent0021" data-link-type="dependency" data-source-line="155" id="lnk38"><path d="M404.27,736.3283 C407.76,764.0583 412.6367,802.8173 416.1167,830.5173" fill="none" id="draw-to-t_draw" style="stroke:#181818;stroke-width:1;"/><polygon fill="#181818" points="416.74,835.4783,419.5869,826.0499,416.1167,830.5173,411.6493,827.0471,416.74,835.4783" style="stroke:#181818;stroke-width:1;stroke-linejoin:miter;stroke-miterlimit:10;"/></g><!--link entry to t_entry--><g class="link" data-entity-1="ent0013" data-entity-2="ent0022" data-link-type="dependency" data-source-line="156" id="lnk39"><path d="M322.31,476.1183 C317.47,549.8283 303.8975,756.369 299.0375,830.399" fill="none" id="entry-to-t_entry" style="stroke:#181818;stroke-width:1;"/><polygon fill="#181818" points="298.71,835.3883,303.291,826.6696,299.0375,830.399,295.3082,826.1456,298.71,835.3883" style="stroke:#181818;stroke-width:1;stroke-linejoin:miter;stroke-miterlimit:10;"/></g><!--link winner to t_winner--><g class="link" data-entity-1="ent0015" data-entity-2="ent0023" data-link-type="dependency" data-source-line="157" id="lnk40"><path d="M512.43,586.6983 C524.97,593.6183 536.49,602.7883 544,614.8783 C587.22,684.4983 567.1471,783.0688 553.5971,830.7388" fill="none" id="winner-to-t_winner" style="stroke:#181818;stroke-width:1;"/><polygon fill="#181818" points="552.23,835.5483,558.5383,827.9849,553.5971,830.7388,550.8432,825.7976,552.23,835.5483" style="stroke:#181818;stroke-width:1;stroke-linejoin:miter;stroke-miterlimit:10;"/></g><!--link audit to t_audit--><g class="link" data-entity-1="ent0017" data-entity-2="ent0024" data-link-type="dependency" data-source-line="158" id="lnk41"><path d="M815.77,736.3283 C813.38,764.0583 810.038,802.7966 807.658,830.4966" fill="none" id="audit-to-t_audit" style="stroke:#181818;stroke-width:1;"/><polygon fill="#181818" points="807.23,835.4783,811.9858,826.8537,807.658,830.4966,804.0151,826.1689,807.23,835.4783" style="stroke:#181818;stroke-width:1;stroke-linejoin:miter;stroke-miterlimit:10;"/></g><!--link relay to t_outbox--><g class="link" data-entity-1="ent0018" data-entity-2="ent0025" data-link-type="dependency" data-source-line="159" id="lnk42"><path d="M667.48,736.3283 C666.93,764.0583 666.1593,802.7793 665.6093,830.4793" fill="none" id="relay-to-t_outbox" style="stroke:#181818;stroke-width:1;"/><polygon fill="#181818" points="665.51,835.4783,669.6879,826.5595,665.6093,830.4793,661.6895,826.4006,665.51,835.4783" style="stroke:#181818;stroke-width:1;stroke-linejoin:miter;stroke-miterlimit:10;"/></g><!--link relay to msk--><g class="link" data-entity-1="ent0018" data-entity-2="ent0004" data-link-type="dependency" data-source-line="162" id="lnk43"><path d="M699.24,736.2283 C711.07,744.8883 725.06,753.8583 739,759.8583 C805.29,788.4083 830.89,766.3083 898,792.8583 C925.34,803.6783 949.4396,818.1606 970.7096,832.6706" fill="none" id="relay-to-msk" style="stroke:#181818;stroke-width:1;"/><polygon fill="#181818" points="974.84,835.4883,969.6594,827.1121,970.7096,832.6706,965.151,833.7208,974.84,835.4883" style="stroke:#181818;stroke-width:1;stroke-linejoin:miter;stroke-miterlimit:10;"/><text fill="#000000" font-family="sans-serif" font-size="13" lengthAdjust="spacing" textLength="116.8857" x="873.03" y="781.4266">loyalty.campaign.*</text></g><?plantuml-src XLRRRkCs47tNLmoSXzf1R3YRY-DY4JJDfa2mALh4BlObW469b4nO8bMISk9TBD2dVa3HBzmlwP2KRDtSbGC76fwPCtVQS9CokB-49xPbALp0jx_-XLJkI6fsuuXaEU69SCA58OP7i9IvJ6Mo2mAzuI8dYcIWruJALouIY4cgMUs4ifWKgLcoDtENegMC2GCHVZ5LGmb9cMOvlBkf2HKH6okylAfJAHOP8XBq-Ki0-2XP27elbM3g_NkzZMvluV2ycphCpr9HfXPcbx8kXXAzPjJZIBH9IeEfRDaxYQVnB8vh1dj03ZWDBszkBeD-av7CSYam0QXJ8Itm5obC3wJYTa-NkmqzcSukhg_FZt3h22FT8wStyrdOvgv3liFTXgB5w_bLT8IR4aCgyCaLdP7vlCrTXto7kmqzkQ1NbxFf4MvilaCgmsd8egisTnso3yS-NUusz6HsCv_Ee-1hlKrpz84aLPEsFCAuYFsqRNjpSsO_UmTTsvPKt92KEwOVuE4DPqYG50JZoJgKXTB1OJW6rGXdCkGf6uTnF02ed2SQCfJquGdDk2ZXTJmvWbUCiYmtN8gcVPHdTVnYJL04lou-maSIRuWrt_17Ru86FbTsd_oqi5rMf8o-Y24wbajw1WiKFSbeCquAWicZenU1EodLG1MnMsXY_w-80LnfQWVdW24DuD2nI1SfAHfyfwVjfNTwwdJST7-ndLNLTF0eGblBGRM23bQU7nPBkFlz4Px8Zgd1eKcQeshpcNDK_jgmUr-jstkiEsQcXs0FkKiInH9YsE08WGsZm_319-X_22f4stwNm2QvhVqW32PymTIMHwmMVbURMUGnyghewYYvAsLR_HCNU0qWVOeotv57r5yTibi09RKUHuKnw4LFSkuAoWqyoGG-AMvg1UwMroBRwhyL9fHlyCnIigidfwkkBAHRFTnwiEGOuh1pGpz_M8nwFAxEMtJb_aGcioeRfQ5M3b93gwNML_vIRUMAE-XLwwsxBySA9RWC-_Ns5UiDR-NolSBV9OEsOcybfAj4CxoMdeUu6hXzMmvzO1SdZCUtTeAjre-GScs0OCTj6LGEwRCNqJWeKwC3qj6_V_xZGs3tPLDS3iF4PyLDrd04C5oEpo_y-8oiNtRRVFlx7zXt459O4zQMA-t-pLLi_-OBiN_rQGhiNdJlRi2i6qRn9C6MmtLg3K2KIit0y0n_vZcCHVlg85gxsVE3E2nZVgIZe0HKRbZ3pb0PvD2Vjv1k2X39n9y5AzZ35dqUUjj-nd7rsnGiIOX5bQyerskU1pPiy66LxUqvIudBWmk_alXSr9Zt_URIKi5yZhnNfQZi4dJ23RTj47zkZ_5EApl4J-kawex9gNFR5XAlkSyCraHGYNqnP3R6CLNOCc8K26aOXD8OcO6CtHq9qBrvNQCneI6MwW0ui3LJXWXaEmCUWrcpqW6EAmiNqolUfsS8u5eNp8hq3YrdOowuuNWPK3Ym8cpB2InU6Skr8HkcxoZ9SIjEy6IvHeluPnbSd4OMqJgNN9W9vfw23Itu3m00?></g></svg>