<svg xmlns="http://www.w3.org/2000/svg" xmlns:xlink="http://www.w3.org/1999/xlink" contentStyleType="text/css" data-diagram-type="SEQUENCE" height="1235px" preserveAspectRatio="none" style="width:1491px;height:1235px;background:#FFFFFF;" version="1.1" viewBox="0 0 1491 1235" width="1491px" zoomAndPan="magnify"><?plantuml 1.2026.4?><defs/><g><g class="title" data-source-line="255"><text fill="#000000" font-family="sans-serif" font-size="14" font-weight="700" lengthAdjust="spacing" textLength="536.0537" x="474.2571" y="28.5352">C4 Level 3 &#8212; loyalty-campaign &#8212; Winner Selection &amp; T-13 prize hand-off</text></g><g><title>Winner Selection</title><rect fill="#FFFFFF" height="665.6504" style="stroke:#181818;stroke-width:1;" width="10" x="491.3149" y="198.5742"/></g><rect fill="none" height="496.4766" style="stroke:#000000;stroke-width:1.5;" width="530.8628" x="423.1714" y="360.748"/><g class="participant-lifeline" data-entity-uid="part1" data-qualified-name="cron" data-source-line="257" id="part1-lifeline"><g><title>Spring .Scheduled</title><rect fill="#000000" fill-opacity="0.00000" height="995.998" width="8" x="88.8145" y="137.9531"/><line style="stroke:#181818;stroke-width:0.5;stroke-dasharray:5,5;" x1="92" x2="92" y1="137.9531" y2="1133.9512"/></g></g><g class="participant-lifeline" data-entity-uid="part2" data-qualified-name="sched" data-source-line="258" id="part2-lifeline"><g><title>Drawing Scheduler</title><rect fill="#000000" fill-opacity="0.00000" height="995.998" width="8" x="317.3359" y="137.9531"/><line style="stroke:#181818;stroke-width:0.5;stroke-dasharray:5,5;" x1="320.8848" x2="320.8848" y1="137.9531" y2="1133.9512"/></g></g><g class="participant-lifeline" data-entity-uid="part3" data-qualified-name="winner" data-source-line="259" id="part3-lifeline"><g><title>Winner Selection</title><rect fill="#000000" fill-opacity="0.00000" height="995.998" width="8" x="492.3149" y="137.9531"/><line style="stroke:#181818;stroke-width:0.5;stroke-dasharray:5,5;" x1="496.1714" x2="496.1714" y1="137.9531" y2="1133.9512"/></g></g><g class="participant-lifeline" data-entity-uid="part4" data-qualified-name="db" data-source-line="260" id="part4-lifeline"><g><title>drawing</title><rect fill="#000000" fill-opacity="0.00000" height="995.998" width="8" x="755.1563" y="137.9531"/><line style="stroke:#181818;stroke-width:0.5;stroke-dasharray:5,5;" x1="758.8672" x2="758.8672" y1="137.9531" y2="1133.9512"/></g></g><g class="participant-lifeline" data-entity-uid="part5" data-qualified-name="relay" data-source-line="261" id="part5-lifeline"><g><title>Outbox Relay</title><rect fill="#000000" fill-opacity="0.00000" height="995.998" width="8" x="868.9316" y="137.9531"/><line style="stroke:#181818;stroke-width:0.5;stroke-dasharray:5,5;" x1="872.4453" x2="872.4453" y1="137.9531" y2="1133.9512"/></g></g><g class="participant-lifeline" data-entity-uid="part6" data-qualified-name="msk" data-source-line="262" id="part6-lifeline"><g><title>loyalty.campaign..</title><rect fill="#000000" fill-opacity="0.00000" height="995.998" width="8" x="1099.3193" y="137.9531"/><line style="stroke:#181818;stroke-width:0.5;stroke-dasharray:5,5;" x1="1102.3809" x2="1102.3809" y1="137.9531" y2="1133.9512"/></g></g><g class="participant-lifeline" data-entity-uid="part7" data-qualified-name="redm" data-source-line="263" id="part7-lifeline"><g><title>loyalty-redemption</title><rect fill="#000000" fill-opacity="0.00000" height="995.998" width="8" x="1254.7495" y="137.9531"/><line style="stroke:#181818;stroke-width:0.5;stroke-dasharray:5,5;" x1="1258.2578" x2="1258.2578" y1="137.9531" y2="1133.9512"/></g></g><g class="participant participant-head" data-entity-uid="part1" data-qualified-name="cron" data-source-line="257" id="part1-head"><rect fill="#E2E2F0" height="46.9766" rx="2.5" ry="2.5" style="stroke:#181818;stroke-width:0.5;" width="175.6289" x="5" y="89.9766"/><text fill="#000000" font-family="sans-serif" font-size="14" lengthAdjust="spacing" textLength="129.3496" x="28.1396" y="110.5117">Spring @Scheduled</text><text fill="#000000" font-family="sans-serif" font-size="14" lengthAdjust="spacing" textLength="161.6289" x="12" y="127">(every 1 min, ShedLock)</text></g><g class="participant participant-tail" data-entity-uid="part1" data-qualified-name="cron" data-source-line="257" id="part1-tail"><rect fill="#E2E2F0" height="46.9766" rx="2.5" ry="2.5" style="stroke:#181818;stroke-width:0.5;" width="175.6289" x="5" y="1132.9512"/><text fill="#000000" font-family="sans-serif" font-size="14" lengthAdjust="spacing" textLength="129.3496" x="28.1396" y="1153.4863">Spring @Scheduled</text><text fill="#000000" font-family="sans-serif" font-size="14" lengthAdjust="spacing" textLength="161.6289" x="12" y="1169.9746">(every 1 min, ShedLock)</text></g><g class="participant participant-head" data-entity-uid="part2" data-qualified-name="sched" data-source-line="258" id="part2-head"><rect fill="#E2E2F0" height="30.4883" rx="2.5" ry="2.5" style="stroke:#181818;stroke-width:0.5;" width="140.9023" x="250.8848" y="106.4648"/><text fill="#000000" font-family="sans-serif" font-size="14" lengthAdjust="spacing" textLength="126.9023" x="257.8848" y="127">Drawing Scheduler</text></g><g class="participant participant-tail" data-entity-uid="part2" data-qualified-name="sched" data-source-line="258" id="part2-tail"><rect fill="#E2E2F0" height="30.4883" rx="2.5" ry="2.5" style="stroke:#181818;stroke-width:0.5;" width="140.9023" x="250.8848" y="1132.9512"/><text fill="#000000" font-family="sans-serif" font-size="14" lengthAdjust="spacing" textLength="126.9023" x="257.8848" y="1153.4863">Drawing Scheduler</text></g><g class="participant participant-head" data-entity-uid="part3" data-qualified-name="winner" data-source-line="259" id="part3-head"><rect fill="#E2E2F0" height="30.4883" rx="2.5" ry="2.5" style="stroke:#181818;stroke-width:0.5;" width="126.2871" x="433.1714" y="106.4648"/><text fill="#000000" font-family="sans-serif" font-size="14" lengthAdjust="spacing" textLength="112.2871" x="440.1714" y="127">Winner Selection</text></g><g class="participant participant-tail" data-entity-uid="part3" data-qualified-name="winner" data-source-line="259" id="part3-tail"><rect fill="#E2E2F0" height="30.4883" rx="2.5" ry="2.5" style="stroke:#181818;stroke-width:0.5;" width="126.2871" x="433.1714" y="1132.9512"/><text fill="#000000" font-family="sans-serif" font-size="14" lengthAdjust="spacing" textLength="112.2871" x="440.1714" y="1153.4863">Winner Selection</text></g><g class="participant participant-head" data-entity-uid="part4" data-qualified-name="db" data-source-line="260" id="part4-head"><text fill="#000000" font-family="sans-serif" font-size="14" lengthAdjust="spacing" textLength="54.5234" x="728.8945" y="102.0234">drawing</text><text fill="#000000" font-family="sans-serif" font-size="14" lengthAdjust="spacing" textLength="96.291" x="708.0107" y="118.5117">drawing_entry</text><text fill="#000000" font-family="sans-serif" font-size="14" lengthAdjust="spacing" textLength="96.5781" x="707.8672" y="135">winner_record</text><path d="M741.1563,52.4883 C741.1563,42.4883 759.1563,42.4883 759.1563,42.4883 C759.1563,42.4883 777.1563,42.4883 777.1563,52.4883 L777.1563,78.4883 C777.1563,88.4883 759.1563,88.4883 759.1563,88.4883 C759.1563,88.4883 741.1563,88.4883 741.1563,78.4883 L741.1563,52.4883" fill="#E2E2F0" style="stroke:#181818;stroke-width:0.5;"/><path d="M741.1563,52.4883 C741.1563,62.4883 759.1563,62.4883 759.1563,62.4883 C759.1563,62.4883 777.1563,62.4883 777.1563,52.4883" fill="none" style="stroke:#181818;stroke-width:0.5;"/></g><g class="participant participant-tail" data-entity-uid="part4" data-qualified-name="db" data-source-line="260" id="part4-tail"><text fill="#000000" font-family="sans-serif" font-size="14" lengthAdjust="spacing" textLength="54.5234" x="728.8945" y="1146.4863">drawing</text><text fill="#000000" font-family="sans-serif" font-size="14" lengthAdjust="spacing" textLength="96.291" x="708.0107" y="1162.9746">drawing_entry</text><text fill="#000000" font-family="sans-serif" font-size="14" lengthAdjust="spacing" textLength="96.5781" x="707.8672" y="1179.4629">winner_record</text><path d="M741.1563,1192.416 C741.1563,1182.416 759.1563,1182.416 759.1563,1182.416 C759.1563,1182.416 777.1563,1182.416 777.1563,1192.416 L777.1563,1218.416 C777.1563,1228.416 759.1563,1228.416 759.1563,1228.416 C759.1563,1228.416 741.1563,1228.416 741.1563,1218.416 L741.1563,1192.416" fill="#E2E2F0" style="stroke:#181818;stroke-width:0.5;"/><path d="M741.1563,1192.416 C741.1563,1202.416 759.1563,1202.416 759.1563,1202.416 C759.1563,1202.416 777.1563,1202.416 777.1563,1192.416" fill="none" style="stroke:#181818;stroke-width:0.5;"/></g><g class="participant participant-head" data-entity-uid="part5" data-qualified-name="relay" data-source-line="261" id="part5-head"><rect fill="#E2E2F0" height="30.4883" rx="2.5" ry="2.5" style="stroke:#181818;stroke-width:0.5;" width="104.9727" x="820.4453" y="106.4648"/><text fill="#000000" font-family="sans-serif" font-size="14" lengthAdjust="spacing" textLength="90.9727" x="827.4453" y="127">Outbox Relay</text></g><g class="participant participant-tail" data-entity-uid="part5" data-qualified-name="relay" data-source-line="261" id="part5-tail"><rect fill="#E2E2F0" height="30.4883" rx="2.5" ry="2.5" style="stroke:#181818;stroke-width:0.5;" width="104.9727" x="820.4453" y="1132.9512"/><text fill="#000000" font-family="sans-serif" font-size="14" lengthAdjust="spacing" textLength="90.9727" x="827.4453" y="1153.4863">Outbox Relay</text></g><g class="participant participant-head" data-entity-uid="part6" data-qualified-name="msk" data-source-line="262" id="part6-head"><path d="M1035.3809,111.4648 L1171.2578,111.4648 C1176.2578,111.4648 1176.2578,124.709 1176.2578,124.709 C1176.2578,124.709 1176.2578,137.9531 1171.2578,137.9531 L1035.3809,137.9531 C1030.3809,137.9531 1030.3809,124.709 1030.3809,124.709 C1030.3809,124.709 1030.3809,111.4648 1035.3809,111.4648" fill="#E2E2F0" style="stroke:#181818;stroke-width:0.5;"/><path d="M1171.2578,111.4648 C1166.2578,111.4648 1166.2578,124.709 1166.2578,124.709 C1166.2578,137.9531 1171.2578,137.9531 1171.2578,137.9531" fill="none" style="stroke:#181818;stroke-width:0.5;"/><text fill="#000000" font-family="sans-serif" font-size="14" lengthAdjust="spacing" textLength="125.877" x="1035.3809" y="130">loyalty.campaign.*</text></g><g class="participant participant-tail" data-entity-uid="part6" data-qualified-name="msk" data-source-line="262" id="part6-tail"><path d="M1035.3809,1132.9512 L1171.2578,1132.9512 C1176.2578,1132.9512 1176.2578,1146.1953 1176.2578,1146.1953 C1176.2578,1146.1953 1176.2578,1159.4395 1171.2578,1159.4395 L1035.3809,1159.4395 C1030.3809,1159.4395 1030.3809,1146.1953 1030.3809,1146.1953 C1030.3809,1146.1953 1030.3809,1132.9512 1035.3809,1132.9512" fill="#E2E2F0" style="stroke:#181818;stroke-width:0.5;"/><path d="M1171.2578,1132.9512 C1166.2578,1132.9512 1166.2578,1146.1953 1166.2578,1146.1953 C1166.2578,1159.4395 1171.2578,1159.4395 1171.2578,1159.4395" fill="none" style="stroke:#181818;stroke-width:0.5;"/><text fill="#000000" font-family="sans-serif" font-size="14" lengthAdjust="spacing" textLength="125.877" x="1035.3809" y="1151.4863">loyalty.campaign.*</text></g><g class="participant participant-head" data-entity-uid="part7" data-qualified-name="redm" data-source-line="263" id="part7-head"><rect fill="#E2E2F0" height="30.4883" rx="2.5" ry="2.5" style="stroke:#181818;stroke-width:0.5;" width="144.9834" x="1186.2578" y="106.4648"/><text fill="#000000" font-family="sans-serif" font-size="14" lengthAdjust="spacing" textLength="130.9834" x="1193.2578" y="127">loyalty-redemption</text></g><g class="participant participant-tail" data-entity-uid="part7" data-qualified-name="redm" data-source-line="263" id="part7-tail"><rect fill="#E2E2F0" height="30.4883" rx="2.5" ry="2.5" style="stroke:#181818;stroke-width:0.5;" width="144.9834" x="1186.2578" y="1132.9512"/><text fill="#000000" font-family="sans-serif" font-size="14" lengthAdjust="spacing" textLength="130.9834" x="1193.2578" y="1153.4863">loyalty-redemption</text></g><g><title>Winner Selection</title><rect fill="#FFFFFF" height="665.6504" style="stroke:#181818;stroke-width:1;" width="10" x="491.3149" y="198.5742"/></g><g class="message" data-entity-1="part1" data-entity-2="part2" data-source-line="265" id="msg1"><polygon fill="#181818" points="309.3359,165.2637,319.3359,169.2637,309.3359,173.2637,313.3359,169.2637" style="stroke:#181818;stroke-width:1;stroke-linejoin:miter;stroke-miterlimit:10;"/><line style="stroke:#181818;stroke-width:1;" x1="92.8145" x2="315.3359" y1="169.2637" y2="169.2637"/><text fill="#000000" font-family="sans-serif" font-size="13" lengthAdjust="spacing" textLength="204.5215" x="99.8145" y="164.5215">trigger(drawingId, scheduled_at)</text></g><g class="message" data-entity-1="part2" data-entity-2="part3" data-source-line="266" id="msg2"><polygon fill="#181818" points="479.3149,194.5742,489.3149,198.5742,479.3149,202.5742,483.3149,198.5742" style="stroke:#181818;stroke-width:1;stroke-linejoin:miter;stroke-miterlimit:10;"/><line style="stroke:#181818;stroke-width:1;" x1="321.3359" x2="485.3149" y1="198.5742" y2="198.5742"/><text fill="#000000" font-family="sans-serif" font-size="13" lengthAdjust="spacing" textLength="150.979" x="328.3359" y="193.832">selectWinner(drawingId)</text></g><g class="message" data-entity-1="part3" data-entity-2="part4" data-source-line="269" id="msg3"><polygon fill="#181818" points="747.1563,265.1611,757.1563,269.1611,747.1563,273.1611,751.1563,269.1611" style="stroke:#181818;stroke-width:1;stroke-linejoin:miter;stroke-miterlimit:10;"/><line style="stroke:#181818;stroke-width:1;" x1="501.3149" x2="753.1563" y1="269.1611" y2="269.1611"/><text fill="#000000" font-family="sans-serif" font-size="13" lengthAdjust="spacing" textLength="157.6948" x="508.3149" y="233.7979">SELECT &#8230; FROM drawing</text><text fill="#000000" font-family="sans-serif" font-size="13" lengthAdjust="spacing" textLength="204.458" x="508.3149" y="249.1084">WHERE id=:id AND status=OPEN</text><text fill="#000000" font-family="sans-serif" font-size="13" lengthAdjust="spacing" textLength="79.5679" x="508.3149" y="264.4189">FOR UPDATE</text></g><path d="M764,211.5742 L764,282.5742 L1035,282.5742 L1035,221.5742 L1025,211.5742 L764,211.5742" fill="#FEFFDD" style="stroke:#181818;stroke-width:0.5;"/><path d="M1025,211.5742 L1025,221.5742 L1035,221.5742 L1025,211.5742" fill="#FEFFDD" style="stroke:#181818;stroke-width:0.5;"/><text fill="#000000" font-family="sans-serif" font-size="13" lengthAdjust="spacing" textLength="174.5923" x="770" y="229.1426">Pessimistic lock &#8212; only one</text><text fill="#000000" font-family="sans-serif" font-size="13" lengthAdjust="spacing" textLength="177.8105" x="770" y="244.4531">pod may select a winner per</text><text fill="#000000" font-family="sans-serif" font-size="13" lengthAdjust="spacing" textLength="170.1743" x="770" y="259.7637">drawing. Defensive against</text><text fill="#000000" font-family="sans-serif" font-size="13" lengthAdjust="spacing" textLength="250.6753" x="770" y="275.0742">duplicated fires from drift / clock skew.</text><g class="message" data-entity-1="part3" data-entity-2="part4" data-source-line="277" id="msg5"><polygon fill="#181818" points="747.1563,331.0928,757.1563,335.0928,747.1563,339.0928,751.1563,335.0928" style="stroke:#181818;stroke-width:1;stroke-linejoin:miter;stroke-miterlimit:10;"/><line style="stroke:#181818;stroke-width:1;" x1="501.3149" x2="753.1563" y1="335.0928" y2="335.0928"/><text fill="#000000" font-family="sans-serif" font-size="13" lengthAdjust="spacing" textLength="233.8413" x="508.3149" y="315.04">SELECT count(*) FROM drawing_entry</text><text fill="#000000" font-family="sans-serif" font-size="13" lengthAdjust="spacing" textLength="142.5557" x="508.3149" y="330.3506">WHERE drawing_id=:id</text></g><path d="M764,292.8164 L764,347.8164 L938,347.8164 L938,302.8164 L928,292.8164 L764,292.8164" fill="#FEFFDD" style="stroke:#181818;stroke-width:0.5;"/><path d="M928,292.8164 L928,302.8164 L938,302.8164 L928,292.8164" fill="#FEFFDD" style="stroke:#181818;stroke-width:0.5;"/><text fill="#000000" font-family="sans-serif" font-size="13" lengthAdjust="spacing" textLength="108.1577" x="770" y="310.3848">N = total entries.</text><text fill="#000000" font-family="sans-serif" font-size="13" lengthAdjust="spacing" textLength="128.7749" x="770" y="325.6953">If N=0 &#8594; no winner;</text><text fill="#000000" font-family="sans-serif" font-size="13" lengthAdjust="spacing" textLength="153.4229" x="770" y="341.0059">Drawing closes as VOID.</text><path d="M423.1714,360.748 L485.3101,360.748 L485.3101,368.0586 L475.3101,378.0586 L423.1714,378.0586 L423.1714,360.748" fill="#EEEEEE" style="stroke:#000000;stroke-width:1.5;"/><rect fill="none" height="496.4766" style="stroke:#000000;stroke-width:1.5;" width="530.8628" x="423.1714" y="360.748"/><text fill="#000000" font-family="sans-serif" font-size="13" font-weight="700" lengthAdjust="spacing" textLength="17.1387" x="438.1714" y="374.3164">alt</text><text fill="#000000" font-family="sans-serif" font-size="11" font-weight="700" lengthAdjust="spacing" textLength="39.8643" x="500.3101" y="373.3828">[N &gt; 0]</text><g class="message" data-entity-1="part3" data-entity-2="part3" data-source-line="285" id="msg7"><line style="stroke:#181818;stroke-width:1;" x1="501.3149" x2="543.3149" y1="399.3691" y2="399.3691"/><line style="stroke:#181818;stroke-width:1;" x1="543.3149" x2="543.3149" y1="399.3691" y2="412.3691"/><line style="stroke:#181818;stroke-width:1;" x1="502.3149" x2="543.3149" y1="412.3691" y2="412.3691"/><polygon fill="#181818" points="512.3149,408.3691,502.3149,412.3691,512.3149,416.3691,508.3149,412.3691" style="stroke:#181818;stroke-width:1;stroke-linejoin:miter;stroke-miterlimit:10;"/><text fill="#000000" font-family="sans-serif" font-size="13" lengthAdjust="spacing" textLength="168.5366" x="508.3149" y="394.627">K = min(winners_count, N)</text></g><g class="message" data-entity-1="part3" data-entity-2="part3" data-source-line="286" id="msg8"><line style="stroke:#181818;stroke-width:1;" x1="501.3149" x2="543.3149" y1="484.1113" y2="484.1113"/><line style="stroke:#181818;stroke-width:1;" x1="543.3149" x2="543.3149" y1="484.1113" y2="497.1113"/><line style="stroke:#181818;stroke-width:1;" x1="502.3149" x2="543.3149" y1="497.1113" y2="497.1113"/><polygon fill="#181818" points="512.3149,493.1113,502.3149,497.1113,512.3149,501.1113,508.3149,497.1113" style="stroke:#181818;stroke-width:1;stroke-linejoin:miter;stroke-miterlimit:10;"/><text fill="#000000" font-family="sans-serif" font-size="13" lengthAdjust="spacing" textLength="98.6172" x="508.3149" y="448.748">seed = sha256(</text><text fill="#000000" font-family="sans-serif" font-size="13" lengthAdjust="spacing" textLength="143.5586" x="516.5415" y="464.0586">drawingId || draw_at ||</text><text fill="#000000" font-family="sans-serif" font-size="13" lengthAdjust="spacing" textLength="87.3945" x="516.5415" y="479.3691">HMAC_secret)</text></g><path d="M681.7852,425.3691 L681.7852,511.3691 L932.7852,511.3691 L932.7852,435.3691 L922.7852,425.3691 L681.7852,425.3691" fill="#FEFFDD" style="stroke:#181818;stroke-width:0.5;"/><path d="M922.7852,425.3691 L922.7852,435.3691 L932.7852,435.3691 L922.7852,425.3691" fill="#FEFFDD" style="stroke:#181818;stroke-width:0.5;"/><text fill="#000000" font-family="sans-serif" font-size="13" lengthAdjust="spacing" textLength="230.9341" x="687.7852" y="442.9375">SEEDED_RNG/WEIGHTED replay from</text><text fill="#000000" font-family="sans-serif" font-size="13" lengthAdjust="spacing" textLength="189.7378" x="687.7852" y="458.248">seed + immutable entry order</text><text fill="#000000" font-family="sans-serif" font-size="13" lengthAdjust="spacing" textLength="207.708" x="687.7852" y="473.5586">(+ frozen weights). FIRST_N uses</text><text fill="#000000" font-family="sans-serif" font-size="13" lengthAdjust="spacing" textLength="150.687" x="687.7852" y="488.8691">entry_id order, no seed.</text><text fill="#000000" font-family="sans-serif" font-size="13" lengthAdjust="spacing" textLength="191.623" x="687.7852" y="504.1797">HMAC secret rotated annually.</text><g class="message" data-entity-1="part3" data-entity-2="part3" data-source-line="294" id="msg10"><line style="stroke:#181818;stroke-width:1;" x1="501.3149" x2="543.3149" y1="553.543" y2="553.543"/><line style="stroke:#181818;stroke-width:1;" x1="543.3149" x2="543.3149" y1="553.543" y2="566.543"/><line style="stroke:#181818;stroke-width:1;" x1="502.3149" x2="543.3149" y1="566.543" y2="566.543"/><polygon fill="#181818" points="512.3149,562.543,502.3149,566.543,512.3149,570.543,508.3149,566.543" style="stroke:#181818;stroke-width:1;stroke-linejoin:miter;stroke-miterlimit:10;"/><text fill="#000000" font-family="sans-serif" font-size="13" lengthAdjust="spacing" textLength="167.7559" x="508.3149" y="533.4902">pick K distinct winners per</text><text fill="#000000" font-family="sans-serif" font-size="13" lengthAdjust="spacing" textLength="224.3198" x="512.4282" y="548.8008">selection_strategy (no replacement)</text></g><g class="message" data-entity-1="part3" data-entity-2="part4" data-source-line="295" id="msg11"><polygon fill="#181818" points="747.1563,637.7852,757.1563,641.7852,747.1563,645.7852,751.1563,641.7852" style="stroke:#181818;stroke-width:1;stroke-linejoin:miter;stroke-miterlimit:10;"/><line style="stroke:#181818;stroke-width:1;" x1="501.3149" x2="753.1563" y1="641.7852" y2="641.7852"/><text fill="#000000" font-family="sans-serif" font-size="13" lengthAdjust="spacing" textLength="92.4727" x="508.3149" y="591.1113">SELECT entries</text><text fill="#000000" font-family="sans-serif" font-size="13" lengthAdjust="spacing" textLength="130.0127" x="508.3149" y="606.4219">FROM drawing_entry</text><text fill="#000000" font-family="sans-serif" font-size="13" lengthAdjust="spacing" textLength="117.8506" x="508.3149" y="621.7324">ORDER BY entry_id</text><text fill="#000000" font-family="sans-serif" font-size="13" lengthAdjust="spacing" textLength="142.6826" x="508.3149" y="637.043">(weight for WEIGHTED)</text></g><g class="message" data-entity-1="part3" data-entity-2="part4" data-source-line="296" id="msg12"><polygon fill="#181818" points="747.1563,697.7168,757.1563,701.7168,747.1563,705.7168,751.1563,701.7168" style="stroke:#181818;stroke-width:1;stroke-linejoin:miter;stroke-miterlimit:10;"/><line style="stroke:#181818;stroke-width:1;" x1="501.3149" x2="753.1563" y1="701.7168" y2="701.7168"/><text fill="#000000" font-family="sans-serif" font-size="13" lengthAdjust="spacing" textLength="184.2915" x="508.3149" y="666.3535">INSERT K winner_record rows</text><text fill="#000000" font-family="sans-serif" font-size="13" lengthAdjust="spacing" textLength="143.311" x="508.3149" y="681.6641">(drawingId, memberId,</text><text fill="#000000" font-family="sans-serif" font-size="13" lengthAdjust="spacing" textLength="221.2603" x="512.4282" y="696.9746">seed_hex, winner_index, drawn_at)</text></g><g class="message" data-entity-1="part3" data-entity-2="part4" data-source-line="297" id="msg13"><polygon fill="#181818" points="747.1563,727.0273,757.1563,731.0273,747.1563,735.0273,751.1563,731.0273" style="stroke:#181818;stroke-width:1;stroke-linejoin:miter;stroke-miterlimit:10;"/><line style="stroke:#181818;stroke-width:1;" x1="501.3149" x2="753.1563" y1="731.0273" y2="731.0273"/><text fill="#000000" font-family="sans-serif" font-size="13" lengthAdjust="spacing" textLength="233.7715" x="508.3149" y="726.2852">UPDATE drawing SET status=CLOSED</text></g><g class="message" data-entity-1="part3" data-entity-2="part5" data-source-line="298" id="msg14"><polygon fill="#181818" points="860.9316,771.6484,870.9316,775.6484,860.9316,779.6484,864.9316,775.6484" style="stroke:#181818;stroke-width:1;stroke-linejoin:miter;stroke-miterlimit:10;"/><line style="stroke:#181818;stroke-width:1;" x1="501.3149" x2="866.9316" y1="775.6484" y2="775.6484"/><text fill="#000000" font-family="sans-serif" font-size="13" lengthAdjust="spacing" textLength="338.0889" x="508.3149" y="755.5957">enqueueEvent(DrawingCompleted{winnerMemberIds})</text><text fill="#000000" font-family="sans-serif" font-size="13" lengthAdjust="spacing" textLength="293.4521" x="512.4282" y="770.9063">+ K x WinnerSelected{memberId, winnerIndex}</text></g><line style="stroke:#000000;stroke-width:1;stroke-dasharray:2,2;" x1="423.1714" x2="954.0342" y1="784.6484" y2="784.6484"/><text fill="#000000" font-family="sans-serif" font-size="11" font-weight="700" lengthAdjust="spacing" textLength="39.8643" x="428.1714" y="795.2832">[N = 0]</text><g class="message" data-entity-1="part3" data-entity-2="part4" data-source-line="300" id="msg15"><polygon fill="#181818" points="747.1563,815.9141,757.1563,819.9141,747.1563,823.9141,751.1563,819.9141" style="stroke:#181818;stroke-width:1;stroke-linejoin:miter;stroke-miterlimit:10;"/><line style="stroke:#181818;stroke-width:1;" x1="501.3149" x2="753.1563" y1="819.9141" y2="819.9141"/><text fill="#000000" font-family="sans-serif" font-size="13" lengthAdjust="spacing" textLength="216.0425" x="508.3149" y="815.1719">UPDATE drawing SET status=VOID</text></g><g class="message" data-entity-1="part3" data-entity-2="part5" data-source-line="301" id="msg16"><polygon fill="#181818" points="860.9316,845.2246,870.9316,849.2246,860.9316,853.2246,864.9316,849.2246" style="stroke:#181818;stroke-width:1;stroke-linejoin:miter;stroke-miterlimit:10;"/><line style="stroke:#181818;stroke-width:1;" x1="501.3149" x2="866.9316" y1="849.2246" y2="849.2246"/><text fill="#000000" font-family="sans-serif" font-size="13" lengthAdjust="spacing" textLength="177.125" x="508.3149" y="844.4824">enqueueEvent(DrawingVoid)</text></g><rect fill="#EEEEEE" height="3" style="stroke:#EEEEEE;stroke-width:1;" width="1485.5679" x="0" y="884.8799"/><line style="stroke:#000000;stroke-width:1;" x1="0" x2="1485.5679" y1="884.8799" y2="884.8799"/><line style="stroke:#000000;stroke-width:1;" x1="0" x2="1485.5679" y1="887.8799" y2="887.8799"/><rect fill="#EEEEEE" height="23.3105" style="stroke:#000000;stroke-width:2;" width="156.0415" x="664.7632" y="874.2246"/><text fill="#000000" font-family="sans-serif" font-size="13" font-weight="700" lengthAdjust="spacing" textLength="137.7568" x="670.7632" y="890.793">T-13 prize hand-off</text><g class="message" data-entity-1="part5" data-entity-2="part6" data-source-line="306" id="msg17"><polygon fill="#181818" points="1091.3193,924.8457,1101.3193,928.8457,1091.3193,932.8457,1095.3193,928.8457" style="stroke:#181818;stroke-width:1;stroke-linejoin:miter;stroke-miterlimit:10;"/><line style="stroke:#181818;stroke-width:1;" x1="872.9316" x2="1097.3193" y1="928.8457" y2="928.8457"/><text fill="#000000" font-family="sans-serif" font-size="13" lengthAdjust="spacing" textLength="206.3877" x="879.9316" y="924.1035">loyalty.campaign.WinnerSelected</text></g><g class="message" data-entity-1="part6" data-entity-2="part7" data-source-line="307" id="msg18"><polygon fill="#181818" points="1246.7495,954.1563,1256.7495,958.1563,1246.7495,962.1563,1250.7495,958.1563" style="stroke:#181818;stroke-width:1;stroke-linejoin:miter;stroke-miterlimit:10;"/><line style="stroke:#181818;stroke-width:1;" x1="1103.3193" x2="1252.7495" y1="958.1563" y2="958.1563"/><text fill="#000000" font-family="sans-serif" font-size="13" lengthAdjust="spacing" textLength="56.7861" x="1110.3193" y="953.4141">consume</text></g><path d="M1263,971.1563 L1263,1118.1563 L1480,1118.1563 L1480,981.1563 L1470,971.1563 L1263,971.1563" fill="#FEFFDD" style="stroke:#181818;stroke-width:0.5;"/><path d="M1470,971.1563 L1470,981.1563 L1480,981.1563 L1470,971.1563" fill="#FEFFDD" style="stroke:#181818;stroke-width:0.5;"/><text fill="#000000" font-family="sans-serif" font-size="13" lengthAdjust="spacing" textLength="177.7661" x="1269" y="988.7246">loyalty-redemption sees the</text><text fill="#000000" font-family="sans-serif" font-size="13" lengthAdjust="spacing" textLength="196.5679" x="1269" y="1004.0352">WinnerSelected event, looks up</text><text fill="#000000" font-family="sans-serif" font-size="13" lengthAdjust="spacing" textLength="181.6572" x="1269" y="1019.3457">the prize Reward, and runs a</text><text fill="#000000" font-family="sans-serif" font-size="13" lengthAdjust="spacing" textLength="180.5718" x="1269" y="1034.6563">system-initiated redemption</text><text fill="#000000" font-family="sans-serif" font-size="13" lengthAdjust="spacing" textLength="168.6509" x="1269" y="1049.9668">via SweepstakesAdapter &#8594;</text><text fill="#000000" font-family="sans-serif" font-size="13" lengthAdjust="spacing" textLength="186.8369" x="1269" y="1065.2773">whichever underlying adapter</text><text fill="#000000" font-family="sans-serif" font-size="13" lengthAdjust="spacing" textLength="163.8076" x="1269" y="1080.5879">the prize actually maps to</text><text fill="#000000" font-family="sans-serif" font-size="13" lengthAdjust="spacing" textLength="187.9224" x="1269" y="1095.8984">(typically CashbackAdapter or</text><text fill="#000000" font-family="sans-serif" font-size="13" lengthAdjust="spacing" textLength="182.3364" x="1273.1133" y="1111.209">BillPaymentVoucherAdapter).</text><?plantuml-src bLNDRXit4BxlKmnyAAHOLfocwI65WZhIEXPYIuQasYXWGA2M8udGBhaXkP8tJO2S-W15dw4FbYVfaDoLlVuvH0T1ulnztyUPeHKsHUZ_0kUunHHUm_Tl_qAgIfRQyYXXMSx4Ilh3Qo4bQfXYYeaLIi9FC3jwzHfoBJuZh9daHsgvZAASQIiIaJDfuM1ALhc2twV96dcH8h-HBIgaItW5cP0TcDBvkKesxGDW1XAjP3F1GBETor0dq0VWFkHht4dJ-I74uEkSTzuISMRPWXa4EE0XyOsiVinHMbtUoE0vrvWepJqelcXM6HTseMvXWYahgmfL5UsEeay55kYF3YeXkxMGtHTta3ApQUQjLTV8CSlt-7rUdaMH4mUEtWNYy1Qi5giLwbP5OCWxmUHadZFRZe8ZHGHE56AyCa6ckxXsn4YkBRDOwnHL4HJB5nGtZS_Z_epQu3yudOmlO2_UzLayYK7mtbl1uMGq06EPBKnlV1cFRkJfU09_N0vEPd4a5MKdm6iR0LoYCI8JXhXJhoKRtrzAfYLz8TbpnI5ZPGKNM4qW9sXG5-_209SeZTWYi1KJqhZKlCXJaH0L3akXqS1Igun2nDB2IqXyDRF1NJT2oS6XUevieWffMo_Q3SPrbmJUzM7Wt-GuWXvOPLaABaIWwTBXS0cZtZ5y__iVAbsn-etEwoudV8OmqvLVZOU3-nYfCoZbEpYEN4_S8TvVxKUgHnFL2WTcxk5tODH-Bi0WQTG3isO_l_crTIFtmWuvVFdY_r0NqKzdEhiuwSyD9XfjIDZWwZxJE1x4W_bazE7bTJpyS3QB1zItEGs4luBAonSz195b1KqYRHwl9z2e-QjrdzQX2_YC4dReyfjs5qw7a-biFeA2rAdSV20f7s8xJa-Nl5kP7M08W47JDRY6O58MB4tBuBFNzXbzSa6jyX6uQrD9NLW9wvgG537rZfaRgodxgeGMGV2C4ym8tKFXx_TMrH8q8K_qrdWoY2Vm_iyzHTgPGGfOAWsrka_c7uwcyMH6i1jhZ1JOKR7xcoB3R86QVdakj33MUDkfeuJaxfzpbtwJF54fp7MDdOZDwjdldu-dyU11Z5-D58RIhyTuI-HQLTltLPQdI3VqL_2_gB2Phsr2TqXiRglN9snsSjp3hqeC7UAl4QQqszta7VyOP3TjFm3uIWbQcjH04ST7gxFNU-fTX5ul2YafDwr-olpeSMXoZ9oN1y8pyawKD4M6zvOCg6Lu6G0UFntkKWtOjMllPbv0HwL3CMfZeCZ9WTmgk1FSCKsg4chGXQHLH6PJ6elPaP322Zz8TsN8kXKCfZl4dBJSe3dXBBSa8UquCkxMWXuXUl2Xe1lIQUc4Py6bKPXazBD9Upydt8gCBLlI3Fh3FZFh1KisTNBbbyLxaQQNh7J3TgKAggChU_lUvlmV?></g></svg>