<svg xmlns="http://www.w3.org/2000/svg" xmlns:xlink="http://www.w3.org/1999/xlink" contentStyleType="text/css" data-diagram-type="SEQUENCE" height="1245px" preserveAspectRatio="none" style="width:2011px;height:1245px;background:#FFFFFF;" version="1.1" viewBox="0 0 2011 1245" width="2011px" zoomAndPan="magnify"><?plantuml 1.2026.4?><defs/><g><g class="title" data-source-line="174"><text fill="#000000" font-family="sans-serif" font-size="14" font-weight="700" lengthAdjust="spacing" textLength="475.0703" x="764.7632" y="28.5352">C4 Level 3 &#8212; loyalty-earning &#8212; EarnEvent &#8594; Earned Ledger Entry</text></g><g><title>Earn Event Consumer</title><rect fill="#FFFFFF" height="853.1797" style="stroke:#181818;stroke-width:1;" width="10" x="321.0947" y="199.8848"/></g><g><title>Rule Engine</title><rect fill="#FFFFFF" height="794.5586" style="stroke:#181818;stroke-width:1;" width="10" x="457.0503" y="229.1953"/></g><g><title>DSL Interpreter</title><rect fill="#FFFFFF" height="29.3105" style="stroke:#181818;stroke-width:1;" width="10" x="925.1968" y="562.543"/></g><g><title>Cap Counter</title><rect fill="#FFFFFF" height="95.2422" style="stroke:#181818;stroke-width:1;" width="10" x="1042.9961" y="651.7852"/></g><g><title>Ledger Client</title><rect fill="#FFFFFF" height="73.9316" style="stroke:#181818;stroke-width:1;" width="10" x="1381.4033" y="861.8906"/></g><rect fill="none" height="471.5215" style="stroke:#000000;stroke-width:1.5;" width="1368.917" x="395.3711" y="523.9219"/><rect fill="none" height="226.416" style="stroke:#000000;stroke-width:1.5;" width="1348.917" x="405.3711" y="762.0273"/><g class="participant-lifeline" data-entity-uid="part1" data-qualified-name="msk_in" data-source-line="184" id="part1-lifeline"><g><title>MSK</title><rect fill="#000000" fill-opacity="0.00000" height="1005.7324" width="8" x="96.8867" y="137.9531"/><line style="stroke:#073661;stroke-width:0.5;stroke-dasharray:5,5;" x1="100" x2="100" y1="137.9531" y2="1143.6855"/></g></g><g class="participant-lifeline" data-entity-uid="part2" data-qualified-name="consumer" data-source-line="185" id="part2-lifeline"><g><title>Earn Event Consumer</title><rect fill="#000000" fill-opacity="0.00000" height="1005.7324" width="8" x="322.0947" y="137.9531"/><line style="stroke:#073661;stroke-width:0.5;stroke-dasharray:5,5;" x1="325.8184" x2="325.8184" y1="137.9531" y2="1143.6855"/></g></g><g class="participant-lifeline" data-entity-uid="part3" data-qualified-name="engine" data-source-line="186" id="part3-lifeline"><g><title>Rule Engine</title><rect fill="#000000" fill-opacity="0.00000" height="1005.7324" width="8" x="458.0503" y="137.9531"/><line style="stroke:#073661;stroke-width:0.5;stroke-dasharray:5,5;" x1="461.3711" x2="461.3711" y1="137.9531" y2="1143.6855"/></g></g><g class="participant-lifeline" data-entity-uid="part4" data-qualified-name="rules_db" data-source-line="187" id="part4-lifeline"><g><title>earning_rule</title><rect fill="#000000" fill-opacity="0.00000" height="1005.7324" width="8" x="796.1177" y="137.9531"/><line style="stroke:#073661;stroke-width:0.5;stroke-dasharray:5,5;" x1="799.2944" x2="799.2944" y1="137.9531" y2="1143.6855"/></g></g><g class="participant-lifeline" data-entity-uid="part5" data-qualified-name="dsl" data-source-line="188" id="part5-lifeline"><g><title>DSL Interpreter</title><rect fill="#000000" fill-opacity="0.00000" height="1005.7324" width="8" x="926.1968" y="137.9531"/><line style="stroke:#073661;stroke-width:0.5;stroke-dasharray:5,5;" x1="929.9409" x2="929.9409" y1="137.9531" y2="1143.6855"/></g></g><g class="participant-lifeline" data-entity-uid="part6" data-qualified-name="caps" data-source-line="189" id="part6-lifeline"><g><title>Cap Counter</title><rect fill="#000000" fill-opacity="0.00000" height="1005.7324" width="8" x="1043.9961" y="137.9531"/><line style="stroke:#073661;stroke-width:0.5;stroke-dasharray:5,5;" x1="1047.4526" x2="1047.4526" y1="137.9531" y2="1143.6855"/></g></g><g class="participant-lifeline" data-entity-uid="part7" data-qualified-name="cap_db" data-source-line="190" id="part7-lifeline"><g><title>cap_counter</title><rect fill="#000000" fill-opacity="0.00000" height="1005.7324" width="8" x="1275.9561" y="137.9531"/><line style="stroke:#073661;stroke-width:0.5;stroke-dasharray:5,5;" x1="1279.6431" x2="1279.6431" y1="137.9531" y2="1143.6855"/></g></g><g class="participant-lifeline" data-entity-uid="part8" data-qualified-name="ledger_cli" data-source-line="191" id="part8-lifeline"><g><title>Ledger Client</title><rect fill="#000000" fill-opacity="0.00000" height="1005.7324" width="8" x="1382.4033" y="137.9531"/><line style="stroke:#073661;stroke-width:0.5;stroke-dasharray:5,5;" x1="1386.269" x2="1386.269" y1="137.9531" y2="1143.6855"/></g></g><g class="participant-lifeline" data-entity-uid="part9" data-qualified-name="core" data-source-line="192" id="part9-lifeline"><g><title>loyalty-core</title><rect fill="#000000" fill-opacity="0.00000" height="1005.7324" width="8" x="1577.4707" y="137.9531"/><line style="stroke:#073661;stroke-width:0.5;stroke-dasharray:5,5;" x1="1580.626" x2="1580.626" y1="137.9531" y2="1143.6855"/></g></g><g class="participant-lifeline" data-entity-uid="part10" data-qualified-name="relay" data-source-line="193" id="part10-lifeline"><g><title>Outbox Relay</title><rect fill="#000000" fill-opacity="0.00000" height="1005.7324" width="8" x="1687.8018" y="137.9531"/><line style="stroke:#073661;stroke-width:0.5;stroke-dasharray:5,5;" x1="1691.3154" x2="1691.3154" y1="137.9531" y2="1143.6855"/></g></g><g class="participant-lifeline" data-entity-uid="part11" data-qualified-name="msk_out" data-source-line="194" id="part11-lifeline"><g><title>MSK</title><rect fill="#000000" fill-opacity="0.00000" height="1005.7324" width="8" x="1890.4185" y="137.9531"/><line style="stroke:#073661;stroke-width:0.5;stroke-dasharray:5,5;" x1="1894.2402" x2="1894.2402" y1="137.9531" y2="1143.6855"/></g></g><g class="participant participant-head" data-entity-uid="part1" data-qualified-name="msk_in" data-source-line="184" id="part1-head"><path d="M10,94.9766 L191.7734,94.9766 C196.7734,94.9766 196.7734,116.4648 196.7734,116.4648 C196.7734,116.4648 196.7734,137.9531 191.7734,137.9531 L10,137.9531 C5,137.9531 5,116.4648 5,116.4648 C5,116.4648 5,94.9766 10,94.9766" fill="#E2E2F0" style="stroke:#181818;stroke-width:0.5;"/><path d="M191.7734,94.9766 C186.7734,94.9766 186.7734,116.4648 186.7734,116.4648 C186.7734,137.9531 191.7734,137.9531 191.7734,137.9531" fill="none" style="stroke:#181818;stroke-width:0.5;"/><text fill="#000000" font-family="sans-serif" font-size="14" lengthAdjust="spacing" textLength="28.7383" x="81.5176" y="113.5117">MSK</text><text fill="#000000" font-family="sans-serif" font-size="14" lengthAdjust="spacing" textLength="171.7734" x="10" y="130">loyalty.earn.translated.v1</text></g><g class="participant participant-tail" data-entity-uid="part1" data-qualified-name="msk_in" data-source-line="184" id="part1-tail"><path d="M10,1142.6855 L191.7734,1142.6855 C196.7734,1142.6855 196.7734,1164.1738 196.7734,1164.1738 C196.7734,1164.1738 196.7734,1185.6621 191.7734,1185.6621 L10,1185.6621 C5,1185.6621 5,1164.1738 5,1164.1738 C5,1164.1738 5,1142.6855 10,1142.6855" fill="#E2E2F0" style="stroke:#181818;stroke-width:0.5;"/><path d="M191.7734,1142.6855 C186.7734,1142.6855 186.7734,1164.1738 186.7734,1164.1738 C186.7734,1185.6621 191.7734,1185.6621 191.7734,1185.6621" fill="none" style="stroke:#181818;stroke-width:0.5;"/><text fill="#000000" font-family="sans-serif" font-size="14" lengthAdjust="spacing" textLength="28.7383" x="81.5176" y="1161.2207">MSK</text><text fill="#000000" font-family="sans-serif" font-size="14" lengthAdjust="spacing" textLength="171.7734" x="10" y="1177.709">loyalty.earn.translated.v1</text></g><g class="participant participant-head" data-entity-uid="part2" data-qualified-name="consumer" data-source-line="185" id="part2-head"><rect fill="#E8F0FE" height="30.4883" rx="2.5" ry="2.5" style="stroke:#073661;stroke-width:0.5;" width="158.5527" x="246.8184" y="106.4648"/><text fill="#073661" font-family="sans-serif" font-size="14" lengthAdjust="spacing" textLength="144.5527" x="253.8184" y="127">Earn Event Consumer</text></g><g class="participant participant-tail" data-entity-uid="part2" data-qualified-name="consumer" data-source-line="185" id="part2-tail"><rect fill="#E8F0FE" height="30.4883" rx="2.5" ry="2.5" style="stroke:#073661;stroke-width:0.5;" width="158.5527" x="246.8184" y="1142.6855"/><text fill="#073661" font-family="sans-serif" font-size="14" lengthAdjust="spacing" textLength="144.5527" x="253.8184" y="1163.2207">Earn Event Consumer</text></g><g class="participant participant-head" data-entity-uid="part3" data-qualified-name="engine" data-source-line="186" id="part3-head"><rect fill="#E8F0FE" height="30.4883" rx="2.5" ry="2.5" style="stroke:#073661;stroke-width:0.5;" width="93.3584" x="415.3711" y="106.4648"/><text fill="#073661" font-family="sans-serif" font-size="14" lengthAdjust="spacing" textLength="79.3584" x="422.3711" y="127">Rule Engine</text></g><g class="participant participant-tail" data-entity-uid="part3" data-qualified-name="engine" data-source-line="186" id="part3-tail"><rect fill="#E8F0FE" height="30.4883" rx="2.5" ry="2.5" style="stroke:#073661;stroke-width:0.5;" width="93.3584" x="415.3711" y="1142.6855"/><text fill="#073661" font-family="sans-serif" font-size="14" lengthAdjust="spacing" textLength="79.3584" x="422.3711" y="1163.2207">Rule Engine</text></g><g class="participant participant-head" data-entity-uid="part4" data-qualified-name="rules_db" data-source-line="187" id="part4-head"><text fill="#000000" font-family="sans-serif" font-size="14" lengthAdjust="spacing" textLength="84.6768" x="754.7793" y="102.0234">earning_rule</text><text fill="#000000" font-family="sans-serif" font-size="14" lengthAdjust="spacing" textLength="82.0723" x="756.0815" y="118.5117">earn_source</text><text fill="#000000" font-family="sans-serif" font-size="14" lengthAdjust="spacing" textLength="117.6465" x="738.2944" y="135">idempotency_key</text><path d="M782.1177,52.4883 C782.1177,42.4883 800.1177,42.4883 800.1177,42.4883 C800.1177,42.4883 818.1177,42.4883 818.1177,52.4883 L818.1177,78.4883 C818.1177,88.4883 800.1177,88.4883 800.1177,88.4883 C800.1177,88.4883 782.1177,88.4883 782.1177,78.4883 L782.1177,52.4883" fill="#E2E2F0" style="stroke:#181818;stroke-width:0.5;"/><path d="M782.1177,52.4883 C782.1177,62.4883 800.1177,62.4883 800.1177,62.4883 C800.1177,62.4883 818.1177,62.4883 818.1177,52.4883" fill="none" style="stroke:#181818;stroke-width:0.5;"/></g><g class="participant participant-tail" data-entity-uid="part4" data-qualified-name="rules_db" data-source-line="187" id="part4-tail"><text fill="#000000" font-family="sans-serif" font-size="14" lengthAdjust="spacing" textLength="84.6768" x="754.7793" y="1156.2207">earning_rule</text><text fill="#000000" font-family="sans-serif" font-size="14" lengthAdjust="spacing" textLength="82.0723" x="756.0815" y="1172.709">earn_source</text><text fill="#000000" font-family="sans-serif" font-size="14" lengthAdjust="spacing" textLength="117.6465" x="738.2944" y="1189.1973">idempotency_key</text><path d="M782.1177,1202.1504 C782.1177,1192.1504 800.1177,1192.1504 800.1177,1192.1504 C800.1177,1192.1504 818.1177,1192.1504 818.1177,1202.1504 L818.1177,1228.1504 C818.1177,1238.1504 800.1177,1238.1504 800.1177,1238.1504 C800.1177,1238.1504 782.1177,1238.1504 782.1177,1228.1504 L782.1177,1202.1504" fill="#E2E2F0" style="stroke:#181818;stroke-width:0.5;"/><path d="M782.1177,1202.1504 C782.1177,1212.1504 800.1177,1212.1504 800.1177,1212.1504 C800.1177,1212.1504 818.1177,1212.1504 818.1177,1202.1504" fill="none" style="stroke:#181818;stroke-width:0.5;"/></g><g class="participant participant-head" data-entity-uid="part5" data-qualified-name="dsl" data-source-line="188" id="part5-head"><rect fill="#E8F0FE" height="30.4883" rx="2.5" ry="2.5" style="stroke:#073661;stroke-width:0.5;" width="116.5117" x="871.9409" y="106.4648"/><text fill="#073661" font-family="sans-serif" font-size="14" lengthAdjust="spacing" textLength="102.5117" x="878.9409" y="127">DSL Interpreter</text></g><g class="participant participant-tail" data-entity-uid="part5" data-qualified-name="dsl" data-source-line="188" id="part5-tail"><rect fill="#E8F0FE" height="30.4883" rx="2.5" ry="2.5" style="stroke:#073661;stroke-width:0.5;" width="116.5117" x="871.9409" y="1142.6855"/><text fill="#073661" font-family="sans-serif" font-size="14" lengthAdjust="spacing" textLength="102.5117" x="878.9409" y="1163.2207">DSL Interpreter</text></g><g class="participant participant-head" data-entity-uid="part6" data-qualified-name="caps" data-source-line="189" id="part6-head"><rect fill="#E8F0FE" height="30.4883" rx="2.5" ry="2.5" style="stroke:#073661;stroke-width:0.5;" width="99.0869" x="998.4526" y="106.4648"/><text fill="#073661" font-family="sans-serif" font-size="14" lengthAdjust="spacing" textLength="85.0869" x="1005.4526" y="127">Cap Counter</text></g><g class="participant participant-tail" data-entity-uid="part6" data-qualified-name="caps" data-source-line="189" id="part6-tail"><rect fill="#E8F0FE" height="30.4883" rx="2.5" ry="2.5" style="stroke:#073661;stroke-width:0.5;" width="99.0869" x="998.4526" y="1142.6855"/><text fill="#073661" font-family="sans-serif" font-size="14" lengthAdjust="spacing" textLength="85.0869" x="1005.4526" y="1163.2207">Cap Counter</text></g><g class="participant participant-head" data-entity-uid="part7" data-qualified-name="cap_db" data-source-line="190" id="part7-head"><text fill="#000000" font-family="sans-serif" font-size="14" lengthAdjust="spacing" textLength="82.626" x="1235.6431" y="135">cap_counter</text><path d="M1261.9561,85.4648 C1261.9561,75.4648 1279.9561,75.4648 1279.9561,75.4648 C1279.9561,75.4648 1297.9561,75.4648 1297.9561,85.4648 L1297.9561,111.4648 C1297.9561,121.4648 1279.9561,121.4648 1279.9561,121.4648 C1279.9561,121.4648 1261.9561,121.4648 1261.9561,111.4648 L1261.9561,85.4648" fill="#E2E2F0" style="stroke:#181818;stroke-width:0.5;"/><path d="M1261.9561,85.4648 C1261.9561,95.4648 1279.9561,95.4648 1279.9561,95.4648 C1279.9561,95.4648 1297.9561,95.4648 1297.9561,85.4648" fill="none" style="stroke:#181818;stroke-width:0.5;"/></g><g class="participant participant-tail" data-entity-uid="part7" data-qualified-name="cap_db" data-source-line="190" id="part7-tail"><text fill="#000000" font-family="sans-serif" font-size="14" lengthAdjust="spacing" textLength="82.626" x="1235.6431" y="1156.2207">cap_counter</text><path d="M1261.9561,1169.1738 C1261.9561,1159.1738 1279.9561,1159.1738 1279.9561,1159.1738 C1279.9561,1159.1738 1297.9561,1159.1738 1297.9561,1169.1738 L1297.9561,1195.1738 C1297.9561,1205.1738 1279.9561,1205.1738 1279.9561,1205.1738 C1279.9561,1205.1738 1261.9561,1205.1738 1261.9561,1195.1738 L1261.9561,1169.1738" fill="#E2E2F0" style="stroke:#181818;stroke-width:0.5;"/><path d="M1261.9561,1169.1738 C1261.9561,1179.1738 1279.9561,1179.1738 1279.9561,1179.1738 C1279.9561,1179.1738 1297.9561,1179.1738 1297.9561,1169.1738" fill="none" style="stroke:#181818;stroke-width:0.5;"/></g><g class="participant participant-head" data-entity-uid="part8" data-qualified-name="ledger_cli" data-source-line="191" id="part8-head"><rect fill="#E8F0FE" height="30.4883" rx="2.5" ry="2.5" style="stroke:#073661;stroke-width:0.5;" width="104.2686" x="1334.269" y="106.4648"/><text fill="#073661" font-family="sans-serif" font-size="14" lengthAdjust="spacing" textLength="90.2686" x="1341.269" y="127">Ledger Client</text></g><g class="participant participant-tail" data-entity-uid="part8" data-qualified-name="ledger_cli" data-source-line="191" id="part8-tail"><rect fill="#E8F0FE" height="30.4883" rx="2.5" ry="2.5" style="stroke:#073661;stroke-width:0.5;" width="104.2686" x="1334.269" y="1142.6855"/><text fill="#073661" font-family="sans-serif" font-size="14" lengthAdjust="spacing" textLength="90.2686" x="1341.269" y="1163.2207">Ledger Client</text></g><g class="participant participant-head" data-entity-uid="part9" data-qualified-name="core" data-source-line="192" id="part9-head"><rect fill="#E8F0FE" height="46.9766" rx="2.5" ry="2.5" style="stroke:#073661;stroke-width:0.5;" width="95.6895" x="1533.626" y="89.9766"/><text fill="#073661" font-family="sans-serif" font-size="14" lengthAdjust="spacing" textLength="81.6895" x="1540.626" y="110.5117">loyalty-core</text><text fill="#073661" font-family="sans-serif" font-size="14" lengthAdjust="spacing" textLength="72.1943" x="1545.3735" y="127">Ledger API</text></g><g class="participant participant-tail" data-entity-uid="part9" data-qualified-name="core" data-source-line="192" id="part9-tail"><rect fill="#E8F0FE" height="46.9766" rx="2.5" ry="2.5" style="stroke:#073661;stroke-width:0.5;" width="95.6895" x="1533.626" y="1142.6855"/><text fill="#073661" font-family="sans-serif" font-size="14" lengthAdjust="spacing" textLength="81.6895" x="1540.626" y="1163.2207">loyalty-core</text><text fill="#073661" font-family="sans-serif" font-size="14" lengthAdjust="spacing" textLength="72.1943" x="1545.3735" y="1179.709">Ledger API</text></g><g class="participant participant-head" data-entity-uid="part10" data-qualified-name="relay" data-source-line="193" id="part10-head"><rect fill="#E8F0FE" height="30.4883" rx="2.5" ry="2.5" style="stroke:#073661;stroke-width:0.5;" width="104.9727" x="1639.3154" y="106.4648"/><text fill="#073661" font-family="sans-serif" font-size="14" lengthAdjust="spacing" textLength="90.9727" x="1646.3154" y="127">Outbox Relay</text></g><g class="participant participant-tail" data-entity-uid="part10" data-qualified-name="relay" data-source-line="193" id="part10-tail"><rect fill="#E8F0FE" height="30.4883" rx="2.5" ry="2.5" style="stroke:#073661;stroke-width:0.5;" width="104.9727" x="1639.3154" y="1142.6855"/><text fill="#073661" font-family="sans-serif" font-size="14" lengthAdjust="spacing" textLength="90.9727" x="1646.3154" y="1163.2207">Outbox Relay</text></g><g class="participant participant-head" data-entity-uid="part11" data-qualified-name="msk_out" data-source-line="194" id="part11-head"><path d="M1793.2402,94.9766 L1995.5967,94.9766 C2000.5967,94.9766 2000.5967,116.4648 2000.5967,116.4648 C2000.5967,116.4648 2000.5967,137.9531 1995.5967,137.9531 L1793.2402,137.9531 C1788.2402,137.9531 1788.2402,116.4648 1788.2402,116.4648 C1788.2402,116.4648 1788.2402,94.9766 1793.2402,94.9766" fill="#E2E2F0" style="stroke:#181818;stroke-width:0.5;"/><path d="M1995.5967,94.9766 C1990.5967,94.9766 1990.5967,116.4648 1990.5967,116.4648 C1990.5967,137.9531 1995.5967,137.9531 1995.5967,137.9531" fill="none" style="stroke:#181818;stroke-width:0.5;"/><text fill="#000000" font-family="sans-serif" font-size="14" lengthAdjust="spacing" textLength="28.7383" x="1875.0493" y="113.5117">MSK</text><text fill="#000000" font-family="sans-serif" font-size="14" lengthAdjust="spacing" textLength="192.3564" x="1793.2402" y="130">loyalty.earning.PointsEarned</text></g><g class="participant participant-tail" data-entity-uid="part11" data-qualified-name="msk_out" data-source-line="194" id="part11-tail"><path d="M1793.2402,1142.6855 L1995.5967,1142.6855 C2000.5967,1142.6855 2000.5967,1164.1738 2000.5967,1164.1738 C2000.5967,1164.1738 2000.5967,1185.6621 1995.5967,1185.6621 L1793.2402,1185.6621 C1788.2402,1185.6621 1788.2402,1164.1738 1788.2402,1164.1738 C1788.2402,1164.1738 1788.2402,1142.6855 1793.2402,1142.6855" fill="#E2E2F0" style="stroke:#181818;stroke-width:0.5;"/><path d="M1995.5967,1142.6855 C1990.5967,1142.6855 1990.5967,1164.1738 1990.5967,1164.1738 C1990.5967,1185.6621 1995.5967,1185.6621 1995.5967,1185.6621" fill="none" style="stroke:#181818;stroke-width:0.5;"/><text fill="#000000" font-family="sans-serif" font-size="14" lengthAdjust="spacing" textLength="28.7383" x="1875.0493" y="1161.2207">MSK</text><text fill="#000000" font-family="sans-serif" font-size="14" lengthAdjust="spacing" textLength="192.3564" x="1793.2402" y="1177.709">loyalty.earning.PointsEarned</text></g><g><title>Earn Event Consumer</title><rect fill="#FFFFFF" height="853.1797" style="stroke:#181818;stroke-width:1;" width="10" x="321.0947" y="199.8848"/></g><g><title>Rule Engine</title><rect fill="#FFFFFF" height="794.5586" style="stroke:#181818;stroke-width:1;" width="10" x="457.0503" y="229.1953"/></g><g><title>DSL Interpreter</title><rect fill="#FFFFFF" height="29.3105" style="stroke:#181818;stroke-width:1;" width="10" x="925.1968" y="562.543"/></g><g><title>Cap Counter</title><rect fill="#FFFFFF" height="95.2422" style="stroke:#181818;stroke-width:1;" width="10" x="1042.9961" y="651.7852"/></g><g><title>Ledger Client</title><rect fill="#FFFFFF" height="73.9316" style="stroke:#181818;stroke-width:1;" width="10" x="1381.4033" y="861.8906"/></g><g class="message" data-entity-1="part1" data-entity-2="part2" data-source-line="196" id="msg1"><polygon fill="#073661" points="309.0947,195.8848,319.0947,199.8848,309.0947,203.8848,313.0947,199.8848" style="stroke:#073661;stroke-width:1;stroke-linejoin:miter;stroke-miterlimit:10;"/><line style="stroke:#073661;stroke-width:1;" x1="100.8867" x2="315.0947" y1="199.8848" y2="199.8848"/><text fill="#000000" font-family="sans-serif" font-size="13" lengthAdjust="spacing" textLength="61.5596" x="107.8867" y="164.5215">EarnEvent</text><text fill="#000000" font-family="sans-serif" font-size="13" lengthAdjust="spacing" textLength="201.208" x="107.8867" y="179.832">{eventId, memberId, programId,</text><text fill="#000000" font-family="sans-serif" font-size="13" lengthAdjust="spacing" textLength="164.2012" x="112" y="195.1426">earnSourceCode, payload}</text></g><g class="message" data-entity-1="part2" data-entity-2="part3" data-source-line="198" id="msg2"><polygon fill="#073661" points="445.0503,225.1953,455.0503,229.1953,445.0503,233.1953,449.0503,229.1953" style="stroke:#073661;stroke-width:1;stroke-linejoin:miter;stroke-miterlimit:10;"/><line style="stroke:#073661;stroke-width:1;" x1="331.0947" x2="451.0503" y1="229.1953" y2="229.1953"/><text fill="#000000" font-family="sans-serif" font-size="13" lengthAdjust="spacing" textLength="94.8594" x="338.0947" y="224.4531">evaluate(event)</text></g><rect fill="#EEEEEE" height="3" style="stroke:#EEEEEE;stroke-width:1;" width="2005.5967" x="0" y="257.8506"/><line style="stroke:#000000;stroke-width:1;" x1="0" x2="2005.5967" y1="257.8506" y2="257.8506"/><line style="stroke:#000000;stroke-width:1;" x1="0" x2="2005.5967" y1="260.8506" y2="260.8506"/><rect fill="#EEEEEE" height="23.3105" style="stroke:#000000;stroke-width:2;" width="137.6587" x="933.969" y="247.1953"/><text fill="#000000" font-family="sans-serif" font-size="13" font-weight="700" lengthAdjust="spacing" textLength="119.374" x="939.969" y="263.7637">Idempotency gate</text><g class="message" data-entity-1="part3" data-entity-2="part4" data-source-line="202" id="msg3"><polygon fill="#073661" points="788.1177,346.748,798.1177,350.748,788.1177,354.748,792.1177,350.748" style="stroke:#073661;stroke-width:1;stroke-linejoin:miter;stroke-miterlimit:10;"/><line style="stroke:#073661;stroke-width:1;" x1="467.0503" x2="794.1177" y1="350.748" y2="350.748"/><text fill="#000000" font-family="sans-serif" font-size="13" lengthAdjust="spacing" textLength="211.5293" x="474.0503" y="330.6953">SELECT 1 FROM idempotency_key</text><text fill="#000000" font-family="sans-serif" font-size="13" lengthAdjust="spacing" textLength="168.4287" x="474.0503" y="346.0059">WHERE event_id = :eventId</text></g><path d="M805,285.5059 L805,386.5059 L1037,386.5059 L1037,295.5059 L1027,285.5059 L805,285.5059" fill="#FEFFDD" style="stroke:#181818;stroke-width:0.5;"/><path d="M1027,285.5059 L1027,295.5059 L1037,295.5059 L1027,285.5059" fill="#FEFFDD" style="stroke:#181818;stroke-width:0.5;"/><text fill="#000000" font-family="sans-serif" font-size="13" lengthAdjust="spacing" textLength="211.104" x="811" y="303.0742">Replay protection &#8212; short-circuit</text><text fill="#000000" font-family="sans-serif" font-size="13" lengthAdjust="spacing" textLength="207.9492" x="811" y="318.3848">if already processed. Same effect</text><text fill="#000000" font-family="sans-serif" font-size="13" lengthAdjust="spacing" textLength="183.752" x="811" y="333.6953">as the (sourceRef, entryType)</text><text fill="#000000" font-family="sans-serif" font-size="13" lengthAdjust="spacing" textLength="197.5771" x="811" y="349.0059">uniqueness on the Ledger side,</text><text fill="#000000" font-family="sans-serif" font-size="13" lengthAdjust="spacing" textLength="181.562" x="811" y="364.3164">but cheaper because it stops</text><text fill="#000000" font-family="sans-serif" font-size="13" lengthAdjust="spacing" textLength="134.5513" x="811" y="379.627">before any rule work.</text><rect fill="#EEEEEE" height="3" style="stroke:#EEEEEE;stroke-width:1;" width="2005.5967" x="0" y="413.0244"/><line style="stroke:#000000;stroke-width:1;" x1="0" x2="2005.5967" y1="413.0244" y2="413.0244"/><line style="stroke:#000000;stroke-width:1;" x1="0" x2="2005.5967" y1="416.0244" y2="416.0244"/><rect fill="#EEEEEE" height="23.3105" style="stroke:#000000;stroke-width:2;" width="120.2026" x="942.697" y="402.3691"/><text fill="#000000" font-family="sans-serif" font-size="13" font-weight="700" lengthAdjust="spacing" textLength="101.918" x="948.697" y="418.9375">Rule resolution</text><g class="message" data-entity-1="part3" data-entity-2="part4" data-source-line="213" id="msg5"><polygon fill="#073661" points="788.1177,501.9219,798.1177,505.9219,788.1177,509.9219,792.1177,505.9219" style="stroke:#073661;stroke-width:1;stroke-linejoin:miter;stroke-miterlimit:10;"/><line style="stroke:#073661;stroke-width:1;" x1="467.0503" x2="794.1177" y1="505.9219" y2="505.9219"/><text fill="#000000" font-family="sans-serif" font-size="13" lengthAdjust="spacing" textLength="185.6943" x="474.0503" y="455.248">SELECT &#8230; FROM earning_rule</text><text fill="#000000" font-family="sans-serif" font-size="13" lengthAdjust="spacing" textLength="107.8149" x="474.0503" y="470.5586">JOIN earn_source</text><text fill="#000000" font-family="sans-serif" font-size="13" lengthAdjust="spacing" textLength="255.6074" x="474.0503" y="485.8691">WHERE active AND earnSourceCode=:src</text><text fill="#000000" font-family="sans-serif" font-size="13" lengthAdjust="spacing" textLength="267.6108" x="482.2769" y="501.1797">AND :now BETWEEN starts_at AND ends_at</text></g><path d="M805,440.6797 L805,511.6797 L1069,511.6797 L1069,450.6797 L1059,440.6797 L805,440.6797" fill="#FEFFDD" style="stroke:#181818;stroke-width:0.5;"/><path d="M1059,440.6797 L1059,450.6797 L1069,450.6797 L1059,440.6797" fill="#FEFFDD" style="stroke:#181818;stroke-width:0.5;"/><text fill="#000000" font-family="sans-serif" font-size="13" lengthAdjust="spacing" textLength="181.981" x="811" y="458.248">Multi-rule conflict resolution</text><text fill="#000000" font-family="sans-serif" font-size="13" lengthAdjust="spacing" textLength="10.3848" x="811" y="473.5586">is</text><text fill="#000000" font-family="sans-serif" font-size="13" font-weight="700" lengthAdjust="spacing" textLength="28.4946" x="825.498" y="473.5586">sum</text><text fill="#000000" font-family="sans-serif" font-size="13" lengthAdjust="spacing" textLength="141.8892" x="858.106" y="473.5586">&#8212; every matching rule</text><text fill="#000000" font-family="sans-serif" font-size="13" lengthAdjust="spacing" textLength="180.5591" x="811" y="488.8691">fires and contributes its own</text><text fill="#000000" font-family="sans-serif" font-size="13" lengthAdjust="spacing" textLength="243.5469" x="811" y="504.1797">Ledger entry. (CONTEXT.md "Conflict")</text><path d="M395.3711,523.9219 L469.8179,523.9219 L469.8179,531.2324 L459.8179,541.2324 L395.3711,541.2324 L395.3711,523.9219" fill="#EEEEEE" style="stroke:#000000;stroke-width:1.5;"/><rect fill="none" height="471.5215" style="stroke:#000000;stroke-width:1.5;" width="1368.917" x="395.3711" y="523.9219"/><text fill="#000000" font-family="sans-serif" font-size="13" font-weight="700" lengthAdjust="spacing" textLength="29.4468" x="410.3711" y="537.4902">loop</text><text fill="#000000" font-family="sans-serif" font-size="11" font-weight="700" lengthAdjust="spacing" textLength="136.5815" x="484.8179" y="536.5566">[for each matching rule]</text><g class="message" data-entity-1="part3" data-entity-2="part5" data-source-line="222" id="msg7"><polygon fill="#073661" points="913.1968,558.543,923.1968,562.543,913.1968,566.543,917.1968,562.543" style="stroke:#073661;stroke-width:1;stroke-linejoin:miter;stroke-miterlimit:10;"/><line style="stroke:#073661;stroke-width:1;" x1="467.0503" x2="919.1968" y1="562.543" y2="562.543"/><text fill="#000000" font-family="sans-serif" font-size="13" lengthAdjust="spacing" textLength="233.2764" x="474.0503" y="557.8008">eval(rule.dsl, event, memberContext)</text></g><g class="message" data-entity-1="part5" data-entity-2="part3" data-source-line="224" id="msg8"><polygon fill="#073661" points="478.0503,587.8535,468.0503,591.8535,478.0503,595.8535,474.0503,591.8535" style="stroke:#073661;stroke-width:1;stroke-linejoin:miter;stroke-miterlimit:10;"/><line style="stroke:#073661;stroke-width:1;stroke-dasharray:2,2;" x1="472.0503" x2="929.1968" y1="591.8535" y2="591.8535"/><text fill="#000000" font-family="sans-serif" font-size="13" lengthAdjust="spacing" textLength="200.5669" x="484.0503" y="587.1113">{points, qualifying, redeemable}</text></g><g class="message" data-entity-1="part3" data-entity-2="part6" data-source-line="227" id="msg9"><polygon fill="#073661" points="1030.9961,647.7852,1040.9961,651.7852,1030.9961,655.7852,1034.9961,651.7852" style="stroke:#073661;stroke-width:1;stroke-linejoin:miter;stroke-miterlimit:10;"/><line style="stroke:#073661;stroke-width:1;" x1="467.0503" x2="1036.9961" y1="651.7852" y2="651.7852"/><text fill="#000000" font-family="sans-serif" font-size="13" lengthAdjust="spacing" textLength="89.7114" x="474.0503" y="616.4219">tryDecrement(</text><text fill="#000000" font-family="sans-serif" font-size="13" lengthAdjust="spacing" textLength="273.0889" x="482.2769" y="631.7324">scope=(programId, ruleId, memberId, day),</text><text fill="#000000" font-family="sans-serif" font-size="13" lengthAdjust="spacing" textLength="102.3433" x="482.2769" y="647.043">amount=points)</text></g><g class="message" data-entity-1="part6" data-entity-2="part7" data-source-line="229" id="msg10"><polygon fill="#073661" points="1267.9561,710.7168,1277.9561,714.7168,1267.9561,718.7168,1271.9561,714.7168" style="stroke:#073661;stroke-width:1;stroke-linejoin:miter;stroke-miterlimit:10;"/><line style="stroke:#073661;stroke-width:1;" x1="1052.9961" x2="1273.9561" y1="714.7168" y2="714.7168"/><text fill="#000000" font-family="sans-serif" font-size="13" lengthAdjust="spacing" textLength="131.0029" x="1059.9961" y="679.3535">UPDATE cap_counter</text><text fill="#000000" font-family="sans-serif" font-size="13" lengthAdjust="spacing" textLength="202.96" x="1059.9961" y="694.6641">SET remaining = remaining &#8722; :n</text><text fill="#000000" font-family="sans-serif" font-size="13" lengthAdjust="spacing" textLength="141.4829" x="1059.9961" y="709.9746">WHERE remaining &#8805; :n</text></g><path d="M1284,664.7852 L1284,719.7852 L1514,719.7852 L1514,674.7852 L1504,664.7852 L1284,664.7852" fill="#FEFFDD" style="stroke:#181818;stroke-width:0.5;"/><path d="M1504,664.7852 L1504,674.7852 L1514,674.7852 L1504,664.7852" fill="#FEFFDD" style="stroke:#181818;stroke-width:0.5;"/><text fill="#000000" font-family="sans-serif" font-size="13" lengthAdjust="spacing" textLength="155.4414" x="1290" y="682.3535">If UPDATE affects 0 rows</text><text fill="#000000" font-family="sans-serif" font-size="13" lengthAdjust="spacing" textLength="209.9043" x="1290" y="697.6641">&#8594; cap exhausted, fire is dropped</text><text fill="#000000" font-family="sans-serif" font-size="13" lengthAdjust="spacing" textLength="196.3774" x="1290" y="712.9746">(or partial fire, per rule config).</text><g class="message" data-entity-1="part6" data-entity-2="part3" data-source-line="235" id="msg12"><polygon fill="#073661" points="478.0503,743.0273,468.0503,747.0273,478.0503,751.0273,474.0503,747.0273" style="stroke:#073661;stroke-width:1;stroke-linejoin:miter;stroke-miterlimit:10;"/><line style="stroke:#073661;stroke-width:1;stroke-dasharray:2,2;" x1="472.0503" x2="1046.9961" y1="747.0273" y2="747.0273"/><text fill="#000000" font-family="sans-serif" font-size="13" lengthAdjust="spacing" textLength="116.4414" x="484.0503" y="742.2852">{applied, dropped}</text></g><path d="M405.3711,762.0273 L467.5098,762.0273 L467.5098,769.3379 L457.5098,779.3379 L405.3711,779.3379 L405.3711,762.0273" fill="#EEEEEE" style="stroke:#000000;stroke-width:1.5;"/><rect fill="none" height="226.416" style="stroke:#000000;stroke-width:1.5;" width="1348.917" x="405.3711" y="762.0273"/><text fill="#000000" font-family="sans-serif" font-size="13" font-weight="700" lengthAdjust="spacing" textLength="17.1387" x="420.3711" y="775.5957">alt</text><text fill="#000000" font-family="sans-serif" font-size="11" font-weight="700" lengthAdjust="spacing" textLength="73.3423" x="482.5098" y="774.6621">[applied &gt; 0]</text><g class="message" data-entity-1="part3" data-entity-2="part8" data-source-line="239" id="msg13"><polygon fill="#073661" points="1369.4033,857.8906,1379.4033,861.8906,1369.4033,865.8906,1373.4033,861.8906" style="stroke:#073661;stroke-width:1;stroke-linejoin:miter;stroke-miterlimit:10;"/><line style="stroke:#073661;stroke-width:1;" x1="467.0503" x2="1375.4033" y1="861.8906" y2="861.8906"/><text fill="#000000" font-family="sans-serif" font-size="13" lengthAdjust="spacing" textLength="94.3008" x="474.0503" y="795.9063">appendEarned(</text><text fill="#000000" font-family="sans-serif" font-size="13" lengthAdjust="spacing" textLength="142.6826" x="482.2769" y="811.2168">memberId, programId,</text><text fill="#000000" font-family="sans-serif" font-size="13" lengthAdjust="spacing" textLength="223.9644" x="482.2769" y="826.5273">qualifying_delta, redeemable_delta,</text><text fill="#000000" font-family="sans-serif" font-size="13" lengthAdjust="spacing" textLength="185.7642" x="482.2769" y="841.8379">sourceRef = eventId + ruleId,</text><text fill="#000000" font-family="sans-serif" font-size="13" lengthAdjust="spacing" textLength="122.002" x="482.2769" y="857.1484">reason = ruleCode)</text></g><g class="message" data-entity-1="part8" data-entity-2="part9" data-source-line="241" id="msg14"><polygon fill="#073661" points="1569.4707,902.5117,1579.4707,906.5117,1569.4707,910.5117,1573.4707,906.5117" style="stroke:#073661;stroke-width:1;stroke-linejoin:miter;stroke-miterlimit:10;"/><line style="stroke:#073661;stroke-width:1;" x1="1391.4033" x2="1575.4707" y1="906.5117" y2="906.5117"/><text fill="#000000" font-family="sans-serif" font-size="13" lengthAdjust="spacing" textLength="117.9141" x="1398.4033" y="886.459">POST /ledger/earn</text><text fill="#000000" font-family="sans-serif" font-size="13" lengthAdjust="spacing" textLength="166.0674" x="1398.4033" y="901.7695">(idempotency-key header)</text></g><g class="message" data-entity-1="part9" data-entity-2="part8" data-source-line="242" id="msg15"><polygon fill="#073661" points="1397.4033,931.8223,1387.4033,935.8223,1397.4033,939.8223,1393.4033,935.8223" style="stroke:#073661;stroke-width:1;stroke-linejoin:miter;stroke-miterlimit:10;"/><line style="stroke:#073661;stroke-width:1;stroke-dasharray:2,2;" x1="1391.4033" x2="1580.4707" y1="935.8223" y2="935.8223"/><text fill="#000000" font-family="sans-serif" font-size="13" lengthAdjust="spacing" textLength="83.8652" x="1403.4033" y="931.0801">ledgerEntryId</text></g><g class="message" data-entity-1="part3" data-entity-2="part10" data-source-line="245" id="msg16"><polygon fill="#073661" points="1679.8018,976.4434,1689.8018,980.4434,1679.8018,984.4434,1683.8018,980.4434" style="stroke:#073661;stroke-width:1;stroke-linejoin:miter;stroke-miterlimit:10;"/><line style="stroke:#073661;stroke-width:1;" x1="467.0503" x2="1685.8018" y1="980.4434" y2="980.4434"/><text fill="#000000" font-family="sans-serif" font-size="13" lengthAdjust="spacing" textLength="177.9248" x="474.0503" y="960.3906">enqueueEvent(PointsEarned,</text><text fill="#000000" font-family="sans-serif" font-size="13" lengthAdjust="spacing" textLength="329.0308" x="478.1636" y="975.7012">payload = {memberId, points, ruleId, ledgerEntryId})</text></g><g class="message" data-entity-1="part3" data-entity-2="part4" data-source-line="249" id="msg17"><polygon fill="#073661" points="788.1177,1019.7539,798.1177,1023.7539,788.1177,1027.7539,792.1177,1023.7539" style="stroke:#073661;stroke-width:1;stroke-linejoin:miter;stroke-miterlimit:10;"/><line style="stroke:#073661;stroke-width:1;" x1="462.0503" x2="794.1177" y1="1023.7539" y2="1023.7539"/><text fill="#000000" font-family="sans-serif" font-size="13" lengthAdjust="spacing" textLength="309.0674" x="469.0503" y="1019.0117">INSERT idempotency_key(event_id, processed_at)</text></g><g class="message" data-entity-1="part2" data-entity-2="part1" data-source-line="252" id="msg18"><polygon fill="#073661" points="111.8867,1049.0645,101.8867,1053.0645,111.8867,1057.0645,107.8867,1053.0645" style="stroke:#073661;stroke-width:1;stroke-linejoin:miter;stroke-miterlimit:10;"/><line style="stroke:#073661;stroke-width:1;" x1="105.8867" x2="325.0947" y1="1053.0645" y2="1053.0645"/><text fill="#000000" font-family="sans-serif" font-size="13" lengthAdjust="spacing" textLength="87.9277" x="117.8867" y="1048.3223">commit offset</text></g><rect fill="#EEEEEE" height="3" style="stroke:#EEEEEE;stroke-width:1;" width="2005.5967" x="0" y="1081.7197"/><line style="stroke:#000000;stroke-width:1;" x1="0" x2="2005.5967" y1="1081.7197" y2="1081.7197"/><line style="stroke:#000000;stroke-width:1;" x1="0" x2="2005.5967" y1="1084.7197" y2="1084.7197"/><rect fill="#EEEEEE" height="23.3105" style="stroke:#000000;stroke-width:2;" width="213.8496" x="895.8735" y="1071.0645"/><text fill="#000000" font-family="sans-serif" font-size="13" font-weight="700" lengthAdjust="spacing" textLength="195.5649" x="901.8735" y="1087.6328">Outbox drains independently</text><g class="message" data-entity-1="part10" data-entity-2="part11" data-source-line="256" id="msg19"><polygon fill="#073661" points="1882.4185,1121.6855,1892.4185,1125.6855,1882.4185,1129.6855,1886.4185,1125.6855" style="stroke:#073661;stroke-width:1;stroke-linejoin:miter;stroke-miterlimit:10;"/><line style="stroke:#073661;stroke-width:1;" x1="1691.8018" x2="1888.4185" y1="1125.6855" y2="1125.6855"/><text fill="#000000" font-family="sans-serif" font-size="13" lengthAdjust="spacing" textLength="178.6167" x="1698.8018" y="1120.9434">loyalty.earning.PointsEarned</text></g><?plantuml-src XLPHRzis47xNhpXuBtPckoawT4C05qWT5VEM9e7jeNimOD3YoIOYaIf99JM207qQjjTYVs7xOVabErAK9RbTwnTBv4VUtNVVtSaAco5CVu1BlCCCNi3JnxyXKtkMsVq8cPP2RlrQJC_n7KeBJtzyyc_8wH3VeePOMhsF8dChPC4qoy7W-n9bWl0G0PnhhUwdAbCQgjztfp--UFdoEMrTYXGlXSJNIdFK5QRPlM7QYaGKJDfl0rXokzMgb3o0yAVqDCKkw8sIjdl7OnIHfoLwltfl5x-kP0X-x88VMysaoPX5FhvxtWDc83UtQo6ZehaLUeuDgCYPAcdA7BN79k6bYvwNn7WijnHt3-eVeT4lHPnPjc66NEe5_jUQJgoaUriRLUg4NWJ7l52MIDwlRt7lpJcOMVDDrzp5uX9cqg8kD5hdM337JTO5Jbb1xfVo00h0X1McxHMzhvDZN8typ7oGo3GJH4-lmMP-VPraeekljPSeJM66q-Stiq2enYxykhGRzG7ccB5zh-MATWjVpIqHExvHGbfJYVcGNLNQAAhI3ADNXoJ2MLC3A_c0xd_6Xv1Zla7jdWgjjgH-Ubn9S2OMFbbJnP4ssJvJZ3z6BB7YZXJLgEDWWQnL8Y1RUCUoac1zRsZG70ioYIOJc3KYWAtRcqoYS05TLSk1Bbl4b_5q2S_XpVpwBHnfPoNV_HpFO_26reB31Cv2T94a66YntLcgf3aMHAeBqo9vewHl36Qdj1qbGYUbS2YH0iiqCkwH2Hf3nGCBbfFhQKe78vyWkqFeLsgUOpgaiAY7BFS53cY_bC8r43eBPCL1Wn0C-JuamAQqaEoG5RIsmOILf4nXmLX5MgLjJ4afmEJUim3tIj-EYHeEBY3FdQz2ZKPbfG_b6zGzVVot8gzRaxzSpwwWKvWLbpvR2ETN5qT2c9mPdP0y_DQPLFVmEbw-Y-ChyfrqRTRCLgSaTy_T1BmjCoj6FYBIJ9g9nBP2SDmRE3aXBPsS-DHG5lKUScQJdMlZxY21Ka5dY1lkBh5Q49VqBYnnVUyk2LJxX8oXFxs-MiQ_BySvfnOHhFO6BJ8pfGeWlYdIPFUPDO26LcevGTbzjpkczs4bkxgCo8353tRW3nuaxrgLMt3dH-qYUIXy0G_XVSaoaUx9xf0OuOWvssJuM9t2paL7FhdkHZTHh1UOQCp9cRxBZqbKWPD-KzC-e6x1SxOVk5e7bhj-EAcyENBUjq-tuYrL5Yjf_NPpSRwCeTLFLt8HBoc0d0a_U2UjvwS_Fv5WQe6rrl_wXzQzXOvOt6-MraQOBpq3fq33s8HjDyd9Ek277LKG3RcX5uUJ4TUgA907O9-owzikopo2sXafv214iHsC0wr154sydNIneg0vu9YhhlyiGPwiYh_CGe33ApYDwjxUPAwP87GrGSburSbz_lwdBRUKikQOMTRMIrZnwQyx4-KWD4FulfQ00r27Cwvj-3LNsOE3YuTeMZEktcivxMUBThpSN2-MyApQUkRwnKhsMqrwH4qQgDdH5r1Zn1yT7TDGlVZliHa_O5i4jrpw0gL-QheIbNvo-bdNRmz95tgOP1JwGulaK8XraNGSUHpKwd1j8_foevrTBUBvydWuzUkfD6oc2VN5GTIAgPw8xJaQvlSPyPJdD1bKcXgqxLE7yUkcGVYCu9gAYdgXvEZaH9QplPiC5I_XMle-S4n_vLCY-Wy0?></g></svg>