<?xml version="1.0" encoding="UTF-8" standalone="no"?><svg xmlns="http://www.w3.org/2000/svg" xmlns:xlink="http://www.w3.org/1999/xlink" contentScriptType="application/ecmascript" contentStyleType="text/css" height="1125px" preserveAspectRatio="none" style="width:1773px;height:1125px;" version="1.1" viewBox="0 0 1773 1125" width="1773px" zoomAndPan="magnify"><defs><filter height="300%" id="f1ltm2lall1soq" width="300%" x="-1" y="-1"><feGaussianBlur result="blurOut" stdDeviation="2.0"/><feColorMatrix in="blurOut" result="blurOut2" type="matrix" values="0 0 0 0 0 0 0 0 0 0 0 0 0 0 0 0 0 0 .4 0"/><feOffset dx="4.0" dy="4.0" in="blurOut2" result="blurOut3"/><feBlend in="SourceGraphic" in2="blurOut3" mode="normal"/></filter></defs><g><text fill="#000000" font-family="sans-serif" font-size="18" lengthAdjust="spacingAndGlyphs" textLength="344" x="711.5" y="16.708">Threat-Model DFD — Trust Boundaries</text><!--MD5=[56dd4d9a72fa160f898946263eef0017]
cluster TB1 — Internet / Edge--><polygon fill="#FFFFFF" filter="url(#f1ltm2lall1soq)" points="100,319.9531,277,319.9531,284,342.25,322,342.25,322,439.9531,100,439.9531,100,319.9531" style="stroke: #000000; stroke-width: 1.5;"/><line style="stroke: #000000; stroke-width: 1.5;" x1="100" x2="284" y1="342.25" y2="342.25"/><text fill="#000000" font-family="sans-serif" font-size="14" font-weight="bold" lengthAdjust="spacingAndGlyphs" textLength="171" x="104" y="334.9482">TB1 — Internet / Edge</text><!--MD5=[2e3438754815460fa87a1f9962944cb0]
cluster TB2 — Loyalty EKS (mTLS mesh)--><polygon fill="#FFFFFF" filter="url(#f1ltm2lall1soq)" points="22,488.9531,281,488.9531,288,511.25,599,511.25,599,960.9531,22,960.9531,22,488.9531" style="stroke: #000000; stroke-width: 1.5;"/><line style="stroke: #000000; stroke-width: 1.5;" x1="22" x2="288" y1="511.25" y2="511.25"/><text fill="#000000" font-family="sans-serif" font-size="14" font-weight="bold" lengthAdjust="spacingAndGlyphs" textLength="253" x="26" y="503.9482">TB2 — Loyalty EKS (mTLS mesh)</text><!--MD5=[2c9ee39e756146f13e72011398a9cd7e]
cluster TB3 — Data (per-service RDS, KMS)--><polygon fill="#FFFFFF" filter="url(#f1ltm2lall1soq)" points="182,993.9531,465,993.9531,472,1016.25,475,1016.25,475,1113.9531,182,1113.9531,182,993.9531" style="stroke: #000000; stroke-width: 1.5;"/><line style="stroke: #000000; stroke-width: 1.5;" x1="182" x2="472" y1="1016.25" y2="1016.25"/><text fill="#000000" font-family="sans-serif" font-size="14" font-weight="bold" lengthAdjust="spacingAndGlyphs" textLength="277" x="186" y="1008.9482">TB3 — Data (per-service RDS, KMS)</text><!--MD5=[b96bccd4831721bbcadb013841fd8818]
cluster TB4 — Shared MSK (topic ACLs)--><polygon fill="#FFFFFF" filter="url(#f1ltm2lall1soq)" points="886,840.9531,1142,840.9531,1149,863.25,1152,863.25,1152,960.9531,886,960.9531,886,840.9531" style="stroke: #000000; stroke-width: 1.5;"/><line style="stroke: #000000; stroke-width: 1.5;" x1="886" x2="1149" y1="863.25" y2="863.25"/><text fill="#000000" font-family="sans-serif" font-size="14" font-weight="bold" lengthAdjust="spacingAndGlyphs" textLength="250" x="890" y="855.9482">TB4 — Shared MSK (topic ACLs)</text><!--MD5=[7e3c4fc359f992dceb4b9c4b2eb331d5]
cluster TB5 — RDB trust zone--><polygon fill="#FFFFFF" filter="url(#f1ltm2lall1soq)" points="993,655.9531,1171,655.9531,1178,678.25,1247,678.25,1247,791.9531,993,791.9531,993,655.9531" style="stroke: #000000; stroke-width: 1.5;"/><line style="stroke: #000000; stroke-width: 1.5;" x1="993" x2="1178" y1="678.25" y2="678.25"/><text fill="#000000" font-family="sans-serif" font-size="14" font-weight="bold" lengthAdjust="spacingAndGlyphs" textLength="172" x="997" y="670.9482">TB5 — RDB trust zone</text><!--MD5=[4b96c0188276840e125f95168e27d09f]
cluster TB6 — 3rd-party (untrusted)--><polygon fill="#FFFFFF" filter="url(#f1ltm2lall1soq)" points="623,840.9531,852,840.9531,859,863.25,862,863.25,862,960.9531,623,960.9531,623,840.9531" style="stroke: #000000; stroke-width: 1.5;"/><line style="stroke: #000000; stroke-width: 1.5;" x1="623" x2="859" y1="863.25" y2="863.25"/><text fill="#000000" font-family="sans-serif" font-size="14" font-weight="bold" lengthAdjust="spacingAndGlyphs" textLength="223" x="627" y="855.9482">TB6 — 3rd-party (untrusted)</text><!--MD5=[514a85c7c919d983bd956ae17bd5b917]
entity GW--><rect fill="#B0BEC5" filter="url(#f1ltm2lall1soq)" height="68.8906" style="stroke: #424242; stroke-width: 1.5;" width="190" x="116" y="354.9531"/><text fill="#000000" font-family="sans-serif" font-size="14" font-style="italic" lengthAdjust="spacingAndGlyphs" textLength="40" x="191" y="377.9482">«ext»</text><text fill="#000000" font-family="sans-serif" font-size="14" lengthAdjust="spacingAndGlyphs" textLength="169" x="126" y="394.2451">AWS WAF + API Gateway</text><text fill="#000000" font-family="sans-serif" font-size="14" lengthAdjust="spacingAndGlyphs" textLength="170" x="126" y="410.542">(JWT validation, rate-limit)</text><!--MD5=[44d1860c9b1063283711247becf1061c]
entity MBFF--><rect fill="#C8E6C9" filter="url(#f1ltm2lall1soq)" height="52.5938" style="stroke: #424242; stroke-width: 1.5;" width="135" x="222.5" y="531.9531"/><text fill="#000000" font-family="sans-serif" font-size="14" font-style="italic" lengthAdjust="spacingAndGlyphs" textLength="41" x="269.5" y="554.9482">«svc»</text><text fill="#000000" font-family="sans-serif" font-size="14" lengthAdjust="spacingAndGlyphs" textLength="115" x="232.5" y="571.2451">loyalty-mobile-bff</text><!--MD5=[855ea8626f4c4361415bff8bde266126]
entity ABFF--><rect fill="#C8E6C9" filter="url(#f1ltm2lall1soq)" height="52.5938" style="stroke: #424242; stroke-width: 1.5;" width="131" x="56.5" y="531.9531"/><text fill="#000000" font-family="sans-serif" font-size="14" font-style="italic" lengthAdjust="spacingAndGlyphs" textLength="41" x="101.5" y="554.9482">«svc»</text><text fill="#000000" font-family="sans-serif" font-size="14" lengthAdjust="spacingAndGlyphs" textLength="111" x="66.5" y="571.2451">loyalty-admin-bff</text><!--MD5=[beb2c6f3e261f57f92b25966c3979753]
entity CORE--><rect fill="#C8E6C9" filter="url(#f1ltm2lall1soq)" height="68.8906" style="stroke: #424242; stroke-width: 1.5;" width="98" x="132" y="875.9531"/><text fill="#000000" font-family="sans-serif" font-size="14" font-style="italic" lengthAdjust="spacingAndGlyphs" textLength="41" x="160.5" y="898.9482">«svc»</text><text fill="#000000" font-family="sans-serif" font-size="14" lengthAdjust="spacingAndGlyphs" textLength="78" x="142" y="915.2451">loyalty-core</text><text fill="#000000" font-family="sans-serif" font-size="14" lengthAdjust="spacingAndGlyphs" textLength="58" x="142" y="931.542">(Ledger)</text><!--MD5=[4c81d598e192b87a644117f118ecedf4]
entity EARN--><rect fill="#C8E6C9" filter="url(#f1ltm2lall1soq)" height="52.5938" style="stroke: #424242; stroke-width: 1.5;" width="119" x="281.5" y="706.9531"/><text fill="#000000" font-family="sans-serif" font-size="14" font-style="italic" lengthAdjust="spacingAndGlyphs" textLength="41" x="320.5" y="729.9482">«svc»</text><text fill="#000000" font-family="sans-serif" font-size="14" lengthAdjust="spacingAndGlyphs" textLength="99" x="291.5" y="746.2451">loyalty-earning</text><!--MD5=[0aa489e7c089e2db4909397287d284b2]
entity REDM--><rect fill="#C8E6C9" filter="url(#f1ltm2lall1soq)" height="52.5938" style="stroke: #424242; stroke-width: 1.5;" width="147" x="435.5" y="706.9531"/><text fill="#000000" font-family="sans-serif" font-size="14" font-style="italic" lengthAdjust="spacingAndGlyphs" textLength="41" x="488.5" y="729.9482">«svc»</text><text fill="#000000" font-family="sans-serif" font-size="14" lengthAdjust="spacingAndGlyphs" textLength="127" x="445.5" y="746.2451">loyalty-redemption</text><!--MD5=[5324059c7bb1c38568dd4ba01fe1f7ad]
entity CAMP--><rect fill="#C8E6C9" filter="url(#f1ltm2lall1soq)" height="52.5938" style="stroke: #424242; stroke-width: 1.5;" width="134" x="112" y="706.9531"/><text fill="#000000" font-family="sans-serif" font-size="14" font-style="italic" lengthAdjust="spacingAndGlyphs" textLength="41" x="158.5" y="729.9482">«svc»</text><text fill="#000000" font-family="sans-serif" font-size="14" lengthAdjust="spacingAndGlyphs" textLength="114" x="122" y="746.2451">loyalty-campaign</text><!--MD5=[2df5488d52651f5b0c1faa5c9cf1c837]
entity BRIDGE--><rect fill="#C8E6C9" filter="url(#f1ltm2lall1soq)" height="68.8906" style="stroke: #424242; stroke-width: 1.5;" width="190" x="393" y="523.9531"/><text fill="#000000" font-family="sans-serif" font-size="14" font-style="italic" lengthAdjust="spacingAndGlyphs" textLength="41" x="467.5" y="546.9482">«svc»</text><text fill="#000000" font-family="sans-serif" font-size="14" lengthAdjust="spacingAndGlyphs" textLength="170" x="403" y="563.2451">loyalty-integration-bridge</text><text fill="#000000" font-family="sans-serif" font-size="14" lengthAdjust="spacingAndGlyphs" textLength="156" x="403" y="579.542">(ACL + DLQ + velocity)</text><!--MD5=[6648256f2352bd1864363e9ab5d759b2]
entity RDS--><rect fill="#BBDEFB" filter="url(#f1ltm2lall1soq)" height="68.8906" style="stroke: #424242; stroke-width: 1.5;" width="198" x="229" y="1028.9531"/><text fill="#000000" font-family="sans-serif" font-size="14" font-style="italic" lengthAdjust="spacingAndGlyphs" textLength="53" x="301.5" y="1051.9482">«store»</text><text fill="#000000" font-family="sans-serif" font-size="14" lengthAdjust="spacingAndGlyphs" textLength="178" x="239" y="1068.2451">core/earning/redemption/</text><text fill="#000000" font-family="sans-serif" font-size="14" lengthAdjust="spacingAndGlyphs" textLength="101" x="239" y="1084.542">campaign RDS</text><!--MD5=[912d88ab665cec81a506bf04144f8c77]
entity MSK--><rect fill="#B0BEC5" filter="url(#f1ltm2lall1soq)" height="68.8906" style="stroke: #424242; stroke-width: 1.5;" width="224" x="902" y="875.9531"/><text fill="#000000" font-family="sans-serif" font-size="14" font-style="italic" lengthAdjust="spacingAndGlyphs" textLength="40" x="994" y="898.9482">«ext»</text><text fill="#000000" font-family="sans-serif" font-size="14" lengthAdjust="spacingAndGlyphs" textLength="173" x="912" y="915.2451">loyalty.* / paymenthub.* /</text><text fill="#000000" font-family="sans-serif" font-size="14" lengthAdjust="spacingAndGlyphs" textLength="204" x="912" y="931.542">t24adapter.* / rdb.customer.*</text><!--MD5=[d8c8393a7608642806b1c0f4f68ddfd4]
entity RDB--><rect fill="#B0BEC5" filter="url(#f1ltm2lall1soq)" height="85.1875" style="stroke: #424242; stroke-width: 1.5;" width="223" x="1008.5" y="690.9531"/><text fill="#000000" font-family="sans-serif" font-size="14" font-style="italic" lengthAdjust="spacingAndGlyphs" textLength="40" x="1100" y="713.9482">«ext»</text><text fill="#000000" font-family="sans-serif" font-size="14" lengthAdjust="spacingAndGlyphs" textLength="175" x="1018.5" y="730.2451">Keycloak / Payment Hub /</text><text fill="#000000" font-family="sans-serif" font-size="14" lengthAdjust="spacingAndGlyphs" textLength="203" x="1018.5" y="746.542">T24 Adapter / Customer Svc /</text><text fill="#000000" font-family="sans-serif" font-size="14" lengthAdjust="spacingAndGlyphs" textLength="129" x="1018.5" y="762.8389">notification-service</text><!--MD5=[c3698d9ff75dde8f369d6fd394df1437]
entity PART--><rect fill="#B0BEC5" filter="url(#f1ltm2lall1soq)" height="68.8906" style="stroke: #424242; stroke-width: 1.5;" width="139" x="650.5" y="875.9531"/><text fill="#000000" font-family="sans-serif" font-size="14" font-style="italic" lengthAdjust="spacingAndGlyphs" textLength="40" x="700" y="898.9482">«ext»</text><text fill="#000000" font-family="sans-serif" font-size="14" lengthAdjust="spacingAndGlyphs" textLength="112" x="660.5" y="915.2451">Voucher Partner</text><text fill="#000000" font-family="sans-serif" font-size="14" lengthAdjust="spacingAndGlyphs" textLength="119" x="660.5" y="931.542">(HMAC webhook)</text><!--MD5=[c72e14692f063a08d1023b5b76acc947]
entity M--><ellipse cx="116" cy="54.9531" fill="#FEFECE" filter="url(#f1ltm2lall1soq)" rx="8" ry="8" style="stroke: #A80036; stroke-width: 1.5;"/><path d="M116,62.9531 L116,89.9531 M103,70.9531 L129,70.9531 M116,89.9531 L103,104.9531 M116,89.9531 L129,104.9531 " fill="none" filter="url(#f1ltm2lall1soq)" style="stroke: #A80036; stroke-width: 1.5;"/><text fill="#000000" font-family="sans-serif" font-size="14" lengthAdjust="spacingAndGlyphs" textLength="57" x="87.5" y="123.4482">Member</text><!--MD5=[68f82070d0aec4ff4b64d9b1102926da]
entity E--><ellipse cx="306" cy="38.4531" fill="#FEFECE" filter="url(#f1ltm2lall1soq)" rx="8" ry="8" style="stroke: #A80036; stroke-width: 1.5;"/><path d="M306,46.4531 L306,73.4531 M293,54.4531 L319,54.4531 M306,73.4531 L293,88.4531 M306,73.4531 L319,88.4531 " fill="none" filter="url(#f1ltm2lall1soq)" style="stroke: #A80036; stroke-width: 1.5;"/><text fill="#000000" font-family="sans-serif" font-size="14" lengthAdjust="spacingAndGlyphs" textLength="100" x="218.5" y="106.9482">BEP Employee</text><text fill="#000000" font-family="sans-serif" font-size="14" lengthAdjust="spacingAndGlyphs" textLength="114" x="218.5" y="123.2451">(maker/checker/</text><text fill="#000000" font-family="sans-serif" font-size="14" lengthAdjust="spacingAndGlyphs" textLength="175" x="218.5" y="139.542">campaign-mgr/fraud-ops)</text><!--MD5=[6e8f311b0aa23032184ffba0ef926f91]
entity App--><rect fill="#FFE0B2" filter="url(#f1ltm2lall1soq)" height="52.5938" style="stroke: #424242; stroke-width: 1.5;" width="131" x="50.5" y="203.9531"/><text fill="#000000" font-family="sans-serif" font-size="14" font-style="italic" lengthAdjust="spacingAndGlyphs" textLength="53" x="89.5" y="226.9482">«actor»</text><text fill="#000000" font-family="sans-serif" font-size="14" lengthAdjust="spacingAndGlyphs" textLength="111" x="60.5" y="243.2451">RDB Mobile App</text><!--MD5=[04c63e72a91aecb59ebeb8a016a4f84c]
entity BEP--><rect fill="#FFE0B2" filter="url(#f1ltm2lall1soq)" height="52.5938" style="stroke: #424242; stroke-width: 1.5;" width="73" x="269.5" y="203.9531"/><text fill="#000000" font-family="sans-serif" font-size="14" font-style="italic" lengthAdjust="spacingAndGlyphs" textLength="53" x="279.5" y="226.9482">«actor»</text><text fill="#000000" font-family="sans-serif" font-size="14" lengthAdjust="spacingAndGlyphs" textLength="28" x="292" y="243.2451">BEP</text><!--MD5=[5ed471d0653a29aa5c8567361eb97fc4]
link M to App--><path d="M116,126.6431 C116,149.4231 116,177.5931 116,198.6731 " fill="none" id="M-&gt;App" style="stroke: #A80036; stroke-width: 1.0;"/><polygon fill="#A80036" points="116,203.8831,120,194.8831,116,198.8831,112,194.8831,116,203.8831" style="stroke: #A80036; stroke-width: 1.0;"/><!--MD5=[34961f02096bff9b33456766bbbbe794]
link E to BEP--><path d="M306,143.2731 C306,162.0031 306,182.1731 306,198.2931 " fill="none" id="E-&gt;BEP" style="stroke: #A80036; stroke-width: 1.0;"/><polygon fill="#A80036" points="306,203.5931,310,194.5931,306,198.5931,302,194.5931,306,203.5931" style="stroke: #A80036; stroke-width: 1.0;"/><!--MD5=[be1103ed4c6799250d9ce4826d2c4791]
link App to GW--><path d="M109.41,257.0431 C107.02,271.4531 106.34,289.4031 113,303.9531 C121.54,322.5931 136.45,338.6831 152.09,351.6731 " fill="none" id="App-&gt;GW" style="stroke: #A80036; stroke-width: 1.0;"/><polygon fill="#A80036" points="156.09,354.9031,151.6079,346.1333,152.2024,351.7588,146.5769,352.3533,156.09,354.9031" style="stroke: #A80036; stroke-width: 1.0;"/><text fill="#000000" font-family="sans-serif" font-size="13" lengthAdjust="spacingAndGlyphs" textLength="148" x="114" y="300.02">HTTPS+JWT (customer)</text><!--MD5=[499817ff4d549f158de64a1c039aa5d6]
link BEP to GW--><path d="M292.85,257.2731 C285.54,271.2631 276.1,288.7431 267,303.9531 C257.74,319.4131 246.93,336.0331 237.29,350.4031 " fill="none" id="BEP-&gt;GW" style="stroke: #A80036; stroke-width: 1.0;"/><polygon fill="#A80036" points="234.34,354.7831,242.6813,349.5465,237.13,350.6339,236.0426,345.0826,234.34,354.7831" style="stroke: #A80036; stroke-width: 1.0;"/><text fill="#000000" font-family="sans-serif" font-size="13" lengthAdjust="spacingAndGlyphs" textLength="150" x="277" y="300.02">HTTPS+JWT (employee)</text><!--MD5=[0567df565dd1707105bae268cafc1754]
link GW to MBFF--><path d="M232.51,424.2131 C238.52,434.2431 244.81,445.3831 250,455.9531 C261.43,479.2531 272.09,506.6831 279.52,527.1531 " fill="none" id="GW-&gt;MBFF" style="stroke: #A80036; stroke-width: 1.0;"/><polygon fill="#A80036" points="281.24,531.9331,281.9667,522.1111,279.552,527.2267,274.4364,524.812,281.24,531.9331" style="stroke: #A80036; stroke-width: 1.0;"/><text fill="#000000" font-family="sans-serif" font-size="13" lengthAdjust="spacingAndGlyphs" textLength="126" x="258" y="469.02">/api/loyalty/mobile/*</text><!--MD5=[e722579dae1d08c436af2add7f4587e4]
link GW to ABFF--><path d="M144.92,424.0231 C133.68,432.8231 123.54,443.4331 117,455.9531 C105.66,477.6731 108.1,505.6931 112.7,526.7931 " fill="none" id="GW-&gt;ABFF" style="stroke: #A80036; stroke-width: 1.0;"/><polygon fill="#A80036" points="113.84,531.7231,115.7055,522.0526,112.7115,526.8521,107.912,523.8581,113.84,531.7231" style="stroke: #A80036; stroke-width: 1.0;"/><text fill="#000000" font-family="sans-serif" font-size="13" lengthAdjust="spacingAndGlyphs" textLength="123" x="118" y="469.02">/api/loyalty/admin/*</text><!--MD5=[bb4f7723e35a6bd73bf7bac5b05b74a5]
link MBFF to CORE--><path d="M225.61,584.9731 C171.9,606.8331 102.74,636.5431 94,647.9531 C69.82,679.5131 50.2,789.4031 68,824.9531 C80.6,850.1031 104.64,869.6931 127.31,883.6531 " fill="none" id="MBFF-&gt;CORE" style="stroke: #A80036; stroke-width: 1.0;"/><polygon fill="#A80036" points="131.82,886.3731,126.1605,878.3127,127.5325,883.8006,122.0446,885.1726,131.82,886.3731" style="stroke: #A80036; stroke-width: 1.0;"/><!--MD5=[4214387bd2edc1b2f9db8503cec7f2eb]
link MBFF to REDM--><path d="M329.98,584.9631 C355.78,601.9231 389.67,625.2031 418,647.9531 C439.41,665.1431 462.04,686.1531 479.38,702.9131 " fill="none" id="MBFF-&gt;REDM" style="stroke: #A80036; stroke-width: 1.0;"/><polygon fill="#A80036" points="483.22,706.6431,479.5548,697.5016,479.6348,703.1579,473.9785,703.2379,483.22,706.6431" style="stroke: #A80036; stroke-width: 1.0;"/><!--MD5=[7290dcceca1cf4c07b097b96361400dc]
link MBFF to CAMP--><path d="M273.62,584.9831 C253.54,616.2831 219.54,669.2631 198.24,702.4731 " fill="none" id="MBFF-&gt;CAMP" style="stroke: #A80036; stroke-width: 1.0;"/><polygon fill="#A80036" points="195.45,706.8231,203.6732,701.4029,198.1473,702.6131,196.9371,697.0872,195.45,706.8231" style="stroke: #A80036; stroke-width: 1.0;"/><!--MD5=[733efe0a569a5a39a358a81db60108fb]
link ABFF to CORE--><path d="M93.67,585.0631 C83.6,595.7631 73.23,608.9631 67,622.9531 C30.26,705.5031 -0.04,746.0531 44,824.9531 C61.71,856.6831 96.78,877.9831 127,891.2631 " fill="none" id="ABFF-&gt;CORE" style="stroke: #A80036; stroke-width: 1.0;"/><polygon fill="#A80036" points="131.81,893.3231,125.1134,886.1013,127.2143,891.3535,121.962,893.4544,131.81,893.3231" style="stroke: #A80036; stroke-width: 1.0;"/><!--MD5=[0de9b9541105b5305b874b98f2e00fb1]
link ABFF to EARN--><path d="M170.25,585.1031 C198.82,601.3431 234.99,623.7831 264,647.9531 C283.54,664.2331 302.81,685.3831 317.19,702.4531 " fill="none" id="ABFF-&gt;EARN" style="stroke: #A80036; stroke-width: 1.0;"/><polygon fill="#A80036" points="320.73,706.7031,318.0447,697.2274,317.5305,702.8608,311.897,702.3466,320.73,706.7031" style="stroke: #A80036; stroke-width: 1.0;"/><!--MD5=[acac11df0c2fc225e9726d5d1c34935d]
link ABFF to REDM--><path d="M182.88,584.9931 C190.29,587.8131 197.78,590.5331 205,592.9531 C280.94,618.4331 301.06,621.4531 379,639.9531 C396.22,644.0431 402.27,639.8531 418,647.9531 C443.84,661.2531 467.7,683.9731 484.5,702.5131 " fill="none" id="ABFF-&gt;REDM" style="stroke: #A80036; stroke-width: 1.0;"/><polygon fill="#A80036" points="488.19,706.6431,485.1803,697.2654,484.8602,702.9132,479.2124,702.5931,488.19,706.6431" style="stroke: #A80036; stroke-width: 1.0;"/><!--MD5=[a0d9b11d5b24ff93b74d142737a690ea]
link ABFF to CAMP--><path d="M130.41,584.9831 C140.68,616.1531 158.04,668.8331 168.99,702.0631 " fill="none" id="ABFF-&gt;CAMP" style="stroke: #A80036; stroke-width: 1.0;"/><polygon fill="#A80036" points="170.55,706.8231,171.5164,697.0218,168.9774,702.0769,163.9224,699.5379,170.55,706.8231" style="stroke: #A80036; stroke-width: 1.0;"/><!--MD5=[5eb43543b0b69bd1977f92c7cfe1f5a9]
link EARN to CORE--><path d="M319.16,760.0331 C305.06,774.5831 285.4,791.5431 264,799.9531 C245.37,807.2831 97.84,793.4831 84,807.9531 C59.81,833.2431 93.25,862.0831 127.3,882.5431 " fill="none" id="EARN-&gt;CORE" style="stroke: #A80036; stroke-width: 1.0;"/><polygon fill="#A80036" points="131.88,885.2431,126.1495,877.233,127.57,882.7087,122.0943,884.1291,131.88,885.2431" style="stroke: #A80036; stroke-width: 1.0;"/><text fill="#000000" font-family="sans-serif" font-size="13" lengthAdjust="spacingAndGlyphs" textLength="115" x="85" y="821.02">POST /ledger/earn</text><!--MD5=[c72459c6505c30e5667553a899ec7138]
link REDM to CORE--><path d="M481.9,760.2831 C464.94,774.7231 441.85,791.4831 418,799.9531 C389.47,810.0831 309.6,795.5131 282,807.9531 C251.7,821.6031 225.51,848.6731 207.39,871.4331 " fill="none" id="REDM-&gt;CORE" style="stroke: #A80036; stroke-width: 1.0;"/><polygon fill="#A80036" points="204.1,875.6231,212.8049,871.0161,207.1885,871.691,206.5136,866.0746,204.1,875.6231" style="stroke: #A80036; stroke-width: 1.0;"/><text fill="#000000" font-family="sans-serif" font-size="13" lengthAdjust="spacingAndGlyphs" textLength="152" x="283" y="821.02">reserve/commit/release</text><!--MD5=[8f9ed4d0a1a6f12a453d0b1cc758f1de]
link MBFF to RDB--><path d="M348.47,585.0031 C357.54,588.1531 366.92,590.9631 376,592.9531 C639.73,650.8031 730.85,546.3431 981,647.9531 C1006.99,658.5131 1033.73,673.5931 1056.73,688.1031 " fill="none" id="MBFF-&gt;RDB" style="stroke: #A80036; stroke-width: 1.0; stroke-dasharray: 7.0,7.0;"/><polygon fill="#A80036" points="1060.98,690.8031,1055.5076,682.6145,1056.7529,688.1326,1051.2348,689.3779,1060.98,690.8031" style="stroke: #A80036; stroke-width: 1.0;"/><text fill="#000000" font-family="sans-serif" font-size="13" lengthAdjust="spacingAndGlyphs" textLength="185" x="952" y="636.02">tx-PIN step-up, display-name</text><!--MD5=[8f9ed4d0a1a6f12a453d0b1cc758f1de]
link MBFF to RDB--><path d="M349.46,585.0831 C358.24,588.1431 367.27,590.9031 376,592.9531 C384.21,594.8831 972.99,645.3131 981,647.9531 C1008.77,657.1131 1036.82,672.6831 1060.38,687.9831 " fill="none" id="MBFF-&gt;RDB-1" style="stroke: #A80036; stroke-width: 1.0; stroke-dasharray: 7.0,7.0;"/><polygon fill="#A80036" points="1064.73,690.8431,1059.4144,682.5519,1060.5545,688.0927,1055.0137,689.2328,1064.73,690.8431" style="stroke: #A80036; stroke-width: 1.0;"/><!--MD5=[62f53523f45ccea64e4fb4de093838d8]
link CORE to RDS--><path d="M213.62,944.9631 C236.67,968.6331 267.57,1000.3831 291.44,1024.9031 " fill="none" id="CORE-&gt;RDS" style="stroke: #A80036; stroke-width: 1.0;"/><polygon fill="#A80036" points="295.21,1028.7731,291.8048,1019.5317,291.7248,1025.188,286.0685,1025.108,295.21,1028.7731" style="stroke: #A80036; stroke-width: 1.0;"/><!--MD5=[2479f38fa8b78e9285223bfe8c54f645]
link EARN to RDS--><path d="M368.21,760.0331 C380.11,773.0931 392.76,789.9831 399,807.9531 C401.48,815.0931 400.09,817.4731 399,824.9531 C388.45,897.0631 360.8,977.6831 343.28,1024.0131 " fill="none" id="EARN-&gt;RDS" style="stroke: #A80036; stroke-width: 1.0;"/><polygon fill="#A80036" points="341.4,1028.9431,348.3312,1021.9461,343.1728,1024.268,340.851,1019.1096,341.4,1028.9431" style="stroke: #A80036; stroke-width: 1.0;"/><!--MD5=[19825627b7f5fd43c133adfd481a8099]
link REDM to RDS--><path d="M500.38,760.2531 C484.93,804.7331 450.02,897.8831 406,968.9531 C393.89,988.5031 377.99,1008.3231 363.7,1024.6531 " fill="none" id="REDM-&gt;RDS" style="stroke: #A80036; stroke-width: 1.0;"/><polygon fill="#A80036" points="360.11,1028.7231,369.0712,1024.6369,363.4247,1024.9798,363.0818,1019.3333,360.11,1028.7231" style="stroke: #A80036; stroke-width: 1.0;"/><!--MD5=[938b8f4a548a6646e5b5e744a6c94953]
link CAMP to RDS--><path d="M118.35,760.0431 C98.66,771.6131 79.05,787.3931 68,807.9531 C42.62,855.2031 -48.07,789.3131 114,968.9531 C142.97,1001.0631 184.95,1022.6431 224.07,1036.9031 " fill="none" id="CAMP-&gt;RDS" style="stroke: #A80036; stroke-width: 1.0;"/><polygon fill="#A80036" points="228.82,1038.6031,221.6988,1031.7995,224.1136,1036.9151,218.998,1039.3298,228.82,1038.6031" style="stroke: #A80036; stroke-width: 1.0;"/><!--MD5=[96c1a8b6b55206ead2742904ed4e7d72]
link RDB to MSK--><path d="M1117.03,776.3731 C1114.56,792.3231 1110.08,810.2031 1102,824.9531 C1092.25,842.7631 1077.46,859.0831 1062.77,872.5331 " fill="none" id="RDB-&gt;MSK" style="stroke: #A80036; stroke-width: 1.0;"/><polygon fill="#A80036" points="1059.04,875.8931,1068.4113,872.8635,1062.7628,872.5554,1063.0709,866.9069,1059.04,875.8931" style="stroke: #A80036; stroke-width: 1.0;"/><text fill="#000000" font-family="sans-serif" font-size="13" lengthAdjust="spacingAndGlyphs" textLength="295" x="1110" y="821.02">paymenthub.* / t24adapter.* / rdb.customer.*</text><!--MD5=[b461d8343381836d734dbdefbd549f99]
link MSK to RDB--><path d="M941.59,875.9331 C909.94,856.8331 884.41,831.9631 906,807.9531 C917.21,795.4931 964.86,804.4731 981,799.9531 C1000.3,794.5431 1020.24,786.6631 1038.79,778.2331 " fill="none" id="MSK-&gt;RDB" style="stroke: #A80036; stroke-width: 1.0;"/><polygon fill="#A80036" points="1043.47,776.0831,1033.6219,776.2032,1038.926,778.1694,1036.9598,783.4735,1043.47,776.0831" style="stroke: #A80036; stroke-width: 1.0;"/><text fill="#000000" font-family="sans-serif" font-size="13" lengthAdjust="spacingAndGlyphs" textLength="186" x="907" y="821.02">loyalty.* (notification-service)</text><!--MD5=[7129688510821cfc1ab01c7c46f8c602]
link MSK to BRIDGE--><path d="M1126.02,908.9131 C1304.62,905.4131 1641.4,887.0931 1716,799.9531 C1759.93,748.6331 1761.1,698.2431 1716,647.9531 C1641.38,564.7431 868.93,558.4231 588.78,558.9031 " fill="none" id="MSK-&gt;BRIDGE" style="stroke: #A80036; stroke-width: 1.0;"/><polygon fill="#A80036" points="583.47,558.9131,592.47,562.9131,588.47,558.9131,592.47,554.9131,583.47,558.9131" style="stroke: #A80036; stroke-width: 1.0;"/><!--MD5=[e75dbbc14c2478e6761bec0bb15ef6da]
link BRIDGE to MSK--><path d="M583.25,561.6831 C760.89,567.2831 1134.93,586.2431 1247,647.9531 C1337.04,697.5331 1373.65,713.4131 1414,807.9531 C1437.65,863.3631 1257.61,889.7731 1131.3,901.3731 " fill="none" id="BRIDGE-&gt;MSK" style="stroke: #A80036; stroke-width: 1.0;"/><polygon fill="#A80036" points="1126.07,901.8531,1135.3886,905.0411,1131.0504,901.4107,1134.6808,897.0725,1126.07,901.8531" style="stroke: #A80036; stroke-width: 1.0;"/><text fill="#000000" font-family="sans-serif" font-size="13" lengthAdjust="spacingAndGlyphs" textLength="245" x="1410" y="738.02">loyalty.earn.translated / fraud.alert / ...</text><!--MD5=[a3e533e9b39788042c43cf07c72e0c82]
link EARN to MSK--><path d="M362.77,760.2131 C376.85,774.8231 396.51,791.7831 418,799.9531 C456.85,814.7131 751.48,798.6731 792,807.9531 C807.53,811.5131 881.37,845.8931 939.69,873.6631 " fill="none" id="EARN-&gt;MSK" style="stroke: #A80036; stroke-width: 1.0;"/><polygon fill="#A80036" points="944.22,875.8231,937.8241,868.3336,939.7086,873.6674,934.3749,875.5519,944.22,875.8231" style="stroke: #A80036; stroke-width: 1.0;"/><!--MD5=[2780344b7e61a7499432216a7761d378]
link CORE to MSK--><path d="M230.08,891.2031 C333.72,853.1031 582.34,775.2031 788.5,816.4531 C843.48,827.4531 901.8,852.1531 945.36,873.4731 " fill="none" id="CORE-&gt;MSK" style="stroke: #A80036; stroke-width: 1.0;"/><polygon fill="#A80036" points="950.06,875.7931,943.7603,868.2226,945.5765,873.5799,940.2191,875.3962,950.06,875.7931" style="stroke: #A80036; stroke-width: 1.0;"/><!--MD5=[177f0d30774e9220c35ffd44170ffad3]
link REDM to MSK--><path d="M565.71,759.9631 C600.54,774.3831 646.49,791.2331 689,799.9531 C751.79,812.8331 771.46,790.0331 833,807.9531 C880.37,821.7431 928.85,849.8231 963.7,872.9531 " fill="none" id="REDM-&gt;MSK" style="stroke: #A80036; stroke-width: 1.0;"/><polygon fill="#A80036" points="967.88,875.7531,962.6434,867.4118,963.7308,872.9631,958.1794,874.0505,967.88,875.7531" style="stroke: #A80036; stroke-width: 1.0;"/><!--MD5=[383c3896b936e70fb54e91d118a37432]
link CAMP to MSK--><path d="M203.53,760.2731 C219.25,774.9131 240.97,791.8831 264,799.9531 C311.19,816.4931 664.49,800.8931 714,807.9531 C755.95,813.9331 765.63,820.0731 806,832.9531 C844.76,845.3231 887,860.5231 923.22,874.1131 " fill="none" id="CAMP-&gt;MSK" style="stroke: #A80036; stroke-width: 1.0;"/><polygon fill="#A80036" points="928.06,875.9331,921.0375,869.0277,923.3784,874.1775,918.2285,876.5183,928.06,875.9331" style="stroke: #A80036; stroke-width: 1.0;"/><!--MD5=[da04f33f09453ae2a109b582dddb545e]
link PART to BRIDGE--><path d="M720.86,875.6031 C720.35,855.4131 717.9,829.5731 710,807.9531 C680.39,726.8931 658.96,710.9631 600,647.9531 C582.53,629.2831 560.94,611.2831 541.4,596.4431 " fill="none" id="PART-&gt;BRIDGE" style="stroke: #A80036; stroke-width: 1.0;"/><polygon fill="#A80036" points="537,593.1331,541.7804,601.7441,540.9931,596.1422,546.595,595.355,537,593.1331" style="stroke: #A80036; stroke-width: 1.0;"/><text fill="#000000" font-family="sans-serif" font-size="13" lengthAdjust="spacingAndGlyphs" textLength="239" x="707" y="738.02">HTTPS POST (HMAC-signed webhook)</text><!--MD5=[78dd2c63ba862ddb29b8af72ce66a3b6]
link REDM to PART--><path d="M503.3,760.3331 C500.46,780.7131 500.57,808.3731 517,824.9531 C529.89,837.9531 581.68,827.0131 599,832.9531 C625.45,842.0231 652.02,857.9031 673.49,872.8431 " fill="none" id="REDM-&gt;PART" style="stroke: #A80036; stroke-width: 1.0; stroke-dasharray: 7.0,7.0;"/><polygon fill="#A80036" points="677.72,875.8131,672.6624,867.362,673.6312,872.9353,668.0579,873.9041,677.72,875.8131" style="stroke: #A80036; stroke-width: 1.0;"/><text fill="#000000" font-family="sans-serif" font-size="13" lengthAdjust="spacingAndGlyphs" textLength="187" x="518" y="821.02">voucher provision (outbound)</text><!--MD5=[4249499da0c13426a81258e6f0e58783]
@startuml LoyaltyThreatDFD
title Threat-Model DFD — Trust Boundaries

skinparam rectangle {
  BackgroundColor<<actor>> #FFE0B2
  BackgroundColor<<svc>> #C8E6C9
  BackgroundColor<<store>> #BBDEFB
  BackgroundColor<<ext>> #B0BEC5
  BorderColor #424242
}

actor "Member" as M
actor "BEP Employee\n(maker/checker/\ncampaign-mgr/fraud-ops)" as E

rectangle "RDB Mobile App" <<actor>> as App
rectangle "BEP" <<actor>> as BEP

package "TB1 — Internet / Edge" {
  rectangle "AWS WAF + API Gateway\n(JWT validation, rate-limit)" <<ext>> as GW
}

package "TB2 — Loyalty EKS (mTLS mesh)" {
  rectangle "loyalty-mobile-bff" <<svc>> as MBFF
  rectangle "loyalty-admin-bff" <<svc>> as ABFF
  rectangle "loyalty-core\n(Ledger)" <<svc>> as CORE
  rectangle "loyalty-earning" <<svc>> as EARN
  rectangle "loyalty-redemption" <<svc>> as REDM
  rectangle "loyalty-campaign" <<svc>> as CAMP
  rectangle "loyalty-integration-bridge\n(ACL + DLQ + velocity)" <<svc>> as BRIDGE
}

package "TB3 — Data (per-service RDS, KMS)" {
  rectangle "core/earning/redemption/\ncampaign RDS" <<store>> as RDS
}

package "TB4 — Shared MSK (topic ACLs)" {
  rectangle "loyalty.* / paymenthub.* /\nt24adapter.* / rdb.customer.*" <<ext>> as MSK
}

package "TB5 — RDB trust zone" {
  rectangle "Keycloak / Payment Hub /\nT24 Adapter / Customer Svc /\nnotification-service" <<ext>> as RDB
}

package "TB6 — 3rd-party (untrusted)" {
  rectangle "Voucher Partner\n(HMAC webhook)" <<ext>> as PART
}

M - -> App
E - -> BEP
App - -> GW : HTTPS+JWT (customer)
BEP - -> GW : HTTPS+JWT (employee)
GW - -> MBFF : /api/loyalty/mobile/*
GW - -> ABFF : /api/loyalty/admin/*
MBFF - -> CORE
MBFF - -> REDM
MBFF - -> CAMP
ABFF - -> CORE
ABFF - -> EARN
ABFF - -> REDM
ABFF - -> CAMP
EARN - -> CORE : POST /ledger/earn
REDM - -> CORE : reserve/commit/release
MBFF ..> RDB : tx-PIN step-up, display-name
MBFF ..> RDB
CORE - -> RDS
EARN - -> RDS
REDM - -> RDS
CAMP - -> RDS
RDB - -> MSK : paymenthub.* / t24adapter.* / rdb.customer.*
MSK - -> BRIDGE
BRIDGE - -> MSK : loyalty.earn.translated / fraud.alert / ...
EARN - -> MSK
CORE - -> MSK
REDM - -> MSK
CAMP - -> MSK
MSK - -> RDB : loyalty.* (notification-service)
PART - -> BRIDGE : HTTPS POST (HMAC-signed webhook)
REDM ..> PART : voucher provision (outbound)

@enduml

PlantUML version 1.2020.02(Sun Mar 01 10:22:07 UTC 2020)
(GPL source distribution)
Java Runtime: OpenJDK Runtime Environment
JVM: OpenJDK 64-Bit Server VM
Java Version: 21+35-LTS
Operating System: Linux
Default Encoding: UTF-8
Language: en
Country: null
--></g></svg>