<svg xmlns="http://www.w3.org/2000/svg" xmlns:xlink="http://www.w3.org/1999/xlink" contentStyleType="text/css" data-diagram-type="DESCRIPTION" height="844px" preserveAspectRatio="none" style="width:1729px;height:844px;background:#FFFFFF;" version="1.1" viewBox="0 0 1729 844" width="1729px" zoomAndPan="magnify"><?plantuml 1.2026.4?><defs/><g><g class="title" data-source-line="454"><text fill="#000000" font-family="sans-serif" font-size="14" font-weight="700" lengthAdjust="spacing" textLength="285.8857" x="718.1768" y="23.5352">Bounded Context Map &#8212; Digital Loyalty</text></g><!--entity MS--><g class="entity" data-qualified-name="MS" data-source-line="463" id="ent0001"><rect fill="#C8E6C9" height="69.4648" rx="2.5" ry="2.5" style="stroke:#424242;stroke-width:0.5;" width="103.9521" x="754.59" y="190.9583"/><text fill="#000000" font-family="sans-serif" font-size="14" font-style="italic" lengthAdjust="spacing" textLength="46.4844" x="783.3239" y="214.4934">&#171;Core&#187;</text><text fill="#000000" font-family="sans-serif" font-size="14" lengthAdjust="spacing" textLength="83.9521" x="764.59" y="230.9817">Membership</text><text fill="#000000" font-family="sans-serif" font-size="14" lengthAdjust="spacing" textLength="28.7041" x="764.59" y="247.47">(MS)</text></g><!--entity LG--><g class="entity" data-qualified-name="LG" data-source-line="464" id="ent0002"><rect fill="#C8E6C9" height="69.4648" rx="2.5" ry="2.5" style="stroke:#424242;stroke-width:0.5;" width="68.4844" x="910.33" y="513.8883"/><text fill="#000000" font-family="sans-serif" font-size="14" font-style="italic" lengthAdjust="spacing" textLength="46.4844" x="921.33" y="537.4234">&#171;Core&#187;</text><text fill="#000000" font-family="sans-serif" font-size="14" lengthAdjust="spacing" textLength="46.334" x="921.4052" y="553.9117">Ledger</text><text fill="#000000" font-family="sans-serif" font-size="14" lengthAdjust="spacing" textLength="26.6875" x="921.4052" y="570.4">(LG)</text></g><!--entity EN--><g class="entity" data-qualified-name="EN" data-source-line="465" id="ent0003"><rect fill="#C8E6C9" height="69.4648" rx="2.5" ry="2.5" style="stroke:#424242;stroke-width:0.5;" width="71.2012" x="1070.97" y="352.4183"/><text fill="#000000" font-family="sans-serif" font-size="14" font-style="italic" lengthAdjust="spacing" textLength="46.4844" x="1083.3284" y="375.9534">&#171;Core&#187;</text><text fill="#000000" font-family="sans-serif" font-size="14" lengthAdjust="spacing" textLength="51.2012" x="1080.97" y="392.4417">Earning</text><text fill="#000000" font-family="sans-serif" font-size="14" lengthAdjust="spacing" textLength="27.0361" x="1080.97" y="408.93">(EN)</text></g><!--entity RW--><g class="entity" data-qualified-name="RW" data-source-line="466" id="ent0004"><rect fill="#C8E6C9" height="69.4648" rx="2.5" ry="2.5" style="stroke:#424242;stroke-width:0.5;" width="69.7109" x="245.71" y="352.4183"/><text fill="#000000" font-family="sans-serif" font-size="14" font-style="italic" lengthAdjust="spacing" textLength="46.4844" x="257.3233" y="375.9534">&#171;Core&#187;</text><text fill="#000000" font-family="sans-serif" font-size="14" lengthAdjust="spacing" textLength="49.7109" x="255.71" y="392.4417">Reward</text><text fill="#000000" font-family="sans-serif" font-size="14" lengthAdjust="spacing" textLength="29.9346" x="255.71" y="408.93">(RW)</text></g><!--entity FF--><g class="entity" data-qualified-name="FF" data-source-line="467" id="ent0005"><rect fill="#C8E6C9" height="69.4648" rx="2.5" ry="2.5" style="stroke:#424242;stroke-width:0.5;" width="92.3242" x="261.41" y="513.8883"/><text fill="#000000" font-family="sans-serif" font-size="14" font-style="italic" lengthAdjust="spacing" textLength="46.4844" x="284.3299" y="537.4234">&#171;Core&#187;</text><text fill="#000000" font-family="sans-serif" font-size="14" lengthAdjust="spacing" textLength="72.3242" x="271.41" y="553.9117">Fulfillment</text><text fill="#000000" font-family="sans-serif" font-size="14" lengthAdjust="spacing" textLength="24.1172" x="271.41" y="570.4">(FF)</text></g><!--entity CP--><g class="entity" data-qualified-name="CP" data-source-line="468" id="ent0006"><rect fill="#C8E6C9" height="69.4648" rx="2.5" ry="2.5" style="stroke:#424242;stroke-width:0.5;" width="88.4961" x="471.32" y="190.9583"/><text fill="#000000" font-family="sans-serif" font-size="14" font-style="italic" lengthAdjust="spacing" textLength="46.4844" x="492.3259" y="214.4934">&#171;Core&#187;</text><text fill="#000000" font-family="sans-serif" font-size="14" lengthAdjust="spacing" textLength="68.4961" x="481.32" y="230.9817">Campaign</text><text fill="#000000" font-family="sans-serif" font-size="14" lengthAdjust="spacing" textLength="26.5303" x="481.32" y="247.47">(CP)</text></g><!--entity IB--><g class="entity" data-qualified-name="IB" data-source-line="469" id="ent0007"><rect fill="#E1BEE7" height="69.4648" rx="2.5" ry="2.5" style="stroke:#424242;stroke-width:0.5;" width="142.1172" x="1462.51" y="190.9583"/><text fill="#000000" font-family="sans-serif" font-size="14" font-style="italic" lengthAdjust="spacing" textLength="60.9697" x="1503.0837" y="214.4934">&#171;Shared&#187;</text><text fill="#000000" font-family="sans-serif" font-size="14" lengthAdjust="spacing" textLength="122.1172" x="1472.51" y="230.9817">Integration Bridge</text><text fill="#000000" font-family="sans-serif" font-size="14" lengthAdjust="spacing" textLength="21.1914" x="1472.51" y="247.47">(IB)</text></g><!--entity BFF--><g class="entity" data-qualified-name="BFF" data-source-line="470" id="ent0008"><rect fill="#E1BEE7" height="69.4648" rx="2.5" ry="2.5" style="stroke:#424242;stroke-width:0.5;" width="173.3643" x="598.89" y="44.4883"/><text fill="#000000" font-family="sans-serif" font-size="14" font-style="italic" lengthAdjust="spacing" textLength="60.9697" x="655.0873" y="68.0234">&#171;Shared&#187;</text><text fill="#000000" font-family="sans-serif" font-size="14" lengthAdjust="spacing" textLength="153.3643" x="608.89" y="84.5117">BFFs (Mobile + Admin)</text><text fill="#000000" font-family="sans-serif" font-size="14" lengthAdjust="spacing" textLength="32.1699" x="608.89" y="101">(BFF)</text></g><!--entity Cust--><g class="entity" data-qualified-name="Cust" data-source-line="472" id="ent0009"><rect fill="#B0BEC5" height="52.9766" rx="2.5" ry="2.5" style="stroke:#424242;stroke-width:0.5;" width="137.708" x="1197.72" y="522.1283"/><text fill="#000000" font-family="sans-serif" font-size="14" font-style="italic" lengthAdjust="spacing" textLength="70.0752" x="1231.5364" y="545.6634">&#171;External&#187;</text><text fill="#000000" font-family="sans-serif" font-size="14" lengthAdjust="spacing" textLength="117.708" x="1207.72" y="562.1517">Customer Service</text></g><!--entity PH--><g class="entity" data-qualified-name="PH" data-source-line="473" id="ent0010"><rect fill="#B0BEC5" height="52.9766" rx="2.5" ry="2.5" style="stroke:#424242;stroke-width:0.5;" width="109.7969" x="1131.67" y="660.3483"/><text fill="#000000" font-family="sans-serif" font-size="14" font-style="italic" lengthAdjust="spacing" textLength="70.0752" x="1151.5308" y="683.8834">&#171;External&#187;</text><text fill="#000000" font-family="sans-serif" font-size="14" lengthAdjust="spacing" textLength="89.7969" x="1141.67" y="700.3717">Payment Hub</text></g><!--entity T24A--><g class="entity" data-qualified-name="T24A" data-source-line="474" id="ent0011"><rect fill="#B0BEC5" height="52.9766" rx="2.5" ry="2.5" style="stroke:#424242;stroke-width:0.5;" width="168.5723" x="1449.28" y="360.6683"/><text fill="#000000" font-family="sans-serif" font-size="14" font-style="italic" lengthAdjust="spacing" textLength="70.0752" x="1498.5285" y="384.2034">&#171;External&#187;</text><text fill="#000000" font-family="sans-serif" font-size="14" lengthAdjust="spacing" textLength="148.5723" x="1459.28" y="400.6917">Core Banking Adapter</text></g><!--entity NSvc--><g class="entity" data-qualified-name="NSvc" data-source-line="475" id="ent0012"><rect fill="#B0BEC5" height="52.9766" rx="2.5" ry="2.5" style="stroke:#424242;stroke-width:0.5;" width="152.2686" x="635.43" y="522.1283"/><text fill="#000000" font-family="sans-serif" font-size="14" font-style="italic" lengthAdjust="spacing" textLength="70.0752" x="676.5267" y="545.6634">&#171;External&#187;</text><text fill="#000000" font-family="sans-serif" font-size="14" lengthAdjust="spacing" textLength="132.2686" x="645.43" y="562.1517">notification-service</text></g><!--entity Voucher--><g class="entity" data-qualified-name="Voucher" data-source-line="476" id="ent0013"><rect fill="#B0BEC5" height="52.9766" rx="2.5" ry="2.5" style="stroke:#424242;stroke-width:0.5;" width="198.582" x="208.28" y="660.3483"/><text fill="#000000" font-family="sans-serif" font-size="14" font-style="italic" lengthAdjust="spacing" textLength="70.0752" x="272.5334" y="683.8834">&#171;External&#187;</text><text fill="#000000" font-family="sans-serif" font-size="14" lengthAdjust="spacing" textLength="178.582" x="218.28" y="700.3717">3rd-Party Voucher Partner</text></g><!--link MS to LG--><g class="link" data-entity-1="ent0001" data-entity-2="ent0002" data-link-type="association" data-source-line="479" id="lnk14"><path d="M822.35,260.7083 C833.96,285.9283 850.02,321.1983 863.57,352.4183 C887.96,408.6283 915,474.5683 930.85,513.6283" fill="none" id="MS-LG" style="stroke:#FF0000;stroke-width:2;"/><text fill="#000000" font-family="sans-serif" font-size="13" lengthAdjust="spacing" textLength="15.4883" x="951.8185" y="377.2266">SK</text><text fill="#000000" font-family="sans-serif" font-size="13" lengthAdjust="spacing" textLength="131.8853" x="893.62" y="392.5372">(loyalty-core service,</text><text fill="#000000" font-family="sans-serif" font-size="13" lengthAdjust="spacing" textLength="83.7573" x="917.684" y="407.8477">same DB txn)</text></g><!--link EN to LG--><g class="link" data-entity-1="ent0003" data-entity-2="ent0002" data-link-type="dependency" data-source-line="482" id="lnk15"><path d="M1070.58,408.2383 C1061.83,412.8883 1052.43,417.7083 1043.57,421.8883 C1011.84,436.8483 993.78,425.5883 970.57,451.8883 C955.64,468.7983 949.8591,488.5246 947.1091,508.5846" fill="none" id="EN-to-LG" style="stroke:#181818;stroke-width:1;"/><polygon fill="#181818" points="946.43,513.5383,951.6153,505.165,947.1091,508.5846,943.6894,504.0784,946.43,513.5383" style="stroke:#181818;stroke-width:1;stroke-linejoin:miter;stroke-miterlimit:10;"/><text fill="#000000" font-family="sans-serif" font-size="13" lengthAdjust="spacing" textLength="147.9512" x="971.57" y="465.4566">U/S (writes Earn entries</text><text fill="#000000" font-family="sans-serif" font-size="13" lengthAdjust="spacing" textLength="93.0439" x="999.0236" y="480.7672">via Ledger API)</text></g><!--link RW to LG--><g class="link" data-entity-1="ent0004" data-entity-2="ent0002" data-link-type="dependency" data-source-line="483" id="lnk16"><path d="M315.63,403.6583 C365.94,425.2083 461.98,463.8483 547.57,483.8883 C659.97,510.2083 691.93,493.5683 805.57,513.8883 C841.5,520.3083 877.1706,529.1833 905.1406,536.6833" fill="none" id="RW-to-LG" style="stroke:#181818;stroke-width:1;"/><polygon fill="#181818" points="909.97,537.9783,902.3131,531.7838,905.1406,536.6833,900.2411,539.5108,909.97,537.9783" style="stroke:#181818;stroke-width:1;stroke-linejoin:miter;stroke-miterlimit:10;"/><text fill="#000000" font-family="sans-serif" font-size="13" lengthAdjust="spacing" textLength="218.9941" x="548.57" y="472.9566">U/S (calls reserve/commit/release)</text></g><!--link RW to FF--><g class="link" data-entity-1="ent0004" data-entity-2="ent0005" data-link-type="dependency" data-source-line="484" id="lnk17"><path d="M245.24,390.3883 C170.23,396.4483 6,417.5183 57.57,483.8883 C82.3,515.7183 190.8892,533.6732 256.1292,541.8932" fill="none" id="RW-to-FF" style="stroke:#181818;stroke-width:1;"/><polygon fill="#181818" points="261.09,542.5183,252.6606,537.4246,256.1292,541.8932,251.6606,545.3618,261.09,542.5183" style="stroke:#181818;stroke-width:1;stroke-linejoin:miter;stroke-miterlimit:10;"/><text fill="#000000" font-family="sans-serif" font-size="13" lengthAdjust="spacing" textLength="172.2754" x="58.57" y="472.9566">U/S (orchestrates adapters)</text></g><!--link CP to EN--><g class="link" data-entity-1="ent0006" data-entity-2="ent0003" data-link-type="dependency" data-source-line="485" id="lnk18"><path d="M560.18,233.3183 C652.57,247.9083 870.67,286.8083 1043.57,352.4183 C1052.62,355.8583 1057.5747,358.0008 1066.2447,362.5608" fill="none" id="CP-to-EN" style="stroke:#181818;stroke-width:1;stroke-dasharray:7,7;"/><polygon fill="#181818" points="1070.67,364.8883,1064.5665,357.1586,1066.2447,362.5608,1060.8426,364.239,1070.67,364.8883" style="stroke:#181818;stroke-width:1;stroke-linejoin:miter;stroke-miterlimit:10;"/><text fill="#000000" font-family="sans-serif" font-size="13" lengthAdjust="spacing" textLength="171.9326" x="946.36" y="303.9866">OHS/PL (Campaign-scoped</text><text fill="#000000" font-family="sans-serif" font-size="13" lengthAdjust="spacing" textLength="100.3945" x="982.129" y="319.2972">rule activations)</text></g><!--link CP to RW--><g class="link" data-entity-1="ent0006" data-entity-2="ent0004" data-link-type="dependency" data-source-line="486" id="lnk19"><path d="M470.91,233.4883 C431.59,241.4183 374.66,257.8383 335.57,290.4183 C316.13,306.6183 304.1453,326.9968 295.1253,347.3568" fill="none" id="CP-to-RW" style="stroke:#181818;stroke-width:1;stroke-dasharray:7,7;"/><polygon fill="#181818" points="293.1,351.9283,300.4027,345.3199,295.1253,347.3568,293.0883,342.0794,293.1,351.9283" style="stroke:#181818;stroke-width:1;stroke-linejoin:miter;stroke-miterlimit:10;"/><text fill="#000000" font-family="sans-serif" font-size="13" lengthAdjust="spacing" textLength="135.3765" x="336.57" y="303.9866">OHS/PL (sweepstakes</text><text fill="#000000" font-family="sans-serif" font-size="13" lengthAdjust="spacing" textLength="127.5879" x="340.4643" y="319.2972">Reward registration)</text></g><!--link MS to Cust--><g class="link" data-entity-1="ent0001" data-entity-2="ent0009" data-link-type="dependency" data-source-line="489" id="lnk20"><path d="M858.73,230.4483 C950.41,237.8483 1135.9,256.5983 1190.57,290.4183 C1265.93,337.0483 1280.24,367.5883 1307.57,451.8883 C1315.43,476.1383 1305.0952,498.6418 1291.6152,517.6218" fill="none" id="MS-to-Cust" style="stroke:#181818;stroke-width:1;"/><polygon fill="#181818" points="1288.72,521.6983,1297.1926,516.6768,1291.6152,517.6218,1290.6702,512.0444,1288.72,521.6983" style="stroke:#181818;stroke-width:1;stroke-linejoin:miter;stroke-miterlimit:10;"/><text fill="#000000" font-family="sans-serif" font-size="13" lengthAdjust="spacing" textLength="129.9619" x="1298.16" y="384.7266">CF (customerId only,</text><text fill="#000000" font-family="sans-serif" font-size="13" lengthAdjust="spacing" textLength="113.6421" x="1306.3199" y="400.0372">no PII duplication)</text></g><!--link EN to Cust--><g class="link" data-entity-1="ent0003" data-entity-2="ent0009" data-link-type="dependency" data-source-line="490" id="lnk21"><path d="M1139.41,422.0383 C1157.37,440.4483 1180.06,463.5483 1200.57,483.8883 C1213.24,496.4483 1223.8445,506.7541 1235.8345,518.2741" fill="none" id="EN-to-Cust" style="stroke:#181818;stroke-width:1;"/><polygon fill="#181818" points="1239.44,521.7383,1235.7214,512.6184,1235.8345,518.2741,1230.1788,518.3872,1239.44,521.7383" style="stroke:#181818;stroke-width:1;stroke-linejoin:miter;stroke-miterlimit:10;"/><text fill="#000000" font-family="sans-serif" font-size="13" lengthAdjust="spacing" textLength="101.6323" x="1201.57" y="472.9566">CF (via Member)</text></g><!--link IB to PH--><g class="link" data-entity-1="ent0007" data-entity-2="ent0010" data-link-type="dependency" data-source-line="493" id="lnk22"><path d="M1605.01,255.1883 C1619.22,264.2683 1632.29,275.8583 1640.57,290.4183 C1653.37,312.9583 1668.04,368.2983 1635.57,421.8883 C1546.18,569.3983 1345.5277,642.2549 1246.5977,670.5149" fill="none" id="IB-to-PH" style="stroke:#181818;stroke-width:1;stroke-dasharray:7,7;"/><polygon fill="#181818" points="1241.79,671.8883,1251.5425,673.2624,1246.5977,670.5149,1249.3452,665.5701,1241.79,671.8883" style="stroke:#181818;stroke-width:1;stroke-linejoin:miter;stroke-miterlimit:10;"/><text fill="#000000" font-family="sans-serif" font-size="13" lengthAdjust="spacing" textLength="96.6494" x="1616.0249" y="465.4566">ACL (consumes</text><text fill="#000000" font-family="sans-serif" font-size="13" lengthAdjust="spacing" textLength="97.7793" x="1615.46" y="480.7672">Domain Events)</text></g><!--link IB to T24A--><g class="link" data-entity-1="ent0007" data-entity-2="ent0011" data-link-type="dependency" data-source-line="494" id="lnk23"><path d="M1533.57,260.8983 C1533.57,290.7283 1533.57,328.3583 1533.57,355.3883" fill="none" id="IB-to-T24A" style="stroke:#181818;stroke-width:1;stroke-dasharray:7,7;"/><polygon fill="#181818" points="1533.57,360.3883,1537.57,351.3883,1533.57,355.3883,1529.57,351.3883,1533.57,360.3883" style="stroke:#181818;stroke-width:1;stroke-linejoin:miter;stroke-miterlimit:10;"/><text fill="#000000" font-family="sans-serif" font-size="13" lengthAdjust="spacing" textLength="96.6494" x="1535.1349" y="303.9866">ACL (consumes</text><text fill="#000000" font-family="sans-serif" font-size="13" lengthAdjust="spacing" textLength="97.7793" x="1534.57" y="319.2972">Domain Events)</text></g><!--link IB to EN--><g class="link" data-entity-1="ent0007" data-entity-2="ent0003" data-link-type="dependency" data-source-line="495" id="lnk24"><path d="M1462.05,231.0283 C1396.21,237.3183 1297.27,252.7383 1219.57,290.4183 C1188.34,305.5683 1162.1648,327.832 1141.0548,348.832" fill="none" id="IB-to-EN" style="stroke:#181818;stroke-width:1;"/><polygon fill="#181818" points="1137.51,352.3583,1146.7116,348.8468,1141.0548,348.832,1141.0695,343.1752,1137.51,352.3583" style="stroke:#181818;stroke-width:1;stroke-linejoin:miter;stroke-miterlimit:10;"/><text fill="#000000" font-family="sans-serif" font-size="13" lengthAdjust="spacing" textLength="132.3105" x="1220.57" y="303.9866">Translated EarnEvent</text><text fill="#000000" font-family="sans-serif" font-size="13" lengthAdjust="spacing" textLength="56.0435" x="1258.7035" y="319.2972">(OHS/PL)</text></g><!--link BFF to MS--><g class="link" data-entity-1="ent0008" data-entity-2="ent0001" data-link-type="dependency" data-source-line="498" id="lnk25"><path d="M713.94,114.0983 C733.22,137.1083 755.4196,163.6151 774.7496,186.6951" fill="none" id="BFF-to-MS" style="stroke:#181818;stroke-width:1;"/><polygon fill="#181818" points="777.96,190.5283,775.2479,181.0602,774.7496,186.6951,769.1147,186.1968,777.96,190.5283" style="stroke:#181818;stroke-width:1;stroke-linejoin:miter;stroke-miterlimit:10;"/><text fill="#000000" font-family="sans-serif" font-size="13" lengthAdjust="spacing" textLength="22.8262" x="750.7" y="157.5266">U/S</text></g><!--link BFF to LG--><g class="link" data-entity-1="ent0008" data-entity-2="ent0002" data-link-type="dependency" data-source-line="499" id="lnk26"><path d="M772.54,82.0383 C915.34,89.8383 1199.36,126.4883 1357.57,290.4183 C1398.48,332.8183 1413.13,377.3383 1374.57,421.8883 C1344.15,457.0283 1210.62,434.3683 1167.57,451.8883 C1145.17,460.9983 1144.96,472.6083 1123.57,483.8883 C1075.87,509.0483 1020.8911,526.7071 983.9211,537.1671" fill="none" id="BFF-to-LG" style="stroke:#181818;stroke-width:1;"/><polygon fill="#181818" points="979.11,538.5283,988.859,539.927,983.9211,537.1671,986.6811,532.2292,979.11,538.5283" style="stroke:#181818;stroke-width:1;stroke-linejoin:miter;stroke-miterlimit:10;"/><text fill="#000000" font-family="sans-serif" font-size="13" lengthAdjust="spacing" textLength="22.8262" x="1383.6" y="311.4866">U/S</text></g><!--link BFF to RW--><g class="link" data-entity-1="ent0008" data-entity-2="ent0004" data-link-type="dependency" data-source-line="500" id="lnk27"><path d="M598.58,101.4783 C507.71,128.6983 369.29,185.4383 302.57,290.4183 C290.86,308.8483 286.019,327.8219 283.449,347.1519" fill="none" id="BFF-to-RW" style="stroke:#181818;stroke-width:1;"/><polygon fill="#181818" points="282.79,352.1083,287.9413,343.714,283.449,347.1519,280.011,342.6596,282.79,352.1083" style="stroke:#181818;stroke-width:1;stroke-linejoin:miter;stroke-miterlimit:10;"/><text fill="#000000" font-family="sans-serif" font-size="13" lengthAdjust="spacing" textLength="22.8262" x="399.25" y="230.7566">U/S</text></g><!--link BFF to CP--><g class="link" data-entity-1="ent0008" data-entity-2="ent0006" data-link-type="dependency" data-source-line="501" id="lnk28"><path d="M645.71,114.0983 C618.63,137.1083 586.7295,164.2098 559.5795,187.2898" fill="none" id="BFF-to-CP" style="stroke:#181818;stroke-width:1;"/><polygon fill="#181818" points="555.77,190.5283,565.2179,187.7467,559.5795,187.2898,560.0364,181.6515,555.77,190.5283" style="stroke:#181818;stroke-width:1;stroke-linejoin:miter;stroke-miterlimit:10;"/><text fill="#000000" font-family="sans-serif" font-size="13" lengthAdjust="spacing" textLength="22.8262" x="606.67" y="157.5266">U/S</text></g><!--link FF to Voucher--><g class="link" data-entity-1="ent0005" data-entity-2="ent0013" data-link-type="dependency" data-source-line="504" id="lnk29"><path d="M307.57,583.6383 C307.57,607.2883 307.57,633.3083 307.57,654.9483" fill="none" id="FF-to-Voucher" style="stroke:#181818;stroke-width:1;stroke-dasharray:7,7;"/><polygon fill="#181818" points="307.57,659.9483,311.57,650.9483,307.57,654.9483,303.57,650.9483,307.57,659.9483" style="stroke:#181818;stroke-width:1;stroke-linejoin:miter;stroke-miterlimit:10;"/><text fill="#000000" font-family="sans-serif" font-size="13" lengthAdjust="spacing" textLength="107.6499" x="308.57" y="626.9166">ACL (partner API)</text></g><!--link FF to PH--><g class="link" data-entity-1="ent0005" data-entity-2="ent0010" data-link-type="dependency" data-source-line="505" id="lnk30"><path d="M354.21,556.8483 C503.63,580.0083 965.159,651.5224 1126.249,676.4924" fill="none" id="FF-to-PH" style="stroke:#181818;stroke-width:1;stroke-dasharray:7,7;"/><polygon fill="#181818" points="1131.19,677.2583,1122.9089,671.9269,1126.249,676.4924,1121.6835,679.8325,1131.19,677.2583" style="stroke:#181818;stroke-width:1;stroke-linejoin:miter;stroke-miterlimit:10;"/><text fill="#000000" font-family="sans-serif" font-size="13" lengthAdjust="spacing" textLength="188.3794" x="826.8" y="626.9166">ACL (Cashback disbursement)</text></g><!--link EN to NSvc--><g class="link" data-entity-1="ent0003" data-entity-2="ent0012" data-link-type="dependency" data-source-line="508" id="lnk31"><path d="M1070.57,410.2483 C1061.98,414.7183 1052.66,418.9383 1043.57,421.8883 C949.27,452.4283 912.94,411.1683 822.57,451.8883 C786.84,467.9883 757.3069,495.6709 736.7469,518.1209" fill="none" id="EN-to-NSvc" style="stroke:#181818;stroke-width:1;"/><polygon fill="#181818" points="733.37,521.8083,742.3983,517.8726,736.7469,518.1209,736.4986,512.4695,733.37,521.8083" style="stroke:#181818;stroke-width:1;stroke-linejoin:miter;stroke-miterlimit:10;"/><text fill="#000000" font-family="sans-serif" font-size="13" lengthAdjust="spacing" textLength="47.5884" x="860.3166" y="465.4566">OHS/PL</text><text fill="#000000" font-family="sans-serif" font-size="13" lengthAdjust="spacing" textLength="121.0815" x="823.57" y="480.7672">(PointsEarned, etc.)</text></g><!--link MS to NSvc--><g class="link" data-entity-1="ent0001" data-entity-2="ent0012" data-link-type="dependency" data-source-line="509" id="lnk32"><path d="M783.84,260.6683 C768.57,285.1483 749.35,319.5283 738.57,352.4183 C719.4,410.9383 714.0515,478.6728 712.4415,516.7028" fill="none" id="MS-to-NSvc" style="stroke:#181818;stroke-width:1;"/><polygon fill="#181818" points="712.23,521.6983,716.6071,512.8755,712.4415,516.7028,708.6143,512.5371,712.23,521.6983" style="stroke:#181818;stroke-width:1;stroke-linejoin:miter;stroke-miterlimit:10;"/><text fill="#000000" font-family="sans-serif" font-size="13" lengthAdjust="spacing" textLength="47.5884" x="775.7453" y="384.7266">OHS/PL</text><text fill="#000000" font-family="sans-serif" font-size="13" lengthAdjust="spacing" textLength="119.939" x="739.57" y="400.0372">(TierChanged, etc.)</text></g><!--link RW to NSvc--><g class="link" data-entity-1="ent0004" data-entity-2="ent0012" data-link-type="dependency" data-source-line="510" id="lnk33"><path d="M266.13,422.0483 C259.99,442.2983 257.15,467.2283 271.57,483.8883 C295,510.9483 510.5163,531.8552 630.1863,541.5352" fill="none" id="RW-to-NSvc" style="stroke:#181818;stroke-width:1;"/><polygon fill="#181818" points="635.17,541.9383,626.5218,537.2257,630.1863,541.5352,625.8768,545.1996,635.17,541.9383" style="stroke:#181818;stroke-width:1;stroke-linejoin:miter;stroke-miterlimit:10;"/><text fill="#000000" font-family="sans-serif" font-size="13" lengthAdjust="spacing" textLength="47.5884" x="325.2365" y="465.4566">OHS/PL</text><text fill="#000000" font-family="sans-serif" font-size="13" lengthAdjust="spacing" textLength="152.9214" x="272.57" y="480.7672">(RedemptionCompleted)</text></g><g class="legend" data-source-line="512"><rect fill="#DDDDDD" height="92.4414" rx="7.5" ry="7.5" style="stroke:#000000;stroke-width:1;" width="293.9375" x="1416.3018" y="733.3248"/><text fill="#000000" font-family="sans-serif" font-size="14" lengthAdjust="spacing" textLength="200.1221" x="1421.3018" y="751.86">U/S  Upstream / Downstream</text><text fill="#000000" font-family="sans-serif" font-size="14" lengthAdjust="spacing" textLength="283.9375" x="1421.3018" y="768.3483">OHS/PL  Open Host / Published Language</text><text fill="#000000" font-family="sans-serif" font-size="14" lengthAdjust="spacing" textLength="223.084" x="1421.3018" y="784.8366">SK   Shared Kernel (same DB txn)</text><text fill="#000000" font-family="sans-serif" font-size="14" lengthAdjust="spacing" textLength="106.4219" x="1421.3018" y="801.3248">CF   Conformist</text><text fill="#000000" font-family="sans-serif" font-size="14" lengthAdjust="spacing" textLength="185.6846" x="1421.3018" y="817.8131">ACL  Anti-Corruption Layer</text></g><?plantuml-src ZPNTRkCs48NlzHI3pKLjT1stsUqljW4YHKwCs8aGPPkBfXUqD969IAH0KacCea0Vea_O9-cX93jQ9mKANudyXZnpPePsqfLCeMvKpZb5MZb-ThGKDVtprzzqAWlfH4aBlH6bsmI1VP2g5aPKP3XpGXK8_YCW2aNsK1X_IgHBRJvzYhJXusCwY7wCluz-Uej8ry9mxfdusp2EVtYBYPyT6oLAJuNVX77qdQUqoTcq11ryFFA_uCyWU17qRidLYerTo_fEZPRf-1tj10bBotJ8BZWls81RdErnYxCX5mkZf2e0nfTxO7mv1A_vIPWStFNj7dTzE-HcJNalox9YvG3FPdlmR3Q48r7LGXOAP9JiaL4o9EUeO664arfHQ2IIGymyR6DsbYDg7WwZmjdCqcYfLn9VNzD9NaarHc3Ownf6OkqBjwF6EbsnePJDeypOyuF2UOKWXX69sFYqwRnPlOQJyoyEHvhe2uM-Ao1Br41VnzmSVJmPHYdjvBtCMXSczhzaNQQFsJ3gWyadYJ1kGx_g9biZ8_-bthgm1uBWA-gieGliSaaZAogUk6T5cMxg4gh7xIGjKzYwE2EfhCoPocwW9XdI2x0t-Uq0XxntQvazABRsbwFV9nx_cT8Bb668Kv_F-plbxwBJa73Ts4lvN5jdM5JJjAbnDnBmLqlLAG_YIvfCZhjZFqzJ6ZqPwHZzYzOcrCD8jdVgKGhgXe9EalaukBxTYyf4MLhClzV1qqnNbNHJmoKBopjyDjlYsi0fw1B-Aj5Lq8w3AA73msFC3hYhytIQB6YqxVA9pNJDc27Je2uYS_AnBULB66vv2RDFpCXSF7ZvtVX1NY7RIn7MUeEdxLwR2ekjARkcHJMKatZRV1KWt6_Wx6Y6H7jcdfDMvGQ6Aqt9V4wvhspMdzsxEeZp3dPFK7lpwudq7NGIBMZbdpfXDi4yRBDApd62tnXbIBQfV3wdkX9IKVm8cSY_9tt3_n_MAsijlZ52sH8roDjojmWQgxEmbOcn9b4KCCvNAl2VFXgsj8NSBMmRORVGrcAuW1fr2pXryCfjnzVswTi0l4zcEsrzFdKtT5ttzSYBCv6mwnN-9oYNTjKOo_xeDe6hnhM6Rl-jY5iVjWNoqxvh6gIUQ0o6zMPWy8XTTZZUzi0-UeDHYjPu9Lx8littoMlEkQfzgIDTrIN3RsWhkM3eCh9OE_o1-R7OpIfDwLG_gUu3ctrJqrNDYiurccfAIRCgfLsZTWk8Q4J10DCBehSUdzs3GBuPQT3uMF4MqWaQVeA7rJIjKXowmLC6XPtEVm40?></g></svg>