<svg xmlns="http://www.w3.org/2000/svg" xmlns:xlink="http://www.w3.org/1999/xlink" contentStyleType="text/css" data-diagram-type="DESCRIPTION" height="715px" preserveAspectRatio="none" style="width:1502px;height:715px;background:#FFFFFF;" version="1.1" viewBox="0 0 1502 715" width="1502px" zoomAndPan="magnify"><?plantuml 1.2026.4?><defs/><g><g class="title" data-source-line="204"><text fill="#000000" font-family="sans-serif" font-size="14" font-weight="700" lengthAdjust="spacing" textLength="247.9326" x="623.6569" y="23.5352">Digital Loyalty &#8212; Stakeholder Map</text></g><!--entity Member--><g class="entity" data-qualified-name="Member" data-source-line="212" id="ent0001"><ellipse cx="75.585" cy="69.9297" fill="#FFF3E0" rx="8" ry="8" style="stroke:#181818;stroke-width:0.5;"/><path d="M75.585,77.9297 L75.585,104.9297 M62.585,85.9297 L88.585,85.9297 M75.585,104.9297 L62.585,119.9297 M75.585,104.9297 L88.585,119.9297" fill="none" style="stroke:#181818;stroke-width:0.5;"/><text fill="#000000" font-family="sans-serif" font-size="14" lengthAdjust="spacing" textLength="89.8516" x="8.21" y="134.9648">Retail Loyalty</text><text fill="#000000" font-family="sans-serif" font-size="14" lengthAdjust="spacing" textLength="134.75" x="8.21" y="151.4531">Member (Customer)</text><text fill="#000000" font-family="sans-serif" font-size="14" font-style="italic" lengthAdjust="spacing" textLength="70.0752" x="40.5474" y="58.4766">&#171;External&#187;</text></g><!--entity ProgMgr--><g class="entity" data-qualified-name="ProgMgr" data-source-line="213" id="ent0002"><ellipse cx="234.5919" cy="271.3897" fill="#E8F5E9" rx="8" ry="8" style="stroke:#181818;stroke-width:0.5;"/><path d="M234.5919,279.3897 L234.5919,306.3897 M221.5919,287.3897 L247.5919,287.3897 M234.5919,306.3897 L221.5919,321.3897 M234.5919,306.3897 L247.5919,321.3897" fill="none" style="stroke:#181818;stroke-width:0.5;"/><text fill="#000000" font-family="sans-serif" font-size="14" lengthAdjust="spacing" textLength="109.4639" x="179.86" y="336.4248">Loyalty Program</text><text fill="#000000" font-family="sans-serif" font-size="14" lengthAdjust="spacing" textLength="58.4678" x="179.86" y="352.9131">Manager</text><text fill="#000000" font-family="sans-serif" font-size="14" font-style="italic" lengthAdjust="spacing" textLength="66.623" x="201.2804" y="259.9366">&#171;Internal&#187;</text></g><!--entity Campaign--><g class="entity" data-qualified-name="Campaign" data-source-line="214" id="ent0003"><ellipse cx="389.5868" cy="271.3897" fill="#E8F5E9" rx="8" ry="8" style="stroke:#181818;stroke-width:0.5;"/><path d="M389.5868,279.3897 L389.5868,306.3897 M376.5868,287.3897 L402.5868,287.3897 M389.5868,306.3897 L376.5868,321.3897 M389.5868,306.3897 L402.5868,321.3897" fill="none" style="stroke:#181818;stroke-width:0.5;"/><text fill="#000000" font-family="sans-serif" font-size="14" lengthAdjust="spacing" textLength="131.3936" x="323.89" y="336.4248">Campaign Manager</text><text fill="#000000" font-family="sans-serif" font-size="14" lengthAdjust="spacing" textLength="79.9736" x="323.89" y="352.9131">/ Marketing</text><text fill="#000000" font-family="sans-serif" font-size="14" font-style="italic" lengthAdjust="spacing" textLength="66.623" x="356.2753" y="259.9366">&#171;Internal&#187;</text></g><!--entity CSMaker--><g class="entity" data-qualified-name="CSMaker" data-source-line="215" id="ent0004"><ellipse cx="549.594" cy="271.3897" fill="#E8F5E9" rx="8" ry="8" style="stroke:#181818;stroke-width:0.5;"/><path d="M549.594,279.3897 L549.594,306.3897 M536.594,287.3897 L562.594,287.3897 M549.594,306.3897 L536.594,321.3897 M549.594,306.3897 L562.594,321.3897" fill="none" style="stroke:#181818;stroke-width:0.5;"/><text fill="#000000" font-family="sans-serif" font-size="14" lengthAdjust="spacing" textLength="117.708" x="490.74" y="336.4248">Customer Service</text><text fill="#000000" font-family="sans-serif" font-size="14" lengthAdjust="spacing" textLength="112.3555" x="490.74" y="352.9131">Maker (Adjuster)</text><text fill="#000000" font-family="sans-serif" font-size="14" font-style="italic" lengthAdjust="spacing" textLength="66.623" x="516.2825" y="259.9366">&#171;Internal&#187;</text></g><!--entity CSChecker--><g class="entity" data-qualified-name="CSChecker" data-source-line="216" id="ent0005"><ellipse cx="708.5883" cy="271.3897" fill="#E8F5E9" rx="8" ry="8" style="stroke:#181818;stroke-width:0.5;"/><path d="M708.5883,279.3897 L708.5883,306.3897 M695.5883,287.3897 L721.5883,287.3897 M708.5883,306.3897 L695.5883,321.3897 M708.5883,306.3897 L721.5883,321.3897" fill="none" style="stroke:#181818;stroke-width:0.5;"/><text fill="#000000" font-family="sans-serif" font-size="14" lengthAdjust="spacing" textLength="117.708" x="643.1" y="336.4248">Customer Service</text><text fill="#000000" font-family="sans-serif" font-size="14" lengthAdjust="spacing" textLength="130.9766" x="643.1" y="352.9131">Checker (Approver)</text><text fill="#000000" font-family="sans-serif" font-size="14" font-style="italic" lengthAdjust="spacing" textLength="66.623" x="675.2768" y="259.9366">&#171;Internal&#187;</text></g><!--entity Fraud--><g class="entity" data-qualified-name="Fraud" data-source-line="217" id="ent0006"><ellipse cx="876.59" cy="271.3897" fill="#E8F5E9" rx="8" ry="8" style="stroke:#181818;stroke-width:0.5;"/><path d="M876.59,279.3897 L876.59,306.3897 M863.59,287.3897 L889.59,287.3897 M876.59,306.3897 L863.59,321.3897 M876.59,306.3897 L889.59,321.3897" fill="none" style="stroke:#181818;stroke-width:0.5;"/><text fill="#000000" font-family="sans-serif" font-size="14" lengthAdjust="spacing" textLength="69.7197" x="824.63" y="336.4248">Fraud Ops</text><text fill="#000000" font-family="sans-serif" font-size="14" lengthAdjust="spacing" textLength="103.9199" x="824.63" y="352.9131">(Review Queue)</text><text fill="#000000" font-family="sans-serif" font-size="14" font-style="italic" lengthAdjust="spacing" textLength="66.623" x="843.2784" y="259.9366">&#171;Internal&#187;</text></g><!--entity EA--><g class="entity" data-qualified-name="EA" data-source-line="218" id="ent0007"><ellipse cx="1009.5895" cy="279.6397" fill="#E8F5E9" rx="8" ry="8" style="stroke:#181818;stroke-width:0.5;"/><path d="M1009.5895,287.6397 L1009.5895,314.6397 M996.5895,295.6397 L1022.5895,295.6397 M1009.5895,314.6397 L996.5895,329.6397 M1009.5895,314.6397 L1022.5895,329.6397" fill="none" style="stroke:#181818;stroke-width:0.5;"/><text fill="#000000" font-family="sans-serif" font-size="14" lengthAdjust="spacing" textLength="83.4189" x="967.88" y="344.6748">Bank EA / IT</text><text fill="#000000" font-family="sans-serif" font-size="14" font-style="italic" lengthAdjust="spacing" textLength="66.623" x="976.2779" y="268.1866">&#171;Internal&#187;</text></g><!--entity RDB--><g class="entity" data-qualified-name="RDB" data-source-line="220" id="ent0008"><ellipse cx="75.5898" cy="271.3897" fill="#E8F5E9" rx="8" ry="8" style="stroke:#181818;stroke-width:0.5;"/><path d="M75.5898,279.3897 L75.5898,306.3897 M62.5898,287.3897 L88.5898,287.3897 M75.5898,306.3897 L62.5898,321.3897 M75.5898,306.3897 L88.5898,321.3897" fill="none" style="stroke:#181818;stroke-width:0.5;"/><text fill="#000000" font-family="sans-serif" font-size="14" lengthAdjust="spacing" textLength="135.625" x="6" y="336.4248">Mobile Banking App</text><text fill="#000000" font-family="sans-serif" font-size="14" lengthAdjust="spacing" textLength="139.1797" x="6" y="352.9131">(Host Bank Platform)</text><text fill="#000000" font-family="sans-serif" font-size="14" font-style="italic" lengthAdjust="spacing" textLength="66.623" x="42.2783" y="259.9366">&#171;Internal&#187;</text></g><!--entity PH--><g class="entity" data-qualified-name="PH" data-source-line="221" id="ent0009"><ellipse cx="1171.5894" cy="271.3897" fill="#E8F5E9" rx="8" ry="8" style="stroke:#181818;stroke-width:0.5;"/><path d="M1171.5894,279.3897 L1171.5894,306.3897 M1158.5894,287.3897 L1184.5894,287.3897 M1171.5894,306.3897 L1158.5894,321.3897 M1171.5894,306.3897 L1184.5894,321.3897" fill="none" style="stroke:#181818;stroke-width:0.5;"/><text fill="#000000" font-family="sans-serif" font-size="14" lengthAdjust="spacing" textLength="89.7969" x="1086.67" y="336.4248">Payment Hub</text><text fill="#000000" font-family="sans-serif" font-size="14" lengthAdjust="spacing" textLength="169.8389" x="1086.67" y="352.9131">(Producer of Earn Events)</text><text fill="#000000" font-family="sans-serif" font-size="14" font-style="italic" lengthAdjust="spacing" textLength="66.623" x="1138.2779" y="259.9366">&#171;Internal&#187;</text></g><!--entity T24A--><g class="entity" data-qualified-name="T24A" data-source-line="222" id="ent0010"><ellipse cx="1389.5882" cy="271.3897" fill="#E8F5E9" rx="8" ry="8" style="stroke:#181818;stroke-width:0.5;"/><path d="M1389.5882,279.3897 L1389.5882,306.3897 M1376.5882,287.3897 L1402.5882,287.3897 M1389.5882,306.3897 L1376.5882,321.3897 M1389.5882,306.3897 L1402.5882,321.3897" fill="none" style="stroke:#181818;stroke-width:0.5;"/><text fill="#000000" font-family="sans-serif" font-size="14" lengthAdjust="spacing" textLength="148.5723" x="1291.93" y="336.4248">Core Banking Adapter</text><text fill="#000000" font-family="sans-serif" font-size="14" lengthAdjust="spacing" textLength="195.3164" x="1291.93" y="352.9131">(Producer of Account Events)</text><text fill="#000000" font-family="sans-serif" font-size="14" font-style="italic" lengthAdjust="spacing" textLength="66.623" x="1356.2767" y="259.9366">&#171;Internal&#187;</text></g><!--entity NSvc--><g class="entity" data-qualified-name="NSvc" data-source-line="223" id="ent0011"><ellipse cx="524.5912" cy="617.8397" fill="#E8F5E9" rx="8" ry="8" style="stroke:#181818;stroke-width:0.5;"/><path d="M524.5912,625.8397 L524.5912,652.8397 M511.5912,633.8397 L537.5912,633.8397 M524.5912,652.8397 L511.5912,667.8397 M524.5912,652.8397 L537.5912,667.8397" fill="none" style="stroke:#181818;stroke-width:0.5;"/><text fill="#000000" font-family="sans-serif" font-size="14" lengthAdjust="spacing" textLength="132.2686" x="452.39" y="682.8748">notification-service</text><text fill="#000000" font-family="sans-serif" font-size="14" lengthAdjust="spacing" textLength="144.4023" x="452.39" y="699.3631">(Outbound Channels)</text><text fill="#000000" font-family="sans-serif" font-size="14" font-style="italic" lengthAdjust="spacing" textLength="66.623" x="491.2796" y="606.3866">&#171;Internal&#187;</text></g><!--entity KC--><g class="entity" data-qualified-name="KC" data-source-line="224" id="ent0012"><ellipse cx="707.5896" cy="626.0797" fill="#E8F5E9" rx="8" ry="8" style="stroke:#181818;stroke-width:0.5;"/><path d="M707.5896,634.0797 L707.5896,661.0797 M694.5896,642.0797 L720.5896,642.0797 M707.5896,661.0797 L694.5896,676.0797 M707.5896,661.0797 L720.5896,676.0797" fill="none" style="stroke:#181818;stroke-width:0.5;"/><text fill="#000000" font-family="sans-serif" font-size="14" lengthAdjust="spacing" textLength="151.2793" x="631.95" y="691.1148">Authentication Service</text><text fill="#000000" font-family="sans-serif" font-size="14" font-style="italic" lengthAdjust="spacing" textLength="66.623" x="674.2781" y="614.6266">&#171;Internal&#187;</text></g><!--entity Voucher--><g class="entity" data-qualified-name="Voucher" data-source-line="226" id="ent0013"><ellipse cx="901.5905" cy="617.8397" fill="#E3F2FD" rx="8" ry="8" style="stroke:#181818;stroke-width:0.5;"/><path d="M901.5905,625.8397 L901.5905,652.8397 M888.5905,633.8397 L914.5905,633.8397 M901.5905,652.8397 L888.5905,667.8397 M901.5905,652.8397 L914.5905,667.8397" fill="none" style="stroke:#181818;stroke-width:0.5;"/><text fill="#000000" font-family="sans-serif" font-size="14" lengthAdjust="spacing" textLength="125.501" x="838.84" y="682.8748">3rd-Party Voucher</text><text fill="#000000" font-family="sans-serif" font-size="14" lengthAdjust="spacing" textLength="117.8857" x="838.84" y="699.3631">Provider (Partner)</text><text fill="#000000" font-family="sans-serif" font-size="14" font-style="italic" lengthAdjust="spacing" textLength="63.3213" x="869.9298" y="606.3866">&#171;Partner&#187;</text></g><!--entity DLP--><g class="entity" data-qualified-name="DLP" data-source-line="228" id="ent0014"><rect fill="#FFFFE0" height="52.9766" rx="2.5" ry="2.5" style="stroke:#181818;stroke-width:0.5;" width="116.4619" x="649.36" y="447.8714"/><text fill="#000000" font-family="sans-serif" font-size="14" lengthAdjust="spacing" textLength="96.4619" x="659.36" y="471.4066">Digital Loyalty</text><text fill="#000000" font-family="sans-serif" font-size="14" lengthAdjust="spacing" textLength="57.2988" x="659.36" y="487.8948">Platform</text></g><!--link Member to RDB--><g class="link" data-entity-1="ent0001" data-entity-2="ent0008" data-link-type="dependency" data-source-line="230" id="lnk15"><path d="M75.59,154.6514 C75.59,183.0314 75.59,212.7314 75.59,241.1114" fill="none" id="Member-to-RDB" style="stroke:#181818;stroke-width:1;"/><polygon fill="#181818" points="75.59,246.1114,79.59,237.1114,75.59,241.1114,71.59,237.1114,75.59,246.1114" style="stroke:#181818;stroke-width:1;stroke-linejoin:miter;stroke-miterlimit:10;"/><text fill="#000000" font-family="sans-serif" font-size="13" lengthAdjust="spacing" textLength="84.3477" x="76.59" y="197.9698">Opt-in, View,</text><text fill="#000000" font-family="sans-serif" font-size="13" lengthAdjust="spacing" textLength="50.2671" x="93.6303" y="213.2803">Redeem</text></g><!--link ProgMgr to DLP--><g class="link" data-entity-1="ent0002" data-entity-2="ent0014" data-link-type="dependency" data-source-line="231" id="lnk16"><path d="M256.2,356.2114 C268.02,378.8514 284.93,403.2514 307.59,417.8714 C362.82,453.5014 546.7254,466.469 643.8654,470.989" fill="none" id="ProgMgr-to-DLP" style="stroke:#181818;stroke-width:1;"/><polygon fill="#181818" points="648.86,471.2214,640.0556,466.8074,643.8654,470.989,639.6838,474.7988,648.86,471.2214" style="stroke:#181818;stroke-width:1;stroke-linejoin:miter;stroke-miterlimit:10;"/><text fill="#000000" font-family="sans-serif" font-size="13" lengthAdjust="spacing" textLength="103.7461" x="308.59" y="399.4398">Program / Tier /</text><text fill="#000000" font-family="sans-serif" font-size="13" lengthAdjust="spacing" textLength="66.3838" x="327.2712" y="414.7503">Rule setup</text></g><!--link Campaign to DLP--><g class="link" data-entity-1="ent0003" data-entity-2="ent0014" data-link-type="dependency" data-source-line="232" id="lnk17"><path d="M405.1,356.1814 C414.09,378.3914 427.68,402.4714 447.59,417.8714 C478.49,441.7614 577.2198,457.6917 643.9398,466.1617" fill="none" id="Campaign-to-DLP" style="stroke:#181818;stroke-width:1;"/><polygon fill="#181818" points="648.9,466.7914,640.4754,461.6898,643.9398,466.1617,639.4679,469.6261,648.9,466.7914" style="stroke:#181818;stroke-width:1;stroke-linejoin:miter;stroke-miterlimit:10;"/><text fill="#000000" font-family="sans-serif" font-size="13" lengthAdjust="spacing" textLength="104.9585" x="448.59" y="406.9398">Campaign mgmt</text></g><!--link CSMaker to DLP--><g class="link" data-entity-1="ent0004" data-entity-2="ent0014" data-link-type="dependency" data-source-line="233" id="lnk18"><path d="M552.87,356.0814 C556.6,377.3614 564.02,400.7514 578.59,417.8714 C596.6,439.0414 619.4024,450.7828 644.4324,459.0528" fill="none" id="CSMaker-to-DLP" style="stroke:#181818;stroke-width:1;"/><polygon fill="#181818" points="649.18,460.6214,641.8893,453.9998,644.4324,459.0528,639.3795,461.596,649.18,460.6214" style="stroke:#181818;stroke-width:1;stroke-linejoin:miter;stroke-miterlimit:10;"/><text fill="#000000" font-family="sans-serif" font-size="13" lengthAdjust="spacing" textLength="116.1367" x="579.59" y="406.9398">Create adjustment</text></g><!--link CSChecker to DLP--><g class="link" data-entity-1="ent0005" data-entity-2="ent0014" data-link-type="dependency" data-source-line="234" id="lnk19"><path d="M705.34,356.3014 C704.54,375.7214 704.05,397.7714 704.59,417.8714 C704.85,427.5114 705.0858,433.0995 705.6158,442.4095" fill="none" id="CSChecker-to-DLP" style="stroke:#181818;stroke-width:1;"/><polygon fill="#181818" points="705.9,447.4014,709.382,438.1886,705.6158,442.4095,701.3949,438.6433,705.9,447.4014" style="stroke:#181818;stroke-width:1;stroke-linejoin:miter;stroke-miterlimit:10;"/><text fill="#000000" font-family="sans-serif" font-size="13" lengthAdjust="spacing" textLength="127.9053" x="705.59" y="406.9398">Approve adjustment</text></g><!--link Fraud to DLP--><g class="link" data-entity-1="ent0006" data-entity-2="ent0014" data-link-type="dependency" data-source-line="235" id="lnk20"><path d="M868.22,356.3014 C862.59,377.6114 853.21,400.9814 837.59,417.8714 C818.68,438.3214 795.7298,449.9495 770.7498,458.3395" fill="none" id="Fraud-to-DLP" style="stroke:#181818;stroke-width:1;"/><polygon fill="#181818" points="766.01,459.9314,775.8152,460.8577,770.7498,458.3395,773.2681,453.2741,766.01,459.9314" style="stroke:#181818;stroke-width:1;stroke-linejoin:miter;stroke-miterlimit:10;"/><text fill="#000000" font-family="sans-serif" font-size="13" lengthAdjust="spacing" textLength="95.1069" x="858.22" y="399.4398">Review velocity</text><text fill="#000000" font-family="sans-serif" font-size="13" lengthAdjust="spacing" textLength="63.9336" x="873.8067" y="414.7503">anomalies</text></g><!--link EA to DLP--><g class="link" data-entity-1="ent0007" data-entity-2="ent0014" data-link-type="dependency" data-source-line="236" id="lnk21"><path d="M1001.63,348.0314 C995.11,372.1914 983.41,400.3414 962.59,417.8714 C933.34,442.4914 836.8113,458.1407 771.0313,466.3707" fill="none" id="EA-to-DLP" style="stroke:#181818;stroke-width:1;"/><polygon fill="#181818" points="766.07,466.9914,775.497,469.8431,771.0313,466.3707,774.5038,461.905,766.07,466.9914" style="stroke:#181818;stroke-width:1;stroke-linejoin:miter;stroke-miterlimit:10;"/><text fill="#000000" font-family="sans-serif" font-size="13" lengthAdjust="spacing" textLength="77.0288" x="996.6017" y="399.4398">Architecture</text><text fill="#000000" font-family="sans-serif" font-size="13" lengthAdjust="spacing" textLength="94.0723" x="988.08" y="414.7503">change control</text></g><!--link RDB to DLP--><g class="link" data-entity-1="ent0008" data-entity-2="ent0014" data-link-type="dependency" data-source-line="238" id="lnk22"><path d="M102.97,356.1614 C117.48,379.0814 137.53,403.7214 162.59,417.8714 C244.59,464.1514 520.7702,471.9827 643.9702,473.1827" fill="none" id="RDB-to-DLP" style="stroke:#181818;stroke-width:1;"/><polygon fill="#181818" points="648.97,473.2314,640.0094,469.1439,643.9702,473.1827,639.9315,477.1436,648.97,473.2314" style="stroke:#181818;stroke-width:1;stroke-linejoin:miter;stroke-miterlimit:10;"/><text fill="#000000" font-family="sans-serif" font-size="13" lengthAdjust="spacing" textLength="103.1558" x="163.59" y="406.9398">Mobile-BFF calls</text></g><!--link PH to DLP--><g class="link" data-entity-1="ent0009" data-entity-2="ent0014" data-link-type="dependency" data-source-line="239" id="lnk23"><path d="M1146.27,356.2214 C1132.9,378.8714 1114.29,403.2714 1090.59,417.8714 C1037.46,450.5914 864.7815,464.7494 771.2715,470.2194" fill="none" id="PH-to-DLP" style="stroke:#181818;stroke-width:1;"/><polygon fill="#181818" points="766.28,470.5114,775.4982,473.979,771.2715,470.2194,775.0311,465.9927,766.28,470.5114" style="stroke:#181818;stroke-width:1;stroke-linejoin:miter;stroke-miterlimit:10;"/><text fill="#000000" font-family="sans-serif" font-size="13" lengthAdjust="spacing" textLength="93.7485" x="1132.6608" y="399.4398">Domain events</text><text fill="#000000" font-family="sans-serif" font-size="13" lengthAdjust="spacing" textLength="107.9102" x="1125.58" y="414.7503">(CardSpend, etc.)</text></g><!--link T24A to DLP--><g class="link" data-entity-1="ent0010" data-entity-2="ent0014" data-link-type="dependency" data-source-line="240" id="lnk24"><path d="M1335.67,356.3114 C1309.48,379.2714 1276.22,403.8914 1241.59,417.8714 C1156.45,452.2314 891.116,466.3725 771.036,471.1525" fill="none" id="T24A-to-DLP" style="stroke:#181818;stroke-width:1;"/><polygon fill="#181818" points="766.04,471.3514,775.192,474.9903,771.036,471.1525,774.8738,466.9966,766.04,471.3514" style="stroke:#181818;stroke-width:1;stroke-linejoin:miter;stroke-miterlimit:10;"/><text fill="#000000" font-family="sans-serif" font-size="13" lengthAdjust="spacing" textLength="96.1543" x="1296.27" y="406.9398">Account events</text></g><!--link DLP to NSvc--><g class="link" data-entity-1="ent0014" data-entity-2="ent0011" data-link-type="dependency" data-source-line="241" id="lnk25"><path d="M649.13,489.4114 C623.94,497.9214 595.71,511.0714 575.59,530.8514 C558.52,547.6214 548.4694,566.4 540.5694,587.83" fill="none" id="DLP-to-NSvc" style="stroke:#181818;stroke-width:1;"/><polygon fill="#181818" points="538.84,592.5214,545.7061,585.4605,540.5694,587.83,538.1999,582.6934,538.84,592.5214" style="stroke:#181818;stroke-width:1;stroke-linejoin:miter;stroke-miterlimit:10;"/><text fill="#000000" font-family="sans-serif" font-size="13" lengthAdjust="spacing" textLength="119.1138" x="576.59" y="544.4198">Push / SMS / Email</text><text fill="#000000" font-family="sans-serif" font-size="13" lengthAdjust="spacing" textLength="86.7217" x="592.786" y="559.7303">event fan-out</text></g><!--link DLP to KC--><g class="link" data-entity-1="ent0014" data-entity-2="ent0012" data-link-type="dependency" data-source-line="242" id="lnk26"><path d="M705.6155,506.3133 C705.0855,515.6133 704.85,521.2014 704.59,530.8514 C703.97,553.8514 704.3166,574.4348 705.0966,595.6848" fill="none" id="DLP-KC" style="stroke:#181818;stroke-width:1;"/><polygon fill="#181818" points="705.9,501.3214,701.3944,510.0792,705.6155,506.3133,709.3814,510.5344,705.9,501.3214" style="stroke:#181818;stroke-width:1;stroke-linejoin:miter;stroke-miterlimit:10;"/><polygon fill="#181818" points="705.28,600.6814,708.9472,591.5407,705.0966,595.6848,700.9526,591.8342,705.28,600.6814" style="stroke:#181818;stroke-width:1;stroke-linejoin:miter;stroke-miterlimit:10;"/><text fill="#000000" font-family="sans-serif" font-size="13" lengthAdjust="spacing" textLength="152.2866" x="705.59" y="551.9198">OAuth2 / JWT validation</text></g><!--link DLP to Voucher--><g class="link" data-entity-1="ent0014" data-entity-2="ent0013" data-link-type="dependency" data-source-line="244" id="lnk27"><path d="M771.1245,484.7147 C803.3945,492.0847 837.06,504.8414 862.59,530.8514 C878.85,547.4214 887.0972,566.1383 892.6272,587.6883" fill="none" id="DLP-Voucher" style="stroke:#181818;stroke-width:1;"/><polygon fill="#181818" points="766.25,483.6014,774.1335,489.5049,771.1245,484.7147,775.9147,481.7057,766.25,483.6014" style="stroke:#181818;stroke-width:1;stroke-linejoin:miter;stroke-miterlimit:10;"/><polygon fill="#181818" points="893.87,592.5314,895.5074,582.8196,892.6272,587.6883,887.7585,584.8081,893.87,592.5314" style="stroke:#181818;stroke-width:1;stroke-linejoin:miter;stroke-miterlimit:10;"/><text fill="#000000" font-family="sans-serif" font-size="13" lengthAdjust="spacing" textLength="134.2974" x="883.69" y="551.9198">Voucher provisioning</text></g><?plantuml-src ZLFRRjD047tVhnYLbrHgA6f1Wgggb3YsMY0q955voSjaFN6MsBlMUXs8418VmHVo9Spw4gV83xnOriuvPsvdd78fmKGboc4A7yq1KtU0Fxz-myBXZhOcZSd257CXYftIELhC0AKp5du8W37ANM9DgUF0fCRUtZveHrPZUdS7ByAtqPlmNHyg_DwXeYYw3b_reMPedIPRILr7Lz54_1IYpdqs9uVgMF1AJobRSw63e2oSoSYUdm4MqBoU9cm5sbPdrYJS4okWneHinVEFqyGJktvQOe1PZYhHq11M-f9_xOwSqad5FY9wwKs1i22xLv9yufslV1H_vL1RUR2ed_zF8jYIh4Not9fz9z86-cGYYsKCZtcnqeCvxHLzWyybbLHpwsWVRunw1-48Bk5XMK7v_nck1KxDMh6vF9v70rmRPxetXQkUO9QYsnYRrVdcat5ljXaUCj8ExiiritanSIcv8RE14As6SC_1efQOtVUFozYJ8cBCdL_QCwcHbEmxzqnjUVLwrAkdZLCR9T4feuT5kuB1O-dMthmGR55hIXkPJukzx9KPbMxBsHgXTfSLvqFGFz1h6m_zKHpWoPHowzlWBlRAd-YWkPOwQnE7aoCImf9qg1DUoTa_1yywpJ8gzkJZhBhBYEzID3Sq7DvLExfXnxYXqXVmn8wvMEavnKIPQ4_6upp_fhqizibIiS0bGqlENP0hSt6yaGv_VCgIp8ds04xYbj0HO7KdtXEYytU7QYxW55PRkOCqPjzJQgJopQCs6QQA2i5MFf6oSgiS3wsql639Qqq8fD7EcbG8FumEMtjzE8uYa9YcXM0pTj49woiDLDcBlHAWZHSvwVW2oCcNvw8osqdcneyrGVX77woyn8CjYorFTJ5Ty3TavNIbAoHiK0zDwIh2hMUmatXXtcfNZ7t_PGbxRZIkB2SwM6kNc-EV7w8g6CL78_u2?></g></svg>