<svg xmlns="http://www.w3.org/2000/svg" xmlns:xlink="http://www.w3.org/1999/xlink" contentStyleType="text/css" data-diagram-type="DESCRIPTION" height="668px" preserveAspectRatio="none" style="width:1811px;height:668px;background:#FFFFFF;" version="1.1" viewBox="0 0 1811 668" width="1811px" zoomAndPan="magnify"><?plantuml 1.2026.4?><defs/><g><g class="title" data-source-line="602"><text fill="#000000" font-family="sans-serif" font-size="14" font-weight="700" lengthAdjust="spacing" textLength="308.5127" x="747.8887" y="23.5352">4.2.3 ACL Adapters &amp; External Integrations</text></g><!--cluster Internal Loyalty Services--><g class="cluster" data-qualified-name="Internal Loyalty Services" data-source-line="614" id="ent0001"><path d="M265.79,230.9283 L442.9316,230.9283 A3.75,3.75 0 0 1 445.4316,233.4283 L452.4316,253.4166 L1070.79,253.4166 A2.5,2.5 0 0 1 1073.29,255.9166 L1073.29,358.8983 A2.5,2.5 0 0 1 1070.79,361.3983 L265.79,361.3983 A2.5,2.5 0 0 1 263.29,358.8983 L263.29,233.4283 A2.5,2.5 0 0 1 265.79,230.9283" fill="none" style="stroke:#000000;stroke-width:1.5;"/><line style="stroke:#000000;stroke-width:1.5;" x1="263.29" x2="452.4316" y1="253.4166" y2="253.4166"/><text fill="#000000" font-family="sans-serif" font-size="14" font-weight="700" lengthAdjust="spacing" textLength="176.1416" x="267.29" y="246.4634">Internal Loyalty Services</text></g><!--cluster Integration Bridge (Inbound ACL)--><g class="cluster" data-qualified-name="Integration Bridge .Inbound ACL." data-source-line="621" id="ent0006"><path d="M217.79,43.4883 L457.5078,43.4883 A3.75,3.75 0 0 1 460.0078,45.9883 L467.0078,65.9766 L1144.79,65.9766 A2.5,2.5 0 0 1 1147.29,68.4766 L1147.29,204.4283 A2.5,2.5 0 0 1 1144.79,206.9283 L217.79,206.9283 A2.5,2.5 0 0 1 215.29,204.4283 L215.29,45.9883 A2.5,2.5 0 0 1 217.79,43.4883" fill="none" style="stroke:#000000;stroke-width:1.5;"/><line style="stroke:#000000;stroke-width:1.5;" x1="215.29" x2="467.0078" y1="65.9766" y2="65.9766"/><text fill="#000000" font-family="sans-serif" font-size="14" font-weight="700" lengthAdjust="spacing" textLength="238.7178" x="219.29" y="59.0234">Integration Bridge (Inbound ACL)</text></g><!--cluster Fulfillment Adapters (Outbound ACL)--><g class="cluster" data-qualified-name="Fulfillment Adapters .Outbound ACL." data-source-line="627" id="ent0010"><path d="M489.79,385.3983 L758.8545,385.3983 A3.75,3.75 0 0 1 761.3545,387.8983 L768.3545,407.8866 L1494.79,407.8866 A2.5,2.5 0 0 1 1497.29,410.3866 L1497.29,513.3583 A2.5,2.5 0 0 1 1494.79,515.8583 L489.79,515.8583 A2.5,2.5 0 0 1 487.29,513.3583 L487.29,387.8983 A2.5,2.5 0 0 1 489.79,385.3983" fill="none" style="stroke:#000000;stroke-width:1.5;"/><line style="stroke:#000000;stroke-width:1.5;" x1="487.29" x2="768.3545" y1="407.8866" y2="407.8866"/><text fill="#000000" font-family="sans-serif" font-size="14" font-weight="700" lengthAdjust="spacing" textLength="268.0645" x="491.29" y="400.9334">Fulfillment Adapters (Outbound ACL)</text></g><!--cluster Notification Adapter (Outbound)--><g class="cluster" data-qualified-name="Notification Adapter .Outbound." data-source-line="634" id="ent0015"><path d="M216.79,385.3983 L451.333,385.3983 A3.75,3.75 0 0 1 453.833,387.8983 L460.833,407.8866 L460.79,407.8866 A2.5,2.5 0 0 1 463.29,410.3866 L463.29,513.3583 A2.5,2.5 0 0 1 460.79,515.8583 L216.79,515.8583 A2.5,2.5 0 0 1 214.29,513.3583 L214.29,387.8983 A2.5,2.5 0 0 1 216.79,385.3983" fill="none" style="stroke:#000000;stroke-width:1.5;"/><line style="stroke:#000000;stroke-width:1.5;" x1="214.29" x2="460.833" y1="407.8866" y2="407.8866"/><text fill="#000000" font-family="sans-serif" font-size="14" font-weight="700" lengthAdjust="spacing" textLength="233.543" x="218.29" y="400.9334">Notification Adapter (Outbound)</text></g><!--cluster External Systems--><g class="cluster" data-qualified-name="External Systems" data-source-line="638" id="ent0017"><path d="M760.79,539.8583 L884.748,539.8583 A3.75,3.75 0 0 1 887.248,542.3583 L894.248,562.3466 L1793.79,562.3466 A2.5,2.5 0 0 1 1796.29,564.8466 L1796.29,651.3383 A2.5,2.5 0 0 1 1793.79,653.8383 L760.79,653.8383 A2.5,2.5 0 0 1 758.29,651.3383 L758.29,542.3583 A2.5,2.5 0 0 1 760.79,539.8583" fill="none" style="stroke:#000000;stroke-width:1.5;"/><line style="stroke:#000000;stroke-width:1.5;" x1="758.29" x2="894.248" y1="562.3466" y2="562.3466"/><text fill="#000000" font-family="sans-serif" font-size="14" font-weight="700" lengthAdjust="spacing" textLength="122.958" x="762.29" y="555.3934">External Systems</text></g><!--entity Earn--><g class="entity" data-qualified-name="Internal Loyalty Services.Earn" data-source-line="615" id="ent0002"><rect fill="#C8E6C9" height="62.9766" rx="2.5" ry="2.5" style="stroke:#424242;stroke-width:0.5;" width="143.8037" x="279.39" y="274.1783"/><rect fill="#C8E6C9" height="10" style="stroke:#424242;stroke-width:0.5;" width="15" x="403.1937" y="279.1783"/><rect fill="#C8E6C9" height="2" style="stroke:#424242;stroke-width:0.5;" width="4" x="401.1937" y="281.1783"/><rect fill="#C8E6C9" height="2" style="stroke:#424242;stroke-width:0.5;" width="4" x="401.1937" y="285.1783"/><text fill="#000000" font-family="sans-serif" font-size="14" font-style="italic" lengthAdjust="spacing" textLength="46.4844" x="323.0497" y="307.7134">&#171;Core&#187;</text><text fill="#000000" font-family="sans-serif" font-size="14" lengthAdjust="spacing" textLength="103.8037" x="294.39" y="324.2017">loyalty-earning</text></g><!--entity Core--><g class="entity" data-qualified-name="Internal Loyalty Services.Core" data-source-line="616" id="ent0003"><rect fill="#C8E6C9" height="79.4648" rx="2.5" ry="2.5" style="stroke:#424242;stroke-width:0.5;" width="199.3799" x="458.6" y="265.9283"/><rect fill="#C8E6C9" height="10" style="stroke:#424242;stroke-width:0.5;" width="15" x="637.9799" y="270.9283"/><rect fill="#C8E6C9" height="2" style="stroke:#424242;stroke-width:0.5;" width="4" x="635.9799" y="272.9283"/><rect fill="#C8E6C9" height="2" style="stroke:#424242;stroke-width:0.5;" width="4" x="635.9799" y="276.9283"/><text fill="#000000" font-family="sans-serif" font-size="14" font-style="italic" lengthAdjust="spacing" textLength="46.4844" x="530.0478" y="299.4634">&#171;Core&#187;</text><text fill="#000000" font-family="sans-serif" font-size="14" lengthAdjust="spacing" textLength="81.6895" x="473.6" y="315.9517">loyalty-core</text><text fill="#000000" font-family="sans-serif" font-size="14" lengthAdjust="spacing" textLength="159.3799" x="473.6" y="332.44">(Membership + Ledger)</text></g><!--entity Redm--><g class="entity" data-qualified-name="Internal Loyalty Services.Redm" data-source-line="617" id="ent0004"><rect fill="#C8E6C9" height="62.9766" rx="2.5" ry="2.5" style="stroke:#424242;stroke-width:0.5;" width="170.9834" x="886.8" y="274.1783"/><rect fill="#C8E6C9" height="10" style="stroke:#424242;stroke-width:0.5;" width="15" x="1037.7834" y="279.1783"/><rect fill="#C8E6C9" height="2" style="stroke:#424242;stroke-width:0.5;" width="4" x="1035.7834" y="281.1783"/><rect fill="#C8E6C9" height="2" style="stroke:#424242;stroke-width:0.5;" width="4" x="1035.7834" y="285.1783"/><text fill="#000000" font-family="sans-serif" font-size="14" font-style="italic" lengthAdjust="spacing" textLength="46.4844" x="944.0495" y="307.7134">&#171;Core&#187;</text><text fill="#000000" font-family="sans-serif" font-size="14" lengthAdjust="spacing" textLength="130.9834" x="901.8" y="324.2017">loyalty-redemption</text></g><!--entity Camp--><g class="entity" data-qualified-name="Internal Loyalty Services.Camp" data-source-line="618" id="ent0005"><rect fill="#C8E6C9" height="62.9766" rx="2.5" ry="2.5" style="stroke:#424242;stroke-width:0.5;" width="158.3711" x="693.1" y="274.1783"/><rect fill="#C8E6C9" height="10" style="stroke:#424242;stroke-width:0.5;" width="15" x="831.4711" y="279.1783"/><rect fill="#C8E6C9" height="2" style="stroke:#424242;stroke-width:0.5;" width="4" x="829.4711" y="281.1783"/><rect fill="#C8E6C9" height="2" style="stroke:#424242;stroke-width:0.5;" width="4" x="829.4711" y="285.1783"/><text fill="#000000" font-family="sans-serif" font-size="14" font-style="italic" lengthAdjust="spacing" textLength="46.4844" x="744.0434" y="307.7134">&#171;Core&#187;</text><text fill="#000000" font-family="sans-serif" font-size="14" lengthAdjust="spacing" textLength="118.3711" x="708.1" y="324.2017">loyalty-campaign</text></g><!--entity PHIn--><g class="entity" data-qualified-name="Integration Bridge .Inbound ACL..PHIn" data-source-line="622" id="ent0007"><rect fill="#B0BEC5" height="112.4414" rx="2.5" ry="2.5" style="stroke:#424242;stroke-width:0.5;" width="240.1836" x="231.2" y="78.4883"/><rect fill="#B0BEC5" height="10" style="stroke:#424242;stroke-width:0.5;" width="15" x="451.3836" y="83.4883"/><rect fill="#B0BEC5" height="2" style="stroke:#424242;stroke-width:0.5;" width="4" x="449.3836" y="85.4883"/><rect fill="#B0BEC5" height="2" style="stroke:#424242;stroke-width:0.5;" width="4" x="449.3836" y="89.4883"/><text fill="#000000" font-family="sans-serif" font-size="14" font-style="italic" lengthAdjust="spacing" textLength="70.0752" x="311.2542" y="112.0234">&#171;External&#187;</text><text fill="#000000" font-family="sans-serif" font-size="14" lengthAdjust="spacing" textLength="200.1836" x="246.2" y="128.5117">PaymentHub Event Consumer</text><text fill="#000000" font-family="sans-serif" font-size="14" lengthAdjust="spacing" textLength="171.541" x="246.2" y="145">ACL: PaymentCompleted,</text><text fill="#000000" font-family="sans-serif" font-size="14" lengthAdjust="spacing" textLength="123.3613" x="246.2" y="161.4883">CardSpendPosted,</text><text fill="#000000" font-family="sans-serif" font-size="14" lengthAdjust="spacing" textLength="118.7539" x="246.2" y="177.9766">PaymentReversed</text></g><!--entity T24In--><g class="entity" data-qualified-name="Integration Bridge .Inbound ACL..T24In" data-source-line="623" id="ent0008"><rect fill="#B0BEC5" height="95.9531" rx="2.5" ry="2.5" style="stroke:#424242;stroke-width:0.5;" width="303.3887" x="506.59" y="86.7383"/><rect fill="#B0BEC5" height="10" style="stroke:#424242;stroke-width:0.5;" width="15" x="789.9787" y="91.7383"/><rect fill="#B0BEC5" height="2" style="stroke:#424242;stroke-width:0.5;" width="4" x="787.9787" y="93.7383"/><rect fill="#B0BEC5" height="2" style="stroke:#424242;stroke-width:0.5;" width="4" x="787.9787" y="97.7383"/><text fill="#000000" font-family="sans-serif" font-size="14" font-style="italic" lengthAdjust="spacing" textLength="70.0752" x="618.2467" y="120.2734">&#171;External&#187;</text><text fill="#000000" font-family="sans-serif" font-size="14" lengthAdjust="spacing" textLength="263.3887" x="521.59" y="136.7617">Core Banking Adapter Event Consumer</text><text fill="#000000" font-family="sans-serif" font-size="14" lengthAdjust="spacing" textLength="208.9678" x="521.59" y="153.25">ACL: AccountBalanceSnapshot,</text><text fill="#000000" font-family="sans-serif" font-size="14" lengthAdjust="spacing" textLength="173.8516" x="521.59" y="169.7383">TermDepositOpened, etc.</text></g><!--entity RDBIn--><g class="entity" data-qualified-name="Integration Bridge .Inbound ACL..RDBIn" data-source-line="624" id="ent0009"><rect fill="#B0BEC5" height="79.4648" rx="2.5" ry="2.5" style="stroke:#424242;stroke-width:0.5;" width="286.8252" x="844.88" y="94.9783"/><rect fill="#B0BEC5" height="10" style="stroke:#424242;stroke-width:0.5;" width="15" x="1111.7052" y="99.9783"/><rect fill="#B0BEC5" height="2" style="stroke:#424242;stroke-width:0.5;" width="4" x="1109.7052" y="101.9783"/><rect fill="#B0BEC5" height="2" style="stroke:#424242;stroke-width:0.5;" width="4" x="1109.7052" y="105.9783"/><text fill="#000000" font-family="sans-serif" font-size="14" font-style="italic" lengthAdjust="spacing" textLength="70.0752" x="948.255" y="128.5134">&#171;External&#187;</text><text fill="#000000" font-family="sans-serif" font-size="14" lengthAdjust="spacing" textLength="246.8252" x="859.88" y="145.0017">Customer-Lifecycle Event Consumer</text><text fill="#000000" font-family="sans-serif" font-size="14" lengthAdjust="spacing" textLength="147.6973" x="859.88" y="161.49">ACL: CustomerClosed</text></g><!--entity CashAdp--><g class="entity" data-qualified-name="Fulfillment Adapters .Outbound ACL..CashAdp" data-source-line="628" id="ent0011"><rect fill="#B0BEC5" height="79.4648" rx="2.5" ry="2.5" style="stroke:#424242;stroke-width:0.5;" width="245.6113" x="1235.48" y="420.3983"/><rect fill="#B0BEC5" height="10" style="stroke:#424242;stroke-width:0.5;" width="15" x="1461.0913" y="425.3983"/><rect fill="#B0BEC5" height="2" style="stroke:#424242;stroke-width:0.5;" width="4" x="1459.0913" y="427.3983"/><rect fill="#B0BEC5" height="2" style="stroke:#424242;stroke-width:0.5;" width="4" x="1459.0913" y="431.3983"/><text fill="#000000" font-family="sans-serif" font-size="14" font-style="italic" lengthAdjust="spacing" textLength="70.0752" x="1318.2481" y="453.9334">&#171;External&#187;</text><text fill="#000000" font-family="sans-serif" font-size="14" lengthAdjust="spacing" textLength="118.918" x="1250.48" y="470.4217">CashbackAdapter</text><text fill="#000000" font-family="sans-serif" font-size="14" lengthAdjust="spacing" textLength="205.6113" x="1250.48" y="486.91">&#8594; Payment Hub disbursement</text></g><!--entity BillAdp--><g class="entity" data-qualified-name="Fulfillment Adapters .Outbound ACL..BillAdp" data-source-line="629" id="ent0012"><rect fill="#B0BEC5" height="79.4648" rx="2.5" ry="2.5" style="stroke:#424242;stroke-width:0.5;" width="227.3799" x="718.6" y="420.3983"/><rect fill="#B0BEC5" height="10" style="stroke:#424242;stroke-width:0.5;" width="15" x="925.9799" y="425.3983"/><rect fill="#B0BEC5" height="2" style="stroke:#424242;stroke-width:0.5;" width="4" x="923.9799" y="427.3983"/><rect fill="#B0BEC5" height="2" style="stroke:#424242;stroke-width:0.5;" width="4" x="923.9799" y="431.3983"/><text fill="#000000" font-family="sans-serif" font-size="14" font-style="italic" lengthAdjust="spacing" textLength="70.0752" x="792.2523" y="453.9334">&#171;External&#187;</text><text fill="#000000" font-family="sans-serif" font-size="14" lengthAdjust="spacing" textLength="187.3799" x="733.6" y="470.4217">BillPaymentVoucherAdapter</text><text fill="#000000" font-family="sans-serif" font-size="14" lengthAdjust="spacing" textLength="180.1064" x="733.6" y="486.91">&#8594; internal voucher service</text></g><!--entity TPAdp--><g class="entity" data-qualified-name="Fulfillment Adapters .Outbound ACL..TPAdp" data-source-line="630" id="ent0013"><rect fill="#B0BEC5" height="79.4648" rx="2.5" ry="2.5" style="stroke:#424242;stroke-width:0.5;" width="219.4844" x="980.55" y="420.3983"/><rect fill="#B0BEC5" height="10" style="stroke:#424242;stroke-width:0.5;" width="15" x="1180.0344" y="425.3983"/><rect fill="#B0BEC5" height="2" style="stroke:#424242;stroke-width:0.5;" width="4" x="1178.0344" y="427.3983"/><rect fill="#B0BEC5" height="2" style="stroke:#424242;stroke-width:0.5;" width="4" x="1178.0344" y="431.3983"/><text fill="#000000" font-family="sans-serif" font-size="14" font-style="italic" lengthAdjust="spacing" textLength="70.0752" x="1050.2546" y="453.9334">&#171;External&#187;</text><text fill="#000000" font-family="sans-serif" font-size="14" lengthAdjust="spacing" textLength="179.4844" x="995.55" y="470.4217">ThirdPartyVoucherAdapter</text><text fill="#000000" font-family="sans-serif" font-size="14" lengthAdjust="spacing" textLength="94.0146" x="995.55" y="486.91">&#8594; partner API</text></g><!--entity SwpAdp--><g class="entity" data-qualified-name="Fulfillment Adapters .Outbound ACL..SwpAdp" data-source-line="631" id="ent0014"><rect fill="#B0BEC5" height="79.4648" rx="2.5" ry="2.5" style="stroke:#424242;stroke-width:0.5;" width="179.7402" x="503.42" y="420.3983"/><rect fill="#B0BEC5" height="10" style="stroke:#424242;stroke-width:0.5;" width="15" x="663.1602" y="425.3983"/><rect fill="#B0BEC5" height="2" style="stroke:#424242;stroke-width:0.5;" width="4" x="661.1602" y="427.3983"/><rect fill="#B0BEC5" height="2" style="stroke:#424242;stroke-width:0.5;" width="4" x="661.1602" y="431.3983"/><text fill="#000000" font-family="sans-serif" font-size="14" font-style="italic" lengthAdjust="spacing" textLength="70.0752" x="553.2525" y="453.9334">&#171;External&#187;</text><text fill="#000000" font-family="sans-serif" font-size="14" lengthAdjust="spacing" textLength="139.7402" x="518.42" y="470.4217">SweepstakesAdapter</text><text fill="#000000" font-family="sans-serif" font-size="14" lengthAdjust="spacing" textLength="131.0244" x="518.42" y="486.91">&#8594; internal Drawing</text></g><!--entity NotifAdp--><g class="entity" data-qualified-name="Notification Adapter .Outbound..NotifAdp" data-source-line="635" id="ent0016"><rect fill="#B0BEC5" height="79.4648" rx="2.5" ry="2.5" style="stroke:#424242;stroke-width:0.5;" width="190.6982" x="256.94" y="420.3983"/><rect fill="#B0BEC5" height="10" style="stroke:#424242;stroke-width:0.5;" width="15" x="427.6382" y="425.3983"/><rect fill="#B0BEC5" height="2" style="stroke:#424242;stroke-width:0.5;" width="4" x="425.6382" y="427.3983"/><rect fill="#B0BEC5" height="2" style="stroke:#424242;stroke-width:0.5;" width="4" x="425.6382" y="431.3983"/><text fill="#000000" font-family="sans-serif" font-size="14" font-style="italic" lengthAdjust="spacing" textLength="70.0752" x="312.2515" y="453.9334">&#171;External&#187;</text><text fill="#000000" font-family="sans-serif" font-size="14" lengthAdjust="spacing" textLength="132.6719" x="271.94" y="470.4217">NotificationAdapter</text><text fill="#000000" font-family="sans-serif" font-size="14" lengthAdjust="spacing" textLength="150.6982" x="271.94" y="486.91">&#8594; notification-service</text></g><!--entity PH--><g class="entity" data-qualified-name="External Systems.PH" data-source-line="639" id="ent0018"><rect fill="#B0BEC5" height="62.9766" rx="2.5" ry="2.5" style="stroke:#424242;stroke-width:0.5;" width="129.7969" x="1234.39" y="574.8583"/><rect fill="#B0BEC5" height="10" style="stroke:#424242;stroke-width:0.5;" width="15" x="1344.1869" y="579.8583"/><rect fill="#B0BEC5" height="2" style="stroke:#424242;stroke-width:0.5;" width="4" x="1342.1869" y="581.8583"/><rect fill="#B0BEC5" height="2" style="stroke:#424242;stroke-width:0.5;" width="4" x="1342.1869" y="585.8583"/><text fill="#000000" font-family="sans-serif" font-size="14" font-style="italic" lengthAdjust="spacing" textLength="70.0752" x="1259.2508" y="608.3934">&#171;External&#187;</text><text fill="#000000" font-family="sans-serif" font-size="14" lengthAdjust="spacing" textLength="89.7969" x="1249.39" y="624.8817">Payment Hub</text></g><!--entity T24A--><g class="entity" data-qualified-name="External Systems.T24A" data-source-line="640" id="ent0019"><rect fill="#B0BEC5" height="62.9766" rx="2.5" ry="2.5" style="stroke:#424242;stroke-width:0.5;" width="188.5723" x="1399" y="574.8583"/><rect fill="#B0BEC5" height="10" style="stroke:#424242;stroke-width:0.5;" width="15" x="1567.5723" y="579.8583"/><rect fill="#B0BEC5" height="2" style="stroke:#424242;stroke-width:0.5;" width="4" x="1565.5723" y="581.8583"/><rect fill="#B0BEC5" height="2" style="stroke:#424242;stroke-width:0.5;" width="4" x="1565.5723" y="585.8583"/><text fill="#000000" font-family="sans-serif" font-size="14" font-style="italic" lengthAdjust="spacing" textLength="70.0752" x="1453.2485" y="608.3934">&#171;External&#187;</text><text fill="#000000" font-family="sans-serif" font-size="14" lengthAdjust="spacing" textLength="148.5723" x="1414" y="624.8817">Core Banking Adapter</text></g><!--entity RDBSvc--><g class="entity" data-qualified-name="External Systems.RDBSvc" data-source-line="641" id="ent0020"><rect fill="#B0BEC5" height="62.9766" rx="2.5" ry="2.5" style="stroke:#424242;stroke-width:0.5;" width="157.708" x="1622.44" y="574.8583"/><rect fill="#B0BEC5" height="10" style="stroke:#424242;stroke-width:0.5;" width="15" x="1760.148" y="579.8583"/><rect fill="#B0BEC5" height="2" style="stroke:#424242;stroke-width:0.5;" width="4" x="1758.148" y="581.8583"/><rect fill="#B0BEC5" height="2" style="stroke:#424242;stroke-width:0.5;" width="4" x="1758.148" y="585.8583"/><text fill="#000000" font-family="sans-serif" font-size="14" font-style="italic" lengthAdjust="spacing" textLength="70.0752" x="1661.2564" y="608.3934">&#171;External&#187;</text><text fill="#000000" font-family="sans-serif" font-size="14" lengthAdjust="spacing" textLength="117.708" x="1637.44" y="624.8817">Customer Service</text></g><!--entity VPartner--><g class="entity" data-qualified-name="External Systems.VPartner" data-source-line="642" id="ent0021"><rect fill="#B0BEC5" height="62.9766" rx="2.5" ry="2.5" style="stroke:#424242;stroke-width:0.5;" width="218.582" x="981" y="574.8583"/><rect fill="#B0BEC5" height="10" style="stroke:#424242;stroke-width:0.5;" width="15" x="1179.582" y="579.8583"/><rect fill="#B0BEC5" height="2" style="stroke:#424242;stroke-width:0.5;" width="4" x="1177.582" y="581.8583"/><rect fill="#B0BEC5" height="2" style="stroke:#424242;stroke-width:0.5;" width="4" x="1177.582" y="585.8583"/><text fill="#000000" font-family="sans-serif" font-size="14" font-style="italic" lengthAdjust="spacing" textLength="70.0752" x="1050.2534" y="608.3934">&#171;External&#187;</text><text fill="#000000" font-family="sans-serif" font-size="14" lengthAdjust="spacing" textLength="178.582" x="996" y="624.8817">3rd-Party Voucher Partner</text></g><!--entity NSvc--><g class="entity" data-qualified-name="External Systems.NSvc" data-source-line="643" id="ent0022"><rect fill="#B0BEC5" height="62.9766" rx="2.5" ry="2.5" style="stroke:#424242;stroke-width:0.5;" width="172.2686" x="774.16" y="574.8583"/><rect fill="#B0BEC5" height="10" style="stroke:#424242;stroke-width:0.5;" width="15" x="926.4286" y="579.8583"/><rect fill="#B0BEC5" height="2" style="stroke:#424242;stroke-width:0.5;" width="4" x="924.4286" y="581.8583"/><rect fill="#B0BEC5" height="2" style="stroke:#424242;stroke-width:0.5;" width="4" x="924.4286" y="585.8583"/><text fill="#000000" font-family="sans-serif" font-size="14" font-style="italic" lengthAdjust="spacing" textLength="70.0752" x="820.2567" y="608.3934">&#171;External&#187;</text><text fill="#000000" font-family="sans-serif" font-size="14" lengthAdjust="spacing" textLength="132.2686" x="789.16" y="624.8817">notification-service</text></g><g class="entity" data-qualified-name="GMN42" data-source-line="672" id="ent0043"><path d="M6,270.0483 L6,341.2905 A0,0 0 0 0 6,341.2905 L244.5786,341.2905 A0,0 0 0 0 244.5786,341.2905 L244.5786,280.0483 L234.5786,270.0483 L241.89,270.0483 L237.89,191.1583 L233.89,270.0483 L6,270.0483 A0,0 0 0 0 6,270.0483" fill="#FEFFDD" style="stroke:#181818;stroke-width:0.5;"/><path d="M234.5786,270.0483 L234.5786,280.0483 L244.5786,280.0483 L234.5786,270.0483" fill="#FEFFDD" style="stroke:#181818;stroke-width:0.5;"/><text fill="#000000" font-family="sans-serif" font-size="13" lengthAdjust="spacing" textLength="196.4663" x="12" y="287.6166">Producer commits to versioned</text><text fill="#000000" font-family="sans-serif" font-size="13" lengthAdjust="spacing" textLength="216.5186" x="12" y="302.9272">Domain Events with stable eventId</text><text fill="#000000" font-family="sans-serif" font-size="13" lengthAdjust="spacing" textLength="217.5786" x="12" y="318.2377">(ADR-0001). The Bridge translates</text><text fill="#000000" font-family="sans-serif" font-size="13" lengthAdjust="spacing" textLength="193.0195" x="12" y="333.5483">to Loyalty's internal EarnEvent.</text></g><!--link PH to PHIn--><g class="link" data-entity-1="ent0018" data-entity-2="ent0007" data-link-type="dependency" data-source-line="647" id="lnk23"><path d="M1234.22,606.8383 C1224.26,606.8383 1217.21,606.8383 1217.21,606.8383 C1217.21,606.8383 1217.21,186.8383 1217.21,186.8383 C1217.21,186.8383 714.62,186.8383 476.69,186.8383" fill="none" id="PH-to-PHIn" style="stroke:#181818;stroke-width:1;stroke-dasharray:7,7;"/><polygon fill="#181818" points="471.69,186.8383,480.69,190.8383,476.69,186.8383,480.69,182.8383,471.69,186.8383" style="stroke:#181818;stroke-width:1;stroke-linejoin:miter;stroke-miterlimit:10;"/></g><!--link T24A to T24In--><g class="link" data-entity-1="ent0019" data-entity-2="ent0008" data-link-type="dependency" data-source-line="648" id="lnk24"><path d="M1534.34,574.5683 C1534.34,475.4883 1534.34,178.8383 1534.34,178.8383 C1534.34,178.8383 1066.25,178.8383 815.38,178.8383" fill="none" id="T24A-to-T24In" style="stroke:#181818;stroke-width:1;stroke-dasharray:7,7;"/><polygon fill="#181818" points="810.38,178.8383,819.38,182.8383,815.38,178.8383,819.38,174.8383,810.38,178.8383" style="stroke:#181818;stroke-width:1;stroke-linejoin:miter;stroke-miterlimit:10;"/></g><!--link RDBSvc to RDBIn--><g class="link" data-entity-1="ent0020" data-entity-2="ent0009" data-link-type="dependency" data-source-line="649" id="lnk25"><path d="M1701.29,574.6783 C1701.29,468.9583 1701.29,134.8383 1701.29,134.8383 C1701.29,134.8383 1345.42,134.8383 1137.15,134.8383" fill="none" id="RDBSvc-to-RDBIn" style="stroke:#181818;stroke-width:1;stroke-dasharray:7,7;"/><polygon fill="#181818" points="1132.15,134.8383,1141.15,138.8383,1137.15,134.8383,1141.15,130.8383,1132.15,134.8383" style="stroke:#181818;stroke-width:1;stroke-linejoin:miter;stroke-miterlimit:10;"/></g><!--link PHIn to Earn--><g class="link" data-entity-1="ent0007" data-entity-2="ent0002" data-link-type="dependency" data-source-line="650" id="lnk26"><path d="M327.32,191.1583 C327.32,218.5883 327.32,245.5383 327.32,268.7083" fill="none" id="PHIn-to-Earn" style="stroke:#181818;stroke-width:1;"/><polygon fill="#181818" points="327.32,273.7083,331.32,264.7083,327.32,268.7083,323.32,264.7083,327.32,273.7083" style="stroke:#181818;stroke-width:1;stroke-linejoin:miter;stroke-miterlimit:10;"/><text fill="#000000" font-family="sans-serif" font-size="13" lengthAdjust="spacing" textLength="61.5596" x="265.32" y="229.0066">EarnEvent</text></g><!--link T24In to Earn--><g class="link" data-entity-1="ent0008" data-entity-2="ent0002" data-link-type="dependency" data-source-line="651" id="lnk27"><path d="M582.29,183.1583 C582.29,206.2183 582.29,228.8383 582.29,228.8383 C582.29,228.8383 375.26,228.8383 375.26,228.8383 C375.26,228.8383 375.26,247.8083 375.26,268.9683" fill="none" id="T24In-to-Earn" style="stroke:#181818;stroke-width:1;"/><polygon fill="#181818" points="375.26,273.9683,379.26,264.9683,375.26,268.9683,371.26,264.9683,375.26,273.9683" style="stroke:#181818;stroke-width:1;stroke-linejoin:miter;stroke-miterlimit:10;"/><text fill="#000000" font-family="sans-serif" font-size="13" lengthAdjust="spacing" textLength="61.5596" x="417.05" y="225.4066">EarnEvent</text></g><!--link RDBIn to Core--><g class="link" data-entity-1="ent0009" data-entity-2="ent0003" data-link-type="dependency" data-source-line="652" id="lnk28"><path d="M869.14,174.8883 C869.14,214.7183 869.14,269.8383 869.14,269.8383 C869.14,269.8383 754.22,269.8383 663.35,269.8383" fill="none" id="RDBIn-to-Core" style="stroke:#181818;stroke-width:1;"/><polygon fill="#181818" points="658.35,269.8383,667.35,273.8383,663.35,269.8383,667.35,265.8383,658.35,269.8383" style="stroke:#181818;stroke-width:1;stroke-linejoin:miter;stroke-miterlimit:10;"/><text fill="#000000" font-family="sans-serif" font-size="13" lengthAdjust="spacing" textLength="105.1426" x="705.22" y="266.4066">MemberLifecycle</text></g><!--link Redm to CashAdp--><g class="link" data-entity-1="ent0004" data-entity-2="ent0011" data-link-type="dependency" data-source-line="655" id="lnk29"><path d="M1057.96,305.8383 C1171.67,305.8383 1358.29,305.8383 1358.29,305.8383 C1358.29,305.8383 1358.29,369.2783 1358.29,414.9983" fill="none" id="Redm-to-CashAdp" style="stroke:#181818;stroke-width:1;"/><polygon fill="#181818" points="1358.29,419.9983,1362.29,410.9983,1358.29,414.9983,1354.29,410.9983,1358.29,419.9983" style="stroke:#181818;stroke-width:1;stroke-linejoin:miter;stroke-miterlimit:10;"/></g><!--link Redm to BillAdp--><g class="link" data-entity-1="ent0004" data-entity-2="ent0012" data-link-type="dependency" data-source-line="656" id="lnk30"><path d="M931.18,337.2983 C931.18,361.2183 931.18,389.2283 931.18,414.9983" fill="none" id="Redm-to-BillAdp" style="stroke:#181818;stroke-width:1;"/><polygon fill="#181818" points="931.18,419.9983,935.18,410.9983,931.18,414.9983,927.18,410.9983,931.18,419.9983" style="stroke:#181818;stroke-width:1;stroke-linejoin:miter;stroke-miterlimit:10;"/></g><!--link Redm to TPAdp--><g class="link" data-entity-1="ent0004" data-entity-2="ent0013" data-link-type="dependency" data-source-line="657" id="lnk31"><path d="M1019.16,337.2983 C1019.16,361.2183 1019.16,389.2283 1019.16,414.9983" fill="none" id="Redm-to-TPAdp" style="stroke:#181818;stroke-width:1;"/><polygon fill="#181818" points="1019.16,419.9983,1023.16,410.9983,1019.16,414.9983,1015.16,410.9983,1019.16,419.9983" style="stroke:#181818;stroke-width:1;stroke-linejoin:miter;stroke-miterlimit:10;"/></g><!--link Redm to SwpAdp--><g class="link" data-entity-1="ent0004" data-entity-2="ent0014" data-link-type="dependency" data-source-line="658" id="lnk32"><path d="M901.59,337.5883 C901.59,339.5983 901.59,340.8383 901.59,340.8383 C901.59,340.8383 674.77,340.8383 674.77,340.8383 C674.77,340.8383 674.77,380.4183 674.77,415.0783" fill="none" id="Redm-to-SwpAdp" style="stroke:#181818;stroke-width:1;"/><polygon fill="#181818" points="674.77,420.0783,678.77,411.0783,674.77,415.0783,670.77,411.0783,674.77,420.0783" style="stroke:#181818;stroke-width:1;stroke-linejoin:miter;stroke-miterlimit:10;"/></g><!--link CashAdp to PH--><g class="link" data-entity-1="ent0011" data-entity-2="ent0018" data-link-type="dependency" data-source-line="659" id="lnk33"><path d="M1299.84,500.0883 C1299.84,523.5883 1299.84,547.8983 1299.84,569.7783" fill="none" id="CashAdp-to-PH" style="stroke:#181818;stroke-width:1;stroke-dasharray:7,7;"/><polygon fill="#181818" points="1299.84,574.7783,1303.84,565.7783,1299.84,569.7783,1295.84,565.7783,1299.84,574.7783" style="stroke:#181818;stroke-width:1;stroke-linejoin:miter;stroke-miterlimit:10;"/><text fill="#000000" font-family="sans-serif" font-size="13" lengthAdjust="spacing" textLength="86.3154" x="1212.84" y="533.9966">disbursement</text></g><!--link BillAdp to NSvc--><g class="link" data-entity-1="ent0012" data-entity-2="ent0022" data-link-type="dependency" data-source-line="660" id="lnk34"><path d="M860.07,500.0883 C860.07,523.5883 860.07,547.8983 860.07,569.7783" fill="none" id="BillAdp-to-NSvc" style="stroke:#181818;stroke-width:1;stroke-dasharray:7,7;"/><polygon fill="#181818" points="860.07,574.7783,864.07,565.7783,860.07,569.7783,856.07,565.7783,860.07,574.7783" style="stroke:#181818;stroke-width:1;stroke-linejoin:miter;stroke-miterlimit:10;"/><text fill="#000000" font-family="sans-serif" font-size="13" lengthAdjust="spacing" textLength="87.3628" x="772.07" y="533.9966">(internal flow)</text></g><!--link TPAdp to VPartner--><g class="link" data-entity-1="ent0013" data-entity-2="ent0021" data-link-type="dependency" data-source-line="661" id="lnk35"><path d="M1090.29,500.0883 C1090.29,523.5883 1090.29,547.8983 1090.29,569.7783" fill="none" id="TPAdp-to-VPartner" style="stroke:#181818;stroke-width:1;stroke-dasharray:7,7;"/><polygon fill="#181818" points="1090.29,574.7783,1094.29,565.7783,1090.29,569.7783,1086.29,565.7783,1090.29,574.7783" style="stroke:#181818;stroke-width:1;stroke-linejoin:miter;stroke-miterlimit:10;"/><text fill="#000000" font-family="sans-serif" font-size="13" lengthAdjust="spacing" textLength="112.5947" x="977.29" y="533.9966">voucher provision</text></g><!--link SwpAdp to Camp--><g class="link" data-entity-1="ent0014" data-entity-2="ent0005" data-link-type="dependency" data-source-line="662" id="lnk36"><path d="M666.37,419.9983 C666.37,374.2783 666.37,305.8383 666.37,305.8383 C666.37,305.8383 672.64,305.8383 687.83,305.8383" fill="none" id="SwpAdp-to-Camp" style="stroke:#181818;stroke-width:1;stroke-dasharray:7,7;"/><polygon fill="#181818" points="692.83,305.8383,683.83,301.8383,687.83,305.8383,683.83,309.8383,692.83,305.8383" style="stroke:#181818;stroke-width:1;stroke-linejoin:miter;stroke-miterlimit:10;"/><text fill="#000000" font-family="sans-serif" font-size="13" lengthAdjust="spacing" textLength="76.9082" x="589.37" y="363.2566">record Entry</text></g><!--link Core to NotifAdp--><g class="link" data-entity-1="ent0003" data-entity-2="ent0016" data-link-type="dependency" data-source-line="665" id="lnk37"><path d="M458.25,305.8383 C441.43,305.8383 429.3,305.8383 429.3,305.8383 C429.3,305.8383 429.3,369.2783 429.3,414.9983" fill="none" id="Core-to-NotifAdp" style="stroke:#181818;stroke-width:1;"/><polygon fill="#181818" points="429.3,419.9983,433.3,410.9983,429.3,414.9983,425.3,410.9983,429.3,419.9983" style="stroke:#181818;stroke-width:1;stroke-linejoin:miter;stroke-miterlimit:10;"/></g><!--link Earn to NotifAdp--><g class="link" data-entity-1="ent0002" data-entity-2="ent0016" data-link-type="dependency" data-source-line="666" id="lnk38"><path d="M351.29,337.2983 C351.29,361.2183 351.29,389.2283 351.29,414.9983" fill="none" id="Earn-to-NotifAdp" style="stroke:#181818;stroke-width:1;"/><polygon fill="#181818" points="351.29,419.9983,355.29,410.9983,351.29,414.9983,347.29,410.9983,351.29,419.9983" style="stroke:#181818;stroke-width:1;stroke-linejoin:miter;stroke-miterlimit:10;"/></g><!--link Redm to NotifAdp--><g class="link" data-entity-1="ent0004" data-entity-2="ent0016" data-link-type="dependency" data-source-line="667" id="lnk39"><path d="M916.39,337.4583 C916.39,363.4183 916.39,395.8383 916.39,395.8383 C916.39,395.8383 441.53,395.8383 441.53,395.8383 C441.53,395.8383 441.53,402.0683 441.53,415.1483" fill="none" id="Redm-to-NotifAdp" style="stroke:#181818;stroke-width:1;"/><polygon fill="#181818" points="441.53,420.1483,445.53,411.1483,441.53,415.1483,437.53,411.1483,441.53,420.1483" style="stroke:#181818;stroke-width:1;stroke-linejoin:miter;stroke-miterlimit:10;"/></g><!--link Camp to NotifAdp--><g class="link" data-entity-1="ent0005" data-entity-2="ent0016" data-link-type="dependency" data-source-line="668" id="lnk40"><path d="M705.85,337.4883 C705.85,354.0283 705.85,370.8383 705.85,370.8383 C705.85,370.8383 435.41,370.8383 435.41,370.8383 C435.41,370.8383 435.41,391.2283 435.41,414.9283" fill="none" id="Camp-to-NotifAdp" style="stroke:#181818;stroke-width:1;"/><polygon fill="#181818" points="435.41,419.9283,439.41,410.9283,435.41,414.9283,431.41,410.9283,435.41,419.9283" style="stroke:#181818;stroke-width:1;stroke-linejoin:miter;stroke-miterlimit:10;"/></g><!--link NotifAdp to NSvc--><g class="link" data-entity-1="ent0016" data-entity-2="ent0022" data-link-type="dependency" data-source-line="669" id="lnk41"><path d="M352.29,500.2183 C352.29,543.6583 352.29,606.8383 352.29,606.8383 C352.29,606.8383 623.81,606.8383 768.83,606.8383" fill="none" id="NotifAdp-to-NSvc" style="stroke:#181818;stroke-width:1;stroke-dasharray:7,7;"/><polygon fill="#181818" points="773.83,606.8383,764.83,602.8383,768.83,606.8383,764.83,610.8383,773.83,606.8383" style="stroke:#181818;stroke-width:1;stroke-linejoin:miter;stroke-miterlimit:10;"/></g><?plantuml-src ZLNDRjj64BxpAGO9qCXe9IYEswP2O42a55Y0sn2MaKlTmueSIGkJkyJkKefGzDe7w2FsIJgpND9Kn0253Y9dlldxveTEkWBXPd8zUGVpv1xckQWS6WlVmV8BFIXHm4evt1dXf5OsYkopL9KmeeH2AdId2a4RjzTzJQRBIYjK3lwC06AHFU-ChbMUw4AR3nyIRV3s5budxvS_9RyC8TPxOJ1dpF9jl5p-F8HfysDKF8sNoO-3dZ2hZNGdHdry7yUBAQEqoT5u1Bo-kUPVz5SKLMGiTWYlk69V-hq-YSATO8tc83Eqhtn1lnUDU8p2AAbsVq1Nax2m964Vb97cIOr-nN93nEvb1T_3FUOxD5VdXlpKDoG6iAoOzdFS0-RbMG1HLaBkla8b9BqeAhGHOYCf0HYjr8QvujPVXTfISIgfStVr1fO7Rc52RQzBD4-AK3C8-eHQNA33_8SdbGYJhojKUQfj8mcW1pnGoPXpPhrsKNRftSgJnFbIqnIDpguTlk6uyooZL5qi2g4oN2jHsRrs5EiHJRd0IblfFb4I51_GPPFBc8_NDo5eRPqcp-DxkSNibD4638PiSKcX1ujuMCJaiC_nnxhOogBWsbzMQVIfTXSq9yBkDsGMK4_gtx__QRa59Z-NTbCJUIou3CtcyxnYJp4538QVTPtjqPpvbEqi7nebs6QMBtsoe-3pSIzDdWhZJaCkQScT8a_pT3N0SXfyh8-8bNNY6UrmGWiZZc5xpbsiZnNxw1FxctPoAxDcUjivwOXjIUsZpcAgdcByJGAy-TUHkpEuFj5mb_PyJRXLGzFzhTaUdCfvVoZRMpCuRkj3njXt9X_xxa1e3wHDIowDFWSDc_rF5ZW8CV06mdMOlNmAcCjmE_YnlPDHUWUJoMsprLoGVslshSdQ2vfzOH2CnxV-KCBC__drYxp1iCgRUfLdTGRDEUqMcDDjfs7MvUMJxFQGNzfA8ZwYZR-mIPsWNODEq4nqzngcCzY5kYcZ_i96mOdNCg6a7tM3lotqyIhoRZsWxH61sYMjZ3v8ItsAcd0UnoUTC0RfavB3KZbpuhhxKnzvUZZDRfWzbsUIhfHEuZsVITg7he8eel51s6X7OmfwsvxmrEYypYXb-kYNqbbm6lZgKpAOatwXIo5LSs0j7ANR0ns53TrSPD6ACQFvuc4ydKxVNatWSO_jY3aZb2s4GqiOSXk-nc_iomtf9cGIqVU7znoZ_m00?></g></svg>