<svg xmlns="http://www.w3.org/2000/svg" xmlns:xlink="http://www.w3.org/1999/xlink" contentStyleType="text/css" data-diagram-type="DESCRIPTION" height="792px" preserveAspectRatio="none" style="width:1057px;height:792px;background:#FFFFFF;" version="1.1" viewBox="0 0 1057 792" width="1057px" zoomAndPan="magnify"><?plantuml 1.2026.4?><defs/><g><g class="title" data-source-line="532"><text fill="#000000" font-family="sans-serif" font-size="14" font-weight="700" lengthAdjust="spacing" textLength="279.4326" x="385.2837" y="23.5352">4.2.2 Request Flow (Synchronous Path)</text></g><!--cluster Channels--><g class="cluster" data-qualified-name="Channels" data-source-line="548" id="ent0001"><path d="M204.5,43.4883 L271.959,43.4883 A3.75,3.75 0 0 1 274.459,45.9883 L281.459,65.9766 L651.5,65.9766 A2.5,2.5 0 0 1 654,68.4766 L654,171.4483 A2.5,2.5 0 0 1 651.5,173.9483 L204.5,173.9483 A2.5,2.5 0 0 1 202,171.4483 L202,45.9883 A2.5,2.5 0 0 1 204.5,43.4883" fill="none" style="stroke:#000000;stroke-width:1.5;"/><line style="stroke:#000000;stroke-width:1.5;" x1="202" x2="281.459" y1="65.9766" y2="65.9766"/><text fill="#000000" font-family="sans-serif" font-size="14" font-weight="700" lengthAdjust="spacing" textLength="66.459" x="206" y="59.0234">Channels</text></g><!--cluster Edge & Security--><g class="cluster" data-qualified-name="Edge . Security" data-source-line="553" id="ent0004"><path d="M8.5,197.9483 L121.876,197.9483 A3.75,3.75 0 0 1 124.376,200.4483 L131.376,220.4366 L541.5,220.4366 A2.5,2.5 0 0 1 544,222.9366 L544,448.8883 A2.5,2.5 0 0 1 541.5,451.3883 L8.5,451.3883 A2.5,2.5 0 0 1 6,448.8883 L6,200.4483 A2.5,2.5 0 0 1 8.5,197.9483" fill="none" style="stroke:#000000;stroke-width:1.5;"/><line style="stroke:#000000;stroke-width:1.5;" x1="6" x2="131.376" y1="220.4366" y2="220.4366"/><text fill="#000000" font-family="sans-serif" font-size="14" font-weight="700" lengthAdjust="spacing" textLength="112.376" x="10" y="213.4834">Edge &amp; Security</text></g><!--cluster BFFsPkg--><g class="cluster" data-qualified-name="BFFsPkg" data-source-line="559" id="ent0008"><path d="M578.5,321.1683 L612.3125,321.1683 A3.75,3.75 0 0 1 614.8125,323.6683 L621.8125,343.6566 L1033.5,343.6566 A2.5,2.5 0 0 1 1036,346.1566 L1036,448.6483 A2.5,2.5 0 0 1 1033.5,451.1483 L578.5,451.1483 A2.5,2.5 0 0 1 576,448.6483 L576,323.6683 A2.5,2.5 0 0 1 578.5,321.1683" fill="none" style="stroke:#000000;stroke-width:1.5;"/><line style="stroke:#000000;stroke-width:1.5;" x1="576" x2="621.8125" y1="343.6566" y2="343.6566"/><text fill="#000000" font-family="sans-serif" font-size="14" font-weight="700" lengthAdjust="spacing" textLength="32.8125" x="580" y="336.7034">BFFs</text></g><!--cluster CorePkg--><g class="cluster" data-qualified-name="CorePkg" data-source-line="564" id="ent0011"><path d="M562.5,491.1483 L660.5908,491.1483 A3.75,3.75 0 0 1 663.0908,493.6483 L670.0908,513.6366 L1033.5,513.6366 A2.5,2.5 0 0 1 1036,516.1366 L1036,774.5783 A2.5,2.5 0 0 1 1033.5,777.0783 L562.5,777.0783 A2.5,2.5 0 0 1 560,774.5783 L560,493.6483 A2.5,2.5 0 0 1 562.5,491.1483" fill="none" style="stroke:#000000;stroke-width:1.5;"/><line style="stroke:#000000;stroke-width:1.5;" x1="560" x2="670.0908" y1="513.6366" y2="513.6366"/><text fill="#000000" font-family="sans-serif" font-size="14" font-weight="700" lengthAdjust="spacing" textLength="97.0908" x="564" y="506.6834">Core Services</text></g><!--entity Mobile--><g class="entity" data-qualified-name="Channels.Mobile" data-source-line="549" id="ent0002"><rect fill="#FFE0B2" height="62.9766" rx="2.5" ry="2.5" style="stroke:#424242;stroke-width:0.5;" width="175.625" x="218.19" y="86.7283"/><rect fill="#FFE0B2" height="10" style="stroke:#424242;stroke-width:0.5;" width="15" x="373.815" y="91.7283"/><rect fill="#FFE0B2" height="2" style="stroke:#424242;stroke-width:0.5;" width="4" x="371.815" y="93.7283"/><rect fill="#FFE0B2" height="2" style="stroke:#424242;stroke-width:0.5;" width="4" x="371.815" y="97.7283"/><text fill="#000000" font-family="sans-serif" font-size="14" font-style="italic" lengthAdjust="spacing" textLength="70" x="266.0025" y="120.2634">&#171;Channel&#187;</text><text fill="#000000" font-family="sans-serif" font-size="14" lengthAdjust="spacing" textLength="135.625" x="233.19" y="136.7517">Mobile Banking App</text></g><!--entity BEP--><g class="entity" data-qualified-name="Channels.BEP" data-source-line="550" id="ent0003"><rect fill="#FFE0B2" height="79.4648" rx="2.5" ry="2.5" style="stroke:#424242;stroke-width:0.5;" width="194.7314" x="443.63" y="78.4883"/><rect fill="#FFE0B2" height="10" style="stroke:#424242;stroke-width:0.5;" width="15" x="618.3614" y="83.4883"/><rect fill="#FFE0B2" height="2" style="stroke:#424242;stroke-width:0.5;" width="4" x="616.3614" y="85.4883"/><rect fill="#FFE0B2" height="2" style="stroke:#424242;stroke-width:0.5;" width="4" x="616.3614" y="89.4883"/><text fill="#000000" font-family="sans-serif" font-size="14" font-style="italic" lengthAdjust="spacing" textLength="70" x="500.9957" y="112.0234">&#171;Channel&#187;</text><text fill="#000000" font-family="sans-serif" font-size="14" lengthAdjust="spacing" textLength="23.3789" x="458.63" y="128.5117">BEP</text><text fill="#000000" font-family="sans-serif" font-size="14" lengthAdjust="spacing" textLength="154.7314" x="458.63" y="145">(Bank Employee Portal)</text></g><!--entity APIGW--><g class="entity" data-qualified-name="Edge . Security.APIGW" data-source-line="554" id="ent0005"><rect fill="#F8BBD0" height="62.9766" rx="2.5" ry="2.5" style="stroke:#424242;stroke-width:0.5;" width="156.1836" x="344.91" y="232.9483"/><rect fill="#F8BBD0" height="10" style="stroke:#424242;stroke-width:0.5;" width="15" x="481.0936" y="237.9483"/><rect fill="#F8BBD0" height="2" style="stroke:#424242;stroke-width:0.5;" width="4" x="479.0936" y="239.9483"/><rect fill="#F8BBD0" height="2" style="stroke:#424242;stroke-width:0.5;" width="4" x="479.0936" y="243.9483"/><text fill="#000000" font-family="sans-serif" font-size="14" font-style="italic" lengthAdjust="spacing" textLength="68.1953" x="383.9041" y="266.4834">&#171;Security&#187;</text><text fill="#000000" font-family="sans-serif" font-size="14" lengthAdjust="spacing" textLength="116.1836" x="359.91" y="282.9717">AWS API Gateway</text></g><!--entity KC1--><g class="entity" data-qualified-name="Edge . Security.KC1" data-source-line="555" id="ent0006"><rect fill="#F8BBD0" height="79.4648" rx="2.5" ry="2.5" style="stroke:#424242;stroke-width:0.5;" width="191.2793" x="22.36" y="355.9283"/><rect fill="#F8BBD0" height="10" style="stroke:#424242;stroke-width:0.5;" width="15" x="193.6393" y="360.9283"/><rect fill="#F8BBD0" height="2" style="stroke:#424242;stroke-width:0.5;" width="4" x="191.6393" y="362.9283"/><rect fill="#F8BBD0" height="2" style="stroke:#424242;stroke-width:0.5;" width="4" x="191.6393" y="366.9283"/><text fill="#000000" font-family="sans-serif" font-size="14" font-style="italic" lengthAdjust="spacing" textLength="68.1953" x="78.902" y="389.4634">&#171;Security&#187;</text><text fill="#000000" font-family="sans-serif" font-size="14" lengthAdjust="spacing" textLength="151.2793" x="37.36" y="405.9517">Authentication Service</text><text fill="#000000" font-family="sans-serif" font-size="14" lengthAdjust="spacing" textLength="140.376" x="37.36" y="422.44">retail-banking realm</text></g><!--entity KC2--><g class="entity" data-qualified-name="Edge . Security.KC2" data-source-line="556" id="ent0007"><rect fill="#F8BBD0" height="79.4648" rx="2.5" ry="2.5" style="stroke:#424242;stroke-width:0.5;" width="263.8496" x="264.08" y="355.9283"/><rect fill="#F8BBD0" height="10" style="stroke:#424242;stroke-width:0.5;" width="15" x="507.9296" y="360.9283"/><rect fill="#F8BBD0" height="2" style="stroke:#424242;stroke-width:0.5;" width="4" x="505.9296" y="362.9283"/><rect fill="#F8BBD0" height="2" style="stroke:#424242;stroke-width:0.5;" width="4" x="505.9296" y="366.9283"/><text fill="#000000" font-family="sans-serif" font-size="14" font-style="italic" lengthAdjust="spacing" textLength="68.1953" x="356.9071" y="389.4634">&#171;Security&#187;</text><text fill="#000000" font-family="sans-serif" font-size="14" lengthAdjust="spacing" textLength="151.2793" x="279.08" y="405.9517">Authentication Service</text><text fill="#000000" font-family="sans-serif" font-size="14" lengthAdjust="spacing" textLength="223.8496" x="279.08" y="422.44">business-employee-portal realm</text></g><!--entity MBFF--><g class="entity" data-qualified-name="BFFsPkg.MBFF" data-source-line="560" id="ent0009"><rect fill="#C8E6C9" height="62.9766" rx="2.5" ry="2.5" style="stroke:#424242;stroke-width:0.5;" width="165.9727" x="600.01" y="364.1683"/><rect fill="#C8E6C9" height="10" style="stroke:#424242;stroke-width:0.5;" width="15" x="745.9827" y="369.1683"/><rect fill="#C8E6C9" height="2" style="stroke:#424242;stroke-width:0.5;" width="4" x="743.9827" y="371.1683"/><rect fill="#C8E6C9" height="2" style="stroke:#424242;stroke-width:0.5;" width="4" x="743.9827" y="375.1683"/><text fill="#000000" font-family="sans-serif" font-size="14" font-style="italic" lengthAdjust="spacing" textLength="46.4844" x="654.7541" y="397.7034">&#171;Core&#187;</text><text fill="#000000" font-family="sans-serif" font-size="14" lengthAdjust="spacing" textLength="125.9727" x="615.01" y="414.1917">loyalty-mobile-bff</text></g><!--entity ABFF--><g class="entity" data-qualified-name="BFFsPkg.ABFF" data-source-line="561" id="ent0010"><rect fill="#C8E6C9" height="62.9766" rx="2.5" ry="2.5" style="stroke:#424242;stroke-width:0.5;" width="161.9463" x="816.03" y="364.1683"/><rect fill="#C8E6C9" height="10" style="stroke:#424242;stroke-width:0.5;" width="15" x="957.9763" y="369.1683"/><rect fill="#C8E6C9" height="2" style="stroke:#424242;stroke-width:0.5;" width="4" x="955.9763" y="371.1683"/><rect fill="#C8E6C9" height="2" style="stroke:#424242;stroke-width:0.5;" width="4" x="955.9763" y="375.1683"/><text fill="#000000" font-family="sans-serif" font-size="14" font-style="italic" lengthAdjust="spacing" textLength="46.4844" x="868.761" y="397.7034">&#171;Core&#187;</text><text fill="#000000" font-family="sans-serif" font-size="14" lengthAdjust="spacing" textLength="121.9463" x="831.03" y="414.1917">loyalty-admin-bff</text></g><!--entity Core--><g class="entity" data-qualified-name="CorePkg.Core" data-source-line="565" id="ent0012"><rect fill="#C8E6C9" height="79.4648" rx="2.5" ry="2.5" style="stroke:#424242;stroke-width:0.5;" width="199.3799" x="584.31" y="534.1483"/><rect fill="#C8E6C9" height="10" style="stroke:#424242;stroke-width:0.5;" width="15" x="763.6899" y="539.1483"/><rect fill="#C8E6C9" height="2" style="stroke:#424242;stroke-width:0.5;" width="4" x="761.6899" y="541.1483"/><rect fill="#C8E6C9" height="2" style="stroke:#424242;stroke-width:0.5;" width="4" x="761.6899" y="545.1483"/><text fill="#000000" font-family="sans-serif" font-size="14" font-style="italic" lengthAdjust="spacing" textLength="46.4844" x="655.7578" y="567.6834">&#171;Core&#187;</text><text fill="#000000" font-family="sans-serif" font-size="14" lengthAdjust="spacing" textLength="81.6895" x="599.31" y="584.1717">loyalty-core</text><text fill="#000000" font-family="sans-serif" font-size="14" lengthAdjust="spacing" textLength="159.3799" x="599.31" y="600.66">(Membership + Ledger)</text></g><!--entity Earn--><g class="entity" data-qualified-name="CorePkg.Earn" data-source-line="566" id="ent0013"><rect fill="#C8E6C9" height="62.9766" rx="2.5" ry="2.5" style="stroke:#424242;stroke-width:0.5;" width="143.8037" x="834.1" y="542.3883"/><rect fill="#C8E6C9" height="10" style="stroke:#424242;stroke-width:0.5;" width="15" x="957.9037" y="547.3883"/><rect fill="#C8E6C9" height="2" style="stroke:#424242;stroke-width:0.5;" width="4" x="955.9037" y="549.3883"/><rect fill="#C8E6C9" height="2" style="stroke:#424242;stroke-width:0.5;" width="4" x="955.9037" y="553.3883"/><text fill="#000000" font-family="sans-serif" font-size="14" font-style="italic" lengthAdjust="spacing" textLength="46.4844" x="877.7597" y="575.9234">&#171;Core&#187;</text><text fill="#000000" font-family="sans-serif" font-size="14" lengthAdjust="spacing" textLength="103.8037" x="849.1" y="592.4117">loyalty-earning</text></g><!--entity Redm--><g class="entity" data-qualified-name="CorePkg.Redm" data-source-line="567" id="ent0014"><rect fill="#C8E6C9" height="79.4648" rx="2.5" ry="2.5" style="stroke:#424242;stroke-width:0.5;" width="191.1289" x="584.44" y="673.6183"/><rect fill="#C8E6C9" height="10" style="stroke:#424242;stroke-width:0.5;" width="15" x="755.5689" y="678.6183"/><rect fill="#C8E6C9" height="2" style="stroke:#424242;stroke-width:0.5;" width="4" x="753.5689" y="680.6183"/><rect fill="#C8E6C9" height="2" style="stroke:#424242;stroke-width:0.5;" width="4" x="753.5689" y="684.6183"/><text fill="#000000" font-family="sans-serif" font-size="14" font-style="italic" lengthAdjust="spacing" textLength="46.4844" x="651.7623" y="707.1534">&#171;Core&#187;</text><text fill="#000000" font-family="sans-serif" font-size="14" lengthAdjust="spacing" textLength="130.9834" x="599.44" y="723.6417">loyalty-redemption</text><text fill="#000000" font-family="sans-serif" font-size="14" lengthAdjust="spacing" textLength="151.1289" x="599.44" y="740.13">(Reward + Fulfillment)</text></g><!--entity Camp--><g class="entity" data-qualified-name="CorePkg.Camp" data-source-line="568" id="ent0015"><rect fill="#C8E6C9" height="62.9766" rx="2.5" ry="2.5" style="stroke:#424242;stroke-width:0.5;" width="158.3711" x="825.81" y="681.8583"/><rect fill="#C8E6C9" height="10" style="stroke:#424242;stroke-width:0.5;" width="15" x="964.1811" y="686.8583"/><rect fill="#C8E6C9" height="2" style="stroke:#424242;stroke-width:0.5;" width="4" x="962.1811" y="688.8583"/><rect fill="#C8E6C9" height="2" style="stroke:#424242;stroke-width:0.5;" width="4" x="962.1811" y="692.8583"/><text fill="#000000" font-family="sans-serif" font-size="14" font-style="italic" lengthAdjust="spacing" textLength="46.4844" x="876.7534" y="715.3934">&#171;Core&#187;</text><text fill="#000000" font-family="sans-serif" font-size="14" lengthAdjust="spacing" textLength="118.3711" x="840.81" y="731.8817">loyalty-campaign</text></g><!--link Mobile to APIGW--><g class="link" data-entity-1="ent0002" data-entity-2="ent0005" data-link-type="dependency" data-source-line="572" id="lnk16"><path d="M369.36,149.9483 C369.36,174.3883 369.36,203.0283 369.36,227.5183" fill="none" id="Mobile-to-APIGW" style="stroke:#181818;stroke-width:1;"/><polygon fill="#181818" points="369.36,232.5183,373.36,223.5183,369.36,227.5183,365.36,223.5183,369.36,232.5183" style="stroke:#181818;stroke-width:1;stroke-linejoin:miter;stroke-miterlimit:10;"/></g><!--link BEP to APIGW--><g class="link" data-entity-1="ent0003" data-entity-2="ent0005" data-link-type="dependency" data-source-line="573" id="lnk17"><path d="M472.36,158.1783 C472.36,181.6783 472.36,205.9883 472.36,227.8683" fill="none" id="BEP-to-APIGW" style="stroke:#181818;stroke-width:1;"/><polygon fill="#181818" points="472.36,232.8683,476.36,223.8683,472.36,227.8683,468.36,223.8683,472.36,232.8683" style="stroke:#181818;stroke-width:1;stroke-linejoin:miter;stroke-miterlimit:10;"/></g><!--link APIGW to KC1--><g class="link" data-entity-1="ent0005" data-entity-2="ent0006" data-link-type="dependency" data-source-line="576" id="lnk18"><path d="M344.45,264.0783 C254.09,264.0783 118,264.0783 118,264.0783 C118,264.0783 118,311.7683 118,350.4683" fill="none" id="APIGW-to-KC1" style="stroke:#181818;stroke-width:1;"/><polygon fill="#181818" points="118,355.4683,122,346.4683,118,350.4683,114,346.4683,118,355.4683" style="stroke:#181818;stroke-width:1;stroke-linejoin:miter;stroke-miterlimit:10;"/><text fill="#000000" font-family="sans-serif" font-size="13" lengthAdjust="spacing" textLength="97.189" x="87.53" y="260.6466">JWT (Customer)</text></g><!--link APIGW to KC2--><g class="link" data-entity-1="ent0005" data-entity-2="ent0007" data-link-type="dependency" data-source-line="577" id="lnk19"><path d="M423,296.2083 C423,314.1083 423,331.6383 423,350.7183" fill="none" id="APIGW-to-KC2" style="stroke:#181818;stroke-width:1;"/><polygon fill="#181818" points="423,355.7183,427,346.7183,423,350.7183,419,346.7183,423,355.7183" style="stroke:#181818;stroke-width:1;stroke-linejoin:miter;stroke-miterlimit:10;"/><text fill="#000000" font-family="sans-serif" font-size="13" lengthAdjust="spacing" textLength="96.3384" x="326" y="322.5266">JWT (Employee)</text></g><!--link APIGW to MBFF--><g class="link" data-entity-1="ent0005" data-entity-2="ent0009" data-link-type="dependency" data-source-line="580" id="lnk20"><path d="M501.39,275.0783 C556.03,275.0783 619.19,275.0783 619.19,275.0783 C619.19,275.0783 619.19,323.2483 619.19,358.9783" fill="none" id="APIGW-to-MBFF" style="stroke:#181818;stroke-width:1;"/><polygon fill="#181818" points="619.19,363.9783,623.19,354.9783,619.19,358.9783,615.19,354.9783,619.19,363.9783" style="stroke:#181818;stroke-width:1;stroke-linejoin:miter;stroke-miterlimit:10;"/><text fill="#000000" font-family="sans-serif" font-size="13" lengthAdjust="spacing" textLength="136.8428" x="605.74" y="271.6466">/api/loyalty/mobile/*</text></g><!--link APIGW to ABFF--><g class="link" data-entity-1="ent0005" data-entity-2="ent0010" data-link-type="dependency" data-source-line="581" id="lnk21"><path d="M501.54,254.0783 C636.24,254.0783 897,254.0783 897,254.0783 C897,254.0783 897,317.1483 897,358.8883" fill="none" id="APIGW-to-ABFF" style="stroke:#181818;stroke-width:1;"/><polygon fill="#181818" points="897,363.8883,901,354.8883,897,358.8883,893,354.8883,897,363.8883" style="stroke:#181818;stroke-width:1;stroke-linejoin:miter;stroke-miterlimit:10;"/><text fill="#000000" font-family="sans-serif" font-size="13" lengthAdjust="spacing" textLength="133.104" x="620.17" y="250.6466">/api/loyalty/admin/*</text></g><!--link BFFsPkg to CorePkg--><g class="link" data-entity-1="ent0008" data-entity-2="ent0011" data-link-type="dependency" data-source-line="585" id="lnk22"><path d="M1028,451.9304 C1028,452.2316 1028,452.5334 1028,452.8357 C1028,453.4403 1028,454.0472 1028,454.6563 C1028,464.4009 1028,474.6902 1028,484.9758 C1028,486.2615 1028,487.5471 1028,488.8317 C1028,489.4739 1028,507.6042 1028,508.2457" fill="none" id="BFFsPkg-to-CorePkg" style="stroke:#181818;stroke-width:1;"/><polygon fill="#181818" points="1028,513.2457,1032,504.2457,1028,508.2457,1024,504.2457,1028,513.2457" style="stroke:#181818;stroke-width:1;stroke-linejoin:miter;stroke-miterlimit:10;"/></g><?plantuml-src VLJjRjCm5FsVfxZQ9DQ2icxL66DCavgIJWE6gdNI91W_tEGsiUhOnd4wLOY_F00lmNlmA3m9rsuY9MkX_L7t-lX-d7Diowr0E3aS7WxX5hzMM5gO2FK8lTbQ9hbHKbKbJ9dD-q5m07TAXrQ5SsMjAa2mDHfCOK47pc6SCobHbF3dnq-8qmpz8ffCDf6nCWWpD2kUO1cKIourCuoIS8bshH6KiRbgRKYLOeaQNXwrWeR9fGkUjeDbpbBro6K62oPA35fRYIgqaYWjV0i08fOiCwCgcOwLKERYekxvyXBs9vFuA1hk157d3Z4-Yq_7htSXPZaZ7XmcFexY-DLE32QLuNRjQvr5qTiZXr8cHUCHi7yoTD_WUn1eEio8mBs6qptV_kSRDUSaLqGak6b7Md-1zX2iX0t4WQDu-Y1x3WjneOLQ8yAKI6QYltMAi9swNhvdqFHSbn_Tps0qlOOhPl6HhLsMrbIKXZQlxZsoiZcHpXDckPADx0_Ie6LSXFDw08DC5Djfte-F_vTaNfNacR8CiHuhr7wiVwVhakeikUUdfiLqcMs6eqnCs7LOU0B3-MBXMTfexuWbT1l7qeBBRTZ8mJeIjdtloxh8Ljc4WYJN3HPpD6NEDRo03qWoc7wtW5kr3o8pahZiWc8Aja7aJYBBqKWrRaayarB-IIKMN8Y2I7vIv1RJejCTApJZcNpI2aNTh0SGXY5SoyoGAj3hF0Gjl_GTBAWz78QNjLt8Uwr_TJAd_SV19-YrpiEA2PxIkeHtztV0CiObFLTUzKrkdy8d8ml1kOVrnbL9ZnNnsDaUDjlDtUWtfTjF5_IqAct8g1kWoso9wAULd2yeru1fFgZf6cmyD7ZUWersmBo525KNtlrKGe_SdX5Z1ZNnIrhHTLWXE6y0iz0OJU0AnHjAvJuQJUWArZr3gfBAoKoFDPVm-vTxy8-fJlCuNiiL_IXJQzHS3DTuxTRWBm00?></g></svg>