<svg xmlns="http://www.w3.org/2000/svg" xmlns:xlink="http://www.w3.org/1999/xlink" contentStyleType="text/css" data-diagram-type="DESCRIPTION" height="1286px" preserveAspectRatio="none" style="width:976px;height:1286px;background:#FFFFFF;" version="1.1" viewBox="0 0 976 1286" width="976px" zoomAndPan="magnify"><?plantuml 1.2026.4?><defs/><g><g class="title" data-source-line="788"><text fill="#000000" font-family="sans-serif" font-size="14" font-weight="700" lengthAdjust="spacing" textLength="374.7529" x="297.4935" y="23.5352">Anti-Corruption Layer &#8212; Loyalty Adapter Catalogue</text></g><!--cluster INT--><g class="cluster" data-qualified-name="INT" data-source-line="802" id="ent0001"><path d="M8.5,432.4583 L173.207,432.4583 A3.75,3.75 0 0 1 175.707,434.9583 L182.707,454.9466 L207.45,454.9466 A2.5,2.5 0 0 1 209.95,457.4466 L209.95,917.9583 A2.5,2.5 0 0 1 207.45,920.4583 L8.5,920.4583 A2.5,2.5 0 0 1 6,917.9583 L6,434.9583 A2.5,2.5 0 0 1 8.5,432.4583" fill="#FAFAFA" style="stroke:#757575;stroke-width:1.5;"/><line style="stroke:#757575;stroke-width:1.5;" x1="6" x2="182.707" y1="454.9466" y2="454.9466"/><text fill="#000000" font-family="sans-serif" font-size="14" font-style="italic" lengthAdjust="spacing" textLength="163.707" x="10" y="447.9934">Internal Domain (Stable)</text></g><!--cluster INT1--><g class="cluster" data-qualified-name="INT.INT1" data-source-line="803" id="ent0002"><path d="M32.5,475.4583 L65.3145,475.4583 A3.75,3.75 0 0 1 67.8145,477.9583 L74.8145,497.9466 L183.45,497.9466 A2.5,2.5 0 0 1 185.95,500.4466 L185.95,893.9583 A2.5,2.5 0 0 1 183.45,896.4583 L32.5,896.4583 A2.5,2.5 0 0 1 30,893.9583 L30,477.9583 A2.5,2.5 0 0 1 32.5,475.4583" fill="#FAFAFA" style="stroke:#757575;stroke-width:1.5;"/><line style="stroke:#757575;stroke-width:1.5;" x1="30" x2="74.8145" y1="497.9466" y2="497.9466"/><text fill="#000000" font-family="sans-serif" font-size="14" font-style="italic" lengthAdjust="spacing" textLength="31.8145" x="34" y="490.9934">Core</text></g><!--cluster ACL--><g class="cluster" data-qualified-name="ACL" data-source-line="812" id="ent0008"><path d="M244.45,123.4583 L469.9148,123.4583 A3.75,3.75 0 0 1 472.4148,125.9583 L479.4148,145.9466 L655.96,145.9466 A2.5,2.5 0 0 1 658.46,148.4466 L658.46,1268.9583 A2.5,2.5 0 0 1 655.96,1271.4583 L244.45,1271.4583 A2.5,2.5 0 0 1 241.95,1268.9583 L241.95,125.9583 A2.5,2.5 0 0 1 244.45,123.4583" fill="#FAFAFA" style="stroke:#757575;stroke-width:1.5;"/><line style="stroke:#757575;stroke-width:1.5;" x1="241.95" x2="479.4148" y1="145.9466" y2="145.9466"/><text fill="#000000" font-family="sans-serif" font-size="14" font-style="italic" lengthAdjust="spacing" textLength="224.4648" x="245.95" y="138.9934">Anti-Corruption Layer (Adapters)</text></g><!--cluster ACLI--><g class="cluster" data-qualified-name="ACL.ACLI" data-source-line="813" id="ent0009"><path d="M276.45,864.4583 L464.8299,864.4583 A3.75,3.75 0 0 1 467.3299,866.9583 L474.3299,886.9466 L623.96,886.9466 A2.5,2.5 0 0 1 626.46,889.4466 L626.46,1236.9583 A2.5,2.5 0 0 1 623.96,1239.4583 L276.45,1239.4583 A2.5,2.5 0 0 1 273.95,1236.9583 L273.95,866.9583 A2.5,2.5 0 0 1 276.45,864.4583" fill="#FAFAFA" style="stroke:#757575;stroke-width:1.5;"/><line style="stroke:#757575;stroke-width:1.5;" x1="273.95" x2="474.3299" y1="886.9466" y2="886.9466"/><text fill="#000000" font-family="sans-serif" font-size="14" font-style="italic" lengthAdjust="spacing" textLength="187.3799" x="277.95" y="879.9934">Inbound (Event Consumers)</text></g><!--cluster ACLO--><g class="cluster" data-qualified-name="ACL.ACLO" data-source-line="818" id="ent0013"><path d="M316.42,182.4583 L462.5743,182.4583 A3.75,3.75 0 0 1 465.0743,184.9583 L472.0743,204.9466 L583.99,204.9466 A2.5,2.5 0 0 1 586.49,207.4466 L586.49,602.9583 A2.5,2.5 0 0 1 583.99,605.4583 L316.42,605.4583 A2.5,2.5 0 0 1 313.92,602.9583 L313.92,184.9583 A2.5,2.5 0 0 1 316.42,182.4583" fill="#FAFAFA" style="stroke:#757575;stroke-width:1.5;"/><line style="stroke:#757575;stroke-width:1.5;" x1="313.92" x2="472.0743" y1="204.9466" y2="204.9466"/><text fill="#000000" font-family="sans-serif" font-size="14" font-style="italic" lengthAdjust="spacing" textLength="145.1543" x="317.92" y="197.9934">Outbound Fulfillment</text></g><!--cluster ACLX--><g class="cluster" data-qualified-name="ACL.ACLX" data-source-line="824" id="ent0018"><path d="M309.48,629.4583 L477.4956,629.4583 A3.75,3.75 0 0 1 479.9956,631.9583 L486.9956,651.9466 L590.93,651.9466 A2.5,2.5 0 0 1 593.43,654.4466 L593.43,837.9583 A2.5,2.5 0 0 1 590.93,840.4583 L309.48,840.4583 A2.5,2.5 0 0 1 306.98,837.9583 L306.98,631.9583 A2.5,2.5 0 0 1 309.48,629.4583" fill="#FAFAFA" style="stroke:#757575;stroke-width:1.5;"/><line style="stroke:#757575;stroke-width:1.5;" x1="306.98" x2="486.9956" y1="651.9466" y2="651.9466"/><text fill="#000000" font-family="sans-serif" font-size="14" font-style="italic" lengthAdjust="spacing" textLength="167.0156" x="310.98" y="644.9934">Cross-cutting Outbound</text></g><!--cluster EXT--><g class="cluster" data-qualified-name="EXT" data-source-line="830" id="ent0021"><path d="M692.96,474.4583 L813.5616,474.4583 A3.75,3.75 0 0 1 816.0616,476.9583 L823.0616,496.9466 L959.24,496.9466 A2.5,2.5 0 0 1 961.74,499.4466 L961.74,1096.9583 A2.5,2.5 0 0 1 959.24,1099.4583 L692.96,1099.4583 A2.5,2.5 0 0 1 690.46,1096.9583 L690.46,476.9583 A2.5,2.5 0 0 1 692.96,474.4583" fill="#FAFAFA" style="stroke:#757575;stroke-width:1.5;"/><line style="stroke:#757575;stroke-width:1.5;" x1="690.46" x2="823.0616" y1="496.9466" y2="496.9466"/><text fill="#000000" font-family="sans-serif" font-size="14" font-style="italic" lengthAdjust="spacing" textLength="119.6016" x="694.46" y="489.9934">External (Volatile)</text></g><!--cluster EXT1--><g class="cluster" data-qualified-name="EXT.EXT1" data-source-line="831" id="ent0022"><path d="M716.96,654.4583 L848.0342,654.4583 A3.75,3.75 0 0 1 850.5342,656.9583 L857.5342,676.9466 L935.24,676.9466 A2.5,2.5 0 0 1 937.74,679.4466 L937.74,1072.9583 A2.5,2.5 0 0 1 935.24,1075.4583 L716.96,1075.4583 A2.5,2.5 0 0 1 714.46,1072.9583 L714.46,656.9583 A2.5,2.5 0 0 1 716.96,654.4583" fill="#FAFAFA" style="stroke:#757575;stroke-width:1.5;"/><line style="stroke:#757575;stroke-width:1.5;" x1="714.46" x2="857.5342" y1="676.9466" y2="676.9466"/><text fill="#000000" font-family="sans-serif" font-size="14" font-style="italic" lengthAdjust="spacing" textLength="130.0742" x="718.46" y="669.9934">Host Bank Platform</text></g><!--cluster EXT2--><g class="cluster" data-qualified-name="EXT.EXT2" data-source-line="838" id="ent0028"><path d="M729.85,517.4583 L786.6381,517.4583 A3.75,3.75 0 0 1 789.1381,519.9583 L796.1381,539.9466 L922.35,539.9466 A2.5,2.5 0 0 1 924.85,542.4466 L924.85,627.9583 A2.5,2.5 0 0 1 922.35,630.4583 L729.85,630.4583 A2.5,2.5 0 0 1 727.35,627.9583 L727.35,519.9583 A2.5,2.5 0 0 1 729.85,517.4583" fill="#FAFAFA" style="stroke:#757575;stroke-width:1.5;"/><line style="stroke:#757575;stroke-width:1.5;" x1="727.35" x2="796.1381" y1="539.9466" y2="539.9466"/><text fill="#000000" font-family="sans-serif" font-size="14" font-style="italic" lengthAdjust="spacing" textLength="55.7881" x="731.35" y="532.9934">Partners</text></g><!--entity MS--><g class="entity" data-qualified-name="INT.INT1.MS" data-source-line="804" id="ent0003"><rect fill="#C8E6C9" height="46.4883" rx="2.5" ry="2.5" style="stroke:#424242;stroke-width:0.5;" width="123.9521" x="46" y="834.2183"/><rect fill="#C8E6C9" height="10" style="stroke:#424242;stroke-width:0.5;" width="15" x="149.9521" y="839.2183"/><rect fill="#C8E6C9" height="2" style="stroke:#424242;stroke-width:0.5;" width="4" x="147.9521" y="841.2183"/><rect fill="#C8E6C9" height="2" style="stroke:#424242;stroke-width:0.5;" width="4" x="147.9521" y="845.2183"/><text fill="#000000" font-family="sans-serif" font-size="14" lengthAdjust="spacing" textLength="83.9521" x="61" y="867.7534">Membership</text></g><!--entity LG--><g class="entity" data-qualified-name="INT.INT1.LG" data-source-line="805" id="ent0004"><rect fill="#C8E6C9" height="46.4883" rx="2.5" ry="2.5" style="stroke:#424242;stroke-width:0.5;" width="86.334" x="64.81" y="753.2183"/><rect fill="#C8E6C9" height="10" style="stroke:#424242;stroke-width:0.5;" width="15" x="131.144" y="758.2183"/><rect fill="#C8E6C9" height="2" style="stroke:#424242;stroke-width:0.5;" width="4" x="129.144" y="760.2183"/><rect fill="#C8E6C9" height="2" style="stroke:#424242;stroke-width:0.5;" width="4" x="129.144" y="764.2183"/><text fill="#000000" font-family="sans-serif" font-size="14" lengthAdjust="spacing" textLength="46.334" x="79.81" y="786.7534">Ledger</text></g><!--entity EN--><g class="entity" data-qualified-name="INT.INT1.EN" data-source-line="806" id="ent0005"><rect fill="#C8E6C9" height="46.4883" rx="2.5" ry="2.5" style="stroke:#424242;stroke-width:0.5;" width="91.2012" x="62.38" y="672.2183"/><rect fill="#C8E6C9" height="10" style="stroke:#424242;stroke-width:0.5;" width="15" x="133.5812" y="677.2183"/><rect fill="#C8E6C9" height="2" style="stroke:#424242;stroke-width:0.5;" width="4" x="131.5812" y="679.2183"/><rect fill="#C8E6C9" height="2" style="stroke:#424242;stroke-width:0.5;" width="4" x="131.5812" y="683.2183"/><text fill="#000000" font-family="sans-serif" font-size="14" lengthAdjust="spacing" textLength="51.2012" x="77.38" y="705.7534">Earning</text></g><!--entity RW--><g class="entity" data-qualified-name="INT.INT1.RW" data-source-line="807" id="ent0006"><rect fill="#C8E6C9" height="46.4883" rx="2.5" ry="2.5" style="stroke:#424242;stroke-width:0.5;" width="89.7109" x="63.12" y="510.2183"/><rect fill="#C8E6C9" height="10" style="stroke:#424242;stroke-width:0.5;" width="15" x="132.8309" y="515.2183"/><rect fill="#C8E6C9" height="2" style="stroke:#424242;stroke-width:0.5;" width="4" x="130.8309" y="517.2183"/><rect fill="#C8E6C9" height="2" style="stroke:#424242;stroke-width:0.5;" width="4" x="130.8309" y="521.2183"/><text fill="#000000" font-family="sans-serif" font-size="14" lengthAdjust="spacing" textLength="49.7109" x="78.12" y="543.7534">Reward</text></g><!--entity CP--><g class="entity" data-qualified-name="INT.INT1.CP" data-source-line="808" id="ent0007"><rect fill="#C8E6C9" height="46.4883" rx="2.5" ry="2.5" style="stroke:#424242;stroke-width:0.5;" width="108.4961" x="53.73" y="591.2183"/><rect fill="#C8E6C9" height="10" style="stroke:#424242;stroke-width:0.5;" width="15" x="142.2261" y="596.2183"/><rect fill="#C8E6C9" height="2" style="stroke:#424242;stroke-width:0.5;" width="4" x="140.2261" y="598.2183"/><rect fill="#C8E6C9" height="2" style="stroke:#424242;stroke-width:0.5;" width="4" x="140.2261" y="602.2183"/><text fill="#000000" font-family="sans-serif" font-size="14" lengthAdjust="spacing" textLength="68.4961" x="68.73" y="624.7534">Campaign</text></g><!--entity PHC--><g class="entity" data-qualified-name="ACL.ACLI.PHC" data-source-line="814" id="ent0010"><rect fill="#C8E6C9" height="95.9531" rx="2.5" ry="2.5" style="stroke:#424242;stroke-width:0.5;" width="253.3975" x="323.51" y="899.4783"/><rect fill="#C8E6C9" height="10" style="stroke:#424242;stroke-width:0.5;" width="15" x="556.9075" y="904.4783"/><rect fill="#C8E6C9" height="2" style="stroke:#424242;stroke-width:0.5;" width="4" x="554.9075" y="906.4783"/><rect fill="#C8E6C9" height="2" style="stroke:#424242;stroke-width:0.5;" width="4" x="554.9075" y="910.4783"/><text fill="#000000" font-family="sans-serif" font-size="14" font-weight="700" lengthAdjust="spacing" textLength="213.3975" x="338.51" y="933.0134">PaymentHub Event Consumer</text><text fill="#000000" font-family="sans-serif" font-size="14" lengthAdjust="spacing" textLength="143.2129" x="338.51" y="949.5017">PaymentCompleted /</text><text fill="#000000" font-family="sans-serif" font-size="14" lengthAdjust="spacing" textLength="130.7031" x="338.51" y="965.99">CardSpendPosted /</text><text fill="#000000" font-family="sans-serif" font-size="14" lengthAdjust="spacing" textLength="118.7539" x="338.51" y="982.4783">PaymentReversed</text></g><!--entity T24C--><g class="entity" data-qualified-name="ACL.ACLI.T24C" data-source-line="815" id="ent0011"><rect fill="#C8E6C9" height="95.9531" rx="2.5" ry="2.5" style="stroke:#424242;stroke-width:0.5;" width="320.5059" x="289.95" y="1030.4783"/><rect fill="#C8E6C9" height="10" style="stroke:#424242;stroke-width:0.5;" width="15" x="590.4559" y="1035.4783"/><rect fill="#C8E6C9" height="2" style="stroke:#424242;stroke-width:0.5;" width="4" x="588.4559" y="1037.4783"/><rect fill="#C8E6C9" height="2" style="stroke:#424242;stroke-width:0.5;" width="4" x="588.4559" y="1041.4783"/><text fill="#000000" font-family="sans-serif" font-size="14" font-weight="700" lengthAdjust="spacing" textLength="280.5059" x="304.95" y="1064.0134">Core Banking Adapter Event Consumer</text><text fill="#000000" font-family="sans-serif" font-size="14" lengthAdjust="spacing" textLength="180.6396" x="304.95" y="1080.5017">AccountBalanceSnapshot /</text><text fill="#000000" font-family="sans-serif" font-size="14" lengthAdjust="spacing" textLength="152.127" x="304.95" y="1096.99">TermDepositOpened /</text><text fill="#000000" font-family="sans-serif" font-size="14" lengthAdjust="spacing" textLength="153.1113" x="304.95" y="1113.4783">LoanRepaymentPosted</text></g><!--entity RDBC--><g class="entity" data-qualified-name="ACL.ACLI.RDBC" data-source-line="816" id="ent0012"><rect fill="#C8E6C9" height="62.9766" rx="2.5" ry="2.5" style="stroke:#424242;stroke-width:0.5;" width="259.2832" x="320.56" y="1160.9683"/><rect fill="#C8E6C9" height="10" style="stroke:#424242;stroke-width:0.5;" width="15" x="559.8432" y="1165.9683"/><rect fill="#C8E6C9" height="2" style="stroke:#424242;stroke-width:0.5;" width="4" x="557.8432" y="1167.9683"/><rect fill="#C8E6C9" height="2" style="stroke:#424242;stroke-width:0.5;" width="4" x="557.8432" y="1171.9683"/><text fill="#000000" font-family="sans-serif" font-size="14" font-weight="700" lengthAdjust="spacing" textLength="219.2832" x="335.56" y="1194.5034">Customer-Lifecycle Consumer</text><text fill="#000000" font-family="sans-serif" font-size="14" lengthAdjust="spacing" textLength="112.0273" x="335.56" y="1210.9917">CustomerClosed</text></g><!--entity CashAdp--><g class="entity" data-qualified-name="ACL.ACLO.CashAdp" data-source-line="819" id="ent0014"><rect fill="#C8E6C9" height="79.4648" rx="2.5" ry="2.5" style="stroke:#424242;stroke-width:0.5;" width="220.8789" x="339.77" y="412.7283"/><rect fill="#C8E6C9" height="10" style="stroke:#424242;stroke-width:0.5;" width="15" x="540.6489" y="417.7283"/><rect fill="#C8E6C9" height="2" style="stroke:#424242;stroke-width:0.5;" width="4" x="538.6489" y="419.7283"/><rect fill="#C8E6C9" height="2" style="stroke:#424242;stroke-width:0.5;" width="4" x="538.6489" y="423.7283"/><text fill="#000000" font-family="sans-serif" font-size="14" font-weight="700" lengthAdjust="spacing" textLength="126.4648" x="354.77" y="446.2634">CashbackAdapter</text><text fill="#000000" font-family="sans-serif" font-size="14" lengthAdjust="spacing" textLength="180.8789" x="354.77" y="462.7517">reserve / commit / release</text><text fill="#000000" font-family="sans-serif" font-size="14" lengthAdjust="spacing" textLength="170.8164" x="354.77" y="479.24">&#8594; Payment Hub disburse</text></g><!--entity BillAdp--><g class="entity" data-qualified-name="ACL.ACLO.BillAdp" data-source-line="820" id="ent0015"><rect fill="#C8E6C9" height="62.9766" rx="2.5" ry="2.5" style="stroke:#424242;stroke-width:0.5;" width="240.5664" x="329.92" y="216.9683"/><rect fill="#C8E6C9" height="10" style="stroke:#424242;stroke-width:0.5;" width="15" x="550.4864" y="221.9683"/><rect fill="#C8E6C9" height="2" style="stroke:#424242;stroke-width:0.5;" width="4" x="548.4864" y="223.9683"/><rect fill="#C8E6C9" height="2" style="stroke:#424242;stroke-width:0.5;" width="4" x="548.4864" y="227.9683"/><text fill="#000000" font-family="sans-serif" font-size="14" font-weight="700" lengthAdjust="spacing" textLength="200.5664" x="344.92" y="250.5034">BillPaymentVoucherAdapter</text><text fill="#000000" font-family="sans-serif" font-size="14" lengthAdjust="spacing" textLength="148.374" x="344.92" y="266.9917">internal voucher table</text></g><!--entity TPAdp--><g class="entity" data-qualified-name="ACL.ACLO.TPAdp" data-source-line="821" id="ent0016"><rect fill="#C8E6C9" height="62.9766" rx="2.5" ry="2.5" style="stroke:#424242;stroke-width:0.5;" width="232.5273" x="333.94" y="314.9683"/><rect fill="#C8E6C9" height="10" style="stroke:#424242;stroke-width:0.5;" width="15" x="546.4673" y="319.9683"/><rect fill="#C8E6C9" height="2" style="stroke:#424242;stroke-width:0.5;" width="4" x="544.4673" y="321.9683"/><rect fill="#C8E6C9" height="2" style="stroke:#424242;stroke-width:0.5;" width="4" x="544.4673" y="325.9683"/><text fill="#000000" font-family="sans-serif" font-size="14" font-weight="700" lengthAdjust="spacing" textLength="192.5273" x="348.94" y="348.5034">ThirdPartyVoucherAdapter</text><text fill="#000000" font-family="sans-serif" font-size="14" lengthAdjust="spacing" textLength="75.585" x="348.94" y="364.9917">partner API</text></g><!--entity SwpAdp--><g class="entity" data-qualified-name="ACL.ACLO.SwpAdp" data-source-line="822" id="ent0017"><rect fill="#C8E6C9" height="62.9766" rx="2.5" ry="2.5" style="stroke:#424242;stroke-width:0.5;" width="189.8916" x="355.26" y="526.9683"/><rect fill="#C8E6C9" height="10" style="stroke:#424242;stroke-width:0.5;" width="15" x="525.1516" y="531.9683"/><rect fill="#C8E6C9" height="2" style="stroke:#424242;stroke-width:0.5;" width="4" x="523.1516" y="533.9683"/><rect fill="#C8E6C9" height="2" style="stroke:#424242;stroke-width:0.5;" width="4" x="523.1516" y="537.9683"/><text fill="#000000" font-family="sans-serif" font-size="14" font-weight="700" lengthAdjust="spacing" textLength="149.8916" x="370.26" y="560.5034">SweepstakesAdapter</text><text fill="#000000" font-family="sans-serif" font-size="14" lengthAdjust="spacing" textLength="139.0225" x="370.26" y="576.9917">Drawing.recordEntry</text></g><!--entity NotAdp--><g class="entity" data-qualified-name="ACL.ACLX.NotAdp" data-source-line="825" id="ent0019"><rect fill="#C8E6C9" height="62.9766" rx="2.5" ry="2.5" style="stroke:#424242;stroke-width:0.5;" width="240.7168" x="329.85" y="663.9683"/><rect fill="#C8E6C9" height="10" style="stroke:#424242;stroke-width:0.5;" width="15" x="550.5668" y="668.9683"/><rect fill="#C8E6C9" height="2" style="stroke:#424242;stroke-width:0.5;" width="4" x="548.5668" y="670.9683"/><rect fill="#C8E6C9" height="2" style="stroke:#424242;stroke-width:0.5;" width="4" x="548.5668" y="674.9683"/><text fill="#000000" font-family="sans-serif" font-size="14" font-weight="700" lengthAdjust="spacing" textLength="141.6611" x="344.85" y="697.5034">NotificationAdapter</text><text fill="#000000" font-family="sans-serif" font-size="14" lengthAdjust="spacing" textLength="200.7168" x="344.85" y="713.9917">sendInAppPush / SMS / Email</text></g><!--entity KCAdp--><g class="entity" data-qualified-name="ACL.ACLX.KCAdp" data-source-line="826" id="ent0020"><rect fill="#C8E6C9" height="62.9766" rx="2.5" ry="2.5" style="stroke:#424242;stroke-width:0.5;" width="254.4502" x="322.98" y="761.9683"/><rect fill="#C8E6C9" height="10" style="stroke:#424242;stroke-width:0.5;" width="15" x="557.4302" y="766.9683"/><rect fill="#C8E6C9" height="2" style="stroke:#424242;stroke-width:0.5;" width="4" x="555.4302" y="768.9683"/><rect fill="#C8E6C9" height="2" style="stroke:#424242;stroke-width:0.5;" width="4" x="555.4302" y="772.9683"/><text fill="#000000" font-family="sans-serif" font-size="14" font-weight="700" lengthAdjust="spacing" textLength="214.4502" x="337.98" y="795.5034">AuthenticationServiceAdapter</text><text fill="#000000" font-family="sans-serif" font-size="14" lengthAdjust="spacing" textLength="150.6299" x="337.98" y="811.9917">validate JWT, get roles</text></g><!--entity PH--><g class="entity" data-qualified-name="EXT.EXT1.PH" data-source-line="832" id="ent0023"><rect fill="#C8E6C9" height="46.4883" rx="2.5" ry="2.5" style="stroke:#424242;stroke-width:0.5;" width="129.7969" x="761.2" y="851.2183"/><rect fill="#C8E6C9" height="10" style="stroke:#424242;stroke-width:0.5;" width="15" x="870.9969" y="856.2183"/><rect fill="#C8E6C9" height="2" style="stroke:#424242;stroke-width:0.5;" width="4" x="868.9969" y="858.2183"/><rect fill="#C8E6C9" height="2" style="stroke:#424242;stroke-width:0.5;" width="4" x="868.9969" y="862.2183"/><text fill="#000000" font-family="sans-serif" font-size="14" lengthAdjust="spacing" textLength="89.7969" x="776.2" y="884.7534">Payment Hub</text></g><!--entity T24A--><g class="entity" data-qualified-name="EXT.EXT1.T24A" data-source-line="833" id="ent0024"><rect fill="#C8E6C9" height="46.4883" rx="2.5" ry="2.5" style="stroke:#424242;stroke-width:0.5;" width="188.5723" x="731.81" y="932.2183"/><rect fill="#C8E6C9" height="10" style="stroke:#424242;stroke-width:0.5;" width="15" x="900.3823" y="937.2183"/><rect fill="#C8E6C9" height="2" style="stroke:#424242;stroke-width:0.5;" width="4" x="898.3823" y="939.2183"/><rect fill="#C8E6C9" height="2" style="stroke:#424242;stroke-width:0.5;" width="4" x="898.3823" y="943.2183"/><text fill="#000000" font-family="sans-serif" font-size="14" lengthAdjust="spacing" textLength="148.5723" x="746.81" y="965.7534">Core Banking Adapter</text></g><!--entity RDBSvc--><g class="entity" data-qualified-name="EXT.EXT1.RDBSvc" data-source-line="834" id="ent0025"><rect fill="#C8E6C9" height="46.4883" rx="2.5" ry="2.5" style="stroke:#424242;stroke-width:0.5;" width="157.708" x="747.24" y="1013.2183"/><rect fill="#C8E6C9" height="10" style="stroke:#424242;stroke-width:0.5;" width="15" x="884.948" y="1018.2183"/><rect fill="#C8E6C9" height="2" style="stroke:#424242;stroke-width:0.5;" width="4" x="882.948" y="1020.2183"/><rect fill="#C8E6C9" height="2" style="stroke:#424242;stroke-width:0.5;" width="4" x="882.948" y="1024.2183"/><text fill="#000000" font-family="sans-serif" font-size="14" lengthAdjust="spacing" textLength="117.708" x="762.24" y="1046.7534">Customer Service</text></g><!--entity NSvc--><g class="entity" data-qualified-name="EXT.EXT1.NSvc" data-source-line="835" id="ent0026"><rect fill="#C8E6C9" height="46.4883" rx="2.5" ry="2.5" style="stroke:#424242;stroke-width:0.5;" width="172.2686" x="739.96" y="689.2183"/><rect fill="#C8E6C9" height="10" style="stroke:#424242;stroke-width:0.5;" width="15" x="892.2286" y="694.2183"/><rect fill="#C8E6C9" height="2" style="stroke:#424242;stroke-width:0.5;" width="4" x="890.2286" y="696.2183"/><rect fill="#C8E6C9" height="2" style="stroke:#424242;stroke-width:0.5;" width="4" x="890.2286" y="700.2183"/><text fill="#000000" font-family="sans-serif" font-size="14" lengthAdjust="spacing" textLength="132.2686" x="754.96" y="722.7534">notification-service</text></g><!--entity KC--><g class="entity" data-qualified-name="EXT.EXT1.KC" data-source-line="836" id="ent0027"><rect fill="#C8E6C9" height="46.4883" rx="2.5" ry="2.5" style="stroke:#424242;stroke-width:0.5;" width="191.2793" x="730.46" y="770.2183"/><rect fill="#C8E6C9" height="10" style="stroke:#424242;stroke-width:0.5;" width="15" x="901.7393" y="775.2183"/><rect fill="#C8E6C9" height="2" style="stroke:#424242;stroke-width:0.5;" width="4" x="899.7393" y="777.2183"/><rect fill="#C8E6C9" height="2" style="stroke:#424242;stroke-width:0.5;" width="4" x="899.7393" y="781.2183"/><text fill="#000000" font-family="sans-serif" font-size="14" lengthAdjust="spacing" textLength="151.2793" x="745.46" y="803.7534">Authentication Service</text></g><!--entity VPartner--><g class="entity" data-qualified-name="EXT.EXT2.VPartner" data-source-line="839" id="ent0029"><rect fill="#C8E6C9" height="62.9766" rx="2.5" ry="2.5" style="stroke:#424242;stroke-width:0.5;" width="165.501" x="743.35" y="551.9683"/><rect fill="#C8E6C9" height="10" style="stroke:#424242;stroke-width:0.5;" width="15" x="888.851" y="556.9683"/><rect fill="#C8E6C9" height="2" style="stroke:#424242;stroke-width:0.5;" width="4" x="886.851" y="558.9683"/><rect fill="#C8E6C9" height="2" style="stroke:#424242;stroke-width:0.5;" width="4" x="886.851" y="562.9683"/><text fill="#000000" font-family="sans-serif" font-size="14" lengthAdjust="spacing" textLength="125.501" x="758.35" y="585.5034">3rd-Party Voucher</text><text fill="#000000" font-family="sans-serif" font-size="14" lengthAdjust="spacing" textLength="55.6992" x="758.35" y="601.9917">Provider</text></g><g class="entity" data-qualified-name="GMN50" data-source-line="870" id="ent0051"><path d="M292.34,43.4883 L292.34,99.4199 L608.0744,99.4199 L608.0744,53.4883 L598.0744,43.4883 L292.34,43.4883" fill="#FEFFDD" style="stroke:#181818;stroke-width:0.5;"/><path d="M598.0744,43.4883 L598.0744,53.4883 L608.0744,53.4883 L598.0744,43.4883" fill="#FEFFDD" style="stroke:#181818;stroke-width:1;"/><text fill="#000000" font-family="sans-serif" font-size="13" lengthAdjust="spacing" textLength="282.1152" x="298.34" y="61.0566">Internal services consume only the Adapter's</text><text fill="#000000" font-family="sans-serif" font-size="13" lengthAdjust="spacing" textLength="294.7344" x="298.34" y="76.3672">domain-language contract. No service imports</text><text fill="#000000" font-family="sans-serif" font-size="13" lengthAdjust="spacing" textLength="291.6494" x="298.34" y="91.6777">a vendor SDK (Kafka client SDK aside) directly.</text></g><!--link PH to PHC--><g class="link" data-entity-1="ent0023" data-entity-2="ent0010" data-link-type="dependency" data-source-line="844" id="lnk30"><path d="M760.92,886.9883 C710.58,896.8183 643.8673,909.8397 582.1773,921.8897" fill="none" id="PH-to-PHC" style="stroke:#181818;stroke-width:1;stroke-dasharray:7,7;"/><polygon fill="#181818" points="577.27,922.8483,586.8699,925.0487,582.1773,921.8897,585.3362,917.1971,577.27,922.8483" style="stroke:#181818;stroke-width:1;stroke-linejoin:miter;stroke-miterlimit:10;"/></g><!--link T24A to T24C--><g class="link" data-entity-1="ent0024" data-entity-2="ent0011" data-link-type="dependency" data-source-line="845" id="lnk31"><path d="M731.5,969.3283 C713.82,975.2183 696.5,983.5783 682.46,995.4583 C676.08,1000.8483 680.79,1007.0183 674.46,1012.4583 C655.98,1028.3183 638.4775,1038.5242 615.4175,1047.6742" fill="none" id="T24A-to-T24C" style="stroke:#181818;stroke-width:1;stroke-dasharray:7,7;"/><polygon fill="#181818" points="610.77,1049.5183,620.6108,1049.9169,615.4175,1047.6742,617.6602,1042.4809,610.77,1049.5183" style="stroke:#181818;stroke-width:1;stroke-linejoin:miter;stroke-miterlimit:10;"/></g><!--link RDBSvc to RDBC--><g class="link" data-entity-1="ent0025" data-entity-2="ent0012" data-link-type="dependency" data-source-line="846" id="lnk32"><path d="M798.83,1060.1783 C770.27,1084.6983 722.27,1122.2883 674.46,1143.4583 C644.98,1156.5083 616.5968,1165.1154 584.9368,1172.2754" fill="none" id="RDBSvc-to-RDBC" style="stroke:#181818;stroke-width:1;stroke-dasharray:7,7;"/><polygon fill="#181818" points="580.06,1173.3783,589.7206,1175.2945,584.9368,1172.2754,587.956,1167.4916,580.06,1173.3783" style="stroke:#181818;stroke-width:1;stroke-linejoin:miter;stroke-miterlimit:10;"/></g><!--link PHC to EN--><g class="link" data-entity-1="ent0010" data-entity-2="ent0005" data-link-type="dependency" data-source-line="847" id="lnk33"><path d="M323.01,913.8383 C285.89,897.7083 249.07,874.2483 225.95,840.4583 C212.74,821.1483 232.07,754.1183 217.95,735.4583 C202.88,715.5283 181.7235,706.5912 158.8735,701.5712" fill="none" id="PHC-to-EN" style="stroke:#181818;stroke-width:1;"/><polygon fill="#181818" points="153.99,700.4983,161.9221,706.3363,158.8735,701.5712,163.6387,698.5226,153.99,700.4983" style="stroke:#181818;stroke-width:1;stroke-linejoin:miter;stroke-miterlimit:10;"/></g><!--link T24C to EN--><g class="link" data-entity-1="ent0011" data-entity-2="ent0005" data-link-type="dependency" data-source-line="848" id="lnk34"><path d="M289.71,1058.2883 C264.95,1048.2183 242.23,1033.5983 225.95,1012.4583 C207.17,988.0583 235.94,760.4483 217.95,735.4583 C203.23,715.0083 181.8011,706.0362 158.7111,701.1362" fill="none" id="T24C-to-EN" style="stroke:#181818;stroke-width:1;"/><polygon fill="#181818" points="153.82,700.0983,161.7936,705.8795,158.7111,701.1362,163.4543,698.0537,153.82,700.0983" style="stroke:#181818;stroke-width:1;stroke-linejoin:miter;stroke-miterlimit:10;"/></g><!--link RDBC to MS--><g class="link" data-entity-1="ent0012" data-entity-2="ent0003" data-link-type="dependency" data-source-line="849" id="lnk35"><path d="M320.32,1185.6383 C286.62,1178.4583 252.37,1165.6783 225.95,1143.4583 C143.02,1073.7083 118.7444,940.9204 111.9344,885.9204" fill="none" id="RDBC-to-MS" style="stroke:#181818;stroke-width:1;"/><polygon fill="#181818" points="111.32,880.9583,108.4562,890.3816,111.9344,885.9204,116.3956,889.3986,111.32,880.9583" style="stroke:#181818;stroke-width:1;stroke-linejoin:miter;stroke-miterlimit:10;"/></g><!--link RW to CashAdp--><g class="link" data-entity-1="ent0006" data-entity-2="ent0014" data-link-type="dependency" data-source-line="852" id="lnk36"><path d="M153.11,522.9483 C200.03,511.7783 271.1959,494.8361 334.4659,479.7761" fill="none" id="RW-to-CashAdp" style="stroke:#181818;stroke-width:1;"/><polygon fill="#181818" points="339.33,478.6183,329.6484,476.811,334.4659,479.7761,331.5008,484.5936,339.33,478.6183" style="stroke:#181818;stroke-width:1;stroke-linejoin:miter;stroke-miterlimit:10;"/></g><!--link RW to BillAdp--><g class="link" data-entity-1="ent0006" data-entity-2="ent0015" data-link-type="dependency" data-source-line="853" id="lnk37"><path d="M113.6,509.7383 C124.28,461.6683 155.33,352.6483 225.95,297.4583 C255.34,274.4883 288.3379,262.7116 324.5479,255.8316" fill="none" id="RW-to-BillAdp" style="stroke:#181818;stroke-width:1;"/><polygon fill="#181818" points="329.46,254.8983,319.8715,252.6486,324.5479,255.8316,321.3648,260.5079,329.46,254.8983" style="stroke:#181818;stroke-width:1;stroke-linejoin:miter;stroke-miterlimit:10;"/></g><!--link RW to TPAdp--><g class="link" data-entity-1="ent0006" data-entity-2="ent0016" data-link-type="dependency" data-source-line="854" id="lnk38"><path d="M122.23,509.8083 C141.06,478.4983 178.59,423.9683 225.95,395.4583 C258.25,376.0183 292.4126,365.2163 328.7826,358.1163" fill="none" id="RW-to-TPAdp" style="stroke:#181818;stroke-width:1;"/><polygon fill="#181818" points="333.69,357.1583,324.0903,354.9568,328.7826,358.1163,325.6231,362.8086,333.69,357.1583" style="stroke:#181818;stroke-width:1;stroke-linejoin:miter;stroke-miterlimit:10;"/></g><!--link RW to SwpAdp--><g class="link" data-entity-1="ent0006" data-entity-2="ent0017" data-link-type="dependency" data-source-line="855" id="lnk39"><path d="M153.11,536.6983 C203.99,540.4383 284.1035,546.3215 350.0435,551.1715" fill="none" id="RW-to-SwpAdp" style="stroke:#181818;stroke-width:1;"/><polygon fill="#181818" points="355.03,551.5383,346.3477,546.8889,350.0435,551.1715,345.7608,554.8673,355.03,551.5383" style="stroke:#181818;stroke-width:1;stroke-linejoin:miter;stroke-miterlimit:10;"/></g><!--link CashAdp to PH--><g class="link" data-entity-1="ent0014" data-entity-2="ent0023" data-link-type="dependency" data-source-line="856" id="lnk40"><path d="M560.92,453.5683 C602.99,460.0283 647.35,475.4383 674.46,509.4583 C696.97,537.7083 660.28,805.9483 682.46,834.4583 C700.93,858.2083 727.3652,867.8676 756.0052,872.1576" fill="none" id="CashAdp-to-PH" style="stroke:#181818;stroke-width:1;stroke-dasharray:7,7;"/><polygon fill="#181818" points="760.95,872.8983,752.6419,867.6092,756.0052,872.1576,751.4567,875.5209,760.95,872.8983" style="stroke:#181818;stroke-width:1;stroke-linejoin:miter;stroke-miterlimit:10;"/></g><!--link TPAdp to VPartner--><g class="link" data-entity-1="ent0016" data-entity-2="ent0029" data-link-type="dependency" data-source-line="857" id="lnk41"><path d="M566.75,356.5683 C603.23,363.6383 642.35,375.5183 674.46,395.4583 C737.17,434.3983 782.5811,504.6379 806.2511,547.2279" fill="none" id="TPAdp-to-VPartner" style="stroke:#181818;stroke-width:1;stroke-dasharray:7,7;"/><polygon fill="#181818" points="808.68,551.5983,807.8043,541.7884,806.2511,547.2279,800.8116,545.6747,808.68,551.5983" style="stroke:#181818;stroke-width:1;stroke-linejoin:miter;stroke-miterlimit:10;"/></g><!--link SwpAdp to CP--><g class="link" data-entity-1="ent0017" data-entity-2="ent0007" data-link-type="dependency" data-source-line="858" id="lnk42"><path d="M354.87,573.9883 C292.86,584.1883 218.9036,596.3662 167.4436,604.8362" fill="none" id="SwpAdp-to-CP" style="stroke:#181818;stroke-width:1;stroke-dasharray:7,7;"/><polygon fill="#181818" points="162.51,605.6483,172.0401,608.1335,167.4436,604.8362,170.7409,600.2397,162.51,605.6483" style="stroke:#181818;stroke-width:1;stroke-linejoin:miter;stroke-miterlimit:10;"/></g><!--link MS to NotAdp--><g class="link" data-entity-1="ent0003" data-entity-2="ent0019" data-link-type="dependency" data-source-line="861" id="lnk43"><path d="M170.35,847.6883 C188.29,841.8283 206.21,832.4583 217.95,817.4583 C238.07,791.7583 204.14,768.7383 225.95,744.4583 C252.14,715.3083 286.4031,702.1499 324.6931,696.0099" fill="none" id="MS-to-NotAdp" style="stroke:#181818;stroke-width:1;"/><polygon fill="#181818" points="329.63,695.2183,320.1102,692.6937,324.6931,696.0099,321.3769,700.5928,329.63,695.2183" style="stroke:#181818;stroke-width:1;stroke-linejoin:miter;stroke-miterlimit:10;"/></g><!--link EN to NotAdp--><g class="link" data-entity-1="ent0005" data-entity-2="ent0019" data-link-type="dependency" data-source-line="862" id="lnk44"><path d="M153.8,695.4583 C198.37,695.4583 263.69,695.4583 324.54,695.4583" fill="none" id="EN-to-NotAdp" style="stroke:#181818;stroke-width:1;"/><polygon fill="#181818" points="329.54,695.4583,320.54,691.4583,324.54,695.4583,320.54,699.4583,329.54,695.4583" style="stroke:#181818;stroke-width:1;stroke-linejoin:miter;stroke-miterlimit:10;"/></g><!--link RW to NotAdp--><g class="link" data-entity-1="ent0006" data-entity-2="ent0019" data-link-type="dependency" data-source-line="863" id="lnk45"><path d="M153.24,539.6983 C175.58,545.0683 201.38,555.0183 217.95,573.4583 C227.75,584.3583 216.33,594.3983 225.95,605.4583 C252.77,636.2683 286.9493,654.9922 324.7793,668.4522" fill="none" id="RW-to-NotAdp" style="stroke:#181818;stroke-width:1;"/><polygon fill="#181818" points="329.49,670.1283,322.3516,663.3428,324.7793,668.4522,319.6699,670.8799,329.49,670.1283" style="stroke:#181818;stroke-width:1;stroke-linejoin:miter;stroke-miterlimit:10;"/></g><!--link CP to NotAdp--><g class="link" data-entity-1="ent0007" data-entity-2="ent0019" data-link-type="dependency" data-source-line="864" id="lnk46"><path d="M162.51,627.2083 C207.14,637.8283 267.5358,652.2109 324.5258,665.7709" fill="none" id="CP-to-NotAdp" style="stroke:#181818;stroke-width:1;"/><polygon fill="#181818" points="329.39,666.9283,321.5603,660.9536,324.5258,665.7709,319.7085,668.7364,329.39,666.9283" style="stroke:#181818;stroke-width:1;stroke-linejoin:miter;stroke-miterlimit:10;"/></g><!--link NotAdp to NSvc--><g class="link" data-entity-1="ent0019" data-entity-2="ent0026" data-link-type="dependency" data-source-line="865" id="lnk47"><path d="M571.05,700.9083 C625.94,703.3983 684.7452,706.0812 734.6752,708.3512" fill="none" id="NotAdp-to-NSvc" style="stroke:#181818;stroke-width:1;stroke-dasharray:7,7;"/><polygon fill="#181818" points="739.67,708.5783,730.861,704.1737,734.6752,708.3512,730.4976,712.1654,739.67,708.5783" style="stroke:#181818;stroke-width:1;stroke-linejoin:miter;stroke-miterlimit:10;"/></g><!--link MS to KCAdp--><g class="link" data-entity-1="ent0003" data-entity-2="ent0020" data-link-type="dependency" data-source-line="866" id="lnk48"><path d="M170.2,845.9383 C212.57,837.9683 265.5862,828.0026 317.6862,818.2026" fill="none" id="MS-to-KCAdp" style="stroke:#181818;stroke-width:1;"/><polygon fill="#181818" points="322.6,817.2783,313.0157,815.0109,317.6862,818.2026,314.4945,822.8731,322.6,817.2783" style="stroke:#181818;stroke-width:1;stroke-linejoin:miter;stroke-miterlimit:10;"/></g><!--link KCAdp to KC--><g class="link" data-entity-1="ent0020" data-entity-2="ent0027" data-link-type="dependency" data-source-line="867" id="lnk49"><path d="M577.79,793.4583 C627.57,793.4583 678.76,793.4583 724.98,793.4583" fill="none" id="KCAdp-to-KC" style="stroke:#181818;stroke-width:1;stroke-dasharray:7,7;"/><polygon fill="#181818" points="729.98,793.4583,720.98,789.4583,724.98,793.4583,720.98,797.4583,729.98,793.4583" style="stroke:#181818;stroke-width:1;stroke-linejoin:miter;stroke-miterlimit:10;"/></g><!--link ACL to GMN50--><g class="link" data-entity-1="ent0008" data-entity-2="ent0051" data-link-type="association" data-source-line="870" id="lnk52"><path d="M450.21,123.3605 C450.21,123.2951 450.21,123.2297 450.21,123.1644 C450.21,122.6414 450.21,122.1184 450.21,121.5955 C450.21,120.5495 450.21,119.5036 450.21,118.4576 C450.21,116.3657 450.21,114.2738 450.21,112.1817 C450.21,107.9977 450.21,103.8133 450.21,99.6283" fill="none" id="ACL-GMN50" style="stroke:#181818;stroke-width:1;stroke-dasharray:7,7;"/></g><?plantuml-src RLRRRjj647tdLmpIXoX6fQ1kUdi985DohLgM2L6m0zHzM94ZQc5obzXToYMA07tg1nJzmdn9Psyo5Hi49Etip9dRcQ4CDpN2L1W-JgLINMku5B1aFIhuylT_i9GzgqqFqvArXcGfCwoMLOT9KkFEW96WUBKtK7A5XJLE4lt8HSiKQw2GJIi52WD_9G0Nh7YibEn4cSfQAlWc_Nd-O_gBlP6gH1Ma7yxjatmUuBHaoIfy7ULoQf-lKNxwmJualPJ2vAQdB3c5pWi2JYBUcuMWf0IhOIORnWMCSiEsDRvx0qp3OhLn7e_QL26CDz-vAu3VRx3Pej9xtlvXhsvoBrvYMQ5oekMlNZHdId1HETbyvMLhV6AgTABrlHUbh6aPhuGJfXa9Fv_4_7gpHg53siS-JPUdiI_4rjOCHlE3xKSgXUwQeVeY9dHsbh6-8QMhRWkdscTd3o9SfjJQ6WsMyFv1f9H3tg8eCwc3AAYjyK1Eq6UONQNHXIqbjL9GYwiZkLuwcnO5HMqkMCr4WRbWhTvBO_4tg9ePjb9pSqkUlTEbP6ADhNVjOt6ED-SVdZrtsaY27o_v3ek-868CFSRhj9OnxFNi8dLT69JpjZE-dfTTlUDrRHt6Iju-Lp9bUhybcv2XTQ1GepeWlBVJqN1A1XJMo3G-Y2___0kXS62hNtAzxQXydWg4DItR27r1NeFkdUoAFQg14nvvVV1Nu6ZjOApT06QpvwhCc3BzInGQFYF8U9ejV1cpWM7-XDXgmnvH3qncYZrHIoUq36WQvyAetfdcJwstFQbYggJMuw8pnj8WrZJMyTDp7LVIy1qlc2Nym9icoYt4j6spJk-faFbDJfzp6kNQUIMpGSJJpkofMW4cfoxm0WTe1reF9JC8lzrlleKA3IXPetP8rsaCVpYAypz3cKTtiYRKk3dcdxxQ75V4HKTto4Xl9rKJzOvxPD3tC2nX7RmoAP7Kqw0IE0iXfyZQ_51u1J4etrWFb5P7bTFYd21Tls1_vecXOnBdCOdlLJbsP8B09be4IXvu6MA-2vQnacyXxAKakuB9vADR4JOnTt1Zw_DmPpU8f07ZyKUxGUrz_6tlt6zQm0Jxsdmcwtkd4GSf7ED0XACdUJW4sWQB467YLDpXc8zNT39QsHJ02RKJugM52toShuQdu2gSqcnuybyErhKgu7WskaztHnrAgCS8Msc82I1tTdweoCVtMsYwfgNZTXr8KVT0BO-KUgj9lNHlmJ4jswgpZIPberXX9XHFX01ExtHbh3e3MjWblMtpsJMChjdkaK5HSyjYAs6Q-luk_3Ee-qb2oc33JFu7?></g></svg>