<svg xmlns="http://www.w3.org/2000/svg" xmlns:xlink="http://www.w3.org/1999/xlink" contentStyleType="text/css" data-diagram-type="DESCRIPTION" height="466px" preserveAspectRatio="none" style="width:1494px;height:466px;background:#FFFFFF;" version="1.1" viewBox="0 0 1494 466" width="1494px" zoomAndPan="magnify"><?plantuml 1.2026.4?><defs/><g><g class="title" data-source-line="1"><text fill="#000000" font-family="sans-serif" font-size="14" font-weight="700" lengthAdjust="spacing" textLength="210.6357" x="638.1821" y="23.5352">4.2.4 Event Backbone (Async)</text></g><!--cluster Inbound Producers (Host Bank Platform)--><g class="cluster" data-qualified-name="Inbound Producers .Host Bank Platform." data-source-line="13" id="ent0001"><path d="M55.5,51.7383 L347.6357,51.7383 A3.75,3.75 0 0 1 350.1357,54.2383 L357.1357,74.2266 L628.5,74.2266 A2.5,2.5 0 0 1 631,76.7266 L631,163.2083 A2.5,2.5 0 0 1 628.5,165.7083 L55.5,165.7083 A2.5,2.5 0 0 1 53,163.2083 L53,54.2383 A2.5,2.5 0 0 1 55.5,51.7383" fill="none" style="stroke:#000000;stroke-width:1.5;"/><line style="stroke:#000000;stroke-width:1.5;" x1="53" x2="357.1357" y1="74.2266" y2="74.2266"/><text fill="#000000" font-family="sans-serif" font-size="14" font-weight="700" lengthAdjust="spacing" textLength="291.1357" x="57" y="67.2734">Inbound Producers (Host Bank Platform)</text></g><!--cluster Event Backbone (Shared Kafka cluster)--><g class="cluster" data-qualified-name="Event Backbone .Shared Kafka cluster." data-source-line="19" id="ent0005"><path d="M29.5,191.1983 L307.7793,191.1983 A3.75,3.75 0 0 1 310.2793,193.6983 L317.2793,213.6866 L802.5,213.6866 A2.5,2.5 0 0 1 805,216.1866 L805,302.6783 A2.5,2.5 0 0 1 802.5,305.1783 L29.5,305.1783 A2.5,2.5 0 0 1 27,302.6783 L27,193.6983 A2.5,2.5 0 0 1 29.5,191.1983" fill="none" style="stroke:#000000;stroke-width:1.5;"/><line style="stroke:#000000;stroke-width:1.5;" x1="27" x2="317.2793" y1="213.6866" y2="213.6866"/><text fill="#000000" font-family="sans-serif" font-size="14" font-weight="700" lengthAdjust="spacing" textLength="277.2793" x="31" y="206.7334">Event Backbone (Shared Kafka cluster)</text></g><!--cluster Loyalty Producers / Consumers--><g class="cluster" data-qualified-name="Loyalty Producers . Consumers" data-source-line="26" id="ent0010"><path d="M831.5,43.4883 L1059.6992,43.4883 A3.75,3.75 0 0 1 1062.1992,45.9883 L1069.1992,65.9766 L1476.5,65.9766 A2.5,2.5 0 0 1 1479,68.4766 L1479,310.9183 A2.5,2.5 0 0 1 1476.5,313.4183 L831.5,313.4183 A2.5,2.5 0 0 1 829,310.9183 L829,45.9883 A2.5,2.5 0 0 1 831.5,43.4883" fill="none" style="stroke:#000000;stroke-width:1.5;"/><line style="stroke:#000000;stroke-width:1.5;" x1="829" x2="1069.1992" y1="65.9766" y2="65.9766"/><text fill="#000000" font-family="sans-serif" font-size="14" font-weight="700" lengthAdjust="spacing" textLength="227.1992" x="833" y="59.0234">Loyalty Producers / Consumers</text></g><!--cluster Downstream Consumers--><g class="cluster" data-qualified-name="Downstream Consumers" data-source-line="34" id="ent0016"><path d="M769.5,337.4183 L947.6738,337.4183 A3.75,3.75 0 0 1 950.1738,339.9183 L957.1738,359.9066 L968.5,359.9066 A2.5,2.5 0 0 1 971,362.4066 L971,448.8983 A2.5,2.5 0 0 1 968.5,451.3983 L769.5,451.3983 A2.5,2.5 0 0 1 767,448.8983 L767,339.9183 A2.5,2.5 0 0 1 769.5,337.4183" fill="none" style="stroke:#000000;stroke-width:1.5;"/><line style="stroke:#000000;stroke-width:1.5;" x1="767" x2="957.1738" y1="359.9066" y2="359.9066"/><text fill="#000000" font-family="sans-serif" font-size="14" font-weight="700" lengthAdjust="spacing" textLength="177.1738" x="771" y="352.9534">Downstream Consumers</text></g><!--entity PH--><g class="entity" data-qualified-name="Inbound Producers .Host Bank Platform..PH" data-source-line="14" id="ent0002"><rect fill="#B0BEC5" height="62.9766" rx="2.5" ry="2.5" style="stroke:#424242;stroke-width:0.5;" width="129.7969" x="69.1" y="86.7383"/><rect fill="#B0BEC5" height="10" style="stroke:#424242;stroke-width:0.5;" width="15" x="178.8969" y="91.7383"/><rect fill="#B0BEC5" height="2" style="stroke:#424242;stroke-width:0.5;" width="4" x="176.8969" y="93.7383"/><rect fill="#B0BEC5" height="2" style="stroke:#424242;stroke-width:0.5;" width="4" x="176.8969" y="97.7383"/><text fill="#000000" font-family="sans-serif" font-size="14" font-style="italic" lengthAdjust="spacing" textLength="70.0752" x="93.9608" y="120.2734">&#171;External&#187;</text><text fill="#000000" font-family="sans-serif" font-size="14" lengthAdjust="spacing" textLength="89.7969" x="84.1" y="136.7617">Payment Hub</text></g><!--entity T24A--><g class="entity" data-qualified-name="Inbound Producers .Host Bank Platform..T24A" data-source-line="15" id="ent0003"><rect fill="#B0BEC5" height="62.9766" rx="2.5" ry="2.5" style="stroke:#424242;stroke-width:0.5;" width="188.5723" x="233.71" y="86.7383"/><rect fill="#B0BEC5" height="10" style="stroke:#424242;stroke-width:0.5;" width="15" x="402.2823" y="91.7383"/><rect fill="#B0BEC5" height="2" style="stroke:#424242;stroke-width:0.5;" width="4" x="400.2823" y="93.7383"/><rect fill="#B0BEC5" height="2" style="stroke:#424242;stroke-width:0.5;" width="4" x="400.2823" y="97.7383"/><text fill="#000000" font-family="sans-serif" font-size="14" font-style="italic" lengthAdjust="spacing" textLength="70.0752" x="287.9585" y="120.2734">&#171;External&#187;</text><text fill="#000000" font-family="sans-serif" font-size="14" lengthAdjust="spacing" textLength="148.5723" x="248.71" y="136.7617">Core Banking Adapter</text></g><!--entity RDBSvc--><g class="entity" data-qualified-name="Inbound Producers .Host Bank Platform..RDBSvc" data-source-line="16" id="ent0004"><rect fill="#B0BEC5" height="62.9766" rx="2.5" ry="2.5" style="stroke:#424242;stroke-width:0.5;" width="157.708" x="457.15" y="86.7383"/><rect fill="#B0BEC5" height="10" style="stroke:#424242;stroke-width:0.5;" width="15" x="594.858" y="91.7383"/><rect fill="#B0BEC5" height="2" style="stroke:#424242;stroke-width:0.5;" width="4" x="592.858" y="93.7383"/><rect fill="#B0BEC5" height="2" style="stroke:#424242;stroke-width:0.5;" width="4" x="592.858" y="97.7383"/><text fill="#000000" font-family="sans-serif" font-size="14" font-style="italic" lengthAdjust="spacing" textLength="70.0752" x="495.9664" y="120.2734">&#171;External&#187;</text><text fill="#000000" font-family="sans-serif" font-size="14" lengthAdjust="spacing" textLength="117.708" x="472.15" y="136.7617">Customer Service</text></g><!--entity PHTopic--><g class="entity" data-qualified-name="Event Backbone .Shared Kafka cluster..PHTopic" data-source-line="20" id="ent0006"><rect fill="#FFCCBC" height="62.9766" rx="2.5" ry="2.5" style="stroke:#424242;stroke-width:0.5;" width="181.4492" x="43.28" y="226.1983"/><rect fill="#FFCCBC" height="10" style="stroke:#424242;stroke-width:0.5;" width="15" x="204.7292" y="231.1983"/><rect fill="#FFCCBC" height="2" style="stroke:#424242;stroke-width:0.5;" width="4" x="202.7292" y="233.1983"/><rect fill="#FFCCBC" height="2" style="stroke:#424242;stroke-width:0.5;" width="4" x="202.7292" y="237.1983"/><text fill="#000000" font-family="sans-serif" font-size="14" font-style="italic" lengthAdjust="spacing" textLength="51.2285" x="103.3904" y="259.7334">&#171;Event&#187;</text><text fill="#000000" font-family="sans-serif" font-size="14" lengthAdjust="spacing" textLength="141.4492" x="58.28" y="276.2217">paymenthub.* topics</text></g><!--entity T24Topic--><g class="entity" data-qualified-name="Event Backbone .Shared Kafka cluster..T24Topic" data-source-line="21" id="ent0007"><rect fill="#FFCCBC" height="62.9766" rx="2.5" ry="2.5" style="stroke:#424242;stroke-width:0.5;" width="159.3213" x="259.34" y="226.1983"/><rect fill="#FFCCBC" height="10" style="stroke:#424242;stroke-width:0.5;" width="15" x="398.6613" y="231.1983"/><rect fill="#FFCCBC" height="2" style="stroke:#424242;stroke-width:0.5;" width="4" x="396.6613" y="233.1983"/><rect fill="#FFCCBC" height="2" style="stroke:#424242;stroke-width:0.5;" width="4" x="396.6613" y="237.1983"/><text fill="#000000" font-family="sans-serif" font-size="14" font-style="italic" lengthAdjust="spacing" textLength="51.2285" x="308.3864" y="259.7334">&#171;Event&#187;</text><text fill="#000000" font-family="sans-serif" font-size="14" lengthAdjust="spacing" textLength="119.3213" x="274.34" y="276.2217">corebank.* topics</text></g><!--entity RDBTopic--><g class="entity" data-qualified-name="Event Backbone .Shared Kafka cluster..RDBTopic" data-source-line="22" id="ent0008"><rect fill="#FFCCBC" height="62.9766" rx="2.5" ry="2.5" style="stroke:#424242;stroke-width:0.5;" width="160.0391" x="453.98" y="226.1983"/><rect fill="#FFCCBC" height="10" style="stroke:#424242;stroke-width:0.5;" width="15" x="594.0191" y="231.1983"/><rect fill="#FFCCBC" height="2" style="stroke:#424242;stroke-width:0.5;" width="4" x="592.0191" y="233.1983"/><rect fill="#FFCCBC" height="2" style="stroke:#424242;stroke-width:0.5;" width="4" x="592.0191" y="237.1983"/><text fill="#000000" font-family="sans-serif" font-size="14" font-style="italic" lengthAdjust="spacing" textLength="51.2285" x="503.3853" y="259.7334">&#171;Event&#187;</text><text fill="#000000" font-family="sans-serif" font-size="14" lengthAdjust="spacing" textLength="120.0391" x="468.98" y="276.2217">customer.* topics</text></g><!--entity LoyTopic--><g class="entity" data-qualified-name="Event Backbone .Shared Kafka cluster..LoyTopic" data-source-line="23" id="ent0009"><rect fill="#FFCCBC" height="62.9766" rx="2.5" ry="2.5" style="stroke:#424242;stroke-width:0.5;" width="140.8984" x="648.55" y="226.1983"/><rect fill="#FFCCBC" height="10" style="stroke:#424242;stroke-width:0.5;" width="15" x="769.4484" y="231.1983"/><rect fill="#FFCCBC" height="2" style="stroke:#424242;stroke-width:0.5;" width="4" x="767.4484" y="233.1983"/><rect fill="#FFCCBC" height="2" style="stroke:#424242;stroke-width:0.5;" width="4" x="767.4484" y="237.1983"/><text fill="#000000" font-family="sans-serif" font-size="14" font-style="italic" lengthAdjust="spacing" textLength="51.2285" x="688.385" y="259.7334">&#171;Event&#187;</text><text fill="#000000" font-family="sans-serif" font-size="14" lengthAdjust="spacing" textLength="100.8984" x="663.55" y="276.2217">loyalty.* topics</text></g><!--entity Bridge--><g class="entity" data-qualified-name="Loyalty Producers . Consumers.Bridge" data-source-line="27" id="ent0011"><rect fill="#E1BEE7" height="79.4648" rx="2.5" ry="2.5" style="stroke:#424242;stroke-width:0.5;" width="218.9512" x="844.52" y="78.4883"/><rect fill="#E1BEE7" height="10" style="stroke:#424242;stroke-width:0.5;" width="15" x="1043.4712" y="83.4883"/><rect fill="#E1BEE7" height="2" style="stroke:#424242;stroke-width:0.5;" width="4" x="1041.4712" y="85.4883"/><rect fill="#E1BEE7" height="2" style="stroke:#424242;stroke-width:0.5;" width="4" x="1041.4712" y="89.4883"/><text fill="#000000" font-family="sans-serif" font-size="14" font-style="italic" lengthAdjust="spacing" textLength="60.9697" x="918.5107" y="112.0234">&#171;Shared&#187;</text><text fill="#000000" font-family="sans-serif" font-size="14" lengthAdjust="spacing" textLength="178.9512" x="859.52" y="128.5117">loyalty-integration-bridge</text><text fill="#000000" font-family="sans-serif" font-size="14" lengthAdjust="spacing" textLength="75.9883" x="859.52" y="145">(consumer)</text></g><!--entity Earn--><g class="entity" data-qualified-name="Loyalty Producers . Consumers.Earn" data-source-line="28" id="ent0012"><rect fill="#C8E6C9" height="79.4648" rx="2.5" ry="2.5" style="stroke:#424242;stroke-width:0.5;" width="197.3154" x="845.34" y="217.9583"/><rect fill="#C8E6C9" height="10" style="stroke:#424242;stroke-width:0.5;" width="15" x="1022.6554" y="222.9583"/><rect fill="#C8E6C9" height="2" style="stroke:#424242;stroke-width:0.5;" width="4" x="1020.6554" y="224.9583"/><rect fill="#C8E6C9" height="2" style="stroke:#424242;stroke-width:0.5;" width="4" x="1020.6554" y="228.9583"/><text fill="#000000" font-family="sans-serif" font-size="14" font-style="italic" lengthAdjust="spacing" textLength="46.4844" x="915.7555" y="251.4934">&#171;Core&#187;</text><text fill="#000000" font-family="sans-serif" font-size="14" lengthAdjust="spacing" textLength="103.8037" x="860.34" y="267.9817">loyalty-earning</text><text fill="#000000" font-family="sans-serif" font-size="14" lengthAdjust="spacing" textLength="157.3154" x="860.34" y="284.47">(consumer + producer)</text></g><!--entity Core--><g class="entity" data-qualified-name="Loyalty Producers . Consumers.Core" data-source-line="29" id="ent0013"><rect fill="#C8E6C9" height="79.4648" rx="2.5" ry="2.5" style="stroke:#424242;stroke-width:0.5;" width="121.6895" x="1078.16" y="217.9583"/><rect fill="#C8E6C9" height="10" style="stroke:#424242;stroke-width:0.5;" width="15" x="1179.8495" y="222.9583"/><rect fill="#C8E6C9" height="2" style="stroke:#424242;stroke-width:0.5;" width="4" x="1177.8495" y="224.9583"/><rect fill="#C8E6C9" height="2" style="stroke:#424242;stroke-width:0.5;" width="4" x="1177.8495" y="228.9583"/><text fill="#000000" font-family="sans-serif" font-size="14" font-style="italic" lengthAdjust="spacing" textLength="46.4844" x="1110.7625" y="251.4934">&#171;Core&#187;</text><text fill="#000000" font-family="sans-serif" font-size="14" lengthAdjust="spacing" textLength="81.6895" x="1093.16" y="267.9817">loyalty-core</text><text fill="#000000" font-family="sans-serif" font-size="14" lengthAdjust="spacing" textLength="70.4443" x="1093.16" y="284.47">(producer)</text></g><!--entity Redm--><g class="entity" data-qualified-name="Loyalty Producers . Consumers.Redm" data-source-line="30" id="ent0014"><rect fill="#C8E6C9" height="79.4648" rx="2.5" ry="2.5" style="stroke:#424242;stroke-width:0.5;" width="170.9834" x="1098.51" y="78.4883"/><rect fill="#C8E6C9" height="10" style="stroke:#424242;stroke-width:0.5;" width="15" x="1249.4934" y="83.4883"/><rect fill="#C8E6C9" height="2" style="stroke:#424242;stroke-width:0.5;" width="4" x="1247.4934" y="85.4883"/><rect fill="#C8E6C9" height="2" style="stroke:#424242;stroke-width:0.5;" width="4" x="1247.4934" y="89.4883"/><text fill="#000000" font-family="sans-serif" font-size="14" font-style="italic" lengthAdjust="spacing" textLength="46.4844" x="1155.7595" y="112.0234">&#171;Core&#187;</text><text fill="#000000" font-family="sans-serif" font-size="14" lengthAdjust="spacing" textLength="130.9834" x="1113.51" y="128.5117">loyalty-redemption</text><text fill="#000000" font-family="sans-serif" font-size="14" lengthAdjust="spacing" textLength="70.4443" x="1113.51" y="145">(producer)</text></g><!--entity Camp--><g class="entity" data-qualified-name="Loyalty Producers . Consumers.Camp" data-source-line="31" id="ent0015"><rect fill="#C8E6C9" height="79.4648" rx="2.5" ry="2.5" style="stroke:#424242;stroke-width:0.5;" width="158.3711" x="1304.81" y="78.4883"/><rect fill="#C8E6C9" height="10" style="stroke:#424242;stroke-width:0.5;" width="15" x="1443.1811" y="83.4883"/><rect fill="#C8E6C9" height="2" style="stroke:#424242;stroke-width:0.5;" width="4" x="1441.1811" y="85.4883"/><rect fill="#C8E6C9" height="2" style="stroke:#424242;stroke-width:0.5;" width="4" x="1441.1811" y="89.4883"/><text fill="#000000" font-family="sans-serif" font-size="14" font-style="italic" lengthAdjust="spacing" textLength="46.4844" x="1355.7534" y="112.0234">&#171;Core&#187;</text><text fill="#000000" font-family="sans-serif" font-size="14" lengthAdjust="spacing" textLength="118.3711" x="1319.81" y="128.5117">loyalty-campaign</text><text fill="#000000" font-family="sans-serif" font-size="14" lengthAdjust="spacing" textLength="70.4443" x="1319.81" y="145">(producer)</text></g><!--entity NSvc--><g class="entity" data-qualified-name="Downstream Consumers.NSvc" data-source-line="35" id="ent0017"><rect fill="#B0BEC5" height="62.9766" rx="2.5" ry="2.5" style="stroke:#424242;stroke-width:0.5;" width="172.2686" x="782.87" y="372.4183"/><rect fill="#B0BEC5" height="10" style="stroke:#424242;stroke-width:0.5;" width="15" x="935.1386" y="377.4183"/><rect fill="#B0BEC5" height="2" style="stroke:#424242;stroke-width:0.5;" width="4" x="933.1386" y="379.4183"/><rect fill="#B0BEC5" height="2" style="stroke:#424242;stroke-width:0.5;" width="4" x="933.1386" y="383.4183"/><text fill="#000000" font-family="sans-serif" font-size="14" font-style="italic" lengthAdjust="spacing" textLength="70.0752" x="828.9667" y="405.9534">&#171;External&#187;</text><text fill="#000000" font-family="sans-serif" font-size="14" lengthAdjust="spacing" textLength="132.2686" x="797.87" y="422.4417">notification-service</text></g><g class="entity" data-qualified-name="GMN31" data-source-line="60" id="ent0032"><path d="M390.02,375.9483 L390.02,431.8799 A0,0 0 0 0 390.02,431.8799 L747.979,431.8799 A0,0 0 0 0 747.979,431.8799 L747.979,385.9483 L737.979,375.9483 L702.27,375.9483 L698.27,289.4183 L694.27,375.9483 L390.02,375.9483 A0,0 0 0 0 390.02,375.9483" fill="#FEFFDD" style="stroke:#181818;stroke-width:0.5;"/><path d="M737.979,375.9483 L737.979,385.9483 L747.979,385.9483 L737.979,375.9483" fill="#FEFFDD" style="stroke:#181818;stroke-width:0.5;"/><text fill="#000000" font-family="sans-serif" font-size="13" lengthAdjust="spacing" textLength="336.959" x="396.02" y="393.5166">Topic naming: loyalty.&lt;context&gt;.&lt;eventType&gt;.v&lt;n&gt;</text><text fill="#000000" font-family="sans-serif" font-size="13" lengthAdjust="spacing" textLength="296.8291" x="396.02" y="408.8272">JSON Schema, NO registry (plain Kafka cluster);</text><text fill="#000000" font-family="sans-serif" font-size="13" lengthAdjust="spacing" textLength="211.3389" x="396.02" y="424.1377">backward-compat enforced in CI.</text></g><!--link PH to PHTopic--><g class="link" data-entity-1="ent0002" data-entity-2="ent0006" data-link-type="dependency" data-source-line="39" id="lnk18"><path d="M134,149.8683 C134,172.6983 134,198.3683 134,221.1683" fill="none" id="PH-to-PHTopic" style="stroke:#181818;stroke-width:1;"/><polygon fill="#181818" points="134,226.1683,138,217.1683,134,221.1683,130,217.1683,134,226.1683" style="stroke:#181818;stroke-width:1;stroke-linejoin:miter;stroke-miterlimit:10;"/><text fill="#000000" font-family="sans-serif" font-size="13" lengthAdjust="spacing" textLength="126.166" x="7" y="154.5866">PaymentCompleted,</text><text fill="#000000" font-family="sans-serif" font-size="13" lengthAdjust="spacing" textLength="114.5498" x="12.8081" y="169.8972">CardSpendPosted,</text><text fill="#000000" font-family="sans-serif" font-size="13" lengthAdjust="spacing" textLength="110.2715" x="14.9473" y="185.2077">PaymentReversed</text></g><!--link T24A to T24Topic--><g class="link" data-entity-1="ent0003" data-entity-2="ent0007" data-link-type="dependency" data-source-line="40" id="lnk19"><path d="M312.45,149.8683 C312.45,172.6983 312.45,198.3683 312.45,221.1683" fill="none" id="T24A-to-T24Topic" style="stroke:#181818;stroke-width:1;"/><polygon fill="#181818" points="312.45,226.1683,316.45,217.1683,312.45,221.1683,308.45,217.1683,312.45,226.1683" style="stroke:#181818;stroke-width:1;stroke-linejoin:miter;stroke-miterlimit:10;"/><text fill="#000000" font-family="sans-serif" font-size="13" lengthAdjust="spacing" textLength="160.9194" x="150.7071" y="169.5866">AccountBalanceSnapshot,</text><text fill="#000000" font-family="sans-serif" font-size="13" lengthAdjust="spacing" textLength="161.4336" x="150.45" y="184.8972">TermDepositOpened, etc.</text></g><!--link RDBSvc to RDBTopic--><g class="link" data-entity-1="ent0004" data-entity-2="ent0008" data-link-type="dependency" data-source-line="41" id="lnk20"><path d="M509.44,149.8683 C509.44,172.6983 509.44,198.3683 509.44,221.1683" fill="none" id="RDBSvc-to-RDBTopic" style="stroke:#181818;stroke-width:1;"/><polygon fill="#181818" points="509.44,226.1683,513.44,217.1683,509.44,221.1683,505.44,217.1683,509.44,226.1683" style="stroke:#181818;stroke-width:1;stroke-linejoin:miter;stroke-miterlimit:10;"/><text fill="#000000" font-family="sans-serif" font-size="13" lengthAdjust="spacing" textLength="104.0254" x="404.44" y="184.5866">CustomerClosed</text></g><!--link PHTopic to Bridge--><g class="link" data-entity-1="ent0006" data-entity-2="ent0011" data-link-type="dependency" data-source-line="43" id="lnk21"><path d="M211.81,225.7983 C211.81,194.4883 211.81,151.3983 211.81,151.3983 C211.81,151.3983 632.49,151.3983 839.09,151.3983" fill="none" id="PHTopic-to-Bridge" style="stroke:#181818;stroke-width:1;"/><polygon fill="#181818" points="844.09,151.3983,835.09,147.3983,839.09,151.3983,835.09,155.3983,844.09,151.3983" style="stroke:#181818;stroke-width:1;stroke-linejoin:miter;stroke-miterlimit:10;"/></g><!--link T24Topic to Bridge--><g class="link" data-entity-1="ent0007" data-entity-2="ent0011" data-link-type="dependency" data-source-line="44" id="lnk22"><path d="M365.55,225.8283 C365.55,195.1583 365.55,153.3983 365.55,153.3983 C365.55,153.3983 669.11,153.3983 839.35,153.3983" fill="none" id="T24Topic-to-Bridge" style="stroke:#181818;stroke-width:1;"/><polygon fill="#181818" points="844.35,153.3983,835.35,149.3983,839.35,153.3983,835.35,157.3983,844.35,153.3983" style="stroke:#181818;stroke-width:1;stroke-linejoin:miter;stroke-miterlimit:10;"/></g><!--link RDBTopic to Bridge--><g class="link" data-entity-1="ent0008" data-entity-2="ent0011" data-link-type="dependency" data-source-line="45" id="lnk23"><path d="M561.73,225.8883 C561.73,195.8583 561.73,155.3983 561.73,155.3983 C561.73,155.3983 723.16,155.3983 839.21,155.3983" fill="none" id="RDBTopic-to-Bridge" style="stroke:#181818;stroke-width:1;"/><polygon fill="#181818" points="844.21,155.3983,835.21,151.3983,839.21,155.3983,835.21,159.3983,844.21,155.3983" style="stroke:#181818;stroke-width:1;stroke-linejoin:miter;stroke-miterlimit:10;"/></g><!--link Bridge to Earn--><g class="link" data-entity-1="ent0011" data-entity-2="ent0012" data-link-type="dependency" data-source-line="47" id="lnk24"><path d="M944,158.1883 C944,176.8683 944,194.0483 944,212.7183" fill="none" id="Bridge-to-Earn" style="stroke:#181818;stroke-width:1;"/><polygon fill="#181818" points="944,217.7183,948,208.7183,944,212.7183,940,208.7183,944,217.7183" style="stroke:#181818;stroke-width:1;stroke-linejoin:miter;stroke-miterlimit:10;"/><text fill="#000000" font-family="sans-serif" font-size="13" lengthAdjust="spacing" textLength="132.3105" x="945" y="184.5266">Translated EarnEvent</text></g><!--link Bridge to Core--><g class="link" data-entity-1="ent0011" data-entity-2="ent0013" data-link-type="dependency" data-source-line="48" id="lnk25"><path d="M1063.9,118.3983 C1076.5,118.3983 1084.94,118.3983 1084.94,118.3983 C1084.94,118.3983 1084.94,171.6183 1084.94,212.7783" fill="none" id="Bridge-to-Core" style="stroke:#181818;stroke-width:1;"/><polygon fill="#181818" points="1084.94,217.7783,1088.94,208.7783,1084.94,212.7783,1080.94,208.7783,1084.94,217.7783" style="stroke:#181818;stroke-width:1;stroke-linejoin:miter;stroke-miterlimit:10;"/><text fill="#000000" font-family="sans-serif" font-size="13" lengthAdjust="spacing" textLength="105.1426" x="1103.4532" y="171.1366">MemberLifecycle</text><text fill="#000000" font-family="sans-serif" font-size="13" lengthAdjust="spacing" textLength="140.1689" x="1085.94" y="186.4472">(e.g. CustomerClosed)</text></g><!--link Earn to LoyTopic--><g class="link" data-entity-1="ent0012" data-entity-2="ent0009" data-link-type="dependency" data-source-line="51" id="lnk26"><path d="M844.98,257.3983 C826.36,257.3983 812.23,257.3983 794.68,257.3983" fill="none" id="Earn-to-LoyTopic" style="stroke:#181818;stroke-width:1;"/><polygon fill="#181818" points="789.68,257.3983,798.68,261.3983,794.68,257.3983,798.68,253.3983,789.68,257.3983" style="stroke:#181818;stroke-width:1;stroke-linejoin:miter;stroke-miterlimit:10;"/><text fill="#000000" font-family="sans-serif" font-size="13" lengthAdjust="spacing" textLength="81.5229" x="776.83" y="270.9666">PointsEarned</text></g><!--link Core to LoyTopic--><g class="link" data-entity-1="ent0013" data-entity-2="ent0009" data-link-type="dependency" data-source-line="52" id="lnk27"><path d="M1091.72,217.6583 C1091.72,209.5283 1091.72,203.3983 1091.72,203.3983 C1091.72,203.3983 754.22,203.3983 754.22,203.3983 C754.22,203.3983 754.22,208.9783 754.22,220.7983" fill="none" id="Core-to-LoyTopic" style="stroke:#181818;stroke-width:1;"/><polygon fill="#181818" points="754.22,225.7983,758.22,216.7983,754.22,220.7983,750.22,216.7983,754.22,225.7983" style="stroke:#181818;stroke-width:1;stroke-linejoin:miter;stroke-miterlimit:10;"/><text fill="#000000" font-family="sans-serif" font-size="13" lengthAdjust="spacing" textLength="105.8154" x="804.87" y="169.9666">MemberOptedIn,</text><text fill="#000000" font-family="sans-serif" font-size="13" lengthAdjust="spacing" textLength="84.4937" x="815.5308" y="185.2772">TierChanged,</text><text fill="#000000" font-family="sans-serif" font-size="13" lengthAdjust="spacing" textLength="121.7354" x="796.91" y="200.5877">PointsExpiringSoon</text></g><!--link Redm to LoyTopic--><g class="link" data-entity-1="ent0014" data-entity-2="ent0009" data-link-type="dependency" data-source-line="53" id="lnk28"><path d="M1149.18,158.3183 C1149.18,166.8783 1149.18,173.3983 1149.18,173.3983 C1149.18,173.3983 683.78,173.3983 683.78,173.3983 C683.78,173.3983 683.78,196.9483 683.78,220.8183" fill="none" id="Redm-to-LoyTopic" style="stroke:#181818;stroke-width:1;"/><polygon fill="#181818" points="683.78,225.8183,687.78,216.8183,683.78,220.8183,679.78,216.8183,683.78,225.8183" style="stroke:#181818;stroke-width:1;stroke-linejoin:miter;stroke-miterlimit:10;"/><text fill="#000000" font-family="sans-serif" font-size="13" lengthAdjust="spacing" textLength="148.5796" x="748.8" y="154.9666">RedemptionCompleted,</text><text fill="#000000" font-family="sans-serif" font-size="13" lengthAdjust="spacing" textLength="112.9692" x="766.6052" y="170.2772">RedemptionFailed</text></g><!--link Camp to LoyTopic--><g class="link" data-entity-1="ent0015" data-entity-2="ent0009" data-link-type="dependency" data-source-line="54" id="lnk29"><path d="M1384,158.2283 C1384,173.9883 1384,188.3983 1384,188.3983 C1384,188.3983 719,188.3983 719,188.3983 C719,188.3983 719,202.6683 719,220.8783" fill="none" id="Camp-to-LoyTopic" style="stroke:#181818;stroke-width:1;"/><polygon fill="#181818" points="719,225.8783,723,216.8783,719,220.8783,715,216.8783,719,225.8783" style="stroke:#181818;stroke-width:1;stroke-linejoin:miter;stroke-miterlimit:10;"/><text fill="#000000" font-family="sans-serif" font-size="13" lengthAdjust="spacing" textLength="124.8838" x="922.84" y="201.9666">DrawingCompleted,</text><text fill="#000000" font-family="sans-serif" font-size="13" lengthAdjust="spacing" textLength="95.7671" x="937.3983" y="217.2772">WinnerSelected</text></g><!--link LoyTopic to NSvc--><g class="link" data-entity-1="ent0009" data-entity-2="ent0017" data-link-type="dependency" data-source-line="57" id="lnk30"><path d="M765.42,289.5183 C765.42,332.6683 765.42,404.3983 765.42,404.3983 C765.42,404.3983 767.31,404.3983 777.53,404.3983" fill="none" id="LoyTopic-to-NSvc" style="stroke:#181818;stroke-width:1;"/><polygon fill="#181818" points="782.53,404.3983,773.53,400.3983,777.53,404.3983,773.53,408.3983,782.53,404.3983" style="stroke:#181818;stroke-width:1;stroke-linejoin:miter;stroke-miterlimit:10;"/><text fill="#000000" font-family="sans-serif" font-size="13" lengthAdjust="spacing" textLength="99.2583" x="665.42" y="352.0766">notify customer</text></g><?plantuml-src VLN1Rjiu4BtpAmRjeKbRQziWs-vc3GEnuY1fqzY83EnXkmUA6ij495AWQ2T2qN_V6Kfo53TU-61xzDwRuSmRocjV89n69z4fpBPeF4obka-jGJWwhnkZZeMexxMff9Cb5DgWRoe4w_pQ3fyeMrP48luF0K4ZTtPZijWMret7iNKucS3h-8_Pf_ZFbn39MZhC63FxE9tDFh-42GKovF8oZgVnYv17Zyx8Wb7J3zDP_3kZhClG1GIyFZtXZ_WfH4LacIEykZOfIy32sMoZqDLmT6LhReMvXqKX_SgwylXLEDe_2zcKVCwhJVelF4ieQrXSCOHF6yZQv72UoOeWlsAN9wVd0RsflItHGO9kgnN-Yhoxc2PRzQpa_LcrxOElSdKlGHKaYQwlk6ehNc_Iw2ruMsbLXnnTDqFPImupM57jAPL-24fLFs6xoWzXgUuTjh2DB7np27fZcnOwFEHDondCvJU8hQatbBFk3jVfZhJnc3lfjJMZrEain-_cI7NWOywsSnYbcmR4a8_I6HhNW0JleEeI1txdOMBF23laSi-8U03DluPeAWBBYWizpBd3h7oMGPQLrFd_C692F6lUXNqmjNT8oxdVCsEzNcdLDgi-vBhRpdDleD-FLM4VnE8AHgD9RnauWsuXOhe12lIOlVzkOkcof4AJBMYDGgG3tU6Moi1CiFc3Jkyd4ZfNYjBugIoaKPWOMTLhwucyH5TUO6LhxUUaIeA0NaMYtOiWqrkDPFfzYWlBcKHVASEwkU-I3c8xXK5CjDyXn4CdzQMJfgOhWPQD8y72GrZO_JFuXcMAxaQlK3MgO7TWb4TxjHrpS-SRttQtTpkoP2r2FbRiLuDRRSdcDJ-XWuLCUu0sxPmkdEpQSESqvLfBaxT3QEcFbNPazSHQ8zXe-o9tEuCEP_eKlPIwuFpak7tgXPCF93ta_QsDGPTWWShpEDx0apF5ZiewR3ZI2EvieBzSXA00Gcez_GMxUheg05gkaINbF8F-YXdJ1djyz9De77gvf3VM9DgEpOGeNvBvBIHgZQLy3xTpS9XhAgQ1ewgGskpTe7yH8wMDUY13Z_WT9psWeTU1elaJEhwE1DcSQqRn7m00?></g></svg>