<svg xmlns="http://www.w3.org/2000/svg" xmlns:xlink="http://www.w3.org/1999/xlink" contentStyleType="text/css" data-diagram-type="DESCRIPTION" height="668px" preserveAspectRatio="none" style="width:1814px;height:668px;background:#FFFFFF;" version="1.1" viewBox="0 0 1814 668" width="1814px" zoomAndPan="magnify"><?plantuml 1.2026.4?><defs/><g><g class="title" data-source-line="1"><text fill="#000000" font-family="sans-serif" font-size="14" font-weight="700" lengthAdjust="spacing" textLength="308.5127" x="749.6537" y="23.5352">4.2.3 ACL Adapters &amp; External Integrations</text></g><!--cluster Internal Loyalty Services--><g class="cluster" data-qualified-name="Internal Loyalty Services" data-source-line="13" id="ent0001"><path d="M269.32,230.9283 L446.4616,230.9283 A3.75,3.75 0 0 1 448.9616,233.4283 L455.9616,253.4166 L1074.32,253.4166 A2.5,2.5 0 0 1 1076.82,255.9166 L1076.82,358.8983 A2.5,2.5 0 0 1 1074.32,361.3983 L269.32,361.3983 A2.5,2.5 0 0 1 266.82,358.8983 L266.82,233.4283 A2.5,2.5 0 0 1 269.32,230.9283" fill="none" style="stroke:#000000;stroke-width:1.5;"/><line style="stroke:#000000;stroke-width:1.5;" x1="266.82" x2="455.9616" y1="253.4166" y2="253.4166"/><text fill="#000000" font-family="sans-serif" font-size="14" font-weight="700" lengthAdjust="spacing" textLength="176.1416" x="270.82" y="246.4634">Internal Loyalty Services</text></g><!--cluster Integration Bridge (Inbound ACL)--><g class="cluster" data-qualified-name="Integration Bridge .Inbound ACL." data-source-line="20" id="ent0006"><path d="M221.32,43.4883 L461.0378,43.4883 A3.75,3.75 0 0 1 463.5378,45.9883 L470.5378,65.9766 L1148.32,65.9766 A2.5,2.5 0 0 1 1150.82,68.4766 L1150.82,204.4283 A2.5,2.5 0 0 1 1148.32,206.9283 L221.32,206.9283 A2.5,2.5 0 0 1 218.82,204.4283 L218.82,45.9883 A2.5,2.5 0 0 1 221.32,43.4883" fill="none" style="stroke:#000000;stroke-width:1.5;"/><line style="stroke:#000000;stroke-width:1.5;" x1="218.82" x2="470.5378" y1="65.9766" y2="65.9766"/><text fill="#000000" font-family="sans-serif" font-size="14" font-weight="700" lengthAdjust="spacing" textLength="238.7178" x="222.82" y="59.0234">Integration Bridge (Inbound ACL)</text></g><!--cluster Fulfillment Adapters (Outbound ACL)--><g class="cluster" data-qualified-name="Fulfillment Adapters .Outbound ACL." data-source-line="26" id="ent0010"><path d="M493.32,385.3983 L762.3845,385.3983 A3.75,3.75 0 0 1 764.8845,387.8983 L771.8845,407.8866 L1498.32,407.8866 A2.5,2.5 0 0 1 1500.82,410.3866 L1500.82,513.3583 A2.5,2.5 0 0 1 1498.32,515.8583 L493.32,515.8583 A2.5,2.5 0 0 1 490.82,513.3583 L490.82,387.8983 A2.5,2.5 0 0 1 493.32,385.3983" fill="none" style="stroke:#000000;stroke-width:1.5;"/><line style="stroke:#000000;stroke-width:1.5;" x1="490.82" x2="771.8845" y1="407.8866" y2="407.8866"/><text fill="#000000" font-family="sans-serif" font-size="14" font-weight="700" lengthAdjust="spacing" textLength="268.0645" x="494.82" y="400.9334">Fulfillment Adapters (Outbound ACL)</text></g><!--cluster Notification Adapter (Outbound)--><g class="cluster" data-qualified-name="Notification Adapter .Outbound." data-source-line="33" id="ent0015"><path d="M220.32,385.3983 L454.863,385.3983 A3.75,3.75 0 0 1 457.363,387.8983 L464.363,407.8866 L464.32,407.8866 A2.5,2.5 0 0 1 466.82,410.3866 L466.82,513.3583 A2.5,2.5 0 0 1 464.32,515.8583 L220.32,515.8583 A2.5,2.5 0 0 1 217.82,513.3583 L217.82,387.8983 A2.5,2.5 0 0 1 220.32,385.3983" fill="none" style="stroke:#000000;stroke-width:1.5;"/><line style="stroke:#000000;stroke-width:1.5;" x1="217.82" x2="464.363" y1="407.8866" y2="407.8866"/><text fill="#000000" font-family="sans-serif" font-size="14" font-weight="700" lengthAdjust="spacing" textLength="233.543" x="221.82" y="400.9334">Notification Adapter (Outbound)</text></g><!--cluster External Systems--><g class="cluster" data-qualified-name="External Systems" data-source-line="37" id="ent0017"><path d="M764.32,539.8583 L888.278,539.8583 A3.75,3.75 0 0 1 890.778,542.3583 L897.778,562.3466 L1797.32,562.3466 A2.5,2.5 0 0 1 1799.82,564.8466 L1799.82,651.3383 A2.5,2.5 0 0 1 1797.32,653.8383 L764.32,653.8383 A2.5,2.5 0 0 1 761.82,651.3383 L761.82,542.3583 A2.5,2.5 0 0 1 764.32,539.8583" fill="none" style="stroke:#000000;stroke-width:1.5;"/><line style="stroke:#000000;stroke-width:1.5;" x1="761.82" x2="897.778" y1="562.3466" y2="562.3466"/><text fill="#000000" font-family="sans-serif" font-size="14" font-weight="700" lengthAdjust="spacing" textLength="122.958" x="765.82" y="555.3934">External Systems</text></g><!--entity Earn--><g class="entity" data-qualified-name="Internal Loyalty Services.Earn" data-source-line="14" id="ent0002"><rect fill="#C8E6C9" height="62.9766" rx="2.5" ry="2.5" style="stroke:#424242;stroke-width:0.5;" width="143.8037" x="282.91" y="274.1783"/><rect fill="#C8E6C9" height="10" style="stroke:#424242;stroke-width:0.5;" width="15" x="406.7137" y="279.1783"/><rect fill="#C8E6C9" height="2" style="stroke:#424242;stroke-width:0.5;" width="4" x="404.7137" y="281.1783"/><rect fill="#C8E6C9" height="2" style="stroke:#424242;stroke-width:0.5;" width="4" x="404.7137" y="285.1783"/><text fill="#000000" font-family="sans-serif" font-size="14" font-style="italic" lengthAdjust="spacing" textLength="46.4844" x="326.5697" y="307.7134">&#171;Core&#187;</text><text fill="#000000" font-family="sans-serif" font-size="14" lengthAdjust="spacing" textLength="103.8037" x="297.91" y="324.2017">loyalty-earning</text></g><!--entity Core--><g class="entity" data-qualified-name="Internal Loyalty Services.Core" data-source-line="15" id="ent0003"><rect fill="#C8E6C9" height="79.4648" rx="2.5" ry="2.5" style="stroke:#424242;stroke-width:0.5;" width="199.3799" x="462.13" y="265.9283"/><rect fill="#C8E6C9" height="10" style="stroke:#424242;stroke-width:0.5;" width="15" x="641.5099" y="270.9283"/><rect fill="#C8E6C9" height="2" style="stroke:#424242;stroke-width:0.5;" width="4" x="639.5099" y="272.9283"/><rect fill="#C8E6C9" height="2" style="stroke:#424242;stroke-width:0.5;" width="4" x="639.5099" y="276.9283"/><text fill="#000000" font-family="sans-serif" font-size="14" font-style="italic" lengthAdjust="spacing" textLength="46.4844" x="533.5778" y="299.4634">&#171;Core&#187;</text><text fill="#000000" font-family="sans-serif" font-size="14" lengthAdjust="spacing" textLength="81.6895" x="477.13" y="315.9517">loyalty-core</text><text fill="#000000" font-family="sans-serif" font-size="14" lengthAdjust="spacing" textLength="159.3799" x="477.13" y="332.44">(Membership + Ledger)</text></g><!--entity Redm--><g class="entity" data-qualified-name="Internal Loyalty Services.Redm" data-source-line="16" id="ent0004"><rect fill="#C8E6C9" height="62.9766" rx="2.5" ry="2.5" style="stroke:#424242;stroke-width:0.5;" width="170.9834" x="890.32" y="274.1783"/><rect fill="#C8E6C9" height="10" style="stroke:#424242;stroke-width:0.5;" width="15" x="1041.3034" y="279.1783"/><rect fill="#C8E6C9" height="2" style="stroke:#424242;stroke-width:0.5;" width="4" x="1039.3034" y="281.1783"/><rect fill="#C8E6C9" height="2" style="stroke:#424242;stroke-width:0.5;" width="4" x="1039.3034" y="285.1783"/><text fill="#000000" font-family="sans-serif" font-size="14" font-style="italic" lengthAdjust="spacing" textLength="46.4844" x="947.5695" y="307.7134">&#171;Core&#187;</text><text fill="#000000" font-family="sans-serif" font-size="14" lengthAdjust="spacing" textLength="130.9834" x="905.32" y="324.2017">loyalty-redemption</text></g><!--entity Camp--><g class="entity" data-qualified-name="Internal Loyalty Services.Camp" data-source-line="17" id="ent0005"><rect fill="#C8E6C9" height="62.9766" rx="2.5" ry="2.5" style="stroke:#424242;stroke-width:0.5;" width="158.3711" x="696.63" y="274.1783"/><rect fill="#C8E6C9" height="10" style="stroke:#424242;stroke-width:0.5;" width="15" x="835.0011" y="279.1783"/><rect fill="#C8E6C9" height="2" style="stroke:#424242;stroke-width:0.5;" width="4" x="833.0011" y="281.1783"/><rect fill="#C8E6C9" height="2" style="stroke:#424242;stroke-width:0.5;" width="4" x="833.0011" y="285.1783"/><text fill="#000000" font-family="sans-serif" font-size="14" font-style="italic" lengthAdjust="spacing" textLength="46.4844" x="747.5734" y="307.7134">&#171;Core&#187;</text><text fill="#000000" font-family="sans-serif" font-size="14" lengthAdjust="spacing" textLength="118.3711" x="711.63" y="324.2017">loyalty-campaign</text></g><!--entity PHIn--><g class="entity" data-qualified-name="Integration Bridge .Inbound ACL..PHIn" data-source-line="21" id="ent0007"><rect fill="#B0BEC5" height="112.4414" rx="2.5" ry="2.5" style="stroke:#424242;stroke-width:0.5;" width="240.1836" x="234.72" y="78.4883"/><rect fill="#B0BEC5" height="10" style="stroke:#424242;stroke-width:0.5;" width="15" x="454.9036" y="83.4883"/><rect fill="#B0BEC5" height="2" style="stroke:#424242;stroke-width:0.5;" width="4" x="452.9036" y="85.4883"/><rect fill="#B0BEC5" height="2" style="stroke:#424242;stroke-width:0.5;" width="4" x="452.9036" y="89.4883"/><text fill="#000000" font-family="sans-serif" font-size="14" font-style="italic" lengthAdjust="spacing" textLength="70.0752" x="314.7742" y="112.0234">&#171;External&#187;</text><text fill="#000000" font-family="sans-serif" font-size="14" lengthAdjust="spacing" textLength="200.1836" x="249.72" y="128.5117">PaymentHub Event Consumer</text><text fill="#000000" font-family="sans-serif" font-size="14" lengthAdjust="spacing" textLength="171.541" x="249.72" y="145">ACL: PaymentCompleted,</text><text fill="#000000" font-family="sans-serif" font-size="14" lengthAdjust="spacing" textLength="123.3613" x="249.72" y="161.4883">CardSpendPosted,</text><text fill="#000000" font-family="sans-serif" font-size="14" lengthAdjust="spacing" textLength="118.7539" x="249.72" y="177.9766">PaymentReversed</text></g><!--entity T24In--><g class="entity" data-qualified-name="Integration Bridge .Inbound ACL..T24In" data-source-line="22" id="ent0008"><rect fill="#B0BEC5" height="95.9531" rx="2.5" ry="2.5" style="stroke:#424242;stroke-width:0.5;" width="303.3887" x="510.12" y="86.7383"/><rect fill="#B0BEC5" height="10" style="stroke:#424242;stroke-width:0.5;" width="15" x="793.5087" y="91.7383"/><rect fill="#B0BEC5" height="2" style="stroke:#424242;stroke-width:0.5;" width="4" x="791.5087" y="93.7383"/><rect fill="#B0BEC5" height="2" style="stroke:#424242;stroke-width:0.5;" width="4" x="791.5087" y="97.7383"/><text fill="#000000" font-family="sans-serif" font-size="14" font-style="italic" lengthAdjust="spacing" textLength="70.0752" x="621.7767" y="120.2734">&#171;External&#187;</text><text fill="#000000" font-family="sans-serif" font-size="14" lengthAdjust="spacing" textLength="263.3887" x="525.12" y="136.7617">Core Banking Adapter Event Consumer</text><text fill="#000000" font-family="sans-serif" font-size="14" lengthAdjust="spacing" textLength="208.9678" x="525.12" y="153.25">ACL: AccountBalanceSnapshot,</text><text fill="#000000" font-family="sans-serif" font-size="14" lengthAdjust="spacing" textLength="173.8516" x="525.12" y="169.7383">TermDepositOpened, etc.</text></g><!--entity RDBIn--><g class="entity" data-qualified-name="Integration Bridge .Inbound ACL..RDBIn" data-source-line="23" id="ent0009"><rect fill="#B0BEC5" height="79.4648" rx="2.5" ry="2.5" style="stroke:#424242;stroke-width:0.5;" width="286.8252" x="848.4" y="94.9783"/><rect fill="#B0BEC5" height="10" style="stroke:#424242;stroke-width:0.5;" width="15" x="1115.2252" y="99.9783"/><rect fill="#B0BEC5" height="2" style="stroke:#424242;stroke-width:0.5;" width="4" x="1113.2252" y="101.9783"/><rect fill="#B0BEC5" height="2" style="stroke:#424242;stroke-width:0.5;" width="4" x="1113.2252" y="105.9783"/><text fill="#000000" font-family="sans-serif" font-size="14" font-style="italic" lengthAdjust="spacing" textLength="70.0752" x="951.775" y="128.5134">&#171;External&#187;</text><text fill="#000000" font-family="sans-serif" font-size="14" lengthAdjust="spacing" textLength="246.8252" x="863.4" y="145.0017">Customer-Lifecycle Event Consumer</text><text fill="#000000" font-family="sans-serif" font-size="14" lengthAdjust="spacing" textLength="147.6973" x="863.4" y="161.49">ACL: CustomerClosed</text></g><!--entity CashAdp--><g class="entity" data-qualified-name="Fulfillment Adapters .Outbound ACL..CashAdp" data-source-line="27" id="ent0011"><rect fill="#B0BEC5" height="79.4648" rx="2.5" ry="2.5" style="stroke:#424242;stroke-width:0.5;" width="245.6113" x="1239.01" y="420.3983"/><rect fill="#B0BEC5" height="10" style="stroke:#424242;stroke-width:0.5;" width="15" x="1464.6213" y="425.3983"/><rect fill="#B0BEC5" height="2" style="stroke:#424242;stroke-width:0.5;" width="4" x="1462.6213" y="427.3983"/><rect fill="#B0BEC5" height="2" style="stroke:#424242;stroke-width:0.5;" width="4" x="1462.6213" y="431.3983"/><text fill="#000000" font-family="sans-serif" font-size="14" font-style="italic" lengthAdjust="spacing" textLength="70.0752" x="1321.7781" y="453.9334">&#171;External&#187;</text><text fill="#000000" font-family="sans-serif" font-size="14" lengthAdjust="spacing" textLength="118.918" x="1254.01" y="470.4217">CashbackAdapter</text><text fill="#000000" font-family="sans-serif" font-size="14" lengthAdjust="spacing" textLength="205.6113" x="1254.01" y="486.91">&#8594; Payment Hub disbursement</text></g><!--entity BillAdp--><g class="entity" data-qualified-name="Fulfillment Adapters .Outbound ACL..BillAdp" data-source-line="28" id="ent0012"><rect fill="#B0BEC5" height="79.4648" rx="2.5" ry="2.5" style="stroke:#424242;stroke-width:0.5;" width="227.3799" x="722.13" y="420.3983"/><rect fill="#B0BEC5" height="10" style="stroke:#424242;stroke-width:0.5;" width="15" x="929.5099" y="425.3983"/><rect fill="#B0BEC5" height="2" style="stroke:#424242;stroke-width:0.5;" width="4" x="927.5099" y="427.3983"/><rect fill="#B0BEC5" height="2" style="stroke:#424242;stroke-width:0.5;" width="4" x="927.5099" y="431.3983"/><text fill="#000000" font-family="sans-serif" font-size="14" font-style="italic" lengthAdjust="spacing" textLength="70.0752" x="795.7823" y="453.9334">&#171;External&#187;</text><text fill="#000000" font-family="sans-serif" font-size="14" lengthAdjust="spacing" textLength="187.3799" x="737.13" y="470.4217">BillPaymentVoucherAdapter</text><text fill="#000000" font-family="sans-serif" font-size="14" lengthAdjust="spacing" textLength="180.1064" x="737.13" y="486.91">&#8594; internal voucher service</text></g><!--entity TPAdp--><g class="entity" data-qualified-name="Fulfillment Adapters .Outbound ACL..TPAdp" data-source-line="29" id="ent0013"><rect fill="#B0BEC5" height="79.4648" rx="2.5" ry="2.5" style="stroke:#424242;stroke-width:0.5;" width="219.4844" x="984.07" y="420.3983"/><rect fill="#B0BEC5" height="10" style="stroke:#424242;stroke-width:0.5;" width="15" x="1183.5544" y="425.3983"/><rect fill="#B0BEC5" height="2" style="stroke:#424242;stroke-width:0.5;" width="4" x="1181.5544" y="427.3983"/><rect fill="#B0BEC5" height="2" style="stroke:#424242;stroke-width:0.5;" width="4" x="1181.5544" y="431.3983"/><text fill="#000000" font-family="sans-serif" font-size="14" font-style="italic" lengthAdjust="spacing" textLength="70.0752" x="1053.7746" y="453.9334">&#171;External&#187;</text><text fill="#000000" font-family="sans-serif" font-size="14" lengthAdjust="spacing" textLength="179.4844" x="999.07" y="470.4217">ThirdPartyVoucherAdapter</text><text fill="#000000" font-family="sans-serif" font-size="14" lengthAdjust="spacing" textLength="94.0146" x="999.07" y="486.91">&#8594; partner API</text></g><!--entity SwpAdp--><g class="entity" data-qualified-name="Fulfillment Adapters .Outbound ACL..SwpAdp" data-source-line="30" id="ent0014"><rect fill="#B0BEC5" height="79.4648" rx="2.5" ry="2.5" style="stroke:#424242;stroke-width:0.5;" width="179.7402" x="506.95" y="420.3983"/><rect fill="#B0BEC5" height="10" style="stroke:#424242;stroke-width:0.5;" width="15" x="666.6902" y="425.3983"/><rect fill="#B0BEC5" height="2" style="stroke:#424242;stroke-width:0.5;" width="4" x="664.6902" y="427.3983"/><rect fill="#B0BEC5" height="2" style="stroke:#424242;stroke-width:0.5;" width="4" x="664.6902" y="431.3983"/><text fill="#000000" font-family="sans-serif" font-size="14" font-style="italic" lengthAdjust="spacing" textLength="70.0752" x="556.7825" y="453.9334">&#171;External&#187;</text><text fill="#000000" font-family="sans-serif" font-size="14" lengthAdjust="spacing" textLength="139.7402" x="521.95" y="470.4217">SweepstakesAdapter</text><text fill="#000000" font-family="sans-serif" font-size="14" lengthAdjust="spacing" textLength="131.0244" x="521.95" y="486.91">&#8594; internal Drawing</text></g><!--entity NotifAdp--><g class="entity" data-qualified-name="Notification Adapter .Outbound..NotifAdp" data-source-line="34" id="ent0016"><rect fill="#B0BEC5" height="79.4648" rx="2.5" ry="2.5" style="stroke:#424242;stroke-width:0.5;" width="190.6982" x="260.47" y="420.3983"/><rect fill="#B0BEC5" height="10" style="stroke:#424242;stroke-width:0.5;" width="15" x="431.1682" y="425.3983"/><rect fill="#B0BEC5" height="2" style="stroke:#424242;stroke-width:0.5;" width="4" x="429.1682" y="427.3983"/><rect fill="#B0BEC5" height="2" style="stroke:#424242;stroke-width:0.5;" width="4" x="429.1682" y="431.3983"/><text fill="#000000" font-family="sans-serif" font-size="14" font-style="italic" lengthAdjust="spacing" textLength="70.0752" x="315.7815" y="453.9334">&#171;External&#187;</text><text fill="#000000" font-family="sans-serif" font-size="14" lengthAdjust="spacing" textLength="132.6719" x="275.47" y="470.4217">NotificationAdapter</text><text fill="#000000" font-family="sans-serif" font-size="14" lengthAdjust="spacing" textLength="150.6982" x="275.47" y="486.91">&#8594; notification-service</text></g><!--entity PH--><g class="entity" data-qualified-name="External Systems.PH" data-source-line="38" id="ent0018"><rect fill="#B0BEC5" height="62.9766" rx="2.5" ry="2.5" style="stroke:#424242;stroke-width:0.5;" width="129.7969" x="1237.92" y="574.8583"/><rect fill="#B0BEC5" height="10" style="stroke:#424242;stroke-width:0.5;" width="15" x="1347.7169" y="579.8583"/><rect fill="#B0BEC5" height="2" style="stroke:#424242;stroke-width:0.5;" width="4" x="1345.7169" y="581.8583"/><rect fill="#B0BEC5" height="2" style="stroke:#424242;stroke-width:0.5;" width="4" x="1345.7169" y="585.8583"/><text fill="#000000" font-family="sans-serif" font-size="14" font-style="italic" lengthAdjust="spacing" textLength="70.0752" x="1262.7808" y="608.3934">&#171;External&#187;</text><text fill="#000000" font-family="sans-serif" font-size="14" lengthAdjust="spacing" textLength="89.7969" x="1252.92" y="624.8817">Payment Hub</text></g><!--entity T24A--><g class="entity" data-qualified-name="External Systems.T24A" data-source-line="39" id="ent0019"><rect fill="#B0BEC5" height="62.9766" rx="2.5" ry="2.5" style="stroke:#424242;stroke-width:0.5;" width="188.5723" x="1402.53" y="574.8583"/><rect fill="#B0BEC5" height="10" style="stroke:#424242;stroke-width:0.5;" width="15" x="1571.1023" y="579.8583"/><rect fill="#B0BEC5" height="2" style="stroke:#424242;stroke-width:0.5;" width="4" x="1569.1023" y="581.8583"/><rect fill="#B0BEC5" height="2" style="stroke:#424242;stroke-width:0.5;" width="4" x="1569.1023" y="585.8583"/><text fill="#000000" font-family="sans-serif" font-size="14" font-style="italic" lengthAdjust="spacing" textLength="70.0752" x="1456.7785" y="608.3934">&#171;External&#187;</text><text fill="#000000" font-family="sans-serif" font-size="14" lengthAdjust="spacing" textLength="148.5723" x="1417.53" y="624.8817">Core Banking Adapter</text></g><!--entity RDBSvc--><g class="entity" data-qualified-name="External Systems.RDBSvc" data-source-line="40" id="ent0020"><rect fill="#B0BEC5" height="62.9766" rx="2.5" ry="2.5" style="stroke:#424242;stroke-width:0.5;" width="157.708" x="1625.96" y="574.8583"/><rect fill="#B0BEC5" height="10" style="stroke:#424242;stroke-width:0.5;" width="15" x="1763.668" y="579.8583"/><rect fill="#B0BEC5" height="2" style="stroke:#424242;stroke-width:0.5;" width="4" x="1761.668" y="581.8583"/><rect fill="#B0BEC5" height="2" style="stroke:#424242;stroke-width:0.5;" width="4" x="1761.668" y="585.8583"/><text fill="#000000" font-family="sans-serif" font-size="14" font-style="italic" lengthAdjust="spacing" textLength="70.0752" x="1664.7764" y="608.3934">&#171;External&#187;</text><text fill="#000000" font-family="sans-serif" font-size="14" lengthAdjust="spacing" textLength="117.708" x="1640.96" y="624.8817">Customer Service</text></g><!--entity VPartner--><g class="entity" data-qualified-name="External Systems.VPartner" data-source-line="41" id="ent0021"><rect fill="#B0BEC5" height="62.9766" rx="2.5" ry="2.5" style="stroke:#424242;stroke-width:0.5;" width="218.582" x="984.52" y="574.8583"/><rect fill="#B0BEC5" height="10" style="stroke:#424242;stroke-width:0.5;" width="15" x="1183.102" y="579.8583"/><rect fill="#B0BEC5" height="2" style="stroke:#424242;stroke-width:0.5;" width="4" x="1181.102" y="581.8583"/><rect fill="#B0BEC5" height="2" style="stroke:#424242;stroke-width:0.5;" width="4" x="1181.102" y="585.8583"/><text fill="#000000" font-family="sans-serif" font-size="14" font-style="italic" lengthAdjust="spacing" textLength="70.0752" x="1053.7734" y="608.3934">&#171;External&#187;</text><text fill="#000000" font-family="sans-serif" font-size="14" lengthAdjust="spacing" textLength="178.582" x="999.52" y="624.8817">3rd-Party Voucher Partner</text></g><!--entity NSvc--><g class="entity" data-qualified-name="External Systems.NSvc" data-source-line="42" id="ent0022"><rect fill="#B0BEC5" height="62.9766" rx="2.5" ry="2.5" style="stroke:#424242;stroke-width:0.5;" width="172.2686" x="777.68" y="574.8583"/><rect fill="#B0BEC5" height="10" style="stroke:#424242;stroke-width:0.5;" width="15" x="929.9486" y="579.8583"/><rect fill="#B0BEC5" height="2" style="stroke:#424242;stroke-width:0.5;" width="4" x="927.9486" y="581.8583"/><rect fill="#B0BEC5" height="2" style="stroke:#424242;stroke-width:0.5;" width="4" x="927.9486" y="585.8583"/><text fill="#000000" font-family="sans-serif" font-size="14" font-style="italic" lengthAdjust="spacing" textLength="70.0752" x="823.7767" y="608.3934">&#171;External&#187;</text><text fill="#000000" font-family="sans-serif" font-size="14" lengthAdjust="spacing" textLength="132.2686" x="792.68" y="624.8817">notification-service</text></g><g class="entity" data-qualified-name="GMN42" data-source-line="71" id="ent0043"><path d="M6,270.0483 L6,341.2905 A0,0 0 0 0 6,341.2905 L247.6318,341.2905 A0,0 0 0 0 247.6318,341.2905 L247.6318,280.0483 L237.6318,270.0483 L245.18,270.0483 L241.18,191.1583 L237.18,270.0483 L6,270.0483 A0,0 0 0 0 6,270.0483" fill="#FEFFDD" style="stroke:#181818;stroke-width:0.5;"/><path d="M237.6318,270.0483 L237.6318,280.0483 L247.6318,280.0483 L237.6318,270.0483" fill="#FEFFDD" style="stroke:#181818;stroke-width:0.5;"/><text fill="#000000" font-family="sans-serif" font-size="13" lengthAdjust="spacing" textLength="196.4663" x="12" y="287.6166">Producer commits to versioned</text><text fill="#000000" font-family="sans-serif" font-size="13" lengthAdjust="spacing" textLength="220.6318" x="12" y="302.9272">Domain Events with stable eventId.</text><text fill="#000000" font-family="sans-serif" font-size="13" lengthAdjust="spacing" textLength="133.5674" x="12" y="318.2377">The Bridge translates</text><text fill="#000000" font-family="sans-serif" font-size="13" lengthAdjust="spacing" textLength="193.0195" x="12" y="333.5483">to Loyalty's internal EarnEvent.</text></g><!--link PH to PHIn--><g class="link" data-entity-1="ent0018" data-entity-2="ent0007" data-link-type="dependency" data-source-line="46" id="lnk23"><path d="M1237.74,606.8383 C1227.78,606.8383 1220.74,606.8383 1220.74,606.8383 C1220.74,606.8383 1220.74,186.8383 1220.74,186.8383 C1220.74,186.8383 718.15,186.8383 480.22,186.8383" fill="none" id="PH-to-PHIn" style="stroke:#181818;stroke-width:1;stroke-dasharray:7,7;"/><polygon fill="#181818" points="475.22,186.8383,484.22,190.8383,480.22,186.8383,484.22,182.8383,475.22,186.8383" style="stroke:#181818;stroke-width:1;stroke-linejoin:miter;stroke-miterlimit:10;"/></g><!--link T24A to T24In--><g class="link" data-entity-1="ent0019" data-entity-2="ent0008" data-link-type="dependency" data-source-line="47" id="lnk24"><path d="M1537.86,574.5683 C1537.86,475.4883 1537.86,178.8383 1537.86,178.8383 C1537.86,178.8383 1069.78,178.8383 818.91,178.8383" fill="none" id="T24A-to-T24In" style="stroke:#181818;stroke-width:1;stroke-dasharray:7,7;"/><polygon fill="#181818" points="813.91,178.8383,822.91,182.8383,818.91,178.8383,822.91,174.8383,813.91,178.8383" style="stroke:#181818;stroke-width:1;stroke-linejoin:miter;stroke-miterlimit:10;"/></g><!--link RDBSvc to RDBIn--><g class="link" data-entity-1="ent0020" data-entity-2="ent0009" data-link-type="dependency" data-source-line="48" id="lnk25"><path d="M1704.82,574.6783 C1704.82,468.9583 1704.82,134.8383 1704.82,134.8383 C1704.82,134.8383 1348.95,134.8383 1140.67,134.8383" fill="none" id="RDBSvc-to-RDBIn" style="stroke:#181818;stroke-width:1;stroke-dasharray:7,7;"/><polygon fill="#181818" points="1135.67,134.8383,1144.67,138.8383,1140.67,134.8383,1144.67,130.8383,1135.67,134.8383" style="stroke:#181818;stroke-width:1;stroke-linejoin:miter;stroke-miterlimit:10;"/></g><!--link PHIn to Earn--><g class="link" data-entity-1="ent0007" data-entity-2="ent0002" data-link-type="dependency" data-source-line="49" id="lnk26"><path d="M330.85,191.1583 C330.85,218.5883 330.85,245.5383 330.85,268.7083" fill="none" id="PHIn-to-Earn" style="stroke:#181818;stroke-width:1;"/><polygon fill="#181818" points="330.85,273.7083,334.85,264.7083,330.85,268.7083,326.85,264.7083,330.85,273.7083" style="stroke:#181818;stroke-width:1;stroke-linejoin:miter;stroke-miterlimit:10;"/><text fill="#000000" font-family="sans-serif" font-size="13" lengthAdjust="spacing" textLength="61.5596" x="268.85" y="229.0066">EarnEvent</text></g><!--link T24In to Earn--><g class="link" data-entity-1="ent0008" data-entity-2="ent0002" data-link-type="dependency" data-source-line="50" id="lnk27"><path d="M585.81,183.1583 C585.81,206.2183 585.81,228.8383 585.81,228.8383 C585.81,228.8383 378.78,228.8383 378.78,228.8383 C378.78,228.8383 378.78,247.8083 378.78,268.9683" fill="none" id="T24In-to-Earn" style="stroke:#181818;stroke-width:1;"/><polygon fill="#181818" points="378.78,273.9683,382.78,264.9683,378.78,268.9683,374.78,264.9683,378.78,273.9683" style="stroke:#181818;stroke-width:1;stroke-linejoin:miter;stroke-miterlimit:10;"/><text fill="#000000" font-family="sans-serif" font-size="13" lengthAdjust="spacing" textLength="61.5596" x="420.57" y="225.4066">EarnEvent</text></g><!--link RDBIn to Core--><g class="link" data-entity-1="ent0009" data-entity-2="ent0003" data-link-type="dependency" data-source-line="51" id="lnk28"><path d="M872.66,174.8883 C872.66,214.7183 872.66,269.8383 872.66,269.8383 C872.66,269.8383 757.75,269.8383 666.88,269.8383" fill="none" id="RDBIn-to-Core" style="stroke:#181818;stroke-width:1;"/><polygon fill="#181818" points="661.88,269.8383,670.88,273.8383,666.88,269.8383,670.88,265.8383,661.88,269.8383" style="stroke:#181818;stroke-width:1;stroke-linejoin:miter;stroke-miterlimit:10;"/><text fill="#000000" font-family="sans-serif" font-size="13" lengthAdjust="spacing" textLength="105.1426" x="708.75" y="266.4066">MemberLifecycle</text></g><!--link Redm to CashAdp--><g class="link" data-entity-1="ent0004" data-entity-2="ent0011" data-link-type="dependency" data-source-line="54" id="lnk29"><path d="M1061.48,305.8383 C1175.2,305.8383 1361.82,305.8383 1361.82,305.8383 C1361.82,305.8383 1361.82,369.2783 1361.82,414.9983" fill="none" id="Redm-to-CashAdp" style="stroke:#181818;stroke-width:1;"/><polygon fill="#181818" points="1361.82,419.9983,1365.82,410.9983,1361.82,414.9983,1357.82,410.9983,1361.82,419.9983" style="stroke:#181818;stroke-width:1;stroke-linejoin:miter;stroke-miterlimit:10;"/></g><!--link Redm to BillAdp--><g class="link" data-entity-1="ent0004" data-entity-2="ent0012" data-link-type="dependency" data-source-line="55" id="lnk30"><path d="M934.71,337.2983 C934.71,361.2183 934.71,389.2283 934.71,414.9983" fill="none" id="Redm-to-BillAdp" style="stroke:#181818;stroke-width:1;"/><polygon fill="#181818" points="934.71,419.9983,938.71,410.9983,934.71,414.9983,930.71,410.9983,934.71,419.9983" style="stroke:#181818;stroke-width:1;stroke-linejoin:miter;stroke-miterlimit:10;"/></g><!--link Redm to TPAdp--><g class="link" data-entity-1="ent0004" data-entity-2="ent0013" data-link-type="dependency" data-source-line="56" id="lnk31"><path d="M1022.69,337.2983 C1022.69,361.2183 1022.69,389.2283 1022.69,414.9983" fill="none" id="Redm-to-TPAdp" style="stroke:#181818;stroke-width:1;"/><polygon fill="#181818" points="1022.69,419.9983,1026.69,410.9983,1022.69,414.9983,1018.69,410.9983,1022.69,419.9983" style="stroke:#181818;stroke-width:1;stroke-linejoin:miter;stroke-miterlimit:10;"/></g><!--link Redm to SwpAdp--><g class="link" data-entity-1="ent0004" data-entity-2="ent0014" data-link-type="dependency" data-source-line="57" id="lnk32"><path d="M905.12,337.5883 C905.12,339.5983 905.12,340.8383 905.12,340.8383 C905.12,340.8383 678.29,340.8383 678.29,340.8383 C678.29,340.8383 678.29,380.4183 678.29,415.0783" fill="none" id="Redm-to-SwpAdp" style="stroke:#181818;stroke-width:1;"/><polygon fill="#181818" points="678.29,420.0783,682.29,411.0783,678.29,415.0783,674.29,411.0783,678.29,420.0783" style="stroke:#181818;stroke-width:1;stroke-linejoin:miter;stroke-miterlimit:10;"/></g><!--link CashAdp to PH--><g class="link" data-entity-1="ent0011" data-entity-2="ent0018" data-link-type="dependency" data-source-line="58" id="lnk33"><path d="M1303.36,500.0883 C1303.36,523.5883 1303.36,547.8983 1303.36,569.7783" fill="none" id="CashAdp-to-PH" style="stroke:#181818;stroke-width:1;stroke-dasharray:7,7;"/><polygon fill="#181818" points="1303.36,574.7783,1307.36,565.7783,1303.36,569.7783,1299.36,565.7783,1303.36,574.7783" style="stroke:#181818;stroke-width:1;stroke-linejoin:miter;stroke-miterlimit:10;"/><text fill="#000000" font-family="sans-serif" font-size="13" lengthAdjust="spacing" textLength="86.3154" x="1216.36" y="533.9966">disbursement</text></g><!--link BillAdp to NSvc--><g class="link" data-entity-1="ent0012" data-entity-2="ent0022" data-link-type="dependency" data-source-line="59" id="lnk34"><path d="M863.59,500.0883 C863.59,523.5883 863.59,547.8983 863.59,569.7783" fill="none" id="BillAdp-to-NSvc" style="stroke:#181818;stroke-width:1;stroke-dasharray:7,7;"/><polygon fill="#181818" points="863.59,574.7783,867.59,565.7783,863.59,569.7783,859.59,565.7783,863.59,574.7783" style="stroke:#181818;stroke-width:1;stroke-linejoin:miter;stroke-miterlimit:10;"/><text fill="#000000" font-family="sans-serif" font-size="13" lengthAdjust="spacing" textLength="87.3628" x="775.59" y="533.9966">(internal flow)</text></g><!--link TPAdp to VPartner--><g class="link" data-entity-1="ent0013" data-entity-2="ent0021" data-link-type="dependency" data-source-line="60" id="lnk35"><path d="M1093.82,500.0883 C1093.82,523.5883 1093.82,547.8983 1093.82,569.7783" fill="none" id="TPAdp-to-VPartner" style="stroke:#181818;stroke-width:1;stroke-dasharray:7,7;"/><polygon fill="#181818" points="1093.82,574.7783,1097.82,565.7783,1093.82,569.7783,1089.82,565.7783,1093.82,574.7783" style="stroke:#181818;stroke-width:1;stroke-linejoin:miter;stroke-miterlimit:10;"/><text fill="#000000" font-family="sans-serif" font-size="13" lengthAdjust="spacing" textLength="112.5947" x="980.82" y="533.9966">voucher provision</text></g><!--link SwpAdp to Camp--><g class="link" data-entity-1="ent0014" data-entity-2="ent0005" data-link-type="dependency" data-source-line="61" id="lnk36"><path d="M669.9,419.9983 C669.9,374.2783 669.9,305.8383 669.9,305.8383 C669.9,305.8383 676.17,305.8383 691.35,305.8383" fill="none" id="SwpAdp-to-Camp" style="stroke:#181818;stroke-width:1;stroke-dasharray:7,7;"/><polygon fill="#181818" points="696.35,305.8383,687.35,301.8383,691.35,305.8383,687.35,309.8383,696.35,305.8383" style="stroke:#181818;stroke-width:1;stroke-linejoin:miter;stroke-miterlimit:10;"/><text fill="#000000" font-family="sans-serif" font-size="13" lengthAdjust="spacing" textLength="76.9082" x="592.9" y="363.2566">record Entry</text></g><!--link Core to NotifAdp--><g class="link" data-entity-1="ent0003" data-entity-2="ent0016" data-link-type="dependency" data-source-line="64" id="lnk37"><path d="M461.78,305.8383 C444.96,305.8383 432.83,305.8383 432.83,305.8383 C432.83,305.8383 432.83,369.2783 432.83,414.9983" fill="none" id="Core-to-NotifAdp" style="stroke:#181818;stroke-width:1;"/><polygon fill="#181818" points="432.83,419.9983,436.83,410.9983,432.83,414.9983,428.83,410.9983,432.83,419.9983" style="stroke:#181818;stroke-width:1;stroke-linejoin:miter;stroke-miterlimit:10;"/></g><!--link Earn to NotifAdp--><g class="link" data-entity-1="ent0002" data-entity-2="ent0016" data-link-type="dependency" data-source-line="65" id="lnk38"><path d="M354.82,337.2983 C354.82,361.2183 354.82,389.2283 354.82,414.9983" fill="none" id="Earn-to-NotifAdp" style="stroke:#181818;stroke-width:1;"/><polygon fill="#181818" points="354.82,419.9983,358.82,410.9983,354.82,414.9983,350.82,410.9983,354.82,419.9983" style="stroke:#181818;stroke-width:1;stroke-linejoin:miter;stroke-miterlimit:10;"/></g><!--link Redm to NotifAdp--><g class="link" data-entity-1="ent0004" data-entity-2="ent0016" data-link-type="dependency" data-source-line="66" id="lnk39"><path d="M919.92,337.4583 C919.92,363.4183 919.92,395.8383 919.92,395.8383 C919.92,395.8383 445.05,395.8383 445.05,395.8383 C445.05,395.8383 445.05,402.0683 445.05,415.1483" fill="none" id="Redm-to-NotifAdp" style="stroke:#181818;stroke-width:1;"/><polygon fill="#181818" points="445.05,420.1483,449.05,411.1483,445.05,415.1483,441.05,411.1483,445.05,420.1483" style="stroke:#181818;stroke-width:1;stroke-linejoin:miter;stroke-miterlimit:10;"/></g><!--link Camp to NotifAdp--><g class="link" data-entity-1="ent0005" data-entity-2="ent0016" data-link-type="dependency" data-source-line="67" id="lnk40"><path d="M709.38,337.4883 C709.38,354.0283 709.38,370.8383 709.38,370.8383 C709.38,370.8383 438.94,370.8383 438.94,370.8383 C438.94,370.8383 438.94,391.2283 438.94,414.9283" fill="none" id="Camp-to-NotifAdp" style="stroke:#181818;stroke-width:1;"/><polygon fill="#181818" points="438.94,419.9283,442.94,410.9283,438.94,414.9283,434.94,410.9283,438.94,419.9283" style="stroke:#181818;stroke-width:1;stroke-linejoin:miter;stroke-miterlimit:10;"/></g><!--link NotifAdp to NSvc--><g class="link" data-entity-1="ent0016" data-entity-2="ent0022" data-link-type="dependency" data-source-line="68" id="lnk41"><path d="M355.82,500.2183 C355.82,543.6583 355.82,606.8383 355.82,606.8383 C355.82,606.8383 627.34,606.8383 772.35,606.8383" fill="none" id="NotifAdp-to-NSvc" style="stroke:#181818;stroke-width:1;stroke-dasharray:7,7;"/><polygon fill="#181818" points="777.35,606.8383,768.35,602.8383,772.35,606.8383,768.35,610.8383,777.35,606.8383" style="stroke:#181818;stroke-width:1;stroke-linejoin:miter;stroke-miterlimit:10;"/></g><?plantuml-src ZLNDRjj64BxpAGO9qDXe9QIEqwP2O42a65Y0smYMaKlTmueSYGkJkyJkKgfGv9e7w2FsIJApND9Kn0253Y9dlldxveTEkXBXUderVGFpv0xckQWT6Wi_GFetFIXHmb8vt1dXf5OsYkoJLBKmee9IAdJ76a4RL-YX9jDLhHKg1_z40B78ddP6DofFTAdD-_U9DdXp0o-JT-aloMzZY7KX3EQCIN-Eq_JNCKoN7wFYrt6Ql1trX5bZf3iowiExE5wyPfGsEHgFW9VNL_oBFaTHJSPYX_22A_Qbt-cZADqHrcZsCaFxmXVqPzcA9oYCacht5_Gr2Gif2OUWZ3IFwk9th3P4R25h-17kCD-XkJmrvAUX8J60LSsqd-BkCQzE0eYg5dBt3IeXwLbHeOqG6qa9mCLIRPWhRlrbg6qbZXLrxhRPGBhd5YRKzgP2ywW8DOEWJwZ59JhCVtfKYJ3vkaQLhxHj9G5qZtig6NFERD0kocvrk_GaSRxKD4MZi-k6RppkFCieLHUBKgWCrqhKjj2EOZsWgHPOQolTHqg2uWEwR7eUy-7gEWHjhDFaUN8djvWTCzg0qP0TBYdrQ17tYvWS3Zd-q9HRMPPS-_CgNNnit1dDYR35Xim2wb7zz-NVZbjWydDfDmsHnuBpq6m-psls55F0OFX9Drc1viIdx6Pvtoh1jhDyxfCT1PyFXJJvIXXt77D9I-uKUPglbYCihuAFzG6njauyeHrFQ6748MpFgOlreMOVGsB_q4vkPTPERpSdFR4TgKFKIKmrK4o-Iu0t_pPoVmRNHnhkofwk2RTgRBg_DzkZKpaV3cLtQqR7RRtF6Fl6v1FV7GZjWLNRadEZJq73Pl-J1Gv23Bo2S1rcpvy2vZBS3dxixcIqkeNfzARTQYx8lxNxrcRj1Us-C0Wcanj_A67c__pwHTvWNELDlSgpEeFsdFOBpEbsqp3hy_99zdl8Brqb4H_Hrb_Of5xGhK4lQ2UwVmtJ6Un2tPJHS66ZuCHhcL3IN_I3lotruJBoRZsWwn61kYMjZTvBItsAsd0UnoUTC0Rfav93gfmvSjt3gOyyFPncFyoUonD9NqelyPvF9Dr3Nq4KqVWWRBIZCGMzxKxuokYyoIXb-kXNqbbm6lZgKpAOatwXAo5LUs0j7AGhW8x2XcukicYPJmdqK60tLyu8PKlXq9ASV8LFy2lxV3ZwiPX6zD7XvSReAm00?></g></svg>