<svg xmlns="http://www.w3.org/2000/svg" xmlns:xlink="http://www.w3.org/1999/xlink" contentStyleType="text/css" data-diagram-type="DESCRIPTION" height="809px" preserveAspectRatio="none" style="width:696px;height:809px;background:#FFFFFF;" version="1.1" viewBox="0 0 696 809" width="696px" zoomAndPan="magnify"><?plantuml 1.2026.4?><defs/><g><g class="title" data-source-line="120"><text fill="#000000" font-family="sans-serif" font-size="14" font-weight="700" lengthAdjust="spacing" textLength="313.0996" x="188.25" y="23.5352">Digital Loyalty &#8212; End-to-End Value Stream</text></g><!--entity VS1--><g class="entity" data-qualified-name="VS1" data-source-line="129" id="ent0001"><rect fill="#FFF3E0" height="48.2656" rx="2.5" ry="2.5" style="stroke:#2C5F7E;stroke-width:0.5;" width="71.375" x="408.13" y="44.4883"/><text fill="#000000" font-family="sans-serif" font-size="12" lengthAdjust="spacing" textLength="49.8984" x="418.13" y="66.0898">Discover</text><text fill="#000000" font-family="sans-serif" font-size="12" lengthAdjust="spacing" textLength="51.375" x="418.13" y="80.2227">&amp; Opt-In</text></g><!--entity VS2--><g class="entity" data-qualified-name="VS2" data-source-line="130" id="ent0002"><rect fill="#E8F5E9" height="48.2656" rx="2.5" ry="2.5" style="stroke:#2C5F7E;stroke-width:0.5;" width="55.5254" x="323.06" y="157.5783"/><text fill="#000000" font-family="sans-serif" font-size="12" lengthAdjust="spacing" textLength="25.4883" x="333.06" y="179.1798">Earn</text><text fill="#000000" font-family="sans-serif" font-size="12" lengthAdjust="spacing" textLength="35.5254" x="333.06" y="193.3127">Points</text></g><!--entity VS3--><g class="entity" data-qualified-name="VS3" data-source-line="131" id="ent0003"><rect fill="#E8F5E9" height="48.2656" rx="2.5" ry="2.5" style="stroke:#2C5F7E;stroke-width:0.5;" width="99.1602" x="74.24" y="282.1683"/><text fill="#000000" font-family="sans-serif" font-size="12" lengthAdjust="spacing" textLength="50.2266" x="84.24" y="303.7698">Progress</text><text fill="#000000" font-family="sans-serif" font-size="12" lengthAdjust="spacing" textLength="79.1602" x="84.24" y="317.9027">through Tiers</text></g><!--entity VS4--><g class="entity" data-qualified-name="VS4" data-source-line="132" id="ent0004"><rect fill="#E3F2FD" height="48.2656" rx="2.5" ry="2.5" style="stroke:#2C5F7E;stroke-width:0.5;" width="68.7266" x="279.46" y="406.7583"/><text fill="#000000" font-family="sans-serif" font-size="12" lengthAdjust="spacing" textLength="41.2324" x="289.46" y="428.3598">Browse</text><text fill="#000000" font-family="sans-serif" font-size="12" lengthAdjust="spacing" textLength="48.7266" x="289.46" y="442.4927">Rewards</text></g><!--entity VS5--><g class="entity" data-qualified-name="VS5" data-source-line="133" id="ent0005"><rect fill="#E3F2FD" height="48.2656" rx="2.5" ry="2.5" style="stroke:#2C5F7E;stroke-width:0.5;" width="78.5645" x="306.54" y="519.8583"/><text fill="#000000" font-family="sans-serif" font-size="12" lengthAdjust="spacing" textLength="58.5645" x="316.54" y="541.4598">Redeem &amp;</text><text fill="#000000" font-family="sans-serif" font-size="12" lengthAdjust="spacing" textLength="32.168" x="316.54" y="555.5927">Fulfill</text></g><!--entity VS6--><g class="entity" data-qualified-name="VS6" data-source-line="134" id="ent0006"><rect fill="#FCE4EC" height="48.2656" rx="2.5" ry="2.5" style="stroke:#2C5F7E;stroke-width:0.5;" width="74.3926" x="505.62" y="629.1183"/><text fill="#000000" font-family="sans-serif" font-size="12" lengthAdjust="spacing" textLength="36.3047" x="515.62" y="650.7198">Retain</text><text fill="#000000" font-family="sans-serif" font-size="12" lengthAdjust="spacing" textLength="54.3926" x="515.62" y="664.8527">&amp; Engage</text></g><g class="entity" data-qualified-name="GMN13" data-source-line="144" id="ent0014"><path d="M413.78,153.7483 L413.78,209.6799 A0,0 0 0 0 413.78,209.6799 L659.8679,209.6799 A0,0 0 0 0 659.8679,209.6799 L659.8679,163.7483 L649.8679,153.7483 L517.85,153.7483 L463.54,93.1783 L509.85,153.7483 L413.78,153.7483 A0,0 0 0 0 413.78,153.7483" fill="#FEFFDD" style="stroke:#181818;stroke-width:0.5;"/><path d="M649.8679,153.7483 L649.8679,163.7483 L659.8679,163.7483 L649.8679,153.7483" fill="#FEFFDD" style="stroke:#181818;stroke-width:0.5;"/><text fill="#000000" font-family="sans-serif" font-size="13" lengthAdjust="spacing" textLength="225.0879" x="419.78" y="171.3166">Stage: Awareness, T&amp;Cs acceptance</text><text fill="#000000" font-family="sans-serif" font-size="13" lengthAdjust="spacing" textLength="185.542" x="419.78" y="186.6272">Channel: Mobile Banking App</text><text fill="#000000" font-family="sans-serif" font-size="13" lengthAdjust="spacing" textLength="207.5874" x="419.78" y="201.9377">Capability: Member Management</text></g><g class="entity" data-qualified-name="GMN16" data-source-line="150" id="ent0017"><path d="M208.79,270.6783 L208.79,341.9205 A0,0 0 0 0 208.79,341.9205 L492.8432,341.9205 A0,0 0 0 0 492.8432,341.9205 L492.8432,280.6783 L482.8432,270.6783 L354.82,270.6783 L350.82,206.0583 L346.82,270.6783 L208.79,270.6783 A0,0 0 0 0 208.79,270.6783" fill="#FEFFDD" style="stroke:#181818;stroke-width:0.5;"/><path d="M482.8432,270.6783 L482.8432,280.6783 L492.8432,280.6783 L482.8432,270.6783" fill="#FEFFDD" style="stroke:#181818;stroke-width:0.5;"/><text fill="#000000" font-family="sans-serif" font-size="13" lengthAdjust="spacing" textLength="210.4692" x="214.79" y="288.2466">Stage: Card spend, opt-in bonus,</text><text fill="#000000" font-family="sans-serif" font-size="13" lengthAdjust="spacing" textLength="201.6079" x="214.79" y="303.5572">(future) transfers / balance held</text><text fill="#000000" font-family="sans-serif" font-size="13" lengthAdjust="spacing" textLength="263.0532" x="214.79" y="318.8677">Trigger: Domain Event from Payment Hub</text><text fill="#000000" font-family="sans-serif" font-size="13" lengthAdjust="spacing" textLength="253.8809" x="214.79" y="334.1783">Capability: Earning Framework + Ledger</text></g><g class="entity" data-qualified-name="GMN19" data-source-line="157" id="ent0020"><path d="M6,402.9283 L6,458.8599 A0,0 0 0 0 6,458.8599 L241.6396,458.8599 A0,0 0 0 0 241.6396,458.8599 L241.6396,412.9283 L231.6396,402.9283 L127.82,402.9283 L123.82,330.6483 L119.82,402.9283 L6,402.9283 A0,0 0 0 0 6,402.9283" fill="#FEFFDD" style="stroke:#181818;stroke-width:0.5;"/><path d="M231.6396,402.9283 L231.6396,412.9283 L241.6396,412.9283 L231.6396,402.9283" fill="#FEFFDD" style="stroke:#181818;stroke-width:0.5;"/><text fill="#000000" font-family="sans-serif" font-size="13" lengthAdjust="spacing" textLength="214.6396" x="12" y="420.4966">Stage: Qualifying Balance accrues,</text><text fill="#000000" font-family="sans-serif" font-size="13" lengthAdjust="spacing" textLength="148.6812" x="12" y="435.8072">Tier evaluation periodic</text><text fill="#000000" font-family="sans-serif" font-size="13" lengthAdjust="spacing" textLength="199.7163" x="12" y="451.1177">Capability: Member Mgmt (Tier)</text></g><g class="entity" data-qualified-name="GMN22" data-source-line="163" id="ent0023"><path d="M226.11,632.9483 L226.11,673.5694 A0,0 0 0 0 226.11,673.5694 L465.5265,673.5694 A0,0 0 0 0 465.5265,673.5694 L465.5265,642.9483 L455.5265,632.9483 L349.82,632.9483 L345.82,568.5283 L341.82,632.9483 L226.11,632.9483 A0,0 0 0 0 226.11,632.9483" fill="#FEFFDD" style="stroke:#181818;stroke-width:0.5;"/><path d="M455.5265,632.9483 L455.5265,642.9483 L465.5265,642.9483 L455.5265,632.9483" fill="#FEFFDD" style="stroke:#181818;stroke-width:0.5;"/><text fill="#000000" font-family="sans-serif" font-size="13" lengthAdjust="spacing" textLength="218.4165" x="232.11" y="650.5166">Stage: Reserve &#8594; Fulfill &#8594; Commit</text><text fill="#000000" font-family="sans-serif" font-size="13" lengthAdjust="spacing" textLength="216.8296" x="232.11" y="665.8272">Capability: Rewards &amp; Redemption</text></g><g class="entity" data-qualified-name="GMN25" data-source-line="168" id="ent0026"><path d="M404.04,738.3883 L404.04,794.3199 A0,0 0 0 0 404.04,794.3199 L681.5996,794.3199 A0,0 0 0 0 681.5996,794.3199 L681.5996,748.3883 L671.5996,738.3883 L546.82,738.3883 L542.82,677.8183 L538.82,738.3883 L404.04,738.3883 A0,0 0 0 0 404.04,738.3883" fill="#FEFFDD" style="stroke:#181818;stroke-width:0.5;"/><path d="M671.5996,738.3883 L671.5996,748.3883 L681.5996,748.3883 L671.5996,738.3883" fill="#FEFFDD" style="stroke:#181818;stroke-width:0.5;"/><text fill="#000000" font-family="sans-serif" font-size="13" lengthAdjust="spacing" textLength="256.5596" x="410.04" y="755.9566">Stage: Tier-upgrade celebration, points-</text><text fill="#000000" font-family="sans-serif" font-size="13" lengthAdjust="spacing" textLength="210.9897" x="410.04" y="771.2672">expiring notifications, campaigns</text><text fill="#000000" font-family="sans-serif" font-size="13" lengthAdjust="spacing" textLength="229.8232" x="410.04" y="786.5777">Capability: Campaign &amp; Engagement</text></g><!--link VS1 to VS2--><g class="link" data-entity-1="ent0001" data-entity-2="ent0002" data-link-type="dependency" data-source-line="136" id="lnk7"><path d="M424.1,93.1783 C408.31,112.0283 389.5005,134.5152 373.7205,153.3552" fill="none" id="VS1-to-VS2" style="stroke:#2C5F7E;stroke-width:1;"/><polygon fill="#2C5F7E" points="370.51,157.1883,379.3554,152.8571,373.7205,153.3552,373.2225,147.7203,370.51,157.1883" style="stroke:#2C5F7E;stroke-width:1;stroke-linejoin:miter;stroke-miterlimit:10;"/></g><!--link VS2 to VS3--><g class="link" data-entity-1="ent0002" data-entity-2="ent0003" data-link-type="dependency" data-source-line="137" id="lnk8"><path d="M322.99,197.7483 C284.15,218.7183 217.7396,254.5826 171.8496,279.3626" fill="none" id="VS2-to-VS3" style="stroke:#2C5F7E;stroke-width:1;"/><polygon fill="#2C5F7E" points="167.45,281.7383,177.2698,280.9817,171.8496,279.3626,173.4686,273.9424,167.45,281.7383" style="stroke:#2C5F7E;stroke-width:1;stroke-linejoin:miter;stroke-miterlimit:10;"/></g><!--link VS3 to VS4--><g class="link" data-entity-1="ent0003" data-entity-2="ent0004" data-link-type="dependency" data-source-line="138" id="lnk9"><path d="M160,330.6483 C194.24,352.7383 241.089,382.9568 274.849,404.7468" fill="none" id="VS3-to-VS4" style="stroke:#2C5F7E;stroke-width:1;"/><polygon fill="#2C5F7E" points="279.05,407.4583,273.6574,399.2169,274.849,404.7468,269.3191,405.9384,279.05,407.4583" style="stroke:#2C5F7E;stroke-width:1;stroke-linejoin:miter;stroke-miterlimit:10;"/></g><!--link VS4 to VS5--><g class="link" data-entity-1="ent0004" data-entity-2="ent0005" data-link-type="dependency" data-source-line="139" id="lnk10"><path d="M320.61,455.4483 C326.04,474.3083 332.2376,495.8132 337.6576,514.6532" fill="none" id="VS4-to-VS5" style="stroke:#2C5F7E;stroke-width:1;"/><polygon fill="#2C5F7E" points="339.04,519.4583,340.3958,509.7032,337.6576,514.6532,332.7077,511.915,339.04,519.4583" style="stroke:#2C5F7E;stroke-width:1;stroke-linejoin:miter;stroke-miterlimit:10;"/></g><!--link VS5 to VS6--><g class="link" data-entity-1="ent0005" data-entity-2="ent0006" data-link-type="dependency" data-source-line="140" id="lnk11"><path d="M385.21,566.4383 C420.13,585.4483 466.3885,610.6378 500.7785,629.3578" fill="none" id="VS5-to-VS6" style="stroke:#2C5F7E;stroke-width:1;"/><polygon fill="#2C5F7E" points="505.17,631.7483,499.1777,623.9322,500.7785,629.3578,495.3529,630.9586,505.17,631.7483" style="stroke:#2C5F7E;stroke-width:1;stroke-linejoin:miter;stroke-miterlimit:10;"/></g><!--link VS6 to VS2--><g class="link" data-entity-1="ent0006" data-entity-2="ent0002" data-link-type="dependency" data-source-line="141" id="lnk12"><path d="M543.85,628.8183 C544.72,607.0983 545.82,573.8683 545.82,544.9883 C545.82,305.2983 545.82,305.2983 545.82,305.2983 C545.82,226.2383 464.67,248.5383 395.82,209.6783 C390.27,206.5483 388.6916,205.6571 383.0716,202.3271" fill="none" id="VS6-to-VS2" style="stroke:#2C5F7E;stroke-width:1;"/><polygon fill="#2C5F7E" points="378.77,199.7783,384.4738,207.8074,383.0716,202.3271,388.5519,200.9249,378.77,199.7783" style="stroke:#2C5F7E;stroke-width:1;stroke-linejoin:miter;stroke-miterlimit:10;"/><text fill="#000000" font-family="sans-serif" font-size="13" lengthAdjust="spacing" textLength="113.9404" x="546.82" y="435.9566">Continued activity</text></g><?plantuml-src VLDDQzj04BtlhnWIC0crQEEFDFMX4CiIBIGqZKDElgobaRn4cXMZbLEt57hg3oZzXVabdRKLx0JN9msZD_FUcvbrnXK84vCRfmkuiYjTk1Ky_VeB4QM1iu5yu5uN3SBKCUfIgVh1KALPby2OE4svDFYX0COwUSZPDfI6jh0Cnz55F8Wl_1_BANARxON3-7qasTYIcvhl26SzzNEdwoMpVNm9Lbkceucf4xj4db47lbGk-4n7e6kudvx1SHp7_UZTBZhIJ3EwiOPStU9wQsN3wCCkxePjpbZNCt8ByP0luCuWFvVqzvMCHMQDCxh5HytfCtGWq7xSYoUxq5jC4Klep2XkYimKHGiUxWSxRSZRYoZNERROSx4NHeCeLCfx3OAFteloVZPnNtcXctYWl99DF5IUQ1EVAz-ehOKHXB83Gmsce1DdbiQjb2Bh4ERMELk2pVnWPLbJ9qf6S2bMaMHENRZhXBLK9LY9y0G54ouq4HOZkBPp8qx6ccIfELnMbV-hAorfeH00bdDakDOaNKiafr3Ep1FleUzjwKCPDDILWBjWPVU614bDtHN8ITQuXl4K76kgCraUl8MvBhmuM62H2kQEJPuZZs1YIvanH4lXXeo5waQll13urCnVYVKdv6t4SfpuQFa1ti0LfjBdaEh-LlNNHXScM_aUurQFp8qRNElsTmQub2UcdR445RAngKd-CxAyT73YQquFiG-txBTO8oyHddx_WVRwrd5eozAuLopjBKC7_CcMbLTqYETyo-Cr1KsLiquH4Ynmpcj3NQZMhoyGA7wh3FivI2EJcMGDa5jAT5bfarFzIaxOvk7vBRoybNy0?></g></svg>