<svg xmlns="http://www.w3.org/2000/svg" xmlns:xlink="http://www.w3.org/1999/xlink" contentStyleType="text/css" data-diagram-type="DESCRIPTION" height="1497px" preserveAspectRatio="none" style="width:1701px;height:1497px;background:#FFFFFF;" version="1.1" viewBox="0 0 1701 1497" width="1701px" zoomAndPan="magnify"><?plantuml 1.2026.4?><defs/><g><g class="title" data-source-line="1622"><text fill="#000000" font-family="sans-serif" font-size="14" font-weight="700" lengthAdjust="spacing" textLength="233.543" x="730.2285" y="23.5352">Deployment Topology &#8212; Logical</text></g><!--cluster DMZ--><g class="cluster" data-qualified-name="DMZ" data-source-line="1634" id="ent0002"><polygon fill="#FFE0B2" points="16,162.1127,26,152.1127,568,152.1127,568,545.3127,558,555.3127,16,555.3127,16,162.1127" style="stroke:#424242;stroke-width:1;stroke-linejoin:miter;stroke-miterlimit:10;"/><line style="stroke:#424242;stroke-width:1;" x1="558" x2="568" y1="162.1127" y2="152.1127"/><line style="stroke:#424242;stroke-width:1;" x1="16" x2="558" y1="162.1127" y2="162.1127"/><line style="stroke:#424242;stroke-width:1;" x1="558" x2="558" y1="162.1127" y2="555.3127"/><text fill="#000000" font-family="sans-serif" font-size="14" font-style="italic" lengthAdjust="spacing" textLength="47.5986" x="264.2007" y="178.6479">&#171;Edge&#187;</text><text fill="#000000" font-family="sans-serif" font-size="14" font-weight="700" lengthAdjust="spacing" textLength="168.3555" x="203.8223" y="195.1361">Edge (shared with HBP)</text></g><!--cluster K8s--><g class="cluster" data-qualified-name="K8s" data-source-line="1642" id="ent0008"><polygon fill="#C8E6C9" points="592,399.0927,602,389.0927,942,389.0927,942,879.9527,932,889.9527,592,889.9527,592,399.0927" style="stroke:#424242;stroke-width:1;stroke-linejoin:miter;stroke-miterlimit:10;"/><line style="stroke:#424242;stroke-width:1;" x1="932" x2="942" y1="399.0927" y2="389.0927"/><line style="stroke:#424242;stroke-width:1;" x1="592" x2="932" y1="399.0927" y2="399.0927"/><line style="stroke:#424242;stroke-width:1;" x1="932" x2="932" y1="399.0927" y2="889.9527"/><text fill="#000000" font-family="sans-serif" font-size="14" font-style="italic" lengthAdjust="spacing" textLength="39.7988" x="743.1006" y="415.6279">&#171;K8s&#187;</text><text fill="#000000" font-family="sans-serif" font-size="14" font-weight="700" lengthAdjust="spacing" textLength="215.9063" x="655.0469" y="432.1161">EKS Cluster: eks-loyalty-prod</text><text fill="#000000" font-family="sans-serif" font-size="14" font-weight="700" lengthAdjust="spacing" textLength="184.8301" x="670.585" y="448.6044">(sister to the HBP cluster)</text><text fill="#000000" font-family="sans-serif" font-size="14" font-weight="700" lengthAdjust="spacing" textLength="233.0986" x="646.4507" y="465.0927">Multi-AZ &#215; 3 in ap-southeast-1</text></g><!--cluster Data--><g class="cluster" data-qualified-name="Data" data-source-line="1653" id="ent0014"><polygon fill="#FFCDD2" points="107,940.9527,117,930.9527,558,930.9527,558,1462.3227,548,1472.3227,107,1472.3227,107,940.9527" style="stroke:#424242;stroke-width:1;stroke-linejoin:miter;stroke-miterlimit:10;"/><line style="stroke:#424242;stroke-width:1;" x1="548" x2="558" y1="940.9527" y2="930.9527"/><line style="stroke:#424242;stroke-width:1;" x1="107" x2="548" y1="940.9527" y2="940.9527"/><line style="stroke:#424242;stroke-width:1;" x1="548" x2="548" y1="940.9527" y2="1472.3227"/><text fill="#000000" font-family="sans-serif" font-size="14" font-style="italic" lengthAdjust="spacing" textLength="45.8555" x="305.5723" y="957.4879">&#171;Data&#187;</text><text fill="#000000" font-family="sans-serif" font-size="14" font-weight="700" lengthAdjust="spacing" textLength="248.7051" x="204.1475" y="973.9761">Data Tier (AWS RDS + ElastiCache)</text></g><!--cluster Shared--><g class="cluster" data-qualified-name="Shared" data-source-line="1664" id="ent0020"><polygon fill="#B0BEC5" points="1006,973.6827,1016,963.6827,1431,963.6827,1431,1338.3427,1421,1348.3427,1006,1348.3427,1006,973.6827" style="stroke:#424242;stroke-width:1;stroke-linejoin:miter;stroke-miterlimit:10;"/><line style="stroke:#424242;stroke-width:1;" x1="1421" x2="1431" y1="973.6827" y2="963.6827"/><line style="stroke:#424242;stroke-width:1;" x1="1006" x2="1421" y1="973.6827" y2="973.6827"/><line style="stroke:#424242;stroke-width:1;" x1="1421" x2="1421" y1="973.6827" y2="1348.3427"/><text fill="#000000" font-family="sans-serif" font-size="14" font-style="italic" lengthAdjust="spacing" textLength="70.0752" x="1179.4624" y="990.2179">&#171;External&#187;</text><text fill="#000000" font-family="sans-serif" font-size="14" font-weight="700" lengthAdjust="spacing" textLength="193.8672" x="1117.5664" y="1006.7061">Shared Bank Infrastructure</text></g><!--cluster DR--><g class="cluster" data-qualified-name="DR" data-source-line="1670" id="ent0024"><polygon fill="#B0BEC5" points="590,1200.3927,600,1190.3927,982,1190.3927,982,1321.8627,972,1331.8627,590,1331.8627,590,1200.3927" style="stroke:#424242;stroke-width:1;stroke-linejoin:miter;stroke-miterlimit:10;"/><line style="stroke:#424242;stroke-width:1;" x1="972" x2="982" y1="1200.3927" y2="1190.3927"/><line style="stroke:#424242;stroke-width:1;" x1="590" x2="972" y1="1200.3927" y2="1200.3927"/><line style="stroke:#424242;stroke-width:1;" x1="972" x2="972" y1="1200.3927" y2="1331.8627"/><text fill="#000000" font-family="sans-serif" font-size="14" font-style="italic" lengthAdjust="spacing" textLength="70.0752" x="746.9624" y="1216.9279">&#171;External&#187;</text><text fill="#000000" font-family="sans-serif" font-size="14" font-weight="700" lengthAdjust="spacing" textLength="316.3877" x="623.8062" y="1233.4161">DR Region: ap-southeast-2 (warm standby)</text></g><!--cluster Ext--><g class="cluster" data-qualified-name="Ext" data-source-line="1674" id="ent0026"><polygon fill="#B0BEC5" points="1463,965.6827,1473,955.6827,1676,955.6827,1676,1086.6627,1666,1096.6627,1463,1096.6627,1463,965.6827" style="stroke:#424242;stroke-width:1;stroke-linejoin:miter;stroke-miterlimit:10;"/><line style="stroke:#424242;stroke-width:1;" x1="1666" x2="1676" y1="965.6827" y2="955.6827"/><line style="stroke:#424242;stroke-width:1;" x1="1463" x2="1666" y1="965.6827" y2="965.6827"/><line style="stroke:#424242;stroke-width:1;" x1="1666" x2="1666" y1="965.6827" y2="1096.6627"/><text fill="#000000" font-family="sans-serif" font-size="14" font-style="italic" lengthAdjust="spacing" textLength="70.0752" x="1530.4624" y="982.2179">&#171;External&#187;</text><text fill="#000000" font-family="sans-serif" font-size="14" font-weight="700" lengthAdjust="spacing" textLength="124.0449" x="1503.4775" y="998.7061">External Partners</text></g><!--entity WAF--><g class="entity" data-qualified-name="DMZ.WAF" data-source-line="1635" id="ent0003"><rect fill="#F1F1F1" height="36.4883" rx="2.5" ry="2.5" style="stroke:#181818;stroke-width:0.5;" width="174.54" x="204.73" y="208.1127"/><text fill="#000000" font-family="sans-serif" font-size="14" lengthAdjust="spacing" textLength="154.54" x="214.73" y="231.6479">AWS WAF / CloudFront</text></g><!--entity APIGW--><g class="entity" data-qualified-name="DMZ.APIGW" data-source-line="1636" id="ent0004"><rect fill="#F1F1F1" height="36.4883" rx="2.5" ry="2.5" style="stroke:#181818;stroke-width:0.5;" width="136.1836" x="223.91" y="305.6027"/><text fill="#000000" font-family="sans-serif" font-size="14" lengthAdjust="spacing" textLength="116.1836" x="233.91" y="329.1379">AWS API Gateway</text></g><!--entity KC--><g class="entity" data-qualified-name="DMZ.KC" data-source-line="1637" id="ent0005"><rect fill="#F1F1F1" height="52.9766" rx="2.5" ry="2.5" style="stroke:#181818;stroke-width:0.5;" width="520.1104" x="31.94" y="486.3327"/><text fill="#000000" font-family="sans-serif" font-size="14" lengthAdjust="spacing" textLength="151.2793" x="41.94" y="509.8679">Authentication Service</text><text fill="#000000" font-family="sans-serif" font-size="14" lengthAdjust="spacing" textLength="500.1104" x="41.94" y="526.3561">(Customer + business-employee-portal realms; transaction-PIN step-up)</text></g><!--entity BFFs--><g class="entity" data-qualified-name="K8s.BFFs" data-source-line="1643" id="ent0009"><rect fill="#F1F1F1" height="69.4648" rx="2.5" ry="2.5" style="stroke:#181818;stroke-width:0.5;" width="158.25" x="626.87" y="478.0927"/><text fill="#000000" font-family="sans-serif" font-size="14" font-weight="700" lengthAdjust="spacing" textLength="32.8125" x="636.87" y="501.6279">BFFs</text><text fill="#000000" font-family="sans-serif" font-size="14" lengthAdjust="spacing" textLength="138.25" x="636.87" y="518.1161">&#8226; loyalty-mobile-bff</text><text fill="#000000" font-family="sans-serif" font-size="14" lengthAdjust="spacing" textLength="134.2236" x="636.87" y="534.6044">&#8226; loyalty-admin-bff</text></g><!--entity Core--><g class="entity" data-qualified-name="K8s.Core" data-source-line="1645" id="ent0010"><rect fill="#F1F1F1" height="102.4414" rx="2.5" ry="2.5" style="stroke:#181818;stroke-width:0.5;" width="318.8193" x="607.59" y="624.5527"/><text fill="#000000" font-family="sans-serif" font-size="14" font-weight="700" lengthAdjust="spacing" textLength="153.5693" x="617.59" y="648.0879">Core Loyalty Services</text><text fill="#000000" font-family="sans-serif" font-size="14" lengthAdjust="spacing" textLength="257.7764" x="617.59" y="664.5761">&#8226; loyalty-core (Membership + Ledger)</text><text fill="#000000" font-family="sans-serif" font-size="14" lengthAdjust="spacing" textLength="208.9746" x="617.59" y="681.0644">&#8226; loyalty-earning (Rule Engine)</text><text fill="#000000" font-family="sans-serif" font-size="14" lengthAdjust="spacing" textLength="298.8193" x="617.59" y="697.5527">&#8226; loyalty-redemption (Reward + Fulfillment)</text><text fill="#000000" font-family="sans-serif" font-size="14" lengthAdjust="spacing" textLength="288.8662" x="617.59" y="714.041">&#8226; loyalty-campaign (Campaign + Drawing)</text></g><!--entity Integ--><g class="entity" data-qualified-name="K8s.Integ" data-source-line="1647" id="ent0011"><rect fill="#F1F1F1" height="85.9531" rx="2.5" ry="2.5" style="stroke:#181818;stroke-width:0.5;" width="242.6875" x="645.66" y="788.0027"/><text fill="#000000" font-family="sans-serif" font-size="14" font-weight="700" lengthAdjust="spacing" textLength="79.9053" x="655.66" y="811.5379">Integration</text><text fill="#000000" font-family="sans-serif" font-size="14" lengthAdjust="spacing" textLength="191.2285" x="655.66" y="828.0261">&#8226; loyalty-integration-bridge</text><text fill="#000000" font-family="sans-serif" font-size="14" lengthAdjust="spacing" textLength="213.8281" x="664.5194" y="844.5144">(Kafka consumers + producers,</text><text fill="#000000" font-family="sans-serif" font-size="14" lengthAdjust="spacing" textLength="188.9385" x="668.9491" y="861.0027">velocity anomaly consumer)</text></g><!--entity RDS--><g class="entity" data-qualified-name="Data.RDS" data-source-line="1654" id="ent0015"><rect fill="#F1F1F1" height="102.4414" rx="2.5" ry="2.5" style="stroke:#181818;stroke-width:0.5;" width="383.8975" x="131.05" y="994.9527"/><text fill="#000000" font-family="sans-serif" font-size="14" font-weight="700" lengthAdjust="spacing" textLength="229.8447" x="141.05" y="1018.4879">RDS Postgres &#8212; one per service</text><text fill="#000000" font-family="sans-serif" font-size="14" lengthAdjust="spacing" textLength="363.8975" x="141.05" y="1034.9761">&#8226; loyalty-core RDS (Multi-AZ, primary + read-replica)</text><text fill="#000000" font-family="sans-serif" font-size="14" lengthAdjust="spacing" textLength="221.2246" x="141.05" y="1051.4644">&#8226; loyalty-earning RDS (Multi-AZ)</text><text fill="#000000" font-family="sans-serif" font-size="14" lengthAdjust="spacing" textLength="248.4043" x="141.05" y="1067.9527">&#8226; loyalty-redemption RDS (Multi-AZ)</text><text fill="#000000" font-family="sans-serif" font-size="14" lengthAdjust="spacing" textLength="235.792" x="141.05" y="1084.441">&#8226; loyalty-campaign RDS (Multi-AZ)</text></g><!--entity Redis--><g class="entity" data-qualified-name="Data.Redis" data-source-line="1656" id="ent0016"><rect fill="#F1F1F1" height="69.4648" rx="2.5" ry="2.5" style="stroke:#181818;stroke-width:0.5;" width="244.5195" x="144.74" y="1246.3927"/><text fill="#000000" font-family="sans-serif" font-size="14" font-weight="700" lengthAdjust="spacing" textLength="126.6084" x="154.74" y="1269.9279">ElastiCache Redis</text><text fill="#000000" font-family="sans-serif" font-size="14" lengthAdjust="spacing" textLength="224.5195" x="154.74" y="1286.4161">&#8226; shared, cluster-mode-disabled</text><text fill="#000000" font-family="sans-serif" font-size="14" lengthAdjust="spacing" textLength="206.3359" x="154.74" y="1302.9044">&#8226; read-through cache for BFFs</text></g><!--entity S3--><g class="entity" data-qualified-name="Data.S3" data-source-line="1658" id="ent0017"><rect fill="#F1F1F1" height="52.9766" rx="2.5" ry="2.5" style="stroke:#181818;stroke-width:0.5;" width="123.4961" x="205.25" y="1395.3427"/><text fill="#000000" font-family="sans-serif" font-size="14" font-weight="700" lengthAdjust="spacing" textLength="17.2334" x="215.25" y="1418.8779">S3</text><text fill="#000000" font-family="sans-serif" font-size="14" lengthAdjust="spacing" textLength="103.4961" x="215.25" y="1435.3661">&#8226; voucher PDFs</text></g><!--entity MSK--><g class="entity" data-qualified-name="Shared.MSK" data-source-line="1665" id="ent0021"><rect fill="#F1F1F1" height="52.9766" rx="2.5" ry="2.5" style="stroke:#181818;stroke-width:0.5;" width="233.8555" x="1022.07" y="1019.6827"/><text fill="#000000" font-family="sans-serif" font-size="14" lengthAdjust="spacing" textLength="121.8301" x="1032.07" y="1043.2179">Shared MSK Kafka</text><text fill="#000000" font-family="sans-serif" font-size="14" lengthAdjust="spacing" textLength="213.8555" x="1032.07" y="1059.7061">(loyalty.* + paymenthub.* + ...)</text></g><!--entity RDBStack--><g class="entity" data-qualified-name="Shared.RDBStack" data-source-line="1666" id="ent0022"><rect fill="#F1F1F1" height="102.4414" rx="2.5" ry="2.5" style="stroke:#181818;stroke-width:0.5;" width="217.8799" x="1022.06" y="1229.9027"/><text fill="#000000" font-family="sans-serif" font-size="14" lengthAdjust="spacing" textLength="197.8799" x="1032.06" y="1253.4379">Host Bank Platform (existing)</text><text fill="#000000" font-family="sans-serif" font-size="14" lengthAdjust="spacing" textLength="102.0742" x="1032.06" y="1269.9261">&#8226; Payment Hub</text><text fill="#000000" font-family="sans-serif" font-size="14" lengthAdjust="spacing" textLength="160.8496" x="1032.06" y="1286.4144">&#8226; Core Banking Adapter</text><text fill="#000000" font-family="sans-serif" font-size="14" lengthAdjust="spacing" textLength="144.5459" x="1032.06" y="1302.9027">&#8226; notification-service</text><text fill="#000000" font-family="sans-serif" font-size="14" lengthAdjust="spacing" textLength="128.3447" x="1032.06" y="1319.391">&#8226; Customer Master</text></g><!--entity DRTopology--><g class="entity" data-qualified-name="DR.DRTopology" data-source-line="1671" id="ent0025"><rect fill="#F1F1F1" height="69.4648" rx="2.5" ry="2.5" style="stroke:#181818;stroke-width:0.5;" width="264.7539" x="605.62" y="1246.3927"/><text fill="#000000" font-family="sans-serif" font-size="14" lengthAdjust="spacing" textLength="220.1582" x="615.62" y="1269.9279">Async-replicated RDS snapshots</text><text fill="#000000" font-family="sans-serif" font-size="14" lengthAdjust="spacing" textLength="244.7539" x="615.62" y="1286.4161">+ Terraform-deployable EKS cluster</text><text fill="#000000" font-family="sans-serif" font-size="14" lengthAdjust="spacing" textLength="186.0947" x="615.62" y="1302.9044">(RPO 15 min / RTO 60 min)</text></g><!--entity Voucher--><g class="entity" data-qualified-name="Ext.Voucher" data-source-line="1675" id="ent0027"><rect fill="#F1F1F1" height="52.9766" rx="2.5" ry="2.5" style="stroke:#181818;stroke-width:0.5;" width="145.501" x="1487.25" y="1019.6827"/><text fill="#000000" font-family="sans-serif" font-size="14" lengthAdjust="spacing" textLength="125.501" x="1497.25" y="1043.2179">3rd-Party Voucher</text><text fill="#000000" font-family="sans-serif" font-size="14" lengthAdjust="spacing" textLength="55.6992" x="1497.25" y="1059.7061">Provider</text></g><!--entity Internet--><g class="entity" data-qualified-name="Internet" data-source-line="1632" id="ent0001"><path d="M258.7078,51.8126 C261.2736,46.8418 265.5708,45.6732 269.598,50.1234 C273.2015,43.7692 278.7168,44.6117 282.5732,49.84 C285.2253,44.6422 290.8388,44.0125 294.1409,49.1096 C296.8062,44.9891 300.5906,44.5924 303.2757,49.0886 C307.8215,43.4883 313.4737,45.1618 315.9351,51.3307 C320.4893,45.5729 323.9279,45.8799 327.2421,52.4665 C334.69,55.3801 334.8253,61.7973 329.6468,66.8255 C335.2927,72.861 333.4984,77.7638 326.7512,81.3243 C326.1719,88.1927 320.4545,89.6124 315.7519,85.4274 C314.4585,91.524 309.2596,93.0221 304.7351,88.9165 C301.9349,95.0199 297.4407,96.1673 292.5167,91.2767 C287.6097,95.541 284.5963,94.738 282.6161,88.5139 C277.7797,92.8831 272.5712,91.9034 270.9985,85.1155 C266.7577,89.9729 262.3944,88.5391 260.2536,82.9546 C251.032,81.1014 249.2002,74.5533 254.2789,67.2573 C248.6292,61.0956 249.98,53.8515 258.7078,51.8126" fill="#F1F1F1" style="stroke:#181818;stroke-width:0.5;"/><text fill="#000000" font-family="sans-serif" font-size="14" lengthAdjust="spacing" textLength="53.2109" x="265.39" y="71.1579">Internet</text></g><!--link WAF to APIGW--><!--link WAF to APIGW--><g class="link" data-entity-1="ent0003" data-entity-2="ent0004" data-link-type="dependency" data-source-line="1680" id="lnk29"><path d="M302.43,244.8727 C306.01,261.9927 307.0312,283.036 303.4812,300.226" fill="none" id="WAF-to-APIGW" style="stroke:#181818;stroke-width:1;"/><polygon fill="#181818" points="302.47,305.1227,308.2076,297.1177,303.4812,300.226,300.3729,295.4997,302.47,305.1227" style="stroke:#181818;stroke-width:1;stroke-linejoin:miter;stroke-miterlimit:10;"/></g><!--link APIGW to KC--><!--link APIGW to KC--><g class="link" data-entity-1="ent0004" data-entity-2="ent0005" data-link-type="dependency" data-source-line="1681" id="lnk30"><path d="M300.06,342.4427 C306.33,375.5327 307.4667,442.2301 302.1067,480.8901" fill="none" id="APIGW-to-KC" style="stroke:#181818;stroke-width:1;"/><polygon fill="#181818" points="301.42,485.8427,306.6181,477.4773,302.1067,480.8901,298.6939,476.3787,301.42,485.8427" style="stroke:#181818;stroke-width:1;stroke-linejoin:miter;stroke-miterlimit:10;"/></g><!--link BFFs to Core--><!--link BFFs to Core--><g class="link" data-entity-1="ent0009" data-entity-2="ent0010" data-link-type="dependency" data-source-line="1685" id="lnk32"><path d="M718.94,547.9627 C727.33,570.1027 736.6497,594.6766 746.0497,619.5066" fill="none" id="BFFs-to-Core" style="stroke:#181818;stroke-width:1;"/><polygon fill="#181818" points="747.82,624.1827,748.3744,614.3495,746.0497,619.5066,740.8926,617.1819,747.82,624.1827" style="stroke:#181818;stroke-width:1;stroke-linejoin:miter;stroke-miterlimit:10;"/><text fill="#000000" font-family="sans-serif" font-size="13" lengthAdjust="spacing" textLength="78.0381" x="737.5" y="591.1211">gRPC / REST</text></g><!--link Core to Integ--><!--link RDS to Redis--><!--link Redis to S3--><!--link MSK to RDBStack--><!--link MSK to RDBStack--><g class="link" data-entity-1="ent0021" data-entity-2="ent0022" data-link-type="dependency" data-source-line="1693" id="lnk38"><path d="M1103.36,1073.1027 C1087.16,1087.1327 1069.7,1105.9727 1061,1127.3927 C1046.95,1161.9827 1061.5505,1196.0993 1082.5705,1225.6293" fill="none" id="MSK-to-RDBStack" style="stroke:#181818;stroke-width:1;"/><polygon fill="#181818" points="1085.47,1229.7027,1083.5096,1220.0509,1082.5705,1225.6293,1076.9921,1224.6902,1085.47,1229.7027" style="stroke:#181818;stroke-width:1;stroke-linejoin:miter;stroke-miterlimit:10;"/><text fill="#000000" font-family="sans-serif" font-size="13" lengthAdjust="spacing" textLength="122.8208" x="1077.3582" y="1148.4611">notification-service</text><text fill="#000000" font-family="sans-serif" font-size="13" lengthAdjust="spacing" textLength="153.5371" x="1062" y="1163.7716">consumes loyalty events</text></g><!--link RDBStack to MSK--><g class="link" data-entity-1="ent0022" data-entity-2="ent0021" data-link-type="dependency" data-source-line="1694" id="lnk39"><path d="M1185.86,1229.4527 C1199.69,1213.3427 1212.68,1194.4527 1220,1174.3927 C1227.16,1154.7727 1228.04,1146.6727 1220,1127.3927 C1210.93,1105.6527 1196.6365,1089.9871 1179.8265,1076.0271" fill="none" id="RDBStack-to-MSK" style="stroke:#181818;stroke-width:1;"/><polygon fill="#181818" points="1175.98,1072.8327,1180.3483,1081.6598,1179.8265,1076.0271,1185.4593,1075.5054,1175.98,1072.8327" style="stroke:#181818;stroke-width:1;stroke-linejoin:miter;stroke-miterlimit:10;"/><text fill="#000000" font-family="sans-serif" font-size="13" lengthAdjust="spacing" textLength="97.8301" x="1254.8772" y="1140.9611">Payment Hub +</text><text fill="#000000" font-family="sans-serif" font-size="13" lengthAdjust="spacing" textLength="152.4072" x="1227.5887" y="1156.2716">Core Banking Adapter +</text><text fill="#000000" font-family="sans-serif" font-size="13" lengthAdjust="spacing" textLength="154.1846" x="1226.7" y="1171.5822">Customer Service events</text></g><!--link Internet to WAF--><g class="link" data-entity-1="ent0001" data-entity-2="ent0003" data-link-type="dependency" data-source-line="1679" id="lnk28"><path d="M292,89.5827 C292,121.5927 292,174.2827 292,203.0627" fill="none" id="Internet-to-WAF" style="stroke:#181818;stroke-width:1;"/><polygon fill="#181818" points="292,208.0627,296,199.0627,292,203.0627,288,199.0627,292,208.0627" style="stroke:#181818;stroke-width:1;stroke-linejoin:miter;stroke-miterlimit:10;"/><text fill="#000000" font-family="sans-serif" font-size="13" lengthAdjust="spacing" textLength="40.1807" x="293" y="132.6811">HTTPS</text></g><!--link APIGW to BFFs--><g class="link" data-entity-1="ent0004" data-entity-2="ent0009" data-link-type="dependency" data-source-line="1682" id="lnk31"><path d="M360.43,328.3027 C418.52,333.6127 502.6,347.0727 568,381.0927 C613.38,404.7027 651.1904,443.8089 676.4904,474.0289" fill="none" id="APIGW-to-BFFs" style="stroke:#181818;stroke-width:1;"/><polygon fill="#181818" points="679.7,477.8627,676.9897,468.3941,676.4904,474.0289,670.8556,473.5296,679.7,477.8627" style="stroke:#181818;stroke-width:1;stroke-linejoin:miter;stroke-miterlimit:10;"/></g><!--link BFFs to Redis--><g class="link" data-entity-1="ent0009" data-entity-2="ent0016" data-link-type="dependency" data-source-line="1686" id="lnk33"><path d="M626.63,544.1327 C607.57,550.8927 587.18,557.7127 568,563.3127 C460.8,594.6027 78,563.1027 78,674.7827 C78,674.7827 78,674.7827 78,1047.1727 C78,1133.6227 153.4091,1202.9957 209.2891,1243.1357" fill="none" id="BFFs-to-Redis" style="stroke:#181818;stroke-width:1;"/><polygon fill="#181818" points="213.35,1246.0527,208.374,1237.5533,209.2891,1243.1357,203.7068,1244.0507,213.35,1246.0527" style="stroke:#181818;stroke-width:1;stroke-linejoin:miter;stroke-miterlimit:10;"/></g><!--link Core to RDS--><g class="link" data-entity-1="ent0010" data-entity-2="ent0015" data-link-type="dependency" data-source-line="1687" id="lnk34"><path d="M703.06,727.3727 C679.37,746.2627 652.36,767.9927 628,788.0027 C541.83,858.7827 447.2136,939.0074 386.0336,991.2074" fill="none" id="Core-to-RDS" style="stroke:#181818;stroke-width:1;"/><polygon fill="#181818" points="382.23,994.4527,391.6728,991.654,386.0336,991.2074,386.4803,985.5682,382.23,994.4527" style="stroke:#181818;stroke-width:1;stroke-linejoin:miter;stroke-miterlimit:10;"/></g><!--link Integ to RDS--><g class="link" data-entity-1="ent0011" data-entity-2="ent0015" data-link-type="dependency" data-source-line="1688" id="lnk35"><path d="M645.25,865.6527 C604.22,878.8427 558.77,895.5127 519,914.9527 C473.49,937.2027 430.147,965.5342 393.357,991.8442" fill="none" id="Integ-to-RDS" style="stroke:#181818;stroke-width:1;"/><polygon fill="#181818" points="389.29,994.7527,398.9374,992.771,393.357,991.8442,394.2838,986.2638,389.29,994.7527" style="stroke:#181818;stroke-width:1;stroke-linejoin:miter;stroke-miterlimit:10;"/></g><!--link Core to MSK--><g class="link" data-entity-1="ent0010" data-entity-2="ent0021" data-link-type="dependency" data-source-line="1691" id="lnk36"><path d="M834.57,727.3127 C857.87,745.6527 883.71,767.0327 906,788.0027 C990.04,867.0427 1075.5493,967.8748 1114.9093,1015.6148" fill="none" id="Core-to-MSK" style="stroke:#181818;stroke-width:1;"/><polygon fill="#181818" points="1118.09,1019.4727,1115.4511,1009.984,1114.9093,1015.6148,1109.2785,1015.0731,1118.09,1019.4727" style="stroke:#181818;stroke-width:1;stroke-linejoin:miter;stroke-miterlimit:10;"/></g><!--link Integ to MSK--><g class="link" data-entity-1="ent0011" data-entity-2="ent0021" data-link-type="dependency" data-source-line="1692" id="lnk37"><path d="M840.94,874.3527 C916.37,917.5827 1026.6719,980.7965 1089.5219,1016.8165" fill="none" id="Integ-to-MSK" style="stroke:#181818;stroke-width:1;"/><polygon fill="#181818" points="1093.86,1019.3027,1088.0404,1011.3571,1089.5219,1016.8165,1084.0625,1018.298,1093.86,1019.3027" style="stroke:#181818;stroke-width:1;stroke-linejoin:miter;stroke-miterlimit:10;"/></g><!--link Data to Ext--><!--link Core to Voucher--><g class="link" data-entity-1="ent0010" data-entity-2="ent0027" data-link-type="dependency" data-source-line="1698" id="lnk41"><path d="M926.57,712.6127 C1067,748.9627 1273.1,814.3527 1431,914.9527 C1475.82,943.5027 1513.9336,986.3207 1537.1936,1015.3507" fill="none" id="Core-to-Voucher" style="stroke:#181818;stroke-width:1;"/><polygon fill="#181818" points="1540.32,1019.2527,1537.814,1009.728,1537.1936,1015.3507,1531.5708,1014.7303,1540.32,1019.2527" style="stroke:#181818;stroke-width:1;stroke-linejoin:miter;stroke-miterlimit:10;"/><text fill="#000000" font-family="sans-serif" font-size="13" lengthAdjust="spacing" textLength="93.1646" x="1402.85" y="828.5411">(via Fulfillment</text><text fill="#000000" font-family="sans-serif" font-size="13" lengthAdjust="spacing" textLength="54.1646" x="1422.35" y="843.8516">Adapter)</text></g><!--link RDS to DRTopology--><g class="link" data-entity-1="ent0015" data-entity-2="ent0025" data-link-type="dependency" data-source-line="1701" id="lnk42"><path d="M413.3,1097.8627 C493.18,1142.7027 603.18,1204.4452 672.69,1243.4652" fill="none" id="RDS-to-DRTopology" style="stroke:#181818;stroke-width:1;stroke-dasharray:7,7;"/><polygon fill="#181818" points="677.05,1245.9127,671.16,1238.0192,672.69,1243.4652,667.244,1244.9952,677.05,1245.9127" style="stroke:#181818;stroke-width:1;stroke-linejoin:miter;stroke-miterlimit:10;"/><text fill="#000000" font-family="sans-serif" font-size="13" lengthAdjust="spacing" textLength="106.209" x="543.94" y="1155.9611">async replication</text></g><?plantuml-src VLRTRjis5BxNKnoa5vMJo6kJjSYo8a3yrmHfLiCs5g3pBcY9beb8f41IJesYG1zYmExtAdkJFidE8ILPiTt15pR9x_n_vnnROJCE0rvaQfDpQM6c2fMfT0FVl_q57rGgOfO5WNaKic2QvI1Lmk5B0D1ZyMEgLIcJFWheT--6ISglhk35Q3HyrJixXBYxC0JeNmpVzdyv11WmoxoA_c1mKCNmi-LQienGlLUzOVyDePHEk7O8UF7p6Ns2hq4GPwfCuEXMaWYtHy0Cr8SWS84SaTCGcXNJF84dOLTmqnjtZg091sK6zvzSn9h7biaKytLq_J25X-iH_0HzCZBIIdhzUBcFl1xVmdjc-HFRE12Utp_im4gxmlHZjgrG4gPShqNCvpBibyQgd6iuWKLfXEJ6H3odSd4U5KfRbg4UbkNcLx2QISDYqX2DRty3OtaHbKN76RtheqNoEVfZ9PA4op-ZnX7ttNv0yDScHNTJZ1BTuFeI-AE9q3RBx2Ogj4hGGoFe2Qm2387I1x57T-RolioiYAu_mRz_mpa82Qo8ZA9OcR7HQygp9mKvU65sqtnyt1kDpF7nN7x_zW_KTdEr41cF5ilbytkMv4BIjOkN98DTTNsbERBQuUiax-cF2HJUytp1jLc90bF_WICRAA0sZZCjXKmXd9IeVIXJhCuE15c5nN8b3ITOVvsWib6PBKMMKRljm6EM5qoa2ExNlqvWeDaJcl5Lf03seY9IfzenPpSMiNsA5bfW57C94DwnvIE3M4bJ8hSCMg5YbZ7-FYK0h7ccOe59ObBbBDiqs4xJHYdvGLbk4yVv1-whVUtn3QMeps4ca3KXzSTaC4KFXXboGlHPlEAk0QjXG0r8y3rgaDHO6PjgRjoqKf93WJgDh-l1if9GMBFo5ACMETCRj8uzb62vYWnRy0TrVYRxuqB_7wmfy7EGoobUxLMsbHEOy4GqNFKJwxHkDUo9X4VupXOPJpp4HMHNE3tJ5SHEnH8795NCsoDzUnQdvxM9jIfHHiDuK0bCpmbDdhSgwxM0_su_8BgfzzJFrnwJZqY5fSQWT1dRKdCtQRSpdQnux4wvgzlxwHquxkBSgNBQFIRsChUzLkN27RlThiyfuf_hkK72U3_66REOZnn2_Xad67MOZtliTS5DkV0NZimaGoIuJbY1xleNgQnOLZCxClNCTZBrsBvdL9-gmBsfnOM67b4SxIJMBziEcM16KrHx-Nnada68KoJ7qSvaijXqzlE7ahlBocnaN7FROXQfX4QomgoKDNDv0ZEkDQDaH8dx9q0i0fhx5RqmsvFnHtZz1d32ujARp3x2srTqy6aUJEg_3QsrKNc5-THMuc3PTnLFkxwUwoGYWGtyxkatbsEjrYAfSbZTafcNI2NgVHFKInsYwCgjk4kucSt6qy2jExppUwxQSdZ6zROz-4Nniba7K1hkLbb2OyVYb0hyb4Eiey8bf9Dndz8mdCwsRxuJ_EIZ8xQp6tlD2MsuKi1QCCVC1ak7BPPEZY1EpZC3ZHucMpMNJJrYWA-Hl2Pe12kDgA15R3YPoqEqTlSrTQk4r1hH_TRcedtFwn8NLOaXH1AX11NMiG11caii7WvdbrCjqfNj16wYDmtWBYEIgbBYBwxgQgFl8UMiPNukAuyxv1TolgOt9YSWVdUxLorQeWRcKj-6_GS0?></g></svg>