<svg xmlns="http://www.w3.org/2000/svg" xmlns:xlink="http://www.w3.org/1999/xlink" contentStyleType="text/css" data-diagram-type="STATE" height="704px" preserveAspectRatio="none" style="width:836px;height:704px;background:#FFFFFF;" version="1.1" viewBox="0 0 836 704" width="836px" zoomAndPan="magnify"><?plantuml 1.2026.4?><defs/><g><g class="title" data-source-line="261"><text fill="#000000" font-family="sans-serif" font-size="14" font-weight="700" lengthAdjust="spacing" textLength="248.623" x="290.3583" y="23.5352">Member &#8212; Lifecycle State Machine</text></g><g class="start_entity" data-qualified-name=".start." data-source-line="263" id="ent0001"><ellipse cx="612.42" cy="94.4283" fill="#222222" rx="10" ry="10" style="stroke:#222222;stroke-width:1;"/></g><g class="entity" data-qualified-name="ACTIVE" data-source-line="263" id="ent0002"><rect fill="#F1F1F1" height="50" rx="12.5" ry="12.5" style="stroke:#181818;stroke-width:0.5;" width="68.9727" x="398.94" y="252.3583"/><line style="stroke:#181818;stroke-width:0.5;" x1="398.94" x2="467.9127" y1="278.8466" y2="278.8466"/><text fill="#000000" font-family="sans-serif" font-size="14" lengthAdjust="spacing" textLength="48.9727" x="408.94" y="270.8934">ACTIVE</text></g><g class="entity" data-qualified-name="SUSPENDED_TCS" data-source-line="265" id="ent0004"><rect fill="#F1F1F1" height="50" rx="12.5" ry="12.5" style="stroke:#181818;stroke-width:0.5;" width="132.0889" x="70.38" y="69.4283"/><line style="stroke:#181818;stroke-width:0.5;" x1="70.38" x2="202.4689" y1="95.9166" y2="95.9166"/><text fill="#000000" font-family="sans-serif" font-size="14" lengthAdjust="spacing" textLength="112.0889" x="80.38" y="87.9634">SUSPENDED_TCS</text></g><g class="entity" data-qualified-name="OPTED_OUT" data-source-line="268" id="ent0007"><rect fill="#F1F1F1" height="50" rx="12.5" ry="12.5" style="stroke:#181818;stroke-width:0.5;" width="101.9697" x="688.44" y="419.9783"/><line style="stroke:#181818;stroke-width:0.5;" x1="688.44" x2="790.4097" y1="446.4666" y2="446.4666"/><text fill="#000000" font-family="sans-serif" font-size="14" lengthAdjust="spacing" textLength="81.9697" x="698.44" y="438.5134">OPTED_OUT</text></g><g class="entity" data-qualified-name="CLOSED" data-source-line="271" id="ent0010"><rect fill="#F1F1F1" height="50" rx="12.5" ry="12.5" style="stroke:#181818;stroke-width:0.5;" width="73.6416" x="350.6" y="557.5983"/><line style="stroke:#181818;stroke-width:0.5;" x1="350.6" x2="424.2416" y1="584.0866" y2="584.0866"/><text fill="#000000" font-family="sans-serif" font-size="14" lengthAdjust="spacing" textLength="53.6416" x="360.6" y="576.1334">CLOSED</text></g><g class="end_entity" data-qualified-name=".end." data-source-line="275" id="ent0014"><ellipse cx="387.42" cy="679.5983" fill="none" rx="11" ry="11" style="stroke:#222222;stroke-width:1;"/><ellipse cx="387.42" cy="679.5983" fill="#222222" rx="6" ry="6" style="stroke:#222222;stroke-width:1;"/></g><g class="entity" data-qualified-name="GMN16" data-source-line="278" id="ent0017"><path d="M237.9,43.4883 L237.9,90.4283 L202.96,94.4283 L237.9,98.4283 L237.9,145.3516 A0,0 0 0 0 237.9,145.3516 L442.9439,145.3516 A0,0 0 0 0 442.9439,145.3516 L442.9439,53.4883 L432.9439,43.4883 L237.9,43.4883 A0,0 0 0 0 237.9,43.4883" fill="#FEFFDD" style="stroke:#181818;stroke-width:0.5;"/><path d="M432.9439,43.4883 L432.9439,53.4883 L442.9439,53.4883 L432.9439,43.4883" fill="#FEFFDD" style="stroke:#181818;stroke-width:0.5;"/><text fill="#000000" font-family="sans-serif" font-size="13" lengthAdjust="spacing" textLength="184.0439" x="243.9" y="61.0566">During 30-day grace window</text><text fill="#000000" font-family="sans-serif" font-size="13" lengthAdjust="spacing" textLength="175.7095" x="243.9" y="76.3672">after T&amp;Cs version advance:</text><text fill="#000000" font-family="sans-serif" font-size="13" lengthAdjust="spacing" textLength="147.5386" x="243.9" y="91.6777">&#8226; Member can still earn</text><text fill="#000000" font-family="sans-serif" font-size="13" lengthAdjust="spacing" textLength="161.1353" x="243.9" y="106.9883">&#8226; Member cannot redeem</text><text fill="#000000" font-family="sans-serif" font-size="13" lengthAdjust="spacing" textLength="169.3618" x="243.9" y="122.2988">After grace: fully restricted</text><text fill="#000000" font-family="sans-serif" font-size="13" lengthAdjust="spacing" textLength="126.7563" x="243.9" y="137.6094">until re-acceptance.</text></g><g class="entity" data-qualified-name="GMN19" data-source-line="287" id="ent0020"><path d="M105.26,409.3583 L105.26,480.6005 L317.5847,480.6005 L317.5847,419.3583 L307.5847,409.3583 L105.26,409.3583" fill="#FEFFDD" style="stroke:#181818;stroke-width:0.5;"/><path d="M307.5847,409.3583 L307.5847,419.3583 L317.5847,419.3583 L307.5847,409.3583" fill="#FEFFDD" style="stroke:#181818;stroke-width:1;"/><text fill="#000000" font-family="sans-serif" font-size="13" lengthAdjust="spacing" textLength="191.147" x="111.26" y="426.9266">Member's redeemable balance</text><text fill="#000000" font-family="sans-serif" font-size="13" lengthAdjust="spacing" textLength="178.8008" x="111.26" y="442.2372">is preserved; existing points</text><text fill="#000000" font-family="sans-serif" font-size="13" lengthAdjust="spacing" textLength="191.3247" x="111.26" y="457.5477">are not forfeited automatically</text><text fill="#000000" font-family="sans-serif" font-size="13" lengthAdjust="spacing" textLength="136.3286" x="111.26" y="472.8583">(policy-configurable).</text></g><!--link *start* to ACTIVE--><g class="link" data-entity-1="ent0001" data-entity-2="ent0002" data-link-type="dependency" data-source-line="263" id="lnk3"><path d="M612.22,104.7483 C611.22,127.7783 605.49,187.9583 573.42,222.3583 C545.71,252.0783 504.6911,264.6895 473.0411,270.7395" fill="none" id="*start*-to-ACTIVE" style="stroke:#181818;stroke-width:1;"/><polygon fill="#181818" points="468.13,271.6783,477.721,273.9174,473.0411,270.7395,476.2189,266.0596,468.13,271.6783" style="stroke:#181818;stroke-width:1;stroke-linejoin:miter;stroke-miterlimit:10;"/><text fill="#000000" font-family="sans-serif" font-size="13" lengthAdjust="spacing" textLength="113.0581" x="600.59" y="196.4266">Customer opts in,</text><text fill="#000000" font-family="sans-serif" font-size="13" lengthAdjust="spacing" textLength="93.228" x="610.505" y="211.7372">T&amp;Cs accepted</text></g><!--link ACTIVE to SUSPENDED_TCS--><g class="link" data-entity-1="ent0002" data-entity-2="ent0004" data-link-type="dependency" data-source-line="265" id="lnk5"><path d="M398.56,275.4583 C326.89,272.7983 166.9,262.3983 133.42,222.3583 C109.53,193.7783 116.9865,152.3769 125.8365,124.3069" fill="none" id="ACTIVE-to-SUSPENDED_TCS" style="stroke:#181818;stroke-width:1;"/><polygon fill="#181818" points="127.34,119.5383,120.8189,126.919,125.8365,124.3069,128.4487,129.3245,127.34,119.5383" style="stroke:#181818;stroke-width:1;stroke-linejoin:miter;stroke-miterlimit:10;"/><text fill="#000000" font-family="sans-serif" font-size="13" lengthAdjust="spacing" textLength="150.395" x="151.0636" y="188.9266">T&amp;Cs version advanced,</text><text fill="#000000" font-family="sans-serif" font-size="13" lengthAdjust="spacing" textLength="183.6821" x="134.42" y="204.2372">member has not re-accepted</text><text fill="#000000" font-family="sans-serif" font-size="13" lengthAdjust="spacing" textLength="126.6865" x="162.9178" y="219.5477">(after 30-day grace)</text></g><!--link SUSPENDED_TCS to ACTIVE--><g class="link" data-entity-1="ent0004" data-entity-2="ent0002" data-link-type="dependency" data-source-line="266" id="lnk6"><path d="M172.99,119.8683 C187.35,128.7383 204.25,138.3083 220.42,145.3583 C263.74,164.2383 284.23,147.5383 322.42,175.3583 C342.85,190.2383 336.57,204.4683 354.42,222.3583 C367.45,235.4083 379.8094,244.6075 394.4194,253.8875" fill="none" id="SUSPENDED_TCS-to-ACTIVE" style="stroke:#181818;stroke-width:1;"/><polygon fill="#181818" points="398.64,256.5683,393.1876,248.3663,394.4194,253.8875,388.8983,255.1192,398.64,256.5683" style="stroke:#181818;stroke-width:1;stroke-linejoin:miter;stroke-miterlimit:10;"/><text fill="#000000" font-family="sans-serif" font-size="13" lengthAdjust="spacing" textLength="209.5996" x="355.42" y="203.9266">Member re-accepts current T&amp;Cs</text></g><!--link ACTIVE to OPTED_OUT--><g class="link" data-entity-1="ent0002" data-entity-2="ent0007" data-link-type="dependency" data-source-line="268" id="lnk8"><path d="M468.12,277.9483 C517.94,279.0583 610.55,287.6083 672.42,332.3583 C702.46,354.0783 719.7287,389.1063 729.5387,414.8363" fill="none" id="ACTIVE-to-OPTED_OUT" style="stroke:#181818;stroke-width:1;"/><polygon fill="#181818" points="731.32,419.5083,731.8513,409.6738,729.5387,414.8363,724.3762,412.5238,731.32,419.5083" style="stroke:#181818;stroke-width:1;stroke-linejoin:miter;stroke-miterlimit:10;"/><text fill="#000000" font-family="sans-serif" font-size="13" lengthAdjust="spacing" textLength="108.1196" x="712.22" y="360.9266">Member opts out</text></g><!--link OPTED_OUT to ACTIVE--><g class="link" data-entity-1="ent0007" data-entity-2="ent0002" data-link-type="dependency" data-source-line="269" id="lnk9"><path d="M689.36,419.5283 C680.22,415.7083 670.65,412.1183 661.42,409.3583 C582.88,385.8683 544.52,429.1883 479.42,379.3583 C455.1,360.7283 444.3807,331.1464 438.8907,307.7164" fill="none" id="OPTED_OUT-to-ACTIVE" style="stroke:#181818;stroke-width:1;"/><polygon fill="#181818" points="437.75,302.8483,435.9087,312.5235,438.8907,307.7164,443.6977,310.6984,437.75,302.8483" style="stroke:#181818;stroke-width:1;stroke-linejoin:miter;stroke-miterlimit:10;"/><text fill="#000000" font-family="sans-serif" font-size="13" lengthAdjust="spacing" textLength="137.4331" x="503.608" y="345.9266">Member opts in again</text><text fill="#000000" font-family="sans-serif" font-size="13" lengthAdjust="spacing" textLength="96.9604" x="523.8443" y="361.2372">(same Member,</text><text fill="#000000" font-family="sans-serif" font-size="13" lengthAdjust="spacing" textLength="183.8091" x="480.42" y="376.5477">lifecycle event = Reactivated)</text></g><!--link ACTIVE to CLOSED--><g class="link" data-entity-1="ent0002" data-entity-2="ent0010" data-link-type="dependency" data-source-line="271" id="lnk11"><path d="M427.37,302.8383 C421.09,329.0483 411.36,371.9183 405.42,409.3583 C397.11,461.7683 392.0798,518.7927 389.5298,552.2627" fill="none" id="ACTIVE-to-CLOSED" style="stroke:#181818;stroke-width:1;"/><polygon fill="#181818" points="389.15,557.2483,393.8221,548.5782,389.5298,552.2627,385.8453,547.9704,389.15,557.2483" style="stroke:#181818;stroke-width:1;stroke-linejoin:miter;stroke-miterlimit:10;"/><text fill="#000000" font-family="sans-serif" font-size="13" lengthAdjust="spacing" textLength="135.167" x="470.9122" y="442.5466">Customer offboarded</text><text fill="#000000" font-family="sans-serif" font-size="13" lengthAdjust="spacing" textLength="264.1514" x="406.42" y="457.8572">(Customer Service CustomerClosed event)</text></g><!--link SUSPENDED_TCS to CLOSED--><g class="link" data-entity-1="ent0004" data-entity-2="ent0010" data-link-type="dependency" data-source-line="272" id="lnk12"><path d="M122.78,119.8983 C88.29,185.3783 6,367.2783 87.42,480.5983 C148.43,565.5083 279.452,579.8586 345.292,581.6986" fill="none" id="SUSPENDED_TCS-to-CLOSED" style="stroke:#181818;stroke-width:1;"/><polygon fill="#181818" points="350.29,581.8383,341.4053,577.5884,345.292,581.6986,341.1818,585.5853,350.29,581.8383" style="stroke:#181818;stroke-width:1;stroke-linejoin:miter;stroke-miterlimit:10;"/><text fill="#000000" font-family="sans-serif" font-size="13" lengthAdjust="spacing" textLength="135.167" x="54.6" y="360.9266">Customer offboarded</text></g><!--link OPTED_OUT to CLOSED--><g class="link" data-entity-1="ent0007" data-entity-2="ent0010" data-link-type="dependency" data-source-line="273" id="lnk13"><path d="M688.02,469.3583 C679.19,473.2083 670.07,477.0883 661.42,480.5983 C577.57,514.6183 482.1604,548.6496 429.2204,567.1396" fill="none" id="OPTED_OUT-to-CLOSED" style="stroke:#181818;stroke-width:1;"/><polygon fill="#181818" points="424.5,568.7883,434.3156,569.597,429.2204,567.1396,431.6778,562.0444,424.5,568.7883" style="stroke:#181818;stroke-width:1;stroke-linejoin:miter;stroke-miterlimit:10;"/><text fill="#000000" font-family="sans-serif" font-size="13" lengthAdjust="spacing" textLength="135.167" x="580.18" y="524.1666">Customer offboarded</text></g><!--link CLOSED to *end*--><g class="link" data-entity-1="ent0010" data-entity-2="ent0014" data-link-type="dependency" data-source-line="275" id="lnk15"><path d="M387.42,608.0583 C387.42,627.6383 387.42,649.0883 387.42,663.3983" fill="none" id="CLOSED-to-*end*" style="stroke:#181818;stroke-width:1;"/><polygon fill="#181818" points="387.42,668.3983,391.42,659.3983,387.42,663.3983,383.42,659.3983,387.42,668.3983" style="stroke:#181818;stroke-width:1;stroke-linejoin:miter;stroke-miterlimit:10;"/></g><!--link GMN19 to OPTED_OUT--><g class="link" data-entity-1="ent0020" data-entity-2="ent0007" data-link-type="association" data-source-line="287" id="lnk21"><path d="M257.24,409.0383 C285.63,389.0983 323.85,366.2883 361.92,355.8583 C482.8,322.7483 527.32,309.8983 643.92,355.8583 C676.2,368.5783 704.01,397.9283 721.16,419.4883" fill="none" id="GMN19-OPTED_OUT" style="stroke:#181818;stroke-width:1;stroke-dasharray:7,7;"/></g><?plantuml-src VLBBZjD04BpFL_G9DWWZ96v18AsS790Mii9UBYn2dPcsqv8zOysClUIs7y4Ny6dx9RGVSMI8zjhLNLrLtP5ZHV2PwZrvU7hy3JTSa3vgAMOHeq2e3sn9gU-lVa2IV8JhDF_qRGjhIDiGNIrZhea1sBw-j_cBD01gJKqaezJKsazbTzdjzijck_cPfvaC3vqT-S3E0feEhIOZ3FMev801h8lWAJdHtTihBA9Wxzuc1ezGUjIqKalYXS39rSmHGBVUaut3zeMytMqk3Bkx_3msk79jL6Vi4lja7h14jg8nO7tAK-nKSvhKzOi_m5T27RcJQCrg8I6zsMNRpIBNejWxz6RmFbSpyXrhcjlIoWKo8_-bE9xZ_SVRiwrgGlj6-GMbv3u4dij3bBRbWHN0flLioyMnu86jSGy2ZeUyz0DhGPyU_vpIrMWXHAug8FJsFsny4KDK2tGza0wRrb2qLNKKB4JFkdz6WDOAqVaR-crl55dJFnfDTYeg1ZTpBZ8thdiPfasubslkiUhd1UK0ZQoHev1v3_IBHQxuRXpR67ghdePFBfmlY4K9O2lPOcID8b4whXfNiJucsjc2ozRt2rPdPNy1?></g></svg>