<svg xmlns="http://www.w3.org/2000/svg" xmlns:xlink="http://www.w3.org/1999/xlink" contentStyleType="text/css" data-diagram-type="STATE" height="818px" preserveAspectRatio="none" style="width:720px;height:818px;background:#FFFFFF;" version="1.1" viewBox="0 0 720 818" width="720px" zoomAndPan="magnify"><?plantuml 1.2026.4?><defs/><g><g class="title" data-source-line="303"><text fill="#000000" font-family="sans-serif" font-size="14" font-weight="700" lengthAdjust="spacing" textLength="276.8486" x="218.3825" y="23.5352">Redemption &#8212; Lifecycle State Machine</text></g><g class="start_entity" data-qualified-name=".start." data-source-line="305" id="ent0001"><ellipse cx="515.35" cy="53.4883" fill="#222222" rx="10" ry="10" style="stroke:#222222;stroke-width:1;"/></g><g class="entity" data-qualified-name="PENDING_RESERVATION" data-source-line="305" id="ent0002"><rect fill="#F1F1F1" height="50" rx="12.5" ry="12.5" style="stroke:#181818;stroke-width:0.5;" width="180.9863" x="424.86" y="155.4883"/><line style="stroke:#181818;stroke-width:0.5;" x1="424.86" x2="605.8463" y1="181.9766" y2="181.9766"/><text fill="#000000" font-family="sans-serif" font-size="14" lengthAdjust="spacing" textLength="160.9863" x="434.86" y="174.0234">PENDING_RESERVATION</text></g><g class="entity" data-qualified-name="RESERVED" data-source-line="307" id="ent0004"><rect fill="#F1F1F1" height="50" rx="12.5" ry="12.5" style="stroke:#181818;stroke-width:0.5;" width="87.6484" x="388.52" y="312.4883"/><line style="stroke:#181818;stroke-width:0.5;" x1="388.52" x2="476.1684" y1="338.9766" y2="338.9766"/><text fill="#000000" font-family="sans-serif" font-size="14" lengthAdjust="spacing" textLength="67.6484" x="398.52" y="331.0234">RESERVED</text></g><g class="entity" data-qualified-name="REJECTED" data-source-line="308" id="ent0006"><rect fill="#F1F1F1" height="50" rx="12.5" ry="12.5" style="stroke:#181818;stroke-width:0.5;" width="84.9961" x="606.85" y="392.4883"/><line style="stroke:#181818;stroke-width:0.5;" x1="606.85" x2="691.8461" y1="418.9766" y2="418.9766"/><text fill="#000000" font-family="sans-serif" font-size="14" lengthAdjust="spacing" textLength="64.9961" x="616.85" y="411.0234">REJECTED</text></g><g class="entity" data-qualified-name="FULFILLING" data-source-line="310" id="ent0008"><rect fill="#F1F1F1" height="50" rx="12.5" ry="12.5" style="stroke:#181818;stroke-width:0.5;" width="95.6328" x="281.53" y="490.7583"/><line style="stroke:#181818;stroke-width:0.5;" x1="281.53" x2="377.1628" y1="517.2466" y2="517.2466"/><text fill="#000000" font-family="sans-serif" font-size="14" lengthAdjust="spacing" textLength="75.6328" x="291.53" y="509.2934">FULFILLING</text></g><g class="entity" data-qualified-name="COMMITTED" data-source-line="312" id="ent0010"><rect fill="#F1F1F1" height="50" rx="12.5" ry="12.5" style="stroke:#181818;stroke-width:0.5;" width="104.4922" x="464.1" y="668.9983"/><line style="stroke:#181818;stroke-width:0.5;" x1="464.1" x2="568.5922" y1="695.4866" y2="695.4866"/><text fill="#000000" font-family="sans-serif" font-size="14" lengthAdjust="spacing" textLength="84.4922" x="474.1" y="687.5334">COMMITTED</text></g><g class="entity" data-qualified-name="RELEASED" data-source-line="313" id="ent0012"><rect fill="#F1F1F1" height="50" rx="12.5" ry="12.5" style="stroke:#181818;stroke-width:0.5;" width="86.7666" x="287.97" y="668.9983"/><line style="stroke:#181818;stroke-width:0.5;" x1="287.97" x2="374.7366" y1="695.4866" y2="695.4866"/><text fill="#000000" font-family="sans-serif" font-size="14" lengthAdjust="spacing" textLength="66.7666" x="297.97" y="687.5334">RELEASED</text></g><g class="end_entity" data-qualified-name=".end." data-source-line="316" id="ent0015"><ellipse cx="516.35" cy="793.9683" fill="none" rx="11" ry="11" style="stroke:#222222;stroke-width:1;"/><ellipse cx="516.35" cy="793.9683" fill="#222222" rx="6" ry="6" style="stroke:#222222;stroke-width:1;"/></g><g class="entity" data-qualified-name="GMN19" data-source-line="321" id="ent0020"><path d="M412.47,472.4883 L412.47,511.7583 L377.4,515.7583 L412.47,519.7583 L412.47,559.041 A0,0 0 0 0 412.47,559.041 L646.218,559.041 A0,0 0 0 0 646.218,559.041 L646.218,482.4883 L636.218,472.4883 L412.47,472.4883 A0,0 0 0 0 412.47,472.4883" fill="#FEFFDD" style="stroke:#181818;stroke-width:0.5;"/><path d="M636.218,472.4883 L636.218,482.4883 L646.218,482.4883 L636.218,472.4883" fill="#FEFFDD" style="stroke:#181818;stroke-width:0.5;"/><text fill="#000000" font-family="sans-serif" font-size="13" lengthAdjust="spacing" textLength="188.8809" x="418.47" y="490.0566">Sub-second for sync adapters</text><text fill="#000000" font-family="sans-serif" font-size="13" lengthAdjust="spacing" textLength="212.748" x="418.47" y="505.3672">(Cashback, Bill-Payment Voucher,</text><text fill="#000000" font-family="sans-serif" font-size="13" lengthAdjust="spacing" textLength="124.3633" x="418.47" y="520.6777">Sweepstakes Entry).</text><text fill="#000000" font-family="sans-serif" font-size="13" lengthAdjust="spacing" textLength="177.9629" x="418.47" y="535.9883">Multi-second to minutes for</text><text fill="#000000" font-family="sans-serif" font-size="13" lengthAdjust="spacing" textLength="194.9492" x="418.47" y="551.2988">3rd-Party Voucher partner API.</text></g><g class="entity" data-qualified-name="GMN22" data-source-line="329" id="ent0023"><path d="M6,666.0383 L6,721.9699 A0,0 0 0 0 6,721.9699 L252.6973,721.9699 A0,0 0 0 0 252.6973,721.9699 L252.6973,697.9983 L287.49,693.9983 L252.6973,689.9983 L252.6973,676.0383 L242.6973,666.0383 L6,666.0383 A0,0 0 0 0 6,666.0383" fill="#FEFFDD" style="stroke:#181818;stroke-width:0.5;"/><path d="M242.6973,666.0383 L242.6973,676.0383 L252.6973,676.0383 L242.6973,666.0383" fill="#FEFFDD" style="stroke:#181818;stroke-width:0.5;"/><text fill="#000000" font-family="sans-serif" font-size="13" lengthAdjust="spacing" textLength="183.4536" x="12" y="683.6066">Compensating action returns</text><text fill="#000000" font-family="sans-serif" font-size="13" lengthAdjust="spacing" textLength="178.9976" x="12" y="698.9172">reserved points + inventory.</text><text fill="#000000" font-family="sans-serif" font-size="13" lengthAdjust="spacing" textLength="225.6973" x="12" y="714.2277">No permanent Ledger Entry written.</text></g><!--link *start* to PENDING_RESERVATION--><g class="link" data-entity-1="ent0001" data-entity-2="ent0002" data-link-type="dependency" data-source-line="305" id="lnk3"><path d="M515.35,63.8783 C515.35,83.0683 515.35,122.3083 515.35,150.1583" fill="none" id="*start*-to-PENDING_RESERVATION" style="stroke:#181818;stroke-width:1;"/><polygon fill="#181818" points="515.35,155.1583,519.35,146.1583,515.35,150.1583,511.35,146.1583,515.35,155.1583" style="stroke:#181818;stroke-width:1;stroke-linejoin:miter;stroke-miterlimit:10;"/><text fill="#000000" font-family="sans-serif" font-size="13" lengthAdjust="spacing" textLength="136.665" x="539.6903" y="107.0566">Member taps Redeem</text><text fill="#000000" font-family="sans-serif" font-size="13" lengthAdjust="spacing" textLength="183.3457" x="516.35" y="122.3672">(idempotency key submitted)</text></g><!--link PENDING_RESERVATION to RESERVED--><g class="link" data-entity-1="ent0002" data-entity-2="ent0004" data-link-type="dependency" data-source-line="307" id="lnk5"><path d="M460.25,205.6983 C448.69,213.4683 437.99,223.3083 431.35,235.4883 C418.49,259.0283 420.3606,285.6092 424.7506,307.1292" fill="none" id="PENDING_RESERVATION-to-RESERVED" style="stroke:#181818;stroke-width:1;"/><polygon fill="#181818" points="425.75,312.0283,427.8704,302.4104,424.7506,307.1292,420.0318,304.0094,425.75,312.0283" style="stroke:#181818;stroke-width:1;stroke-linejoin:miter;stroke-miterlimit:10;"/><text fill="#000000" font-family="sans-serif" font-size="13" lengthAdjust="spacing" textLength="115.8701" x="435.4572" y="256.5566">Points + inventory</text><text fill="#000000" font-family="sans-serif" font-size="13" lengthAdjust="spacing" textLength="122.0845" x="432.35" y="271.8672">reserved atomically</text></g><!--link PENDING_RESERVATION to REJECTED--><g class="link" data-entity-1="ent0002" data-entity-2="ent0006" data-link-type="dependency" data-source-line="308" id="lnk7"><path d="M537.15,205.8783 C544.65,214.8583 552.8,225.3183 559.35,235.4883 C593.57,288.5783 622.2044,351.8866 637.3544,387.5366" fill="none" id="PENDING_RESERVATION-to-REJECTED" style="stroke:#181818;stroke-width:1;"/><polygon fill="#181818" points="639.31,392.1383,639.4714,382.2907,637.3544,387.5366,632.1086,385.4197,639.31,392.1383" style="stroke:#181818;stroke-width:1;stroke-linejoin:miter;stroke-miterlimit:10;"/><text fill="#000000" font-family="sans-serif" font-size="13" lengthAdjust="spacing" textLength="118.1235" x="586.49" y="249.0566">Insufficient points,</text><text fill="#000000" font-family="sans-serif" font-size="13" lengthAdjust="spacing" textLength="87.9658" x="601.5689" y="264.3672">inventory out,</text><text fill="#000000" font-family="sans-serif" font-size="13" lengthAdjust="spacing" textLength="88.2515" x="601.426" y="279.6777">or not eligible</text></g><!--link RESERVED to FULFILLING--><g class="link" data-entity-1="ent0004" data-entity-2="ent0008" data-link-type="dependency" data-source-line="310" id="lnk9"><path d="M418.24,362.6283 C398.63,396.1883 365.8322,452.3111 346.1322,486.0311" fill="none" id="RESERVED-to-FULFILLING" style="stroke:#181818;stroke-width:1;"/><polygon fill="#181818" points="343.61,490.3483,351.6038,484.5951,346.1322,486.0311,344.6962,480.5595,343.61,490.3483" style="stroke:#181818;stroke-width:1;stroke-linejoin:miter;stroke-miterlimit:10;"/><text fill="#000000" font-family="sans-serif" font-size="13" lengthAdjust="spacing" textLength="121.2085" x="400.03" y="415.0566">Fulfillment Adapter</text><text fill="#000000" font-family="sans-serif" font-size="13" lengthAdjust="spacing" textLength="49.5625" x="435.853" y="430.3672">invoked</text></g><!--link FULFILLING to COMMITTED--><g class="link" data-entity-1="ent0008" data-entity-2="ent0010" data-link-type="dependency" data-source-line="312" id="lnk11"><path d="M364.14,541.0483 C373.98,547.3583 384.86,553.8383 395.35,559.0383 C430.12,576.2683 449.8,561.7083 477.35,589.0383 C499.11,610.6183 507.9757,640.5807 512.2657,663.9107" fill="none" id="FULFILLING-to-COMMITTED" style="stroke:#181818;stroke-width:1;"/><polygon fill="#181818" points="513.17,668.8283,515.4764,659.2533,512.2657,663.9107,507.6083,660.7001,513.17,668.8283" style="stroke:#181818;stroke-width:1;stroke-linejoin:miter;stroke-miterlimit:10;"/><text fill="#000000" font-family="sans-serif" font-size="13" lengthAdjust="spacing" textLength="156.292" x="505.37" y="602.6066">Adapter returns success;</text><text fill="#000000" font-family="sans-serif" font-size="13" lengthAdjust="spacing" textLength="149.0303" x="509.0009" y="617.9172">Redeemed Ledger Entry</text><text fill="#000000" font-family="sans-serif" font-size="13" lengthAdjust="spacing" textLength="44.1289" x="561.4515" y="633.2277">written</text></g><!--link FULFILLING to RELEASED--><g class="link" data-entity-1="ent0008" data-entity-2="ent0012" data-link-type="dependency" data-source-line="313" id="lnk13"><path d="M328.65,540.9783 C328.08,565.0783 327.48,603.1183 328.35,636.0383 C328.63,646.7283 328.9277,653.5463 329.4977,663.6263" fill="none" id="FULFILLING-to-RELEASED" style="stroke:#181818;stroke-width:1;"/><polygon fill="#181818" points="329.78,668.6183,333.2655,659.4068,329.4977,663.6263,325.2783,659.8585,329.78,668.6183" style="stroke:#181818;stroke-width:1;stroke-linejoin:miter;stroke-miterlimit:10;"/><text fill="#000000" font-family="sans-serif" font-size="13" lengthAdjust="spacing" textLength="143.7744" x="329.35" y="610.1066">Adapter returns failure</text><text fill="#000000" font-family="sans-serif" font-size="13" lengthAdjust="spacing" textLength="66.333" x="368.0707" y="625.4172">or timeout</text></g><!--link FULFILLING to RELEASED--><g class="link" data-entity-1="ent0008" data-entity-2="ent0012" data-link-type="dependency" data-source-line="314" id="lnk14"><path d="M281.29,523.7383 C242.93,532.1083 191.58,550.2383 166.35,589.0383 C154.96,606.5483 153.79,619.3483 166.35,636.0383 C195.27,674.4783 225.13,649.6083 270.35,666.0383 C276.01,668.0883 277.2651,668.5041 283.0451,670.9141" fill="none" id="FULFILLING-to-RELEASED-1" style="stroke:#181818;stroke-width:1;"/><polygon fill="#181818" points="287.66,672.8383,280.8925,665.6828,283.0451,670.9141,277.8138,673.0666,287.66,672.8383" style="stroke:#181818;stroke-width:1;stroke-linejoin:miter;stroke-miterlimit:10;"/><text fill="#000000" font-family="sans-serif" font-size="13" lengthAdjust="spacing" textLength="152.731" x="167.35" y="617.6066">Reservation TTL expired</text></g><!--link COMMITTED to *end*--><g class="link" data-entity-1="ent0010" data-entity-2="ent0015" data-link-type="dependency" data-source-line="316" id="lnk16"><path d="M516.35,719.4683 C516.35,739.7583 516.35,762.6083 516.35,777.5283" fill="none" id="COMMITTED-to-*end*" style="stroke:#181818;stroke-width:1;"/><polygon fill="#181818" points="516.35,782.5283,520.35,773.5283,516.35,777.5283,512.35,773.5283,516.35,782.5283" style="stroke:#181818;stroke-width:1;stroke-linejoin:miter;stroke-miterlimit:10;"/></g><!--link REJECTED to *end*--><g class="link" data-entity-1="ent0006" data-entity-2="ent0015" data-link-type="dependency" data-source-line="317" id="lnk17"><path d="M658.82,442.7283 C673.45,484.0783 697.2,570.1483 670.35,636.0383 C639.66,711.3283 557.6688,767.3164 529.5688,784.8964" fill="none" id="REJECTED-to-*end*" style="stroke:#181818;stroke-width:1;"/><polygon fill="#181818" points="525.33,787.5483,535.0814,786.1659,529.5688,784.8964,530.8383,779.3838,525.33,787.5483" style="stroke:#181818;stroke-width:1;stroke-linejoin:miter;stroke-miterlimit:10;"/></g><!--link RELEASED to *end*--><g class="link" data-entity-1="ent0012" data-entity-2="ent0015" data-link-type="dependency" data-source-line="318" id="lnk18"><path d="M375.19,718.2183 C418.79,741.3083 478.1211,772.7287 502.2211,785.4887" fill="none" id="RELEASED-to-*end*" style="stroke:#181818;stroke-width:1;"/><polygon fill="#181818" points="506.64,787.8283,500.5578,780.0819,502.2211,785.4887,496.8144,787.1521,506.64,787.8283" style="stroke:#181818;stroke-width:1;stroke-linejoin:miter;stroke-miterlimit:10;"/></g><?plantuml-src VPBFZjCm4CRlUOevxaAx5suW8PLkYeAIRjMMlL24N6VIMdN6aJtP9JSUWYVaIHWd_ITOxScoP-Rdx_jiDcmHbbXYtR1n17z-_ORSLAWxBOKLAqOebDuRmYJvzkOxZCSVOP7ExxFvvn_BT9Kk7oVhx64Exw70UeiUM3MX9sAzeHiJoOwHT0S7x22qszemOtcR92zX8dxOf_V2N3X37E0j67f2OkUx3NaCw9-m1CMkDbfPsxs2-f9Erpqgez1MbT56ED3qtD66pbnmBSlUUI37WDRipDQAvxEOY9jzpMTPdijD0forjZBMrf4tALN3w7kUEs2P95UjSNBwK1JPUb1oR0QFt7eAaedM6CA73GsnYRKSovrqfCJHyREFaT6_p6MQfvFLYyXA6TjwxFsmgL7ClJAzx1DL_GTOhtF0dutnqSH5TPoGvq_EWLuEZfZJGIBv8NYpspEuwYgo163LRiS1jQCIAb4MEjAW1kb1oZTJ5VPRfGyZ-2J9ZXUgwzDzTAtUenz5mZDY4rWTC0pftDx9QT5QDYSoEwWDjImTSebKt_bIK9wx4mWQsP6iaqLsbw3CHCr7vHQhNlZ9c02chcwGWWH4Er2wp-cOj5JF_x7vxxD6RNC73VfQKNHo_QvmVDQBWhy0?></g></svg>