<svg xmlns="http://www.w3.org/2000/svg" xmlns:xlink="http://www.w3.org/1999/xlink" contentStyleType="text/css" data-diagram-type="STATE" height="450px" preserveAspectRatio="none" style="width:592px;height:450px;background:#FFFFFF;" version="1.1" viewBox="0 0 592 450" width="592px" zoomAndPan="magnify"><?plantuml 1.2026.4?><defs/><g><g class="title" data-source-line="344"><text fill="#000000" font-family="sans-serif" font-size="14" font-weight="700" lengthAdjust="spacing" textLength="275.5361" x="154.9894" y="23.5352">Reservation &#8212; Lifecycle State Machine</text></g><g class="start_entity" data-qualified-name=".start." data-source-line="346" id="ent0001"><ellipse cx="216.25" cy="53.4883" fill="#222222" rx="10" ry="10" style="stroke:#222222;stroke-width:1;"/></g><g class="entity" data-qualified-name="HELD" data-source-line="346" id="ent0002"><rect fill="#F1F1F1" height="50" rx="12.5" ry="12.5" style="stroke:#181818;stroke-width:0.5;" width="55.8271" x="188.33" y="151.1083"/><line style="stroke:#181818;stroke-width:0.5;" x1="188.33" x2="244.1571" y1="177.5966" y2="177.5966"/><text fill="#000000" font-family="sans-serif" font-size="14" lengthAdjust="spacing" textLength="35.8271" x="198.33" y="169.6434">HELD</text></g><g class="entity" data-qualified-name="COMMITTED" data-source-line="348" id="ent0004"><rect fill="#F1F1F1" height="50" rx="12.5" ry="12.5" style="stroke:#181818;stroke-width:0.5;" width="104.4922" x="7" y="303.7283"/><line style="stroke:#181818;stroke-width:0.5;" x1="7" x2="111.4922" y1="330.2166" y2="330.2166"/><text fill="#000000" font-family="sans-serif" font-size="14" lengthAdjust="spacing" textLength="84.4922" x="17" y="322.2634">COMMITTED</text></g><g class="entity" data-qualified-name="RELEASED" data-source-line="349" id="ent0006"><rect fill="#F1F1F1" height="50" rx="12.5" ry="12.5" style="stroke:#181818;stroke-width:0.5;" width="86.7666" x="172.86" y="303.7283"/><line style="stroke:#181818;stroke-width:0.5;" x1="172.86" x2="259.6266" y1="330.2166" y2="330.2166"/><text fill="#000000" font-family="sans-serif" font-size="14" lengthAdjust="spacing" textLength="66.7666" x="182.86" y="322.2634">RELEASED</text></g><g class="end_entity" data-qualified-name=".end." data-source-line="352" id="ent0009"><ellipse cx="124.25" cy="425.7283" fill="none" rx="11" ry="11" style="stroke:#222222;stroke-width:1;"/><ellipse cx="124.25" cy="425.7283" fill="#222222" rx="6" ry="6" style="stroke:#222222;stroke-width:1;"/></g><g class="entity" data-qualified-name="GMN12" data-source-line="356" id="ent0013"><path d="M278.97,140.4883 L278.97,172.1083 L244.4,176.1083 L278.97,180.1083 L278.97,211.7305 A0,0 0 0 0 278.97,211.7305 L577.5149,211.7305 A0,0 0 0 0 577.5149,211.7305 L577.5149,150.4883 L567.5149,140.4883 L278.97,140.4883 A0,0 0 0 0 278.97,140.4883" fill="#FEFFDD" style="stroke:#181818;stroke-width:0.5;"/><path d="M567.5149,140.4883 L567.5149,150.4883 L577.5149,150.4883 L567.5149,140.4883" fill="#FEFFDD" style="stroke:#181818;stroke-width:0.5;"/><text fill="#000000" font-family="sans-serif" font-size="13" lengthAdjust="spacing" textLength="199.9639" x="284.97" y="158.0566">Effective Redeemable Balance =</text><text fill="#000000" font-family="sans-serif" font-size="13" lengthAdjust="spacing" textLength="198.3833" x="293.1966" y="173.3672">Member.redeemable_balance &#8722;</text><text fill="#000000" font-family="sans-serif" font-size="13" lengthAdjust="spacing" textLength="269.3184" x="293.1966" y="188.6777">SUM(reservedPoints WHERE status = HELD)</text><text fill="#000000" font-family="sans-serif" font-size="13" lengthAdjust="spacing" textLength="223.7485" x="284.97" y="203.9883">Mobile shows the effective balance.</text></g><!--link *start* to HELD--><g class="link" data-entity-1="ent0001" data-entity-2="ent0002" data-link-type="dependency" data-source-line="346" id="lnk3"><path d="M216.25,63.9483 C216.25,82.4983 216.25,119.1483 216.25,145.8683" fill="none" id="*start*-to-HELD" style="stroke:#181818;stroke-width:1;"/><polygon fill="#181818" points="216.25,150.8683,220.25,141.8683,216.25,145.8683,212.25,141.8683,216.25,150.8683" style="stroke:#181818;stroke-width:1;stroke-linejoin:miter;stroke-miterlimit:10;"/><text fill="#000000" font-family="sans-serif" font-size="13" lengthAdjust="spacing" textLength="124.395" x="217.25" y="107.0566">reserve() succeeded</text></g><!--link HELD to COMMITTED--><g class="link" data-entity-1="ent0002" data-entity-2="ent0004" data-link-type="dependency" data-source-line="348" id="lnk5"><path d="M187.85,179.8183 C151.54,184.9583 89.95,199.7283 61.25,241.7283 C49.03,259.6083 49.1712,279.8891 52.3212,298.3991" fill="none" id="HELD-to-COMMITTED" style="stroke:#181818;stroke-width:1;"/><polygon fill="#181818" points="53.16,303.3283,55.5934,293.7848,52.3212,298.3991,47.7068,295.1269,53.16,303.3283" style="stroke:#181818;stroke-width:1;stroke-linejoin:miter;stroke-miterlimit:10;"/><text fill="#000000" font-family="sans-serif" font-size="13" lengthAdjust="spacing" textLength="142.9111" x="62.25" y="255.2966">commit() &#8212; Redeemed</text><text fill="#000000" font-family="sans-serif" font-size="13" lengthAdjust="spacing" textLength="127.4673" x="69.9719" y="270.6072">Ledger Entry written</text></g><!--link HELD to RELEASED--><g class="link" data-entity-1="ent0002" data-entity-2="ent0006" data-link-type="dependency" data-source-line="349" id="lnk7"><path d="M214.71,201.3283 C213.65,220.8683 212.56,249.0683 213.25,273.7283 C213.51,283.3983 213.7532,289.0371 214.3032,298.2871" fill="none" id="HELD-to-RELEASED" style="stroke:#181818;stroke-width:1;"/><polygon fill="#181818" points="214.6,303.2783,218.0588,294.0567,214.3032,298.2871,210.0729,294.5316,214.6,303.2783" style="stroke:#181818;stroke-width:1;stroke-linejoin:miter;stroke-miterlimit:10;"/><text fill="#000000" font-family="sans-serif" font-size="13" lengthAdjust="spacing" textLength="178.2739" x="214.25" y="262.7966">release() &#8212; fulfillment failed</text></g><!--link HELD to RELEASED--><g class="link" data-entity-1="ent0002" data-entity-2="ent0006" data-link-type="dependency" data-source-line="350" id="lnk8"><path d="M244.07,201.4683 C249.5,205.3483 255.35,208.9783 261.25,211.7283 C317.34,237.8983 358.48,193.4783 397.25,241.7283 C406.15,252.8183 405.74,262.3283 397.25,273.7283 C380.79,295.8183 312.9014,311.2855 264.7914,319.9155" fill="none" id="HELD-to-RELEASED-1" style="stroke:#181818;stroke-width:1;"/><polygon fill="#181818" points="259.87,320.7983,269.4349,323.1464,264.7914,319.9155,268.0224,315.2721,259.87,320.7983" style="stroke:#181818;stroke-width:1;stroke-linejoin:miter;stroke-miterlimit:10;"/><text fill="#000000" font-family="sans-serif" font-size="13" lengthAdjust="spacing" textLength="75.3848" x="409.3594" y="255.2966">TTL expired</text><text fill="#000000" font-family="sans-serif" font-size="13" lengthAdjust="spacing" textLength="84.5635" x="404.77" y="270.6072">(sweeper job)</text></g><!--link COMMITTED to *end*--><g class="link" data-entity-1="ent0004" data-entity-2="ent0009" data-link-type="dependency" data-source-line="352" id="lnk10"><path d="M75.99,354.1883 C89.98,374.6483 106.2869,398.4815 115.7069,412.2515" fill="none" id="COMMITTED-to-*end*" style="stroke:#181818;stroke-width:1;"/><polygon fill="#181818" points="118.53,416.3783,116.7498,406.6916,115.7069,412.2515,110.147,411.2086,118.53,416.3783" style="stroke:#181818;stroke-width:1;stroke-linejoin:miter;stroke-miterlimit:10;"/></g><!--link RELEASED to *end*--><g class="link" data-entity-1="ent0006" data-entity-2="ent0009" data-link-type="dependency" data-source-line="353" id="lnk11"><path d="M192.55,354.1883 C172.32,375.0883 147.9789,400.227 134.9689,413.657" fill="none" id="RELEASED-to-*end*" style="stroke:#181818;stroke-width:1;"/><polygon fill="#181818" points="131.49,417.2483,140.6251,413.5672,134.9689,413.657,134.8791,408.0009,131.49,417.2483" style="stroke:#181818;stroke-width:1;stroke-linejoin:miter;stroke-miterlimit:10;"/></g><?plantuml-src RL1BJiCm5Dpx56_P8BK7G2eI7qj5IWHAWrW0GeupQOmIkx9VMxfZoHfnmfu49uHsm_RDxysmuHQK8y1l5HjdwV3nJQcfeVSw8ajM3CgKReo544zdBpITNj12fZTqJdxGOP9Gs6WDLAY46B2UT7sNPRT58NkcTbrdE19x-pmIqQ5wjYcg5Jn9otvFEs-OOKy6kKpbvLB-9hLG0QD1lMbhqxOTB5EjJ1jZ_nCLHKfuNnlVHqt23bZ7i3TN9aASdkj5iPSu2lyEmhhOtPjLm-JgeRCWadNSXiqMOmrLnfckLAki1iqZWIX3LyBF_15_BKVyyFarC9OFsMGShxftndAWnuNC9OMuzoRGV4XB8ZTpPUn7eN6xGDo0SCmVJMS2jgB-rny0?></g></svg>