<svg xmlns="http://www.w3.org/2000/svg" xmlns:xlink="http://www.w3.org/1999/xlink" contentStyleType="text/css" data-diagram-type="SALT" height="255px" preserveAspectRatio="none" style="width:499px;height:255px;background:#FFFFFF;" version="1.1" viewBox="0 0 499 255" width="499px" zoomAndPan="magnify"><?plantuml 1.2026.4?><defs/><g><text fill="#000000" font-family="sans-serif" font-size="12" lengthAdjust="spacing" textLength="149.4434" x="9" y="17.6016">HBP Mobile   &#183;   Rewards</text><line style="stroke:#000000;stroke-width:1;" x1="7" x2="218" y1="20.1328" y2="20.1328"/><line style="stroke:#000000;stroke-width:1;" x1="7" x2="7" y1="17.1328" y2="19.1328"/><line style="stroke:#000000;stroke-width:1;" x1="218" x2="218" y1="17.1328" y2="19.1328"/><line style="stroke:#AAAAAA;stroke-width:1;" x1="6" x2="429" y1="26.6328" y2="26.6328"/><line style="stroke:#AAAAAA;stroke-width:1;" x1="6" x2="429" y1="28.6328" y2="28.6328"/><text fill="#000000" font-family="sans-serif" font-size="12" lengthAdjust="spacing" textLength="94.7813" x="9" y="43.7344">USD 5 Cashback</text><line style="stroke:#000000;stroke-width:1;" x1="7" x2="122" y1="46.2656" y2="46.2656"/><line style="stroke:#000000;stroke-width:1;" x1="7" x2="7" y1="43.2656" y2="45.2656"/><line style="stroke:#000000;stroke-width:1;" x1="122" x2="122" y1="43.2656" y2="45.2656"/><text fill="#000000" font-family="sans-serif" font-size="12" lengthAdjust="spacing" textLength="93.7734" x="9" y="61.8672">Cost:  5,000 pts</text><line style="stroke:#000000;stroke-width:1;" x1="7" x2="138" y1="64.3984" y2="64.3984"/><line style="stroke:#000000;stroke-width:1;" x1="7" x2="7" y1="61.3984" y2="63.3984"/><line style="stroke:#000000;stroke-width:1;" x1="138" x2="138" y1="61.3984" y2="63.3984"/><text fill="#000000" font-family="sans-serif" font-size="12" lengthAdjust="spacing" textLength="222.4922" x="9" y="96.1328">Your redeemable balance:  12,000 pts</text><line style="stroke:#000000;stroke-width:1;" x1="7" x2="298" y1="98.6641" y2="98.6641"/><line style="stroke:#000000;stroke-width:1;" x1="7" x2="7" y1="95.6641" y2="97.6641"/><line style="stroke:#000000;stroke-width:1;" x1="298" x2="298" y1="95.6641" y2="97.6641"/><text fill="#000000" font-family="sans-serif" font-size="12" lengthAdjust="spacing" textLength="61.1074" x="9" y="114.2656">Tier:  Gold</text><line style="stroke:#000000;stroke-width:1;" x1="7" x2="98" y1="116.7969" y2="116.7969"/><line style="stroke:#000000;stroke-width:1;" x1="7" x2="7" y1="113.7969" y2="115.7969"/><line style="stroke:#000000;stroke-width:1;" x1="98" x2="98" y1="113.7969" y2="115.7969"/><line style="stroke:#AAAAAA;stroke-width:1.5;" x1="6" x2="429" y1="124.2969" y2="124.2969"/><text fill="#000000" font-family="sans-serif" font-size="12" lengthAdjust="spacing" textLength="320.4492" x="9" y="140.3984">High-value redemption &#8212; confirm with transaction PIN</text><line style="stroke:#000000;stroke-width:1;" x1="7" x2="426" y1="142.9297" y2="142.9297"/><line style="stroke:#000000;stroke-width:1;" x1="7" x2="7" y1="139.9297" y2="141.9297"/><line style="stroke:#000000;stroke-width:1;" x1="426" x2="426" y1="139.9297" y2="141.9297"/><text fill="#000000" font-family="sans-serif" font-size="12" lengthAdjust="spacing" textLength="18.9551" x="6" y="158.5313">PIN</text><ellipse cx="438.5" cy="153.5625" fill="#000000" rx="2.5" ry="2.5"/><text fill="#000000" font-family="sans-serif" font-size="12" lengthAdjust="spacing" textLength="24.9434" x="445" y="158.5313">* * *</text><line style="stroke:#000000;stroke-width:1;" x1="431" x2="490" y1="161.0625" y2="161.0625"/><line style="stroke:#000000;stroke-width:1;" x1="431" x2="431" y1="158.0625" y2="160.0625"/><line style="stroke:#000000;stroke-width:1;" x1="490" x2="490" y1="158.0625" y2="160.0625"/><rect fill="#EEEEEE" height="18.1328" rx="5" ry="5" style="stroke:#000000;stroke-width:2.5;" width="244" x="8.5" y="183.6953"/><text fill="#000000" font-family="sans-serif" font-size="12" lengthAdjust="spacing" textLength="74.2617" x="93.3691" y="197.2969">Redeem now</text><line style="stroke:#AAAAAA;stroke-width:1;" x1="6" x2="429" y1="208.8281" y2="208.8281"/><line style="stroke:#AAAAAA;stroke-width:1;" x1="6" x2="429" y1="210.8281" y2="210.8281"/><text fill="#000000" font-family="sans-serif" font-size="12" lengthAdjust="spacing" textLength="240.252" x="9" y="225.9297">Status:  COMPLETED   (ref PH-TXN-1182)</text><line style="stroke:#000000;stroke-width:1;" x1="7" x2="314" y1="228.4609" y2="228.4609"/><line style="stroke:#000000;stroke-width:1;" x1="7" x2="7" y1="225.4609" y2="227.4609"/><line style="stroke:#000000;stroke-width:1;" x1="314" x2="314" y1="225.4609" y2="227.4609"/><text fill="#000000" font-family="sans-serif" font-size="12" lengthAdjust="spacing" textLength="185.9824" x="9" y="244.0625">USD 5.00 credited to your CASA</text><line style="stroke:#000000;stroke-width:1;" x1="7" x2="250" y1="246.5938" y2="246.5938"/><line style="stroke:#000000;stroke-width:1;" x1="7" x2="7" y1="243.5938" y2="245.5938"/><line style="stroke:#000000;stroke-width:1;" x1="250" x2="250" y1="243.5938" y2="245.5938"/><line style="stroke:#000000;stroke-width:1;" x1="5" x2="429" y1="5" y2="5"/><line style="stroke:#000000;stroke-width:1;" x1="5" x2="429" y1="249.5938" y2="249.5938"/><line style="stroke:#000000;stroke-width:1;" x1="429" x2="493" y1="5" y2="5"/><line style="stroke:#000000;stroke-width:1;" x1="429" x2="493" y1="249.5938" y2="249.5938"/><line style="stroke:#000000;stroke-width:1;" x1="5" x2="5" y1="5" y2="23.1328"/><line style="stroke:#000000;stroke-width:1;" x1="493" x2="493" y1="5" y2="23.1328"/><line style="stroke:#000000;stroke-width:1;" x1="5" x2="5" y1="180.1953" y2="205.3281"/><line style="stroke:#000000;stroke-width:1;" x1="493" x2="493" y1="180.1953" y2="205.3281"/><line style="stroke:#000000;stroke-width:1;" x1="5" x2="5" y1="119.7969" y2="127.7969"/><line style="stroke:#000000;stroke-width:1;" x1="493" x2="493" y1="119.7969" y2="127.7969"/><line style="stroke:#000000;stroke-width:1;" x1="5" x2="5" y1="49.2656" y2="67.3984"/><line style="stroke:#000000;stroke-width:1;" x1="493" x2="493" y1="49.2656" y2="67.3984"/><line style="stroke:#000000;stroke-width:1;" x1="5" x2="5" y1="231.4609" y2="249.5938"/><line style="stroke:#000000;stroke-width:1;" x1="493" x2="493" y1="231.4609" y2="249.5938"/><line style="stroke:#000000;stroke-width:1;" x1="5" x2="5" y1="164.0625" y2="180.1953"/><line style="stroke:#000000;stroke-width:1;" x1="493" x2="493" y1="164.0625" y2="180.1953"/><line style="stroke:#000000;stroke-width:1;" x1="5" x2="5" y1="101.6641" y2="119.7969"/><line style="stroke:#000000;stroke-width:1;" x1="493" x2="493" y1="101.6641" y2="119.7969"/><line style="stroke:#000000;stroke-width:1;" x1="5" x2="5" y1="31.1328" y2="49.2656"/><line style="stroke:#000000;stroke-width:1;" x1="493" x2="493" y1="31.1328" y2="49.2656"/><line style="stroke:#000000;stroke-width:1;" x1="5" x2="5" y1="213.3281" y2="231.4609"/><line style="stroke:#000000;stroke-width:1;" x1="493" x2="493" y1="213.3281" y2="231.4609"/><line style="stroke:#000000;stroke-width:1;" x1="5" x2="5" y1="145.9297" y2="164.0625"/><line style="stroke:#000000;stroke-width:1;" x1="493" x2="493" y1="145.9297" y2="164.0625"/><line style="stroke:#000000;stroke-width:1;" x1="5" x2="5" y1="83.5313" y2="101.6641"/><line style="stroke:#000000;stroke-width:1;" x1="493" x2="493" y1="83.5313" y2="101.6641"/><line style="stroke:#000000;stroke-width:1;" x1="5" x2="5" y1="23.1328" y2="31.1328"/><line style="stroke:#000000;stroke-width:1;" x1="493" x2="493" y1="23.1328" y2="31.1328"/><line style="stroke:#000000;stroke-width:1;" x1="5" x2="5" y1="205.3281" y2="213.3281"/><line style="stroke:#000000;stroke-width:1;" x1="493" x2="493" y1="205.3281" y2="213.3281"/><line style="stroke:#000000;stroke-width:1;" x1="5" x2="5" y1="127.7969" y2="145.9297"/><line style="stroke:#000000;stroke-width:1;" x1="493" x2="493" y1="127.7969" y2="145.9297"/><line style="stroke:#000000;stroke-width:1;" x1="5" x2="5" y1="67.3984" y2="83.5313"/><line style="stroke:#000000;stroke-width:1;" x1="493" x2="493" y1="67.3984" y2="83.5313"/><?plantuml-src JL3jIiCm5FtVfxZabryjRN4Ymc2p6qvmismJ5F77RNktXdN9I5ABgCE7y5tyxwFu92OLfmaav9npRywvFMrG6OsLWLgJyfSrByYlkQ-e85fxpuSU0EFdA5OmbXcl200-F-mnfGPLePdbkrqdkfaDe0C9wZB3VELmbaXjpW0wHs4OmiQqui0HTx9MyFC5PhPdXXMAdAmsYl-BsPoJikY5h0httcuTEEBBqd_4ggQsntfZk1JmzVOEkHGBhjRGS5E2KIWqvYsPNavSlRtW1TW1jFlNpZtirhJr148sVzZ3BkBCeAcrzPDSZzEhuNmuiFIUeWMa8tz-E_6Zw3JUPxjf13P9RYroGmKO2KykTjAVzPdtwlL856xmdXS5SHYV1CVV?></g></svg>