<svg xmlns="http://www.w3.org/2000/svg" xmlns:xlink="http://www.w3.org/1999/xlink" contentStyleType="text/css" data-diagram-type="SALT" height="195px" preserveAspectRatio="none" style="width:1134px;height:195px;background:#FFFFFF;" version="1.1" viewBox="0 0 1134 195" width="1134px" zoomAndPan="magnify"><?plantuml 1.2026.4?><defs/><g><rect fill="#DDDDDD" height="15.1328" style="stroke:#000000;stroke-width:1;" width="655" x="6" y="6"/><text fill="#000000" font-family="sans-serif" font-size="12" lengthAdjust="spacing" textLength="157.0605" x="6" y="17.6016">Program: ^RDB_REWARDS^</text><text fill="#000000" font-family="sans-serif" font-size="12" lengthAdjust="spacing" textLength="295.4004" x="173.0605" y="17.6016">Campaigns &gt; Dining Double Points May &gt; Winners</text><text fill="#000000" font-family="sans-serif" font-size="12" lengthAdjust="spacing" textLength="48.1699" x="6" y="49.8672">Drawing</text><text fill="#000000" font-family="sans-serif" font-size="12" lengthAdjust="spacing" textLength="78.7559" x="662" y="49.8672">"#7"     Status</text><text fill="#000000" font-family="sans-serif" font-size="12" lengthAdjust="spacing" textLength="150.6563" x="841" y="49.8672">"COMPLETED"     Drawn at</text><text fill="#000000" font-family="sans-serif" font-size="12" lengthAdjust="spacing" textLength="112.5352" x="996.6563" y="49.8672">2026-06-01 12:00</text><line style="stroke:#000000;stroke-width:1;" x1="994.6563" x2="1125.6563" y1="52.3984" y2="52.3984"/><line style="stroke:#000000;stroke-width:1;" x1="994.6563" x2="994.6563" y1="49.3984" y2="51.3984"/><line style="stroke:#000000;stroke-width:1;" x1="1125.6563" x2="1125.6563" y1="49.3984" y2="51.3984"/><line style="stroke:#AAAAAA;stroke-width:1;" x1="6" x2="661" y1="58.8984" y2="58.8984"/><line style="stroke:#AAAAAA;stroke-width:1;" x1="6" x2="661" y1="60.8984" y2="60.8984"/><text fill="#000000" font-family="sans-serif" font-size="12" lengthAdjust="spacing" textLength="25.998" x="7" y="77">rank</text><text fill="#000000" font-family="sans-serif" font-size="12" lengthAdjust="spacing" textLength="47.373" x="34.998" y="77">Member</text><text fill="#000000" font-family="sans-serif" font-size="12" lengthAdjust="spacing" textLength="76.5352" x="84.3711" y="77">Winner index</text><text fill="#000000" font-family="sans-serif" font-size="12" lengthAdjust="spacing" textLength="60.4805" x="162.9063" y="77">Seed (hex)</text><text fill="#000000" font-family="sans-serif" font-size="12" lengthAdjust="spacing" textLength="28.5762" x="225.3867" y="77">Prize</text><text fill="#000000" font-family="sans-serif" font-size="12" lengthAdjust="spacing" textLength="46.4063" x="321.3887" y="77">Fulfilled</text><text fill="#000000" font-family="sans-serif" font-size="12" lengthAdjust="spacing" textLength="7.5879" x="7" y="93.1328">1</text><text fill="#000000" font-family="sans-serif" font-size="12" lengthAdjust="spacing" textLength="45.5273" x="34.998" y="93.1328">100482</text><text fill="#000000" font-family="sans-serif" font-size="12" lengthAdjust="spacing" textLength="37.9395" x="84.3711" y="93.1328">38211</text><text fill="#000000" font-family="sans-serif" font-size="12" lengthAdjust="spacing" textLength="51.9492" x="162.9063" y="93.1328">a3f1&#8230;9c</text><text fill="#000000" font-family="sans-serif" font-size="12" lengthAdjust="spacing" textLength="94.002" x="225.3867" y="93.1328">USD 1,000 Cash</text><text fill="#000000" font-family="sans-serif" font-size="12" lengthAdjust="spacing" textLength="19.0723" x="321.3887" y="93.1328">yes</text><text fill="#000000" font-family="sans-serif" font-size="12" lengthAdjust="spacing" textLength="7.5879" x="7" y="109.2656">2</text><text fill="#000000" font-family="sans-serif" font-size="12" lengthAdjust="spacing" textLength="45.5273" x="34.998" y="109.2656">100777</text><text fill="#000000" font-family="sans-serif" font-size="12" lengthAdjust="spacing" textLength="37.9395" x="84.3711" y="109.2656">11904</text><text fill="#000000" font-family="sans-serif" font-size="12" lengthAdjust="spacing" textLength="51.9492" x="162.9063" y="109.2656">a3f1&#8230;9c</text><text fill="#000000" font-family="sans-serif" font-size="12" lengthAdjust="spacing" textLength="94.002" x="225.3867" y="109.2656">USD 1,000 Cash</text><text fill="#000000" font-family="sans-serif" font-size="12" lengthAdjust="spacing" textLength="19.0723" x="321.3887" y="109.2656">yes</text><text fill="#000000" font-family="sans-serif" font-size="12" lengthAdjust="spacing" textLength="7.5879" x="7" y="125.3984">3</text><text fill="#000000" font-family="sans-serif" font-size="12" lengthAdjust="spacing" textLength="45.5273" x="34.998" y="125.3984">101559</text><text fill="#000000" font-family="sans-serif" font-size="12" lengthAdjust="spacing" textLength="37.9395" x="84.3711" y="125.3984">70233</text><text fill="#000000" font-family="sans-serif" font-size="12" lengthAdjust="spacing" textLength="51.9492" x="162.9063" y="125.3984">a3f1&#8230;9c</text><text fill="#000000" font-family="sans-serif" font-size="12" lengthAdjust="spacing" textLength="94.002" x="225.3867" y="125.3984">USD 1,000 Cash</text><text fill="#000000" font-family="sans-serif" font-size="12" lengthAdjust="spacing" textLength="47.6367" x="321.3887" y="125.3984">pending</text><line style="stroke:#000000;stroke-width:1;" x1="6" x2="33.998" y1="64.3984" y2="64.3984"/><line style="stroke:#000000;stroke-width:1;" x1="224.3867" x2="320.3887" y1="128.9297" y2="128.9297"/><line style="stroke:#000000;stroke-width:1;" x1="33.998" x2="83.3711" y1="64.3984" y2="64.3984"/><line style="stroke:#000000;stroke-width:1;" x1="320.3887" x2="370.0254" y1="128.9297" y2="128.9297"/><line style="stroke:#000000;stroke-width:1;" x1="83.3711" x2="161.9063" y1="64.3984" y2="64.3984"/><line style="stroke:#000000;stroke-width:1;" x1="161.9063" x2="224.3867" y1="64.3984" y2="64.3984"/><line style="stroke:#000000;stroke-width:1;" x1="224.3867" x2="320.3887" y1="64.3984" y2="64.3984"/><line style="stroke:#000000;stroke-width:1;" x1="320.3887" x2="370.0254" y1="64.3984" y2="64.3984"/><line style="stroke:#000000;stroke-width:1;" x1="6" x2="33.998" y1="112.7969" y2="112.7969"/><line style="stroke:#000000;stroke-width:1;" x1="33.998" x2="83.3711" y1="112.7969" y2="112.7969"/><line style="stroke:#000000;stroke-width:1;" x1="83.3711" x2="161.9063" y1="112.7969" y2="112.7969"/><line style="stroke:#000000;stroke-width:1;" x1="161.9063" x2="224.3867" y1="112.7969" y2="112.7969"/><line style="stroke:#000000;stroke-width:1;" x1="224.3867" x2="320.3887" y1="112.7969" y2="112.7969"/><line style="stroke:#000000;stroke-width:1;" x1="320.3887" x2="370.0254" y1="112.7969" y2="112.7969"/><line style="stroke:#000000;stroke-width:1;" x1="6" x2="33.998" y1="96.6641" y2="96.6641"/><line style="stroke:#000000;stroke-width:1;" x1="33.998" x2="83.3711" y1="96.6641" y2="96.6641"/><line style="stroke:#000000;stroke-width:1;" x1="83.3711" x2="161.9063" y1="96.6641" y2="96.6641"/><line style="stroke:#000000;stroke-width:1;" x1="161.9063" x2="224.3867" y1="96.6641" y2="96.6641"/><line style="stroke:#000000;stroke-width:1;" x1="224.3867" x2="320.3887" y1="96.6641" y2="96.6641"/><line style="stroke:#000000;stroke-width:1;" x1="320.3887" x2="370.0254" y1="96.6641" y2="96.6641"/><line style="stroke:#000000;stroke-width:1;" x1="6" x2="33.998" y1="80.5313" y2="80.5313"/><line style="stroke:#000000;stroke-width:1;" x1="33.998" x2="83.3711" y1="80.5313" y2="80.5313"/><line style="stroke:#000000;stroke-width:1;" x1="83.3711" x2="161.9063" y1="80.5313" y2="80.5313"/><line style="stroke:#000000;stroke-width:1;" x1="161.9063" x2="224.3867" y1="80.5313" y2="80.5313"/><line style="stroke:#000000;stroke-width:1;" x1="224.3867" x2="320.3887" y1="80.5313" y2="80.5313"/><line style="stroke:#000000;stroke-width:1;" x1="320.3887" x2="370.0254" y1="80.5313" y2="80.5313"/><line style="stroke:#000000;stroke-width:1;" x1="6" x2="33.998" y1="128.9297" y2="128.9297"/><line style="stroke:#000000;stroke-width:1;" x1="33.998" x2="83.3711" y1="128.9297" y2="128.9297"/><line style="stroke:#000000;stroke-width:1;" x1="83.3711" x2="161.9063" y1="128.9297" y2="128.9297"/><line style="stroke:#000000;stroke-width:1;" x1="161.9063" x2="224.3867" y1="128.9297" y2="128.9297"/><line style="stroke:#000000;stroke-width:1;" x1="6" x2="6" y1="64.3984" y2="80.5313"/><line style="stroke:#000000;stroke-width:1;" x1="33.998" x2="33.998" y1="64.3984" y2="80.5313"/><line style="stroke:#000000;stroke-width:1;" x1="83.3711" x2="83.3711" y1="64.3984" y2="80.5313"/><line style="stroke:#000000;stroke-width:1;" x1="161.9063" x2="161.9063" y1="64.3984" y2="80.5313"/><line style="stroke:#000000;stroke-width:1;" x1="224.3867" x2="224.3867" y1="64.3984" y2="80.5313"/><line style="stroke:#000000;stroke-width:1;" x1="320.3887" x2="320.3887" y1="64.3984" y2="80.5313"/><line style="stroke:#000000;stroke-width:1;" x1="370.0254" x2="370.0254" y1="64.3984" y2="80.5313"/><line style="stroke:#000000;stroke-width:1;" x1="6" x2="6" y1="112.7969" y2="128.9297"/><line style="stroke:#000000;stroke-width:1;" x1="33.998" x2="33.998" y1="112.7969" y2="128.9297"/><line style="stroke:#000000;stroke-width:1;" x1="83.3711" x2="83.3711" y1="112.7969" y2="128.9297"/><line style="stroke:#000000;stroke-width:1;" x1="161.9063" x2="161.9063" y1="112.7969" y2="128.9297"/><line style="stroke:#000000;stroke-width:1;" x1="224.3867" x2="224.3867" y1="112.7969" y2="128.9297"/><line style="stroke:#000000;stroke-width:1;" x1="320.3887" x2="320.3887" y1="112.7969" y2="128.9297"/><line style="stroke:#000000;stroke-width:1;" x1="370.0254" x2="370.0254" y1="112.7969" y2="128.9297"/><line style="stroke:#000000;stroke-width:1;" x1="6" x2="6" y1="96.6641" y2="112.7969"/><line style="stroke:#000000;stroke-width:1;" x1="33.998" x2="33.998" y1="96.6641" y2="112.7969"/><line style="stroke:#000000;stroke-width:1;" x1="83.3711" x2="83.3711" y1="96.6641" y2="112.7969"/><line style="stroke:#000000;stroke-width:1;" x1="161.9063" x2="161.9063" y1="96.6641" y2="112.7969"/><line style="stroke:#000000;stroke-width:1;" x1="224.3867" x2="224.3867" y1="96.6641" y2="112.7969"/><line style="stroke:#000000;stroke-width:1;" x1="320.3887" x2="320.3887" y1="96.6641" y2="112.7969"/><line style="stroke:#000000;stroke-width:1;" x1="370.0254" x2="370.0254" y1="96.6641" y2="112.7969"/><line style="stroke:#000000;stroke-width:1;" x1="6" x2="6" y1="80.5313" y2="96.6641"/><line style="stroke:#000000;stroke-width:1;" x1="33.998" x2="33.998" y1="80.5313" y2="96.6641"/><line style="stroke:#000000;stroke-width:1;" x1="83.3711" x2="83.3711" y1="80.5313" y2="96.6641"/><line style="stroke:#000000;stroke-width:1;" x1="161.9063" x2="161.9063" y1="80.5313" y2="96.6641"/><line style="stroke:#000000;stroke-width:1;" x1="224.3867" x2="224.3867" y1="80.5313" y2="96.6641"/><line style="stroke:#000000;stroke-width:1;" x1="320.3887" x2="320.3887" y1="80.5313" y2="96.6641"/><line style="stroke:#000000;stroke-width:1;" x1="370.0254" x2="370.0254" y1="80.5313" y2="96.6641"/><line style="stroke:#AAAAAA;stroke-width:1.5;" x1="6" x2="661" y1="134.4297" y2="134.4297"/><text fill="#000000" font-family="sans-serif" font-size="12" lengthAdjust="spacing" textLength="487.8926" x="9" y="150.5313">Re-verify: seed a3f1&#8230;9c + HMAC secret deterministically reproduces these indices.</text><line style="stroke:#000000;stroke-width:1;" x1="7" x2="658" y1="153.0625" y2="153.0625"/><line style="stroke:#000000;stroke-width:1;" x1="7" x2="7" y1="150.0625" y2="152.0625"/><line style="stroke:#000000;stroke-width:1;" x1="658" x2="658" y1="150.0625" y2="152.0625"/><line style="stroke:#AAAAAA;stroke-width:1;" x1="6" x2="661" y1="159.5625" y2="159.5625"/><line style="stroke:#AAAAAA;stroke-width:1;" x1="6" x2="661" y1="161.5625" y2="161.5625"/><rect fill="#EEEEEE" height="18.1328" rx="5" ry="5" style="stroke:#000000;stroke-width:2.5;" width="116" x="8.5" y="167.5625"/><text fill="#000000" font-family="sans-serif" font-size="12" lengthAdjust="spacing" textLength="71.5664" x="30.7168" y="181.1641">Export audit</text><rect fill="#EEEEEE" height="18.1328" rx="5" ry="5" style="stroke:#000000;stroke-width:2.5;" width="172" x="664.5" y="167.5625"/><text fill="#000000" font-family="sans-serif" font-size="12" lengthAdjust="spacing" textLength="108.8496" x="696.0752" y="181.1641">Re-verify selection</text><?plantuml-src dPBDJXin4CVl-nH_XGlzsCZU3LqIYGgQJTL3eqP9Amu8aDcT95OttiZsGb82wjFqmNWInbqrzDfQzcY-z9lHZ4-TLzOxLNaqZcoyQ7H9SQFZEsqCMHVTHy3zQqnilR1gDS3LDFzmFHsTdqtpsHLs6AhLMkc5SNYFN1jj5iZhvgOYJ6fjlCDORJbqtkBmmBWklzogkv2xG-SWwo2ScLU-SS4p_3AUV1vz7ULj8EGQA1z2YKZUnOAlX4m6GdIOTN8IUZnW0QlCTquRq-g6B2jjMMXJqeRD6L69moLjNh4niVe7uQ-pmyUcckkgeZAmPEkJGlIE4rRIuqJAbroLpkNJpr_zeZM_pNB8jq88deXR_dPjoGLEikTaMHOKsHUz_-2aVpZowAZFIYQIDFqNpffCoJDdLjZ2uoEBpfJYMx9wlXt0XU6yKDxWq_XioDx2aaT9dkoAz-kyBbHLRM5fRUkoASZ1BybH6B9cgxjVoGL6ctLjFLHJQezBRk42-u9ChgZmkZQuZ1wYKsukVCCeajsmv6xl6G00?></g></svg>