<svg xmlns="http://www.w3.org/2000/svg" xmlns:xlink="http://www.w3.org/1999/xlink" contentStyleType="text/css" data-diagram-type="SALT" height="384px" preserveAspectRatio="none" style="width:918px;height:384px;background:#FFFFFF;" version="1.1" viewBox="0 0 918 384" width="918px" zoomAndPan="magnify"><?plantuml 1.2026.4?><defs/><g><rect fill="#DDDDDD" height="15.1328" style="stroke:#000000;stroke-width:1;" width="823" x="6" y="6"/><text fill="#000000" font-family="sans-serif" font-size="12" lengthAdjust="spacing" textLength="157.0605" x="6" y="17.6016">Program: ^RDB_REWARDS^</text><text fill="#000000" font-family="sans-serif" font-size="12" lengthAdjust="spacing" textLength="157.8633" x="173.0605" y="17.6016">Loyalty Admin &gt; Approvals</text><text fill="#000000" font-family="sans-serif" font-size="12" lengthAdjust="spacing" textLength="78.1699" x="8" y="49.8672">Raise request</text><line style="stroke:#000000;stroke-width:1;" x1="6" x2="6" y1="38.2656" y2="52.3984"/><line style="stroke:#000000;stroke-width:1;" x1="6" x2="89.1699" y1="38.2656" y2="38.2656"/><line style="stroke:#000000;stroke-width:1;" x1="89.1699" x2="89.1699" y1="38.2656" y2="52.3984"/><line style="stroke:#000000;stroke-width:1;" x1="89.1699" x2="99.1699" y1="52.3984" y2="52.3984"/><text fill="#000000" font-family="sans-serif" font-size="12" lengthAdjust="spacing" textLength="100.3477" x="101.1699" y="49.8672">Raised by Loyalty</text><line style="stroke:#000000;stroke-width:1;" x1="99.1699" x2="99.1699" y1="38.2656" y2="52.3984"/><line style="stroke:#000000;stroke-width:1;" x1="99.1699" x2="204.5176" y1="38.2656" y2="38.2656"/><line style="stroke:#000000;stroke-width:1;" x1="204.5176" x2="204.5176" y1="38.2656" y2="52.3984"/><line style="stroke:#000000;stroke-width:1;" x1="204.5176" x2="214.5176" y1="52.3984" y2="52.3984"/><text fill="#000000" font-family="sans-serif" font-size="12" lengthAdjust="spacing" textLength="28.0957" x="7" y="83.1328">Type</text><rect fill="#EEEEEE" height="17.1328" style="stroke:#000000;stroke-width:1;" width="95" x="285.084" y="71.5313"/><text fill="#000000" font-family="sans-serif" font-size="12" lengthAdjust="spacing" textLength="76.6582" x="287.084" y="85.1328">ADJUSTMENT</text><line style="stroke:#000000;stroke-width:1;" x1="369.084" x2="369.084" y1="71.5313" y2="88.6641"/><polygon fill="#000000" points="372.084,77.5313,378.084,77.5313,375.084,83.6641" style="stroke:#000000;stroke-width:1;stroke-linejoin:miter;stroke-miterlimit:10;"/><text fill="#000000" font-family="sans-serif" font-size="12" lengthAdjust="spacing" textLength="44.5488" x="10" y="119.3984">Payload</text><line style="stroke:#000000;stroke-width:1;" x1="8" x2="67" y1="121.9297" y2="121.9297"/><line style="stroke:#000000;stroke-width:1;" x1="8" x2="8" y1="118.9297" y2="120.9297"/><line style="stroke:#000000;stroke-width:1;" x1="67" x2="67" y1="118.9297" y2="120.9297"/><text fill="#000000" font-family="sans-serif" font-size="12" lengthAdjust="spacing" textLength="47.373" x="8" y="138.5313">Member</text><text fill="#000000" font-family="sans-serif" font-size="12" lengthAdjust="spacing" textLength="15.1758" x="95.084" y="138.5313">42</text><line style="stroke:#000000;stroke-width:1;" x1="93.084" x2="112.084" y1="141.0625" y2="141.0625"/><line style="stroke:#000000;stroke-width:1;" x1="93.084" x2="93.084" y1="138.0625" y2="140.0625"/><line style="stroke:#000000;stroke-width:1;" x1="112.084" x2="112.084" y1="138.0625" y2="140.0625"/><text fill="#000000" font-family="sans-serif" font-size="12" lengthAdjust="spacing" textLength="49.1367" x="8" y="156.6641">Program</text><text fill="#000000" font-family="sans-serif" font-size="12" lengthAdjust="spacing" textLength="7.5879" x="95.084" y="156.6641">1</text><line style="stroke:#000000;stroke-width:1;" x1="93.084" x2="104.084" y1="159.1953" y2="159.1953"/><line style="stroke:#000000;stroke-width:1;" x1="93.084" x2="93.084" y1="156.1953" y2="158.1953"/><line style="stroke:#000000;stroke-width:1;" x1="104.084" x2="104.084" y1="156.1953" y2="158.1953"/><text fill="#000000" font-family="sans-serif" font-size="12" lengthAdjust="spacing" textLength="82.084" x="8" y="174.7969">d Redeemable</text><text fill="#000000" font-family="sans-serif" font-size="12" lengthAdjust="spacing" textLength="39.8906" x="95.084" y="174.7969">+1000</text><line style="stroke:#000000;stroke-width:1;" x1="93.084" x2="136.084" y1="177.3281" y2="177.3281"/><line style="stroke:#000000;stroke-width:1;" x1="93.084" x2="93.084" y1="174.3281" y2="176.3281"/><line style="stroke:#000000;stroke-width:1;" x1="136.084" x2="136.084" y1="174.3281" y2="176.3281"/><text fill="#000000" font-family="sans-serif" font-size="12" lengthAdjust="spacing" textLength="70.7637" x="8" y="192.9297">d Qualifying</text><text fill="#000000" font-family="sans-serif" font-size="12" lengthAdjust="spacing" textLength="7.5879" x="95.084" y="192.9297">0</text><line style="stroke:#000000;stroke-width:1;" x1="93.084" x2="104.084" y1="195.4609" y2="195.4609"/><line style="stroke:#000000;stroke-width:1;" x1="93.084" x2="93.084" y1="192.4609" y2="194.4609"/><line style="stroke:#000000;stroke-width:1;" x1="104.084" x2="104.084" y1="192.4609" y2="194.4609"/><text fill="#000000" font-family="sans-serif" font-size="12" lengthAdjust="spacing" textLength="41.8359" x="8" y="211.0625">Reason</text><text fill="#000000" font-family="sans-serif" font-size="12" lengthAdjust="spacing" textLength="142.8984" x="95.084" y="211.0625">Goodwill &#8212; dropped call</text><line style="stroke:#000000;stroke-width:1;" x1="93.084" x2="280.084" y1="213.5938" y2="213.5938"/><line style="stroke:#000000;stroke-width:1;" x1="93.084" x2="93.084" y1="210.5938" y2="212.5938"/><line style="stroke:#000000;stroke-width:1;" x1="280.084" x2="280.084" y1="210.5938" y2="212.5938"/><text fill="#000000" font-family="sans-serif" font-size="12" lengthAdjust="spacing" textLength="47.5371" x="8" y="229.1953">Case ref</text><text fill="#000000" font-family="sans-serif" font-size="12" lengthAdjust="spacing" textLength="89.3555" x="95.084" y="229.1953">CS-2026-8841</text><line style="stroke:#000000;stroke-width:1;" x1="93.084" x2="192.084" y1="231.7266" y2="231.7266"/><line style="stroke:#000000;stroke-width:1;" x1="93.084" x2="93.084" y1="228.7266" y2="230.7266"/><line style="stroke:#000000;stroke-width:1;" x1="192.084" x2="192.084" y1="228.7266" y2="230.7266"/><line style="stroke:#AAAAAA;stroke-width:1.5;" x1="6" x2="829" y1="241.2266" y2="241.2266"/><text fill="#000000" font-family="sans-serif" font-size="12" lengthAdjust="spacing" textLength="613.0723" x="9" y="257.3281">Submit -&gt; POST /approval-requests. BEP's workflow approves (4-eyes, caps); Loyalty applies on confirm.</text><line style="stroke:#000000;stroke-width:1;" x1="7" x2="826" y1="259.8594" y2="259.8594"/><line style="stroke:#000000;stroke-width:1;" x1="7" x2="7" y1="256.8594" y2="258.8594"/><line style="stroke:#000000;stroke-width:1;" x1="826" x2="826" y1="256.8594" y2="258.8594"/><line style="stroke:#AAAAAA;stroke-width:1;" x1="6" x2="829" y1="266.3594" y2="266.3594"/><line style="stroke:#AAAAAA;stroke-width:1;" x1="6" x2="829" y1="268.3594" y2="268.3594"/><text fill="#000000" font-family="sans-serif" font-size="12" lengthAdjust="spacing" textLength="11.0215" x="7" y="284.4609">id</text><text fill="#000000" font-family="sans-serif" font-size="12" lengthAdjust="spacing" textLength="28.0957" x="31.7637" y="284.4609">Type</text><text fill="#000000" font-family="sans-serif" font-size="12" lengthAdjust="spacing" textLength="35.6309" x="141.5527" y="284.4609">Status</text><text fill="#000000" font-family="sans-serif" font-size="12" lengthAdjust="spacing" textLength="55.6582" x="195.5371" y="284.4609">Raised by</text><text fill="#000000" font-family="sans-serif" font-size="12" lengthAdjust="spacing" textLength="45.252" x="253.1953" y="284.4609">Created</text><text fill="#000000" font-family="sans-serif" font-size="12" lengthAdjust="spacing" textLength="22.7637" x="7" y="300.5938">900</text><text fill="#000000" font-family="sans-serif" font-size="12" lengthAdjust="spacing" textLength="76.6582" x="31.7637" y="300.5938">ADJUSTMENT</text><text fill="#000000" font-family="sans-serif" font-size="12" lengthAdjust="spacing" textLength="51.9844" x="141.5527" y="300.5938">PENDING</text><text fill="#000000" font-family="sans-serif" font-size="12" lengthAdjust="spacing" textLength="26.7949" x="195.5371" y="300.5938">cs-1</text><text fill="#000000" font-family="sans-serif" font-size="12" lengthAdjust="spacing" textLength="74.5898" x="253.1953" y="300.5938">2026-05-31</text><text fill="#000000" font-family="sans-serif" font-size="12" lengthAdjust="spacing" textLength="22.7637" x="7" y="316.7266">901</text><text fill="#000000" font-family="sans-serif" font-size="12" lengthAdjust="spacing" textLength="104.6543" x="31.7637" y="316.7266">REWARD_CHANGE</text><text fill="#000000" font-family="sans-serif" font-size="12" lengthAdjust="spacing" textLength="51.9844" x="141.5527" y="316.7266">PENDING</text><text fill="#000000" font-family="sans-serif" font-size="12" lengthAdjust="spacing" textLength="38.127" x="195.5371" y="316.7266">mgr-1</text><text fill="#000000" font-family="sans-serif" font-size="12" lengthAdjust="spacing" textLength="74.5898" x="253.1953" y="316.7266">2026-05-31</text><text fill="#000000" font-family="sans-serif" font-size="12" lengthAdjust="spacing" textLength="22.7637" x="7" y="332.8594">898</text><text fill="#000000" font-family="sans-serif" font-size="12" lengthAdjust="spacing" textLength="107.7891" x="31.7637" y="332.8594">RULE_ACTIVATION</text><text fill="#000000" font-family="sans-serif" font-size="12" lengthAdjust="spacing" textLength="46.8926" x="141.5527" y="332.8594">APPLIED</text><text fill="#000000" font-family="sans-serif" font-size="12" lengthAdjust="spacing" textLength="38.127" x="195.5371" y="332.8594">mgr-1</text><text fill="#000000" font-family="sans-serif" font-size="12" lengthAdjust="spacing" textLength="74.5898" x="253.1953" y="332.8594">2026-05-30</text><line style="stroke:#000000;stroke-width:1;" x1="6" x2="30.7637" y1="271.8594" y2="271.8594"/><line style="stroke:#000000;stroke-width:1;" x1="252.1953" x2="328.7852" y1="336.3906" y2="336.3906"/><line style="stroke:#000000;stroke-width:1;" x1="30.7637" x2="140.5527" y1="271.8594" y2="271.8594"/><line style="stroke:#000000;stroke-width:1;" x1="140.5527" x2="194.5371" y1="271.8594" y2="271.8594"/><line style="stroke:#000000;stroke-width:1;" x1="194.5371" x2="252.1953" y1="271.8594" y2="271.8594"/><line style="stroke:#000000;stroke-width:1;" x1="252.1953" x2="328.7852" y1="271.8594" y2="271.8594"/><line style="stroke:#000000;stroke-width:1;" x1="6" x2="30.7637" y1="320.2578" y2="320.2578"/><line style="stroke:#000000;stroke-width:1;" x1="30.7637" x2="140.5527" y1="320.2578" y2="320.2578"/><line style="stroke:#000000;stroke-width:1;" x1="140.5527" x2="194.5371" y1="320.2578" y2="320.2578"/><line style="stroke:#000000;stroke-width:1;" x1="194.5371" x2="252.1953" y1="320.2578" y2="320.2578"/><line style="stroke:#000000;stroke-width:1;" x1="252.1953" x2="328.7852" y1="320.2578" y2="320.2578"/><line style="stroke:#000000;stroke-width:1;" x1="6" x2="30.7637" y1="304.125" y2="304.125"/><line style="stroke:#000000;stroke-width:1;" x1="30.7637" x2="140.5527" y1="304.125" y2="304.125"/><line style="stroke:#000000;stroke-width:1;" x1="140.5527" x2="194.5371" y1="304.125" y2="304.125"/><line style="stroke:#000000;stroke-width:1;" x1="194.5371" x2="252.1953" y1="304.125" y2="304.125"/><line style="stroke:#000000;stroke-width:1;" x1="252.1953" x2="328.7852" y1="304.125" y2="304.125"/><line style="stroke:#000000;stroke-width:1;" x1="6" x2="30.7637" y1="287.9922" y2="287.9922"/><line style="stroke:#000000;stroke-width:1;" x1="30.7637" x2="140.5527" y1="287.9922" y2="287.9922"/><line style="stroke:#000000;stroke-width:1;" x1="140.5527" x2="194.5371" y1="287.9922" y2="287.9922"/><line style="stroke:#000000;stroke-width:1;" x1="194.5371" x2="252.1953" y1="287.9922" y2="287.9922"/><line style="stroke:#000000;stroke-width:1;" x1="252.1953" x2="328.7852" y1="287.9922" y2="287.9922"/><line style="stroke:#000000;stroke-width:1;" x1="6" x2="30.7637" y1="336.3906" y2="336.3906"/><line style="stroke:#000000;stroke-width:1;" x1="30.7637" x2="140.5527" y1="336.3906" y2="336.3906"/><line style="stroke:#000000;stroke-width:1;" x1="140.5527" x2="194.5371" y1="336.3906" y2="336.3906"/><line style="stroke:#000000;stroke-width:1;" x1="194.5371" x2="252.1953" y1="336.3906" y2="336.3906"/><line style="stroke:#000000;stroke-width:1;" x1="6" x2="6" y1="271.8594" y2="287.9922"/><line style="stroke:#000000;stroke-width:1;" x1="140.5527" x2="140.5527" y1="304.125" y2="320.2578"/><line style="stroke:#000000;stroke-width:1;" x1="30.7637" x2="30.7637" y1="271.8594" y2="287.9922"/><line style="stroke:#000000;stroke-width:1;" x1="194.5371" x2="194.5371" y1="304.125" y2="320.2578"/><line style="stroke:#000000;stroke-width:1;" x1="140.5527" x2="140.5527" y1="271.8594" y2="287.9922"/><line style="stroke:#000000;stroke-width:1;" x1="252.1953" x2="252.1953" y1="304.125" y2="320.2578"/><line style="stroke:#000000;stroke-width:1;" x1="328.7852" x2="328.7852" y1="304.125" y2="320.2578"/><line style="stroke:#000000;stroke-width:1;" x1="194.5371" x2="194.5371" y1="271.8594" y2="287.9922"/><line style="stroke:#000000;stroke-width:1;" x1="252.1953" x2="252.1953" y1="271.8594" y2="287.9922"/><line style="stroke:#000000;stroke-width:1;" x1="328.7852" x2="328.7852" y1="271.8594" y2="287.9922"/><line style="stroke:#000000;stroke-width:1;" x1="6" x2="6" y1="320.2578" y2="336.3906"/><line style="stroke:#000000;stroke-width:1;" x1="30.7637" x2="30.7637" y1="320.2578" y2="336.3906"/><line style="stroke:#000000;stroke-width:1;" x1="6" x2="6" y1="287.9922" y2="304.125"/><line style="stroke:#000000;stroke-width:1;" x1="140.5527" x2="140.5527" y1="320.2578" y2="336.3906"/><line style="stroke:#000000;stroke-width:1;" x1="30.7637" x2="30.7637" y1="287.9922" y2="304.125"/><line style="stroke:#000000;stroke-width:1;" x1="194.5371" x2="194.5371" y1="320.2578" y2="336.3906"/><line style="stroke:#000000;stroke-width:1;" x1="140.5527" x2="140.5527" y1="287.9922" y2="304.125"/><line style="stroke:#000000;stroke-width:1;" x1="252.1953" x2="252.1953" y1="320.2578" y2="336.3906"/><line style="stroke:#000000;stroke-width:1;" x1="328.7852" x2="328.7852" y1="320.2578" y2="336.3906"/><line style="stroke:#000000;stroke-width:1;" x1="194.5371" x2="194.5371" y1="287.9922" y2="304.125"/><line style="stroke:#000000;stroke-width:1;" x1="252.1953" x2="252.1953" y1="287.9922" y2="304.125"/><line style="stroke:#000000;stroke-width:1;" x1="328.7852" x2="328.7852" y1="287.9922" y2="304.125"/><line style="stroke:#000000;stroke-width:1;" x1="6" x2="6" y1="304.125" y2="320.2578"/><line style="stroke:#000000;stroke-width:1;" x1="30.7637" x2="30.7637" y1="304.125" y2="320.2578"/><rect fill="#EEEEEE" height="18.1328" rx="5" ry="5" style="stroke:#000000;stroke-width:2.5;" width="172" x="8.5" y="357.0234"/><text fill="#000000" font-family="sans-serif" font-size="12" lengthAdjust="spacing" textLength="115.2305" x="36.8848" y="370.625">Submit for approval</text><rect fill="#EEEEEE" height="18.1328" rx="5" ry="5" style="stroke:#000000;stroke-width:2.5;" width="76" x="832.5" y="357.0234"/><text fill="#000000" font-family="sans-serif" font-size="12" lengthAdjust="spacing" textLength="43.8457" x="848.5771" y="370.625">Refresh</text><?plantuml-src TPFVRfim5CRlUOgZx69_EYXawPHkQbMQe2nJIXdGxQ9g8YSscJM3cGsBKDDg3x4dt9FCTWYfAWt9birtVlRnT-mBMI5HISGgg2KHzhgccDWrjL5P2luBCUlU0hX_0v7WQu7o3p2FnvUBEFZcn-Da3bkOyKRH3VWufmMSWz-24XuKwMZw66949G51VjP4LWeoSmpBfiExODK0qgOaq7vRcFlZppT9UXM4wTp8Zkbx4MeOHxXdPZiGu8haIo8ES6_GxxLIUuQ3vEqL3371XEHeoOXHZZpNTG_gbnencZMqM1krKsA292-UR3RX76yeO_3tzn_0WfUbEkOACROdHiWOaNN4AB7xRl-zFHmEsdIq5RezFggkbzJBd5PWdqDqdQHml2-CtRef7RWCefSIDbpyo1ZVm2w2I7Wri4b3v5kLG2bVV-oyLW6CAbrblk95HaNkw9tFphJ_BtGE5ElSdbR199jKgAgb6Hugk8MH8AWYM8Edhgj-7EhLWb4GZgVXH0zNqlRswvc3koVsEs_7UdfXSxKMeqz-E0cUiVbQjF1pTdWwrEpDB5ZuetJwrK-drw5A98fcqs3yNzPjhTONwXPQgpCkOEyotAdmMrNdJ13v7Uwi1-k255W_6Clo7BsGC_W7?></g></svg>