<svg xmlns="http://www.w3.org/2000/svg" xmlns:xlink="http://www.w3.org/1999/xlink" contentStyleType="text/css" data-diagram-type="SALT" height="278px" preserveAspectRatio="none" style="width:931px;height:278px;background:#FFFFFF;" version="1.1" viewBox="0 0 931 278" width="931px" zoomAndPan="magnify"><?plantuml 1.2026.4?><defs/><g><rect fill="#DDDDDD" height="15.1328" style="stroke:#000000;stroke-width:1;" width="695" x="6" y="6"/><text fill="#000000" font-family="sans-serif" font-size="12" lengthAdjust="spacing" textLength="157.0605" x="6" y="17.6016">Program: ^RDB_REWARDS^</text><text fill="#000000" font-family="sans-serif" font-size="12" lengthAdjust="spacing" textLength="215.2734" x="173.0605" y="17.6016">Loyalty Admin &gt; Terms &amp; Conditions</text><text fill="#000000" font-family="sans-serif" font-size="12" lengthAdjust="spacing" textLength="90.1992" x="6" y="49.8672">Current version</text><text fill="#000000" font-family="sans-serif" font-size="12" lengthAdjust="spacing" textLength="168.6738" x="705" y="49.8672">v1   (published 2025-11-01)</text><line style="stroke:#000000;stroke-width:1;" x1="703" x2="922" y1="52.3984" y2="52.3984"/><line style="stroke:#000000;stroke-width:1;" x1="703" x2="703" y1="49.3984" y2="51.3984"/><line style="stroke:#000000;stroke-width:1;" x1="922" x2="922" y1="49.3984" y2="51.3984"/><text fill="#000000" font-family="sans-serif" font-size="12" lengthAdjust="spacing" textLength="43.8457" x="7" y="85.1328">Version</text><text fill="#000000" font-family="sans-serif" font-size="12" lengthAdjust="spacing" textLength="56.373" x="52.8457" y="85.1328">Published</text><text fill="#000000" font-family="sans-serif" font-size="12" lengthAdjust="spacing" textLength="143.4316" x="129.4355" y="85.1328">Members on this version</text><text fill="#000000" font-family="sans-serif" font-size="12" lengthAdjust="spacing" textLength="13.7988" x="7" y="101.2656">v1</text><text fill="#000000" font-family="sans-serif" font-size="12" lengthAdjust="spacing" textLength="74.5898" x="52.8457" y="101.2656">2025-11-01</text><text fill="#000000" font-family="sans-serif" font-size="12" lengthAdjust="spacing" textLength="49.3242" x="129.4355" y="101.2656">248,910</text><line style="stroke:#000000;stroke-width:1;" x1="6" x2="51.8457" y1="72.5313" y2="72.5313"/><line style="stroke:#000000;stroke-width:1;" x1="128.4355" x2="273.8672" y1="104.7969" y2="104.7969"/><line style="stroke:#000000;stroke-width:1;" x1="51.8457" x2="128.4355" y1="88.6641" y2="88.6641"/><line style="stroke:#000000;stroke-width:1;" x1="51.8457" x2="128.4355" y1="72.5313" y2="72.5313"/><line style="stroke:#000000;stroke-width:1;" x1="128.4355" x2="273.8672" y1="88.6641" y2="88.6641"/><line style="stroke:#000000;stroke-width:1;" x1="128.4355" x2="273.8672" y1="72.5313" y2="72.5313"/><line style="stroke:#000000;stroke-width:1;" x1="6" x2="51.8457" y1="104.7969" y2="104.7969"/><line style="stroke:#000000;stroke-width:1;" x1="51.8457" x2="128.4355" y1="104.7969" y2="104.7969"/><line style="stroke:#000000;stroke-width:1;" x1="6" x2="51.8457" y1="88.6641" y2="88.6641"/><line style="stroke:#000000;stroke-width:1;" x1="6" x2="6" y1="72.5313" y2="88.6641"/><line style="stroke:#000000;stroke-width:1;" x1="51.8457" x2="51.8457" y1="88.6641" y2="104.7969"/><line style="stroke:#000000;stroke-width:1;" x1="51.8457" x2="51.8457" y1="72.5313" y2="88.6641"/><line style="stroke:#000000;stroke-width:1;" x1="128.4355" x2="128.4355" y1="88.6641" y2="104.7969"/><line style="stroke:#000000;stroke-width:1;" x1="273.8672" x2="273.8672" y1="88.6641" y2="104.7969"/><line style="stroke:#000000;stroke-width:1;" x1="128.4355" x2="128.4355" y1="72.5313" y2="88.6641"/><line style="stroke:#000000;stroke-width:1;" x1="273.8672" x2="273.8672" y1="72.5313" y2="88.6641"/><line style="stroke:#000000;stroke-width:1;" x1="6" x2="6" y1="88.6641" y2="104.7969"/><line style="stroke:#AAAAAA;stroke-width:1;" x1="6" x2="701" y1="109.2969" y2="109.2969"/><line style="stroke:#AAAAAA;stroke-width:1;" x1="6" x2="701" y1="111.2969" y2="111.2969"/><text fill="#000000" font-family="sans-serif" font-size="12" lengthAdjust="spacing" textLength="115.3184" x="9" y="126.3984">Publish new version</text><line style="stroke:#000000;stroke-width:1;" x1="7" x2="162" y1="128.9297" y2="128.9297"/><line style="stroke:#000000;stroke-width:1;" x1="7" x2="7" y1="125.9297" y2="127.9297"/><line style="stroke:#000000;stroke-width:1;" x1="162" x2="162" y1="125.9297" y2="127.9297"/><text fill="#000000" font-family="sans-serif" font-size="12" lengthAdjust="spacing" textLength="70.8047" x="7" y="145.5313">New version</text><text fill="#000000" font-family="sans-serif" font-size="12" lengthAdjust="spacing" textLength="7.5879" x="93.1699" y="145.5313">2</text><line style="stroke:#000000;stroke-width:1;" x1="91.1699" x2="102.1699" y1="148.0625" y2="148.0625"/><line style="stroke:#000000;stroke-width:1;" x1="91.1699" x2="91.1699" y1="145.0625" y2="147.0625"/><line style="stroke:#000000;stroke-width:1;" x1="102.1699" x2="102.1699" y1="145.0625" y2="147.0625"/><text fill="#000000" font-family="sans-serif" font-size="12" lengthAdjust="spacing" textLength="80.707" x="7" y="163.6641">Effective from</text><text fill="#000000" font-family="sans-serif" font-size="12" lengthAdjust="spacing" textLength="74.5898" x="93.1699" y="163.6641">2026-07-01</text><line style="stroke:#000000;stroke-width:1;" x1="91.1699" x2="174.1699" y1="166.1953" y2="166.1953"/><line style="stroke:#000000;stroke-width:1;" x1="91.1699" x2="91.1699" y1="163.1953" y2="165.1953"/><line style="stroke:#000000;stroke-width:1;" x1="174.1699" x2="174.1699" y1="163.1953" y2="165.1953"/><text fill="#000000" font-family="sans-serif" font-size="12" lengthAdjust="spacing" textLength="81.1699" x="7" y="181.7969">Grace window</text><text fill="#000000" font-family="sans-serif" font-size="12" lengthAdjust="spacing" textLength="235.7285" x="93.1699" y="181.7969">30 days  (earn allowed, redeem blocked)</text><line style="stroke:#000000;stroke-width:1;" x1="91.1699" x2="406.1699" y1="184.3281" y2="184.3281"/><line style="stroke:#000000;stroke-width:1;" x1="91.1699" x2="91.1699" y1="181.3281" y2="183.3281"/><line style="stroke:#000000;stroke-width:1;" x1="406.1699" x2="406.1699" y1="181.3281" y2="183.3281"/><text fill="#000000" font-family="sans-serif" font-size="12" lengthAdjust="spacing" textLength="59.7773" x="7" y="199.9297">Document</text><text fill="#000000" font-family="sans-serif" font-size="12" lengthAdjust="spacing" textLength="186.8379" x="93.1699" y="199.9297">tcs-v2-en.pdf  &#183;  tcs-v2-km.pdf</text><line style="stroke:#000000;stroke-width:1;" x1="91.1699" x2="342.1699" y1="202.4609" y2="202.4609"/><line style="stroke:#000000;stroke-width:1;" x1="91.1699" x2="91.1699" y1="199.4609" y2="201.4609"/><line style="stroke:#000000;stroke-width:1;" x1="342.1699" x2="342.1699" y1="199.4609" y2="201.4609"/><rect fill="#EEEEEE" height="18.1328" rx="5" ry="5" style="stroke:#000000;stroke-width:2.5;" width="68" x="412.6699" y="190.8281"/><text fill="#000000" font-family="sans-serif" font-size="12" lengthAdjust="spacing" textLength="40.8867" x="426.2266" y="204.4297">Upload</text><line style="stroke:#AAAAAA;stroke-width:1.5;" x1="6" x2="701" y1="217.9609" y2="217.9609"/><text fill="#000000" font-family="sans-serif" font-size="12" lengthAdjust="spacing" textLength="527.3672" x="9" y="234.0625">Submit raises a TCS_VERSION approval. On apply, members are flagged for re-acceptance.</text><line style="stroke:#000000;stroke-width:1;" x1="7" x2="698" y1="236.5938" y2="236.5938"/><line style="stroke:#000000;stroke-width:1;" x1="7" x2="7" y1="233.5938" y2="235.5938"/><line style="stroke:#000000;stroke-width:1;" x1="698" x2="698" y1="233.5938" y2="235.5938"/><line style="stroke:#AAAAAA;stroke-width:1;" x1="6" x2="701" y1="243.0938" y2="243.0938"/><line style="stroke:#AAAAAA;stroke-width:1;" x1="6" x2="701" y1="245.0938" y2="245.0938"/><rect fill="#EEEEEE" height="18.1328" rx="5" ry="5" style="stroke:#000000;stroke-width:2.5;" width="284" x="8.5" y="251.0938"/><text fill="#000000" font-family="sans-serif" font-size="12" lengthAdjust="spacing" textLength="205.2305" x="47.8848" y="264.6953">Submit for approval (TCS_VERSION)</text><rect fill="#EEEEEE" height="18.1328" rx="5" ry="5" style="stroke:#000000;stroke-width:2.5;" width="68" x="704.5" y="251.0938"/><text fill="#000000" font-family="sans-serif" font-size="12" lengthAdjust="spacing" textLength="38.6777" x="719.1611" y="264.6953">Cancel</text><?plantuml-src JL9TQzim57tthpXuC9eH6zlhFg6ZNH96OMjBqdKFfIsATPsAMfAHP8UGjNzhx_jbanodtOC4zzvpphtdIiVMCUCignrQIoPPjO9Jqeh4bJRQHi3s3IwCNXacF-DsFlrwDv_zEfbF5xVuZUzwuuaRd70f5BxWaeoqU8s9LbmuePN5evT8_Pcqnf1owCXON_3akCi173JjiXRsdZYAh7YNv7cIvQDuO6rV-GjNpvoBPp1yz8FaqfVWI-vUsBrseFJQFUX5jOyEFuu_vPc7XC6EZlmL3w9GjDvBXFx1F73sajpfnKNS5sPLHQKJ7Q4oMlQ5h7YVP1zyfntYcs4bOIqKr-iTzMq6pZRMkoPc55XTwpNnCGnn8ebbhSi7ugCTVQhBLeQLxPt4_acIhaX8fGslWBz_W27r84Cgzg1h_6ngpJXk1ezFJy7ZebrAuM2Oi6J1S3bPt5tDvelJypEmfZ6wOtMASnM2UZE675RBZFTNizNAhxpIna-QiBAanZ5LKXhlTtYDeK70xFLmy5-N4MxwwIQ1MFlf7gDZKZnyl2ZAqx2xzF0V?></g></svg>