<svg xmlns="http://www.w3.org/2000/svg" xmlns:xlink="http://www.w3.org/1999/xlink" contentStyleType="text/css" data-diagram-type="SALT" height="185px" preserveAspectRatio="none" style="width:662px;height:185px;background:#FFFFFF;" version="1.1" viewBox="0 0 662 185" width="662px" zoomAndPan="magnify"><?plantuml 1.2026.4?><defs/><g><rect fill="#DDDDDD" height="15.1328" style="stroke:#000000;stroke-width:1;" width="575" x="6" y="6"/><text fill="#000000" font-family="sans-serif" font-size="12" lengthAdjust="spacing" textLength="157.0605" x="6" y="17.6016">Program: ^RDB_REWARDS^</text><text fill="#000000" font-family="sans-serif" font-size="12" lengthAdjust="spacing" textLength="170.4902" x="173.0605" y="17.6016">Loyalty Admin &gt; Fraud Alerts</text><text fill="#000000" font-family="sans-serif" font-size="12" lengthAdjust="spacing" textLength="88.9629" x="353.5508" y="17.6016">role: fraud-ops</text><text fill="#000000" font-family="sans-serif" font-size="12" lengthAdjust="spacing" textLength="258.0703" x="6" y="49.8672">Filter program ^RDB_REWARDS^   [ Refresh ]</text><text fill="#000000" font-family="sans-serif" font-size="12" lengthAdjust="spacing" textLength="47.373" x="7" y="83.1328">Member</text><text fill="#000000" font-family="sans-serif" font-size="12" lengthAdjust="spacing" textLength="50.666" x="56.373" y="83.1328">Anomaly</text><text fill="#000000" font-family="sans-serif" font-size="12" lengthAdjust="spacing" textLength="55.0371" x="189.3945" y="83.1328">Observed</text><text fill="#000000" font-family="sans-serif" font-size="12" lengthAdjust="spacing" textLength="58.5879" x="246.4316" y="83.1328">Threshold</text><text fill="#000000" font-family="sans-serif" font-size="12" lengthAdjust="spacing" textLength="51.7207" x="307.0195" y="83.1328">Detected</text><text fill="#000000" font-family="sans-serif" font-size="12" lengthAdjust="spacing" textLength="15.1758" x="7" y="99.2656">42</text><text fill="#000000" font-family="sans-serif" font-size="12" lengthAdjust="spacing" textLength="131.0215" x="56.373" y="99.2656">EARN_VELOCITY_SPIKE</text><text fill="#000000" font-family="sans-serif" font-size="12" lengthAdjust="spacing" textLength="44.0977" x="189.3945" y="99.2656">12.5 /h</text><text fill="#000000" font-family="sans-serif" font-size="12" lengthAdjust="spacing" textLength="36.5098" x="246.4316" y="99.2656">5.0 /h</text><text fill="#000000" font-family="sans-serif" font-size="12" lengthAdjust="spacing" textLength="112.5352" x="307.0195" y="99.2656">2026-05-31 09:14</text><text fill="#000000" font-family="sans-serif" font-size="12" lengthAdjust="spacing" textLength="30.3516" x="7" y="115.3984">1188</text><text fill="#000000" font-family="sans-serif" font-size="12" lengthAdjust="spacing" textLength="131.0215" x="56.373" y="115.3984">EARN_VELOCITY_SPIKE</text><text fill="#000000" font-family="sans-serif" font-size="12" lengthAdjust="spacing" textLength="36.5098" x="189.3945" y="115.3984">7.2 /h</text><text fill="#000000" font-family="sans-serif" font-size="12" lengthAdjust="spacing" textLength="36.5098" x="246.4316" y="115.3984">5.0 /h</text><text fill="#000000" font-family="sans-serif" font-size="12" lengthAdjust="spacing" textLength="112.5352" x="307.0195" y="115.3984">2026-05-31 08:50</text><line style="stroke:#000000;stroke-width:1;" x1="6" x2="55.373" y1="70.5313" y2="70.5313"/><line style="stroke:#000000;stroke-width:1;" x1="188.3945" x2="245.4316" y1="102.7969" y2="102.7969"/><line style="stroke:#000000;stroke-width:1;" x1="55.373" x2="188.3945" y1="70.5313" y2="70.5313"/><line style="stroke:#000000;stroke-width:1;" x1="245.4316" x2="306.0195" y1="102.7969" y2="102.7969"/><line style="stroke:#000000;stroke-width:1;" x1="188.3945" x2="245.4316" y1="70.5313" y2="70.5313"/><line style="stroke:#000000;stroke-width:1;" x1="306.0195" x2="420.5547" y1="102.7969" y2="102.7969"/><line style="stroke:#000000;stroke-width:1;" x1="245.4316" x2="306.0195" y1="70.5313" y2="70.5313"/><line style="stroke:#000000;stroke-width:1;" x1="306.0195" x2="420.5547" y1="70.5313" y2="70.5313"/><line style="stroke:#000000;stroke-width:1;" x1="6" x2="55.373" y1="118.9297" y2="118.9297"/><line style="stroke:#000000;stroke-width:1;" x1="55.373" x2="188.3945" y1="118.9297" y2="118.9297"/><line style="stroke:#000000;stroke-width:1;" x1="188.3945" x2="245.4316" y1="118.9297" y2="118.9297"/><line style="stroke:#000000;stroke-width:1;" x1="6" x2="55.373" y1="86.6641" y2="86.6641"/><line style="stroke:#000000;stroke-width:1;" x1="245.4316" x2="306.0195" y1="118.9297" y2="118.9297"/><line style="stroke:#000000;stroke-width:1;" x1="55.373" x2="188.3945" y1="86.6641" y2="86.6641"/><line style="stroke:#000000;stroke-width:1;" x1="306.0195" x2="420.5547" y1="118.9297" y2="118.9297"/><line style="stroke:#000000;stroke-width:1;" x1="188.3945" x2="245.4316" y1="86.6641" y2="86.6641"/><line style="stroke:#000000;stroke-width:1;" x1="245.4316" x2="306.0195" y1="86.6641" y2="86.6641"/><line style="stroke:#000000;stroke-width:1;" x1="306.0195" x2="420.5547" y1="86.6641" y2="86.6641"/><line style="stroke:#000000;stroke-width:1;" x1="6" x2="55.373" y1="102.7969" y2="102.7969"/><line style="stroke:#000000;stroke-width:1;" x1="55.373" x2="188.3945" y1="102.7969" y2="102.7969"/><line style="stroke:#000000;stroke-width:1;" x1="6" x2="6" y1="70.5313" y2="86.6641"/><line style="stroke:#000000;stroke-width:1;" x1="188.3945" x2="188.3945" y1="102.7969" y2="118.9297"/><line style="stroke:#000000;stroke-width:1;" x1="55.373" x2="55.373" y1="70.5313" y2="86.6641"/><line style="stroke:#000000;stroke-width:1;" x1="245.4316" x2="245.4316" y1="102.7969" y2="118.9297"/><line style="stroke:#000000;stroke-width:1;" x1="188.3945" x2="188.3945" y1="70.5313" y2="86.6641"/><line style="stroke:#000000;stroke-width:1;" x1="306.0195" x2="306.0195" y1="102.7969" y2="118.9297"/><line style="stroke:#000000;stroke-width:1;" x1="420.5547" x2="420.5547" y1="102.7969" y2="118.9297"/><line style="stroke:#000000;stroke-width:1;" x1="245.4316" x2="245.4316" y1="70.5313" y2="86.6641"/><line style="stroke:#000000;stroke-width:1;" x1="306.0195" x2="306.0195" y1="70.5313" y2="86.6641"/><line style="stroke:#000000;stroke-width:1;" x1="420.5547" x2="420.5547" y1="70.5313" y2="86.6641"/><line style="stroke:#000000;stroke-width:1;" x1="6" x2="6" y1="86.6641" y2="102.7969"/><line style="stroke:#000000;stroke-width:1;" x1="55.373" x2="55.373" y1="86.6641" y2="102.7969"/><line style="stroke:#000000;stroke-width:1;" x1="188.3945" x2="188.3945" y1="86.6641" y2="102.7969"/><line style="stroke:#000000;stroke-width:1;" x1="245.4316" x2="245.4316" y1="86.6641" y2="102.7969"/><line style="stroke:#000000;stroke-width:1;" x1="306.0195" x2="306.0195" y1="86.6641" y2="102.7969"/><line style="stroke:#000000;stroke-width:1;" x1="420.5547" x2="420.5547" y1="86.6641" y2="102.7969"/><line style="stroke:#000000;stroke-width:1;" x1="6" x2="6" y1="102.7969" y2="118.9297"/><line style="stroke:#000000;stroke-width:1;" x1="55.373" x2="55.373" y1="102.7969" y2="118.9297"/><line style="stroke:#AAAAAA;stroke-width:1.5;" x1="6" x2="581" y1="124.4297" y2="124.4297"/><text fill="#000000" font-family="sans-serif" font-size="12" lengthAdjust="spacing" textLength="411.1875" x="9" y="140.5313">Degraded-availability feature &#8212; alerts may lag during a bridge restart.</text><line style="stroke:#000000;stroke-width:1;" x1="7" x2="578" y1="143.0625" y2="143.0625"/><line style="stroke:#000000;stroke-width:1;" x1="7" x2="7" y1="140.0625" y2="142.0625"/><line style="stroke:#000000;stroke-width:1;" x1="578" x2="578" y1="140.0625" y2="142.0625"/><line style="stroke:#AAAAAA;stroke-width:1;" x1="6" x2="581" y1="149.5625" y2="149.5625"/><line style="stroke:#AAAAAA;stroke-width:1;" x1="6" x2="581" y1="151.5625" y2="151.5625"/><rect fill="#EEEEEE" height="18.1328" rx="5" ry="5" style="stroke:#000000;stroke-width:2.5;" width="108" x="8.5" y="157.5625"/><text fill="#000000" font-family="sans-serif" font-size="12" lengthAdjust="spacing" textLength="83.0449" x="20.9775" y="171.1641">Open member</text><rect fill="#EEEEEE" height="18.1328" rx="5" ry="5" style="stroke:#000000;stroke-width:2.5;" width="68" x="584.5" y="157.5625"/><text fill="#000000" font-family="sans-serif" font-size="12" lengthAdjust="spacing" textLength="38.1855" x="599.4072" y="171.1641">Export</text><?plantuml-src VP7TIiD048NlynG7lHCIazXgBLGQRGJnfoKLHOgMhJjD5pP9sIJ5qYe-X4_eapXhUo62BkmmxCxvc3dJBIjXgbBe2dL9narh9ScjbJirefREoW5MUnYO8ZKYQ-CfwPsEa_W-Idh39wnnLInPkaGaCvNZ1ETMXKWJC_dR59hQ-4QvnRp4A-CylkTALsGmts1_KO4H4feQAcTut0fMknnmJTc4PMj4UP49lSJFiqP_mXCiI79wExFoGjkyHnKzLoGjeH5kQ-CekHdVnLVziulRX_5mS74PysiGUatipsn1q_E_Cvk7VdZe-att881_t0uQbXG4hTO_f2CltCZ_9hNQJPz9rfEtDmuxFM8t94bNB8JIOgAqOckd9AhQ43xVFo0sncPY2IrIoDgeF8N0n2YP4dXckqrlXscTZcEDxCyfHxRnxP4R625-cHUcOcTVdIxbqgxUSGBFTkOrlW00?></g></svg>