<svg xmlns="http://www.w3.org/2000/svg" xmlns:xlink="http://www.w3.org/1999/xlink" contentStyleType="text/css" data-diagram-type="SALT" height="455px" preserveAspectRatio="none" style="width:1030px;height:455px;background:#FFFFFF;" version="1.1" viewBox="0 0 1030 455" width="1030px" zoomAndPan="magnify"><?plantuml 1.2026.4?><defs/><g><rect fill="#DDDDDD" height="15.1328" style="stroke:#000000;stroke-width:1;" width="481.2363" x="6" y="6"/><text fill="#000000" font-family="sans-serif" font-size="12" lengthAdjust="spacing" textLength="157.0605" x="6" y="17.6016">Program: ^RDB_REWARDS^</text><text fill="#000000" font-family="sans-serif" font-size="12" lengthAdjust="spacing" textLength="303.1758" x="173.0605" y="17.6016">Loyalty Admin &gt; Earning Rules &gt; Card-spend tiered</text><text fill="#000000" font-family="sans-serif" font-size="12" lengthAdjust="spacing" textLength="60.9492" x="7" y="50.8672">Rule name</text><text fill="#000000" font-family="sans-serif" font-size="12" lengthAdjust="spacing" textLength="138.0176" x="79.9629" y="50.8672">Card-spend tiered MCC</text><line style="stroke:#000000;stroke-width:1;" x1="77.9629" x2="456.9629" y1="53.3984" y2="53.3984"/><line style="stroke:#000000;stroke-width:1;" x1="77.9629" x2="77.9629" y1="50.3984" y2="52.3984"/><line style="stroke:#000000;stroke-width:1;" x1="456.9629" x2="456.9629" y1="50.3984" y2="52.3984"/><text fill="#000000" font-family="sans-serif" font-size="12" lengthAdjust="spacing" textLength="67.9629" x="7" y="69">Earn source</text><rect fill="#EEEEEE" height="17.1328" style="stroke:#000000;stroke-width:1;" width="95" x="76.9629" y="57.3984"/><text fill="#000000" font-family="sans-serif" font-size="12" lengthAdjust="spacing" textLength="76.6113" x="78.9629" y="71">CARD_SPEND</text><line style="stroke:#000000;stroke-width:1;" x1="160.9629" x2="160.9629" y1="57.3984" y2="74.5313"/><polygon fill="#000000" points="163.9629,63.3984,169.9629,63.3984,166.9629,69.5313" style="stroke:#000000;stroke-width:1;stroke-linejoin:miter;stroke-miterlimit:10;"/><text fill="#000000" font-family="sans-serif" font-size="12" lengthAdjust="spacing" textLength="35.6309" x="7" y="89.1328">Status</text><text fill="#000000" font-family="sans-serif" font-size="12" lengthAdjust="spacing" textLength="64.0664" x="79.9629" y="89.1328">DRAFT &#183; v1</text><line style="stroke:#000000;stroke-width:1;" x1="77.9629" x2="456.9629" y1="91.6641" y2="91.6641"/><line style="stroke:#000000;stroke-width:1;" x1="77.9629" x2="77.9629" y1="88.6641" y2="90.6641"/><line style="stroke:#000000;stroke-width:1;" x1="456.9629" x2="456.9629" y1="88.6641" y2="90.6641"/><line style="stroke:#AAAAAA;stroke-width:1;" x1="6" x2="487.2363" y1="99.1641" y2="99.1641"/><line style="stroke:#AAAAAA;stroke-width:1;" x1="6" x2="487.2363" y1="101.1641" y2="101.1641"/><text fill="#000000" font-family="sans-serif" font-size="12" lengthAdjust="spacing" textLength="385.1133" x="6" y="116.2656">Hit policy ^FIRST^    Rounding ^FLOOR^    [X] Apply tier multiplier</text><text fill="#000000" font-family="sans-serif" font-size="12" lengthAdjust="spacing" textLength="21.5273" x="7" y="149.5313">row</text><text fill="#000000" font-family="sans-serif" font-size="12" lengthAdjust="spacing" textLength="58.1191" x="30.5273" y="149.5313">when mcc</text><text fill="#000000" font-family="sans-serif" font-size="12" lengthAdjust="spacing" textLength="84.5859" x="119.5449" y="149.5313">when currency</text><text fill="#000000" font-family="sans-serif" font-size="12" lengthAdjust="spacing" textLength="79.207" x="206.1309" y="149.5313">when amount</text><text fill="#000000" font-family="sans-serif" font-size="12" lengthAdjust="spacing" textLength="25.6699" x="287.3379" y="149.5313">earn</text><text fill="#000000" font-family="sans-serif" font-size="12" lengthAdjust="spacing" textLength="19.1484" x="319.2969" y="149.5313">per</text><text fill="#000000" font-family="sans-serif" font-size="12" lengthAdjust="spacing" textLength="36.4453" x="340.4453" y="149.5313">points</text><text fill="#000000" font-family="sans-serif" font-size="12" lengthAdjust="spacing" textLength="7.5879" x="7" y="165.6641">1</text><text fill="#000000" font-family="sans-serif" font-size="12" lengthAdjust="spacing" textLength="87.0176" x="30.5273" y="165.6641">in [5812,5813]</text><text fill="#000000" font-family="sans-serif" font-size="16" font-weight="700" lengthAdjust="spacing" textLength="33.6094" x="119.5449" y="169.5313">USD</text><text fill="#000000" font-family="sans-serif" font-size="12" lengthAdjust="spacing" textLength="29.959" x="287.3379" y="165.6641">RATE</text><text fill="#000000" font-family="sans-serif" font-size="12" lengthAdjust="spacing" textLength="7.5879" x="319.2969" y="165.6641">1</text><text fill="#000000" font-family="sans-serif" font-size="12" lengthAdjust="spacing" textLength="7.5879" x="340.4453" y="165.6641">3</text><text fill="#000000" font-family="sans-serif" font-size="12" lengthAdjust="spacing" textLength="7.5879" x="7" y="186.5078">2</text><text fill="#000000" font-family="sans-serif" font-size="12" lengthAdjust="spacing" textLength="87.0176" x="30.5273" y="186.5078">in [5411,5422]</text><text fill="#000000" font-family="sans-serif" font-size="16" font-weight="700" lengthAdjust="spacing" textLength="33.6094" x="119.5449" y="190.375">USD</text><text fill="#000000" font-family="sans-serif" font-size="12" lengthAdjust="spacing" textLength="29.959" x="287.3379" y="186.5078">RATE</text><text fill="#000000" font-family="sans-serif" font-size="12" lengthAdjust="spacing" textLength="7.5879" x="319.2969" y="186.5078">1</text><text fill="#000000" font-family="sans-serif" font-size="12" lengthAdjust="spacing" textLength="7.5879" x="340.4453" y="186.5078">2</text><text fill="#000000" font-family="sans-serif" font-size="12" lengthAdjust="spacing" textLength="7.5879" x="7" y="207.3516">3</text><text fill="#000000" font-family="sans-serif" font-size="16" font-weight="700" lengthAdjust="spacing" textLength="33.6094" x="119.5449" y="211.2188">USD</text><text fill="#000000" font-family="sans-serif" font-size="12" lengthAdjust="spacing" textLength="30.4629" x="206.1309" y="207.3516">&gt;= 1</text><text fill="#000000" font-family="sans-serif" font-size="12" lengthAdjust="spacing" textLength="29.959" x="287.3379" y="207.3516">RATE</text><text fill="#000000" font-family="sans-serif" font-size="12" lengthAdjust="spacing" textLength="7.5879" x="319.2969" y="207.3516">1</text><text fill="#000000" font-family="sans-serif" font-size="12" lengthAdjust="spacing" textLength="7.5879" x="340.4453" y="207.3516">1</text><line style="stroke:#000000;stroke-width:1;" x1="6" x2="29.5273" y1="136.9297" y2="136.9297"/><line style="stroke:#000000;stroke-width:1;" x1="286.3379" x2="318.2969" y1="215.5938" y2="215.5938"/><line style="stroke:#000000;stroke-width:1;" x1="29.5273" x2="118.5449" y1="136.9297" y2="136.9297"/><line style="stroke:#000000;stroke-width:1;" x1="318.2969" x2="339.4453" y1="215.5938" y2="215.5938"/><line style="stroke:#000000;stroke-width:1;" x1="118.5449" x2="205.1309" y1="136.9297" y2="136.9297"/><line style="stroke:#000000;stroke-width:1;" x1="339.4453" x2="377.8906" y1="215.5938" y2="215.5938"/><line style="stroke:#000000;stroke-width:1;" x1="205.1309" x2="286.3379" y1="136.9297" y2="136.9297"/><line style="stroke:#000000;stroke-width:1;" x1="286.3379" x2="318.2969" y1="136.9297" y2="136.9297"/><line style="stroke:#000000;stroke-width:1;" x1="318.2969" x2="339.4453" y1="136.9297" y2="136.9297"/><line style="stroke:#000000;stroke-width:1;" x1="339.4453" x2="377.8906" y1="136.9297" y2="136.9297"/><line style="stroke:#000000;stroke-width:1;" x1="6" x2="29.5273" y1="194.75" y2="194.75"/><line style="stroke:#000000;stroke-width:1;" x1="29.5273" x2="118.5449" y1="194.75" y2="194.75"/><line style="stroke:#000000;stroke-width:1;" x1="118.5449" x2="205.1309" y1="194.75" y2="194.75"/><line style="stroke:#000000;stroke-width:1;" x1="205.1309" x2="286.3379" y1="194.75" y2="194.75"/><line style="stroke:#000000;stroke-width:1;" x1="286.3379" x2="318.2969" y1="194.75" y2="194.75"/><line style="stroke:#000000;stroke-width:1;" x1="318.2969" x2="339.4453" y1="194.75" y2="194.75"/><line style="stroke:#000000;stroke-width:1;" x1="339.4453" x2="377.8906" y1="194.75" y2="194.75"/><line style="stroke:#000000;stroke-width:1;" x1="6" x2="29.5273" y1="173.9063" y2="173.9063"/><line style="stroke:#000000;stroke-width:1;" x1="29.5273" x2="118.5449" y1="173.9063" y2="173.9063"/><line style="stroke:#000000;stroke-width:1;" x1="118.5449" x2="205.1309" y1="173.9063" y2="173.9063"/><line style="stroke:#000000;stroke-width:1;" x1="205.1309" x2="286.3379" y1="173.9063" y2="173.9063"/><line style="stroke:#000000;stroke-width:1;" x1="286.3379" x2="318.2969" y1="173.9063" y2="173.9063"/><line style="stroke:#000000;stroke-width:1;" x1="318.2969" x2="339.4453" y1="173.9063" y2="173.9063"/><line style="stroke:#000000;stroke-width:1;" x1="339.4453" x2="377.8906" y1="173.9063" y2="173.9063"/><line style="stroke:#000000;stroke-width:1;" x1="6" x2="29.5273" y1="153.0625" y2="153.0625"/><line style="stroke:#000000;stroke-width:1;" x1="29.5273" x2="118.5449" y1="153.0625" y2="153.0625"/><line style="stroke:#000000;stroke-width:1;" x1="118.5449" x2="205.1309" y1="153.0625" y2="153.0625"/><line style="stroke:#000000;stroke-width:1;" x1="205.1309" x2="286.3379" y1="153.0625" y2="153.0625"/><line style="stroke:#000000;stroke-width:1;" x1="286.3379" x2="318.2969" y1="153.0625" y2="153.0625"/><line style="stroke:#000000;stroke-width:1;" x1="318.2969" x2="339.4453" y1="153.0625" y2="153.0625"/><line style="stroke:#000000;stroke-width:1;" x1="339.4453" x2="377.8906" y1="153.0625" y2="153.0625"/><line style="stroke:#000000;stroke-width:1;" x1="6" x2="29.5273" y1="215.5938" y2="215.5938"/><line style="stroke:#000000;stroke-width:1;" x1="29.5273" x2="118.5449" y1="215.5938" y2="215.5938"/><line style="stroke:#000000;stroke-width:1;" x1="118.5449" x2="205.1309" y1="215.5938" y2="215.5938"/><line style="stroke:#000000;stroke-width:1;" x1="205.1309" x2="286.3379" y1="215.5938" y2="215.5938"/><line style="stroke:#000000;stroke-width:1;" x1="6" x2="6" y1="136.9297" y2="153.0625"/><line style="stroke:#000000;stroke-width:1;" x1="29.5273" x2="29.5273" y1="136.9297" y2="153.0625"/><line style="stroke:#000000;stroke-width:1;" x1="118.5449" x2="118.5449" y1="136.9297" y2="153.0625"/><line style="stroke:#000000;stroke-width:1;" x1="205.1309" x2="205.1309" y1="136.9297" y2="153.0625"/><line style="stroke:#000000;stroke-width:1;" x1="286.3379" x2="286.3379" y1="136.9297" y2="153.0625"/><line style="stroke:#000000;stroke-width:1;" x1="318.2969" x2="318.2969" y1="136.9297" y2="153.0625"/><line style="stroke:#000000;stroke-width:1;" x1="339.4453" x2="339.4453" y1="136.9297" y2="153.0625"/><line style="stroke:#000000;stroke-width:1;" x1="377.8906" x2="377.8906" y1="136.9297" y2="153.0625"/><line style="stroke:#000000;stroke-width:1;" x1="6" x2="6" y1="194.75" y2="215.5938"/><line style="stroke:#000000;stroke-width:1;" x1="118.5449" x2="118.5449" y1="194.75" y2="215.5938"/><line style="stroke:#000000;stroke-width:1;" x1="205.1309" x2="205.1309" y1="194.75" y2="215.5938"/><line style="stroke:#000000;stroke-width:1;" x1="286.3379" x2="286.3379" y1="194.75" y2="215.5938"/><line style="stroke:#000000;stroke-width:1;" x1="318.2969" x2="318.2969" y1="194.75" y2="215.5938"/><line style="stroke:#000000;stroke-width:1;" x1="339.4453" x2="339.4453" y1="194.75" y2="215.5938"/><line style="stroke:#000000;stroke-width:1;" x1="377.8906" x2="377.8906" y1="194.75" y2="215.5938"/><line style="stroke:#000000;stroke-width:1;" x1="6" x2="6" y1="173.9063" y2="194.75"/><line style="stroke:#000000;stroke-width:1;" x1="29.5273" x2="29.5273" y1="173.9063" y2="194.75"/><line style="stroke:#000000;stroke-width:1;" x1="118.5449" x2="118.5449" y1="173.9063" y2="194.75"/><line style="stroke:#000000;stroke-width:1;" x1="286.3379" x2="286.3379" y1="173.9063" y2="194.75"/><line style="stroke:#000000;stroke-width:1;" x1="318.2969" x2="318.2969" y1="173.9063" y2="194.75"/><line style="stroke:#000000;stroke-width:1;" x1="339.4453" x2="339.4453" y1="173.9063" y2="194.75"/><line style="stroke:#000000;stroke-width:1;" x1="377.8906" x2="377.8906" y1="173.9063" y2="194.75"/><line style="stroke:#000000;stroke-width:1;" x1="6" x2="6" y1="153.0625" y2="173.9063"/><line style="stroke:#000000;stroke-width:1;" x1="29.5273" x2="29.5273" y1="153.0625" y2="173.9063"/><line style="stroke:#000000;stroke-width:1;" x1="118.5449" x2="118.5449" y1="153.0625" y2="173.9063"/><line style="stroke:#000000;stroke-width:1;" x1="286.3379" x2="286.3379" y1="153.0625" y2="173.9063"/><line style="stroke:#000000;stroke-width:1;" x1="318.2969" x2="318.2969" y1="153.0625" y2="173.9063"/><line style="stroke:#000000;stroke-width:1;" x1="339.4453" x2="339.4453" y1="153.0625" y2="173.9063"/><line style="stroke:#000000;stroke-width:1;" x1="377.8906" x2="377.8906" y1="153.0625" y2="173.9063"/><rect fill="#EEEEEE" height="18.1328" rx="5" ry="5" style="stroke:#000000;stroke-width:2.5;" width="92" x="8.5" y="236.2266"/><text fill="#000000" font-family="sans-serif" font-size="12" lengthAdjust="spacing" textLength="62.0449" x="23.4775" y="249.8281">+ Add row</text><rect fill="#EEEEEE" height="18.1328" rx="5" ry="5" style="stroke:#000000;stroke-width:2.5;" width="84" x="490.7363" y="236.2266"/><text fill="#000000" font-family="sans-serif" font-size="12" lengthAdjust="spacing" textLength="56.4844" x="504.4941" y="249.8281">- Remove</text><rect fill="#EEEEEE" height="18.1328" rx="5" ry="5" style="stroke:#000000;stroke-width:2.5;" width="76" x="813.7363" y="236.2266"/><text fill="#000000" font-family="sans-serif" font-size="12" lengthAdjust="spacing" textLength="49.4004" x="827.0361" y="249.8281">Move up</text><rect fill="#EEEEEE" height="18.1328" rx="5" ry="5" style="stroke:#000000;stroke-width:2.5;" width="92" x="929.4082" y="236.2266"/><text fill="#000000" font-family="sans-serif" font-size="12" lengthAdjust="spacing" textLength="66.0176" x="942.3994" y="249.8281">Move down</text><line style="stroke:#AAAAAA;stroke-width:1;" x1="6" x2="487.2363" y1="261.3594" y2="261.3594"/><line style="stroke:#AAAAAA;stroke-width:1;" x1="6" x2="487.2363" y1="263.3594" y2="263.3594"/><text fill="#000000" font-family="sans-serif" font-size="12" lengthAdjust="spacing" textLength="122.3906" x="6" y="278.4609">Caps     perEventMax</text><text fill="#000000" font-family="sans-serif" font-size="12" lengthAdjust="spacing" textLength="153.5508" x="488.2363" y="278.4609">"500"    perMemberPerDay</text><text fill="#000000" font-family="sans-serif" font-size="12" lengthAdjust="spacing" textLength="30.3516" x="814.2363" y="278.4609">1000</text><line style="stroke:#000000;stroke-width:1;" x1="812.2363" x2="847.2363" y1="280.9922" y2="280.9922"/><line style="stroke:#000000;stroke-width:1;" x1="812.2363" x2="812.2363" y1="277.9922" y2="279.9922"/><line style="stroke:#000000;stroke-width:1;" x1="847.2363" x2="847.2363" y1="277.9922" y2="279.9922"/><text fill="#000000" font-family="sans-serif" font-size="12" lengthAdjust="spacing" textLength="82.3125" x="8" y="312.7266">Decision table</text><line style="stroke:#000000;stroke-width:1;" x1="6" x2="6" y1="301.125" y2="315.2578"/><line style="stroke:#000000;stroke-width:1;" x1="6" x2="93.3125" y1="301.125" y2="301.125"/><line style="stroke:#000000;stroke-width:1;" x1="93.3125" x2="93.3125" y1="301.125" y2="315.2578"/><line style="stroke:#000000;stroke-width:1;" x1="93.3125" x2="103.3125" y1="315.2578" y2="315.2578"/><text fill="#000000" font-family="sans-serif" font-size="12" lengthAdjust="spacing" textLength="122.0918" x="105.3125" y="312.7266">Raw JSON (advanced)</text><line style="stroke:#000000;stroke-width:1;" x1="103.3125" x2="103.3125" y1="301.125" y2="315.2578"/><line style="stroke:#000000;stroke-width:1;" x1="103.3125" x2="230.4043" y1="301.125" y2="301.125"/><line style="stroke:#000000;stroke-width:1;" x1="230.4043" x2="230.4043" y1="301.125" y2="315.2578"/><line style="stroke:#000000;stroke-width:1;" x1="230.4043" x2="240.4043" y1="315.2578" y2="315.2578"/><rect fill="#EEEEEE" height="18.1328" rx="5" ry="5" style="stroke:#000000;stroke-width:2.5;" width="204" x="8.5" y="335.8906"/><text fill="#000000" font-family="sans-serif" font-size="12" lengthAdjust="spacing" textLength="140.8418" x="40.0791" y="349.4922">Validate against schema</text><text fill="#000000" font-family="sans-serif" font-size="12" lengthAdjust="spacing" textLength="134.8594" x="491.2363" y="344.9922">schema: OK &#8212; 0 errors</text><line style="stroke:#000000;stroke-width:1;" x1="489.2363" x2="660.2363" y1="347.5234" y2="347.5234"/><line style="stroke:#000000;stroke-width:1;" x1="489.2363" x2="489.2363" y1="344.5234" y2="346.5234"/><line style="stroke:#000000;stroke-width:1;" x1="660.2363" x2="660.2363" y1="344.5234" y2="346.5234"/><line style="stroke:#AAAAAA;stroke-width:1.5;" x1="6" x2="487.2363" y1="362.0234" y2="362.0234"/><text fill="#000000" font-family="sans-serif" font-size="12" lengthAdjust="spacing" textLength="273.7852" x="6" y="378.125">Dry-run replay ^last 30 days^   [ Run dry-run ]</text><text fill="#000000" font-family="sans-serif" font-size="12" lengthAdjust="spacing" textLength="90.7148" x="6" y="410.3906">Matched events</text><text fill="#000000" font-family="sans-serif" font-size="12" lengthAdjust="spacing" textLength="105.2109" x="488.2363" y="410.3906">"12,403"     Points</text><text fill="#000000" font-family="sans-serif" font-size="12" lengthAdjust="spacing" textLength="113.6719" x="811.2363" y="410.3906">"1.84M"     Est. cost</text><text fill="#000000" font-family="sans-serif" font-size="12" lengthAdjust="spacing" textLength="41.7363" x="929.9082" y="410.3906">$1,840</text><line style="stroke:#000000;stroke-width:1;" x1="927.9082" x2="978.9082" y1="412.9219" y2="412.9219"/><line style="stroke:#000000;stroke-width:1;" x1="927.9082" x2="927.9082" y1="409.9219" y2="411.9219"/><line style="stroke:#000000;stroke-width:1;" x1="978.9082" x2="978.9082" y1="409.9219" y2="411.9219"/><line style="stroke:#AAAAAA;stroke-width:1;" x1="6" x2="487.2363" y1="419.4219" y2="419.4219"/><line style="stroke:#AAAAAA;stroke-width:1;" x1="6" x2="487.2363" y1="421.4219" y2="421.4219"/><rect fill="#EEEEEE" height="18.1328" rx="5" ry="5" style="stroke:#000000;stroke-width:2.5;" width="100" x="8.5" y="427.4219"/><text fill="#000000" font-family="sans-serif" font-size="12" lengthAdjust="spacing" textLength="57.7734" x="29.6133" y="441.0234">Save draft</text><rect fill="#EEEEEE" height="18.1328" rx="5" ry="5" style="stroke:#000000;stroke-width:2.5;" width="316" x="490.7363" y="427.4219"/><text fill="#000000" font-family="sans-serif" font-size="12" lengthAdjust="spacing" textLength="234.6211" x="531.4258" y="441.0234">Submit for approval (RULE_ACTIVATION)</text><rect fill="#EEEEEE" height="18.1328" rx="5" ry="5" style="stroke:#000000;stroke-width:2.5;" width="76" x="813.7363" y="427.4219"/><text fill="#000000" font-family="sans-serif" font-size="12" lengthAdjust="spacing" textLength="43.1484" x="830.1621" y="441.0234">Archive</text><?plantuml-src bLJXJjim4FxVfpXr-m6ixPAqJ0YfYAm9WetIAYbiKjKWavXYAR4ZssbNKT0UOk-o_tkKFSdERYhG4D8MAOxlVFVTVNVd72jDf5Oarr0fAjlpYcMqNR6sh7BQk6y0tE_1M8gv9CKX957myJeAl_XH42UmXdEnGiyL-5d1E1n1I2HdV0uHEYkK1qHcRLLIde5cLD8C7X2nOr3n1Mi7d1GKzsjelZGV3WRmwjEq62OcA579b296Ci3ShkDnU14azZZMH5Tguu0XWiW_cS2ldx1muLyU4yFatE_ZSieqb29dwGgIaxCedYIMXAXuPbWd9-UZKMHrqwypyCioNraYK5IvPcMEsotzDoOvAPQOq_AESYZIT1korgILb9HZg5ec1SRHA553U0qbuk8g6DVAWBdM5TimtJzmlHOktPdHzE4o3k09VEyPkpL4_YJ4pyQvQt2y9voUwxRsUvxtlpYUmUc-iDfO_erpr0Vt5HotBhwfs1JUuPXbjcOpF9j26o9QY0MjnQ7PLkLpAHDB3hDjzmQatCm1LYvSKAw7v9iPYNt7QTRg8Irkg1nJ6H1JzwRhuDcsPUyXe2bJJ73Gv2OtqnQH9NoAHnUmGx85uIdDTfybV4LobX5DWSm9uqg3IkzeGMo6pSt-44QVuVVt7-00bL98PQ8zFk8Io1NUGGwIbZaca-G40ReEP6Ibp8XDyV9mo6ghMHrqI3JYPa0DFsKfUAsUqxK4OMo7nMex1xtXHXagtO5KA3DQpRTkww1dATkIJI4cfewItEgwi75rK-0rk1KII5bAiI0vx4INv-6rFvYSNVcJiz75Rctho_IEcGOr7Xh7UAlDRwRHS3kUuttezFu0?></g></svg>