<svg xmlns="http://www.w3.org/2000/svg" xmlns:xlink="http://www.w3.org/1999/xlink" contentStyleType="text/css" data-diagram-type="SALT" height="368px" preserveAspectRatio="none" style="width:996px;height:368px;background:#FFFFFF;" version="1.1" viewBox="0 0 996 368" width="996px" zoomAndPan="magnify"><?plantuml 1.2026.4?><defs/><g><rect fill="#DDDDDD" height="15.1328" style="stroke:#000000;stroke-width:1;" width="984.0078" x="6" y="6"/><text fill="#000000" font-family="sans-serif" font-size="12" lengthAdjust="spacing" textLength="157.0605" x="6" y="17.6016">Program: ^RDB_REWARDS^</text><text fill="#000000" font-family="sans-serif" font-size="12" lengthAdjust="spacing" textLength="148.5" x="173.0605" y="17.6016">Loyalty Admin &gt; Rewards</text><text fill="#000000" font-family="sans-serif" font-size="12" lengthAdjust="spacing" textLength="48.7266" x="17" y="50.8672">Rewards</text><text fill="#000000" font-family="sans-serif" font-size="12" lengthAdjust="spacing" textLength="160.4473" x="27" y="65">USD 5 Cashback     (DRAFT)</text><text fill="#000000" font-family="sans-serif" font-size="12" lengthAdjust="spacing" textLength="158.2852" x="27" y="79.1328">Coffee Voucher     (ACTIVE)</text><text fill="#000000" font-family="sans-serif" font-size="12" lengthAdjust="spacing" textLength="164.4727" x="27" y="93.2656">Sweepstakes Entry  (ACTIVE)</text><rect fill="none" height="2" style="stroke:#888888;stroke-width:1;" width="2" x="10" y="45.332"/><line style="stroke:#888888;stroke-width:1;" x1="11" x2="11" y1="48.332" y2="60.4648"/><line style="stroke:#888888;stroke-width:1;" x1="11" x2="19" y1="60.4648" y2="60.4648"/><line style="stroke:#888888;stroke-width:1;" x1="11" x2="11" y1="48.332" y2="74.5977"/><line style="stroke:#888888;stroke-width:1;" x1="11" x2="19" y1="74.5977" y2="74.5977"/><line style="stroke:#888888;stroke-width:1;" x1="11" x2="11" y1="48.332" y2="88.7305"/><line style="stroke:#888888;stroke-width:1;" x1="11" x2="19" y1="88.7305" y2="88.7305"/><text fill="#000000" font-family="sans-serif" font-size="12" lengthAdjust="spacing" textLength="78.3691" x="196.4727" y="51.8672">Reward name</text><text fill="#000000" font-family="sans-serif" font-size="12" lengthAdjust="spacing" textLength="94.7813" x="589.0078" y="51.8672">USD 5 Cashback</text><line style="stroke:#000000;stroke-width:1;" x1="587.0078" x2="902.0078" y1="54.3984" y2="54.3984"/><line style="stroke:#000000;stroke-width:1;" x1="587.0078" x2="587.0078" y1="51.3984" y2="53.3984"/><line style="stroke:#000000;stroke-width:1;" x1="902.0078" x2="902.0078" y1="51.3984" y2="53.3984"/><text fill="#000000" font-family="sans-serif" font-size="12" lengthAdjust="spacing" textLength="71.4023" x="196.4727" y="70">Reward type</text><rect fill="#EEEEEE" height="17.1328" style="stroke:#000000;stroke-width:1;" width="79" x="586.0078" y="58.3984"/><text fill="#000000" font-family="sans-serif" font-size="12" lengthAdjust="spacing" textLength="63.1816" x="588.0078" y="72">CASHBACK</text><line style="stroke:#000000;stroke-width:1;" x1="654.0078" x2="654.0078" y1="58.3984" y2="75.5313"/><polygon fill="#000000" points="657.0078,64.3984,663.0078,64.3984,660.0078,70.5313" style="stroke:#000000;stroke-width:1;stroke-linejoin:miter;stroke-miterlimit:10;"/><text fill="#000000" font-family="sans-serif" font-size="12" lengthAdjust="spacing" textLength="35.6309" x="196.4727" y="90.1328">Status</text><text fill="#000000" font-family="sans-serif" font-size="12" lengthAdjust="spacing" textLength="79.459" x="589.0078" y="90.1328">DRAFT &#183; rev 1</text><line style="stroke:#000000;stroke-width:1;" x1="587.0078" x2="902.0078" y1="92.6641" y2="92.6641"/><line style="stroke:#000000;stroke-width:1;" x1="587.0078" x2="587.0078" y1="89.6641" y2="91.6641"/><line style="stroke:#000000;stroke-width:1;" x1="902.0078" x2="902.0078" y1="89.6641" y2="91.6641"/><text fill="#000000" font-family="sans-serif" font-size="12" lengthAdjust="spacing" textLength="57.3281" x="196.4727" y="108.2656">Point cost</text><text fill="#000000" font-family="sans-serif" font-size="12" lengthAdjust="spacing" textLength="30.3516" x="589.0078" y="108.2656">5000</text><line style="stroke:#000000;stroke-width:1;" x1="587.0078" x2="902.0078" y1="110.7969" y2="110.7969"/><line style="stroke:#000000;stroke-width:1;" x1="587.0078" x2="587.0078" y1="107.7969" y2="109.7969"/><line style="stroke:#000000;stroke-width:1;" x1="902.0078" x2="902.0078" y1="107.7969" y2="109.7969"/><line style="stroke:#AAAAAA;stroke-width:1;" x1="196.4727" x2="585.0078" y1="117.2969" y2="117.2969"/><line style="stroke:#AAAAAA;stroke-width:1;" x1="196.4727" x2="585.0078" y1="119.2969" y2="119.2969"/><text fill="#000000" font-family="sans-serif" font-size="12" lengthAdjust="spacing" textLength="183.6094" x="199.4727" y="134.3984">Fulfillment params (CASHBACK)</text><line style="stroke:#000000;stroke-width:1;" x1="197.4727" x2="432.4727" y1="136.9297" y2="136.9297"/><line style="stroke:#000000;stroke-width:1;" x1="197.4727" x2="197.4727" y1="133.9297" y2="135.9297"/><line style="stroke:#000000;stroke-width:1;" x1="432.4727" x2="432.4727" y1="133.9297" y2="135.9297"/><text fill="#000000" font-family="sans-serif" font-size="12" lengthAdjust="spacing" textLength="44.584" x="197.4727" y="153.5313">amount</text><text fill="#000000" font-family="sans-serif" font-size="12" lengthAdjust="spacing" textLength="26.5605" x="252.4355" y="153.5313">5.00</text><line style="stroke:#000000;stroke-width:1;" x1="250.4355" x2="565.4355" y1="156.0625" y2="156.0625"/><line style="stroke:#000000;stroke-width:1;" x1="250.4355" x2="250.4355" y1="153.0625" y2="155.0625"/><line style="stroke:#000000;stroke-width:1;" x1="565.4355" x2="565.4355" y1="153.0625" y2="155.0625"/><text fill="#000000" font-family="sans-serif" font-size="12" lengthAdjust="spacing" textLength="49.9629" x="197.4727" y="171.6641">currency</text><rect fill="#EEEEEE" height="17.1328" style="stroke:#000000;stroke-width:1;" width="39" x="249.4355" y="160.0625"/><text fill="#000000" font-family="sans-serif" font-size="12" lengthAdjust="spacing" textLength="23.7656" x="251.4355" y="173.6641">USD</text><line style="stroke:#000000;stroke-width:1;" x1="277.4355" x2="277.4355" y1="160.0625" y2="177.1953"/><polygon fill="#000000" points="280.4355,166.0625,286.4355,166.0625,283.4355,172.1953" style="stroke:#000000;stroke-width:1;stroke-linejoin:miter;stroke-miterlimit:10;"/><line style="stroke:#AAAAAA;stroke-width:1;" x1="196.4727" x2="585.0078" y1="184.6953" y2="184.6953"/><text fill="#000000" font-family="sans-serif" font-size="12" lengthAdjust="spacing" textLength="88.3066" x="199.4727" y="200.7969">Eligibility gates</text><line style="stroke:#000000;stroke-width:1;" x1="197.4727" x2="336.4727" y1="203.3281" y2="203.3281"/><line style="stroke:#000000;stroke-width:1;" x1="197.4727" x2="197.4727" y1="200.3281" y2="202.3281"/><line style="stroke:#000000;stroke-width:1;" x1="336.4727" x2="336.4727" y1="200.3281" y2="202.3281"/><text fill="#000000" font-family="sans-serif" font-size="12" lengthAdjust="spacing" textLength="44.6016" x="197.4727" y="219.9297">Min tier</text><rect fill="#EEEEEE" height="17.1328" style="stroke:#000000;stroke-width:1;" width="63" x="297.0078" y="208.3281"/><text fill="#000000" font-family="sans-serif" font-size="12" lengthAdjust="spacing" textLength="38.2559" x="299.0078" y="221.9297">SILVER</text><line style="stroke:#000000;stroke-width:1;" x1="349.0078" x2="349.0078" y1="208.3281" y2="225.4609"/><polygon fill="#000000" points="352.0078,214.3281,358.0078,214.3281,355.0078,220.4609" style="stroke:#000000;stroke-width:1;stroke-linejoin:miter;stroke-miterlimit:10;"/><text fill="#000000" font-family="sans-serif" font-size="12" lengthAdjust="spacing" textLength="97.5352" x="197.4727" y="240.0625">Per-member cap</text><text fill="#000000" font-family="sans-serif" font-size="12" lengthAdjust="spacing" textLength="59.4316" x="300.0078" y="240.0625">2 / month</text><line style="stroke:#000000;stroke-width:1;" x1="298.0078" x2="573.0078" y1="242.5938" y2="242.5938"/><line style="stroke:#000000;stroke-width:1;" x1="298.0078" x2="298.0078" y1="239.5938" y2="241.5938"/><line style="stroke:#000000;stroke-width:1;" x1="573.0078" x2="573.0078" y1="239.5938" y2="241.5938"/><text fill="#000000" font-family="sans-serif" font-size="12" lengthAdjust="spacing" textLength="43.1895" x="197.4727" y="258.1953">Validity</text><text fill="#000000" font-family="sans-serif" font-size="12" lengthAdjust="spacing" textLength="164.3672" x="300.0078" y="258.1953">2026-06-01 .. 2026-12-31</text><line style="stroke:#000000;stroke-width:1;" x1="298.0078" x2="581.0078" y1="260.7266" y2="260.7266"/><line style="stroke:#000000;stroke-width:1;" x1="298.0078" x2="298.0078" y1="257.7266" y2="259.7266"/><line style="stroke:#000000;stroke-width:1;" x1="581.0078" x2="581.0078" y1="257.7266" y2="259.7266"/><line style="stroke:#AAAAAA;stroke-width:1;" x1="196.4727" x2="585.0078" y1="269.2266" y2="269.2266"/><text fill="#000000" font-family="sans-serif" font-size="12" lengthAdjust="spacing" textLength="54.2871" x="199.4727" y="285.3281">Inventory</text><line style="stroke:#000000;stroke-width:1;" x1="197.4727" x2="272.4727" y1="287.8594" y2="287.8594"/><line style="stroke:#000000;stroke-width:1;" x1="197.4727" x2="197.4727" y1="284.8594" y2="286.8594"/><line style="stroke:#000000;stroke-width:1;" x1="272.4727" x2="272.4727" y1="284.8594" y2="286.8594"/><text fill="#000000" font-family="sans-serif" font-size="12" lengthAdjust="spacing" textLength="78.1992" x="217.4727" y="304.4609">Limited stock</text><rect fill="none" height="10" style="stroke:#000000;stroke-width:1.5;" width="10" x="199.4727" y="294.9258"/><polygon fill="#000000" points="200.4727,298.8594,203.4727,301.8594,210.4727,292.8594,203.4727,299.8594" style="stroke:#000000;stroke-width:1.5;stroke-linejoin:miter;stroke-miterlimit:10;"/><text fill="#000000" font-family="sans-serif" font-size="12" lengthAdjust="spacing" textLength="29.543" x="197.4727" y="320.5938">Total</text><text fill="#000000" font-family="sans-serif" font-size="12" lengthAdjust="spacing" textLength="112.125" x="297.6719" y="320.5938">"1000"   Remaining</text><text fill="#000000" font-family="sans-serif" font-size="12" lengthAdjust="spacing" textLength="30.3516" x="414.7969" y="320.5938">1000</text><line style="stroke:#000000;stroke-width:1;" x1="412.7969" x2="447.7969" y1="323.125" y2="323.125"/><line style="stroke:#000000;stroke-width:1;" x1="412.7969" x2="412.7969" y1="320.125" y2="322.125"/><line style="stroke:#000000;stroke-width:1;" x1="447.7969" x2="447.7969" y1="320.125" y2="322.125"/><line style="stroke:#AAAAAA;stroke-width:1;" x1="196.4727" x2="585.0078" y1="330.625" y2="330.625"/><line style="stroke:#AAAAAA;stroke-width:1;" x1="196.4727" x2="585.0078" y1="332.625" y2="332.625"/><rect fill="#EEEEEE" height="18.1328" rx="5" ry="5" style="stroke:#000000;stroke-width:2.5;" width="100" x="198.9727" y="338.625"/><text fill="#000000" font-family="sans-serif" font-size="12" lengthAdjust="spacing" textLength="57.7734" x="220.0859" y="352.2266">Save draft</text><rect fill="#EEEEEE" height="18.1328" rx="5" ry="5" style="stroke:#000000;stroke-width:2.5;" width="300" x="588.5078" y="338.625"/><text fill="#000000" font-family="sans-serif" font-size="12" lengthAdjust="spacing" textLength="231.4863" x="622.7646" y="352.2266">Submit for approval (REWARD_CHANGE)</text><rect fill="#EEEEEE" height="18.1328" rx="5" ry="5" style="stroke:#000000;stroke-width:2.5;" width="76" x="908.5078" y="338.625"/><text fill="#000000" font-family="sans-serif" font-size="12" lengthAdjust="spacing" textLength="43.1484" x="924.9336" y="352.2266">Archive</text><?plantuml-src bLJRRfj047tdAqP-iXj1mMtwK2bL22QDLQUom7KhHIPQmngl32pQNHoXnD-LztnPXslLs59Q1Epjd9ap5xYKYWWbIQAWa5JeSS4YgXTC5_I1Y4Xxr00Uty5Sy5YGz3C4tkJgtdD_sjx43-09Phn4RWbsbB8Cle1NqoGSa6TKN7pmlQW7EElEs-KP_F0dS0uEaTir2NVrxd3YsTUBKGzn-6P3AInv4MwfQ22sivWktJyO_u7I74FPKGbkfaJv2dE0fqP8msXbG4PIYa4CJgWuTGt-PgiohzY1O_itLxRpBMYFVKLK8Piv6g_3WPTd47GF5hnfVSvPfY3aKjNqSzCquUshOrzSj9F1TP5iM9Aa5Atb1AidOTX97NNmBY409EK58XkVnd_v10WB8MWMbbKwC9bT9WxjgEkTA3TXCLkpX67Fn4HHUIpa5Xj9iRRIbPp0dywMhXVqY3asQahJDM92abU2n_0UKfwfxJzeNPA4HPN_la9ZS_n9D_6sm32WNbbZ_ODrWduSqJJROuQvA8yZkVkrWXbBcQ8HICN3NN-ou8eabMiBgpkeMoebB6DPt6--SjZNzGvyigSG2R9Hi48uRXHhT08RBe3akU1xj3riFj9xvyR-_jKTjKXRX5k6x9NMsJve1-sIPb7r2z0qowYYDpx-1W00?></g></svg>