<svg xmlns="http://www.w3.org/2000/svg" xmlns:xlink="http://www.w3.org/1999/xlink" contentStyleType="text/css" data-diagram-type="SALT" height="193px" preserveAspectRatio="none" style="width:942px;height:193px;background:#FFFFFF;" version="1.1" viewBox="0 0 942 193" width="942px" zoomAndPan="magnify"><?plantuml 1.2026.4?><defs/><g><rect fill="#DDDDDD" height="15.1328" style="stroke:#000000;stroke-width:1;" width="735" x="6" y="6"/><text fill="#000000" font-family="sans-serif" font-size="12" lengthAdjust="spacing" textLength="157.0605" x="6" y="17.6016">Program: ^RDB_REWARDS^</text><text fill="#000000" font-family="sans-serif" font-size="12" lengthAdjust="spacing" textLength="156.0586" x="173.0605" y="17.6016">Loyalty Admin &gt; Audit Log</text><text fill="#000000" font-family="sans-serif" font-size="12" lengthAdjust="spacing" textLength="528.8848" x="6" y="49.8672">Actor ^all^   Action ^all^   Entity ^all^   From "2026-05-01"   To "2026-05-31"   [ Search ]</text><line style="stroke:#AAAAAA;stroke-width:1;" x1="6" x2="741" y1="56.8984" y2="56.8984"/><line style="stroke:#AAAAAA;stroke-width:1;" x1="6" x2="741" y1="58.8984" y2="58.8984"/><text fill="#000000" font-family="sans-serif" font-size="12" lengthAdjust="spacing" textLength="31.8457" x="7" y="75">When</text><text fill="#000000" font-family="sans-serif" font-size="12" lengthAdjust="spacing" textLength="31.1953" x="121.5352" y="75">Actor</text><text fill="#000000" font-family="sans-serif" font-size="12" lengthAdjust="spacing" textLength="37.2012" x="183.418" y="75">Action</text><text fill="#000000" font-family="sans-serif" font-size="12" lengthAdjust="spacing" textLength="32.666" x="292.0117" y="75">Entity</text><text fill="#000000" font-family="sans-serif" font-size="12" lengthAdjust="spacing" textLength="71.7773" x="361.2246" y="75">Approval ref</text><text fill="#000000" font-family="sans-serif" font-size="12" lengthAdjust="spacing" textLength="89.8184" x="450.2598" y="75">Before -&gt; After</text><text fill="#000000" font-family="sans-serif" font-size="12" lengthAdjust="spacing" textLength="112.5352" x="7" y="91.1328">2026-05-31 09:14</text><text fill="#000000" font-family="sans-serif" font-size="12" lengthAdjust="spacing" textLength="38.127" x="121.5352" y="91.1328">mgr-1</text><text fill="#000000" font-family="sans-serif" font-size="12" lengthAdjust="spacing" textLength="106.5938" x="183.418" y="91.1328">RuleStatus:ACTIVE</text><text fill="#000000" font-family="sans-serif" font-size="12" lengthAdjust="spacing" textLength="41.4844" x="292.0117" y="91.1328">rule 31</text><text fill="#000000" font-family="sans-serif" font-size="12" lengthAdjust="spacing" textLength="87.0352" x="361.2246" y="91.1328">BEP-APV-7731</text><text fill="#000000" font-family="sans-serif" font-size="12" lengthAdjust="spacing" textLength="104.9297" x="450.2598" y="91.1328">DRAFT -&gt; ACTIVE</text><text fill="#000000" font-family="sans-serif" font-size="12" lengthAdjust="spacing" textLength="112.5352" x="7" y="107.2656">2026-05-30 16:02</text><text fill="#000000" font-family="sans-serif" font-size="12" lengthAdjust="spacing" textLength="38.127" x="121.5352" y="107.2656">mgr-1</text><text fill="#000000" font-family="sans-serif" font-size="12" lengthAdjust="spacing" textLength="87.8613" x="183.418" y="107.2656">RewardCreated</text><text fill="#000000" font-family="sans-serif" font-size="12" lengthAdjust="spacing" textLength="58.9043" x="292.0117" y="107.2656">reward 88</text><text fill="#000000" font-family="sans-serif" font-size="12" lengthAdjust="spacing" textLength="12" x="361.2246" y="107.2656">&#8212;</text><text fill="#000000" font-family="sans-serif" font-size="12" lengthAdjust="spacing" textLength="92.5898" x="450.2598" y="107.2656">(null) -&gt; DRAFT</text><text fill="#000000" font-family="sans-serif" font-size="12" lengthAdjust="spacing" textLength="112.5352" x="7" y="123.3984">2026-05-26 11:48</text><text fill="#000000" font-family="sans-serif" font-size="12" lengthAdjust="spacing" textLength="59.8828" x="121.5352" y="123.3984">cs-1/cs-3</text><text fill="#000000" font-family="sans-serif" font-size="12" lengthAdjust="spacing" textLength="51.7734" x="183.418" y="123.3984">Adjusted</text><text fill="#000000" font-family="sans-serif" font-size="12" lengthAdjust="spacing" textLength="67.2129" x="292.0117" y="123.3984">member 42</text><text fill="#000000" font-family="sans-serif" font-size="12" lengthAdjust="spacing" textLength="87.0352" x="361.2246" y="123.3984">BEP-APV-6650</text><text fill="#000000" font-family="sans-serif" font-size="12" lengthAdjust="spacing" textLength="111.7441" x="450.2598" y="123.3984">+1000 redeemable</text><line style="stroke:#000000;stroke-width:1;" x1="6" x2="120.5352" y1="62.3984" y2="62.3984"/><line style="stroke:#000000;stroke-width:1;" x1="360.2246" x2="449.2598" y1="126.9297" y2="126.9297"/><line style="stroke:#000000;stroke-width:1;" x1="120.5352" x2="182.418" y1="62.3984" y2="62.3984"/><line style="stroke:#000000;stroke-width:1;" x1="449.2598" x2="563.0039" y1="126.9297" y2="126.9297"/><line style="stroke:#000000;stroke-width:1;" x1="182.418" x2="291.0117" y1="62.3984" y2="62.3984"/><line style="stroke:#000000;stroke-width:1;" x1="291.0117" x2="360.2246" y1="62.3984" y2="62.3984"/><line style="stroke:#000000;stroke-width:1;" x1="360.2246" x2="449.2598" y1="62.3984" y2="62.3984"/><line style="stroke:#000000;stroke-width:1;" x1="449.2598" x2="563.0039" y1="62.3984" y2="62.3984"/><line style="stroke:#000000;stroke-width:1;" x1="6" x2="120.5352" y1="110.7969" y2="110.7969"/><line style="stroke:#000000;stroke-width:1;" x1="120.5352" x2="182.418" y1="110.7969" y2="110.7969"/><line style="stroke:#000000;stroke-width:1;" x1="182.418" x2="291.0117" y1="110.7969" y2="110.7969"/><line style="stroke:#000000;stroke-width:1;" x1="291.0117" x2="360.2246" y1="110.7969" y2="110.7969"/><line style="stroke:#000000;stroke-width:1;" x1="360.2246" x2="449.2598" y1="110.7969" y2="110.7969"/><line style="stroke:#000000;stroke-width:1;" x1="449.2598" x2="563.0039" y1="110.7969" y2="110.7969"/><line style="stroke:#000000;stroke-width:1;" x1="6" x2="120.5352" y1="94.6641" y2="94.6641"/><line style="stroke:#000000;stroke-width:1;" x1="120.5352" x2="182.418" y1="94.6641" y2="94.6641"/><line style="stroke:#000000;stroke-width:1;" x1="182.418" x2="291.0117" y1="94.6641" y2="94.6641"/><line style="stroke:#000000;stroke-width:1;" x1="291.0117" x2="360.2246" y1="94.6641" y2="94.6641"/><line style="stroke:#000000;stroke-width:1;" x1="360.2246" x2="449.2598" y1="94.6641" y2="94.6641"/><line style="stroke:#000000;stroke-width:1;" x1="449.2598" x2="563.0039" y1="94.6641" y2="94.6641"/><line style="stroke:#000000;stroke-width:1;" x1="6" x2="120.5352" y1="78.5313" y2="78.5313"/><line style="stroke:#000000;stroke-width:1;" x1="120.5352" x2="182.418" y1="78.5313" y2="78.5313"/><line style="stroke:#000000;stroke-width:1;" x1="182.418" x2="291.0117" y1="78.5313" y2="78.5313"/><line style="stroke:#000000;stroke-width:1;" x1="291.0117" x2="360.2246" y1="78.5313" y2="78.5313"/><line style="stroke:#000000;stroke-width:1;" x1="360.2246" x2="449.2598" y1="78.5313" y2="78.5313"/><line style="stroke:#000000;stroke-width:1;" x1="449.2598" x2="563.0039" y1="78.5313" y2="78.5313"/><line style="stroke:#000000;stroke-width:1;" x1="6" x2="120.5352" y1="126.9297" y2="126.9297"/><line style="stroke:#000000;stroke-width:1;" x1="120.5352" x2="182.418" y1="126.9297" y2="126.9297"/><line style="stroke:#000000;stroke-width:1;" x1="182.418" x2="291.0117" y1="126.9297" y2="126.9297"/><line style="stroke:#000000;stroke-width:1;" x1="291.0117" x2="360.2246" y1="126.9297" y2="126.9297"/><line style="stroke:#000000;stroke-width:1;" x1="6" x2="6" y1="62.3984" y2="78.5313"/><line style="stroke:#000000;stroke-width:1;" x1="120.5352" x2="120.5352" y1="62.3984" y2="78.5313"/><line style="stroke:#000000;stroke-width:1;" x1="182.418" x2="182.418" y1="62.3984" y2="78.5313"/><line style="stroke:#000000;stroke-width:1;" x1="291.0117" x2="291.0117" y1="62.3984" y2="78.5313"/><line style="stroke:#000000;stroke-width:1;" x1="360.2246" x2="360.2246" y1="62.3984" y2="78.5313"/><line style="stroke:#000000;stroke-width:1;" x1="449.2598" x2="449.2598" y1="62.3984" y2="78.5313"/><line style="stroke:#000000;stroke-width:1;" x1="563.0039" x2="563.0039" y1="62.3984" y2="78.5313"/><line style="stroke:#000000;stroke-width:1;" x1="6" x2="6" y1="110.7969" y2="126.9297"/><line style="stroke:#000000;stroke-width:1;" x1="120.5352" x2="120.5352" y1="110.7969" y2="126.9297"/><line style="stroke:#000000;stroke-width:1;" x1="182.418" x2="182.418" y1="110.7969" y2="126.9297"/><line style="stroke:#000000;stroke-width:1;" x1="291.0117" x2="291.0117" y1="110.7969" y2="126.9297"/><line style="stroke:#000000;stroke-width:1;" x1="360.2246" x2="360.2246" y1="110.7969" y2="126.9297"/><line style="stroke:#000000;stroke-width:1;" x1="449.2598" x2="449.2598" y1="110.7969" y2="126.9297"/><line style="stroke:#000000;stroke-width:1;" x1="563.0039" x2="563.0039" y1="110.7969" y2="126.9297"/><line style="stroke:#000000;stroke-width:1;" x1="6" x2="6" y1="94.6641" y2="110.7969"/><line style="stroke:#000000;stroke-width:1;" x1="120.5352" x2="120.5352" y1="94.6641" y2="110.7969"/><line style="stroke:#000000;stroke-width:1;" x1="182.418" x2="182.418" y1="94.6641" y2="110.7969"/><line style="stroke:#000000;stroke-width:1;" x1="291.0117" x2="291.0117" y1="94.6641" y2="110.7969"/><line style="stroke:#000000;stroke-width:1;" x1="360.2246" x2="360.2246" y1="94.6641" y2="110.7969"/><line style="stroke:#000000;stroke-width:1;" x1="449.2598" x2="449.2598" y1="94.6641" y2="110.7969"/><line style="stroke:#000000;stroke-width:1;" x1="563.0039" x2="563.0039" y1="94.6641" y2="110.7969"/><line style="stroke:#000000;stroke-width:1;" x1="6" x2="6" y1="78.5313" y2="94.6641"/><line style="stroke:#000000;stroke-width:1;" x1="120.5352" x2="120.5352" y1="78.5313" y2="94.6641"/><line style="stroke:#000000;stroke-width:1;" x1="182.418" x2="182.418" y1="78.5313" y2="94.6641"/><line style="stroke:#000000;stroke-width:1;" x1="291.0117" x2="291.0117" y1="78.5313" y2="94.6641"/><line style="stroke:#000000;stroke-width:1;" x1="360.2246" x2="360.2246" y1="78.5313" y2="94.6641"/><line style="stroke:#000000;stroke-width:1;" x1="449.2598" x2="449.2598" y1="78.5313" y2="94.6641"/><line style="stroke:#000000;stroke-width:1;" x1="563.0039" x2="563.0039" y1="78.5313" y2="94.6641"/><line style="stroke:#AAAAAA;stroke-width:1.5;" x1="6" x2="741" y1="132.4297" y2="132.4297"/><text fill="#000000" font-family="sans-serif" font-size="12" lengthAdjust="spacing" textLength="566.0391" x="9" y="148.5313">Hash-chained + DB-immutable &#183; retained &gt;= 7 years &#183; maker/checker recorded for adjustments.</text><line style="stroke:#000000;stroke-width:1;" x1="7" x2="738" y1="151.0625" y2="151.0625"/><line style="stroke:#000000;stroke-width:1;" x1="7" x2="7" y1="148.0625" y2="150.0625"/><line style="stroke:#000000;stroke-width:1;" x1="738" x2="738" y1="148.0625" y2="150.0625"/><line style="stroke:#AAAAAA;stroke-width:1;" x1="6" x2="741" y1="157.5625" y2="157.5625"/><line style="stroke:#AAAAAA;stroke-width:1;" x1="6" x2="741" y1="159.5625" y2="159.5625"/><rect fill="#EEEEEE" height="18.1328" rx="5" ry="5" style="stroke:#000000;stroke-width:2.5;" width="300" x="8.5" y="165.5625"/><text fill="#000000" font-family="sans-serif" font-size="12" lengthAdjust="spacing" textLength="203.4727" x="56.7637" y="179.1641">View row detail (before/after JSON)</text><rect fill="#EEEEEE" height="18.1328" rx="5" ry="5" style="stroke:#000000;stroke-width:2.5;" width="188" x="744.5" y="165.5625"/><text fill="#000000" font-family="sans-serif" font-size="12" lengthAdjust="spacing" textLength="132.5918" x="772.2041" y="179.1641">Export (WORM archive)</text><?plantuml-src PLDHRjf04FttAKRqXpHQi0q1YaGK4uZQgcsGGV21GhNO0tRhzQBrEXI5H3r4xzB_7gKdwQnhGcWjUQttTjwysPtnLQQvqXbFDEGPAhREun1P7ZEUXx6s7Yo0XzSmKdAjkEZ2mX_qF_l3cUSFnWlOmmUv8-aEl534ALo2PrJ4hk6Hb3LwlK1B1GkU90ieK2pJPpXCTKpg0xnHKa35jTqMio-OxLI8cyWZqoYOEOoHgo22EqhVwvaANz42imXJUFdiI_CZCDud0MK1Hy5ce-GzJq3XYc0VLr8XC3hOIgCoBiTQm7xJTPeK9TQAEOSCVfxWM7ETPrtlUl9kEYHE4GSDvzcbFnmnRpHbxJQHUnZutisaC2a49ousEAskxVxdWbkkmck5N6DOSghWeDCfyU_lFquFMqtp93apHeNZIn-t1OxJRNOeAiYOKwUbKTn7-2NF3XPb6e5YYGgQxZ-dQRKkR8BdZctRL4o8AFWoGR8ni_3qH4lbBSyY5aGyJYddEGpwB1OYroOEVlqabVwxTTc3DkoepPcX1V-AgXv46D2NWWAfGWgYtW0l2XIOwgnMESp37AOnRa79BOGcOmBLPT79EZTjXFVZsqzdS4V5pc7uRIELXkhirly8PgpYUwGzwz6wmZGqFuPbEJLpJxNc7m00?></g></svg>