<svg xmlns="http://www.w3.org/2000/svg" xmlns:xlink="http://www.w3.org/1999/xlink" contentStyleType="text/css" data-diagram-type="SEQUENCE" height="800px" preserveAspectRatio="none" style="width:1819px;height:800px;background:#FFFFFF;" version="1.1" viewBox="0 0 1819 800" width="1819px" zoomAndPan="magnify"><?plantuml 1.2026.4?><defs/><g><g class="title" data-source-line="1"><text fill="#000000" font-family="sans-serif" font-size="14" font-weight="700" lengthAdjust="spacing" textLength="545.2139" x="633.6628" y="28.5352">loyalty-campaign &#8212; Winner selection trigger, outbox emit &amp; prize hand-off</text></g><g><title>WinnerSelectionService</title><rect fill="#FFFFFF" height="422.9473" style="stroke:#181818;stroke-width:1;" width="10" x="297.1924" y="189.9082"/></g><rect fill="none" height="461.5684" style="stroke:#000000;stroke-width:1.5;" width="1793.5396" x="10" y="151.2871"/><rect fill="none" height="371.6367" style="stroke:#000000;stroke-width:1.5;" width="1773.5396" x="20" y="234.2188"/><rect fill="none" height="266.75" style="stroke:#000000;stroke-width:1.5;" width="1575.9419" x="207.5977" y="332.1055"/><g class="participant-lifeline" data-entity-uid="part1" data-qualified-name="sch" data-source-line="3" id="part1-lifeline"><g><title>DrawingScheduler</title><rect fill="#000000" fill-opacity="0.00000" height="626.8105" width="8" x="114.7988" y="104.9766"/><line style="stroke:#181818;stroke-width:0.5;stroke-dasharray:5,5;" x1="118" x2="118" y1="104.9766" y2="731.7871"/></g></g><g class="participant-lifeline" data-entity-uid="part2" data-qualified-name="sel" data-source-line="4" id="part2-lifeline"><g><title>WinnerSelectionService</title><rect fill="#000000" fill-opacity="0.00000" height="626.8105" width="8" x="298.1924" y="104.9766"/><line style="stroke:#181818;stroke-width:0.5;stroke-dasharray:5,5;" x1="301.5977" x2="301.5977" y1="104.9766" y2="731.7871"/></g></g><g class="participant-lifeline" data-entity-uid="part3" data-qualified-name="algo" data-source-line="5" id="part3-lifeline"><g><title>WinnerSelection .pure fn.</title><rect fill="#000000" fill-opacity="0.00000" height="626.8105" width="8" x="838.769" y="104.9766"/><line style="stroke:#181818;stroke-width:0.5;stroke-dasharray:5,5;" x1="842.4258" x2="842.4258" y1="104.9766" y2="731.7871"/></g></g><g class="participant-lifeline" data-entity-uid="part4" data-qualified-name="relay" data-source-line="6" id="part4-lifeline"><g><title>OutboxRelay</title><rect fill="#000000" fill-opacity="0.00000" height="626.8105" width="8" x="991.3838" y="104.9766"/><line style="stroke:#181818;stroke-width:0.5;stroke-dasharray:5,5;" x1="995.1123" x2="995.1123" y1="104.9766" y2="731.7871"/></g></g><g class="participant-lifeline" data-entity-uid="part5" data-qualified-name="msk" data-source-line="7" id="part5-lifeline"><g><title>loyalty.campaign.. .MSK.</title><rect fill="#000000" fill-opacity="0.00000" height="626.8105" width="8" x="1156.5176" y="104.9766"/><line style="stroke:#181818;stroke-width:0.5;stroke-dasharray:5,5;" x1="1160.4424" x2="1160.4424" y1="104.9766" y2="731.7871"/></g></g><g class="participant-lifeline" data-entity-uid="part6" data-qualified-name="redemption" data-source-line="8" id="part6-lifeline"><g><title>loyalty-redemption</title><rect fill="#000000" fill-opacity="0.00000" height="626.8105" width="8" x="1583.7588" y="104.9766"/><line style="stroke:#181818;stroke-width:0.5;stroke-dasharray:5,5;" x1="1587.2671" x2="1587.2671" y1="104.9766" y2="731.7871"/></g></g><g class="participant-lifeline" data-entity-uid="part7" data-qualified-name="db" data-source-line="9" id="part7-lifeline"><g><title>campaign RDS</title><rect fill="#000000" fill-opacity="0.00000" height="626.8105" width="8" x="1717.895" y="104.9766"/><line style="stroke:#181818;stroke-width:0.5;stroke-dasharray:5,5;" x1="1721.2505" x2="1721.2505" y1="104.9766" y2="731.7871"/></g></g><g class="participant participant-head" data-entity-uid="part1" data-qualified-name="sch" data-source-line="3" id="part1-head"><rect fill="#E2E2F0" height="46.9766" rx="2.5" ry="2.5" style="stroke:#181818;stroke-width:0.5;" width="177.5977" x="30" y="57"/><text fill="#000000" font-family="sans-serif" font-size="14" lengthAdjust="spacing" textLength="122.4727" x="57.5625" y="77.5352">DrawingScheduler</text><text fill="#000000" font-family="sans-serif" font-size="14" lengthAdjust="spacing" textLength="163.5977" x="37" y="94.0234">(@Scheduled, ShedLock)</text></g><g class="participant participant-tail" data-entity-uid="part1" data-qualified-name="sch" data-source-line="3" id="part1-tail"><rect fill="#E2E2F0" height="46.9766" rx="2.5" ry="2.5" style="stroke:#181818;stroke-width:0.5;" width="177.5977" x="30" y="730.7871"/><text fill="#000000" font-family="sans-serif" font-size="14" lengthAdjust="spacing" textLength="122.4727" x="57.5625" y="751.3223">DrawingScheduler</text><text fill="#000000" font-family="sans-serif" font-size="14" lengthAdjust="spacing" textLength="163.5977" x="37" y="767.8105">(@Scheduled, ShedLock)</text></g><g class="participant participant-head" data-entity-uid="part2" data-qualified-name="sel" data-source-line="4" id="part2-head"><rect fill="#E2E2F0" height="30.4883" rx="2.5" ry="2.5" style="stroke:#181818;stroke-width:0.5;" width="169.1895" x="217.5977" y="73.4883"/><text fill="#000000" font-family="sans-serif" font-size="14" lengthAdjust="spacing" textLength="155.1895" x="224.5977" y="94.0234">WinnerSelectionService</text></g><g class="participant participant-tail" data-entity-uid="part2" data-qualified-name="sel" data-source-line="4" id="part2-tail"><rect fill="#E2E2F0" height="30.4883" rx="2.5" ry="2.5" style="stroke:#181818;stroke-width:0.5;" width="169.1895" x="217.5977" y="730.7871"/><text fill="#000000" font-family="sans-serif" font-size="14" lengthAdjust="spacing" textLength="155.1895" x="224.5977" y="751.3223">WinnerSelectionService</text></g><g class="participant participant-head" data-entity-uid="part3" data-qualified-name="algo" data-source-line="5" id="part3-head"><rect fill="#E2E2F0" height="30.4883" rx="2.5" ry="2.5" style="stroke:#181818;stroke-width:0.5;" width="184.6865" x="750.4258" y="73.4883"/><text fill="#000000" font-family="sans-serif" font-size="14" lengthAdjust="spacing" textLength="170.6865" x="757.4258" y="94.0234">WinnerSelection (pure fn)</text></g><g class="participant participant-tail" data-entity-uid="part3" data-qualified-name="algo" data-source-line="5" id="part3-tail"><rect fill="#E2E2F0" height="30.4883" rx="2.5" ry="2.5" style="stroke:#181818;stroke-width:0.5;" width="184.6865" x="750.4258" y="730.7871"/><text fill="#000000" font-family="sans-serif" font-size="14" lengthAdjust="spacing" textLength="170.6865" x="757.4258" y="751.3223">WinnerSelection (pure fn)</text></g><g class="participant participant-head" data-entity-uid="part4" data-qualified-name="relay" data-source-line="6" id="part4-head"><rect fill="#E2E2F0" height="30.4883" rx="2.5" ry="2.5" style="stroke:#181818;stroke-width:0.5;" width="100.543" x="945.1123" y="73.4883"/><text fill="#000000" font-family="sans-serif" font-size="14" lengthAdjust="spacing" textLength="86.543" x="952.1123" y="94.0234">OutboxRelay</text></g><g class="participant participant-tail" data-entity-uid="part4" data-qualified-name="relay" data-source-line="6" id="part4-tail"><rect fill="#E2E2F0" height="30.4883" rx="2.5" ry="2.5" style="stroke:#181818;stroke-width:0.5;" width="100.543" x="945.1123" y="730.7871"/><text fill="#000000" font-family="sans-serif" font-size="14" lengthAdjust="spacing" textLength="86.543" x="952.1123" y="751.3223">OutboxRelay</text></g><g class="participant participant-head" data-entity-uid="part5" data-qualified-name="msk" data-source-line="7" id="part5-head"><path d="M1071.4424,78.4883 L1249.5928,78.4883 C1254.5928,78.4883 1254.5928,91.7324 1254.5928,91.7324 C1254.5928,91.7324 1254.5928,104.9766 1249.5928,104.9766 L1071.4424,104.9766 C1066.4424,104.9766 1066.4424,91.7324 1066.4424,91.7324 C1066.4424,91.7324 1066.4424,78.4883 1071.4424,78.4883" fill="#E2E2F0" style="stroke:#181818;stroke-width:0.5;"/><path d="M1249.5928,78.4883 C1244.5928,78.4883 1244.5928,91.7324 1244.5928,91.7324 C1244.5928,104.9766 1249.5928,104.9766 1249.5928,104.9766" fill="none" style="stroke:#181818;stroke-width:0.5;"/><text fill="#000000" font-family="sans-serif" font-size="14" lengthAdjust="spacing" textLength="168.1504" x="1071.4424" y="97.0234">loyalty.campaign.* (MSK)</text></g><g class="participant participant-tail" data-entity-uid="part5" data-qualified-name="msk" data-source-line="7" id="part5-tail"><path d="M1071.4424,730.7871 L1249.5928,730.7871 C1254.5928,730.7871 1254.5928,744.0313 1254.5928,744.0313 C1254.5928,744.0313 1254.5928,757.2754 1249.5928,757.2754 L1071.4424,757.2754 C1066.4424,757.2754 1066.4424,744.0313 1066.4424,744.0313 C1066.4424,744.0313 1066.4424,730.7871 1071.4424,730.7871" fill="#E2E2F0" style="stroke:#181818;stroke-width:0.5;"/><path d="M1249.5928,730.7871 C1244.5928,730.7871 1244.5928,744.0313 1244.5928,744.0313 C1244.5928,757.2754 1249.5928,757.2754 1249.5928,757.2754" fill="none" style="stroke:#181818;stroke-width:0.5;"/><text fill="#000000" font-family="sans-serif" font-size="14" lengthAdjust="spacing" textLength="168.1504" x="1071.4424" y="749.3223">loyalty.campaign.* (MSK)</text></g><g class="participant participant-head" data-entity-uid="part6" data-qualified-name="redemption" data-source-line="8" id="part6-head"><rect fill="#E2E2F0" height="30.4883" rx="2.5" ry="2.5" style="stroke:#181818;stroke-width:0.5;" width="144.9834" x="1515.2671" y="73.4883"/><text fill="#000000" font-family="sans-serif" font-size="14" lengthAdjust="spacing" textLength="130.9834" x="1522.2671" y="94.0234">loyalty-redemption</text></g><g class="participant participant-tail" data-entity-uid="part6" data-qualified-name="redemption" data-source-line="8" id="part6-tail"><rect fill="#E2E2F0" height="30.4883" rx="2.5" ry="2.5" style="stroke:#181818;stroke-width:0.5;" width="144.9834" x="1515.2671" y="730.7871"/><text fill="#000000" font-family="sans-serif" font-size="14" lengthAdjust="spacing" textLength="130.9834" x="1522.2671" y="751.3223">loyalty-redemption</text></g><g class="participant participant-head" data-entity-uid="part7" data-qualified-name="db" data-source-line="9" id="part7-head"><text fill="#000000" font-family="sans-serif" font-size="14" lengthAdjust="spacing" textLength="97.2891" x="1670.2505" y="102.0234">campaign RDS</text><path d="M1703.895,52.4883 C1703.895,42.4883 1721.895,42.4883 1721.895,42.4883 C1721.895,42.4883 1739.895,42.4883 1739.895,52.4883 L1739.895,78.4883 C1739.895,88.4883 1721.895,88.4883 1721.895,88.4883 C1721.895,88.4883 1703.895,88.4883 1703.895,78.4883 L1703.895,52.4883" fill="#E2E2F0" style="stroke:#181818;stroke-width:0.5;"/><path d="M1703.895,52.4883 C1703.895,62.4883 1721.895,62.4883 1721.895,62.4883 C1721.895,62.4883 1739.895,62.4883 1739.895,52.4883" fill="none" style="stroke:#181818;stroke-width:0.5;"/></g><g class="participant participant-tail" data-entity-uid="part7" data-qualified-name="db" data-source-line="9" id="part7-tail"><text fill="#000000" font-family="sans-serif" font-size="14" lengthAdjust="spacing" textLength="97.2891" x="1670.2505" y="744.3223">campaign RDS</text><path d="M1703.895,757.2754 C1703.895,747.2754 1721.895,747.2754 1721.895,747.2754 C1721.895,747.2754 1739.895,747.2754 1739.895,757.2754 L1739.895,783.2754 C1739.895,793.2754 1721.895,793.2754 1721.895,793.2754 C1721.895,793.2754 1703.895,793.2754 1703.895,783.2754 L1703.895,757.2754" fill="#E2E2F0" style="stroke:#181818;stroke-width:0.5;"/><path d="M1703.895,757.2754 C1703.895,767.2754 1721.895,767.2754 1721.895,767.2754 C1721.895,767.2754 1739.895,767.2754 1739.895,757.2754" fill="none" style="stroke:#181818;stroke-width:0.5;"/></g><g><title>WinnerSelectionService</title><rect fill="#FFFFFF" height="422.9473" style="stroke:#181818;stroke-width:1;" width="10" x="297.1924" y="189.9082"/></g><g class="message" data-entity-1="part1" data-entity-2="part7" data-source-line="11" id="msg1"><polygon fill="#181818" points="1709.895,132.2871,1719.895,136.2871,1709.895,140.2871,1713.895,136.2871" style="stroke:#181818;stroke-width:1;stroke-linejoin:miter;stroke-miterlimit:10;"/><line style="stroke:#181818;stroke-width:1;" x1="118.7988" x2="1715.895" y1="136.2871" y2="136.2871"/><text fill="#000000" font-family="sans-serif" font-size="13" lengthAdjust="spacing" textLength="245.0894" x="125.7988" y="131.5449">find OPEN drawings, draw_at &lt;= now()</text></g><path d="M10,151.2871 L84.4468,151.2871 L84.4468,158.5977 L74.4468,168.5977 L10,168.5977 L10,151.2871" fill="#EEEEEE" style="stroke:#000000;stroke-width:1.5;"/><rect fill="none" height="461.5684" style="stroke:#000000;stroke-width:1.5;" width="1793.5396" x="10" y="151.2871"/><text fill="#000000" font-family="sans-serif" font-size="13" font-weight="700" lengthAdjust="spacing" textLength="29.4468" x="25" y="164.8555">loop</text><text fill="#000000" font-family="sans-serif" font-size="11" font-weight="700" lengthAdjust="spacing" textLength="361.2114" x="99.4468" y="163.9219">[each due drawing  (own txn &#8212; one failure can't block the rest)]</text><g class="message" data-entity-1="part1" data-entity-2="part2" data-source-line="13" id="msg2"><polygon fill="#181818" points="285.1924,185.9082,295.1924,189.9082,285.1924,193.9082,289.1924,189.9082" style="stroke:#181818;stroke-width:1;stroke-linejoin:miter;stroke-miterlimit:10;"/><line style="stroke:#181818;stroke-width:1;" x1="118.7988" x2="291.1924" y1="189.9082" y2="189.9082"/><text fill="#000000" font-family="sans-serif" font-size="13" lengthAdjust="spacing" textLength="150.979" x="125.7988" y="185.166">selectWinner(drawingId)</text></g><g class="message" data-entity-1="part2" data-entity-2="part7" data-source-line="15" id="msg3"><polygon fill="#181818" points="1709.895,215.2188,1719.895,219.2188,1709.895,223.2188,1713.895,219.2188" style="stroke:#181818;stroke-width:1;stroke-linejoin:miter;stroke-miterlimit:10;"/><line style="stroke:#181818;stroke-width:1;" x1="307.1924" x2="1715.895" y1="219.2188" y2="219.2188"/><text fill="#000000" font-family="sans-serif" font-size="13" lengthAdjust="spacing" textLength="263.0659" x="314.1924" y="214.4766">SELECT &#8230; FOR UPDATE  (pessimistic lock)</text></g><path d="M20,234.2188 L82.1387,234.2188 L82.1387,241.5293 L72.1387,251.5293 L20,251.5293 L20,234.2188" fill="#EEEEEE" style="stroke:#000000;stroke-width:1.5;"/><rect fill="none" height="371.6367" style="stroke:#000000;stroke-width:1.5;" width="1773.5396" x="20" y="234.2188"/><text fill="#000000" font-family="sans-serif" font-size="13" font-weight="700" lengthAdjust="spacing" textLength="17.1387" x="35" y="247.7871">alt</text><text fill="#000000" font-family="sans-serif" font-size="11" font-weight="700" lengthAdjust="spacing" textLength="188.6973" x="97.1387" y="246.8535">[status terminal (duplicated fire)]</text><g class="message" data-entity-1="part2" data-entity-2="part1" data-source-line="17" id="msg4"><polygon fill="#181818" points="129.7988,268.8398,119.7988,272.8398,129.7988,276.8398,125.7988,272.8398" style="stroke:#181818;stroke-width:1;stroke-linejoin:miter;stroke-miterlimit:10;"/><line style="stroke:#181818;stroke-width:1;stroke-dasharray:2,2;" x1="123.7988" x2="296.1924" y1="272.8398" y2="272.8398"/><text fill="#000000" font-family="sans-serif" font-size="13" lengthAdjust="spacing" textLength="39.7427" x="135.7988" y="268.0977">no-op</text></g><line style="stroke:#000000;stroke-width:1;stroke-dasharray:2,2;" x1="20" x2="1793.5396" y1="281.8398" y2="281.8398"/><text fill="#000000" font-family="sans-serif" font-size="11" font-weight="700" lengthAdjust="spacing" textLength="39.0156" x="25" y="292.4746">[OPEN]</text><g class="message" data-entity-1="part2" data-entity-2="part7" data-source-line="19" id="msg5"><polygon fill="#181818" points="1709.895,313.1055,1719.895,317.1055,1709.895,321.1055,1713.895,317.1055" style="stroke:#181818;stroke-width:1;stroke-linejoin:miter;stroke-miterlimit:10;"/><line style="stroke:#181818;stroke-width:1;" x1="307.1924" x2="1715.895" y1="317.1055" y2="317.1055"/><text fill="#000000" font-family="sans-serif" font-size="13" lengthAdjust="spacing" textLength="287.2505" x="314.1924" y="312.3633">entries ORDER BY entry_id  (immutable order)</text></g><path d="M207.5977,332.1055 L269.7363,332.1055 L269.7363,339.416 L259.7363,349.416 L207.5977,349.416 L207.5977,332.1055" fill="#EEEEEE" style="stroke:#000000;stroke-width:1.5;"/><rect fill="none" height="266.75" style="stroke:#000000;stroke-width:1.5;" width="1575.9419" x="207.5977" y="332.1055"/><text fill="#000000" font-family="sans-serif" font-size="13" font-weight="700" lengthAdjust="spacing" textLength="17.1387" x="222.5977" y="345.6738">alt</text><text fill="#000000" font-family="sans-serif" font-size="11" font-weight="700" lengthAdjust="spacing" textLength="39.8643" x="284.7363" y="344.7402">[N = 0]</text><g class="message" data-entity-1="part2" data-entity-2="part7" data-source-line="21" id="msg6"><polygon fill="#181818" points="1709.895,366.7266,1719.895,370.7266,1709.895,374.7266,1713.895,370.7266" style="stroke:#181818;stroke-width:1;stroke-linejoin:miter;stroke-miterlimit:10;"/><line style="stroke:#181818;stroke-width:1;" x1="307.1924" x2="1715.895" y1="370.7266" y2="370.7266"/><text fill="#000000" font-family="sans-serif" font-size="13" lengthAdjust="spacing" textLength="221.1777" x="314.1924" y="365.9844">drawing.markVoid()  (status=VOID)</text></g><g class="message" data-entity-1="part2" data-entity-2="part4" data-source-line="22" id="msg7"><polygon fill="#181818" points="983.3838,396.0371,993.3838,400.0371,983.3838,404.0371,987.3838,400.0371" style="stroke:#181818;stroke-width:1;stroke-linejoin:miter;stroke-miterlimit:10;"/><line style="stroke:#181818;stroke-width:1;" x1="307.1924" x2="989.3838" y1="400.0371" y2="400.0371"/><text fill="#000000" font-family="sans-serif" font-size="13" lengthAdjust="spacing" textLength="250.0405" x="314.1924" y="395.2949">enqueue DrawingVoid  (key=drawingId)</text></g><line style="stroke:#000000;stroke-width:1;stroke-dasharray:2,2;" x1="207.5977" x2="1783.5396" y1="409.0371" y2="409.0371"/><text fill="#000000" font-family="sans-serif" font-size="11" font-weight="700" lengthAdjust="spacing" textLength="39.8643" x="212.5977" y="419.6719">[N &gt; 0]</text><g class="message" data-entity-1="part2" data-entity-2="part3" data-source-line="24" id="msg8"><polygon fill="#181818" points="830.769,440.3027,840.769,444.3027,830.769,448.3027,834.769,444.3027" style="stroke:#181818;stroke-width:1;stroke-linejoin:miter;stroke-miterlimit:10;"/><line style="stroke:#181818;stroke-width:1;" x1="307.1924" x2="836.769" y1="444.3027" y2="444.3027"/><text fill="#000000" font-family="sans-serif" font-size="13" lengthAdjust="spacing" textLength="511.5767" x="314.1924" y="439.5605">select(drawingId, drawAt, hmacSecret, entries, strategy, K=min(winnersCount,N))</text></g><g class="message" data-entity-1="part3" data-entity-2="part2" data-source-line="25" id="msg9"><polygon fill="#181818" points="318.1924,469.6133,308.1924,473.6133,318.1924,477.6133,314.1924,473.6133" style="stroke:#181818;stroke-width:1;stroke-linejoin:miter;stroke-miterlimit:10;"/><line style="stroke:#181818;stroke-width:1;stroke-dasharray:2,2;" x1="312.1924" x2="841.769" y1="473.6133" y2="473.6133"/><text fill="#000000" font-family="sans-serif" font-size="13" lengthAdjust="spacing" textLength="286.6538" x="324.1924" y="468.8711">K winners {memberId, winnerIndex, seedHex}</text></g><g class="message" data-entity-1="part2" data-entity-2="part7" data-source-line="26" id="msg10"><polygon fill="#181818" points="1709.895,498.9238,1719.895,502.9238,1709.895,506.9238,1713.895,502.9238" style="stroke:#181818;stroke-width:1;stroke-linejoin:miter;stroke-miterlimit:10;"/><line style="stroke:#181818;stroke-width:1;" x1="307.1924" x2="1715.895" y1="502.9238" y2="502.9238"/><text fill="#000000" font-family="sans-serif" font-size="13" lengthAdjust="spacing" textLength="270.9751" x="314.1924" y="498.1816">INSERT K winner_record rows  (insert-only)</text></g><g class="message" data-entity-1="part2" data-entity-2="part7" data-source-line="27" id="msg11"><polygon fill="#181818" points="1709.895,528.2344,1719.895,532.2344,1709.895,536.2344,1713.895,532.2344" style="stroke:#181818;stroke-width:1;stroke-linejoin:miter;stroke-miterlimit:10;"/><line style="stroke:#181818;stroke-width:1;" x1="307.1924" x2="1715.895" y1="532.2344" y2="532.2344"/><text fill="#000000" font-family="sans-serif" font-size="13" lengthAdjust="spacing" textLength="210.52" x="314.1924" y="527.4922">drawing.close()  (status=CLOSED)</text></g><g class="message" data-entity-1="part2" data-entity-2="part4" data-source-line="28" id="msg12"><polygon fill="#181818" points="983.3838,557.5449,993.3838,561.5449,983.3838,565.5449,987.3838,561.5449" style="stroke:#181818;stroke-width:1;stroke-linejoin:miter;stroke-miterlimit:10;"/><line style="stroke:#181818;stroke-width:1;" x1="307.1924" x2="989.3838" y1="561.5449" y2="561.5449"/><text fill="#000000" font-family="sans-serif" font-size="13" lengthAdjust="spacing" textLength="312.8696" x="314.1924" y="556.8027">enqueue 1&#215; DrawingCompleted  (key=drawingId)</text></g><g class="message" data-entity-1="part2" data-entity-2="part4" data-source-line="29" id="msg13"><polygon fill="#181818" points="983.3838,586.8555,993.3838,590.8555,983.3838,594.8555,987.3838,590.8555" style="stroke:#181818;stroke-width:1;stroke-linejoin:miter;stroke-miterlimit:10;"/><line style="stroke:#181818;stroke-width:1;" x1="307.1924" x2="989.3838" y1="590.8555" y2="590.8555"/><text fill="#000000" font-family="sans-serif" font-size="13" lengthAdjust="spacing" textLength="289.7642" x="314.1924" y="586.1133">enqueue K&#215; WinnerSelected  (key=memberId)</text></g><rect fill="#EEEEEE" height="3" style="stroke:#EEEEEE;stroke-width:1;" width="1813.5396" x="0" y="640.5107"/><line style="stroke:#000000;stroke-width:1;" x1="0" x2="1813.5396" y1="640.5107" y2="640.5107"/><line style="stroke:#000000;stroke-width:1;" x1="0" x2="1813.5396" y1="643.5107" y2="643.5107"/><rect fill="#EEEEEE" height="23.3105" style="stroke:#000000;stroke-width:2;" width="340.022" x="736.7588" y="629.8555"/><text fill="#000000" font-family="sans-serif" font-size="13" font-weight="700" lengthAdjust="spacing" textLength="321.7373" x="742.7588" y="646.4238">Outbox relay drains async (PT1S tick, ShedLock)</text><g class="message" data-entity-1="part4" data-entity-2="part5" data-source-line="36" id="msg14"><polygon fill="#181818" points="1148.5176,680.4766,1158.5176,684.4766,1148.5176,688.4766,1152.5176,684.4766" style="stroke:#181818;stroke-width:1;stroke-linejoin:miter;stroke-miterlimit:10;"/><line style="stroke:#181818;stroke-width:1;" x1="995.3838" x2="1154.5176" y1="684.4766" y2="684.4766"/><text fill="#000000" font-family="sans-serif" font-size="13" lengthAdjust="spacing" textLength="141.1338" x="1002.3838" y="679.7344">publish PENDING rows</text></g><g class="message" data-entity-1="part5" data-entity-2="part6" data-source-line="37" id="msg15"><polygon fill="#181818" points="1575.7588,709.7871,1585.7588,713.7871,1575.7588,717.7871,1579.7588,713.7871" style="stroke:#181818;stroke-width:1;stroke-linejoin:miter;stroke-miterlimit:10;"/><line style="stroke:#181818;stroke-width:1;" x1="1160.5176" x2="1581.7588" y1="713.7871" y2="713.7871"/><text fill="#000000" font-family="sans-serif" font-size="13" lengthAdjust="spacing" textLength="403.2412" x="1167.5176" y="709.0449">WinnerSelected &#8594; system-initiated redemption per prize (T-13)</text></g><?plantuml-src XLJRZjCm47tFLupw02bgLgnugyWAs1QeTcbNJG4X8QtSUBQrwjZ1ThOD28adFW0XyGVy27_2bp3EfPikjpvKhZjpvimvut72IGIfIoPT6QKiovbOAVZvwIky5agX0OiIKoUq0cV4QeLc0BfmIxq3p8I3Ev0RyHvXpHIFzDLL4EJCE96Ad2a7Dbr3ys4MUYF3jaAjadIDl91etghmKVk33o2XqxbED_tU8GZABaZDAsbf9MYkHOg7AKokzDzJ8CmBWt2bRXKoA5bvapMhsfpxorxmhi026yZCRhg46lMEMlMExa7u8Zdx3PnZbbVbEqdHpNKluCon9RDL6Rw4ReszC_DHqWi2hsjqueE6S2KKXzd5U0gybjSEgjCbS_0m1gMtOJ-GMkU0ZD8ujT440eHwIxxkQiEr8asOa5wRbAcx3fQIt02tHc9lNJy0Q0fxIuRDQDJYXWtcXFimHZfVCuS-n6THU4it6P-FJnTKy3iydStXvSNeyM9CJ7AqLcJ2ac3WorOmajntp1KM79fCA2OXv4KkHKhWd5etwEEQ2fuOyHjIpv7EwHubYUcbkObfMA2YQKOBi_beF8SdRwgByb9mOYAoh20Zw5remz7K1JoLASHmFwXDwO8rhHzbp6nUQS73Fg7KlEDNiyceVvXJZvddK0zLyofy9kLji8mFj6pQcCB9xUBLbBSst1XGs__O3M2TiJJ1r22Tcuu79AWXyLRb0CvYaZJSLlxPKrqeDvZsMx8LUBJt-WoQEFYGORP4u-lKLnF5SKUuYFmvxZx-GQ39D1dF5tkCIuCfIGj6RwtNMraqBj9Ablr_g9jARR4hxUdvB1d_JzpZ7zzQWKzrbalqS_D7bVyASKOGtGso1sY5Q5nIF6Y_EHwy07yPn37K6wKfGEMfSthTfKeXl5WS9q2pl-ciGOZZe8ubLdxf324lbbBODT1CZoRJPvM4WV-huhtVCCFRX7z-_WAsj0wpI2ZXHFLyEWavRVfwaOUBwFX1_nS0?></g></svg>